solid crossbeam-lock
facet normal 0.0 1.0 0.0
outer loop
vertex 0.0 31.75 3.175
vertex 12.7 31.75 0.0
vertex 0.0 31.75 0.0
endloop
endfacet
facet normal 0.0 1.0 0.0
outer loop
vertex 12.7 31.75 0.0
vertex 0.0 31.75 3.175
vertex 12.7 31.75 3.175
endloop
endfacet
facet normal -1.0 -0.0 -0.0
outer loop
vertex 0.0 31.75 3.175
vertex 0.0 0.0 0.0
vertex 0.0 0.0 3.175
endloop
endfacet
facet normal -1.0 -0.0 -0.0
outer loop
vertex 0.0 0.0 0.0
vertex 0.0 31.75 3.175
vertex 0.0 31.75 0.0
endloop
endfacet
facet normal -0.0 -0.0 1.0
outer loop
vertex 0.0 0.0 3.175
vertex 3.175 3.175 3.175
vertex 0.0 31.75 3.175
endloop
endfacet
facet normal -0.0 -0.0 1.0
outer loop
vertex 3.175 3.175 3.175
vertex 0.0 0.0 3.175
vertex 12.7 0.0 3.175
endloop
endfacet
facet normal -0.0 -0.0 1.0
outer loop
vertex 3.175 3.175 3.175
vertex 12.7 0.0 3.175
vertex 12.7 3.175 3.175
endloop
endfacet
facet normal -0.0 -0.0 1.0
outer loop
vertex 0.0 31.75 3.175
vertex 3.175 28.575 3.175
vertex 12.7 31.75 3.175
endloop
endfacet
facet normal -0.0 -0.0 1.0
outer loop
vertex 3.175 28.575 3.175
vertex 0.0 31.75 3.175
vertex 3.175 3.175 3.175
endloop
endfacet
facet normal -0.0 -0.0 1.0
outer loop
vertex 12.7 31.75 3.175
vertex 3.175 28.575 3.175
vertex 12.7 28.575 3.175
endloop
endfacet
facet normal 1.0 -0.0 0.0
outer loop
vertex 12.7 31.75 0.0
vertex 12.7 28.575 3.175
vertex 12.7 28.575 0.0
endloop
endfacet
facet normal 1.0 -0.0 0.0
outer loop
vertex 12.7 28.575 3.175
vertex 12.7 31.75 0.0
vertex 12.7 31.75 3.175
endloop
endfacet
facet normal 0.0 -1.0 0.0
outer loop
vertex 12.7 0.0 3.175
vertex 0.0 0.0 0.0
vertex 12.7 0.0 0.0
endloop
endfacet
facet normal 0.0 -1.0 0.0
outer loop
vertex 0.0 0.0 0.0
vertex 12.7 0.0 3.175
vertex 0.0 0.0 3.175
endloop
endfacet
facet normal -0.0 -0.0 -1.0
outer loop
vertex 0.0 31.75 0.0
vertex 3.175 28.575 0.0
vertex 0.0 0.0 0.0
endloop
endfacet
facet normal -0.0 -0.0 -1.0
outer loop
vertex 3.175 28.575 0.0
vertex 0.0 31.75 0.0
vertex 12.7 31.75 0.0
endloop
endfacet
facet normal -0.0 -0.0 -1.0
outer loop
vertex 3.175 28.575 0.0
vertex 12.7 31.75 0.0
vertex 12.7 28.575 0.0
endloop
endfacet
facet normal -0.0 -0.0 -1.0
outer loop
vertex 0.0 0.0 0.0
vertex 3.175 3.175 0.0
vertex 12.7 0.0 0.0
endloop
endfacet
facet normal -0.0 -0.0 -1.0
outer loop
vertex 3.175 3.175 0.0
vertex 0.0 0.0 0.0
vertex 3.175 28.575 0.0
endloop
endfacet
facet normal -0.0 -0.0 -1.0
outer loop
vertex 12.7 0.0 0.0
vertex 3.175 3.175 0.0
vertex 12.7 3.175 0.0
endloop
endfacet
facet normal 1.0 -0.0 0.0
outer loop
vertex 12.7 3.175 0.0
vertex 12.7 0.0 3.175
vertex 12.7 0.0 0.0
endloop
endfacet
facet normal 1.0 -0.0 0.0
outer loop
vertex 12.7 0.0 3.175
vertex 12.7 3.175 0.0
vertex 12.7 3.175 3.175
endloop
endfacet
facet normal 1.0 -0.0 0.0
outer loop
vertex 3.175 28.575 0.0
vertex 3.175 3.175 3.175
vertex 3.175 3.175 0.0
endloop
endfacet
facet normal 1.0 -0.0 0.0
outer loop
vertex 3.175 3.175 3.175
vertex 3.175 28.575 0.0
vertex 3.175 28.575 3.175
endloop
endfacet
facet normal 0.0 1.0 0.0
outer loop
vertex 3.175 3.175 3.175
vertex 12.7 3.175 0.0
vertex 3.175 3.175 0.0
endloop
endfacet
facet normal 0.0 1.0 0.0
outer loop
vertex 12.7 3.175 0.0
vertex 3.175 3.175 3.175
vertex 12.7 3.175 3.175
endloop
endfacet
facet normal 0.0 -1.0 0.0
outer loop
vertex 12.7 28.575 3.175
vertex 3.175 28.575 0.0
vertex 12.7 28.575 0.0
endloop
endfacet
facet normal 0.0 -1.0 0.0
outer loop
vertex 3.175 28.575 0.0
vertex 12.7 28.575 3.175
vertex 3.175 28.575 3.175
endloop
endfacet
endsolid crossbeam-lock
