solid z-motor-plug
facet normal 0.92644811418769 -0.376422490983301 0.0
outer loop
vertex -2.65626553397991 1.07925967326352 5.63993296509579e-15
vertex -2.84508843880444 0.354992682634115 3.96875
vertex -2.84508843880444 0.354992682634115 5.63993296509579e-15
endloop
endfacet
facet normal 0.992305469882104 -0.123813789385745 0.0
outer loop
vertex -2.84508843880444 0.354992682634115 3.96875
vertex -2.65626553397991 1.07925967326352 5.63993296509579e-15
vertex -2.65626553397991 1.07925967326352 3.96875
endloop
endfacet
facet normal -0.797454850539283 0.603378621887923 0.0
outer loop
vertex 2.286422522701 -1.72997690072095 3.96875
vertex 1.76076359499188 -2.26279906131625 5.63993296509579e-15
vertex 1.76076359499188 -2.26279906131625 3.96875
endloop
endfacet
facet normal -0.614116356683075 0.789215496841202 0.0
outer loop
vertex 1.76076359499188 -2.26279906131625 5.63993296509579e-15
vertex 2.286422522701 -1.72997690072095 3.96875
vertex 2.286422522701 -1.72997690072095 5.63993296509579e-15
endloop
endfacet
facet normal 0.376422490983302 0.92644811418769 0.0
outer loop
vertex -1.07925967326352 -2.65626553397991 3.96875
vertex -0.354992682634116 -2.84508843880444 5.63993296509579e-15
vertex -1.07925967326352 -2.65626553397991 5.63993296509579e-15
endloop
endfacet
facet normal 0.123813789385746 0.992305469882103 0.0
outer loop
vertex -0.354992682634116 -2.84508843880444 5.63993296509579e-15
vertex -1.07925967326352 -2.65626553397991 3.96875
vertex -0.354992682634116 -2.84508843880444 3.96875
endloop
endfacet
facet normal -0.603378621887923 -0.797454850539283 0.0
outer loop
vertex 1.72997690072095 2.286422522701 3.96875
vertex 1.07925967326351 2.65626553397991 5.63993296509579e-15
vertex 1.72997690072095 2.286422522701 5.63993296509579e-15
endloop
endfacet
facet normal -0.376422490983301 -0.92644811418769 0.0
outer loop
vertex 1.07925967326351 2.65626553397991 5.63993296509579e-15
vertex 1.72997690072095 2.286422522701 3.96875
vertex 1.07925967326351 2.65626553397991 3.96875
endloop
endfacet
facet normal -0.137232617346488 0.990538847666376 0.0
outer loop
vertex 0.39346647266366 -2.8400232682554 3.96875
vertex 1.11511153808349 -2.64141520533511 5.63993296509579e-15
vertex 0.39346647266366 -2.8400232682554 5.63993296509579e-15
endloop
endfacet
facet normal -0.388926847994181 0.921268639925028 0.0
outer loop
vertex 1.11511153808349 -2.64141520533511 5.63993296509579e-15
vertex 0.39346647266366 -2.8400232682554 3.96875
vertex 1.11511153808349 -2.64141520533511 3.96875
endloop
endfacet
facet normal 0.992305469882104 -0.123813789385745 0.0
outer loop
vertex -2.84508843880444 0.354992682634115 5.63993296509579e-15
vertex -2.8400232682554 -0.393466472663664 3.96875
vertex -2.8400232682554 -0.393466472663664 5.63993296509579e-15
endloop
endfacet
facet normal 0.990538847666376 0.137232617346488 0.0
outer loop
vertex -2.8400232682554 -0.393466472663664 3.96875
vertex -2.84508843880444 0.354992682634115 5.63993296509579e-15
vertex -2.84508843880444 0.354992682634115 3.96875
endloop
endfacet
facet normal 0.603378621887924 0.797454850539283 0.0
outer loop
vertex -1.72997690072095 -2.286422522701 3.96875
vertex -1.07925967326352 -2.65626553397991 5.63993296509579e-15
vertex -1.72997690072095 -2.286422522701 5.63993296509579e-15
endloop
endfacet
facet normal 0.376422490983302 0.92644811418769 0.0
outer loop
vertex -1.07925967326352 -2.65626553397991 5.63993296509579e-15
vertex -1.72997690072095 -2.286422522701 3.96875
vertex -1.07925967326352 -2.65626553397991 3.96875
endloop
endfacet
facet normal -0.921268639925028 -0.388926847994181 0.0
outer loop
vertex 2.64141520533511 1.11511153808349 3.96875
vertex 2.8400232682554 0.393466472663661 5.63993296509579e-15
vertex 2.8400232682554 0.393466472663661 3.96875
endloop
endfacet
facet normal -0.990538847666376 -0.137232617346488 0.0
outer loop
vertex 2.8400232682554 0.393466472663661 5.63993296509579e-15
vertex 2.64141520533511 1.11511153808349 3.96875
vertex 2.64141520533511 1.11511153808349 5.63993296509579e-15
endloop
endfacet
facet normal -0.992305469882103 0.123813789385746 0.0
outer loop
vertex 2.84508843880444 -0.354992682634119 3.96875
vertex 2.65626553397991 -1.07925967326351 5.63993296509579e-15
vertex 2.65626553397991 -1.07925967326351 3.96875
endloop
endfacet
facet normal -0.92644811418769 0.376422490983302 0.0
outer loop
vertex 2.65626553397991 -1.07925967326351 5.63993296509579e-15
vertex 2.84508843880444 -0.354992682634119 3.96875
vertex 2.84508843880444 -0.354992682634119 5.63993296509579e-15
endloop
endfacet
facet normal -0.789215496841202 -0.614116356683076 0.0
outer loop
vertex 2.26279906131625 1.76076359499188 3.96875
vertex 2.64141520533511 1.11511153808349 5.63993296509579e-15
vertex 2.64141520533511 1.11511153808349 3.96875
endloop
endfacet
facet normal -0.921268639925028 -0.388926847994181 0.0
outer loop
vertex 2.64141520533511 1.11511153808349 5.63993296509579e-15
vertex 2.26279906131625 1.76076359499188 3.96875
vertex 2.26279906131625 1.76076359499188 5.63993296509579e-15
endloop
endfacet
facet normal 0.137232617346487 -0.990538847666376 0.0
outer loop
vertex -0.393466472663657 2.8400232682554 3.96875
vertex -1.11511153808349 2.64141520533511 5.63993296509579e-15
vertex -0.393466472663657 2.8400232682554 5.63993296509579e-15
endloop
endfacet
facet normal 0.38892684799418 -0.921268639925029 0.0
outer loop
vertex -1.11511153808349 2.64141520533511 5.63993296509579e-15
vertex -0.393466472663657 2.8400232682554 3.96875
vertex -1.11511153808349 2.64141520533511 3.96875
endloop
endfacet
facet normal -0.990538847666376 -0.137232617346488 0.0
outer loop
vertex 2.8400232682554 0.393466472663661 3.96875
vertex 2.84508843880444 -0.354992682634119 5.63993296509579e-15
vertex 2.84508843880444 -0.354992682634119 3.96875
endloop
endfacet
facet normal -0.992305469882103 0.123813789385746 0.0
outer loop
vertex 2.84508843880444 -0.354992682634119 5.63993296509579e-15
vertex 2.8400232682554 0.393466472663661 3.96875
vertex 2.8400232682554 0.393466472663661 5.63993296509579e-15
endloop
endfacet
facet normal -0.789215496841202 -0.614116356683076 0.0
outer loop
vertex 2.26279906131625 1.76076359499188 3.96875
vertex 1.72997690072095 2.286422522701 5.63993296509579e-15
vertex 2.26279906131625 1.76076359499188 5.63993296509579e-15
endloop
endfacet
facet normal -0.603378621887923 -0.797454850539283 0.0
outer loop
vertex 1.72997690072095 2.286422522701 5.63993296509579e-15
vertex 2.26279906131625 1.76076359499188 3.96875
vertex 1.72997690072095 2.286422522701 3.96875
endloop
endfacet
facet normal 0.990538847666376 0.137232617346488 0.0
outer loop
vertex -2.8400232682554 -0.393466472663664 5.63993296509579e-15
vertex -2.64141520533511 -1.11511153808349 3.96875
vertex -2.64141520533511 -1.11511153808349 5.63993296509579e-15
endloop
endfacet
facet normal 0.921268639925028 0.38892684799418 0.0
outer loop
vertex -2.64141520533511 -1.11511153808349 3.96875
vertex -2.8400232682554 -0.393466472663664 5.63993296509579e-15
vertex -2.8400232682554 -0.393466472663664 3.96875
endloop
endfacet
facet normal -0.123813789385746 -0.992305469882103 0.0
outer loop
vertex 0.354992682634117 2.84508843880444 3.96875
vertex -0.393466472663657 2.8400232682554 5.63993296509579e-15
vertex 0.354992682634117 2.84508843880444 5.63993296509579e-15
endloop
endfacet
facet normal 0.137232617346487 -0.990538847666376 0.0
outer loop
vertex -0.393466472663657 2.8400232682554 5.63993296509579e-15
vertex 0.354992682634117 2.84508843880444 3.96875
vertex -0.393466472663657 2.8400232682554 3.96875
endloop
endfacet
facet normal 0.38892684799418 -0.921268639925029 0.0
outer loop
vertex -1.11511153808349 2.64141520533511 3.96875
vertex -1.76076359499188 2.26279906131625 5.63993296509579e-15
vertex -1.11511153808349 2.64141520533511 5.63993296509579e-15
endloop
endfacet
facet normal 0.614116356683075 -0.789215496841202 0.0
outer loop
vertex -1.76076359499188 2.26279906131625 5.63993296509579e-15
vertex -1.11511153808349 2.64141520533511 3.96875
vertex -1.76076359499188 2.26279906131625 3.96875
endloop
endfacet
facet normal -0.388926847994181 0.921268639925028 0.0
outer loop
vertex 1.11511153808349 -2.64141520533511 3.96875
vertex 1.76076359499188 -2.26279906131625 5.63993296509579e-15
vertex 1.11511153808349 -2.64141520533511 5.63993296509579e-15
endloop
endfacet
facet normal -0.614116356683075 0.789215496841202 0.0
outer loop
vertex 1.76076359499188 -2.26279906131625 5.63993296509579e-15
vertex 1.11511153808349 -2.64141520533511 3.96875
vertex 1.76076359499188 -2.26279906131625 3.96875
endloop
endfacet
facet normal -0.376422490983301 -0.92644811418769 0.0
outer loop
vertex 1.07925967326351 2.65626553397991 3.96875
vertex 0.354992682634117 2.84508843880444 5.63993296509579e-15
vertex 1.07925967326351 2.65626553397991 5.63993296509579e-15
endloop
endfacet
facet normal -0.123813789385746 -0.992305469882103 0.0
outer loop
vertex 0.354992682634117 2.84508843880444 5.63993296509579e-15
vertex 1.07925967326351 2.65626553397991 3.96875
vertex 0.354992682634117 2.84508843880444 3.96875
endloop
endfacet
facet normal 0.921268639925028 0.38892684799418 0.0
outer loop
vertex -2.64141520533511 -1.11511153808349 5.63993296509579e-15
vertex -2.26279906131626 -1.76076359499188 3.96875
vertex -2.26279906131626 -1.76076359499188 5.63993296509579e-15
endloop
endfacet
facet normal 0.789215496841202 0.614116356683075 0.0
outer loop
vertex -2.26279906131626 -1.76076359499188 3.96875
vertex -2.64141520533511 -1.11511153808349 5.63993296509579e-15
vertex -2.64141520533511 -1.11511153808349 3.96875
endloop
endfacet
facet normal 0.123813789385746 0.992305469882103 0.0
outer loop
vertex -0.354992682634116 -2.84508843880444 3.96875
vertex 0.39346647266366 -2.8400232682554 5.63993296509579e-15
vertex -0.354992682634116 -2.84508843880444 5.63993296509579e-15
endloop
endfacet
facet normal -0.137232617346488 0.990538847666376 0.0
outer loop
vertex 0.39346647266366 -2.8400232682554 5.63993296509579e-15
vertex -0.354992682634116 -2.84508843880444 3.96875
vertex 0.39346647266366 -2.8400232682554 3.96875
endloop
endfacet
facet normal 0.797454850539283 -0.603378621887923 0.0
outer loop
vertex -2.286422522701 1.72997690072095 5.63993296509579e-15
vertex -2.65626553397991 1.07925967326352 3.96875
vertex -2.65626553397991 1.07925967326352 5.63993296509579e-15
endloop
endfacet
facet normal 0.92644811418769 -0.376422490983301 0.0
outer loop
vertex -2.65626553397991 1.07925967326352 3.96875
vertex -2.286422522701 1.72997690072095 5.63993296509579e-15
vertex -2.286422522701 1.72997690072095 3.96875
endloop
endfacet
facet normal -0.966615555378545 0.256231083399784 0.0
outer loop
vertex -6.13800877665376 1.62706737958863 0.79375
vertex -6.34997722486143 -0.01700716734728 0.0
vertex -6.34997722486143 -0.01700716734728 0.79375
endloop
endfacet
facet normal -0.999996413364004 -0.00267829407043818 0.0
outer loop
vertex -6.34997722486143 -0.01700716734728 0.0
vertex -6.13800877665376 1.62706737958863 0.79375
vertex -6.13800877665376 1.62706737958863 0.0
endloop
endfacet
facet normal -0.92644811418769 0.376422490983302 0.0
outer loop
vertex 2.65626553397991 -1.07925967326351 3.96875
vertex 2.286422522701 -1.72997690072095 5.63993296509579e-15
vertex 2.286422522701 -1.72997690072095 3.96875
endloop
endfacet
facet normal -0.797454850539283 0.603378621887923 0.0
outer loop
vertex 2.286422522701 -1.72997690072095 5.63993296509579e-15
vertex 2.65626553397991 -1.07925967326351 3.96875
vertex 2.65626553397991 -1.07925967326351 5.63993296509579e-15
endloop
endfacet
facet normal -0.649900674587582 0.760019153160369 0.0
outer loop
vertex -3.09515196272336 3.61959121692626 3.96875
vertex -3.92650635951012 2.6951723615989 0.79375
vertex -3.92650635951012 2.6951723615989 3.96875
endloop
endfacet
facet normal -0.824463277587427 0.565915456503705 0.0
outer loop
vertex -3.92650635951012 2.6951723615989 0.79375
vertex -3.09515196272336 3.61959121692626 3.96875
vertex -3.09515196272336 3.61959121692626 0.79375
endloop
endfacet
facet normal -0.824463277587427 0.565915456503705 0.0
outer loop
vertex -3.92650635951012 2.6951723615989 3.96875
vertex -4.49027583675483 1.58708196381149 0.79375
vertex -4.49027583675483 1.58708196381149 3.96875
endloop
endfacet
facet normal -0.942840070709675 0.333245556705825 0.0
outer loop
vertex -4.49027583675483 1.58708196381149 0.79375
vertex -3.92650635951012 2.6951723615989 3.96875
vertex -3.92650635951012 2.6951723615989 0.79375
endloop
endfacet
facet normal 0.565915456503706 0.824463277587427 0.0
outer loop
vertex 2.6951723615989 3.92650635951012 3.96875
vertex 3.61959121692626 3.09515196272336 0.79375
vertex 2.6951723615989 3.92650635951012 0.79375
endloop
endfacet
facet normal 0.760019153160369 0.649900674587583 0.0
outer loop
vertex 3.61959121692626 3.09515196272336 0.79375
vertex 2.6951723615989 3.92650635951012 3.96875
vertex 3.61959121692626 3.09515196272336 3.96875
endloop
endfacet
facet normal -0.864683150631333 -0.502317677385807 0.0
outer loop
vertex -5.49073800650896 -3.18971725139987 0.79375
vertex -4.47808607271961 -4.50213783943969 0.0
vertex -4.47808607271961 -4.50213783943969 0.79375
endloop
endfacet
facet normal -0.705210405152695 -0.708998084951132 0.0
outer loop
vertex -4.47808607271961 -4.50213783943969 0.0
vertex -5.49073800650896 -3.18971725139987 0.79375
vertex -5.49073800650896 -3.18971725139987 0.0
endloop
endfacet
facet normal -0.649900674587582 0.760019153160369 0.0
outer loop
vertex -3.09515196272336 3.61959121692626 3.96875
vertex -2.05286807465747 4.29734091247741 0.79375
vertex -3.09515196272336 3.61959121692626 0.79375
endloop
endfacet
facet normal -0.43104841462624 0.90232880052019 0.0
outer loop
vertex -2.05286807465747 4.29734091247741 0.79375
vertex -3.09515196272336 3.61959121692626 3.96875
vertex -2.05286807465747 4.29734091247741 3.96875
endloop
endfacet
facet normal 0.333245556705825 0.942840070709675 0.0
outer loop
vertex 1.58708196381149 4.49027583675483 3.96875
vertex 2.6951723615989 3.92650635951012 0.79375
vertex 1.58708196381149 4.49027583675483 0.79375
endloop
endfacet
facet normal 0.565915456503706 0.824463277587427 0.0
outer loop
vertex 2.6951723615989 3.92650635951012 0.79375
vertex 1.58708196381149 4.49027583675483 3.96875
vertex 2.6951723615989 3.92650635951012 3.96875
endloop
endfacet
facet normal -0.0778655229327626 -0.996963871129946 0.0
outer loop
vertex -0.37083455296728 -4.74804043625637 3.96875
vertex -1.58708196381149 -4.49027583675483 0.79375
vertex -0.37083455296728 -4.74804043625637 0.79375
endloop
endfacet
facet normal -0.333245556705825 -0.942840070709675 0.0
outer loop
vertex -1.58708196381149 -4.49027583675483 0.79375
vertex -0.37083455296728 -4.74804043625637 3.96875
vertex -1.58708196381149 -4.49027583675483 3.96875
endloop
endfacet
facet normal 0.90232880052019 0.431048414626241 0.0
outer loop
vertex 4.2973409124774 2.05286807465747 0.79375
vertex 4.68223392653485 0.870684619828569 3.96875
vertex 4.68223392653485 0.870684619828569 0.79375
endloop
endfacet
facet normal 0.983146231293407 0.182820917549306 0.0
outer loop
vertex 4.68223392653485 0.870684619828569 3.96875
vertex 4.2973409124774 2.05286807465747 0.79375
vertex 4.2973409124774 2.05286807465747 3.96875
endloop
endfacet
facet normal 0.0778655229327631 0.996963871129946 0.0
outer loop
vertex 0.370834552967283 4.74804043625637 3.96875
vertex 1.58708196381149 4.49027583675483 0.79375
vertex 0.370834552967283 4.74804043625637 0.79375
endloop
endfacet
facet normal 0.333245556705825 0.942840070709675 0.0
outer loop
vertex 1.58708196381149 4.49027583675483 0.79375
vertex 0.370834552967283 4.74804043625637 3.96875
vertex 1.58708196381149 4.49027583675483 3.96875
endloop
endfacet
facet normal -0.182820917549306 0.983146231293407 0.0
outer loop
vertex -0.870684619828568 4.68223392653485 3.96875
vertex 0.370834552967283 4.74804043625637 0.79375
vertex -0.870684619828568 4.68223392653485 0.79375
endloop
endfacet
facet normal 0.0778655229327631 0.996963871129946 0.0
outer loop
vertex 0.370834552967283 4.74804043625637 0.79375
vertex -0.870684619828568 4.68223392653485 3.96875
vertex 0.370834552967283 4.74804043625637 3.96875
endloop
endfacet
facet normal -0.497678735978198 -0.867361444701771 0.0
outer loop
vertex -3.16025997346155 -5.50774517385625 0.79375
vertex -4.47808607271961 -4.50213783943969 0.0
vertex -3.16025997346155 -5.50774517385625 0.0
endloop
endfacet
facet normal -0.705210405152695 -0.708998084951132 0.0
outer loop
vertex -4.47808607271961 -4.50213783943969 0.0
vertex -3.16025997346155 -5.50774517385625 0.79375
vertex -4.47808607271961 -4.50213783943969 0.79375
endloop
endfacet
facet normal -0.942840070709675 0.333245556705825 0.0
outer loop
vertex -4.49027583675483 1.58708196381149 3.96875
vertex -4.74804043625637 0.370834552967285 0.79375
vertex -4.74804043625637 0.370834552967285 3.96875
endloop
endfacet
facet normal -0.996963871129946 0.0778655229327634 0.0
outer loop
vertex -4.74804043625637 0.370834552967285 0.79375
vertex -4.49027583675483 1.58708196381149 3.96875
vertex -4.49027583675483 1.58708196381149 0.79375
endloop
endfacet
facet normal -0.90232880052019 -0.431048414626241 0.0
outer loop
vertex -4.2973409124774 -2.05286807465747 3.96875
vertex -3.61959121692626 -3.09515196272336 0.79375
vertex -3.61959121692626 -3.09515196272336 3.96875
endloop
endfacet
facet normal -0.760019153160369 -0.649900674587583 0.0
outer loop
vertex -3.61959121692626 -3.09515196272336 0.79375
vertex -4.2973409124774 -2.05286807465747 3.96875
vertex -4.2973409124774 -2.05286807465747 0.79375
endloop
endfacet
facet normal -0.565915456503706 -0.824463277587427 0.0
outer loop
vertex -2.6951723615989 -3.92650635951012 3.96875
vertex -3.61959121692626 -3.09515196272336 0.79375
vertex -2.6951723615989 -3.92650635951012 0.79375
endloop
endfacet
facet normal -0.760019153160369 -0.649900674587583 0.0
outer loop
vertex -3.61959121692626 -3.09515196272336 0.79375
vertex -2.6951723615989 -3.92650635951012 3.96875
vertex -3.61959121692626 -3.09515196272336 3.96875
endloop
endfacet
facet normal -0.333245556705825 -0.942840070709675 0.0
outer loop
vertex -1.58708196381149 -4.49027583675483 3.96875
vertex -2.6951723615989 -3.92650635951012 0.79375
vertex -1.58708196381149 -4.49027583675483 0.79375
endloop
endfacet
facet normal -0.565915456503706 -0.824463277587427 0.0
outer loop
vertex -2.6951723615989 -3.92650635951012 0.79375
vertex -1.58708196381149 -4.49027583675483 3.96875
vertex -2.6951723615989 -3.92650635951012 3.96875
endloop
endfacet
facet normal 0.182820917549306 -0.983146231293407 0.0
outer loop
vertex 0.87068461982857 -4.68223392653485 3.96875
vertex -0.37083455296728 -4.74804043625637 0.79375
vertex 0.87068461982857 -4.68223392653485 0.79375
endloop
endfacet
facet normal -0.0778655229327626 -0.996963871129946 0.0
outer loop
vertex -0.37083455296728 -4.74804043625637 0.79375
vertex 0.87068461982857 -4.68223392653485 3.96875
vertex -0.37083455296728 -4.74804043625637 3.96875
endloop
endfacet
facet normal 0.431048414626241 -0.90232880052019 0.0
outer loop
vertex 2.05286807465747 -4.2973409124774 3.96875
vertex 0.87068461982857 -4.68223392653485 0.79375
vertex 2.05286807465747 -4.2973409124774 0.79375
endloop
endfacet
facet normal 0.182820917549306 -0.983146231293407 0.0
outer loop
vertex 0.87068461982857 -4.68223392653485 0.79375
vertex 2.05286807465747 -4.2973409124774 3.96875
vertex 0.87068461982857 -4.68223392653485 3.96875
endloop
endfacet
facet normal 0.649900674587583 -0.760019153160369 0.0
outer loop
vertex 3.09515196272337 -3.61959121692626 3.96875
vertex 2.05286807465747 -4.2973409124774 0.79375
vertex 3.09515196272337 -3.61959121692626 0.79375
endloop
endfacet
facet normal 0.431048414626241 -0.90232880052019 0.0
outer loop
vertex 2.05286807465747 -4.2973409124774 0.79375
vertex 3.09515196272337 -3.61959121692626 3.96875
vertex 2.05286807465747 -4.2973409124774 3.96875
endloop
endfacet
facet normal 0.824463277587427 -0.565915456503705 0.0
outer loop
vertex 3.92650635951012 -2.6951723615989 0.79375
vertex 3.09515196272337 -3.61959121692626 3.96875
vertex 3.09515196272337 -3.61959121692626 0.79375
endloop
endfacet
facet normal 0.649900674587583 -0.760019153160369 0.0
outer loop
vertex 3.09515196272337 -3.61959121692626 3.96875
vertex 3.92650635951012 -2.6951723615989 0.79375
vertex 3.92650635951012 -2.6951723615989 3.96875
endloop
endfacet
facet normal 0.942840070709675 -0.333245556705825 0.0
outer loop
vertex 4.49027583675483 -1.58708196381149 0.79375
vertex 3.92650635951012 -2.6951723615989 3.96875
vertex 3.92650635951012 -2.6951723615989 0.79375
endloop
endfacet
facet normal 0.824463277587427 -0.565915456503705 0.0
outer loop
vertex 3.92650635951012 -2.6951723615989 3.96875
vertex 4.49027583675483 -1.58708196381149 0.79375
vertex 4.49027583675483 -1.58708196381149 3.96875
endloop
endfacet
facet normal 0.996963871129946 -0.077865522932763 0.0
outer loop
vertex 4.74804043625637 -0.370834552967284 0.79375
vertex 4.49027583675483 -1.58708196381149 3.96875
vertex 4.49027583675483 -1.58708196381149 0.79375
endloop
endfacet
facet normal 0.942840070709675 -0.333245556705825 0.0
outer loop
vertex 4.49027583675483 -1.58708196381149 3.96875
vertex 4.74804043625637 -0.370834552967284 0.79375
vertex 4.74804043625637 -0.370834552967284 3.96875
endloop
endfacet
facet normal 0.983146231293407 0.182820917549306 0.0
outer loop
vertex 4.68223392653485 0.870684619828569 0.79375
vertex 4.74804043625637 -0.370834552967284 3.96875
vertex 4.74804043625637 -0.370834552967284 0.79375
endloop
endfacet
facet normal 0.996963871129946 -0.077865522932763 0.0
outer loop
vertex 4.74804043625637 -0.370834552967284 3.96875
vertex 4.68223392653485 0.870684619828569 0.79375
vertex 4.68223392653485 0.870684619828569 3.96875
endloop
endfacet
facet normal 0.614116356683075 -0.789215496841202 0.0
outer loop
vertex -1.76076359499188 2.26279906131625 5.63993296509579e-15
vertex -2.286422522701 1.72997690072095 3.96875
vertex -2.286422522701 1.72997690072095 5.63993296509579e-15
endloop
endfacet
facet normal 0.797454850539283 -0.603378621887923 0.0
outer loop
vertex -2.286422522701 1.72997690072095 3.96875
vertex -1.76076359499188 2.26279906131625 5.63993296509579e-15
vertex -1.76076359499188 2.26279906131625 3.96875
endloop
endfacet
facet normal -0.996963871129946 0.0778655229327634 0.0
outer loop
vertex -4.74804043625637 0.370834552967285 3.96875
vertex -4.68223392653485 -0.870684619828567 0.79375
vertex -4.68223392653485 -0.870684619828567 3.96875
endloop
endfacet
facet normal -0.983146231293407 -0.182820917549306 0.0
outer loop
vertex -4.68223392653485 -0.870684619828567 0.79375
vertex -4.74804043625637 0.370834552967285 3.96875
vertex -4.74804043625637 0.370834552967285 0.79375
endloop
endfacet
facet normal -0.983146231293407 -0.182820917549306 0.0
outer loop
vertex -4.68223392653485 -0.870684619828567 3.96875
vertex -4.2973409124774 -2.05286807465747 0.79375
vertex -4.2973409124774 -2.05286807465747 3.96875
endloop
endfacet
facet normal -0.90232880052019 -0.431048414626241 0.0
outer loop
vertex -4.2973409124774 -2.05286807465747 0.79375
vertex -4.68223392653485 -0.870684619828567 3.96875
vertex -4.68223392653485 -0.870684619828567 0.79375
endloop
endfacet
facet normal -0.0 -0.0 1.0
outer loop
vertex -4.68223392653485 -0.870684619828567 3.96875
vertex -4.49027583675483 1.58708196381149 3.96875
vertex -4.74804043625637 0.370834552967285 3.96875
endloop
endfacet
facet normal -0.0 -0.0 1.0
outer loop
vertex -4.49027583675483 1.58708196381149 3.96875
vertex -4.68223392653485 -0.870684619828567 3.96875
vertex -4.2973409124774 -2.05286807465747 3.96875
endloop
endfacet
facet normal -0.0 -0.0 1.0
outer loop
vertex -4.49027583675483 1.58708196381149 3.96875
vertex -4.2973409124774 -2.05286807465747 3.96875
vertex -3.92650635951012 2.6951723615989 3.96875
endloop
endfacet
facet normal -0.0 -0.0 1.0
outer loop
vertex -3.92650635951012 2.6951723615989 3.96875
vertex -4.2973409124774 -2.05286807465747 3.96875
vertex -3.61959121692626 -3.09515196272336 3.96875
endloop
endfacet
facet normal -0.0 -0.0 1.0
outer loop
vertex -3.92650635951012 2.6951723615989 3.96875
vertex -3.61959121692626 -3.09515196272336 3.96875
vertex -3.09515196272336 3.61959121692626 3.96875
endloop
endfacet
facet normal -0.0 -0.0 1.0
outer loop
vertex -3.09515196272336 3.61959121692626 3.96875
vertex -3.61959121692626 -3.09515196272336 3.96875
vertex -2.6951723615989 -3.92650635951012 3.96875
endloop
endfacet
facet normal -0.0 -0.0 1.0
outer loop
vertex -3.09515196272336 3.61959121692626 3.96875
vertex -2.6951723615989 -3.92650635951012 3.96875
vertex -2.8400232682554 -0.393466472663664 3.96875
endloop
endfacet
facet normal -0.0 -0.0 1.0
outer loop
vertex -3.09515196272336 3.61959121692626 3.96875
vertex -2.8400232682554 -0.393466472663664 3.96875
vertex -2.84508843880444 0.354992682634115 3.96875
endloop
endfacet
facet normal -0.0 -0.0 1.0
outer loop
vertex -2.8400232682554 -0.393466472663664 3.96875
vertex -2.6951723615989 -3.92650635951012 3.96875
vertex -2.64141520533511 -1.11511153808349 3.96875
endloop
endfacet
facet normal -0.0 -0.0 1.0
outer loop
vertex -2.64141520533511 -1.11511153808349 3.96875
vertex -2.6951723615989 -3.92650635951012 3.96875
vertex -1.58708196381149 -4.49027583675483 3.96875
endloop
endfacet
facet normal -0.0 -0.0 1.0
outer loop
vertex -2.64141520533511 -1.11511153808349 3.96875
vertex -1.58708196381149 -4.49027583675483 3.96875
vertex -2.26279906131626 -1.76076359499188 3.96875
endloop
endfacet
facet normal -0.0 -0.0 1.0
outer loop
vertex -2.26279906131626 -1.76076359499188 3.96875
vertex -1.58708196381149 -4.49027583675483 3.96875
vertex -1.72997690072095 -2.286422522701 3.96875
endloop
endfacet
facet normal -0.0 -0.0 1.0
outer loop
vertex -1.72997690072095 -2.286422522701 3.96875
vertex -1.58708196381149 -4.49027583675483 3.96875
vertex -1.07925967326352 -2.65626553397991 3.96875
endloop
endfacet
facet normal -0.0 -0.0 1.0
outer loop
vertex -1.07925967326352 -2.65626553397991 3.96875
vertex -1.58708196381149 -4.49027583675483 3.96875
vertex -0.37083455296728 -4.74804043625637 3.96875
endloop
endfacet
facet normal -0.0 -0.0 1.0
outer loop
vertex -1.07925967326352 -2.65626553397991 3.96875
vertex -0.37083455296728 -4.74804043625637 3.96875
vertex -0.354992682634116 -2.84508843880444 3.96875
endloop
endfacet
facet normal -0.0 -0.0 1.0
outer loop
vertex -0.354992682634116 -2.84508843880444 3.96875
vertex -0.37083455296728 -4.74804043625637 3.96875
vertex 0.87068461982857 -4.68223392653485 3.96875
endloop
endfacet
facet normal -0.0 -0.0 1.0
outer loop
vertex -0.354992682634116 -2.84508843880444 3.96875
vertex 0.87068461982857 -4.68223392653485 3.96875
vertex 0.39346647266366 -2.8400232682554 3.96875
endloop
endfacet
facet normal -0.0 -0.0 1.0
outer loop
vertex 0.39346647266366 -2.8400232682554 3.96875
vertex 0.87068461982857 -4.68223392653485 3.96875
vertex 1.11511153808349 -2.64141520533511 3.96875
endloop
endfacet
facet normal -0.0 -0.0 1.0
outer loop
vertex 1.11511153808349 -2.64141520533511 3.96875
vertex 0.87068461982857 -4.68223392653485 3.96875
vertex 2.05286807465747 -4.2973409124774 3.96875
endloop
endfacet
facet normal -0.0 -0.0 1.0
outer loop
vertex 1.11511153808349 -2.64141520533511 3.96875
vertex 2.05286807465747 -4.2973409124774 3.96875
vertex 1.76076359499188 -2.26279906131625 3.96875
endloop
endfacet
facet normal -0.0 -0.0 1.0
outer loop
vertex 1.76076359499188 -2.26279906131625 3.96875
vertex 2.05286807465747 -4.2973409124774 3.96875
vertex 2.286422522701 -1.72997690072095 3.96875
endloop
endfacet
facet normal -0.0 -0.0 1.0
outer loop
vertex 2.286422522701 -1.72997690072095 3.96875
vertex 2.05286807465747 -4.2973409124774 3.96875
vertex 3.09515196272337 -3.61959121692626 3.96875
endloop
endfacet
facet normal -0.0 -0.0 1.0
outer loop
vertex 2.286422522701 -1.72997690072095 3.96875
vertex 3.09515196272337 -3.61959121692626 3.96875
vertex 2.65626553397991 -1.07925967326351 3.96875
endloop
endfacet
facet normal -0.0 -0.0 1.0
outer loop
vertex 2.65626553397991 -1.07925967326351 3.96875
vertex 3.09515196272337 -3.61959121692626 3.96875
vertex 2.84508843880444 -0.354992682634119 3.96875
endloop
endfacet
facet normal -0.0 -0.0 1.0
outer loop
vertex -2.84508843880444 0.354992682634115 3.96875
vertex -2.05286807465747 4.29734091247741 3.96875
vertex -3.09515196272336 3.61959121692626 3.96875
endloop
endfacet
facet normal -0.0 -0.0 1.0
outer loop
vertex -2.05286807465747 4.29734091247741 3.96875
vertex -2.84508843880444 0.354992682634115 3.96875
vertex -2.65626553397991 1.07925967326352 3.96875
endloop
endfacet
facet normal -0.0 -0.0 1.0
outer loop
vertex -2.05286807465747 4.29734091247741 3.96875
vertex -2.65626553397991 1.07925967326352 3.96875
vertex -2.286422522701 1.72997690072095 3.96875
endloop
endfacet
facet normal -0.0 -0.0 1.0
outer loop
vertex -2.05286807465747 4.29734091247741 3.96875
vertex -2.286422522701 1.72997690072095 3.96875
vertex -1.76076359499188 2.26279906131625 3.96875
endloop
endfacet
facet normal -0.0 -0.0 1.0
outer loop
vertex -2.05286807465747 4.29734091247741 3.96875
vertex -1.76076359499188 2.26279906131625 3.96875
vertex -0.870684619828568 4.68223392653485 3.96875
endloop
endfacet
facet normal -0.0 -0.0 1.0
outer loop
vertex -0.870684619828568 4.68223392653485 3.96875
vertex -1.76076359499188 2.26279906131625 3.96875
vertex -1.11511153808349 2.64141520533511 3.96875
endloop
endfacet
facet normal -0.0 -0.0 1.0
outer loop
vertex -0.870684619828568 4.68223392653485 3.96875
vertex -1.11511153808349 2.64141520533511 3.96875
vertex -0.393466472663657 2.8400232682554 3.96875
endloop
endfacet
facet normal -0.0 -0.0 1.0
outer loop
vertex -0.870684619828568 4.68223392653485 3.96875
vertex -0.393466472663657 2.8400232682554 3.96875
vertex 0.370834552967283 4.74804043625637 3.96875
endloop
endfacet
facet normal -0.0 -0.0 1.0
outer loop
vertex 0.370834552967283 4.74804043625637 3.96875
vertex -0.393466472663657 2.8400232682554 3.96875
vertex 0.354992682634117 2.84508843880444 3.96875
endloop
endfacet
facet normal -0.0 -0.0 1.0
outer loop
vertex 0.370834552967283 4.74804043625637 3.96875
vertex 0.354992682634117 2.84508843880444 3.96875
vertex 1.07925967326351 2.65626553397991 3.96875
endloop
endfacet
facet normal -0.0 -0.0 1.0
outer loop
vertex 0.370834552967283 4.74804043625637 3.96875
vertex 1.07925967326351 2.65626553397991 3.96875
vertex 1.58708196381149 4.49027583675483 3.96875
endloop
endfacet
facet normal -0.0 -0.0 1.0
outer loop
vertex 1.58708196381149 4.49027583675483 3.96875
vertex 1.07925967326351 2.65626553397991 3.96875
vertex 1.72997690072095 2.286422522701 3.96875
endloop
endfacet
facet normal -0.0 -0.0 1.0
outer loop
vertex 1.58708196381149 4.49027583675483 3.96875
vertex 1.72997690072095 2.286422522701 3.96875
vertex 2.6951723615989 3.92650635951012 3.96875
endloop
endfacet
facet normal -0.0 -0.0 1.0
outer loop
vertex 2.6951723615989 3.92650635951012 3.96875
vertex 1.72997690072095 2.286422522701 3.96875
vertex 2.26279906131625 1.76076359499188 3.96875
endloop
endfacet
facet normal -0.0 -0.0 1.0
outer loop
vertex 2.6951723615989 3.92650635951012 3.96875
vertex 2.26279906131625 1.76076359499188 3.96875
vertex 2.64141520533511 1.11511153808349 3.96875
endloop
endfacet
facet normal -0.0 -0.0 1.0
outer loop
vertex 2.6951723615989 3.92650635951012 3.96875
vertex 2.64141520533511 1.11511153808349 3.96875
vertex 2.8400232682554 0.393466472663661 3.96875
endloop
endfacet
facet normal -0.0 -0.0 1.0
outer loop
vertex 2.6951723615989 3.92650635951012 3.96875
vertex 2.8400232682554 0.393466472663661 3.96875
vertex 3.61959121692626 3.09515196272336 3.96875
endloop
endfacet
facet normal -0.0 -0.0 1.0
outer loop
vertex 3.61959121692626 3.09515196272336 3.96875
vertex 2.8400232682554 0.393466472663661 3.96875
vertex 2.84508843880444 -0.354992682634119 3.96875
endloop
endfacet
facet normal -0.0 -0.0 1.0
outer loop
vertex 3.61959121692626 3.09515196272336 3.96875
vertex 2.84508843880444 -0.354992682634119 3.96875
vertex 3.09515196272337 -3.61959121692626 3.96875
endloop
endfacet
facet normal -0.0 -0.0 1.0
outer loop
vertex 3.61959121692626 3.09515196272336 3.96875
vertex 3.09515196272337 -3.61959121692626 3.96875
vertex 3.92650635951012 -2.6951723615989 3.96875
endloop
endfacet
facet normal -0.0 -0.0 1.0
outer loop
vertex 3.61959121692626 3.09515196272336 3.96875
vertex 3.92650635951012 -2.6951723615989 3.96875
vertex 4.2973409124774 2.05286807465747 3.96875
endloop
endfacet
facet normal -0.0 -0.0 1.0
outer loop
vertex 4.2973409124774 2.05286807465747 3.96875
vertex 3.92650635951012 -2.6951723615989 3.96875
vertex 4.49027583675483 -1.58708196381149 3.96875
endloop
endfacet
facet normal -0.0 -0.0 1.0
outer loop
vertex 4.2973409124774 2.05286807465747 3.96875
vertex 4.49027583675483 -1.58708196381149 3.96875
vertex 4.68223392653485 0.870684619828569 3.96875
endloop
endfacet
facet normal -0.0 -0.0 1.0
outer loop
vertex 4.68223392653485 0.870684619828569 3.96875
vertex 4.49027583675483 -1.58708196381149 3.96875
vertex 4.74804043625637 -0.370834552967284 3.96875
endloop
endfacet
facet normal 0.760019153160369 0.649900674587583 0.0
outer loop
vertex 3.61959121692626 3.09515196272336 0.79375
vertex 4.2973409124774 2.05286807465747 3.96875
vertex 4.2973409124774 2.05286807465747 0.79375
endloop
endfacet
facet normal 0.90232880052019 0.431048414626241 0.0
outer loop
vertex 4.2973409124774 2.05286807465747 3.96875
vertex 3.61959121692626 3.09515196272336 0.79375
vertex 3.61959121692626 3.09515196272336 3.96875
endloop
endfacet
facet normal -0.0 -0.0 1.0
outer loop
vertex -5.49073800650896 -3.18971725139987 0.79375
vertex -4.68223392653485 -0.870684619828567 0.79375
vertex -4.74804043625637 0.370834552967285 0.79375
endloop
endfacet
facet normal -0.0 -0.0 1.0
outer loop
vertex -4.68223392653485 -0.870684619828567 0.79375
vertex -5.49073800650896 -3.18971725139987 0.79375
vertex -4.47808607271961 -4.50213783943969 0.79375
endloop
endfacet
facet normal -0.0 -0.0 1.0
outer loop
vertex -4.68223392653485 -0.870684619828567 0.79375
vertex -4.47808607271961 -4.50213783943969 0.79375
vertex -4.2973409124774 -2.05286807465747 0.79375
endloop
endfacet
facet normal -0.0 -0.0 1.0
outer loop
vertex -4.2973409124774 -2.05286807465747 0.79375
vertex -4.47808607271961 -4.50213783943969 0.79375
vertex -3.16025997346155 -5.50774517385625 0.79375
endloop
endfacet
facet normal -0.0 -0.0 1.0
outer loop
vertex -4.2973409124774 -2.05286807465747 0.79375
vertex -3.16025997346155 -5.50774517385625 0.79375
vertex -3.61959121692626 -3.09515196272336 0.79375
endloop
endfacet
facet normal -0.0 -0.0 1.0
outer loop
vertex -3.61959121692626 -3.09515196272336 0.79375
vertex -3.16025997346155 -5.50774517385625 0.79375
vertex -2.6951723615989 -3.92650635951012 0.79375
endloop
endfacet
facet normal -0.0 -0.0 1.0
outer loop
vertex -2.6951723615989 -3.92650635951012 0.79375
vertex -3.16025997346155 -5.50774517385625 0.79375
vertex -1.62706737958863 -6.13800877665376 0.79375
endloop
endfacet
facet normal -0.0 -0.0 1.0
outer loop
vertex -2.6951723615989 -3.92650635951012 0.79375
vertex -1.62706737958863 -6.13800877665376 0.79375
vertex -1.58708196381149 -4.49027583675483 0.79375
endloop
endfacet
facet normal -0.0 -0.0 1.0
outer loop
vertex -1.58708196381149 -4.49027583675483 0.79375
vertex -1.62706737958863 -6.13800877665376 0.79375
vertex 0.0170071673472824 -6.34997722486142 0.79375
endloop
endfacet
facet normal -0.0 -0.0 1.0
outer loop
vertex -1.58708196381149 -4.49027583675483 0.79375
vertex 0.0170071673472824 -6.34997722486142 0.79375
vertex -0.37083455296728 -4.74804043625637 0.79375
endloop
endfacet
facet normal -0.0 -0.0 1.0
outer loop
vertex -0.37083455296728 -4.74804043625637 0.79375
vertex 0.0170071673472824 -6.34997722486142 0.79375
vertex 0.87068461982857 -4.68223392653485 0.79375
endloop
endfacet
facet normal -0.0 -0.0 1.0
outer loop
vertex 0.87068461982857 -4.68223392653485 0.79375
vertex 0.0170071673472824 -6.34997722486142 0.79375
vertex 1.65992270393415 -6.12920521902832 0.79375
endloop
endfacet
facet normal -0.0 -0.0 1.0
outer loop
vertex 0.87068461982857 -4.68223392653485 0.79375
vertex 1.65992270393415 -6.12920521902832 0.79375
vertex 2.05286807465747 -4.2973409124774 0.79375
endloop
endfacet
facet normal -0.0 -0.0 1.0
outer loop
vertex 2.05286807465747 -4.2973409124774 0.79375
vertex 1.65992270393415 -6.12920521902832 0.79375
vertex 3.18971725139987 -5.49073800650897 0.79375
endloop
endfacet
facet normal -0.0 -0.0 1.0
outer loop
vertex 2.05286807465747 -4.2973409124774 0.79375
vertex 3.18971725139987 -5.49073800650897 0.79375
vertex 3.09515196272337 -3.61959121692626 0.79375
endloop
endfacet
facet normal -0.0 -0.0 1.0
outer loop
vertex 3.09515196272337 -3.61959121692626 0.79375
vertex 3.18971725139987 -5.49073800650897 0.79375
vertex 3.92650635951012 -2.6951723615989 0.79375
endloop
endfacet
facet normal -0.0 -0.0 1.0
outer loop
vertex 3.92650635951012 -2.6951723615989 0.79375
vertex 3.18971725139987 -5.49073800650897 0.79375
vertex 4.50213783943969 -4.47808607271961 0.79375
endloop
endfacet
facet normal -0.0 -0.0 1.0
outer loop
vertex 3.92650635951012 -2.6951723615989 0.79375
vertex 4.50213783943969 -4.47808607271961 0.79375
vertex 4.49027583675483 -1.58708196381149 0.79375
endloop
endfacet
facet normal -0.0 -0.0 1.0
outer loop
vertex 4.49027583675483 -1.58708196381149 0.79375
vertex 4.50213783943969 -4.47808607271961 0.79375
vertex 4.74804043625637 -0.370834552967284 0.79375
endloop
endfacet
facet normal -0.0 -0.0 1.0
outer loop
vertex 4.74804043625637 -0.370834552967284 0.79375
vertex 4.50213783943969 -4.47808607271961 0.79375
vertex 5.50774517385625 -3.16025997346155 0.79375
endloop
endfacet
facet normal -0.0 -0.0 1.0
outer loop
vertex 4.74804043625637 -0.370834552967284 0.79375
vertex 5.50774517385625 -3.16025997346155 0.79375
vertex 5.49073800650896 3.18971725139987 0.79375
endloop
endfacet
facet normal -0.0 -0.0 1.0
outer loop
vertex 5.49073800650896 3.18971725139987 0.79375
vertex 5.50774517385625 -3.16025997346155 0.79375
vertex 6.12920521902831 1.65992270393415 0.79375
endloop
endfacet
facet normal -0.0 -0.0 1.0
outer loop
vertex 6.12920521902831 1.65992270393415 0.79375
vertex 5.50774517385625 -3.16025997346155 0.79375
vertex 6.13800877665376 -1.62706737958863 0.79375
endloop
endfacet
facet normal -0.0 -0.0 1.0
outer loop
vertex 6.12920521902831 1.65992270393415 0.79375
vertex 6.13800877665376 -1.62706737958863 0.79375
vertex 6.34997722486143 0.0170071673472828 0.79375
endloop
endfacet
facet normal -0.0 -0.0 1.0
outer loop
vertex -6.12920521902831 -1.65992270393415 0.79375
vertex -6.13800877665376 1.62706737958863 0.79375
vertex -6.34997722486143 -0.01700716734728 0.79375
endloop
endfacet
facet normal -0.0 -0.0 1.0
outer loop
vertex -6.13800877665376 1.62706737958863 0.79375
vertex -6.12920521902831 -1.65992270393415 0.79375
vertex -5.50774517385625 3.16025997346155 0.79375
endloop
endfacet
facet normal -0.0 -0.0 1.0
outer loop
vertex -5.50774517385625 3.16025997346155 0.79375
vertex -6.12920521902831 -1.65992270393415 0.79375
vertex -5.49073800650896 -3.18971725139987 0.79375
endloop
endfacet
facet normal -0.0 -0.0 1.0
outer loop
vertex -5.50774517385625 3.16025997346155 0.79375
vertex -5.49073800650896 -3.18971725139987 0.79375
vertex -4.50213783943969 4.47808607271961 0.79375
endloop
endfacet
facet normal -0.0 -0.0 1.0
outer loop
vertex -4.50213783943969 4.47808607271961 0.79375
vertex -5.49073800650896 -3.18971725139987 0.79375
vertex -4.74804043625637 0.370834552967285 0.79375
endloop
endfacet
facet normal -0.0 -0.0 1.0
outer loop
vertex -4.50213783943969 4.47808607271961 0.79375
vertex -4.74804043625637 0.370834552967285 0.79375
vertex -4.49027583675483 1.58708196381149 0.79375
endloop
endfacet
facet normal -0.0 -0.0 1.0
outer loop
vertex -4.50213783943969 4.47808607271961 0.79375
vertex -4.49027583675483 1.58708196381149 0.79375
vertex -3.18971725139987 5.49073800650896 0.79375
endloop
endfacet
facet normal -0.0 -0.0 1.0
outer loop
vertex -3.18971725139987 5.49073800650896 0.79375
vertex -4.49027583675483 1.58708196381149 0.79375
vertex -3.92650635951012 2.6951723615989 0.79375
endloop
endfacet
facet normal -0.0 -0.0 1.0
outer loop
vertex -3.18971725139987 5.49073800650896 0.79375
vertex -3.92650635951012 2.6951723615989 0.79375
vertex -3.09515196272336 3.61959121692626 0.79375
endloop
endfacet
facet normal -0.0 -0.0 1.0
outer loop
vertex -3.18971725139987 5.49073800650896 0.79375
vertex -3.09515196272336 3.61959121692626 0.79375
vertex -1.65992270393415 6.12920521902831 0.79375
endloop
endfacet
facet normal -0.0 -0.0 1.0
outer loop
vertex -1.65992270393415 6.12920521902831 0.79375
vertex -3.09515196272336 3.61959121692626 0.79375
vertex -2.05286807465747 4.29734091247741 0.79375
endloop
endfacet
facet normal -0.0 -0.0 1.0
outer loop
vertex -1.65992270393415 6.12920521902831 0.79375
vertex -2.05286807465747 4.29734091247741 0.79375
vertex -0.870684619828568 4.68223392653485 0.79375
endloop
endfacet
facet normal -0.0 -0.0 1.0
outer loop
vertex -1.65992270393415 6.12920521902831 0.79375
vertex -0.870684619828568 4.68223392653485 0.79375
vertex -0.0170071673472828 6.34997722486143 0.79375
endloop
endfacet
facet normal -0.0 -0.0 1.0
outer loop
vertex -0.0170071673472828 6.34997722486143 0.79375
vertex -0.870684619828568 4.68223392653485 0.79375
vertex 0.370834552967283 4.74804043625637 0.79375
endloop
endfacet
facet normal -0.0 -0.0 1.0
outer loop
vertex -0.0170071673472828 6.34997722486143 0.79375
vertex 0.370834552967283 4.74804043625637 0.79375
vertex 1.62706737958863 6.13800877665376 0.79375
endloop
endfacet
facet normal -0.0 -0.0 1.0
outer loop
vertex 1.62706737958863 6.13800877665376 0.79375
vertex 0.370834552967283 4.74804043625637 0.79375
vertex 1.58708196381149 4.49027583675483 0.79375
endloop
endfacet
facet normal -0.0 -0.0 1.0
outer loop
vertex 1.62706737958863 6.13800877665376 0.79375
vertex 1.58708196381149 4.49027583675483 0.79375
vertex 2.6951723615989 3.92650635951012 0.79375
endloop
endfacet
facet normal -0.0 -0.0 1.0
outer loop
vertex 1.62706737958863 6.13800877665376 0.79375
vertex 2.6951723615989 3.92650635951012 0.79375
vertex 3.16025997346155 5.50774517385625 0.79375
endloop
endfacet
facet normal -0.0 -0.0 1.0
outer loop
vertex 3.16025997346155 5.50774517385625 0.79375
vertex 2.6951723615989 3.92650635951012 0.79375
vertex 3.61959121692626 3.09515196272336 0.79375
endloop
endfacet
facet normal -0.0 -0.0 1.0
outer loop
vertex 3.16025997346155 5.50774517385625 0.79375
vertex 3.61959121692626 3.09515196272336 0.79375
vertex 4.47808607271961 4.50213783943969 0.79375
endloop
endfacet
facet normal -0.0 -0.0 1.0
outer loop
vertex 4.47808607271961 4.50213783943969 0.79375
vertex 3.61959121692626 3.09515196272336 0.79375
vertex 4.2973409124774 2.05286807465747 0.79375
endloop
endfacet
facet normal -0.0 -0.0 1.0
outer loop
vertex 4.47808607271961 4.50213783943969 0.79375
vertex 4.2973409124774 2.05286807465747 0.79375
vertex 4.68223392653485 0.870684619828569 0.79375
endloop
endfacet
facet normal -0.0 -0.0 1.0
outer loop
vertex 4.47808607271961 4.50213783943969 0.79375
vertex 4.68223392653485 0.870684619828569 0.79375
vertex 5.49073800650896 3.18971725139987 0.79375
endloop
endfacet
facet normal -0.0 -0.0 1.0
outer loop
vertex 5.49073800650896 3.18971725139987 0.79375
vertex 4.68223392653485 0.870684619828569 0.79375
vertex 4.74804043625637 -0.370834552967284 0.79375
endloop
endfacet
facet normal -0.965229168350916 -0.26140515022585 0.0
outer loop
vertex -6.12920521902831 -1.65992270393415 0.79375
vertex -5.49073800650896 -3.18971725139987 0.0
vertex -5.49073800650896 -3.18971725139987 0.79375
endloop
endfacet
facet normal -0.864683150631333 -0.502317677385807 0.0
outer loop
vertex -5.49073800650896 -3.18971725139987 0.0
vertex -6.12920521902831 -1.65992270393415 0.79375
vertex -6.12920521902831 -1.65992270393415 0.0
endloop
endfacet
facet normal -0.999996413364004 -0.00267829407043818 0.0
outer loop
vertex -6.34997722486143 -0.01700716734728 0.79375
vertex -6.12920521902831 -1.65992270393415 0.0
vertex -6.12920521902831 -1.65992270393415 0.79375
endloop
endfacet
facet normal -0.965229168350916 -0.26140515022585 0.0
outer loop
vertex -6.12920521902831 -1.65992270393415 0.0
vertex -6.34997722486143 -0.01700716734728 0.79375
vertex -6.34997722486143 -0.01700716734728 0.0
endloop
endfacet
facet normal 0.789215496841202 0.614116356683075 0.0
outer loop
vertex -2.26279906131626 -1.76076359499188 3.96875
vertex -1.72997690072095 -2.286422522701 5.63993296509579e-15
vertex -2.26279906131626 -1.76076359499188 5.63993296509579e-15
endloop
endfacet
facet normal 0.603378621887924 0.797454850539283 0.0
outer loop
vertex -1.72997690072095 -2.286422522701 5.63993296509579e-15
vertex -2.26279906131626 -1.76076359499188 3.96875
vertex -1.72997690072095 -2.286422522701 3.96875
endloop
endfacet
facet normal -0.43104841462624 0.90232880052019 0.0
outer loop
vertex -2.05286807465747 4.29734091247741 3.96875
vertex -0.870684619828568 4.68223392653485 0.79375
vertex -2.05286807465747 4.29734091247741 0.79375
endloop
endfacet
facet normal -0.182820917549306 0.983146231293407 0.0
outer loop
vertex -0.870684619828568 4.68223392653485 0.79375
vertex -2.05286807465747 4.29734091247741 3.96875
vertex -0.870684619828568 4.68223392653485 3.96875
endloop
endfacet
facet normal -0.867361444701771 0.497678735978198 0.0
outer loop
vertex -5.50774517385625 3.16025997346155 0.79375
vertex -6.13800877665376 1.62706737958863 0.0
vertex -6.13800877665376 1.62706737958863 0.79375
endloop
endfacet
facet normal -0.966615555378545 0.256231083399784 0.0
outer loop
vertex -6.13800877665376 1.62706737958863 0.0
vertex -5.50774517385625 3.16025997346155 0.79375
vertex -5.50774517385625 3.16025997346155 0.0
endloop
endfacet
facet normal -0.708998084951132 0.705210405152695 0.0
outer loop
vertex -4.50213783943969 4.47808607271961 0.79375
vertex -5.50774517385625 3.16025997346155 0.0
vertex -5.50774517385625 3.16025997346155 0.79375
endloop
endfacet
facet normal -0.867361444701771 0.497678735978198 0.0
outer loop
vertex -5.50774517385625 3.16025997346155 0.0
vertex -4.50213783943969 4.47808607271961 0.79375
vertex -4.50213783943969 4.47808607271961 0.0
endloop
endfacet
facet normal -0.708998084951132 0.705210405152695 0.0
outer loop
vertex -4.50213783943969 4.47808607271961 0.79375
vertex -3.18971725139987 5.49073800650896 0.0
vertex -4.50213783943969 4.47808607271961 0.0
endloop
endfacet
facet normal -0.502317677385807 0.864683150631333 0.0
outer loop
vertex -3.18971725139987 5.49073800650896 0.0
vertex -4.50213783943969 4.47808607271961 0.79375
vertex -3.18971725139987 5.49073800650896 0.79375
endloop
endfacet
facet normal -0.502317677385807 0.864683150631333 0.0
outer loop
vertex -3.18971725139987 5.49073800650896 0.79375
vertex -1.65992270393415 6.12920521902831 0.0
vertex -3.18971725139987 5.49073800650896 0.0
endloop
endfacet
facet normal -0.26140515022585 0.965229168350916 0.0
outer loop
vertex -1.65992270393415 6.12920521902831 0.0
vertex -3.18971725139987 5.49073800650896 0.79375
vertex -1.65992270393415 6.12920521902831 0.79375
endloop
endfacet
facet normal -0.26140515022585 0.965229168350916 0.0
outer loop
vertex -1.65992270393415 6.12920521902831 0.79375
vertex -0.0170071673472828 6.34997722486143 0.0
vertex -1.65992270393415 6.12920521902831 0.0
endloop
endfacet
facet normal -0.00267829407043841 0.999996413364004 0.0
outer loop
vertex -0.0170071673472828 6.34997722486143 0.0
vertex -1.65992270393415 6.12920521902831 0.79375
vertex -0.0170071673472828 6.34997722486143 0.79375
endloop
endfacet
facet normal -0.00267829407043841 0.999996413364004 0.0
outer loop
vertex -0.0170071673472828 6.34997722486143 0.79375
vertex 1.62706737958863 6.13800877665376 0.0
vertex -0.0170071673472828 6.34997722486143 0.0
endloop
endfacet
facet normal 0.256231083399784 0.966615555378545 0.0
outer loop
vertex 1.62706737958863 6.13800877665376 0.0
vertex -0.0170071673472828 6.34997722486143 0.79375
vertex 1.62706737958863 6.13800877665376 0.79375
endloop
endfacet
facet normal 0.256231083399784 0.966615555378545 0.0
outer loop
vertex 1.62706737958863 6.13800877665376 0.79375
vertex 3.16025997346155 5.50774517385625 0.0
vertex 1.62706737958863 6.13800877665376 0.0
endloop
endfacet
facet normal 0.497678735978198 0.867361444701771 0.0
outer loop
vertex 3.16025997346155 5.50774517385625 0.0
vertex 1.62706737958863 6.13800877665376 0.79375
vertex 3.16025997346155 5.50774517385625 0.79375
endloop
endfacet
facet normal 0.497678735978198 0.867361444701771 0.0
outer loop
vertex 3.16025997346155 5.50774517385625 0.79375
vertex 4.47808607271961 4.50213783943969 0.0
vertex 3.16025997346155 5.50774517385625 0.0
endloop
endfacet
facet normal 0.705210405152694 0.708998084951132 0.0
outer loop
vertex 4.47808607271961 4.50213783943969 0.0
vertex 3.16025997346155 5.50774517385625 0.79375
vertex 4.47808607271961 4.50213783943969 0.79375
endloop
endfacet
facet normal 0.705210405152694 0.708998084951132 0.0
outer loop
vertex 4.47808607271961 4.50213783943969 0.0
vertex 5.49073800650896 3.18971725139987 0.79375
vertex 5.49073800650896 3.18971725139987 0.0
endloop
endfacet
facet normal 0.864683150631333 0.502317677385807 0.0
outer loop
vertex 5.49073800650896 3.18971725139987 0.79375
vertex 4.47808607271961 4.50213783943969 0.0
vertex 4.47808607271961 4.50213783943969 0.79375
endloop
endfacet
facet normal 0.864683150631333 0.502317677385807 0.0
outer loop
vertex 5.49073800650896 3.18971725139987 0.0
vertex 6.12920521902831 1.65992270393415 0.79375
vertex 6.12920521902831 1.65992270393415 0.0
endloop
endfacet
facet normal 0.965229168350916 0.26140515022585 0.0
outer loop
vertex 6.12920521902831 1.65992270393415 0.79375
vertex 5.49073800650896 3.18971725139987 0.0
vertex 5.49073800650896 3.18971725139987 0.79375
endloop
endfacet
facet normal 0.965229168350916 0.26140515022585 0.0
outer loop
vertex 6.12920521902831 1.65992270393415 0.0
vertex 6.34997722486143 0.0170071673472828 0.79375
vertex 6.34997722486143 0.0170071673472828 0.0
endloop
endfacet
facet normal 0.999996413364004 0.00267829407043826 0.0
outer loop
vertex 6.34997722486143 0.0170071673472828 0.79375
vertex 6.12920521902831 1.65992270393415 0.0
vertex 6.12920521902831 1.65992270393415 0.79375
endloop
endfacet
facet normal 0.999996413364004 0.00267829407043826 0.0
outer loop
vertex 6.34997722486143 0.0170071673472828 0.0
vertex 6.13800877665376 -1.62706737958863 0.79375
vertex 6.13800877665376 -1.62706737958863 0.0
endloop
endfacet
facet normal 0.966615555378545 -0.256231083399784 0.0
outer loop
vertex 6.13800877665376 -1.62706737958863 0.79375
vertex 6.34997722486143 0.0170071673472828 0.0
vertex 6.34997722486143 0.0170071673472828 0.79375
endloop
endfacet
facet normal 0.966615555378545 -0.256231083399784 0.0
outer loop
vertex 6.13800877665376 -1.62706737958863 0.0
vertex 5.50774517385625 -3.16025997346155 0.79375
vertex 5.50774517385625 -3.16025997346155 0.0
endloop
endfacet
facet normal 0.867361444701771 -0.497678735978197 0.0
outer loop
vertex 5.50774517385625 -3.16025997346155 0.79375
vertex 6.13800877665376 -1.62706737958863 0.0
vertex 6.13800877665376 -1.62706737958863 0.79375
endloop
endfacet
facet normal 0.867361444701771 -0.497678735978197 0.0
outer loop
vertex 5.50774517385625 -3.16025997346155 0.0
vertex 4.50213783943969 -4.47808607271961 0.79375
vertex 4.50213783943969 -4.47808607271961 0.0
endloop
endfacet
facet normal 0.708998084951132 -0.705210405152695 0.0
outer loop
vertex 4.50213783943969 -4.47808607271961 0.79375
vertex 5.50774517385625 -3.16025997346155 0.0
vertex 5.50774517385625 -3.16025997346155 0.79375
endloop
endfacet
facet normal 0.708998084951132 -0.705210405152695 0.0
outer loop
vertex 4.50213783943969 -4.47808607271961 0.79375
vertex 3.18971725139987 -5.49073800650897 0.0
vertex 4.50213783943969 -4.47808607271961 0.0
endloop
endfacet
facet normal 0.502317677385806 -0.864683150631333 0.0
outer loop
vertex 3.18971725139987 -5.49073800650897 0.0
vertex 4.50213783943969 -4.47808607271961 0.79375
vertex 3.18971725139987 -5.49073800650897 0.79375
endloop
endfacet
facet normal 0.502317677385806 -0.864683150631333 0.0
outer loop
vertex 3.18971725139987 -5.49073800650897 0.79375
vertex 1.65992270393415 -6.12920521902832 0.0
vertex 3.18971725139987 -5.49073800650897 0.0
endloop
endfacet
facet normal 0.26140515022585 -0.965229168350916 0.0
outer loop
vertex 1.65992270393415 -6.12920521902832 0.0
vertex 3.18971725139987 -5.49073800650897 0.79375
vertex 1.65992270393415 -6.12920521902832 0.79375
endloop
endfacet
facet normal 0.26140515022585 -0.965229168350916 0.0
outer loop
vertex 1.65992270393415 -6.12920521902832 0.79375
vertex 0.0170071673472824 -6.34997722486142 0.0
vertex 1.65992270393415 -6.12920521902832 0.0
endloop
endfacet
facet normal 0.00267829407043764 -0.999996413364004 0.0
outer loop
vertex 0.0170071673472824 -6.34997722486142 0.0
vertex 1.65992270393415 -6.12920521902832 0.79375
vertex 0.0170071673472824 -6.34997722486142 0.79375
endloop
endfacet
facet normal 0.00267829407043764 -0.999996413364004 0.0
outer loop
vertex 0.0170071673472824 -6.34997722486142 0.79375
vertex -1.62706737958863 -6.13800877665376 0.0
vertex 0.0170071673472824 -6.34997722486142 0.0
endloop
endfacet
facet normal -0.256231083399784 -0.966615555378545 0.0
outer loop
vertex -1.62706737958863 -6.13800877665376 0.0
vertex 0.0170071673472824 -6.34997722486142 0.79375
vertex -1.62706737958863 -6.13800877665376 0.79375
endloop
endfacet
facet normal -0.256231083399784 -0.966615555378545 0.0
outer loop
vertex -1.62706737958863 -6.13800877665376 0.79375
vertex -3.16025997346155 -5.50774517385625 0.0
vertex -1.62706737958863 -6.13800877665376 0.0
endloop
endfacet
facet normal -0.497678735978198 -0.867361444701771 0.0
outer loop
vertex -3.16025997346155 -5.50774517385625 0.0
vertex -1.62706737958863 -6.13800877665376 0.79375
vertex -3.16025997346155 -5.50774517385625 0.79375
endloop
endfacet
facet normal 0.0 0.0 -1.0
outer loop
vertex -6.13800877665376 1.62706737958863 0.0
vertex -6.12920521902831 -1.65992270393415 0.0
vertex -6.34997722486143 -0.01700716734728 0.0
endloop
endfacet
facet normal 0.0 0.0 -1.0
outer loop
vertex -6.12920521902831 -1.65992270393415 0.0
vertex -6.13800877665376 1.62706737958863 0.0
vertex -5.50774517385625 3.16025997346155 0.0
endloop
endfacet
facet normal 0.0 0.0 -1.0
outer loop
vertex -6.12920521902831 -1.65992270393415 0.0
vertex -5.50774517385625 3.16025997346155 0.0
vertex -5.49073800650896 -3.18971725139987 0.0
endloop
endfacet
facet normal 0.0 0.0 -1.0
outer loop
vertex -5.49073800650896 -3.18971725139987 0.0
vertex -5.50774517385625 3.16025997346155 0.0
vertex -4.50213783943969 4.47808607271961 0.0
endloop
endfacet
facet normal 0.0 0.0 -1.0
outer loop
vertex -5.49073800650896 -3.18971725139987 0.0
vertex -4.50213783943969 4.47808607271961 0.0
vertex -4.47808607271961 -4.50213783943969 0.0
endloop
endfacet
facet normal 0.0 0.0 -1.0
outer loop
vertex -4.47808607271961 -4.50213783943969 0.0
vertex -4.50213783943969 4.47808607271961 0.0
vertex -3.18971725139987 5.49073800650896 0.0
endloop
endfacet
facet normal 0.0 0.0 -1.0
outer loop
vertex -4.47808607271961 -4.50213783943969 0.0
vertex -3.18971725139987 5.49073800650896 0.0
vertex -3.16025997346155 -5.50774517385625 0.0
endloop
endfacet
facet normal 0.0 0.0 -1.0
outer loop
vertex -3.16025997346155 -5.50774517385625 0.0
vertex -3.18971725139987 5.49073800650896 0.0
vertex -2.84508843880444 0.354992682634115 5.63993296509579e-15
endloop
endfacet
facet normal 0.0 0.0 -1.0
outer loop
vertex -2.84508843880444 0.354992682634115 5.63993296509579e-15
vertex -3.18971725139987 5.49073800650896 0.0
vertex -1.65992270393415 6.12920521902831 0.0
endloop
endfacet
facet normal 0.0 0.0 -1.0
outer loop
vertex -2.84508843880444 0.354992682634115 5.63993296509579e-15
vertex -1.65992270393415 6.12920521902831 0.0
vertex -2.65626553397991 1.07925967326352 5.63993296509579e-15
endloop
endfacet
facet normal 0.0 0.0 -1.0
outer loop
vertex -2.65626553397991 1.07925967326352 5.63993296509579e-15
vertex -1.65992270393415 6.12920521902831 0.0
vertex -2.286422522701 1.72997690072095 5.63993296509579e-15
endloop
endfacet
facet normal 0.0 0.0 -1.0
outer loop
vertex -2.286422522701 1.72997690072095 5.63993296509579e-15
vertex -1.65992270393415 6.12920521902831 0.0
vertex -1.76076359499188 2.26279906131625 5.63993296509579e-15
endloop
endfacet
facet normal 0.0 0.0 -1.0
outer loop
vertex -1.76076359499188 2.26279906131625 5.63993296509579e-15
vertex -1.65992270393415 6.12920521902831 0.0
vertex -1.11511153808349 2.64141520533511 5.63993296509579e-15
endloop
endfacet
facet normal 0.0 0.0 -1.0
outer loop
vertex -1.11511153808349 2.64141520533511 5.63993296509579e-15
vertex -1.65992270393415 6.12920521902831 0.0
vertex -0.0170071673472828 6.34997722486143 0.0
endloop
endfacet
facet normal 0.0 0.0 -1.0
outer loop
vertex -1.11511153808349 2.64141520533511 5.63993296509579e-15
vertex -0.0170071673472828 6.34997722486143 0.0
vertex -0.393466472663657 2.8400232682554 5.63993296509579e-15
endloop
endfacet
facet normal 0.0 0.0 -1.0
outer loop
vertex -0.393466472663657 2.8400232682554 5.63993296509579e-15
vertex -0.0170071673472828 6.34997722486143 0.0
vertex 0.354992682634117 2.84508843880444 5.63993296509579e-15
endloop
endfacet
facet normal 0.0 0.0 -1.0
outer loop
vertex 0.354992682634117 2.84508843880444 5.63993296509579e-15
vertex -0.0170071673472828 6.34997722486143 0.0
vertex 1.62706737958863 6.13800877665376 0.0
endloop
endfacet
facet normal 0.0 0.0 -1.0
outer loop
vertex 0.354992682634117 2.84508843880444 5.63993296509579e-15
vertex 1.62706737958863 6.13800877665376 0.0
vertex 1.07925967326351 2.65626553397991 5.63993296509579e-15
endloop
endfacet
facet normal 0.0 0.0 -1.0
outer loop
vertex 1.07925967326351 2.65626553397991 5.63993296509579e-15
vertex 1.62706737958863 6.13800877665376 0.0
vertex 1.72997690072095 2.286422522701 5.63993296509579e-15
endloop
endfacet
facet normal 0.0 0.0 -1.0
outer loop
vertex 1.72997690072095 2.286422522701 5.63993296509579e-15
vertex 1.62706737958863 6.13800877665376 0.0
vertex 3.16025997346155 5.50774517385625 0.0
endloop
endfacet
facet normal 0.0 0.0 -1.0
outer loop
vertex 1.72997690072095 2.286422522701 5.63993296509579e-15
vertex 3.16025997346155 5.50774517385625 0.0
vertex 2.26279906131625 1.76076359499188 5.63993296509579e-15
endloop
endfacet
facet normal 0.0 0.0 -1.0
outer loop
vertex 2.26279906131625 1.76076359499188 5.63993296509579e-15
vertex 3.16025997346155 5.50774517385625 0.0
vertex 2.64141520533511 1.11511153808349 5.63993296509579e-15
endloop
endfacet
facet normal 0.0 0.0 -1.0
outer loop
vertex 2.64141520533511 1.11511153808349 5.63993296509579e-15
vertex 3.16025997346155 5.50774517385625 0.0
vertex 2.8400232682554 0.393466472663661 5.63993296509579e-15
endloop
endfacet
facet normal 0.0 0.0 -1.0
outer loop
vertex 2.8400232682554 0.393466472663661 5.63993296509579e-15
vertex 3.16025997346155 5.50774517385625 0.0
vertex 2.84508843880444 -0.354992682634119 5.63993296509579e-15
endloop
endfacet
facet normal 0.0 0.0 -1.0
outer loop
vertex -3.16025997346155 -5.50774517385625 0.0
vertex -2.8400232682554 -0.393466472663664 5.63993296509579e-15
vertex -1.62706737958863 -6.13800877665376 0.0
endloop
endfacet
facet normal 0.0 0.0 -1.0
outer loop
vertex -2.8400232682554 -0.393466472663664 5.63993296509579e-15
vertex -3.16025997346155 -5.50774517385625 0.0
vertex -2.84508843880444 0.354992682634115 5.63993296509579e-15
endloop
endfacet
facet normal 0.0 0.0 -1.0
outer loop
vertex -1.62706737958863 -6.13800877665376 0.0
vertex -2.8400232682554 -0.393466472663664 5.63993296509579e-15
vertex -2.64141520533511 -1.11511153808349 5.63993296509579e-15
endloop
endfacet
facet normal 0.0 0.0 -1.0
outer loop
vertex -1.62706737958863 -6.13800877665376 0.0
vertex -2.64141520533511 -1.11511153808349 5.63993296509579e-15
vertex -2.26279906131626 -1.76076359499188 5.63993296509579e-15
endloop
endfacet
facet normal 0.0 0.0 -1.0
outer loop
vertex -1.62706737958863 -6.13800877665376 0.0
vertex -2.26279906131626 -1.76076359499188 5.63993296509579e-15
vertex -1.72997690072095 -2.286422522701 5.63993296509579e-15
endloop
endfacet
facet normal 0.0 0.0 -1.0
outer loop
vertex -1.62706737958863 -6.13800877665376 0.0
vertex -1.72997690072095 -2.286422522701 5.63993296509579e-15
vertex -1.07925967326352 -2.65626553397991 5.63993296509579e-15
endloop
endfacet
facet normal 0.0 0.0 -1.0
outer loop
vertex -1.62706737958863 -6.13800877665376 0.0
vertex -1.07925967326352 -2.65626553397991 5.63993296509579e-15
vertex 0.0170071673472824 -6.34997722486142 0.0
endloop
endfacet
facet normal 0.0 0.0 -1.0
outer loop
vertex 0.0170071673472824 -6.34997722486142 0.0
vertex -1.07925967326352 -2.65626553397991 5.63993296509579e-15
vertex -0.354992682634116 -2.84508843880444 5.63993296509579e-15
endloop
endfacet
facet normal 0.0 0.0 -1.0
outer loop
vertex 0.0170071673472824 -6.34997722486142 0.0
vertex -0.354992682634116 -2.84508843880444 5.63993296509579e-15
vertex 0.39346647266366 -2.8400232682554 5.63993296509579e-15
endloop
endfacet
facet normal 0.0 0.0 -1.0
outer loop
vertex 0.0170071673472824 -6.34997722486142 0.0
vertex 0.39346647266366 -2.8400232682554 5.63993296509579e-15
vertex 1.65992270393415 -6.12920521902832 0.0
endloop
endfacet
facet normal 0.0 0.0 -1.0
outer loop
vertex 1.65992270393415 -6.12920521902832 0.0
vertex 0.39346647266366 -2.8400232682554 5.63993296509579e-15
vertex 1.11511153808349 -2.64141520533511 5.63993296509579e-15
endloop
endfacet
facet normal 0.0 0.0 -1.0
outer loop
vertex 1.65992270393415 -6.12920521902832 0.0
vertex 1.11511153808349 -2.64141520533511 5.63993296509579e-15
vertex 1.76076359499188 -2.26279906131625 5.63993296509579e-15
endloop
endfacet
facet normal 0.0 0.0 -1.0
outer loop
vertex 1.65992270393415 -6.12920521902832 0.0
vertex 1.76076359499188 -2.26279906131625 5.63993296509579e-15
vertex 3.18971725139987 -5.49073800650897 0.0
endloop
endfacet
facet normal 0.0 0.0 -1.0
outer loop
vertex 3.18971725139987 -5.49073800650897 0.0
vertex 1.76076359499188 -2.26279906131625 5.63993296509579e-15
vertex 2.286422522701 -1.72997690072095 5.63993296509579e-15
endloop
endfacet
facet normal 0.0 0.0 -1.0
outer loop
vertex 3.18971725139987 -5.49073800650897 0.0
vertex 2.286422522701 -1.72997690072095 5.63993296509579e-15
vertex 2.65626553397991 -1.07925967326351 5.63993296509579e-15
endloop
endfacet
facet normal 0.0 0.0 -1.0
outer loop
vertex 3.18971725139987 -5.49073800650897 0.0
vertex 2.65626553397991 -1.07925967326351 5.63993296509579e-15
vertex 2.84508843880444 -0.354992682634119 5.63993296509579e-15
endloop
endfacet
facet normal 0.0 0.0 -1.0
outer loop
vertex 3.18971725139987 -5.49073800650897 0.0
vertex 2.84508843880444 -0.354992682634119 5.63993296509579e-15
vertex 3.16025997346155 5.50774517385625 0.0
endloop
endfacet
facet normal 0.0 0.0 -1.0
outer loop
vertex 3.18971725139987 -5.49073800650897 0.0
vertex 3.16025997346155 5.50774517385625 0.0
vertex 4.47808607271961 4.50213783943969 0.0
endloop
endfacet
facet normal 0.0 0.0 -1.0
outer loop
vertex 3.18971725139987 -5.49073800650897 0.0
vertex 4.47808607271961 4.50213783943969 0.0
vertex 4.50213783943969 -4.47808607271961 0.0
endloop
endfacet
facet normal 0.0 0.0 -1.0
outer loop
vertex 4.50213783943969 -4.47808607271961 0.0
vertex 4.47808607271961 4.50213783943969 0.0
vertex 5.49073800650896 3.18971725139987 0.0
endloop
endfacet
facet normal 0.0 0.0 -1.0
outer loop
vertex 4.50213783943969 -4.47808607271961 0.0
vertex 5.49073800650896 3.18971725139987 0.0
vertex 5.50774517385625 -3.16025997346155 0.0
endloop
endfacet
facet normal 0.0 0.0 -1.0
outer loop
vertex 5.50774517385625 -3.16025997346155 0.0
vertex 5.49073800650896 3.18971725139987 0.0
vertex 6.12920521902831 1.65992270393415 0.0
endloop
endfacet
facet normal 0.0 0.0 -1.0
outer loop
vertex 5.50774517385625 -3.16025997346155 0.0
vertex 6.12920521902831 1.65992270393415 0.0
vertex 6.13800877665376 -1.62706737958863 0.0
endloop
endfacet
facet normal 0.0 0.0 -1.0
outer loop
vertex 6.13800877665376 -1.62706737958863 0.0
vertex 6.12920521902831 1.65992270393415 0.0
vertex 6.34997722486143 0.0170071673472828 0.0
endloop
endfacet
endsolid z-motor-plug
