<?xml version="1.0" standalone="no"?>
<!DOCTYPE svg PUBLIC "-//W3C//DTD SVG 1.1//EN" "http://www.w3.org/Graphics/SVG/1.1/DTD/svg11.dtd">
<svg width="207.325000000005mm" height="210.5mm"
 viewBox="0 0 207.325000000005 210.5"
 xmlns="http://www.w3.org/2000/svg" version="1.1"
 xmlns:xlink="http://www.w3.org/1999/xlink">
<desc>Output from Flights of Ideas SVG Sketchup Plugin</desc>

  <g id="face0" fill="none" stroke="rgb(0,0,255)" stroke-width="1" stroke-miterlimit="4" stroke-dasharray="none" stroke-linejoin="round" stroke-linecap="round">
    <line x1="10.0000000000006" y1="149.7" x2="10.0000000000024" y2="152.875"/>
    <line x1="10.0000000000024" y1="152.875" x2="13.1750000000024" y2="152.875000000002"/>
    <line x1="13.1750000000024" y1="152.875000000002" x2="13.1750000000005" y2="156.050000000002"/>
    <line x1="13.1750000000005" y1="156.050000000002" x2="10.0000000000005" y2="156.05"/>
    <line x1="10.0000000000005" y1="156.05" x2="10.0000000000005" y2="159.225"/>
    <line x1="10.0000000000005" y1="159.225" x2="13.1750000000005" y2="159.225"/>
    <line x1="13.1750000000005" y1="159.225" x2="13.1750000000004" y2="162.4"/>
    <line x1="13.1750000000004" y1="162.4" x2="10.0000000000004" y2="162.4"/>
    <line x1="10.0000000000004" y1="162.4" x2="10.0000000000004" y2="165.575"/>
    <line x1="10.0000000000004" y1="165.575" x2="13.1750000000004" y2="165.575"/>
    <line x1="13.1750000000004" y1="165.575" x2="13.1750000000003" y2="168.75"/>
    <line x1="13.1750000000003" y1="168.75" x2="10.0000000000003" y2="168.75"/>
    <line x1="10.0000000000003" y1="168.75" x2="10.0000000000003" y2="171.925"/>
    <line x1="10.0000000000003" y1="171.925" x2="13.1750000000003" y2="171.925"/>
    <line x1="13.1750000000003" y1="171.925" x2="13.1750000000002" y2="175.1"/>
    <line x1="13.1750000000002" y1="175.1" x2="10.0000000000002" y2="175.1"/>
    <line x1="10.0000000000002" y1="175.1" x2="10.0000000000002" y2="178.275"/>
    <line x1="10.0000000000002" y1="178.275" x2="13.1750000000002" y2="178.275"/>
    <line x1="13.1750000000002" y1="178.275" x2="13.1750000000002" y2="181.45"/>
    <line x1="13.1750000000002" y1="181.45" x2="10.0000000000002" y2="181.45"/>
    <line x1="10.0000000000002" y1="181.45" x2="10.0000000000001" y2="184.625"/>
    <line x1="10.0000000000001" y1="184.625" x2="13.1750000000001" y2="184.625"/>
    <line x1="13.1750000000001" y1="184.625" x2="13.1750000000001" y2="187.8"/>
    <line x1="13.1750000000001" y1="187.8" x2="10.0000000000001" y2="187.8"/>
    <line x1="10.0000000000001" y1="187.8" x2="10.0" y2="190.975"/>
    <line x1="10.0" y1="190.975" x2="13.175" y2="190.975"/>
    <line x1="13.175" y1="190.975" x2="13.175" y2="194.15"/>
    <line x1="13.175" y1="194.15" x2="10.0" y2="194.15"/>
    <line x1="10.0" y1="194.15" x2="10.0000000000024" y2="197.325"/>
    <line x1="10.0000000000024" y1="197.325" x2="13.1750000000024" y2="197.325"/>
    <line x1="13.1750000000024" y1="197.325" x2="13.1750000000024" y2="200.5"/>
    <line x1="13.1750000000024" y1="200.5" x2="16.3500000000024" y2="200.5"/>
    <line x1="16.3500000000024" y1="200.5" x2="16.3500000000024" y2="197.325"/>
    <line x1="16.3500000000024" y1="197.325" x2="19.5250000000024" y2="197.325"/>
    <line x1="19.5250000000024" y1="197.325" x2="19.5250000000024" y2="200.5"/>
    <line x1="19.5250000000024" y1="200.5" x2="22.7000000000024" y2="200.5"/>
    <line x1="22.7000000000024" y1="200.5" x2="22.7000000000024" y2="197.325"/>
    <line x1="22.7000000000024" y1="197.325" x2="25.8750000000024" y2="197.325"/>
    <line x1="25.8750000000024" y1="197.325" x2="25.8750000000024" y2="200.5"/>
    <line x1="25.8750000000024" y1="200.5" x2="29.0500000000024" y2="200.5"/>
    <line x1="29.0500000000024" y1="200.5" x2="29.0500000000024" y2="197.325"/>
    <line x1="29.0500000000024" y1="197.325" x2="32.2250000000024" y2="197.325"/>
    <line x1="32.2250000000024" y1="197.325" x2="32.2250000000024" y2="200.5"/>
    <line x1="32.2250000000024" y1="200.5" x2="35.4000000000024" y2="200.5"/>
    <line x1="35.4000000000024" y1="200.5" x2="35.4000000000024" y2="197.325"/>
    <line x1="35.4000000000024" y1="197.325" x2="38.5750000000024" y2="197.325"/>
    <line x1="38.5750000000024" y1="197.325" x2="38.5750000000024" y2="200.5"/>
    <line x1="38.5750000000024" y1="200.5" x2="41.7500000000024" y2="200.5"/>
    <line x1="41.7500000000024" y1="200.5" x2="41.7500000000024" y2="197.325"/>
    <line x1="41.7500000000024" y1="197.325" x2="44.9250000000024" y2="197.325"/>
    <line x1="44.9250000000024" y1="197.325" x2="44.9250000000023" y2="200.5"/>
    <line x1="44.9250000000023" y1="200.5" x2="48.1000000000024" y2="200.5"/>
    <line x1="48.1000000000024" y1="200.5" x2="48.1000000000024" y2="197.325"/>
    <line x1="48.1000000000024" y1="197.325" x2="51.2750000000024" y2="197.325"/>
    <line x1="51.2750000000024" y1="197.325" x2="51.2750000000024" y2="200.5"/>
    <line x1="51.2750000000024" y1="200.5" x2="54.4500000000024" y2="200.5"/>
    <line x1="54.4500000000024" y1="200.5" x2="54.4500000000024" y2="197.325"/>
    <line x1="54.4500000000024" y1="197.325" x2="57.6250000000024" y2="197.325"/>
    <line x1="57.6250000000024" y1="197.325" x2="57.6250000000023" y2="200.5"/>
    <line x1="57.6250000000023" y1="200.5" x2="60.8000000000024" y2="200.5"/>
    <line x1="60.8000000000024" y1="200.5" x2="60.8000000000024" y2="197.325"/>
    <line x1="60.8000000000024" y1="197.325" x2="63.9750000000023" y2="197.325"/>
    <line x1="63.9750000000023" y1="197.325" x2="63.9750000000023" y2="200.5"/>
    <line x1="63.9750000000023" y1="200.5" x2="67.1500000000023" y2="200.5"/>
    <line x1="67.1500000000023" y1="200.5" x2="67.1500000000024" y2="197.325"/>
    <line x1="67.1500000000024" y1="197.325" x2="70.3250000000024" y2="197.325"/>
    <line x1="70.3250000000024" y1="197.325" x2="70.3250000000023" y2="200.5"/>
    <line x1="70.3250000000023" y1="200.5" x2="73.5000000000023" y2="200.5"/>
    <line x1="73.5000000000023" y1="200.5" x2="73.5000000000024" y2="197.325"/>
    <line x1="73.5000000000024" y1="197.325" x2="76.6750000000024" y2="197.325"/>
    <line x1="76.6750000000024" y1="197.325" x2="76.6750000000024" y2="200.5"/>
    <line x1="76.6750000000024" y1="200.5" x2="79.8500000000024" y2="200.5"/>
    <line x1="79.8500000000024" y1="200.5" x2="79.8500000000023" y2="197.325"/>
    <line x1="79.8500000000023" y1="197.325" x2="83.0250000000023" y2="197.325"/>
    <line x1="83.0250000000023" y1="197.325" x2="83.0250000000023" y2="200.5"/>
    <line x1="83.0250000000023" y1="200.5" x2="86.2000000000023" y2="200.5"/>
    <line x1="86.2000000000023" y1="200.5" x2="86.2000000000023" y2="197.325"/>
    <line x1="86.2000000000023" y1="197.325" x2="89.3750000000023" y2="197.325"/>
    <line x1="89.3750000000023" y1="197.325" x2="89.3750000000023" y2="200.5"/>
    <line x1="89.3750000000023" y1="200.5" x2="92.5500000000023" y2="200.5"/>
    <line x1="92.5500000000023" y1="200.5" x2="92.5500000000023" y2="197.325"/>
    <line x1="92.5500000000023" y1="197.325" x2="95.7250000000023" y2="197.325"/>
    <line x1="95.7250000000023" y1="197.325" x2="95.7250000000023" y2="200.5"/>
    <line x1="95.7250000000023" y1="200.5" x2="98.9000000000023" y2="200.5"/>
    <line x1="98.9000000000023" y1="200.5" x2="98.9000000000023" y2="197.325"/>
    <line x1="98.9000000000023" y1="197.325" x2="102.075000000002" y2="197.325"/>
    <line x1="102.075000000002" y1="197.325" x2="102.075000000002" y2="200.5"/>
    <line x1="102.075000000002" y1="200.5" x2="105.250000000002" y2="200.5"/>
    <line x1="105.250000000002" y1="200.5" x2="105.250000000002" y2="197.325"/>
    <line x1="105.250000000002" y1="197.325" x2="108.425000000002" y2="197.325"/>
    <line x1="108.425000000002" y1="197.325" x2="108.425000000002" y2="200.5"/>
    <line x1="108.425000000002" y1="200.5" x2="111.600000000002" y2="200.5"/>
    <line x1="111.600000000002" y1="200.5" x2="111.600000000002" y2="197.325"/>
    <line x1="111.600000000002" y1="197.325" x2="114.775000000002" y2="197.325"/>
    <line x1="114.775000000002" y1="197.325" x2="114.775000000002" y2="200.5"/>
    <line x1="114.775000000002" y1="200.5" x2="117.950000000002" y2="200.5"/>
    <line x1="117.950000000002" y1="200.5" x2="117.950000000002" y2="197.325"/>
    <line x1="117.950000000002" y1="197.325" x2="121.125000000002" y2="197.325"/>
    <line x1="121.125000000002" y1="197.325" x2="121.125000000002" y2="200.5"/>
    <line x1="121.125000000002" y1="200.5" x2="124.300000000002" y2="200.5"/>
    <line x1="124.300000000002" y1="200.5" x2="124.300000000002" y2="197.325"/>
    <line x1="124.300000000002" y1="197.325" x2="127.475000000002" y2="197.325"/>
    <line x1="127.475000000002" y1="197.325" x2="127.475000000002" y2="200.5"/>
    <line x1="127.475000000002" y1="200.5" x2="130.650000000002" y2="200.5"/>
    <line x1="130.650000000002" y1="200.5" x2="130.650000000002" y2="197.325"/>
    <line x1="130.650000000002" y1="197.325" x2="133.825000000002" y2="197.325"/>
    <line x1="133.825000000002" y1="197.325" x2="133.825000000002" y2="200.5"/>
    <line x1="133.825000000002" y1="200.5" x2="137.000000000002" y2="200.5"/>
    <line x1="137.000000000002" y1="200.5" x2="137.000000000002" y2="197.325"/>
    <line x1="137.000000000002" y1="197.325" x2="140.175000000002" y2="197.325"/>
    <line x1="140.175000000002" y1="197.325" x2="140.175000000002" y2="200.5"/>
    <line x1="140.175000000002" y1="200.5" x2="143.350000000002" y2="200.5"/>
    <line x1="143.350000000002" y1="200.5" x2="143.350000000002" y2="197.325"/>
    <line x1="143.350000000002" y1="197.325" x2="146.525000000002" y2="197.325"/>
    <line x1="146.525000000002" y1="197.325" x2="146.525000000002" y2="200.5"/>
    <line x1="146.525000000002" y1="200.5" x2="149.700000000002" y2="200.5"/>
    <line x1="149.700000000002" y1="200.5" x2="149.700000000002" y2="197.325"/>
    <line x1="149.700000000002" y1="197.325" x2="152.875000000002" y2="197.325"/>
    <line x1="152.875000000002" y1="197.325" x2="152.875000000002" y2="200.5"/>
    <line x1="152.875000000002" y1="200.5" x2="156.050000000002" y2="200.5"/>
    <line x1="156.050000000002" y1="200.5" x2="156.050000000002" y2="197.325"/>
    <line x1="156.050000000002" y1="197.325" x2="159.225000000002" y2="197.325"/>
    <line x1="159.225000000002" y1="197.325" x2="159.225000000002" y2="200.5"/>
    <line x1="159.225000000002" y1="200.5" x2="162.400000000002" y2="200.5"/>
    <line x1="162.400000000002" y1="200.5" x2="162.400000000002" y2="197.325"/>
    <line x1="162.400000000002" y1="197.325" x2="165.575000000002" y2="197.325"/>
    <line x1="165.575000000002" y1="197.325" x2="165.575000000002" y2="200.5"/>
    <line x1="165.575000000002" y1="200.5" x2="168.750000000002" y2="200.5"/>
    <line x1="168.750000000002" y1="200.5" x2="168.750000000002" y2="197.325"/>
    <line x1="168.750000000002" y1="197.325" x2="171.925000000002" y2="197.325"/>
    <line x1="171.925000000002" y1="197.325" x2="171.925000000002" y2="200.5"/>
    <line x1="171.925000000002" y1="200.5" x2="175.100000000002" y2="200.5"/>
    <line x1="175.100000000002" y1="200.5" x2="175.100000000002" y2="197.325"/>
    <line x1="175.100000000002" y1="197.325" x2="178.275000000002" y2="197.325"/>
    <line x1="178.275000000002" y1="197.325" x2="178.275000000002" y2="200.5"/>
    <line x1="178.275000000002" y1="200.5" x2="181.450000000002" y2="200.5"/>
    <line x1="181.450000000002" y1="200.5" x2="181.450000000002" y2="197.325"/>
    <line x1="181.450000000002" y1="197.325" x2="184.625000000002" y2="197.325"/>
    <line x1="184.625000000002" y1="197.325" x2="184.625000000002" y2="200.5"/>
    <line x1="184.625000000002" y1="200.5" x2="187.800000000002" y2="200.5"/>
    <line x1="187.800000000002" y1="200.5" x2="187.800000000002" y2="197.325"/>
    <line x1="187.800000000002" y1="197.325" x2="190.975000000002" y2="197.325"/>
    <line x1="190.975000000002" y1="197.325" x2="190.975000000002" y2="200.5"/>
    <line x1="190.975000000002" y1="200.5" x2="194.150000000002" y2="200.5"/>
    <line x1="194.150000000002" y1="200.5" x2="194.150000000002" y2="197.325"/>
    <line x1="194.150000000002" y1="197.325" x2="197.325000000002" y2="197.325"/>
    <line x1="197.325000000002" y1="197.325" x2="197.325000000002" y2="194.150000000001"/>
    <line x1="197.325000000002" y1="194.150000000001" x2="194.150000000002" y2="194.15"/>
    <line x1="194.150000000002" y1="194.15" x2="194.150000000003" y2="190.975"/>
    <line x1="194.150000000003" y1="190.975" x2="197.325000000002" y2="190.975000000001"/>
    <line x1="197.325000000002" y1="190.975000000001" x2="197.325000000003" y2="187.8"/>
    <line x1="197.325000000003" y1="187.8" x2="194.150000000003" y2="187.8"/>
    <line x1="194.150000000003" y1="187.8" x2="194.150000000003" y2="184.625"/>
    <line x1="194.150000000003" y1="184.625" x2="197.325000000003" y2="184.625"/>
    <line x1="197.325000000003" y1="184.625" x2="197.325000000003" y2="181.45"/>
    <line x1="197.325000000003" y1="181.45" x2="194.150000000003" y2="181.45"/>
    <line x1="194.150000000003" y1="181.45" x2="194.150000000003" y2="178.275"/>
    <line x1="194.150000000003" y1="178.275" x2="197.325000000003" y2="178.275"/>
    <line x1="197.325000000003" y1="178.275" x2="197.325000000003" y2="175.1"/>
    <line x1="197.325000000003" y1="175.1" x2="194.150000000003" y2="175.1"/>
    <line x1="194.150000000003" y1="175.1" x2="194.150000000003" y2="171.925000000001"/>
    <line x1="194.150000000003" y1="171.925000000001" x2="197.325000000003" y2="171.925000000001"/>
    <line x1="197.325000000003" y1="171.925000000001" x2="197.325000000003" y2="168.750000000001"/>
    <line x1="197.325000000003" y1="168.750000000001" x2="194.150000000003" y2="168.750000000001"/>
    <line x1="194.150000000003" y1="168.750000000001" x2="194.150000000003" y2="165.575000000001"/>
    <line x1="194.150000000003" y1="165.575000000001" x2="197.325000000003" y2="165.575000000001"/>
    <line x1="197.325000000003" y1="165.575000000001" x2="197.325000000003" y2="162.4"/>
    <line x1="197.325000000003" y1="162.4" x2="194.150000000003" y2="162.4"/>
    <line x1="194.150000000003" y1="162.4" x2="194.150000000003" y2="159.225000000001"/>
    <line x1="194.150000000003" y1="159.225000000001" x2="197.325000000003" y2="159.225"/>
    <line x1="197.325000000003" y1="159.225" x2="197.325000000003" y2="156.05"/>
    <line x1="197.325000000003" y1="156.05" x2="194.150000000003" y2="156.05"/>
    <line x1="194.150000000003" y1="156.05" x2="194.150000000003" y2="152.875000000002"/>
    <line x1="194.150000000003" y1="152.875000000002" x2="197.325000000003" y2="152.875000000001"/>
    <line x1="197.325000000003" y1="152.875000000001" x2="197.325000000003" y2="149.7"/>
    <line x1="197.325000000003" y1="149.7" x2="194.150000000003" y2="149.7"/>
    <line x1="194.150000000003" y1="149.7" x2="194.150000000003" y2="146.525"/>
    <line x1="194.150000000003" y1="146.525" x2="197.325000000003" y2="146.525000000001"/>
    <line x1="197.325000000003" y1="146.525000000001" x2="197.325000000003" y2="143.35"/>
    <line x1="197.325000000003" y1="143.35" x2="194.150000000003" y2="143.35"/>
    <line x1="194.150000000003" y1="143.35" x2="194.150000000003" y2="140.175"/>
    <line x1="194.150000000003" y1="140.175" x2="197.325000000003" y2="140.175"/>
    <line x1="197.325000000003" y1="140.175" x2="197.325000000003" y2="137.000000000001"/>
    <line x1="197.325000000003" y1="137.000000000001" x2="194.150000000003" y2="137.0"/>
    <line x1="194.150000000003" y1="137.0" x2="194.150000000003" y2="133.825000000001"/>
    <line x1="194.150000000003" y1="133.825000000001" x2="197.325000000003" y2="133.825"/>
    <line x1="197.325000000003" y1="133.825" x2="197.325000000003" y2="130.650000000001"/>
    <line x1="197.325000000003" y1="130.650000000001" x2="194.150000000003" y2="130.65"/>
    <line x1="194.150000000003" y1="130.65" x2="194.150000000003" y2="127.475000000001"/>
    <line x1="194.150000000003" y1="127.475000000001" x2="197.325000000003" y2="127.475"/>
    <line x1="197.325000000003" y1="127.475" x2="197.325000000003" y2="124.3"/>
    <line x1="197.325000000003" y1="124.3" x2="194.150000000003" y2="124.300000000001"/>
    <line x1="194.150000000003" y1="124.300000000001" x2="194.150000000003" y2="121.125000000001"/>
    <line x1="194.150000000003" y1="121.125000000001" x2="197.325000000003" y2="121.125000000001"/>
    <line x1="197.325000000003" y1="121.125000000001" x2="197.325000000004" y2="117.950000000001"/>
    <line x1="197.325000000004" y1="117.950000000001" x2="194.150000000004" y2="117.950000000001"/>
    <line x1="194.150000000004" y1="117.950000000001" x2="194.150000000004" y2="114.775000000001"/>
    <line x1="194.150000000004" y1="114.775000000001" x2="197.325000000004" y2="114.775000000001"/>
    <line x1="197.325000000004" y1="114.775000000001" x2="197.325000000004" y2="111.600000000001"/>
    <line x1="197.325000000004" y1="111.600000000001" x2="194.150000000004" y2="111.600000000001"/>
    <line x1="194.150000000004" y1="111.600000000001" x2="194.150000000004" y2="108.425"/>
    <line x1="194.150000000004" y1="108.425" x2="197.325000000004" y2="108.425000000001"/>
    <line x1="197.325000000004" y1="108.425000000001" x2="197.325000000004" y2="105.250000000001"/>
    <line x1="197.325000000004" y1="105.250000000001" x2="194.150000000004" y2="105.250000000001"/>
    <line x1="194.150000000004" y1="105.250000000001" x2="194.150000000004" y2="102.075000000001"/>
    <line x1="194.150000000004" y1="102.075000000001" x2="197.325000000004" y2="102.075000000001"/>
    <line x1="197.325000000004" y1="102.075000000001" x2="197.325000000004" y2="98.9000000000005"/>
    <line x1="197.325000000004" y1="98.9000000000005" x2="194.150000000004" y2="98.9000000000005"/>
    <line x1="194.150000000004" y1="98.9000000000005" x2="194.150000000004" y2="95.7250000000006"/>
    <line x1="194.150000000004" y1="95.7250000000006" x2="197.325000000004" y2="95.7250000000005"/>
    <line x1="197.325000000004" y1="95.7250000000005" x2="197.325000000004" y2="92.5500000000007"/>
    <line x1="197.325000000004" y1="92.5500000000007" x2="194.150000000004" y2="92.5500000000007"/>
    <line x1="194.150000000004" y1="92.5500000000007" x2="194.150000000004" y2="89.3750000000006"/>
    <line x1="194.150000000004" y1="89.3750000000006" x2="197.325000000004" y2="89.3750000000007"/>
    <line x1="197.325000000004" y1="89.3750000000007" x2="197.325000000004" y2="86.2000000000006"/>
    <line x1="197.325000000004" y1="86.2000000000006" x2="194.150000000004" y2="86.2000000000006"/>
    <line x1="194.150000000004" y1="86.2000000000006" x2="194.150000000004" y2="83.0250000000006"/>
    <line x1="194.150000000004" y1="83.0250000000006" x2="197.325000000004" y2="83.0250000000006"/>
    <line x1="197.325000000004" y1="83.0250000000006" x2="197.325000000004" y2="79.8500000000007"/>
    <line x1="197.325000000004" y1="79.8500000000007" x2="194.150000000004" y2="79.8500000000006"/>
    <line x1="194.150000000004" y1="79.8500000000006" x2="194.150000000004" y2="76.6750000000007"/>
    <line x1="194.150000000004" y1="76.6750000000007" x2="197.325000000004" y2="76.6750000000008"/>
    <line x1="197.325000000004" y1="76.6750000000008" x2="197.325000000004" y2="73.5000000000006"/>
    <line x1="197.325000000004" y1="73.5000000000006" x2="194.150000000004" y2="73.5000000000006"/>
    <line x1="194.150000000004" y1="73.5000000000006" x2="194.150000000004" y2="70.3250000000006"/>
    <line x1="194.150000000004" y1="70.3250000000006" x2="197.325000000004" y2="70.3250000000007"/>
    <line x1="197.325000000004" y1="70.3250000000007" x2="197.325000000004" y2="67.1500000000007"/>
    <line x1="197.325000000004" y1="67.1500000000007" x2="194.150000000004" y2="67.1500000000006"/>
    <line x1="194.150000000004" y1="67.1500000000006" x2="194.150000000004" y2="63.9750000000006"/>
    <line x1="194.150000000004" y1="63.9750000000006" x2="197.325000000004" y2="63.9750000000007"/>
    <line x1="197.325000000004" y1="63.9750000000007" x2="197.325000000004" y2="60.8000000000007"/>
    <line x1="197.325000000004" y1="60.8000000000007" x2="194.150000000004" y2="60.8000000000007"/>
    <line x1="194.150000000004" y1="60.8000000000007" x2="194.150000000004" y2="57.6250000000006"/>
    <line x1="194.150000000004" y1="57.6250000000006" x2="197.325000000004" y2="57.6250000000007"/>
    <line x1="197.325000000004" y1="57.6250000000007" x2="197.325000000004" y2="54.4500000000007"/>
    <line x1="197.325000000004" y1="54.4500000000007" x2="194.150000000004" y2="54.4500000000006"/>
    <line x1="194.150000000004" y1="54.4500000000006" x2="194.150000000004" y2="51.2750000000008"/>
    <line x1="194.150000000004" y1="51.2750000000008" x2="197.325000000004" y2="51.2750000000007"/>
    <line x1="197.325000000004" y1="51.2750000000007" x2="197.325000000004" y2="48.1000000000007"/>
    <line x1="197.325000000004" y1="48.1000000000007" x2="194.150000000004" y2="48.1000000000006"/>
    <line x1="194.150000000004" y1="48.1000000000006" x2="194.150000000004" y2="44.9250000000006"/>
    <line x1="194.150000000004" y1="44.9250000000006" x2="197.325000000004" y2="44.9249999999986"/>
    <line x1="197.325000000004" y1="44.9249999999986" x2="197.325000000002" y2="41.7499999999984"/>
    <line x1="197.325000000002" y1="41.7499999999984" x2="194.150000000002" y2="41.7500000000004"/>
    <line x1="194.150000000002" y1="41.7500000000004" x2="194.150000000005" y2="38.5750000000007"/>
    <line x1="194.150000000005" y1="38.5750000000007" x2="197.325000000005" y2="38.5750000000007"/>
    <line x1="197.325000000005" y1="38.5750000000007" x2="197.325000000005" y2="35.4000000000007"/>
    <line x1="197.325000000005" y1="35.4000000000007" x2="194.150000000005" y2="35.4000000000007"/>
    <line x1="194.150000000005" y1="35.4000000000007" x2="194.150000000005" y2="32.2250000000007"/>
    <line x1="194.150000000005" y1="32.2250000000007" x2="197.325000000005" y2="32.2250000000007"/>
    <line x1="197.325000000005" y1="32.2250000000007" x2="197.325000000005" y2="29.0500000000008"/>
    <line x1="197.325000000005" y1="29.0500000000008" x2="194.150000000005" y2="29.0500000000007"/>
    <line x1="194.150000000005" y1="29.0500000000007" x2="194.150000000005" y2="25.8750000000007"/>
    <line x1="194.150000000005" y1="25.8750000000007" x2="197.325000000005" y2="25.8750000000008"/>
    <line x1="197.325000000005" y1="25.8750000000008" x2="197.325000000005" y2="22.7000000000007"/>
    <line x1="197.325000000005" y1="22.7000000000007" x2="194.150000000005" y2="22.7000000000006"/>
    <line x1="194.150000000005" y1="22.7000000000006" x2="194.150000000005" y2="19.5250000000007"/>
    <line x1="194.150000000005" y1="19.5250000000007" x2="197.325000000005" y2="19.5250000000007"/>
    <line x1="197.325000000005" y1="19.5250000000007" x2="197.325000000005" y2="16.3500000000007"/>
    <line x1="197.325000000005" y1="16.3500000000007" x2="194.150000000005" y2="16.3500000000006"/>
    <line x1="194.150000000005" y1="16.3500000000006" x2="194.150000000003" y2="10.0000000000004"/>
    <line x1="194.150000000003" y1="10.0000000000004" x2="190.975000000003" y2="10.0"/>
    <line x1="190.975000000003" y1="10.0" x2="190.975000000002" y2="13.175"/>
    <line x1="190.975000000002" y1="13.175" x2="187.800000000002" y2="13.1750000000001"/>
    <line x1="187.800000000002" y1="13.1750000000001" x2="187.800000000002" y2="10.0000000000001"/>
    <line x1="187.800000000002" y1="10.0000000000001" x2="184.625000000002" y2="10.0000000000001"/>
    <line x1="184.625000000002" y1="10.0000000000001" x2="184.625000000002" y2="13.1750000000001"/>
    <line x1="184.625000000002" y1="13.1750000000001" x2="181.450000000002" y2="13.1750000000001"/>
    <line x1="181.450000000002" y1="13.1750000000001" x2="181.450000000002" y2="10.0000000000001"/>
    <line x1="181.450000000002" y1="10.0000000000001" x2="178.275000000002" y2="10.0000000000001"/>
    <line x1="178.275000000002" y1="10.0000000000001" x2="178.275000000002" y2="13.1750000000002"/>
    <line x1="178.275000000002" y1="13.1750000000002" x2="175.100000000002" y2="13.1750000000001"/>
    <line x1="175.100000000002" y1="13.1750000000001" x2="175.100000000002" y2="10.0000000000001"/>
    <line x1="175.100000000002" y1="10.0000000000001" x2="171.925000000002" y2="10.0"/>
    <line x1="171.925000000002" y1="10.0" x2="171.925000000002" y2="13.175"/>
    <line x1="171.925000000002" y1="13.175" x2="168.750000000002" y2="13.175"/>
    <line x1="168.750000000002" y1="13.175" x2="168.750000000002" y2="10.0"/>
    <line x1="168.750000000002" y1="10.0" x2="165.575000000002" y2="10.0"/>
    <line x1="165.575000000002" y1="10.0" x2="165.575000000002" y2="13.175"/>
    <line x1="165.575000000002" y1="13.175" x2="162.400000000002" y2="13.1750000000002"/>
    <line x1="162.400000000002" y1="13.1750000000002" x2="162.400000000002" y2="10.0000000000001"/>
    <line x1="162.400000000002" y1="10.0000000000001" x2="159.225000000002" y2="10.0000000000001"/>
    <line x1="159.225000000002" y1="10.0000000000001" x2="159.225000000002" y2="13.1750000000001"/>
    <line x1="159.225000000002" y1="13.1750000000001" x2="156.050000000002" y2="13.1750000000001"/>
    <line x1="156.050000000002" y1="13.1750000000001" x2="156.050000000002" y2="10.0000000000001"/>
    <line x1="156.050000000002" y1="10.0000000000001" x2="152.875000000002" y2="10.0000000000001"/>
    <line x1="152.875000000002" y1="10.0000000000001" x2="152.875000000002" y2="13.1750000000001"/>
    <line x1="152.875000000002" y1="13.1750000000001" x2="149.700000000002" y2="13.1750000000002"/>
    <line x1="149.700000000002" y1="13.1750000000002" x2="149.700000000002" y2="10.0000000000002"/>
    <line x1="149.700000000002" y1="10.0000000000002" x2="146.525000000002" y2="10.0000000000001"/>
    <line x1="146.525000000002" y1="10.0000000000001" x2="146.525000000002" y2="13.1750000000001"/>
    <line x1="146.525000000002" y1="13.1750000000001" x2="143.350000000002" y2="13.1750000000001"/>
    <line x1="143.350000000002" y1="13.1750000000001" x2="143.350000000002" y2="10.0000000000001"/>
    <line x1="143.350000000002" y1="10.0000000000001" x2="140.175000000002" y2="10.0000000000001"/>
    <line x1="140.175000000002" y1="10.0000000000001" x2="140.175000000002" y2="13.1750000000001"/>
    <line x1="140.175000000002" y1="13.1750000000001" x2="137.000000000002" y2="13.1750000000002"/>
    <line x1="137.000000000002" y1="13.1750000000002" x2="137.000000000002" y2="10.0000000000002"/>
    <line x1="137.000000000002" y1="10.0000000000002" x2="133.825000000002" y2="10.0000000000001"/>
    <line x1="133.825000000002" y1="10.0000000000001" x2="133.825000000002" y2="13.1750000000002"/>
    <line x1="133.825000000002" y1="13.1750000000002" x2="130.650000000002" y2="13.1750000000002"/>
    <line x1="130.650000000002" y1="13.1750000000002" x2="130.650000000002" y2="10.0000000000002"/>
    <line x1="130.650000000002" y1="10.0000000000002" x2="127.475000000002" y2="10.0000000000002"/>
    <line x1="127.475000000002" y1="10.0000000000002" x2="127.475000000002" y2="13.1750000000002"/>
    <line x1="127.475000000002" y1="13.1750000000002" x2="124.300000000002" y2="13.1750000000002"/>
    <line x1="124.300000000002" y1="13.1750000000002" x2="124.300000000002" y2="10.0000000000002"/>
    <line x1="124.300000000002" y1="10.0000000000002" x2="121.125000000002" y2="10.0000000000001"/>
    <line x1="121.125000000002" y1="10.0000000000001" x2="121.125000000002" y2="13.1750000000001"/>
    <line x1="121.125000000002" y1="13.1750000000001" x2="117.950000000002" y2="13.1750000000001"/>
    <line x1="117.950000000002" y1="13.1750000000001" x2="117.950000000002" y2="10.0000000000001"/>
    <line x1="117.950000000002" y1="10.0000000000001" x2="114.775000000002" y2="10.0000000000001"/>
    <line x1="114.775000000002" y1="10.0000000000001" x2="114.775000000002" y2="13.1750000000001"/>
    <line x1="114.775000000002" y1="13.1750000000001" x2="111.600000000002" y2="13.1750000000002"/>
    <line x1="111.600000000002" y1="13.1750000000002" x2="111.600000000002" y2="10.0000000000002"/>
    <line x1="111.600000000002" y1="10.0000000000002" x2="108.425000000002" y2="10.0000000000002"/>
    <line x1="108.425000000002" y1="10.0000000000002" x2="108.425000000002" y2="13.1750000000002"/>
    <line x1="108.425000000002" y1="13.1750000000002" x2="105.250000000002" y2="13.1750000000002"/>
    <line x1="105.250000000002" y1="13.1750000000002" x2="105.250000000002" y2="10.0000000000002"/>
    <line x1="105.250000000002" y1="10.0000000000002" x2="102.075000000002" y2="10.0000000000002"/>
    <line x1="102.075000000002" y1="10.0000000000002" x2="102.075000000002" y2="13.1750000000002"/>
    <line x1="102.075000000002" y1="13.1750000000002" x2="98.9000000000024" y2="13.1750000000002"/>
    <line x1="98.9000000000024" y1="13.1750000000002" x2="98.9000000000024" y2="10.0000000000002"/>
    <line x1="98.9000000000024" y1="10.0000000000002" x2="95.7250000000024" y2="10.0000000000002"/>
    <line x1="95.7250000000024" y1="10.0000000000002" x2="95.7250000000023" y2="13.1750000000002"/>
    <line x1="95.7250000000023" y1="13.1750000000002" x2="92.5500000000023" y2="13.1750000000002"/>
    <line x1="92.5500000000023" y1="13.1750000000002" x2="92.5500000000023" y2="10.0000000000002"/>
    <line x1="92.5500000000023" y1="10.0000000000002" x2="89.3750000000024" y2="10.0000000000002"/>
    <line x1="89.3750000000024" y1="10.0000000000002" x2="89.3750000000023" y2="13.1750000000002"/>
    <line x1="89.3750000000023" y1="13.1750000000002" x2="86.2000000000023" y2="13.1750000000002"/>
    <line x1="86.2000000000023" y1="13.1750000000002" x2="86.2000000000023" y2="10.0000000000002"/>
    <line x1="86.2000000000023" y1="10.0000000000002" x2="83.0250000000023" y2="10.0000000000002"/>
    <line x1="83.0250000000023" y1="10.0000000000002" x2="83.0250000000023" y2="13.1750000000002"/>
    <line x1="83.0250000000023" y1="13.1750000000002" x2="79.8500000000023" y2="13.1750000000003"/>
    <line x1="79.8500000000023" y1="13.1750000000003" x2="79.8500000000024" y2="10.0000000000003"/>
    <line x1="79.8500000000024" y1="10.0000000000003" x2="76.6750000000024" y2="10.0000000000003"/>
    <line x1="76.6750000000024" y1="10.0000000000003" x2="76.6750000000024" y2="13.1750000000003"/>
    <line x1="76.6750000000024" y1="13.1750000000003" x2="73.5000000000024" y2="13.1750000000003"/>
    <line x1="73.5000000000024" y1="13.1750000000003" x2="73.5000000000024" y2="10.0000000000003"/>
    <line x1="73.5000000000024" y1="10.0000000000003" x2="70.3250000000024" y2="10.0000000000002"/>
    <line x1="70.3250000000024" y1="10.0000000000002" x2="70.3250000000024" y2="13.1750000000002"/>
    <line x1="70.3250000000024" y1="13.1750000000002" x2="67.1500000000024" y2="13.1750000000002"/>
    <line x1="67.1500000000024" y1="13.1750000000002" x2="67.1500000000024" y2="10.0000000000002"/>
    <line x1="67.1500000000024" y1="10.0000000000002" x2="63.9750000000024" y2="10.0000000000002"/>
    <line x1="63.9750000000024" y1="10.0000000000002" x2="63.9750000000023" y2="13.1750000000002"/>
    <line x1="63.9750000000023" y1="13.1750000000002" x2="60.8000000000024" y2="13.1750000000003"/>
    <line x1="60.8000000000024" y1="13.1750000000003" x2="60.8000000000024" y2="10.0000000000003"/>
    <line x1="60.8000000000024" y1="10.0000000000003" x2="57.6250000000024" y2="10.0000000000003"/>
    <line x1="57.6250000000024" y1="10.0000000000003" x2="57.6250000000024" y2="13.1750000000003"/>
    <line x1="57.6250000000024" y1="13.1750000000003" x2="54.4500000000024" y2="13.1750000000003"/>
    <line x1="54.4500000000024" y1="13.1750000000003" x2="54.4500000000024" y2="10.0000000000003"/>
    <line x1="54.4500000000024" y1="10.0000000000003" x2="51.2750000000024" y2="10.0000000000003"/>
    <line x1="51.2750000000024" y1="10.0000000000003" x2="51.2750000000024" y2="13.1750000000003"/>
    <line x1="51.2750000000024" y1="13.1750000000003" x2="48.1000000000024" y2="13.1750000000003"/>
    <line x1="48.1000000000024" y1="13.1750000000003" x2="48.1000000000025" y2="10.0000000000003"/>
    <line x1="48.1000000000025" y1="10.0000000000003" x2="44.9250000000025" y2="10.0000000000003"/>
    <line x1="44.9250000000025" y1="10.0000000000003" x2="44.9250000000024" y2="13.1750000000003"/>
    <line x1="44.9250000000024" y1="13.1750000000003" x2="41.7500000000024" y2="13.1750000000003"/>
    <line x1="41.7500000000024" y1="13.1750000000003" x2="41.7500000000024" y2="10.0000000000003"/>
    <line x1="41.7500000000024" y1="10.0000000000003" x2="38.5750000000024" y2="10.0000000000003"/>
    <line x1="38.5750000000024" y1="10.0000000000003" x2="38.5750000000024" y2="13.1750000000003"/>
    <line x1="38.5750000000024" y1="13.1750000000003" x2="35.4000000000024" y2="13.1750000000003"/>
    <line x1="35.4000000000024" y1="13.1750000000003" x2="35.4000000000024" y2="10.0000000000003"/>
    <line x1="35.4000000000024" y1="10.0000000000003" x2="32.2250000000024" y2="10.0000000000003"/>
    <line x1="32.2250000000024" y1="10.0000000000003" x2="32.2250000000024" y2="13.1750000000003"/>
    <line x1="32.2250000000024" y1="13.1750000000003" x2="29.0500000000024" y2="13.1750000000004"/>
    <line x1="29.0500000000024" y1="13.1750000000004" x2="29.0500000000024" y2="10.0000000000004"/>
    <line x1="29.0500000000024" y1="10.0000000000004" x2="25.8750000000024" y2="10.0000000000004"/>
    <line x1="25.8750000000024" y1="10.0000000000004" x2="25.8750000000024" y2="13.1750000000004"/>
    <line x1="25.8750000000024" y1="13.1750000000004" x2="22.7000000000024" y2="13.1750000000004"/>
    <line x1="22.7000000000024" y1="13.1750000000004" x2="22.7000000000025" y2="10.0000000000004"/>
    <line x1="22.7000000000025" y1="10.0000000000004" x2="19.5250000000025" y2="10.0000000000003"/>
    <line x1="19.5250000000025" y1="10.0000000000003" x2="19.5250000000024" y2="13.1750000000003"/>
    <line x1="19.5250000000024" y1="13.1750000000003" x2="16.3500000000024" y2="13.1750000000003"/>
    <line x1="16.3500000000024" y1="13.1750000000003" x2="16.3500000000024" y2="10.0000000000003"/>
    <line x1="16.3500000000024" y1="10.0000000000003" x2="13.1750000000024" y2="10.0000000000003"/>
    <line x1="13.1750000000024" y1="10.0000000000003" x2="13.1750000000024" y2="13.1750000000003"/>
    <line x1="13.1750000000024" y1="13.1750000000003" x2="13.1750000000024" y2="16.3500000000004"/>
    <line x1="13.1750000000024" y1="16.3500000000004" x2="10.0000000000024" y2="16.3500000000004"/>
    <line x1="10.0000000000024" y1="16.3500000000004" x2="10.0000000000023" y2="19.5250000000005"/>
    <line x1="10.0000000000023" y1="19.5250000000005" x2="13.1750000000023" y2="19.5250000000005"/>
    <line x1="13.1750000000023" y1="19.5250000000005" x2="13.1750000000023" y2="22.7000000000005"/>
    <line x1="13.1750000000023" y1="22.7000000000005" x2="10.0000000000023" y2="22.7000000000004"/>
    <line x1="10.0000000000023" y1="22.7000000000004" x2="10.0000000000022" y2="25.8750000000004"/>
    <line x1="10.0000000000022" y1="25.8750000000004" x2="13.1750000000022" y2="25.8750000000004"/>
    <line x1="13.1750000000022" y1="25.8750000000004" x2="13.1750000000022" y2="29.0500000000004"/>
    <line x1="13.1750000000022" y1="29.0500000000004" x2="10.0000000000022" y2="29.0500000000004"/>
    <line x1="10.0000000000022" y1="29.0500000000004" x2="10.0000000000022" y2="32.2250000000004"/>
    <line x1="10.0000000000022" y1="32.2250000000004" x2="13.1750000000022" y2="32.2250000000005"/>
    <line x1="13.1750000000022" y1="32.2250000000005" x2="13.1750000000021" y2="35.4000000000005"/>
    <line x1="13.1750000000021" y1="35.4000000000005" x2="10.0000000000021" y2="35.4000000000004"/>
    <line x1="10.0000000000021" y1="35.4000000000004" x2="10.0000000000021" y2="38.5750000000004"/>
    <line x1="10.0000000000021" y1="38.5750000000004" x2="13.1750000000021" y2="38.5750000000004"/>
    <line x1="13.1750000000021" y1="38.5750000000004" x2="13.175000000002" y2="41.7500000000004"/>
    <line x1="13.175000000002" y1="41.7500000000004" x2="10.000000000002" y2="41.7500000000003"/>
    <line x1="10.000000000002" y1="41.7500000000003" x2="10.000000000002" y2="44.9250000000005"/>
    <line x1="10.000000000002" y1="44.9250000000005" x2="13.175000000002" y2="44.9250000000005"/>
    <line x1="13.175000000002" y1="44.9250000000005" x2="13.1750000000019" y2="48.1000000000005"/>
    <line x1="13.1750000000019" y1="48.1000000000005" x2="10.0000000000019" y2="48.1000000000004"/>
    <line x1="10.0000000000019" y1="48.1000000000004" x2="10.0000000000019" y2="51.2750000000003"/>
    <line x1="10.0000000000019" y1="51.2750000000003" x2="13.1750000000019" y2="51.2750000000003"/>
    <line x1="13.1750000000019" y1="51.2750000000003" x2="13.1750000000019" y2="54.4500000000004"/>
    <line x1="13.1750000000019" y1="54.4500000000004" x2="10.0000000000019" y2="54.4500000000004"/>
    <line x1="10.0000000000019" y1="54.4500000000004" x2="10.0000000000024" y2="57.6250000000004"/>
    <line x1="10.0000000000024" y1="57.6250000000004" x2="13.1750000000024" y2="57.625000000001"/>
    <line x1="13.1750000000024" y1="57.625000000001" x2="13.1750000000018" y2="60.800000000001"/>
    <line x1="13.1750000000018" y1="60.800000000001" x2="10.0000000000018" y2="60.8000000000004"/>
    <line x1="10.0000000000018" y1="60.8000000000004" x2="10.0000000000017" y2="63.9750000000003"/>
    <line x1="10.0000000000017" y1="63.9750000000003" x2="13.1750000000017" y2="63.9750000000003"/>
    <line x1="13.1750000000017" y1="63.9750000000003" x2="13.1750000000017" y2="67.1500000000003"/>
    <line x1="13.1750000000017" y1="67.1500000000003" x2="10.0000000000017" y2="67.1500000000003"/>
    <line x1="10.0000000000017" y1="67.1500000000003" x2="10.0000000000016" y2="70.3250000000004"/>
    <line x1="10.0000000000016" y1="70.3250000000004" x2="13.1750000000016" y2="70.3250000000005"/>
    <line x1="13.1750000000016" y1="70.3250000000005" x2="13.1750000000016" y2="73.5000000000005"/>
    <line x1="13.1750000000016" y1="73.5000000000005" x2="10.0000000000016" y2="73.5000000000004"/>
    <line x1="10.0000000000016" y1="73.5000000000004" x2="10.0000000000016" y2="76.6750000000003"/>
    <line x1="10.0000000000016" y1="76.6750000000003" x2="13.1750000000015" y2="76.6750000000003"/>
    <line x1="13.1750000000015" y1="76.6750000000003" x2="13.1750000000015" y2="79.8500000000003"/>
    <line x1="13.1750000000015" y1="79.8500000000003" x2="10.0000000000015" y2="79.8500000000003"/>
    <line x1="10.0000000000015" y1="79.8500000000003" x2="10.0000000000015" y2="83.0250000000003"/>
    <line x1="10.0000000000015" y1="83.0250000000003" x2="13.1750000000015" y2="83.0250000000004"/>
    <line x1="13.1750000000015" y1="83.0250000000004" x2="13.1750000000014" y2="86.2000000000005"/>
    <line x1="13.1750000000014" y1="86.2000000000005" x2="10.0000000000014" y2="86.2000000000004"/>
    <line x1="10.0000000000014" y1="86.2000000000004" x2="10.0000000000014" y2="89.3750000000003"/>
    <line x1="10.0000000000014" y1="89.3750000000003" x2="13.1750000000014" y2="89.3750000000003"/>
    <line x1="13.1750000000014" y1="89.3750000000003" x2="13.1750000000014" y2="92.5500000000003"/>
    <line x1="13.1750000000014" y1="92.5500000000003" x2="10.0000000000013" y2="92.5500000000003"/>
    <line x1="10.0000000000013" y1="92.5500000000003" x2="10.0000000000013" y2="95.7250000000004"/>
    <line x1="10.0000000000013" y1="95.7250000000004" x2="13.1750000000013" y2="95.7250000000005"/>
    <line x1="13.1750000000013" y1="95.7250000000005" x2="13.1750000000013" y2="98.9000000000005"/>
    <line x1="13.1750000000013" y1="98.9000000000005" x2="10.0000000000013" y2="98.9000000000004"/>
    <line x1="10.0000000000013" y1="98.9000000000004" x2="10.0000000000012" y2="102.075"/>
    <line x1="10.0000000000012" y1="102.075" x2="13.1750000000012" y2="102.075"/>
    <line x1="13.1750000000012" y1="102.075" x2="13.1750000000012" y2="105.25"/>
    <line x1="13.1750000000012" y1="105.25" x2="10.0000000000012" y2="105.25"/>
    <line x1="10.0000000000012" y1="105.25" x2="10.0000000000012" y2="108.425"/>
    <line x1="10.0000000000012" y1="108.425" x2="13.1750000000011" y2="108.425"/>
    <line x1="13.1750000000011" y1="108.425" x2="13.1750000000011" y2="111.6"/>
    <line x1="13.1750000000011" y1="111.6" x2="10.0000000000011" y2="111.6"/>
    <line x1="10.0000000000011" y1="111.6" x2="10.0000000000011" y2="114.775"/>
    <line x1="10.0000000000011" y1="114.775" x2="13.1750000000011" y2="114.775"/>
    <line x1="13.1750000000011" y1="114.775" x2="13.175000000001" y2="117.95"/>
    <line x1="13.175000000001" y1="117.95" x2="10.000000000001" y2="117.95"/>
    <line x1="10.000000000001" y1="117.95" x2="10.000000000001" y2="121.125"/>
    <line x1="10.000000000001" y1="121.125" x2="13.175000000001" y2="121.125"/>
    <line x1="13.175000000001" y1="121.125" x2="13.1750000000009" y2="124.3"/>
    <line x1="13.1750000000009" y1="124.3" x2="10.0000000000009" y2="124.3"/>
    <line x1="10.0000000000009" y1="124.3" x2="10.0000000000009" y2="127.475"/>
    <line x1="10.0000000000009" y1="127.475" x2="13.1750000000009" y2="127.475"/>
    <line x1="13.1750000000009" y1="127.475" x2="13.1750000000008" y2="130.65"/>
    <line x1="13.1750000000008" y1="130.65" x2="10.0000000000009" y2="130.65"/>
    <line x1="10.0000000000009" y1="130.65" x2="10.0000000000008" y2="133.825"/>
    <line x1="10.0000000000008" y1="133.825" x2="13.1750000000008" y2="133.825"/>
    <line x1="13.1750000000008" y1="133.825" x2="13.1750000000008" y2="137.0"/>
    <line x1="13.1750000000008" y1="137.0" x2="10.0000000000008" y2="137.0"/>
    <line x1="10.0000000000008" y1="137.0" x2="10.0000000000007" y2="140.175"/>
    <line x1="10.0000000000007" y1="140.175" x2="13.1750000000007" y2="140.175"/>
    <line x1="13.1750000000007" y1="140.175" x2="13.1750000000007" y2="143.35"/>
    <line x1="13.1750000000007" y1="143.35" x2="10.0000000000007" y2="143.35"/>
    <line x1="10.0000000000007" y1="143.35" x2="10.0000000000006" y2="146.525"/>
    <line x1="10.0000000000006" y1="146.525" x2="13.1750000000006" y2="146.525"/>
    <line x1="13.1750000000006" y1="146.525" x2="13.1750000000006" y2="149.7"/>
    <line x1="13.1750000000006" y1="149.7" x2="10.0000000000006" y2="149.7"/>
    <line x1="57.6250000000024" y1="156.05" x2="57.6250000000024" y2="152.874999999999"/>
    <line x1="57.6250000000024" y1="152.874999999999" x2="57.6250000000012" y2="149.7"/>
    <line x1="57.6250000000012" y1="149.7" x2="54.4158920882946" y2="149.7"/>
    <line x1="54.4158920882946" y1="149.7" x2="54.4158920882946" y2="146.525"/>
    <line x1="54.4158920882946" y1="146.525" x2="57.6250000000012" y2="146.525"/>
    <line x1="57.6250000000012" y1="146.525" x2="57.6250000000013" y2="143.35"/>
    <line x1="57.6250000000013" y1="143.35" x2="54.4158920882945" y2="143.35"/>
    <line x1="54.4158920882945" y1="143.35" x2="54.4158920882945" y2="140.175"/>
    <line x1="54.4158920882945" y1="140.175" x2="57.5908920882945" y2="140.175"/>
    <line x1="57.5908920882945" y1="140.175" x2="57.5908920882946" y2="137.0"/>
    <line x1="57.5908920882946" y1="137.0" x2="54.4158920882945" y2="137.0"/>
    <line x1="54.4158920882945" y1="137.0" x2="54.4158920882946" y2="133.825"/>
    <line x1="54.4158920882946" y1="133.825" x2="57.6250000000014" y2="133.825"/>
    <line x1="57.6250000000014" y1="133.825" x2="57.6250000000014" y2="130.65"/>
    <line x1="57.6250000000014" y1="130.65" x2="54.4158920882945" y2="130.65"/>
    <line x1="54.4158920882945" y1="130.65" x2="54.4158920882946" y2="127.475"/>
    <line x1="54.4158920882946" y1="127.475" x2="57.6250000000015" y2="127.475"/>
    <line x1="57.6250000000015" y1="127.475" x2="57.6250000000015" y2="124.3"/>
    <line x1="57.6250000000015" y1="124.3" x2="54.4500000000015" y2="124.3"/>
    <line x1="54.4500000000015" y1="124.3" x2="54.4500000000016" y2="121.125"/>
    <line x1="54.4500000000016" y1="121.125" x2="57.6250000000015" y2="121.125"/>
    <line x1="57.6250000000015" y1="121.125" x2="57.6250000000016" y2="117.95"/>
    <line x1="57.6250000000016" y1="117.95" x2="54.4158920882945" y2="117.95"/>
    <line x1="54.4158920882945" y1="117.95" x2="54.4158920882946" y2="114.775"/>
    <line x1="54.4158920882946" y1="114.775" x2="57.6250000000016" y2="114.775"/>
    <line x1="57.6250000000016" y1="114.775" x2="57.6250000000017" y2="111.6"/>
    <line x1="57.6250000000017" y1="111.6" x2="54.4500000000017" y2="111.6"/>
    <line x1="54.4500000000017" y1="111.6" x2="54.4500000000017" y2="108.425"/>
    <line x1="54.4500000000017" y1="108.425" x2="57.6250000000017" y2="108.425"/>
    <line x1="57.6250000000017" y1="108.425" x2="57.6250000000018" y2="105.25"/>
    <line x1="57.6250000000018" y1="105.25" x2="54.4500000000018" y2="105.25"/>
    <line x1="54.4500000000018" y1="105.25" x2="54.4500000000018" y2="102.075"/>
    <line x1="54.4500000000018" y1="102.075" x2="57.6250000000018" y2="102.075"/>
    <line x1="57.6250000000018" y1="102.075" x2="57.6250000000019" y2="98.9000000000004"/>
    <line x1="57.6250000000019" y1="98.9000000000004" x2="54.4500000000019" y2="98.9000000000004"/>
    <line x1="54.4500000000019" y1="98.9000000000004" x2="54.4500000000019" y2="95.7250000000003"/>
    <line x1="54.4500000000019" y1="95.7250000000003" x2="57.6250000000019" y2="95.7250000000004"/>
    <line x1="57.6250000000019" y1="95.7250000000004" x2="57.6250000000019" y2="92.5500000000005"/>
    <line x1="57.6250000000019" y1="92.5500000000005" x2="54.4500000000019" y2="92.5500000000004"/>
    <line x1="54.4500000000019" y1="92.5500000000004" x2="54.450000000002" y2="89.3750000000004"/>
    <line x1="54.450000000002" y1="89.3750000000004" x2="57.625000000002" y2="89.3750000000005"/>
    <line x1="57.625000000002" y1="89.3750000000005" x2="57.625000000002" y2="86.2000000000003"/>
    <line x1="57.625000000002" y1="86.2000000000003" x2="54.450000000002" y2="86.2000000000003"/>
    <line x1="54.450000000002" y1="86.2000000000003" x2="54.4500000000021" y2="83.0250000000003"/>
    <line x1="54.4500000000021" y1="83.0250000000003" x2="57.6250000000021" y2="83.0250000000004"/>
    <line x1="57.6250000000021" y1="83.0250000000004" x2="57.6250000000021" y2="79.8500000000004"/>
    <line x1="57.6250000000021" y1="79.8500000000004" x2="54.4500000000021" y2="79.8500000000004"/>
    <line x1="54.4500000000021" y1="79.8500000000004" x2="54.4500000000022" y2="76.6750000000004"/>
    <line x1="54.4500000000022" y1="76.6750000000004" x2="57.6250000000022" y2="76.6750000000004"/>
    <line x1="57.6250000000022" y1="76.6750000000004" x2="57.6250000000022" y2="73.5000000000004"/>
    <line x1="57.6250000000022" y1="73.5000000000004" x2="54.4500000000022" y2="73.5000000000004"/>
    <line x1="54.4500000000022" y1="73.5000000000004" x2="54.4500000000022" y2="70.3250000000003"/>
    <line x1="54.4500000000022" y1="70.3250000000003" x2="57.6250000000022" y2="70.3250000000005"/>
    <line x1="57.6250000000022" y1="70.3250000000005" x2="57.6250000000023" y2="67.1500000000005"/>
    <line x1="57.6250000000023" y1="67.1500000000005" x2="54.4500000000023" y2="67.1500000000004"/>
    <line x1="54.4500000000023" y1="67.1500000000004" x2="54.4500000000023" y2="63.9750000000005"/>
    <line x1="54.4500000000023" y1="63.9750000000005" x2="57.6250000000023" y2="63.9750000000005"/>
    <line x1="57.6250000000023" y1="63.9750000000005" x2="57.6250000000024" y2="60.8000000000004"/>
    <line x1="57.6250000000024" y1="60.8000000000004" x2="54.4500000000024" y2="60.8000000000004"/>
    <line x1="54.4500000000024" y1="60.8000000000004" x2="54.4500000000024" y2="57.6250000000004"/>
    <line x1="54.4500000000024" y1="57.6250000000004" x2="54.4500000000024" y2="54.4500000000003"/>
    <line x1="54.4500000000024" y1="54.4500000000003" x2="57.6250000000024" y2="54.4500000000003"/>
    <line x1="57.6250000000024" y1="54.4500000000003" x2="57.6250000000024" y2="57.6250000000003"/>
    <line x1="57.6250000000024" y1="57.6250000000003" x2="60.8000000000024" y2="57.6250000000003"/>
    <line x1="60.8000000000024" y1="57.6250000000003" x2="60.8000000000024" y2="54.4500000000003"/>
    <line x1="60.8000000000024" y1="54.4500000000003" x2="63.9750000000024" y2="54.4500000000003"/>
    <line x1="63.9750000000024" y1="54.4500000000003" x2="63.9750000000024" y2="57.6250000000003"/>
    <line x1="63.9750000000024" y1="57.6250000000003" x2="67.1500000000024" y2="57.6250000000004"/>
    <line x1="67.1500000000024" y1="57.6250000000004" x2="67.1500000000024" y2="54.4500000000004"/>
    <line x1="67.1500000000024" y1="54.4500000000004" x2="70.3250000000024" y2="54.4500000000004"/>
    <line x1="70.3250000000024" y1="54.4500000000004" x2="70.3250000000024" y2="57.6250000000004"/>
    <line x1="70.3250000000024" y1="57.6250000000004" x2="73.5000000000024" y2="57.6250000000004"/>
    <line x1="73.5000000000024" y1="57.6250000000004" x2="73.5000000000024" y2="54.4500000000004"/>
    <line x1="73.5000000000024" y1="54.4500000000004" x2="76.6750000000024" y2="54.4500000000003"/>
    <line x1="76.6750000000024" y1="54.4500000000003" x2="76.6750000000024" y2="57.6250000000003"/>
    <line x1="76.6750000000024" y1="57.6250000000003" x2="79.8500000000024" y2="57.6250000000003"/>
    <line x1="79.8500000000024" y1="57.6250000000003" x2="79.8500000000023" y2="54.4500000000003"/>
    <line x1="79.8500000000023" y1="54.4500000000003" x2="83.0250000000023" y2="54.4500000000003"/>
    <line x1="83.0250000000023" y1="54.4500000000003" x2="83.0250000000024" y2="57.6250000000003"/>
    <line x1="83.0250000000024" y1="57.6250000000003" x2="86.2000000000024" y2="57.6250000000003"/>
    <line x1="86.2000000000024" y1="57.6250000000003" x2="86.2000000000024" y2="54.4500000000003"/>
    <line x1="86.2000000000024" y1="54.4500000000003" x2="89.3750000000024" y2="54.4500000000003"/>
    <line x1="89.3750000000024" y1="54.4500000000003" x2="89.3750000000024" y2="57.6250000000003"/>
    <line x1="89.3750000000024" y1="57.6250000000003" x2="92.5500000000024" y2="57.6250000000003"/>
    <line x1="92.5500000000024" y1="57.6250000000003" x2="92.5500000000024" y2="54.4500000000003"/>
    <line x1="92.5500000000024" y1="54.4500000000003" x2="95.7250000000024" y2="54.4500000000003"/>
    <line x1="95.7250000000024" y1="54.4500000000003" x2="95.7250000000024" y2="57.6250000000003"/>
    <line x1="95.7250000000024" y1="57.6250000000003" x2="98.9000000000024" y2="57.6250000000003"/>
    <line x1="98.9000000000024" y1="57.6250000000003" x2="98.9000000000024" y2="54.4500000000003"/>
    <line x1="98.9000000000024" y1="54.4500000000003" x2="102.075000000002" y2="54.4500000000003"/>
    <line x1="102.075000000002" y1="54.4500000000003" x2="102.075000000002" y2="57.6250000000003"/>
    <line x1="102.075000000002" y1="57.6250000000003" x2="105.250000000002" y2="57.6250000000003"/>
    <line x1="105.250000000002" y1="57.6250000000003" x2="105.250000000002" y2="54.4500000000003"/>
    <line x1="105.250000000002" y1="54.4500000000003" x2="108.425000000002" y2="54.4500000000002"/>
    <line x1="108.425000000002" y1="54.4500000000002" x2="108.425000000002" y2="57.6250000000002"/>
    <line x1="108.425000000002" y1="57.6250000000002" x2="111.600000000002" y2="57.6250000000002"/>
    <line x1="111.600000000002" y1="57.6250000000002" x2="111.600000000002" y2="54.4500000000002"/>
    <line x1="111.600000000002" y1="54.4500000000002" x2="114.775000000002" y2="54.4500000000002"/>
    <line x1="114.775000000002" y1="54.4500000000002" x2="114.775000000002" y2="57.6250000000002"/>
    <line x1="114.775000000002" y1="57.6250000000002" x2="117.950000000002" y2="57.6250000000003"/>
    <line x1="117.950000000002" y1="57.6250000000003" x2="117.950000000002" y2="54.4500000000003"/>
    <line x1="117.950000000002" y1="54.4500000000003" x2="121.125000000002" y2="54.4500000000003"/>
    <line x1="121.125000000002" y1="54.4500000000003" x2="121.125000000002" y2="57.6250000000003"/>
    <line x1="121.125000000002" y1="57.6250000000003" x2="124.300000000002" y2="57.6250000000003"/>
    <line x1="124.300000000002" y1="57.6250000000003" x2="124.300000000002" y2="54.4500000000003"/>
    <line x1="124.300000000002" y1="54.4500000000003" x2="127.475000000002" y2="54.4500000000002"/>
    <line x1="127.475000000002" y1="54.4500000000002" x2="127.475000000002" y2="57.6250000000003"/>
    <line x1="127.475000000002" y1="57.6250000000003" x2="130.650000000002" y2="57.6250000000002"/>
    <line x1="130.650000000002" y1="57.6250000000002" x2="130.650000000002" y2="54.4500000000003"/>
    <line x1="130.650000000002" y1="54.4500000000003" x2="133.825000000002" y2="54.4500000000002"/>
    <line x1="133.825000000002" y1="54.4500000000002" x2="133.825000000002" y2="57.6250000000002"/>
    <line x1="133.825000000002" y1="57.6250000000002" x2="137.000000000002" y2="57.6250000000002"/>
    <line x1="137.000000000002" y1="57.6250000000002" x2="137.000000000002" y2="54.4500000000002"/>
    <line x1="137.000000000002" y1="54.4500000000002" x2="140.175000000002" y2="54.4500000000002"/>
    <line x1="140.175000000002" y1="54.4500000000002" x2="140.175000000002" y2="57.6250000000002"/>
    <line x1="140.175000000002" y1="57.6250000000002" x2="143.350000000002" y2="57.6250000000003"/>
    <line x1="143.350000000002" y1="57.6250000000003" x2="143.350000000002" y2="54.4500000000003"/>
    <line x1="143.350000000002" y1="54.4500000000003" x2="146.525000000002" y2="54.4500000000002"/>
    <line x1="146.525000000002" y1="54.4500000000002" x2="146.525000000002" y2="57.6250000000002"/>
    <line x1="146.525000000002" y1="57.6250000000002" x2="149.700000000002" y2="57.6250000000004"/>
    <line x1="149.700000000002" y1="57.6250000000004" x2="149.700000000002" y2="60.8000000000004"/>
    <line x1="149.700000000002" y1="60.8000000000004" x2="152.875000000002" y2="60.8000000000005"/>
    <line x1="152.875000000002" y1="60.8000000000005" x2="152.875000000002" y2="63.9750000000005"/>
    <line x1="152.875000000002" y1="63.9750000000005" x2="149.700000000002" y2="63.9750000000005"/>
    <line x1="149.700000000002" y1="63.9750000000005" x2="149.700000000002" y2="67.1500000000005"/>
    <line x1="149.700000000002" y1="67.1500000000005" x2="152.875000000002" y2="67.1500000000005"/>
    <line x1="152.875000000002" y1="67.1500000000005" x2="152.875000000002" y2="70.3250000000005"/>
    <line x1="152.875000000002" y1="70.3250000000005" x2="149.700000000002" y2="70.3250000000004"/>
    <line x1="149.700000000002" y1="70.3250000000004" x2="149.700000000002" y2="73.5000000000004"/>
    <line x1="149.700000000002" y1="73.5000000000004" x2="152.875000000002" y2="73.5000000000004"/>
    <line x1="152.875000000002" y1="73.5000000000004" x2="152.875000000002" y2="76.6750000000005"/>
    <line x1="152.875000000002" y1="76.6750000000005" x2="149.700000000002" y2="76.6750000000004"/>
    <line x1="149.700000000002" y1="76.6750000000004" x2="149.700000000002" y2="79.8500000000004"/>
    <line x1="149.700000000002" y1="79.8500000000004" x2="152.875000000002" y2="79.8500000000004"/>
    <line x1="152.875000000002" y1="79.8500000000004" x2="152.875000000002" y2="83.0250000000004"/>
    <line x1="152.875000000002" y1="83.0250000000004" x2="149.700000000002" y2="83.0250000000004"/>
    <line x1="149.700000000002" y1="83.0250000000004" x2="149.700000000002" y2="86.2000000000003"/>
    <line x1="149.700000000002" y1="86.2000000000003" x2="152.875000000002" y2="86.2000000000003"/>
    <line x1="152.875000000002" y1="86.2000000000003" x2="152.875000000002" y2="89.3750000000005"/>
    <line x1="152.875000000002" y1="89.3750000000005" x2="149.700000000002" y2="89.3750000000005"/>
    <line x1="149.700000000002" y1="89.3750000000005" x2="149.700000000002" y2="92.5500000000004"/>
    <line x1="149.700000000002" y1="92.5500000000004" x2="152.875000000002" y2="92.5500000000005"/>
    <line x1="152.875000000002" y1="92.5500000000005" x2="152.875000000002" y2="95.7250000000003"/>
    <line x1="152.875000000002" y1="95.7250000000003" x2="149.700000000002" y2="95.7250000000003"/>
    <line x1="149.700000000002" y1="95.7250000000003" x2="149.700000000002" y2="98.9000000000004"/>
    <line x1="149.700000000002" y1="98.9000000000004" x2="152.875000000002" y2="98.9000000000004"/>
    <line x1="152.875000000002" y1="98.9000000000004" x2="152.875000000002" y2="102.075"/>
    <line x1="152.875000000002" y1="102.075" x2="149.700000000002" y2="102.075"/>
    <line x1="149.700000000002" y1="102.075" x2="149.700000000002" y2="105.25"/>
    <line x1="149.700000000002" y1="105.25" x2="152.875000000002" y2="105.25"/>
    <line x1="152.875000000002" y1="105.25" x2="152.875000000002" y2="108.425"/>
    <line x1="152.875000000002" y1="108.425" x2="149.700000000002" y2="108.425"/>
    <line x1="149.700000000002" y1="108.425" x2="149.700000000002" y2="111.6"/>
    <line x1="149.700000000002" y1="111.6" x2="152.875000000002" y2="111.6"/>
    <line x1="152.875000000002" y1="111.6" x2="152.875000000002" y2="114.775"/>
    <line x1="152.875000000002" y1="114.775" x2="149.700000000002" y2="114.775"/>
    <line x1="149.700000000002" y1="114.775" x2="149.700000000002" y2="117.95"/>
    <line x1="149.700000000002" y1="117.95" x2="152.875000000002" y2="117.95"/>
    <line x1="152.875000000002" y1="117.95" x2="152.875000000002" y2="121.125"/>
    <line x1="152.875000000002" y1="121.125" x2="149.700000000002" y2="121.125"/>
    <line x1="149.700000000002" y1="121.125" x2="149.700000000002" y2="124.3"/>
    <line x1="149.700000000002" y1="124.3" x2="152.875000000002" y2="124.3"/>
    <line x1="152.875000000002" y1="124.3" x2="152.875000000002" y2="127.475"/>
    <line x1="152.875000000002" y1="127.475" x2="149.700000000001" y2="127.475"/>
    <line x1="149.700000000001" y1="127.475" x2="149.700000000001" y2="130.65"/>
    <line x1="149.700000000001" y1="130.65" x2="152.875000000001" y2="130.65"/>
    <line x1="152.875000000001" y1="130.65" x2="152.875000000001" y2="133.825"/>
    <line x1="152.875000000001" y1="133.825" x2="149.700000000001" y2="133.825"/>
    <line x1="149.700000000001" y1="133.825" x2="149.700000000001" y2="137.0"/>
    <line x1="149.700000000001" y1="137.0" x2="152.875000000001" y2="137.0"/>
    <line x1="152.875000000001" y1="137.0" x2="152.875000000001" y2="140.175"/>
    <line x1="152.875000000001" y1="140.175" x2="149.700000000001" y2="140.175"/>
    <line x1="149.700000000001" y1="140.175" x2="149.700000000001" y2="143.350000000001"/>
    <line x1="149.700000000001" y1="143.350000000001" x2="152.875000000001" y2="143.35"/>
    <line x1="152.875000000001" y1="143.35" x2="152.875000000001" y2="146.525000000001"/>
    <line x1="152.875000000001" y1="146.525000000001" x2="149.700000000001" y2="146.525000000001"/>
    <line x1="149.700000000001" y1="146.525000000001" x2="149.700000000001" y2="149.7"/>
    <line x1="149.700000000001" y1="149.7" x2="152.875000000001" y2="149.7"/>
    <line x1="152.875000000001" y1="149.7" x2="152.875000000002" y2="152.875"/>
    <line x1="152.875000000002" y1="152.875" x2="149.700000000002" y2="152.875"/>
    <line x1="149.700000000002" y1="152.875" x2="149.700000000002" y2="156.05"/>
    <line x1="149.700000000002" y1="156.05" x2="146.525000000002" y2="156.050000000001"/>
    <line x1="146.525000000002" y1="156.050000000001" x2="146.525000000002" y2="152.875000000001"/>
    <line x1="146.525000000002" y1="152.875000000001" x2="143.350000000002" y2="152.875"/>
    <line x1="143.350000000002" y1="152.875" x2="143.350000000002" y2="156.05"/>
    <line x1="143.350000000002" y1="156.05" x2="140.175000000002" y2="156.050000000001"/>
    <line x1="140.175000000002" y1="156.050000000001" x2="140.175000000002" y2="152.875"/>
    <line x1="140.175000000002" y1="152.875" x2="137.000000000002" y2="152.875000000001"/>
    <line x1="137.000000000002" y1="152.875000000001" x2="137.000000000002" y2="156.05"/>
    <line x1="137.000000000002" y1="156.05" x2="133.825000000002" y2="156.05"/>
    <line x1="133.825000000002" y1="156.05" x2="133.825000000002" y2="152.875"/>
    <line x1="133.825000000002" y1="152.875" x2="130.650000000002" y2="152.875"/>
    <line x1="130.650000000002" y1="152.875" x2="130.650000000002" y2="156.05"/>
    <line x1="130.650000000002" y1="156.05" x2="127.475000000002" y2="156.05"/>
    <line x1="127.475000000002" y1="156.05" x2="127.475000000002" y2="152.875"/>
    <line x1="127.475000000002" y1="152.875" x2="124.300000000002" y2="152.875000000001"/>
    <line x1="124.300000000002" y1="152.875000000001" x2="124.300000000002" y2="156.05"/>
    <line x1="124.300000000002" y1="156.05" x2="121.125000000002" y2="156.05"/>
    <line x1="121.125000000002" y1="156.05" x2="121.125000000002" y2="152.875000000001"/>
    <line x1="121.125000000002" y1="152.875000000001" x2="117.950000000002" y2="152.875000000001"/>
    <line x1="117.950000000002" y1="152.875000000001" x2="117.950000000002" y2="156.050000000001"/>
    <line x1="117.950000000002" y1="156.050000000001" x2="114.775000000002" y2="156.05"/>
    <line x1="114.775000000002" y1="156.05" x2="114.775000000002" y2="152.875"/>
    <line x1="114.775000000002" y1="152.875" x2="111.600000000002" y2="152.875"/>
    <line x1="111.600000000002" y1="152.875" x2="111.600000000002" y2="156.05"/>
    <line x1="111.600000000002" y1="156.05" x2="108.425000000002" y2="156.05"/>
    <line x1="108.425000000002" y1="156.05" x2="108.425000000002" y2="152.875"/>
    <line x1="108.425000000002" y1="152.875" x2="105.250000000002" y2="152.875"/>
    <line x1="105.250000000002" y1="152.875" x2="105.250000000002" y2="156.05"/>
    <line x1="105.250000000002" y1="156.05" x2="102.075000000002" y2="156.05"/>
    <line x1="102.075000000002" y1="156.05" x2="102.075000000002" y2="152.875000000001"/>
    <line x1="102.075000000002" y1="152.875000000001" x2="98.9000000000024" y2="152.875"/>
    <line x1="98.9000000000024" y1="152.875" x2="98.9000000000024" y2="156.05"/>
    <line x1="98.9000000000024" y1="156.05" x2="95.7250000000024" y2="156.05"/>
    <line x1="95.7250000000024" y1="156.05" x2="95.7250000000024" y2="152.875"/>
    <line x1="95.7250000000024" y1="152.875" x2="92.5500000000024" y2="152.875000000001"/>
    <line x1="92.5500000000024" y1="152.875000000001" x2="92.5500000000024" y2="156.05"/>
    <line x1="92.5500000000024" y1="156.05" x2="89.3750000000023" y2="156.05"/>
    <line x1="89.3750000000023" y1="156.05" x2="89.3750000000024" y2="152.875"/>
    <line x1="89.3750000000024" y1="152.875" x2="86.2000000000024" y2="152.875"/>
    <line x1="86.2000000000024" y1="152.875" x2="86.2000000000024" y2="156.05"/>
    <line x1="86.2000000000024" y1="156.05" x2="83.0250000000024" y2="156.05"/>
    <line x1="83.0250000000024" y1="156.05" x2="83.0250000000024" y2="152.875"/>
    <line x1="83.0250000000024" y1="152.875" x2="79.8500000000024" y2="152.875"/>
    <line x1="79.8500000000024" y1="152.875" x2="79.8500000000024" y2="156.05"/>
    <line x1="79.8500000000024" y1="156.05" x2="76.6750000000024" y2="156.05"/>
    <line x1="76.6750000000024" y1="156.05" x2="76.6750000000024" y2="152.875"/>
    <line x1="76.6750000000024" y1="152.875" x2="73.5000000000024" y2="152.875000000001"/>
    <line x1="73.5000000000024" y1="152.875000000001" x2="73.5000000000024" y2="156.05"/>
    <line x1="73.5000000000024" y1="156.05" x2="70.3250000000024" y2="156.05"/>
    <line x1="70.3250000000024" y1="156.05" x2="70.3250000000024" y2="152.875"/>
    <line x1="70.3250000000024" y1="152.875" x2="67.1500000000024" y2="152.875"/>
    <line x1="67.1500000000024" y1="152.875" x2="67.1500000000024" y2="156.05"/>
    <line x1="67.1500000000024" y1="156.05" x2="63.9750000000023" y2="156.05"/>
    <line x1="63.9750000000023" y1="156.05" x2="63.9750000000024" y2="152.875"/>
    <line x1="63.9750000000024" y1="152.875" x2="60.8000000000024" y2="152.875"/>
    <line x1="60.8000000000024" y1="152.875" x2="60.8000000000024" y2="156.05"/>
    <line x1="60.8000000000024" y1="156.05" x2="57.6250000000024" y2="156.05"/>
  </g>
</svg>
