<?xml version="1.0" standalone="no"?>
<!DOCTYPE svg PUBLIC "-//W3C//DTD SVG 1.1//EN" "http://www.w3.org/Graphics/SVG/1.1/DTD/svg11.dtd">
<svg width="223.2mm" height="239.189999999996mm"
 viewBox="0 0 223.2 239.189999999996"
 xmlns="http://www.w3.org/2000/svg" version="1.1"
 xmlns:xlink="http://www.w3.org/1999/xlink">
<desc>Output from Flights of Ideas SVG Sketchup Plugin</desc>

  <g id="face0" fill="none" stroke="rgb(0,0,255)" stroke-width="1" stroke-miterlimit="4" stroke-dasharray="none" stroke-linejoin="round" stroke-linecap="round">
    <line x1="210.025" y1="165.575000000001" x2="210.025" y2="162.400000000001"/>
    <line x1="210.025" y1="162.400000000001" x2="213.2" y2="162.400000000001"/>
    <line x1="213.2" y1="162.400000000001" x2="213.2" y2="159.225000000001"/>
    <line x1="213.2" y1="159.225000000001" x2="210.025" y2="159.225000000001"/>
    <line x1="210.025" y1="159.225000000001" x2="210.025" y2="156.050000000001"/>
    <line x1="210.025" y1="156.050000000001" x2="213.2" y2="156.050000000001"/>
    <line x1="213.2" y1="156.050000000001" x2="213.2" y2="152.875000000001"/>
    <line x1="213.2" y1="152.875000000001" x2="210.025" y2="152.875000000001"/>
    <line x1="210.025" y1="152.875000000001" x2="210.025" y2="149.700000000001"/>
    <line x1="210.025" y1="149.700000000001" x2="213.2" y2="149.700000000001"/>
    <line x1="213.2" y1="149.700000000001" x2="213.2" y2="146.525000000001"/>
    <line x1="213.2" y1="146.525000000001" x2="210.025" y2="146.525000000001"/>
    <line x1="210.025" y1="146.525000000001" x2="210.025" y2="143.350000000001"/>
    <line x1="210.025" y1="143.350000000001" x2="213.2" y2="143.350000000001"/>
    <line x1="213.2" y1="143.350000000001" x2="213.2" y2="140.175000000001"/>
    <line x1="213.2" y1="140.175000000001" x2="210.025" y2="140.175000000001"/>
    <line x1="210.025" y1="140.175000000001" x2="210.025" y2="137.000000000001"/>
    <line x1="210.025" y1="137.000000000001" x2="213.2" y2="137.000000000001"/>
    <line x1="213.2" y1="137.000000000001" x2="213.2" y2="133.825000000001"/>
    <line x1="213.2" y1="133.825000000001" x2="210.025" y2="133.825000000001"/>
    <line x1="210.025" y1="133.825000000001" x2="210.025" y2="130.650000000001"/>
    <line x1="210.025" y1="130.650000000001" x2="213.2" y2="130.650000000001"/>
    <line x1="213.2" y1="130.650000000001" x2="213.2" y2="127.475000000001"/>
    <line x1="213.2" y1="127.475000000001" x2="210.025" y2="127.475000000001"/>
    <line x1="210.025" y1="127.475000000001" x2="210.025" y2="124.300000000001"/>
    <line x1="210.025" y1="124.300000000001" x2="213.2" y2="124.300000000001"/>
    <line x1="213.2" y1="124.300000000001" x2="213.2" y2="121.125000000001"/>
    <line x1="213.2" y1="121.125000000001" x2="210.025" y2="121.125000000001"/>
    <line x1="210.025" y1="121.125000000001" x2="210.025" y2="117.950000000001"/>
    <line x1="210.025" y1="117.950000000001" x2="213.2" y2="117.950000000001"/>
    <line x1="213.2" y1="117.950000000001" x2="213.2" y2="114.775000000001"/>
    <line x1="213.2" y1="114.775000000001" x2="210.025" y2="114.775000000001"/>
    <line x1="210.025" y1="114.775000000001" x2="210.025" y2="111.600000000001"/>
    <line x1="210.025" y1="111.600000000001" x2="213.2" y2="111.600000000001"/>
    <line x1="213.2" y1="111.600000000001" x2="213.2" y2="108.425000000001"/>
    <line x1="213.2" y1="108.425000000001" x2="210.025" y2="108.425000000001"/>
    <line x1="210.025" y1="108.425000000001" x2="210.025" y2="105.250000000001"/>
    <line x1="210.025" y1="105.250000000001" x2="213.2" y2="105.250000000001"/>
    <line x1="213.2" y1="105.250000000001" x2="213.2" y2="102.075000000001"/>
    <line x1="213.2" y1="102.075000000001" x2="210.025" y2="102.075000000001"/>
    <line x1="210.025" y1="102.075000000001" x2="210.025" y2="98.9000000000007"/>
    <line x1="210.025" y1="98.9000000000007" x2="213.2" y2="98.9000000000007"/>
    <line x1="213.2" y1="98.9000000000007" x2="213.2" y2="95.7250000000007"/>
    <line x1="213.2" y1="95.7250000000007" x2="210.025" y2="95.7250000000007"/>
    <line x1="210.025" y1="95.7250000000007" x2="210.025" y2="92.5500000000007"/>
    <line x1="210.025" y1="92.5500000000007" x2="213.2" y2="92.5500000000007"/>
    <line x1="213.2" y1="92.5500000000007" x2="213.2" y2="89.3750000000007"/>
    <line x1="213.2" y1="89.3750000000007" x2="210.025" y2="89.3750000000007"/>
    <line x1="210.025" y1="89.3750000000007" x2="210.025" y2="86.2000000000007"/>
    <line x1="210.025" y1="86.2000000000007" x2="213.2" y2="86.2000000000007"/>
    <line x1="213.2" y1="86.2000000000007" x2="213.2" y2="83.0250000000007"/>
    <line x1="213.2" y1="83.0250000000007" x2="210.025" y2="83.0250000000007"/>
    <line x1="210.025" y1="83.0250000000007" x2="210.025" y2="79.8500000000007"/>
    <line x1="210.025" y1="79.8500000000007" x2="213.2" y2="79.8500000000007"/>
    <line x1="213.2" y1="79.8500000000007" x2="213.2" y2="76.6750000000012"/>
    <line x1="213.2" y1="76.6750000000012" x2="210.025" y2="76.6750000000012"/>
    <line x1="210.025" y1="76.6750000000012" x2="210.025" y2="73.5000000000012"/>
    <line x1="210.025" y1="73.5000000000012" x2="213.2" y2="73.5000000000012"/>
    <line x1="213.2" y1="73.5000000000012" x2="213.2" y2="70.3250000000012"/>
    <line x1="213.2" y1="70.3250000000012" x2="210.025" y2="70.3250000000012"/>
    <line x1="210.025" y1="70.3250000000012" x2="210.025" y2="67.1500000000012"/>
    <line x1="210.025" y1="67.1500000000012" x2="213.2" y2="67.1500000000012"/>
    <line x1="213.2" y1="67.1500000000012" x2="213.2" y2="63.9750000000012"/>
    <line x1="213.2" y1="63.9750000000012" x2="210.025" y2="63.9750000000012"/>
    <line x1="210.025" y1="63.9750000000012" x2="210.025" y2="60.8000000000012"/>
    <line x1="210.025" y1="60.8000000000012" x2="213.2" y2="60.8000000000012"/>
    <line x1="213.2" y1="60.8000000000012" x2="213.2" y2="57.6250000000012"/>
    <line x1="213.2" y1="57.6250000000012" x2="210.025" y2="57.6250000000012"/>
    <line x1="210.025" y1="57.6250000000012" x2="210.025" y2="54.4500000000012"/>
    <line x1="210.025" y1="54.4500000000012" x2="213.2" y2="54.4500000000012"/>
    <line x1="213.2" y1="54.4500000000012" x2="213.2" y2="51.2750000000012"/>
    <line x1="213.2" y1="51.2750000000012" x2="210.025" y2="51.2750000000012"/>
    <line x1="210.025" y1="51.2750000000012" x2="210.025" y2="48.1000000000012"/>
    <line x1="210.025" y1="48.1000000000012" x2="213.2" y2="48.1000000000012"/>
    <line x1="213.2" y1="48.1000000000012" x2="213.2" y2="44.9250000000013"/>
    <line x1="213.2" y1="44.9250000000013" x2="210.025" y2="44.9250000000013"/>
    <line x1="210.025" y1="44.9250000000013" x2="210.025" y2="41.7500000000013"/>
    <line x1="210.025" y1="41.7500000000013" x2="213.2" y2="41.7500000000013"/>
    <line x1="213.2" y1="41.7500000000013" x2="213.2" y2="38.5750000000013"/>
    <line x1="213.2" y1="38.5750000000013" x2="210.025" y2="38.5750000000013"/>
    <line x1="210.025" y1="38.5750000000013" x2="210.025" y2="35.4000000000013"/>
    <line x1="210.025" y1="35.4000000000013" x2="213.2" y2="35.4000000000013"/>
    <line x1="213.2" y1="35.4000000000013" x2="213.2" y2="32.2250000000013"/>
    <line x1="213.2" y1="32.2250000000013" x2="210.025" y2="32.2250000000013"/>
    <line x1="210.025" y1="32.2250000000013" x2="210.025" y2="29.0500000000013"/>
    <line x1="210.025" y1="29.0500000000013" x2="213.2" y2="29.0500000000013"/>
    <line x1="213.2" y1="29.0500000000013" x2="213.2" y2="25.8750000000013"/>
    <line x1="213.2" y1="25.8750000000013" x2="210.025" y2="25.8750000000013"/>
    <line x1="210.025" y1="25.8750000000013" x2="210.025" y2="22.7000000000013"/>
    <line x1="210.025" y1="22.7000000000013" x2="213.2" y2="22.7000000000012"/>
    <line x1="213.2" y1="22.7000000000012" x2="213.2" y2="19.5250000000014"/>
    <line x1="213.2" y1="19.5250000000014" x2="210.025" y2="19.5250000000014"/>
    <line x1="210.025" y1="19.5250000000014" x2="210.025" y2="16.3500000000014"/>
    <line x1="210.025" y1="16.3500000000014" x2="213.2" y2="16.3500000000014"/>
    <line x1="213.2" y1="16.3500000000014" x2="213.2" y2="13.1750000000006"/>
    <line x1="213.2" y1="13.1750000000006" x2="206.85" y2="13.1750000000002"/>
    <line x1="206.85" y1="13.1750000000002" x2="206.849999999999" y2="10.0000000000004"/>
    <line x1="206.849999999999" y1="10.0000000000004" x2="203.675" y2="10.0000000000005"/>
    <line x1="203.675" y1="10.0000000000005" x2="203.675" y2="13.1750000000004"/>
    <line x1="203.675" y1="13.1750000000004" x2="200.5" y2="13.1750000000002"/>
    <line x1="200.5" y1="13.1750000000002" x2="200.5" y2="10.0000000000003"/>
    <line x1="200.5" y1="10.0000000000003" x2="197.325" y2="10.0000000000001"/>
    <line x1="197.325" y1="10.0000000000001" x2="197.325" y2="13.1750000000004"/>
    <line x1="197.325" y1="13.1750000000004" x2="194.15" y2="13.1750000000004"/>
    <line x1="194.15" y1="13.1750000000004" x2="194.15" y2="10.0000000000002"/>
    <line x1="194.15" y1="10.0000000000002" x2="190.975" y2="10.0000000000004"/>
    <line x1="190.975" y1="10.0000000000004" x2="190.974999999999" y2="13.1750000000004"/>
    <line x1="190.974999999999" y1="13.1750000000004" x2="187.8" y2="13.1750000000006"/>
    <line x1="187.8" y1="13.1750000000006" x2="187.8" y2="10.0000000000005"/>
    <line x1="187.8" y1="10.0000000000005" x2="184.625" y2="10.0000000000003"/>
    <line x1="184.625" y1="10.0000000000003" x2="184.625" y2="13.1750000000004"/>
    <line x1="184.625" y1="13.1750000000004" x2="181.45" y2="13.1750000000005"/>
    <line x1="181.45" y1="13.1750000000005" x2="181.45" y2="10.0000000000004"/>
    <line x1="181.45" y1="10.0000000000004" x2="178.275" y2="10.0000000000004"/>
    <line x1="178.275" y1="10.0000000000004" x2="178.275" y2="13.1750000000003"/>
    <line x1="178.275" y1="13.1750000000003" x2="175.1" y2="13.1750000000004"/>
    <line x1="175.1" y1="13.1750000000004" x2="175.1" y2="10.0"/>
    <line x1="175.1" y1="10.0" x2="171.925" y2="10.0000000000005"/>
    <line x1="171.925" y1="10.0000000000005" x2="171.925" y2="13.1750000000004"/>
    <line x1="171.925" y1="13.1750000000004" x2="168.75" y2="13.1750000000004"/>
    <line x1="168.75" y1="13.1750000000004" x2="168.75" y2="10.0000000000002"/>
    <line x1="168.75" y1="10.0000000000002" x2="165.575" y2="10.0000000000004"/>
    <line x1="165.575" y1="10.0000000000004" x2="165.575" y2="13.1750000000004"/>
    <line x1="165.575" y1="13.1750000000004" x2="162.4" y2="13.1750000000004"/>
    <line x1="162.4" y1="13.1750000000004" x2="162.4" y2="10.0000000000004"/>
    <line x1="162.4" y1="10.0000000000004" x2="159.225" y2="10.0000000000004"/>
    <line x1="159.225" y1="10.0000000000004" x2="159.224999999999" y2="13.1750000000006"/>
    <line x1="159.224999999999" y1="13.1750000000006" x2="156.05" y2="13.1750000000006"/>
    <line x1="156.05" y1="13.1750000000006" x2="156.05" y2="10.0000000000007"/>
    <line x1="156.05" y1="10.0000000000007" x2="152.875" y2="10.0000000000004"/>
    <line x1="152.875" y1="10.0000000000004" x2="152.875" y2="13.1750000000002"/>
    <line x1="152.875" y1="13.1750000000002" x2="149.7" y2="13.1750000000004"/>
    <line x1="149.7" y1="13.1750000000004" x2="149.7" y2="10.0000000000005"/>
    <line x1="149.7" y1="10.0000000000005" x2="146.525" y2="10.0000000000006"/>
    <line x1="146.525" y1="10.0000000000006" x2="146.525" y2="13.1750000000006"/>
    <line x1="146.525" y1="13.1750000000006" x2="143.35" y2="13.1750000000004"/>
    <line x1="143.35" y1="13.1750000000004" x2="143.35" y2="10.0000000000005"/>
    <line x1="143.35" y1="10.0000000000005" x2="140.175" y2="10.0000000000003"/>
    <line x1="140.175" y1="10.0000000000003" x2="140.175" y2="13.1750000000006"/>
    <line x1="140.175" y1="13.1750000000006" x2="137.0" y2="13.1750000000006"/>
    <line x1="137.0" y1="13.1750000000006" x2="137.0" y2="10.0000000000004"/>
    <line x1="137.0" y1="10.0000000000004" x2="133.825" y2="10.0000000000006"/>
    <line x1="133.825" y1="10.0000000000006" x2="133.825" y2="13.1750000000006"/>
    <line x1="133.825" y1="13.1750000000006" x2="130.65" y2="13.1750000000008"/>
    <line x1="130.65" y1="13.1750000000008" x2="130.650000000001" y2="10.0000000000007"/>
    <line x1="130.650000000001" y1="10.0000000000007" x2="127.475" y2="10.0000000000005"/>
    <line x1="127.475" y1="10.0000000000005" x2="127.475" y2="13.1750000000006"/>
    <line x1="127.475" y1="13.1750000000006" x2="124.3" y2="13.1750000000007"/>
    <line x1="124.3" y1="13.1750000000007" x2="124.3" y2="10.0000000000005"/>
    <line x1="124.3" y1="10.0000000000005" x2="121.125" y2="10.0000000000006"/>
    <line x1="121.125" y1="10.0000000000006" x2="121.125" y2="13.1750000000004"/>
    <line x1="121.125" y1="13.1750000000004" x2="117.95" y2="13.1750000000006"/>
    <line x1="117.95" y1="13.1750000000006" x2="117.95" y2="10.0000000000002"/>
    <line x1="117.95" y1="10.0000000000002" x2="114.775" y2="10.0000000000007"/>
    <line x1="114.775" y1="10.0000000000007" x2="114.775" y2="13.1750000000006"/>
    <line x1="114.775" y1="13.1750000000006" x2="111.6" y2="13.1750000000005"/>
    <line x1="111.6" y1="13.1750000000005" x2="111.6" y2="10.0000000000004"/>
    <line x1="111.6" y1="10.0000000000004" x2="108.425" y2="10.0000000000005"/>
    <line x1="108.425" y1="10.0000000000005" x2="108.425" y2="13.1750000000006"/>
    <line x1="108.425" y1="13.1750000000006" x2="105.25" y2="13.1750000000006"/>
    <line x1="105.25" y1="13.1750000000006" x2="105.25" y2="10.0000000000005"/>
    <line x1="105.25" y1="10.0000000000005" x2="102.075" y2="10.0000000000007"/>
    <line x1="102.075" y1="10.0000000000007" x2="102.075" y2="13.1750000000004"/>
    <line x1="102.075" y1="13.1750000000004" x2="98.9" y2="13.1750000000006"/>
    <line x1="98.9" y1="13.1750000000006" x2="98.9" y2="10.0000000000007"/>
    <line x1="98.9" y1="10.0000000000007" x2="95.7249999999999" y2="10.0000000000004"/>
    <line x1="95.7249999999999" y1="10.0000000000004" x2="95.7250000000002" y2="13.1750000000006"/>
    <line x1="95.7250000000002" y1="13.1750000000006" x2="92.55" y2="13.1750000000006"/>
    <line x1="92.55" y1="13.1750000000006" x2="92.5500000000004" y2="10.0000000000008"/>
    <line x1="92.5500000000004" y1="10.0000000000008" x2="89.3750000000002" y2="10.0000000000009"/>
    <line x1="89.3750000000002" y1="10.0000000000009" x2="89.3750000000001" y2="13.1750000000005"/>
    <line x1="89.3750000000001" y1="13.1750000000005" x2="86.2000000000002" y2="13.1750000000004"/>
    <line x1="86.2000000000002" y1="13.1750000000004" x2="86.2000000000004" y2="10.0000000000007"/>
    <line x1="86.2000000000004" y1="10.0000000000007" x2="83.0250000000006" y2="10.0000000000007"/>
    <line x1="83.0250000000006" y1="10.0000000000007" x2="83.0249999999999" y2="13.1750000000002"/>
    <line x1="83.0249999999999" y1="13.1750000000002" x2="79.8500000000002" y2="13.1750000000005"/>
    <line x1="79.8500000000002" y1="13.1750000000005" x2="79.8500000000001" y2="10.0000000000005"/>
    <line x1="79.8500000000001" y1="10.0000000000005" x2="76.6749999999998" y2="10.0000000000004"/>
    <line x1="76.6749999999998" y1="10.0000000000004" x2="76.6749999999998" y2="13.1750000000004"/>
    <line x1="76.6749999999998" y1="13.1750000000004" x2="73.5000000000001" y2="13.1750000000005"/>
    <line x1="73.5000000000001" y1="13.1750000000005" x2="73.5000000000001" y2="10.0000000000007"/>
    <line x1="73.5000000000001" y1="10.0000000000007" x2="70.325" y2="10.0000000000005"/>
    <line x1="70.325" y1="10.0000000000005" x2="70.325" y2="13.1750000000005"/>
    <line x1="70.325" y1="13.1750000000005" x2="67.1499999999998" y2="13.1750000000004"/>
    <line x1="67.1499999999998" y1="13.1750000000004" x2="67.1499999999999" y2="10.0000000000006"/>
    <line x1="67.1499999999999" y1="10.0000000000006" x2="63.9749999999998" y2="10.0000000000003"/>
    <line x1="63.9749999999998" y1="10.0000000000003" x2="63.9750000000001" y2="13.1750000000004"/>
    <line x1="63.9750000000001" y1="13.1750000000004" x2="60.8" y2="13.1750000000007"/>
    <line x1="60.8" y1="13.1750000000007" x2="60.8" y2="10.0000000000007"/>
    <line x1="60.8" y1="10.0000000000007" x2="57.6250000000002" y2="10.0000000000005"/>
    <line x1="57.6250000000002" y1="10.0000000000005" x2="57.6249999999997" y2="13.1750000000004"/>
    <line x1="57.6249999999997" y1="13.1750000000004" x2="54.4499999999994" y2="13.1750000000002"/>
    <line x1="54.4499999999994" y1="13.1750000000002" x2="54.4499999999998" y2="10.0000000000003"/>
    <line x1="54.4499999999998" y1="10.0000000000003" x2="51.2750000000001" y2="10.0000000000005"/>
    <line x1="51.2750000000001" y1="10.0000000000005" x2="51.2750000000003" y2="13.1750000000006"/>
    <line x1="51.2750000000003" y1="13.1750000000006" x2="48.1000000000003" y2="13.1750000000004"/>
    <line x1="48.1000000000003" y1="13.1750000000004" x2="48.1000000000002" y2="10.0000000000005"/>
    <line x1="48.1000000000002" y1="10.0000000000005" x2="44.9250000000001" y2="10.0000000000003"/>
    <line x1="44.9250000000001" y1="10.0000000000003" x2="44.9250000000003" y2="13.1750000000007"/>
    <line x1="44.9250000000003" y1="13.1750000000007" x2="41.7500000000001" y2="13.1750000000002"/>
    <line x1="41.7500000000001" y1="13.1750000000002" x2="41.7500000000005" y2="10.0000000000005"/>
    <line x1="41.7500000000005" y1="10.0000000000005" x2="38.5749999999999" y2="10.0000000000002"/>
    <line x1="38.5749999999999" y1="10.0000000000002" x2="38.5749999999999" y2="13.1750000000003"/>
    <line x1="38.5749999999999" y1="13.1750000000003" x2="35.4000000000001" y2="13.1750000000005"/>
    <line x1="35.4000000000001" y1="13.1750000000005" x2="35.4000000000001" y2="10.0000000000006"/>
    <line x1="35.4000000000001" y1="10.0000000000006" x2="32.2250000000001" y2="10.0000000000006"/>
    <line x1="32.2250000000001" y1="10.0000000000006" x2="32.2249999999999" y2="13.1750000000006"/>
    <line x1="32.2249999999999" y1="13.1750000000006" x2="29.0500000000005" y2="13.1750000000007"/>
    <line x1="29.0500000000005" y1="13.1750000000007" x2="29.0500000000001" y2="10.0000000000006"/>
    <line x1="29.0500000000001" y1="10.0000000000006" x2="25.8749999999999" y2="10.0000000000009"/>
    <line x1="25.8749999999999" y1="10.0000000000009" x2="25.8750000000002" y2="13.1750000000006"/>
    <line x1="25.8750000000002" y1="13.1750000000006" x2="22.7000000000001" y2="13.1750000000002"/>
    <line x1="22.7000000000001" y1="13.1750000000002" x2="22.7000000000003" y2="10.0000000000005"/>
    <line x1="22.7000000000003" y1="10.0000000000005" x2="19.5249999999999" y2="10.0000000000005"/>
    <line x1="19.5249999999999" y1="10.0000000000005" x2="19.5249999999999" y2="13.1750000000005"/>
    <line x1="19.5249999999999" y1="13.1750000000005" x2="16.3499999999997" y2="13.1750000000002"/>
    <line x1="16.3499999999997" y1="13.1750000000002" x2="16.3499999999997" y2="10.0000000000003"/>
    <line x1="16.3499999999997" y1="10.0000000000003" x2="10.0000000000001" y2="10.0000000000006"/>
    <line x1="10.0000000000001" y1="10.0000000000006" x2="10.0000000000001" y2="13.1750000000007"/>
    <line x1="10.0000000000001" y1="13.1750000000007" x2="13.1750000000001" y2="13.1750000000005"/>
    <line x1="13.1750000000001" y1="13.1750000000005" x2="13.175" y2="16.3500000000006"/>
    <line x1="13.175" y1="16.3500000000006" x2="10.0000000000001" y2="16.3500000000006"/>
    <line x1="10.0000000000001" y1="16.3500000000006" x2="10.0" y2="19.5250000000007"/>
    <line x1="10.0" y1="19.5250000000007" x2="13.1750000000001" y2="19.5250000000007"/>
    <line x1="13.1750000000001" y1="19.5250000000007" x2="13.175" y2="22.7000000000007"/>
    <line x1="13.175" y1="22.7000000000007" x2="10.0000000000001" y2="22.7000000000006"/>
    <line x1="10.0000000000001" y1="22.7000000000006" x2="10.0000000000001" y2="25.8750000000006"/>
    <line x1="10.0000000000001" y1="25.8750000000006" x2="13.175" y2="25.8750000000006"/>
    <line x1="13.175" y1="25.8750000000006" x2="13.175" y2="29.0500000000006"/>
    <line x1="13.175" y1="29.0500000000006" x2="10.0000000000001" y2="29.0500000000006"/>
    <line x1="10.0000000000001" y1="29.0500000000006" x2="10.0000000000001" y2="32.2250000000006"/>
    <line x1="10.0000000000001" y1="32.2250000000006" x2="13.175" y2="32.2250000000006"/>
    <line x1="13.175" y1="32.2250000000006" x2="13.175" y2="35.4000000000007"/>
    <line x1="13.175" y1="35.4000000000007" x2="10.0" y2="35.4000000000007"/>
    <line x1="10.0" y1="35.4000000000007" x2="10.0000000000001" y2="38.5750000000006"/>
    <line x1="10.0000000000001" y1="38.5750000000006" x2="13.175" y2="38.5750000000007"/>
    <line x1="13.175" y1="38.5750000000007" x2="13.1750000000001" y2="41.7500000000006"/>
    <line x1="13.1750000000001" y1="41.7500000000006" x2="10.0000000000001" y2="41.7500000000006"/>
    <line x1="10.0000000000001" y1="41.7500000000006" x2="10.0" y2="44.9250000000007"/>
    <line x1="10.0" y1="44.9250000000007" x2="13.175" y2="44.9250000000007"/>
    <line x1="13.175" y1="44.9250000000007" x2="13.175" y2="48.1000000000006"/>
    <line x1="13.175" y1="48.1000000000006" x2="10.0000000000001" y2="48.1000000000006"/>
    <line x1="10.0000000000001" y1="48.1000000000006" x2="10.0000000000001" y2="51.2750000000007"/>
    <line x1="10.0000000000001" y1="51.2750000000007" x2="13.175" y2="51.2750000000007"/>
    <line x1="13.175" y1="51.2750000000007" x2="13.175" y2="54.4500000000006"/>
    <line x1="13.175" y1="54.4500000000006" x2="10.0000000000001" y2="54.4500000000006"/>
    <line x1="10.0000000000001" y1="54.4500000000006" x2="10.0" y2="57.6250000000006"/>
    <line x1="10.0" y1="57.6250000000006" x2="13.175" y2="57.6250000000005"/>
    <line x1="13.175" y1="57.6250000000005" x2="13.175" y2="60.8000000000006"/>
    <line x1="13.175" y1="60.8000000000006" x2="10.0" y2="60.8000000000006"/>
    <line x1="10.0" y1="60.8000000000006" x2="10.0000000000001" y2="63.9750000000004"/>
    <line x1="10.0000000000001" y1="63.9750000000004" x2="13.175" y2="63.9750000000006"/>
    <line x1="13.175" y1="63.9750000000006" x2="13.175" y2="67.1500000000006"/>
    <line x1="13.175" y1="67.1500000000006" x2="10.0000000000001" y2="67.1500000000005"/>
    <line x1="10.0000000000001" y1="67.1500000000005" x2="10.0000000000001" y2="70.3250000000004"/>
    <line x1="10.0000000000001" y1="70.3250000000004" x2="13.175" y2="70.3250000000005"/>
    <line x1="13.175" y1="70.3250000000005" x2="13.1750000000001" y2="73.5000000000005"/>
    <line x1="13.1750000000001" y1="73.5000000000005" x2="10.0000000000001" y2="73.5000000000005"/>
    <line x1="10.0000000000001" y1="73.5000000000005" x2="10.0" y2="76.6750000000006"/>
    <line x1="10.0" y1="76.6750000000006" x2="13.175" y2="76.6750000000006"/>
    <line x1="13.175" y1="76.6750000000006" x2="13.175" y2="79.8500000000006"/>
    <line x1="13.175" y1="79.8500000000006" x2="10.0000000000001" y2="79.8500000000005"/>
    <line x1="10.0000000000001" y1="79.8500000000005" x2="10.0000000000001" y2="83.0250000000005"/>
    <line x1="10.0000000000001" y1="83.0250000000005" x2="13.175" y2="83.0250000000006"/>
    <line x1="13.175" y1="83.0250000000006" x2="13.1750000000001" y2="86.2000000000006"/>
    <line x1="13.1750000000001" y1="86.2000000000006" x2="10.0000000000001" y2="86.2000000000006"/>
    <line x1="10.0000000000001" y1="86.2000000000006" x2="10.0000000000001" y2="89.3750000000005"/>
    <line x1="10.0000000000001" y1="89.3750000000005" x2="13.175" y2="89.3750000000006"/>
    <line x1="13.175" y1="89.3750000000006" x2="13.175" y2="92.5500000000006"/>
    <line x1="13.175" y1="92.5500000000006" x2="10.0000000000001" y2="92.5500000000006"/>
    <line x1="10.0000000000001" y1="92.5500000000006" x2="10.0000000000001" y2="95.7250000000004"/>
    <line x1="10.0000000000001" y1="95.7250000000004" x2="13.1750000000001" y2="95.7250000000004"/>
    <line x1="13.1750000000001" y1="95.7250000000004" x2="13.1750000000001" y2="98.9000000000005"/>
    <line x1="13.1750000000001" y1="98.9000000000005" x2="10.0" y2="98.9000000000005"/>
    <line x1="10.0" y1="98.9000000000005" x2="10.0000000000001" y2="102.075000000001"/>
    <line x1="10.0000000000001" y1="102.075000000001" x2="13.175" y2="102.075000000001"/>
    <line x1="13.175" y1="102.075000000001" x2="13.175" y2="105.250000000001"/>
    <line x1="13.175" y1="105.250000000001" x2="10.0000000000001" y2="105.25"/>
    <line x1="10.0000000000001" y1="105.25" x2="10.0000000000001" y2="108.425000000001"/>
    <line x1="10.0000000000001" y1="108.425000000001" x2="13.175" y2="108.425000000001"/>
    <line x1="13.175" y1="108.425000000001" x2="13.175" y2="111.600000000001"/>
    <line x1="13.175" y1="111.600000000001" x2="10.0" y2="111.600000000001"/>
    <line x1="10.0" y1="111.600000000001" x2="10.0" y2="114.775000000001"/>
    <line x1="10.0" y1="114.775000000001" x2="13.175" y2="114.775"/>
    <line x1="13.175" y1="114.775" x2="13.175" y2="117.950000000001"/>
    <line x1="13.175" y1="117.950000000001" x2="10.0000000000001" y2="117.950000000001"/>
    <line x1="10.0000000000001" y1="117.950000000001" x2="10.0000000000001" y2="121.125000000001"/>
    <line x1="10.0000000000001" y1="121.125000000001" x2="13.175" y2="121.125"/>
    <line x1="13.175" y1="121.125" x2="13.175" y2="124.300000000001"/>
    <line x1="13.175" y1="124.300000000001" x2="10.0000000000001" y2="124.3"/>
    <line x1="10.0000000000001" y1="124.3" x2="10.0000000000001" y2="127.475"/>
    <line x1="10.0000000000001" y1="127.475" x2="13.175" y2="127.475000000001"/>
    <line x1="13.175" y1="127.475000000001" x2="13.175" y2="130.650000000001"/>
    <line x1="13.175" y1="130.650000000001" x2="10.0" y2="130.650000000001"/>
    <line x1="10.0" y1="130.650000000001" x2="10.0" y2="133.825000000001"/>
    <line x1="10.0" y1="133.825000000001" x2="13.175" y2="133.825000000001"/>
    <line x1="13.175" y1="133.825000000001" x2="13.1750000000001" y2="137.0"/>
    <line x1="13.1750000000001" y1="137.0" x2="10.0000000000001" y2="137.000000000001"/>
    <line x1="10.0000000000001" y1="137.000000000001" x2="10.0" y2="140.175000000001"/>
    <line x1="10.0" y1="140.175000000001" x2="13.175" y2="140.175"/>
    <line x1="13.175" y1="140.175" x2="13.1750000000001" y2="143.35"/>
    <line x1="13.1750000000001" y1="143.35" x2="10.0" y2="143.350000000001"/>
    <line x1="10.0" y1="143.350000000001" x2="10.0000000000001" y2="146.525000000001"/>
    <line x1="10.0000000000001" y1="146.525000000001" x2="13.175" y2="146.525000000001"/>
    <line x1="13.175" y1="146.525000000001" x2="13.175" y2="149.700000000001"/>
    <line x1="13.175" y1="149.700000000001" x2="10.0000000000001" y2="149.7"/>
    <line x1="10.0000000000001" y1="149.7" x2="10.0000000000001" y2="152.875000000001"/>
    <line x1="10.0000000000001" y1="152.875000000001" x2="13.175" y2="152.875000000001"/>
    <line x1="13.175" y1="152.875000000001" x2="13.175" y2="156.05"/>
    <line x1="13.175" y1="156.05" x2="10.0000000000001" y2="156.05"/>
    <line x1="10.0000000000001" y1="156.05" x2="10.0000000000001" y2="159.225"/>
    <line x1="10.0000000000001" y1="159.225" x2="13.175" y2="159.225"/>
    <line x1="13.175" y1="159.225" x2="13.1750000000001" y2="162.399999999999"/>
    <line x1="13.1750000000001" y1="162.399999999999" x2="10.0" y2="162.400000000001"/>
    <line x1="10.0" y1="162.400000000001" x2="10.0000000000001" y2="165.575000000001"/>
    <line x1="10.0000000000001" y1="165.575000000001" x2="13.175" y2="165.575000000001"/>
    <line x1="13.175" y1="165.575000000001" x2="13.1750000000001" y2="168.750000000002"/>
    <line x1="13.1750000000001" y1="168.750000000002" x2="10.0" y2="168.75"/>
    <line x1="10.0" y1="168.75" x2="10.0000000000001" y2="171.925000000001"/>
    <line x1="10.0000000000001" y1="171.925000000001" x2="13.175" y2="171.925000000001"/>
    <line x1="13.175" y1="171.925000000001" x2="13.175" y2="175.1"/>
    <line x1="13.175" y1="175.1" x2="10.0000000000001" y2="175.100000000001"/>
    <line x1="10.0000000000001" y1="175.100000000001" x2="10.0" y2="178.275"/>
    <line x1="10.0" y1="178.275" x2="13.175" y2="178.275000000001"/>
    <line x1="13.175" y1="178.275000000001" x2="13.175" y2="181.45"/>
    <line x1="13.175" y1="181.45" x2="10.0000000000001" y2="181.450000000001"/>
    <line x1="10.0000000000001" y1="181.450000000001" x2="10.0000000000001" y2="184.625"/>
    <line x1="10.0000000000001" y1="184.625" x2="13.175" y2="184.625"/>
    <line x1="13.175" y1="184.625" x2="13.1750000000001" y2="187.800000000001"/>
    <line x1="13.1750000000001" y1="187.800000000001" x2="10.0" y2="187.8"/>
    <line x1="10.0" y1="187.8" x2="10.0" y2="190.975"/>
    <line x1="10.0" y1="190.975" x2="13.175" y2="190.975000000001"/>
    <line x1="13.175" y1="190.975000000001" x2="13.1750000000001" y2="194.150000000001"/>
    <line x1="13.1750000000001" y1="194.150000000001" x2="10.0000000000001" y2="194.150000000001"/>
    <line x1="10.0000000000001" y1="194.150000000001" x2="10.0" y2="197.325"/>
    <line x1="10.0" y1="197.325" x2="13.175" y2="197.325000000001"/>
    <line x1="13.175" y1="197.325000000001" x2="13.175" y2="200.5"/>
    <line x1="13.175" y1="200.5" x2="10.0000000000001" y2="200.500000000001"/>
    <line x1="10.0000000000001" y1="200.500000000001" x2="10.0000000000001" y2="203.675000000001"/>
    <line x1="10.0000000000001" y1="203.675000000001" x2="13.1750000000001" y2="203.675000000001"/>
    <line x1="13.1750000000001" y1="203.675000000001" x2="13.175" y2="206.850000000001"/>
    <line x1="13.175" y1="206.850000000001" x2="10.0000000000001" y2="206.850000000001"/>
    <line x1="10.0000000000001" y1="206.850000000001" x2="10.0000000000001" y2="210.025000000001"/>
    <line x1="10.0000000000001" y1="210.025000000001" x2="13.175" y2="210.025"/>
    <line x1="13.175" y1="210.025" x2="13.175" y2="213.2"/>
    <line x1="13.175" y1="213.2" x2="10.0000000000001" y2="213.200000000001"/>
    <line x1="10.0000000000001" y1="213.200000000001" x2="10.0000000000001" y2="216.375000000001"/>
    <line x1="10.0000000000001" y1="216.375000000001" x2="13.175" y2="216.375000000001"/>
    <line x1="13.175" y1="216.375000000001" x2="13.175" y2="219.55"/>
    <line x1="13.175" y1="219.55" x2="10.0000000000001" y2="219.550000000001"/>
    <line x1="10.0000000000001" y1="219.550000000001" x2="10.0000000000001" y2="222.725000000001"/>
    <line x1="10.0000000000001" y1="222.725000000001" x2="13.175" y2="222.725000000001"/>
    <line x1="13.175" y1="222.725000000001" x2="13.1750000000001" y2="223.329486793254"/>
    <line x1="13.1750000000001" y1="223.329486793254" x2="13.8082104616253" y2="223.329486793254"/>
    <line x1="13.8082104616253" y1="223.329486793254" x2="39.6832104616296" y2="227.469486793239"/>
    <line x1="39.6832104616296" y1="227.469486793239" x2="39.6832104616297" y2="228.594486793239"/>
    <line x1="39.6832104616297" y1="228.594486793239" x2="41.9332104616292" y2="228.594486793238"/>
    <line x1="41.9332104616292" y1="228.594486793238" x2="41.9332104616169" y2="205.329486793238"/>
    <line x1="41.9332104616169" y1="205.329486793238" x2="43.0582104616163" y2="205.329486793238"/>
    <line x1="43.0582104616163" y1="205.329486793238" x2="43.0582104616153" y2="203.079486793237"/>
    <line x1="43.0582104616153" y1="203.079486793237" x2="37.7707104833409" y2="203.079486840406"/>
    <line x1="37.7707104833409" y1="203.079486840406" x2="37.7707104833356" y2="194.079486840405"/>
    <line x1="37.7707104833356" y1="194.079486840405" x2="33.7207104833359" y2="194.079486840407"/>
    <line x1="33.7207104833359" y1="194.079486840407" x2="33.7207104833409" y2="203.079486840408"/>
    <line x1="33.7207104833409" y1="203.079486840408" x2="30.6832104616155" y2="203.079486793244"/>
    <line x1="30.6832104616155" y1="203.079486793244" x2="30.6832104616003" y2="178.329486793245"/>
    <line x1="30.6832104616003" y1="178.329486793245" x2="58.8082104616045" y2="182.829486793229"/>
    <line x1="58.8082104616045" y1="182.829486793229" x2="60.8" y2="183.605035001632"/>
    <line x1="60.8" y1="183.605035001632" x2="60.8" y2="181.450000000001"/>
    <line x1="60.8" y1="181.450000000001" x2="63.9750000000001" y2="181.450000000001"/>
    <line x1="63.9750000000001" y1="181.450000000001" x2="63.9750000000001" y2="178.275000000001"/>
    <line x1="63.9750000000001" y1="178.275000000001" x2="60.8" y2="178.275000000001"/>
    <line x1="60.8" y1="178.275000000001" x2="60.8" y2="175.100000000001"/>
    <line x1="60.8" y1="175.100000000001" x2="63.9750000000001" y2="175.100000000001"/>
    <line x1="63.9750000000001" y1="175.100000000001" x2="63.9750000000001" y2="171.925000000001"/>
    <line x1="63.9750000000001" y1="171.925000000001" x2="60.8" y2="171.925000000001"/>
    <line x1="60.8" y1="171.925000000001" x2="60.8" y2="168.750000000002"/>
    <line x1="60.8" y1="168.750000000002" x2="63.9750000000001" y2="168.750000000001"/>
    <line x1="63.9750000000001" y1="168.750000000001" x2="63.9750000000001" y2="165.575000000001"/>
    <line x1="63.9750000000001" y1="165.575000000001" x2="60.8" y2="165.575000000001"/>
    <line x1="60.8" y1="165.575000000001" x2="60.8" y2="162.4"/>
    <line x1="60.8" y1="162.4" x2="63.9750000000001" y2="162.400000000001"/>
    <line x1="63.9750000000001" y1="162.400000000001" x2="63.9750000000001" y2="159.225000000001"/>
    <line x1="63.9750000000001" y1="159.225000000001" x2="60.8" y2="159.225000000001"/>
    <line x1="60.8" y1="159.225000000001" x2="60.8" y2="156.050000000001"/>
    <line x1="60.8" y1="156.050000000001" x2="63.9750000000001" y2="156.050000000001"/>
    <line x1="63.9750000000001" y1="156.050000000001" x2="63.9750000000001" y2="152.875000000001"/>
    <line x1="63.9750000000001" y1="152.875000000001" x2="60.8" y2="152.875000000001"/>
    <line x1="60.8" y1="152.875000000001" x2="60.8" y2="149.700000000001"/>
    <line x1="60.8" y1="149.700000000001" x2="63.9750000000001" y2="149.700000000001"/>
    <line x1="63.9750000000001" y1="149.700000000001" x2="63.9750000000001" y2="146.525000000001"/>
    <line x1="63.9750000000001" y1="146.525000000001" x2="60.8" y2="146.525000000001"/>
    <line x1="60.8" y1="146.525000000001" x2="60.8" y2="143.350000000001"/>
    <line x1="60.8" y1="143.350000000001" x2="63.9750000000001" y2="143.350000000001"/>
    <line x1="63.9750000000001" y1="143.350000000001" x2="63.975" y2="140.175000000001"/>
    <line x1="63.975" y1="140.175000000001" x2="60.8" y2="140.175000000001"/>
    <line x1="60.8" y1="140.175000000001" x2="60.8" y2="137.000000000001"/>
    <line x1="60.8" y1="137.000000000001" x2="63.9750000000001" y2="137.000000000001"/>
    <line x1="63.9750000000001" y1="137.000000000001" x2="63.9750000000001" y2="133.825000000001"/>
    <line x1="63.9750000000001" y1="133.825000000001" x2="60.8" y2="133.825000000001"/>
    <line x1="60.8" y1="133.825000000001" x2="60.8" y2="130.650000000001"/>
    <line x1="60.8" y1="130.650000000001" x2="63.9750000000001" y2="130.650000000001"/>
    <line x1="63.9750000000001" y1="130.650000000001" x2="63.9750000000001" y2="127.475000000001"/>
    <line x1="63.9750000000001" y1="127.475000000001" x2="60.8" y2="127.475000000001"/>
    <line x1="60.8" y1="127.475000000001" x2="60.8000000000001" y2="124.300000000001"/>
    <line x1="60.8000000000001" y1="124.300000000001" x2="63.9750000000001" y2="124.300000000001"/>
    <line x1="63.9750000000001" y1="124.300000000001" x2="63.9750000000001" y2="121.125000000001"/>
    <line x1="63.9750000000001" y1="121.125000000001" x2="60.8000000000001" y2="121.125000000001"/>
    <line x1="60.8000000000001" y1="121.125000000001" x2="60.8" y2="117.950000000001"/>
    <line x1="60.8" y1="117.950000000001" x2="63.9750000000001" y2="117.950000000001"/>
    <line x1="63.9750000000001" y1="117.950000000001" x2="63.9750000000001" y2="114.775000000001"/>
    <line x1="63.9750000000001" y1="114.775000000001" x2="60.8" y2="114.775000000001"/>
    <line x1="60.8" y1="114.775000000001" x2="60.8" y2="111.600000000001"/>
    <line x1="60.8" y1="111.600000000001" x2="63.9750000000001" y2="111.600000000001"/>
    <line x1="63.9750000000001" y1="111.600000000001" x2="63.9750000000001" y2="108.425000000001"/>
    <line x1="63.9750000000001" y1="108.425000000001" x2="60.8" y2="108.425000000001"/>
    <line x1="60.8" y1="108.425000000001" x2="60.8" y2="105.250000000001"/>
    <line x1="60.8" y1="105.250000000001" x2="63.975" y2="105.250000000001"/>
    <line x1="63.975" y1="105.250000000001" x2="63.9750000000001" y2="102.075000000001"/>
    <line x1="63.9750000000001" y1="102.075000000001" x2="60.8" y2="102.075000000001"/>
    <line x1="60.8" y1="102.075000000001" x2="60.8" y2="98.9000000000011"/>
    <line x1="60.8" y1="98.9000000000011" x2="63.9750000000001" y2="98.900000000001"/>
    <line x1="63.9750000000001" y1="98.900000000001" x2="63.9750000000001" y2="95.7250000000011"/>
    <line x1="63.9750000000001" y1="95.7250000000011" x2="60.8" y2="95.725000000001"/>
    <line x1="60.8" y1="95.725000000001" x2="60.8000000000001" y2="92.5500000000011"/>
    <line x1="60.8000000000001" y1="92.5500000000011" x2="63.975" y2="92.5500000000011"/>
    <line x1="63.975" y1="92.5500000000011" x2="63.975" y2="89.375000000001"/>
    <line x1="63.975" y1="89.375000000001" x2="60.8" y2="89.375000000001"/>
    <line x1="60.8" y1="89.375000000001" x2="60.8" y2="86.200000000001"/>
    <line x1="60.8" y1="86.200000000001" x2="63.9750000000001" y2="86.2000000000009"/>
    <line x1="63.9750000000001" y1="86.2000000000009" x2="63.975" y2="83.025000000001"/>
    <line x1="63.975" y1="83.025000000001" x2="60.8" y2="83.025000000001"/>
    <line x1="60.8" y1="83.025000000001" x2="60.8" y2="79.850000000001"/>
    <line x1="60.8" y1="79.850000000001" x2="63.975" y2="79.850000000001"/>
    <line x1="63.975" y1="79.850000000001" x2="63.9750000000001" y2="76.675000000001"/>
    <line x1="63.9750000000001" y1="76.675000000001" x2="60.8" y2="76.6750000000011"/>
    <line x1="60.8" y1="76.6750000000011" x2="60.8" y2="73.500000000001"/>
    <line x1="60.8" y1="73.500000000001" x2="63.9750000000001" y2="73.5000000000011"/>
    <line x1="63.9750000000001" y1="73.5000000000011" x2="63.9750000000001" y2="70.325000000001"/>
    <line x1="63.9750000000001" y1="70.325000000001" x2="60.8" y2="70.3250000000011"/>
    <line x1="60.8" y1="70.3250000000011" x2="60.8" y2="67.1500000000011"/>
    <line x1="60.8" y1="67.1500000000011" x2="63.9750000000001" y2="67.1500000000011"/>
    <line x1="63.9750000000001" y1="67.1500000000011" x2="63.9750000000001" y2="63.9750000000011"/>
    <line x1="63.9750000000001" y1="63.9750000000011" x2="60.8" y2="63.9750000000011"/>
    <line x1="60.8" y1="63.9750000000011" x2="60.8" y2="60.8000000000011"/>
    <line x1="60.8" y1="60.8000000000011" x2="63.9750000000001" y2="60.8000000000011"/>
    <line x1="63.9750000000001" y1="60.8000000000011" x2="63.9750000000001" y2="57.6250000000011"/>
    <line x1="63.9750000000001" y1="57.6250000000011" x2="60.8000000000001" y2="57.6250000000011"/>
    <line x1="60.8000000000001" y1="57.6250000000011" x2="60.8" y2="54.4500000000011"/>
    <line x1="60.8" y1="54.4500000000011" x2="63.9750000000001" y2="54.4500000000011"/>
    <line x1="63.9750000000001" y1="54.4500000000011" x2="63.975" y2="51.2750000000011"/>
    <line x1="63.975" y1="51.2750000000011" x2="60.8000000000001" y2="51.275000000001"/>
    <line x1="60.8000000000001" y1="51.275000000001" x2="60.8000000000001" y2="48.100000000001"/>
    <line x1="60.8000000000001" y1="48.100000000001" x2="63.9750000000001" y2="48.1000000000011"/>
    <line x1="63.9750000000001" y1="48.1000000000011" x2="63.9750000000001" y2="44.9250000000007"/>
    <line x1="63.9750000000001" y1="44.9250000000007" x2="67.1499999999998" y2="44.9250000000011"/>
    <line x1="67.1499999999998" y1="44.9250000000011" x2="67.1499999999997" y2="41.7500000000012"/>
    <line x1="67.1499999999997" y1="41.7500000000012" x2="70.3249999999999" y2="41.7500000000008"/>
    <line x1="70.3249999999999" y1="41.7500000000008" x2="70.325" y2="44.9250000000008"/>
    <line x1="70.325" y1="44.9250000000008" x2="73.5000000000003" y2="44.9250000000008"/>
    <line x1="73.5000000000003" y1="44.9250000000008" x2="73.5000000000001" y2="41.7500000000012"/>
    <line x1="73.5000000000001" y1="41.7500000000012" x2="76.6750000000003" y2="41.7500000000008"/>
    <line x1="76.6750000000003" y1="41.7500000000008" x2="76.675" y2="44.9250000000004"/>
    <line x1="76.675" y1="44.9250000000004" x2="79.8500000000001" y2="44.9250000000007"/>
    <line x1="79.8500000000001" y1="44.9250000000007" x2="79.8500000000004" y2="41.7500000000007"/>
    <line x1="79.8500000000004" y1="41.7500000000007" x2="83.0249999999999" y2="41.7500000000008"/>
    <line x1="83.0249999999999" y1="41.7500000000008" x2="83.0250000000001" y2="44.9250000000007"/>
    <line x1="83.0250000000001" y1="44.9250000000007" x2="86.2000000000001" y2="44.9250000000007"/>
    <line x1="86.2000000000001" y1="44.9250000000007" x2="86.2000000000001" y2="41.7500000000008"/>
    <line x1="86.2000000000001" y1="41.7500000000008" x2="89.375" y2="41.7500000000011"/>
    <line x1="89.375" y1="41.7500000000011" x2="89.3749999999999" y2="44.9250000000012"/>
    <line x1="89.3749999999999" y1="44.9250000000012" x2="92.5500000000005" y2="44.9250000000008"/>
    <line x1="92.5500000000005" y1="44.9250000000008" x2="92.5500000000001" y2="41.7500000000012"/>
    <line x1="92.5500000000001" y1="41.7500000000012" x2="95.7250000000002" y2="41.7500000000006"/>
    <line x1="95.7250000000002" y1="41.7500000000006" x2="95.7250000000001" y2="44.925000000001"/>
    <line x1="95.7250000000001" y1="44.925000000001" x2="98.9000000000001" y2="44.9250000000008"/>
    <line x1="98.9000000000001" y1="44.9250000000008" x2="98.9000000000003" y2="41.7500000000009"/>
    <line x1="98.9000000000003" y1="41.7500000000009" x2="102.075" y2="41.7500000000008"/>
    <line x1="102.075" y1="41.7500000000008" x2="102.075" y2="44.9250000000009"/>
    <line x1="102.075" y1="44.9250000000009" x2="105.25" y2="44.925000000001"/>
    <line x1="105.25" y1="44.925000000001" x2="105.249999999999" y2="41.7500000000012"/>
    <line x1="105.249999999999" y1="41.7500000000012" x2="108.425" y2="41.750000000001"/>
    <line x1="108.425" y1="41.750000000001" x2="108.425" y2="44.9250000000008"/>
    <line x1="108.425" y1="44.9250000000008" x2="111.6" y2="44.9250000000006"/>
    <line x1="111.6" y1="44.9250000000006" x2="111.6" y2="41.7500000000006"/>
    <line x1="111.6" y1="41.7500000000006" x2="114.775" y2="41.750000000001"/>
    <line x1="114.775" y1="41.750000000001" x2="114.775" y2="44.925000000001"/>
    <line x1="114.775" y1="44.925000000001" x2="117.95" y2="44.9250000000008"/>
    <line x1="117.95" y1="44.9250000000008" x2="117.95" y2="41.750000000001"/>
    <line x1="117.95" y1="41.750000000001" x2="121.125" y2="41.7500000000008"/>
    <line x1="121.125" y1="41.7500000000008" x2="121.125" y2="44.9250000000008"/>
    <line x1="121.125" y1="44.9250000000008" x2="124.3" y2="44.9250000000006"/>
    <line x1="124.3" y1="44.9250000000006" x2="124.3" y2="41.7500000000009"/>
    <line x1="124.3" y1="41.7500000000009" x2="127.475" y2="41.7500000000009"/>
    <line x1="127.475" y1="41.7500000000009" x2="127.475" y2="44.9250000000009"/>
    <line x1="127.475" y1="44.9250000000009" x2="130.65" y2="44.9250000000008"/>
    <line x1="130.65" y1="44.9250000000008" x2="130.65" y2="41.7500000000008"/>
    <line x1="130.65" y1="41.7500000000008" x2="133.825" y2="41.7500000000011"/>
    <line x1="133.825" y1="41.7500000000011" x2="133.825000000001" y2="44.9250000000006"/>
    <line x1="133.825000000001" y1="44.9250000000006" x2="137.0" y2="44.9250000000007"/>
    <line x1="137.0" y1="44.9250000000007" x2="137.0" y2="41.750000000001"/>
    <line x1="137.0" y1="41.750000000001" x2="140.175" y2="41.7500000000008"/>
    <line x1="140.175" y1="41.7500000000008" x2="140.175" y2="44.9250000000005"/>
    <line x1="140.175" y1="44.9250000000005" x2="143.35" y2="44.9250000000006"/>
    <line x1="143.35" y1="44.9250000000006" x2="143.35" y2="41.7500000000007"/>
    <line x1="143.35" y1="41.7500000000007" x2="146.525" y2="41.7500000000007"/>
    <line x1="146.525" y1="41.7500000000007" x2="146.525" y2="44.925000000001"/>
    <line x1="146.525" y1="44.925000000001" x2="149.7" y2="44.9250000000006"/>
    <line x1="149.7" y1="44.9250000000006" x2="149.7" y2="41.7500000000008"/>
    <line x1="149.7" y1="41.7500000000008" x2="152.875" y2="41.750000000001"/>
    <line x1="152.875" y1="41.750000000001" x2="152.875" y2="44.9250000000006"/>
    <line x1="152.875" y1="44.9250000000006" x2="156.05" y2="44.9250000000008"/>
    <line x1="156.05" y1="44.9250000000008" x2="156.05" y2="41.7500000000008"/>
    <line x1="156.05" y1="41.7500000000008" x2="159.225" y2="41.7500000000008"/>
    <line x1="159.225" y1="41.7500000000008" x2="159.225" y2="44.9250000000008"/>
    <line x1="159.225" y1="44.9250000000008" x2="162.4" y2="44.925000000001"/>
    <line x1="162.4" y1="44.925000000001" x2="162.4" y2="48.100000000001"/>
    <line x1="162.4" y1="48.100000000001" x2="159.225" y2="48.100000000001"/>
    <line x1="159.225" y1="48.100000000001" x2="159.225" y2="51.275000000001"/>
    <line x1="159.225" y1="51.275000000001" x2="162.4" y2="51.275000000001"/>
    <line x1="162.4" y1="51.275000000001" x2="162.4" y2="54.450000000001"/>
    <line x1="162.4" y1="54.450000000001" x2="159.225" y2="54.450000000001"/>
    <line x1="159.225" y1="54.450000000001" x2="159.225" y2="57.625000000001"/>
    <line x1="159.225" y1="57.625000000001" x2="162.4" y2="57.625000000001"/>
    <line x1="162.4" y1="57.625000000001" x2="162.4" y2="60.800000000001"/>
    <line x1="162.4" y1="60.800000000001" x2="159.225" y2="60.800000000001"/>
    <line x1="159.225" y1="60.800000000001" x2="159.225" y2="63.975000000001"/>
    <line x1="159.225" y1="63.975000000001" x2="162.4" y2="63.975000000001"/>
    <line x1="162.4" y1="63.975000000001" x2="162.4" y2="67.150000000001"/>
    <line x1="162.4" y1="67.150000000001" x2="159.225" y2="67.150000000001"/>
    <line x1="159.225" y1="67.150000000001" x2="159.225" y2="70.325000000001"/>
    <line x1="159.225" y1="70.325000000001" x2="162.4" y2="70.325000000001"/>
    <line x1="162.4" y1="70.325000000001" x2="162.4" y2="73.500000000001"/>
    <line x1="162.4" y1="73.500000000001" x2="159.225" y2="73.500000000001"/>
    <line x1="159.225" y1="73.500000000001" x2="159.225" y2="76.675000000001"/>
    <line x1="159.225" y1="76.675000000001" x2="162.4" y2="76.675000000001"/>
    <line x1="162.4" y1="76.675000000001" x2="162.4" y2="79.850000000001"/>
    <line x1="162.4" y1="79.850000000001" x2="159.225" y2="79.850000000001"/>
    <line x1="159.225" y1="79.850000000001" x2="159.225" y2="83.025000000001"/>
    <line x1="159.225" y1="83.025000000001" x2="162.4" y2="83.025000000001"/>
    <line x1="162.4" y1="83.025000000001" x2="162.4" y2="86.200000000001"/>
    <line x1="162.4" y1="86.200000000001" x2="159.225" y2="86.200000000001"/>
    <line x1="159.225" y1="86.200000000001" x2="159.225" y2="89.3750000000009"/>
    <line x1="159.225" y1="89.3750000000009" x2="162.4" y2="89.3750000000009"/>
    <line x1="162.4" y1="89.3750000000009" x2="162.4" y2="92.5500000000009"/>
    <line x1="162.4" y1="92.5500000000009" x2="159.225" y2="92.5500000000009"/>
    <line x1="159.225" y1="92.5500000000009" x2="159.225" y2="95.7250000000009"/>
    <line x1="159.225" y1="95.7250000000009" x2="162.4" y2="95.7250000000009"/>
    <line x1="162.4" y1="95.7250000000009" x2="162.4" y2="98.9000000000009"/>
    <line x1="162.4" y1="98.9000000000009" x2="159.225" y2="98.9000000000009"/>
    <line x1="159.225" y1="98.9000000000009" x2="159.225" y2="102.075000000001"/>
    <line x1="159.225" y1="102.075000000001" x2="162.4" y2="102.075000000001"/>
    <line x1="162.4" y1="102.075000000001" x2="162.4" y2="105.250000000001"/>
    <line x1="162.4" y1="105.250000000001" x2="159.225" y2="105.250000000001"/>
    <line x1="159.225" y1="105.250000000001" x2="159.225" y2="108.425000000001"/>
    <line x1="159.225" y1="108.425000000001" x2="162.4" y2="108.425000000001"/>
    <line x1="162.4" y1="108.425000000001" x2="162.4" y2="111.600000000001"/>
    <line x1="162.4" y1="111.600000000001" x2="159.225" y2="111.600000000001"/>
    <line x1="159.225" y1="111.600000000001" x2="159.225" y2="114.775000000001"/>
    <line x1="159.225" y1="114.775000000001" x2="162.4" y2="114.775000000001"/>
    <line x1="162.4" y1="114.775000000001" x2="162.4" y2="117.950000000001"/>
    <line x1="162.4" y1="117.950000000001" x2="159.225" y2="117.950000000001"/>
    <line x1="159.225" y1="117.950000000001" x2="159.225" y2="121.125000000001"/>
    <line x1="159.225" y1="121.125000000001" x2="162.4" y2="121.125000000001"/>
    <line x1="162.4" y1="121.125000000001" x2="162.4" y2="124.300000000001"/>
    <line x1="162.4" y1="124.300000000001" x2="159.225" y2="124.300000000001"/>
    <line x1="159.225" y1="124.300000000001" x2="159.225" y2="127.475000000001"/>
    <line x1="159.225" y1="127.475000000001" x2="162.4" y2="127.475000000001"/>
    <line x1="162.4" y1="127.475000000001" x2="162.4" y2="130.650000000001"/>
    <line x1="162.4" y1="130.650000000001" x2="159.225" y2="130.650000000001"/>
    <line x1="159.225" y1="130.650000000001" x2="159.225" y2="133.825000000001"/>
    <line x1="159.225" y1="133.825000000001" x2="162.4" y2="133.825000000001"/>
    <line x1="162.4" y1="133.825000000001" x2="162.4" y2="137.000000000001"/>
    <line x1="162.4" y1="137.000000000001" x2="159.225" y2="137.000000000001"/>
    <line x1="159.225" y1="137.000000000001" x2="159.225" y2="140.175000000001"/>
    <line x1="159.225" y1="140.175000000001" x2="162.4" y2="140.175000000001"/>
    <line x1="162.4" y1="140.175000000001" x2="162.4" y2="143.350000000001"/>
    <line x1="162.4" y1="143.350000000001" x2="159.225" y2="143.350000000001"/>
    <line x1="159.225" y1="143.350000000001" x2="159.225" y2="146.525000000001"/>
    <line x1="159.225" y1="146.525000000001" x2="162.4" y2="146.525000000001"/>
    <line x1="162.4" y1="146.525000000001" x2="162.4" y2="149.700000000001"/>
    <line x1="162.4" y1="149.700000000001" x2="159.225" y2="149.700000000001"/>
    <line x1="159.225" y1="149.700000000001" x2="159.225" y2="152.875000000001"/>
    <line x1="159.225" y1="152.875000000001" x2="162.4" y2="152.875000000001"/>
    <line x1="162.4" y1="152.875000000001" x2="162.4" y2="156.050000000001"/>
    <line x1="162.4" y1="156.050000000001" x2="159.225" y2="156.050000000001"/>
    <line x1="159.225" y1="156.050000000001" x2="159.225" y2="159.225000000001"/>
    <line x1="159.225" y1="159.225000000001" x2="162.4" y2="159.225000000001"/>
    <line x1="162.4" y1="159.225000000001" x2="162.4" y2="162.400000000001"/>
    <line x1="162.4" y1="162.400000000001" x2="159.225" y2="162.400000000001"/>
    <line x1="159.225" y1="162.400000000001" x2="159.225" y2="165.575000000001"/>
    <line x1="159.225" y1="165.575000000001" x2="162.4" y2="165.575000000001"/>
    <line x1="162.4" y1="165.575000000001" x2="162.4" y2="168.750000000001"/>
    <line x1="162.4" y1="168.750000000001" x2="159.225" y2="168.750000000001"/>
    <line x1="159.225" y1="168.750000000001" x2="159.225" y2="171.925000000001"/>
    <line x1="159.225" y1="171.925000000001" x2="162.4" y2="171.925000000001"/>
    <line x1="162.4" y1="171.925000000001" x2="162.4" y2="175.100000000001"/>
    <line x1="162.4" y1="175.100000000001" x2="159.225" y2="175.100000000001"/>
    <line x1="159.225" y1="175.100000000001" x2="159.225" y2="178.275000000001"/>
    <line x1="159.225" y1="178.275000000001" x2="162.4" y2="178.275000000001"/>
    <line x1="162.4" y1="178.275000000001" x2="162.4" y2="181.450000000001"/>
    <line x1="162.4" y1="181.450000000001" x2="159.225" y2="181.450000000001"/>
    <line x1="159.225" y1="181.450000000001" x2="159.225" y2="184.625000000001"/>
    <line x1="159.225" y1="184.625000000001" x2="162.4" y2="184.625000000001"/>
    <line x1="162.4" y1="184.625000000001" x2="162.4" y2="187.800000000001"/>
    <line x1="162.4" y1="187.800000000001" x2="159.225" y2="187.800000000001"/>
    <line x1="159.225" y1="187.800000000001" x2="159.225" y2="190.975000000001"/>
    <line x1="159.225" y1="190.975000000001" x2="162.4" y2="190.975000000001"/>
    <line x1="162.4" y1="190.975000000001" x2="162.4" y2="194.150000000001"/>
    <line x1="162.4" y1="194.150000000001" x2="159.225" y2="194.150000000001"/>
    <line x1="159.225" y1="194.150000000001" x2="159.225" y2="197.325000000001"/>
    <line x1="159.225" y1="197.325000000001" x2="162.4" y2="197.325000000001"/>
    <line x1="162.4" y1="197.325000000001" x2="162.4" y2="200.500000000001"/>
    <line x1="162.4" y1="200.500000000001" x2="159.225" y2="200.500000000001"/>
    <line x1="159.225" y1="200.500000000001" x2="159.225" y2="203.675000000001"/>
    <line x1="159.225" y1="203.675000000001" x2="162.4" y2="203.675000000001"/>
    <line x1="162.4" y1="203.675000000001" x2="162.4" y2="206.850000000001"/>
    <line x1="162.4" y1="206.850000000001" x2="159.225" y2="206.850000000001"/>
    <line x1="159.225" y1="206.850000000001" x2="159.225" y2="210.025000000001"/>
    <line x1="159.225" y1="210.025000000001" x2="162.4" y2="210.025000000001"/>
    <line x1="162.4" y1="210.025000000001" x2="162.4" y2="213.200000000001"/>
    <line x1="162.4" y1="213.200000000001" x2="159.225" y2="213.200000000001"/>
    <line x1="159.225" y1="213.200000000001" x2="159.225" y2="216.375000000001"/>
    <line x1="159.225" y1="216.375000000001" x2="162.4" y2="216.375000000001"/>
    <line x1="162.4" y1="216.375000000001" x2="162.4" y2="219.550000000001"/>
    <line x1="162.4" y1="219.550000000001" x2="159.225" y2="219.550000000001"/>
    <line x1="159.225" y1="219.550000000001" x2="159.225" y2="222.725000000001"/>
    <line x1="159.225" y1="222.725000000001" x2="162.4" y2="222.725000000001"/>
    <line x1="162.4" y1="222.725000000001" x2="163.550618539047" y2="223.925000000011"/>
    <line x1="163.550618539047" y1="223.925000000011" x2="189.425618539052" y2="228.064999999996"/>
    <line x1="189.425618539052" y1="228.064999999996" x2="189.425618539052" y2="229.189999999996"/>
    <line x1="189.425618539052" y1="229.189999999996" x2="191.675618539051" y2="229.189999999995"/>
    <line x1="191.675618539051" y1="229.189999999995" x2="191.675618539039" y2="205.924999999995"/>
    <line x1="191.675618539039" y1="205.924999999995" x2="192.800618539038" y2="205.924999999995"/>
    <line x1="192.800618539038" y1="205.924999999995" x2="192.800618539038" y2="203.674999999994"/>
    <line x1="192.800618539038" y1="203.674999999994" x2="187.513118560763" y2="203.675000047163"/>
    <line x1="187.513118560763" y1="203.675000047163" x2="187.513118560758" y2="194.675000047162"/>
    <line x1="187.513118560758" y1="194.675000047162" x2="183.463118560758" y2="194.675000047164"/>
    <line x1="183.463118560758" y1="194.675000047164" x2="183.463118560763" y2="203.675000047165"/>
    <line x1="183.463118560763" y1="203.675000047165" x2="180.425618539038" y2="203.675000000001"/>
    <line x1="180.425618539038" y1="203.675000000001" x2="180.425618539022" y2="178.925000000002"/>
    <line x1="180.425618539022" y1="178.925000000002" x2="208.550618539027" y2="183.424999999986"/>
    <line x1="208.550618539027" y1="183.424999999986" x2="210.025" y2="184.625000000001"/>
    <line x1="210.025" y1="184.625000000001" x2="210.025" y2="181.450000000001"/>
    <line x1="210.025" y1="181.450000000001" x2="213.2" y2="181.450000000001"/>
    <line x1="213.2" y1="181.450000000001" x2="213.2" y2="178.275000000001"/>
    <line x1="213.2" y1="178.275000000001" x2="210.025" y2="178.275000000001"/>
    <line x1="210.025" y1="178.275000000001" x2="210.025" y2="175.100000000001"/>
    <line x1="210.025" y1="175.100000000001" x2="213.2" y2="175.100000000001"/>
    <line x1="213.2" y1="175.100000000001" x2="213.2" y2="171.925000000001"/>
    <line x1="213.2" y1="171.925000000001" x2="210.025" y2="171.925000000001"/>
    <line x1="210.025" y1="171.925000000001" x2="210.025" y2="168.750000000001"/>
    <line x1="210.025" y1="168.750000000001" x2="213.2" y2="168.750000000001"/>
    <line x1="213.2" y1="168.750000000001" x2="213.2" y2="165.575000000001"/>
    <line x1="213.2" y1="165.575000000001" x2="210.025" y2="165.575000000001"/>
    <line x1="48.1" y1="16.3500000000003" x2="51.2749999999999" y2="16.3500000000004"/>
    <line x1="51.2749999999999" y1="16.3500000000004" x2="51.2750000000001" y2="41.7500000000004"/>
    <line x1="51.2750000000001" y1="41.7500000000004" x2="48.0999999999999" y2="41.7500000000004"/>
    <line x1="48.0999999999999" y1="41.7500000000004" x2="48.1" y2="16.3500000000003"/>
    <line x1="171.925" y1="16.3500000000004" x2="175.1" y2="16.3500000000004"/>
    <line x1="175.1" y1="16.3500000000004" x2="175.1" y2="41.7500000000004"/>
    <line x1="175.1" y1="41.7500000000004" x2="171.925" y2="41.7500000000004"/>
    <line x1="171.925" y1="41.7500000000004" x2="171.925" y2="16.3500000000004"/>
    <line x1="16.3500000000001" y1="165.575000000001" x2="16.35" y2="162.400000000003"/>
    <line x1="16.35" y1="162.400000000003" x2="41.7500000000001" y2="162.400000000001"/>
    <line x1="41.7500000000001" y1="162.400000000001" x2="41.7500000000001" y2="165.575000000001"/>
    <line x1="41.7500000000001" y1="165.575000000001" x2="16.3500000000001" y2="165.575000000001"/>
    <line x1="16.3500000000001" y1="114.775" x2="16.3500000000001" y2="111.6"/>
    <line x1="16.3500000000001" y1="111.6" x2="41.75" y2="111.600000000001"/>
    <line x1="41.75" y1="111.600000000001" x2="41.75" y2="114.775"/>
    <line x1="41.75" y1="114.775" x2="16.3500000000001" y2="114.775"/>
    <line x1="16.3500000000001" y1="63.9750000000005" x2="16.35" y2="60.8000000000006"/>
    <line x1="16.35" y1="60.8000000000006" x2="41.75" y2="60.8000000000006"/>
    <line x1="41.75" y1="60.8000000000006" x2="41.7500000000001" y2="63.9750000000005"/>
    <line x1="41.7500000000001" y1="63.9750000000005" x2="16.3500000000001" y2="63.9750000000005"/>
    <line x1="206.85" y1="60.8000000000012" x2="206.85" y2="63.9750000000012"/>
    <line x1="206.85" y1="63.9750000000012" x2="181.45" y2="63.9750000000012"/>
    <line x1="181.45" y1="63.9750000000012" x2="181.45" y2="60.8000000000012"/>
    <line x1="181.45" y1="60.8000000000012" x2="206.85" y2="60.8000000000012"/>
    <line x1="206.85" y1="111.600000000001" x2="206.85" y2="114.775000000001"/>
    <line x1="206.85" y1="114.775000000001" x2="181.45" y2="114.775000000001"/>
    <line x1="181.45" y1="114.775000000001" x2="181.45" y2="111.600000000001"/>
    <line x1="181.45" y1="111.600000000001" x2="206.85" y2="111.600000000001"/>
    <line x1="200.568197611921" y1="139.127106576936" x2="198.543197611921" y2="139.127106576937"/>
    <line x1="198.543197611921" y1="139.127106576937" x2="198.54319761192" y2="137.102106576936"/>
    <line x1="198.54319761192" y1="137.102106576936" x2="200.568197611919" y2="137.102106576936"/>
    <line x1="200.568197611919" y1="137.102106576936" x2="200.568197611921" y2="139.127106576936"/>
    <line x1="171.543197611924" y1="146.102106576953" x2="173.568197611924" y2="146.10210657695"/>
    <line x1="173.568197611924" y1="146.10210657695" x2="173.568197611925" y2="148.12710657695"/>
    <line x1="173.568197611925" y1="148.12710657695" x2="171.543197611925" y2="148.127106576953"/>
    <line x1="171.543197611925" y1="148.127106576953" x2="171.543197611924" y2="146.102106576953"/>
    <line x1="200.568197611925" y1="148.127106576936" x2="198.543197611926" y2="148.127106576937"/>
    <line x1="198.543197611926" y1="148.127106576937" x2="198.543197611925" y2="146.102106576936"/>
    <line x1="198.543197611925" y1="146.102106576936" x2="200.568197611924" y2="146.102106576936"/>
    <line x1="200.568197611924" y1="146.102106576936" x2="200.568197611925" y2="148.127106576936"/>
    <line x1="185.043197611925" y1="148.127106576945" x2="185.043197611924" y2="146.102106576945"/>
    <line x1="185.043197611924" y1="146.102106576945" x2="187.068197611925" y2="146.102106576944"/>
    <line x1="187.068197611925" y1="146.102106576944" x2="187.068197611926" y2="148.127106576944"/>
    <line x1="187.068197611926" y1="148.127106576944" x2="185.043197611925" y2="148.127106576945"/>
    <line x1="173.568197611918" y1="137.10210657695" x2="173.56819761192" y2="139.12710657695"/>
    <line x1="173.56819761192" y1="139.12710657695" x2="171.54319761192" y2="139.127106576953"/>
    <line x1="171.54319761192" y1="139.127106576953" x2="171.543197611919" y2="137.102106576953"/>
    <line x1="171.543197611919" y1="137.102106576953" x2="173.568197611918" y2="137.10210657695"/>
    <line x1="187.068197611921" y1="139.127106576944" x2="185.04319761192" y2="139.127106576945"/>
    <line x1="185.04319761192" y1="139.127106576945" x2="185.043197611919" y2="137.102106576945"/>
    <line x1="185.043197611919" y1="137.102106576945" x2="187.068197611919" y2="137.102106576944"/>
    <line x1="187.068197611919" y1="137.102106576944" x2="187.068197611921" y2="139.127106576944"/>
    <line x1="51.1645523796639" y1="137.116646102552" x2="51.1645523796654" y2="139.141646102552"/>
    <line x1="51.1645523796654" y1="139.141646102552" x2="49.1395523796657" y2="139.141646102553"/>
    <line x1="49.1395523796657" y1="139.141646102553" x2="49.1395523796646" y2="137.116646102552"/>
    <line x1="49.1395523796646" y1="137.116646102552" x2="51.1645523796639" y2="137.116646102552"/>
    <line x1="22.139552379665" y1="139.141646102569" x2="22.1395523796637" y2="137.116646102569"/>
    <line x1="22.1395523796637" y1="137.116646102569" x2="24.1645523796632" y2="137.116646102566"/>
    <line x1="24.1645523796632" y1="137.116646102566" x2="24.1645523796647" y2="139.141646102566"/>
    <line x1="24.1645523796647" y1="139.141646102566" x2="22.139552379665" y2="139.141646102569"/>
    <line x1="22.1395523796691" y1="146.116646102568" x2="24.1645523796685" y2="146.116646102566"/>
    <line x1="24.1645523796685" y1="146.116646102566" x2="24.1645523796697" y2="148.141646102566"/>
    <line x1="24.1645523796697" y1="148.141646102566" x2="22.1395523796702" y2="148.141646102569"/>
    <line x1="22.1395523796702" y1="148.141646102569" x2="22.1395523796691" y2="146.116646102568"/>
    <line x1="51.1645523796701" y1="148.141646102552" x2="49.1395523796705" y2="148.141646102552"/>
    <line x1="49.1395523796705" y1="148.141646102552" x2="49.1395523796695" y2="146.116646102552"/>
    <line x1="49.1395523796695" y1="146.116646102552" x2="51.1645523796692" y2="146.116646102552"/>
    <line x1="51.1645523796692" y1="146.116646102552" x2="51.1645523796701" y2="148.141646102552"/>
    <line x1="35.6395523796698" y1="148.14164610256" x2="35.6395523796685" y2="146.11664610256"/>
    <line x1="35.6395523796685" y1="146.11664610256" x2="37.6645523796696" y2="146.116646102559"/>
    <line x1="37.6645523796696" y1="146.116646102559" x2="37.6645523796704" y2="148.141646102559"/>
    <line x1="37.6645523796704" y1="148.141646102559" x2="35.6395523796698" y2="148.14164610256"/>
    <line x1="37.6645523796641" y1="137.116646102559" x2="37.6645523796655" y2="139.14164610256"/>
    <line x1="37.6645523796655" y1="139.14164610256" x2="35.639552379665" y2="139.141646102561"/>
    <line x1="35.639552379665" y1="139.141646102561" x2="35.6395523796635" y2="137.11664610256"/>
    <line x1="35.6395523796635" y1="137.11664610256" x2="37.6645523796641" y2="137.116646102559"/>
    <line x1="206.85" y1="165.575000000001" x2="181.45" y2="165.575000000001"/>
    <line x1="181.45" y1="165.575000000001" x2="181.45" y2="162.400000000001"/>
    <line x1="181.45" y1="162.400000000001" x2="206.85" y2="162.400000000001"/>
    <line x1="206.85" y1="162.400000000001" x2="206.85" y2="165.575000000001"/>
  </g>
</svg>
