<?xml version="1.0" standalone="no"?>
<!DOCTYPE svg PUBLIC "-//W3C//DTD SVG 1.1//EN" "http://www.w3.org/Graphics/SVG/1.1/DTD/svg11.dtd">
<svg width="223.2mm" height="239.020513206756mm"
 viewBox="0 0 223.2 239.020513206756"
 xmlns="http://www.w3.org/2000/svg" version="1.1"
 xmlns:xlink="http://www.w3.org/1999/xlink">
<desc>Output from Flights of Ideas SVG Sketchup Plugin</desc>

  <g id="face0" fill="none" stroke="rgb(0,0,255)" stroke-width="1" stroke-miterlimit="4" stroke-dasharray="none" stroke-linejoin="round" stroke-linecap="round">
    <line x1="213.2" y1="200.445513206756" x2="210.025" y2="200.445513206756"/>
    <line x1="210.025" y1="200.445513206756" x2="210.025" y2="197.270513206756"/>
    <line x1="210.025" y1="197.270513206756" x2="213.2" y2="197.270513206756"/>
    <line x1="213.2" y1="197.270513206756" x2="213.2" y2="194.095513206756"/>
    <line x1="213.2" y1="194.095513206756" x2="210.025" y2="194.095513206756"/>
    <line x1="210.025" y1="194.095513206756" x2="210.025" y2="190.920513206756"/>
    <line x1="210.025" y1="190.920513206756" x2="213.2" y2="190.920513206756"/>
    <line x1="213.2" y1="190.920513206756" x2="213.2" y2="187.745513206756"/>
    <line x1="213.2" y1="187.745513206756" x2="210.025" y2="187.745513206756"/>
    <line x1="210.025" y1="187.745513206756" x2="210.025" y2="184.570513206756"/>
    <line x1="210.025" y1="184.570513206756" x2="213.2" y2="184.570513206756"/>
    <line x1="213.2" y1="184.570513206756" x2="213.2" y2="181.395513206756"/>
    <line x1="213.2" y1="181.395513206756" x2="210.025" y2="181.395513206756"/>
    <line x1="210.025" y1="181.395513206756" x2="210.025" y2="178.220513206756"/>
    <line x1="210.025" y1="178.220513206756" x2="213.2" y2="178.220513206756"/>
    <line x1="213.2" y1="178.220513206756" x2="213.2" y2="175.045513206756"/>
    <line x1="213.2" y1="175.045513206756" x2="210.025" y2="175.045513206756"/>
    <line x1="210.025" y1="175.045513206756" x2="210.025" y2="171.870513206756"/>
    <line x1="210.025" y1="171.870513206756" x2="213.2" y2="171.870513206756"/>
    <line x1="213.2" y1="171.870513206756" x2="213.2" y2="168.695513206756"/>
    <line x1="213.2" y1="168.695513206756" x2="210.025" y2="168.695513206756"/>
    <line x1="210.025" y1="168.695513206756" x2="210.025" y2="165.520513206756"/>
    <line x1="210.025" y1="165.520513206756" x2="213.2" y2="165.520513206756"/>
    <line x1="213.2" y1="165.520513206756" x2="213.2" y2="162.345513206756"/>
    <line x1="213.2" y1="162.345513206756" x2="210.025" y2="162.345513206756"/>
    <line x1="210.025" y1="162.345513206756" x2="210.025" y2="159.170513206756"/>
    <line x1="210.025" y1="159.170513206756" x2="213.2" y2="159.170513206756"/>
    <line x1="213.2" y1="159.170513206756" x2="213.2" y2="155.995513206756"/>
    <line x1="213.2" y1="155.995513206756" x2="210.025" y2="155.995513206756"/>
    <line x1="210.025" y1="155.995513206756" x2="210.025" y2="152.820513206756"/>
    <line x1="210.025" y1="152.820513206756" x2="213.2" y2="152.820513206756"/>
    <line x1="213.2" y1="152.820513206756" x2="213.2" y2="149.645513206756"/>
    <line x1="213.2" y1="149.645513206756" x2="210.025" y2="149.645513206756"/>
    <line x1="210.025" y1="149.645513206756" x2="210.025" y2="146.470513206756"/>
    <line x1="210.025" y1="146.470513206756" x2="213.2" y2="146.470513206756"/>
    <line x1="213.2" y1="146.470513206756" x2="213.2" y2="143.295513206756"/>
    <line x1="213.2" y1="143.295513206756" x2="210.025" y2="143.295513206756"/>
    <line x1="210.025" y1="143.295513206756" x2="210.025" y2="140.120513206756"/>
    <line x1="210.025" y1="140.120513206756" x2="213.2" y2="140.120513206756"/>
    <line x1="213.2" y1="140.120513206756" x2="213.2" y2="136.945513206756"/>
    <line x1="213.2" y1="136.945513206756" x2="210.025" y2="136.945513206756"/>
    <line x1="210.025" y1="136.945513206756" x2="210.025" y2="133.770513206756"/>
    <line x1="210.025" y1="133.770513206756" x2="213.2" y2="133.770513206756"/>
    <line x1="213.2" y1="133.770513206756" x2="213.2" y2="130.595513206756"/>
    <line x1="213.2" y1="130.595513206756" x2="210.025" y2="130.595513206756"/>
    <line x1="210.025" y1="130.595513206756" x2="210.025" y2="127.420513206756"/>
    <line x1="210.025" y1="127.420513206756" x2="213.2" y2="127.420513206756"/>
    <line x1="213.2" y1="127.420513206756" x2="213.2" y2="124.245513206756"/>
    <line x1="213.2" y1="124.245513206756" x2="210.025" y2="124.245513206756"/>
    <line x1="210.025" y1="124.245513206756" x2="210.025" y2="121.070513206756"/>
    <line x1="210.025" y1="121.070513206756" x2="213.2" y2="121.070513206756"/>
    <line x1="213.2" y1="121.070513206756" x2="213.2" y2="117.895513206756"/>
    <line x1="213.2" y1="117.895513206756" x2="210.025" y2="117.895513206756"/>
    <line x1="210.025" y1="117.895513206756" x2="210.025" y2="114.720513206756"/>
    <line x1="210.025" y1="114.720513206756" x2="213.2" y2="114.720513206756"/>
    <line x1="213.2" y1="114.720513206756" x2="213.2" y2="111.545513206756"/>
    <line x1="213.2" y1="111.545513206756" x2="210.025" y2="111.545513206756"/>
    <line x1="210.025" y1="111.545513206756" x2="210.025" y2="108.370513206756"/>
    <line x1="210.025" y1="108.370513206756" x2="213.2" y2="108.370513206756"/>
    <line x1="213.2" y1="108.370513206756" x2="213.2" y2="105.195513206756"/>
    <line x1="213.2" y1="105.195513206756" x2="210.025" y2="105.195513206756"/>
    <line x1="210.025" y1="105.195513206756" x2="210.025" y2="102.020513206756"/>
    <line x1="210.025" y1="102.020513206756" x2="213.2" y2="102.020513206756"/>
    <line x1="213.2" y1="102.020513206756" x2="213.2" y2="98.8455132067558"/>
    <line x1="213.2" y1="98.8455132067558" x2="210.025" y2="98.8455132067558"/>
    <line x1="210.025" y1="98.8455132067558" x2="210.025" y2="95.6705132067558"/>
    <line x1="210.025" y1="95.6705132067558" x2="213.2" y2="95.6705132067558"/>
    <line x1="213.2" y1="95.6705132067558" x2="213.2" y2="92.4955132067558"/>
    <line x1="213.2" y1="92.4955132067558" x2="210.025" y2="92.4955132067558"/>
    <line x1="210.025" y1="92.4955132067558" x2="210.025" y2="89.3205132067558"/>
    <line x1="210.025" y1="89.3205132067558" x2="213.2" y2="89.3205132067558"/>
    <line x1="213.2" y1="89.3205132067558" x2="213.2" y2="86.1455132067558"/>
    <line x1="213.2" y1="86.1455132067558" x2="210.025" y2="86.1455132067558"/>
    <line x1="210.025" y1="86.1455132067558" x2="210.025" y2="82.9705132067558"/>
    <line x1="210.025" y1="82.9705132067558" x2="213.2" y2="82.9705132067558"/>
    <line x1="213.2" y1="82.9705132067558" x2="213.2" y2="79.7955132067558"/>
    <line x1="213.2" y1="79.7955132067558" x2="210.025" y2="79.7955132067558"/>
    <line x1="210.025" y1="79.7955132067558" x2="210.025" y2="76.6205132067558"/>
    <line x1="210.025" y1="76.6205132067558" x2="213.2" y2="76.6205132067558"/>
    <line x1="213.2" y1="76.6205132067558" x2="213.2" y2="73.4455132067558"/>
    <line x1="213.2" y1="73.4455132067558" x2="210.025" y2="73.4455132067558"/>
    <line x1="210.025" y1="73.4455132067558" x2="210.025" y2="70.2705132067558"/>
    <line x1="210.025" y1="70.2705132067558" x2="213.2" y2="70.2705132067558"/>
    <line x1="213.2" y1="70.2705132067558" x2="213.2" y2="67.0955132067558"/>
    <line x1="213.2" y1="67.0955132067558" x2="210.025" y2="67.0955132067558"/>
    <line x1="210.025" y1="67.0955132067558" x2="210.025" y2="63.9205132067558"/>
    <line x1="210.025" y1="63.9205132067558" x2="213.2" y2="63.9205132067558"/>
    <line x1="213.2" y1="63.9205132067558" x2="213.2" y2="60.7455132067558"/>
    <line x1="213.2" y1="60.7455132067558" x2="210.025" y2="60.7455132067558"/>
    <line x1="210.025" y1="60.7455132067558" x2="210.025" y2="57.5705132067558"/>
    <line x1="210.025" y1="57.5705132067558" x2="213.2" y2="57.5705132067558"/>
    <line x1="213.2" y1="57.5705132067558" x2="213.2" y2="54.3955132067557"/>
    <line x1="213.2" y1="54.3955132067557" x2="210.025" y2="54.3955132067557"/>
    <line x1="210.025" y1="54.3955132067557" x2="210.025" y2="51.2205132067557"/>
    <line x1="210.025" y1="51.2205132067557" x2="213.2" y2="51.2205132067557"/>
    <line x1="213.2" y1="51.2205132067557" x2="213.2" y2="48.0455132067557"/>
    <line x1="213.2" y1="48.0455132067557" x2="210.025" y2="48.0455132067557"/>
    <line x1="210.025" y1="48.0455132067557" x2="210.025" y2="44.8705132067557"/>
    <line x1="210.025" y1="44.8705132067557" x2="213.2" y2="44.8705132067557"/>
    <line x1="213.2" y1="44.8705132067557" x2="213.2" y2="41.6955132067557"/>
    <line x1="213.2" y1="41.6955132067557" x2="210.025" y2="41.6955132067557"/>
    <line x1="210.025" y1="41.6955132067557" x2="210.025" y2="38.5205132067557"/>
    <line x1="210.025" y1="38.5205132067557" x2="213.2" y2="38.5205132067558"/>
    <line x1="213.2" y1="38.5205132067558" x2="213.2" y2="35.3455132067558"/>
    <line x1="213.2" y1="35.3455132067558" x2="210.025" y2="35.3455132067558"/>
    <line x1="210.025" y1="35.3455132067558" x2="210.025" y2="32.1705132067558"/>
    <line x1="210.025" y1="32.1705132067558" x2="213.2" y2="32.1705132067558"/>
    <line x1="213.2" y1="32.1705132067558" x2="213.2" y2="28.9955132067558"/>
    <line x1="213.2" y1="28.9955132067558" x2="210.025" y2="28.9955132067558"/>
    <line x1="210.025" y1="28.9955132067558" x2="210.025" y2="25.8205132067558"/>
    <line x1="210.025" y1="25.8205132067558" x2="213.2" y2="25.8205132067558"/>
    <line x1="213.2" y1="25.8205132067558" x2="213.2" y2="22.6455132067558"/>
    <line x1="213.2" y1="22.6455132067558" x2="210.025" y2="22.6455132067558"/>
    <line x1="210.025" y1="22.6455132067558" x2="210.025" y2="19.4705132067558"/>
    <line x1="210.025" y1="19.4705132067558" x2="213.2" y2="19.4705132067558"/>
    <line x1="213.2" y1="19.4705132067558" x2="213.2" y2="16.2955132067558"/>
    <line x1="213.2" y1="16.2955132067558" x2="210.025" y2="16.2955132067558"/>
    <line x1="210.025" y1="16.2955132067558" x2="208.550618539027" y2="15.0955132067411"/>
    <line x1="208.550618539027" y1="15.0955132067411" x2="180.425618539022" y2="10.5955132067568"/>
    <line x1="180.425618539022" y1="10.5955132067568" x2="180.425618539038" y2="35.3455132067558"/>
    <line x1="180.425618539038" y1="35.3455132067558" x2="183.463118560763" y2="35.3455132539204"/>
    <line x1="183.463118560763" y1="35.3455132539204" x2="183.463118560758" y2="26.3455132539194"/>
    <line x1="183.463118560758" y1="26.3455132539194" x2="187.513118560758" y2="26.3455132539176"/>
    <line x1="187.513118560758" y1="26.3455132539176" x2="187.513118560763" y2="35.3455132539182"/>
    <line x1="187.513118560763" y1="35.3455132539182" x2="192.800618539037" y2="35.3455132067494"/>
    <line x1="192.800618539037" y1="35.3455132067494" x2="192.800618539038" y2="37.5955132067497"/>
    <line x1="192.800618539038" y1="37.5955132067497" x2="191.675618539039" y2="37.5955132067497"/>
    <line x1="191.675618539039" y1="37.5955132067497" x2="191.675618539051" y2="60.8605132067496"/>
    <line x1="191.675618539051" y1="60.8605132067496" x2="189.425618539052" y2="60.860513206751"/>
    <line x1="189.425618539052" y1="60.860513206751" x2="189.425618539052" y2="59.7355132067511"/>
    <line x1="189.425618539052" y1="59.7355132067511" x2="163.550618539047" y2="55.5955132067658"/>
    <line x1="163.550618539047" y1="55.5955132067658" x2="162.4" y2="54.395513206756"/>
    <line x1="162.4" y1="54.395513206756" x2="162.4" y2="57.570513206756"/>
    <line x1="162.4" y1="57.570513206756" x2="159.225" y2="57.570513206756"/>
    <line x1="159.225" y1="57.570513206756" x2="159.225" y2="60.745513206756"/>
    <line x1="159.225" y1="60.745513206756" x2="162.4" y2="60.745513206756"/>
    <line x1="162.4" y1="60.745513206756" x2="162.4" y2="63.920513206756"/>
    <line x1="162.4" y1="63.920513206756" x2="159.225" y2="63.920513206756"/>
    <line x1="159.225" y1="63.920513206756" x2="159.225" y2="67.095513206756"/>
    <line x1="159.225" y1="67.095513206756" x2="162.4" y2="67.095513206756"/>
    <line x1="162.4" y1="67.095513206756" x2="162.4" y2="70.270513206756"/>
    <line x1="162.4" y1="70.270513206756" x2="159.225" y2="70.270513206756"/>
    <line x1="159.225" y1="70.270513206756" x2="159.225" y2="73.445513206756"/>
    <line x1="159.225" y1="73.445513206756" x2="162.4" y2="73.445513206756"/>
    <line x1="162.4" y1="73.445513206756" x2="162.4" y2="76.620513206756"/>
    <line x1="162.4" y1="76.620513206756" x2="159.225" y2="76.620513206756"/>
    <line x1="159.225" y1="76.620513206756" x2="159.225" y2="79.795513206756"/>
    <line x1="159.225" y1="79.795513206756" x2="162.4" y2="79.795513206756"/>
    <line x1="162.4" y1="79.795513206756" x2="162.4" y2="82.970513206756"/>
    <line x1="162.4" y1="82.970513206756" x2="159.225" y2="82.970513206756"/>
    <line x1="159.225" y1="82.970513206756" x2="159.225" y2="86.145513206756"/>
    <line x1="159.225" y1="86.145513206756" x2="162.4" y2="86.145513206756"/>
    <line x1="162.4" y1="86.145513206756" x2="162.4" y2="89.320513206756"/>
    <line x1="162.4" y1="89.320513206756" x2="159.225" y2="89.320513206756"/>
    <line x1="159.225" y1="89.320513206756" x2="159.225" y2="92.495513206756"/>
    <line x1="159.225" y1="92.495513206756" x2="162.4" y2="92.495513206756"/>
    <line x1="162.4" y1="92.495513206756" x2="162.4" y2="95.670513206756"/>
    <line x1="162.4" y1="95.670513206756" x2="159.225" y2="95.670513206756"/>
    <line x1="159.225" y1="95.670513206756" x2="159.225" y2="98.845513206756"/>
    <line x1="159.225" y1="98.845513206756" x2="162.4" y2="98.845513206756"/>
    <line x1="162.4" y1="98.845513206756" x2="162.4" y2="102.020513206756"/>
    <line x1="162.4" y1="102.020513206756" x2="159.225" y2="102.020513206756"/>
    <line x1="159.225" y1="102.020513206756" x2="159.225" y2="105.195513206756"/>
    <line x1="159.225" y1="105.195513206756" x2="162.4" y2="105.195513206756"/>
    <line x1="162.4" y1="105.195513206756" x2="162.4" y2="108.370513206756"/>
    <line x1="162.4" y1="108.370513206756" x2="159.225" y2="108.370513206756"/>
    <line x1="159.225" y1="108.370513206756" x2="159.225" y2="111.545513206756"/>
    <line x1="159.225" y1="111.545513206756" x2="162.4" y2="111.545513206756"/>
    <line x1="162.4" y1="111.545513206756" x2="162.4" y2="114.720513206756"/>
    <line x1="162.4" y1="114.720513206756" x2="159.225" y2="114.720513206756"/>
    <line x1="159.225" y1="114.720513206756" x2="159.225" y2="117.895513206756"/>
    <line x1="159.225" y1="117.895513206756" x2="162.4" y2="117.895513206756"/>
    <line x1="162.4" y1="117.895513206756" x2="162.4" y2="121.070513206756"/>
    <line x1="162.4" y1="121.070513206756" x2="159.225" y2="121.070513206756"/>
    <line x1="159.225" y1="121.070513206756" x2="159.225" y2="124.245513206756"/>
    <line x1="159.225" y1="124.245513206756" x2="162.4" y2="124.245513206756"/>
    <line x1="162.4" y1="124.245513206756" x2="162.4" y2="127.420513206756"/>
    <line x1="162.4" y1="127.420513206756" x2="159.225" y2="127.420513206756"/>
    <line x1="159.225" y1="127.420513206756" x2="159.225" y2="130.595513206756"/>
    <line x1="159.225" y1="130.595513206756" x2="162.4" y2="130.595513206756"/>
    <line x1="162.4" y1="130.595513206756" x2="162.4" y2="133.770513206756"/>
    <line x1="162.4" y1="133.770513206756" x2="159.225" y2="133.770513206756"/>
    <line x1="159.225" y1="133.770513206756" x2="159.225" y2="136.945513206756"/>
    <line x1="159.225" y1="136.945513206756" x2="162.4" y2="136.945513206756"/>
    <line x1="162.4" y1="136.945513206756" x2="162.4" y2="140.120513206756"/>
    <line x1="162.4" y1="140.120513206756" x2="159.225" y2="140.120513206756"/>
    <line x1="159.225" y1="140.120513206756" x2="159.225" y2="143.295513206756"/>
    <line x1="159.225" y1="143.295513206756" x2="162.4" y2="143.295513206756"/>
    <line x1="162.4" y1="143.295513206756" x2="162.4" y2="146.470513206756"/>
    <line x1="162.4" y1="146.470513206756" x2="159.225" y2="146.470513206756"/>
    <line x1="159.225" y1="146.470513206756" x2="159.225" y2="149.645513206756"/>
    <line x1="159.225" y1="149.645513206756" x2="162.4" y2="149.645513206756"/>
    <line x1="162.4" y1="149.645513206756" x2="162.4" y2="152.820513206756"/>
    <line x1="162.4" y1="152.820513206756" x2="159.225" y2="152.820513206756"/>
    <line x1="159.225" y1="152.820513206756" x2="159.225" y2="155.995513206756"/>
    <line x1="159.225" y1="155.995513206756" x2="162.4" y2="155.995513206756"/>
    <line x1="162.4" y1="155.995513206756" x2="162.4" y2="159.170513206756"/>
    <line x1="162.4" y1="159.170513206756" x2="159.225" y2="159.170513206756"/>
    <line x1="159.225" y1="159.170513206756" x2="159.225" y2="162.345513206756"/>
    <line x1="159.225" y1="162.345513206756" x2="162.4" y2="162.345513206756"/>
    <line x1="162.4" y1="162.345513206756" x2="162.4" y2="165.520513206756"/>
    <line x1="162.4" y1="165.520513206756" x2="159.225" y2="165.520513206756"/>
    <line x1="159.225" y1="165.520513206756" x2="159.225" y2="168.695513206756"/>
    <line x1="159.225" y1="168.695513206756" x2="162.4" y2="168.695513206756"/>
    <line x1="162.4" y1="168.695513206756" x2="162.4" y2="171.870513206756"/>
    <line x1="162.4" y1="171.870513206756" x2="159.225" y2="171.870513206756"/>
    <line x1="159.225" y1="171.870513206756" x2="159.225" y2="175.045513206756"/>
    <line x1="159.225" y1="175.045513206756" x2="162.4" y2="175.045513206756"/>
    <line x1="162.4" y1="175.045513206756" x2="162.4" y2="178.220513206756"/>
    <line x1="162.4" y1="178.220513206756" x2="159.225" y2="178.220513206756"/>
    <line x1="159.225" y1="178.220513206756" x2="159.225" y2="181.395513206756"/>
    <line x1="159.225" y1="181.395513206756" x2="162.4" y2="181.395513206756"/>
    <line x1="162.4" y1="181.395513206756" x2="162.4" y2="184.570513206756"/>
    <line x1="162.4" y1="184.570513206756" x2="159.225" y2="184.570513206756"/>
    <line x1="159.225" y1="184.570513206756" x2="159.225" y2="187.745513206756"/>
    <line x1="159.225" y1="187.745513206756" x2="162.4" y2="187.745513206756"/>
    <line x1="162.4" y1="187.745513206756" x2="162.4" y2="190.920513206756"/>
    <line x1="162.4" y1="190.920513206756" x2="159.225" y2="190.920513206756"/>
    <line x1="159.225" y1="190.920513206756" x2="159.225" y2="197.270513206756"/>
    <line x1="159.225" y1="197.270513206756" x2="156.05" y2="197.270513206756"/>
    <line x1="156.05" y1="197.270513206756" x2="156.05" y2="194.095513206756"/>
    <line x1="156.05" y1="194.095513206756" x2="152.875" y2="194.095513206756"/>
    <line x1="152.875" y1="194.095513206756" x2="152.875" y2="197.270513206756"/>
    <line x1="152.875" y1="197.270513206756" x2="149.7" y2="197.270513206756"/>
    <line x1="149.7" y1="197.270513206756" x2="149.700000000001" y2="194.095513206756"/>
    <line x1="149.700000000001" y1="194.095513206756" x2="146.525" y2="194.095513206756"/>
    <line x1="146.525" y1="194.095513206756" x2="146.525" y2="197.270513206756"/>
    <line x1="146.525" y1="197.270513206756" x2="143.35" y2="197.270513206756"/>
    <line x1="143.35" y1="197.270513206756" x2="143.35" y2="194.095513206756"/>
    <line x1="143.35" y1="194.095513206756" x2="140.175000000001" y2="194.095513206756"/>
    <line x1="140.175000000001" y1="194.095513206756" x2="140.175" y2="197.270513206756"/>
    <line x1="140.175" y1="197.270513206756" x2="137.0" y2="197.270513206756"/>
    <line x1="137.0" y1="197.270513206756" x2="137.0" y2="194.095513206756"/>
    <line x1="137.0" y1="194.095513206756" x2="133.825" y2="194.095513206756"/>
    <line x1="133.825" y1="194.095513206756" x2="133.825000000001" y2="197.270513206756"/>
    <line x1="133.825000000001" y1="197.270513206756" x2="130.65" y2="197.270513206756"/>
    <line x1="130.65" y1="197.270513206756" x2="130.65" y2="194.095513206756"/>
    <line x1="130.65" y1="194.095513206756" x2="127.475" y2="194.095513206756"/>
    <line x1="127.475" y1="194.095513206756" x2="127.475" y2="197.270513206756"/>
    <line x1="127.475" y1="197.270513206756" x2="124.3" y2="197.270513206756"/>
    <line x1="124.3" y1="197.270513206756" x2="124.3" y2="194.095513206756"/>
    <line x1="124.3" y1="194.095513206756" x2="121.125" y2="194.095513206756"/>
    <line x1="121.125" y1="194.095513206756" x2="121.125000000001" y2="197.270513206756"/>
    <line x1="121.125000000001" y1="197.270513206756" x2="117.95" y2="197.270513206756"/>
    <line x1="117.95" y1="197.270513206756" x2="117.95" y2="194.095513206756"/>
    <line x1="117.95" y1="194.095513206756" x2="114.775" y2="194.095513206756"/>
    <line x1="114.775" y1="194.095513206756" x2="114.775" y2="197.270513206756"/>
    <line x1="114.775" y1="197.270513206756" x2="111.6" y2="197.270513206756"/>
    <line x1="111.6" y1="197.270513206756" x2="111.600000000001" y2="194.095513206756"/>
    <line x1="111.600000000001" y1="194.095513206756" x2="108.425" y2="194.095513206756"/>
    <line x1="108.425" y1="194.095513206756" x2="108.425" y2="197.270513206757"/>
    <line x1="108.425" y1="197.270513206757" x2="105.25" y2="197.270513206756"/>
    <line x1="105.25" y1="197.270513206756" x2="105.250000000001" y2="194.095513206756"/>
    <line x1="105.250000000001" y1="194.095513206756" x2="102.075000000001" y2="194.095513206756"/>
    <line x1="102.075000000001" y1="194.095513206756" x2="102.075" y2="197.270513206755"/>
    <line x1="102.075" y1="197.270513206755" x2="98.9000000000004" y2="197.270513206756"/>
    <line x1="98.9000000000004" y1="197.270513206756" x2="98.9000000000002" y2="194.095513206756"/>
    <line x1="98.9000000000002" y1="194.095513206756" x2="95.7249999999999" y2="194.095513206756"/>
    <line x1="95.7249999999999" y1="194.095513206756" x2="95.7249999999999" y2="197.270513206756"/>
    <line x1="95.7249999999999" y1="197.270513206756" x2="92.5500000000003" y2="197.270513206756"/>
    <line x1="92.5500000000003" y1="197.270513206756" x2="92.5500000000003" y2="194.095513206756"/>
    <line x1="92.5500000000003" y1="194.095513206756" x2="89.3750000000001" y2="194.095513206756"/>
    <line x1="89.3750000000001" y1="194.095513206756" x2="89.3750000000001" y2="197.270513206756"/>
    <line x1="89.3750000000001" y1="197.270513206756" x2="86.1999999999999" y2="197.270513206757"/>
    <line x1="86.1999999999999" y1="197.270513206757" x2="86.2000000000001" y2="194.095513206756"/>
    <line x1="86.2000000000001" y1="194.095513206756" x2="83.0249999999999" y2="194.095513206756"/>
    <line x1="83.0249999999999" y1="194.095513206756" x2="83.0250000000003" y2="197.270513206756"/>
    <line x1="83.0250000000003" y1="197.270513206756" x2="79.8500000000001" y2="197.270513206757"/>
    <line x1="79.8500000000001" y1="197.270513206757" x2="79.8500000000001" y2="194.095513206756"/>
    <line x1="79.8500000000001" y1="194.095513206756" x2="76.6750000000003" y2="194.095513206756"/>
    <line x1="76.6750000000003" y1="194.095513206756" x2="76.6749999999999" y2="197.270513206757"/>
    <line x1="76.6749999999999" y1="197.270513206757" x2="73.4999999999996" y2="197.270513206756"/>
    <line x1="73.4999999999996" y1="197.270513206756" x2="73.4999999999999" y2="194.095513206756"/>
    <line x1="73.4999999999999" y1="194.095513206756" x2="70.3250000000003" y2="194.095513206755"/>
    <line x1="70.3250000000003" y1="194.095513206755" x2="70.3250000000005" y2="197.270513206757"/>
    <line x1="70.3250000000005" y1="197.270513206757" x2="67.1500000000005" y2="197.270513206755"/>
    <line x1="67.1500000000005" y1="197.270513206755" x2="67.1500000000003" y2="194.095513206756"/>
    <line x1="67.1500000000003" y1="194.095513206756" x2="60.8" y2="194.095513206756"/>
    <line x1="60.8" y1="194.095513206756" x2="60.8" y2="190.920513206755"/>
    <line x1="60.8" y1="190.920513206755" x2="63.975" y2="190.920513206756"/>
    <line x1="63.975" y1="190.920513206756" x2="63.975" y2="187.745513206755"/>
    <line x1="63.975" y1="187.745513206755" x2="60.8" y2="187.745513206756"/>
    <line x1="60.8" y1="187.745513206756" x2="60.8" y2="184.570513206756"/>
    <line x1="60.8" y1="184.570513206756" x2="63.975" y2="184.570513206756"/>
    <line x1="63.975" y1="184.570513206756" x2="63.975" y2="181.395513206756"/>
    <line x1="63.975" y1="181.395513206756" x2="60.8" y2="181.395513206756"/>
    <line x1="60.8" y1="181.395513206756" x2="60.8" y2="178.220513206756"/>
    <line x1="60.8" y1="178.220513206756" x2="63.975" y2="178.220513206756"/>
    <line x1="63.975" y1="178.220513206756" x2="63.975" y2="175.045513206756"/>
    <line x1="63.975" y1="175.045513206756" x2="60.8" y2="175.045513206756"/>
    <line x1="60.8" y1="175.045513206756" x2="60.8" y2="171.870513206756"/>
    <line x1="60.8" y1="171.870513206756" x2="63.975" y2="171.870513206756"/>
    <line x1="63.975" y1="171.870513206756" x2="63.9750000000001" y2="168.695513206756"/>
    <line x1="63.9750000000001" y1="168.695513206756" x2="60.8" y2="168.695513206756"/>
    <line x1="60.8" y1="168.695513206756" x2="60.8" y2="165.520513206756"/>
    <line x1="60.8" y1="165.520513206756" x2="63.975" y2="165.520513206756"/>
    <line x1="63.975" y1="165.520513206756" x2="63.975" y2="162.345513206756"/>
    <line x1="63.975" y1="162.345513206756" x2="60.8000000000001" y2="162.345513206756"/>
    <line x1="60.8000000000001" y1="162.345513206756" x2="60.8" y2="159.170513206756"/>
    <line x1="60.8" y1="159.170513206756" x2="63.975" y2="159.170513206756"/>
    <line x1="63.975" y1="159.170513206756" x2="63.975" y2="155.995513206756"/>
    <line x1="63.975" y1="155.995513206756" x2="60.8" y2="155.995513206756"/>
    <line x1="60.8" y1="155.995513206756" x2="60.8" y2="152.820513206756"/>
    <line x1="60.8" y1="152.820513206756" x2="63.975" y2="152.820513206756"/>
    <line x1="63.975" y1="152.820513206756" x2="63.975" y2="149.645513206756"/>
    <line x1="63.975" y1="149.645513206756" x2="60.8" y2="149.645513206756"/>
    <line x1="60.8" y1="149.645513206756" x2="60.8" y2="146.470513206756"/>
    <line x1="60.8" y1="146.470513206756" x2="63.975" y2="146.470513206756"/>
    <line x1="63.975" y1="146.470513206756" x2="63.975" y2="143.295513206756"/>
    <line x1="63.975" y1="143.295513206756" x2="60.8" y2="143.295513206756"/>
    <line x1="60.8" y1="143.295513206756" x2="60.8" y2="140.120513206756"/>
    <line x1="60.8" y1="140.120513206756" x2="63.975" y2="140.120513206756"/>
    <line x1="63.975" y1="140.120513206756" x2="63.9750000000001" y2="136.945513206756"/>
    <line x1="63.9750000000001" y1="136.945513206756" x2="60.8" y2="136.945513206756"/>
    <line x1="60.8" y1="136.945513206756" x2="60.8" y2="133.770513206756"/>
    <line x1="60.8" y1="133.770513206756" x2="63.975" y2="133.770513206756"/>
    <line x1="63.975" y1="133.770513206756" x2="63.975" y2="130.595513206756"/>
    <line x1="63.975" y1="130.595513206756" x2="60.8" y2="130.595513206756"/>
    <line x1="60.8" y1="130.595513206756" x2="60.8000000000001" y2="127.420513206756"/>
    <line x1="60.8000000000001" y1="127.420513206756" x2="63.975" y2="127.420513206756"/>
    <line x1="63.975" y1="127.420513206756" x2="63.975" y2="124.245513206756"/>
    <line x1="63.975" y1="124.245513206756" x2="60.8" y2="124.245513206756"/>
    <line x1="60.8" y1="124.245513206756" x2="60.8000000000001" y2="121.070513206756"/>
    <line x1="60.8000000000001" y1="121.070513206756" x2="63.975" y2="121.070513206756"/>
    <line x1="63.975" y1="121.070513206756" x2="63.9750000000001" y2="117.895513206756"/>
    <line x1="63.9750000000001" y1="117.895513206756" x2="60.8" y2="117.895513206756"/>
    <line x1="60.8" y1="117.895513206756" x2="60.8" y2="114.720513206756"/>
    <line x1="60.8" y1="114.720513206756" x2="63.975" y2="114.720513206756"/>
    <line x1="63.975" y1="114.720513206756" x2="63.975" y2="111.545513206756"/>
    <line x1="63.975" y1="111.545513206756" x2="60.8" y2="111.545513206756"/>
    <line x1="60.8" y1="111.545513206756" x2="60.8" y2="108.370513206756"/>
    <line x1="60.8" y1="108.370513206756" x2="63.975" y2="108.370513206756"/>
    <line x1="63.975" y1="108.370513206756" x2="63.975" y2="105.195513206756"/>
    <line x1="63.975" y1="105.195513206756" x2="60.8000000000001" y2="105.195513206756"/>
    <line x1="60.8000000000001" y1="105.195513206756" x2="60.8" y2="102.020513206756"/>
    <line x1="60.8" y1="102.020513206756" x2="63.975" y2="102.020513206756"/>
    <line x1="63.975" y1="102.020513206756" x2="63.975" y2="98.8455132067562"/>
    <line x1="63.975" y1="98.8455132067562" x2="60.8" y2="98.8455132067562"/>
    <line x1="60.8" y1="98.8455132067562" x2="60.8" y2="95.6705132067562"/>
    <line x1="60.8" y1="95.6705132067562" x2="63.975" y2="95.6705132067562"/>
    <line x1="63.975" y1="95.6705132067562" x2="63.975" y2="92.4955132067562"/>
    <line x1="63.975" y1="92.4955132067562" x2="60.8" y2="92.4955132067562"/>
    <line x1="60.8" y1="92.4955132067562" x2="60.8" y2="89.3205132067561"/>
    <line x1="60.8" y1="89.3205132067561" x2="63.975" y2="89.3205132067562"/>
    <line x1="63.975" y1="89.3205132067562" x2="63.975" y2="86.1455132067562"/>
    <line x1="63.975" y1="86.1455132067562" x2="60.8" y2="86.1455132067562"/>
    <line x1="60.8" y1="86.1455132067562" x2="60.8000000000001" y2="82.9705132067561"/>
    <line x1="60.8000000000001" y1="82.9705132067561" x2="63.975" y2="82.9705132067562"/>
    <line x1="63.975" y1="82.9705132067562" x2="63.9750000000001" y2="79.7955132067561"/>
    <line x1="63.9750000000001" y1="79.7955132067561" x2="60.8000000000001" y2="79.7955132067561"/>
    <line x1="60.8000000000001" y1="79.7955132067561" x2="60.8" y2="76.6205132067562"/>
    <line x1="60.8" y1="76.6205132067562" x2="63.9750000000001" y2="76.6205132067561"/>
    <line x1="63.9750000000001" y1="76.6205132067561" x2="63.9750000000001" y2="73.4455132067561"/>
    <line x1="63.9750000000001" y1="73.4455132067561" x2="60.8" y2="73.4455132067562"/>
    <line x1="60.8" y1="73.4455132067562" x2="60.8" y2="70.2705132067562"/>
    <line x1="60.8" y1="70.2705132067562" x2="63.9750000000001" y2="70.2705132067561"/>
    <line x1="63.9750000000001" y1="70.2705132067561" x2="63.975" y2="67.0955132067562"/>
    <line x1="63.975" y1="67.0955132067562" x2="60.8" y2="67.0955132067562"/>
    <line x1="60.8" y1="67.0955132067562" x2="60.8000000000001" y2="63.9205132067562"/>
    <line x1="60.8000000000001" y1="63.9205132067562" x2="63.975" y2="63.9205132067562"/>
    <line x1="63.975" y1="63.9205132067562" x2="63.9750000000001" y2="60.7455132067561"/>
    <line x1="63.9750000000001" y1="60.7455132067561" x2="60.8" y2="60.7455132067562"/>
    <line x1="60.8" y1="60.7455132067562" x2="60.8" y2="57.5705132067561"/>
    <line x1="60.8" y1="57.5705132067561" x2="63.975" y2="57.5705132067562"/>
    <line x1="63.975" y1="57.5705132067562" x2="63.9750000000001" y2="54.3955132067561"/>
    <line x1="63.9750000000001" y1="54.3955132067561" x2="60.8" y2="54.3955132067561"/>
    <line x1="60.8" y1="54.3955132067561" x2="60.8000000000001" y2="51.220513206756"/>
    <line x1="60.8000000000001" y1="51.220513206756" x2="63.975" y2="51.2205132067561"/>
    <line x1="63.975" y1="51.2205132067561" x2="63.975" y2="48.045513206756"/>
    <line x1="63.975" y1="48.045513206756" x2="60.8" y2="48.045513206756"/>
    <line x1="60.8" y1="48.045513206756" x2="60.8000000000001" y2="44.8705132067559"/>
    <line x1="60.8000000000001" y1="44.8705132067559" x2="63.9750000000001" y2="44.870513206756"/>
    <line x1="63.9750000000001" y1="44.870513206756" x2="63.9750000000001" y2="41.6955132067561"/>
    <line x1="63.9750000000001" y1="41.6955132067561" x2="60.8" y2="41.6955132067561"/>
    <line x1="60.8" y1="41.6955132067561" x2="60.8000000000001" y2="38.5205132067561"/>
    <line x1="60.8000000000001" y1="38.5205132067561" x2="63.9750000000001" y2="38.5205132067561"/>
    <line x1="63.9750000000001" y1="38.5205132067561" x2="63.975" y2="35.3455132067561"/>
    <line x1="63.975" y1="35.3455132067561" x2="60.8000000000001" y2="35.3455132067561"/>
    <line x1="60.8000000000001" y1="35.3455132067561" x2="60.8" y2="32.1705132067561"/>
    <line x1="60.8" y1="32.1705132067561" x2="63.9750000000001" y2="32.1705132067561"/>
    <line x1="63.9750000000001" y1="32.1705132067561" x2="63.9750000000001" y2="28.9955132067559"/>
    <line x1="63.9750000000001" y1="28.9955132067559" x2="60.8" y2="28.995513206756"/>
    <line x1="60.8" y1="28.995513206756" x2="60.8000000000001" y2="25.820513206756"/>
    <line x1="60.8000000000001" y1="25.820513206756" x2="63.975" y2="25.8205132067561"/>
    <line x1="63.975" y1="25.8205132067561" x2="63.9750000000001" y2="22.6455132067561"/>
    <line x1="63.9750000000001" y1="22.6455132067561" x2="60.8000000000001" y2="22.6455132067561"/>
    <line x1="60.8000000000001" y1="22.6455132067561" x2="60.8" y2="19.4705132067561"/>
    <line x1="60.8" y1="19.4705132067561" x2="63.9750000000001" y2="19.4705132067561"/>
    <line x1="63.9750000000001" y1="19.4705132067561" x2="63.9750000000001" y2="16.2955132067561"/>
    <line x1="63.9750000000001" y1="16.2955132067561" x2="60.8000000000001" y2="16.2955132067561"/>
    <line x1="60.8000000000001" y1="16.2955132067561" x2="60.8" y2="15.2755482083868"/>
    <line x1="60.8" y1="15.2755482083868" x2="58.8082104616045" y2="14.4999999999842"/>
    <line x1="58.8082104616045" y1="14.4999999999842" x2="30.6832104616003" y2="10.0"/>
    <line x1="30.6832104616003" y1="10.0" x2="30.6832104616155" y2="34.7499999999988"/>
    <line x1="30.6832104616155" y1="34.7499999999988" x2="33.7207104833409" y2="34.7500000471635"/>
    <line x1="33.7207104833409" y1="34.7500000471635" x2="33.7207104833358" y2="25.7500000471626"/>
    <line x1="33.7207104833358" y1="25.7500000471626" x2="37.7707104833356" y2="25.7500000471607"/>
    <line x1="37.7707104833356" y1="25.7500000471607" x2="37.7707104833409" y2="34.7500000471612"/>
    <line x1="37.7707104833409" y1="34.7500000471612" x2="43.0582104616153" y2="34.7499999999925"/>
    <line x1="43.0582104616153" y1="34.7499999999925" x2="43.0582104616163" y2="36.9999999999928"/>
    <line x1="43.0582104616163" y1="36.9999999999928" x2="41.9332104616168" y2="36.9999999999928"/>
    <line x1="41.9332104616168" y1="36.9999999999928" x2="41.9332104616292" y2="60.2649999999928"/>
    <line x1="41.9332104616292" y1="60.2649999999928" x2="39.6832104616296" y2="60.2649999999941"/>
    <line x1="39.6832104616296" y1="60.2649999999941" x2="39.6832104616296" y2="59.1399999999942"/>
    <line x1="39.6832104616296" y1="59.1399999999942" x2="13.8082104616252" y2="55.000000000009"/>
    <line x1="13.8082104616252" y1="55.000000000009" x2="13.175" y2="55.000000000009"/>
    <line x1="13.175" y1="55.000000000009" x2="13.175" y2="57.5705132067556"/>
    <line x1="13.175" y1="57.5705132067556" x2="10.0" y2="57.5705132067556"/>
    <line x1="10.0" y1="57.5705132067556" x2="10.0" y2="60.7455132067557"/>
    <line x1="10.0" y1="60.7455132067557" x2="13.175" y2="60.7455132067556"/>
    <line x1="13.175" y1="60.7455132067556" x2="13.175" y2="63.9205132067556"/>
    <line x1="13.175" y1="63.9205132067556" x2="10.0" y2="63.9205132067556"/>
    <line x1="10.0" y1="63.9205132067556" x2="10.0" y2="67.0955132067556"/>
    <line x1="10.0" y1="67.0955132067556" x2="13.175" y2="67.0955132067556"/>
    <line x1="13.175" y1="67.0955132067556" x2="13.1750000000001" y2="70.2705132067556"/>
    <line x1="13.1750000000001" y1="70.2705132067556" x2="10.0" y2="70.2705132067557"/>
    <line x1="10.0" y1="70.2705132067557" x2="10.0" y2="73.4455132067557"/>
    <line x1="10.0" y1="73.4455132067557" x2="13.175" y2="73.4455132067557"/>
    <line x1="13.175" y1="73.4455132067557" x2="13.175" y2="76.6205132067556"/>
    <line x1="13.175" y1="76.6205132067556" x2="10.0" y2="76.6205132067557"/>
    <line x1="10.0" y1="76.6205132067557" x2="10.0" y2="79.7955132067556"/>
    <line x1="10.0" y1="79.7955132067556" x2="13.175" y2="79.7955132067557"/>
    <line x1="13.175" y1="79.7955132067557" x2="13.175" y2="82.9705132067557"/>
    <line x1="13.175" y1="82.9705132067557" x2="10.0000000000001" y2="82.9705132067556"/>
    <line x1="10.0000000000001" y1="82.9705132067556" x2="10.0" y2="86.1455132067556"/>
    <line x1="10.0" y1="86.1455132067556" x2="13.175" y2="86.1455132067557"/>
    <line x1="13.175" y1="86.1455132067557" x2="13.175" y2="89.3205132067556"/>
    <line x1="13.175" y1="89.3205132067556" x2="10.0" y2="89.3205132067556"/>
    <line x1="10.0" y1="89.3205132067556" x2="10.0" y2="92.4955132067557"/>
    <line x1="10.0" y1="92.4955132067557" x2="13.175" y2="92.4955132067556"/>
    <line x1="13.175" y1="92.4955132067556" x2="13.175" y2="95.6705132067556"/>
    <line x1="13.175" y1="95.6705132067556" x2="10.0000000000001" y2="95.6705132067556"/>
    <line x1="10.0000000000001" y1="95.6705132067556" x2="10.0" y2="98.8455132067556"/>
    <line x1="10.0" y1="98.8455132067556" x2="13.175" y2="98.8455132067557"/>
    <line x1="13.175" y1="98.8455132067557" x2="13.175" y2="102.020513206756"/>
    <line x1="13.175" y1="102.020513206756" x2="10.0" y2="102.020513206756"/>
    <line x1="10.0" y1="102.020513206756" x2="10.0" y2="105.195513206756"/>
    <line x1="10.0" y1="105.195513206756" x2="13.175" y2="105.195513206756"/>
    <line x1="13.175" y1="105.195513206756" x2="13.175" y2="108.370513206756"/>
    <line x1="13.175" y1="108.370513206756" x2="10.0" y2="108.370513206756"/>
    <line x1="10.0" y1="108.370513206756" x2="10.0" y2="111.545513206756"/>
    <line x1="10.0" y1="111.545513206756" x2="13.175" y2="111.545513206756"/>
    <line x1="13.175" y1="111.545513206756" x2="13.1750000000001" y2="114.720513206756"/>
    <line x1="13.1750000000001" y1="114.720513206756" x2="10.0" y2="114.720513206756"/>
    <line x1="10.0" y1="114.720513206756" x2="10.0" y2="117.895513206756"/>
    <line x1="10.0" y1="117.895513206756" x2="13.175" y2="117.895513206756"/>
    <line x1="13.175" y1="117.895513206756" x2="13.175" y2="121.070513206756"/>
    <line x1="13.175" y1="121.070513206756" x2="10.0" y2="121.070513206756"/>
    <line x1="10.0" y1="121.070513206756" x2="10.0" y2="124.245513206756"/>
    <line x1="10.0" y1="124.245513206756" x2="13.175" y2="124.245513206756"/>
    <line x1="13.175" y1="124.245513206756" x2="13.175" y2="127.420513206756"/>
    <line x1="13.175" y1="127.420513206756" x2="10.0" y2="127.420513206756"/>
    <line x1="10.0" y1="127.420513206756" x2="10.0" y2="130.595513206756"/>
    <line x1="10.0" y1="130.595513206756" x2="13.175" y2="130.595513206756"/>
    <line x1="13.175" y1="130.595513206756" x2="13.175" y2="133.770513206756"/>
    <line x1="13.175" y1="133.770513206756" x2="10.0" y2="133.770513206756"/>
    <line x1="10.0" y1="133.770513206756" x2="10.0" y2="136.945513206756"/>
    <line x1="10.0" y1="136.945513206756" x2="13.175" y2="136.945513206756"/>
    <line x1="13.175" y1="136.945513206756" x2="13.175" y2="140.120513206756"/>
    <line x1="13.175" y1="140.120513206756" x2="10.0" y2="140.120513206756"/>
    <line x1="10.0" y1="140.120513206756" x2="10.0" y2="143.295513206756"/>
    <line x1="10.0" y1="143.295513206756" x2="13.175" y2="143.295513206756"/>
    <line x1="13.175" y1="143.295513206756" x2="13.175" y2="146.470513206756"/>
    <line x1="13.175" y1="146.470513206756" x2="10.0" y2="146.470513206756"/>
    <line x1="10.0" y1="146.470513206756" x2="10.0" y2="149.645513206756"/>
    <line x1="10.0" y1="149.645513206756" x2="13.175" y2="149.645513206756"/>
    <line x1="13.175" y1="149.645513206756" x2="13.175" y2="152.820513206756"/>
    <line x1="13.175" y1="152.820513206756" x2="10.0" y2="152.820513206756"/>
    <line x1="10.0" y1="152.820513206756" x2="10.0" y2="155.995513206756"/>
    <line x1="10.0" y1="155.995513206756" x2="13.175" y2="155.995513206756"/>
    <line x1="13.175" y1="155.995513206756" x2="13.175" y2="159.170513206756"/>
    <line x1="13.175" y1="159.170513206756" x2="10.0" y2="159.170513206756"/>
    <line x1="10.0" y1="159.170513206756" x2="10.0" y2="162.345513206755"/>
    <line x1="10.0" y1="162.345513206755" x2="13.175" y2="162.345513206755"/>
    <line x1="13.175" y1="162.345513206755" x2="13.175" y2="165.520513206755"/>
    <line x1="13.175" y1="165.520513206755" x2="10.0" y2="165.520513206755"/>
    <line x1="10.0" y1="165.520513206755" x2="10.0" y2="168.695513206755"/>
    <line x1="10.0" y1="168.695513206755" x2="13.175" y2="168.695513206755"/>
    <line x1="13.175" y1="168.695513206755" x2="13.175" y2="171.870513206755"/>
    <line x1="13.175" y1="171.870513206755" x2="10.0" y2="171.870513206755"/>
    <line x1="10.0" y1="171.870513206755" x2="10.0" y2="175.045513206755"/>
    <line x1="10.0" y1="175.045513206755" x2="13.175" y2="175.045513206755"/>
    <line x1="13.175" y1="175.045513206755" x2="13.175" y2="178.220513206755"/>
    <line x1="13.175" y1="178.220513206755" x2="10.0" y2="178.220513206755"/>
    <line x1="10.0" y1="178.220513206755" x2="10.0" y2="181.395513206755"/>
    <line x1="10.0" y1="181.395513206755" x2="13.175" y2="181.395513206755"/>
    <line x1="13.175" y1="181.395513206755" x2="13.175" y2="184.570513206755"/>
    <line x1="13.175" y1="184.570513206755" x2="10.0" y2="184.570513206755"/>
    <line x1="10.0" y1="184.570513206755" x2="10.0" y2="187.745513206755"/>
    <line x1="10.0" y1="187.745513206755" x2="13.175" y2="187.745513206756"/>
    <line x1="13.175" y1="187.745513206756" x2="13.175" y2="190.920513206755"/>
    <line x1="13.175" y1="190.920513206755" x2="10.0" y2="190.920513206755"/>
    <line x1="10.0" y1="190.920513206755" x2="10.0" y2="194.095513206754"/>
    <line x1="10.0" y1="194.095513206754" x2="13.175" y2="194.095513206755"/>
    <line x1="13.175" y1="194.095513206755" x2="13.175" y2="197.270513206755"/>
    <line x1="13.175" y1="197.270513206755" x2="10.0" y2="197.270513206756"/>
    <line x1="10.0" y1="197.270513206756" x2="10.0" y2="200.445513206756"/>
    <line x1="10.0" y1="200.445513206756" x2="13.175" y2="200.445513206756"/>
    <line x1="13.175" y1="200.445513206756" x2="13.175" y2="203.620513206756"/>
    <line x1="13.175" y1="203.620513206756" x2="10.0" y2="203.620513206755"/>
    <line x1="10.0" y1="203.620513206755" x2="10.0" y2="206.795513206756"/>
    <line x1="10.0" y1="206.795513206756" x2="13.175" y2="206.795513206755"/>
    <line x1="13.175" y1="206.795513206755" x2="13.175" y2="209.970513206755"/>
    <line x1="13.175" y1="209.970513206755" x2="10.0" y2="209.970513206755"/>
    <line x1="10.0" y1="209.970513206755" x2="10.0" y2="213.145513206755"/>
    <line x1="10.0" y1="213.145513206755" x2="13.175" y2="213.145513206755"/>
    <line x1="13.175" y1="213.145513206755" x2="13.175" y2="216.320513206755"/>
    <line x1="13.175" y1="216.320513206755" x2="10.0" y2="216.320513206755"/>
    <line x1="10.0" y1="216.320513206755" x2="10.0" y2="219.495513206755"/>
    <line x1="10.0" y1="219.495513206755" x2="13.175" y2="219.495513206755"/>
    <line x1="13.175" y1="219.495513206755" x2="13.175" y2="222.670513206755"/>
    <line x1="13.175" y1="222.670513206755" x2="10.0" y2="222.670513206755"/>
    <line x1="10.0" y1="222.670513206755" x2="10.0" y2="225.845513206756"/>
    <line x1="10.0" y1="225.845513206756" x2="13.175" y2="225.845513206756"/>
    <line x1="13.175" y1="225.845513206756" x2="13.175" y2="229.020513206756"/>
    <line x1="13.175" y1="229.020513206756" x2="16.3499999999997" y2="229.020513206756"/>
    <line x1="16.3499999999997" y1="229.020513206756" x2="16.3499999999997" y2="225.845513206756"/>
    <line x1="16.3499999999997" y1="225.845513206756" x2="19.5249999999999" y2="225.845513206756"/>
    <line x1="19.5249999999999" y1="225.845513206756" x2="19.5249999999999" y2="229.020513206756"/>
    <line x1="19.5249999999999" y1="229.020513206756" x2="22.7000000000002" y2="229.020513206756"/>
    <line x1="22.7000000000002" y1="229.020513206756" x2="22.7000000000001" y2="225.845513206756"/>
    <line x1="22.7000000000001" y1="225.845513206756" x2="25.8750000000003" y2="225.845513206756"/>
    <line x1="25.8750000000003" y1="225.845513206756" x2="25.8749999999999" y2="229.020513206755"/>
    <line x1="25.8749999999999" y1="229.020513206755" x2="29.05" y2="229.020513206756"/>
    <line x1="29.05" y1="229.020513206756" x2="29.0500000000004" y2="225.845513206756"/>
    <line x1="29.0500000000004" y1="225.845513206756" x2="32.2249999999999" y2="225.845513206756"/>
    <line x1="32.2249999999999" y1="225.845513206756" x2="32.2250000000001" y2="229.020513206756"/>
    <line x1="32.2250000000001" y1="229.020513206756" x2="35.4" y2="229.020513206756"/>
    <line x1="35.4" y1="229.020513206756" x2="35.4000000000001" y2="225.845513206756"/>
    <line x1="35.4000000000001" y1="225.845513206756" x2="38.5749999999999" y2="225.845513206756"/>
    <line x1="38.5749999999999" y1="225.845513206756" x2="38.5749999999999" y2="229.020513206756"/>
    <line x1="38.5749999999999" y1="229.020513206756" x2="41.7500000000004" y2="229.020513206756"/>
    <line x1="41.7500000000004" y1="229.020513206756" x2="41.7500000000001" y2="225.845513206756"/>
    <line x1="41.7500000000001" y1="225.845513206756" x2="44.9250000000002" y2="225.845513206756"/>
    <line x1="44.9250000000002" y1="225.845513206756" x2="44.9250000000001" y2="229.020513206756"/>
    <line x1="44.9250000000001" y1="229.020513206756" x2="48.1000000000001" y2="229.020513206756"/>
    <line x1="48.1000000000001" y1="229.020513206756" x2="48.1000000000003" y2="225.845513206756"/>
    <line x1="48.1000000000003" y1="225.845513206756" x2="51.2750000000003" y2="225.845513206756"/>
    <line x1="51.2750000000003" y1="225.845513206756" x2="51.2750000000001" y2="229.020513206756"/>
    <line x1="51.2750000000001" y1="229.020513206756" x2="54.4499999999997" y2="229.020513206756"/>
    <line x1="54.4499999999997" y1="229.020513206756" x2="54.4499999999994" y2="225.845513206756"/>
    <line x1="54.4499999999994" y1="225.845513206756" x2="57.6249999999997" y2="225.845513206756"/>
    <line x1="57.6249999999997" y1="225.845513206756" x2="57.6250000000001" y2="229.020513206756"/>
    <line x1="57.6250000000001" y1="229.020513206756" x2="60.7999999999999" y2="229.020513206756"/>
    <line x1="60.7999999999999" y1="229.020513206756" x2="60.7999999999999" y2="225.845513206756"/>
    <line x1="60.7999999999999" y1="225.845513206756" x2="63.9750000000001" y2="225.845513206756"/>
    <line x1="63.9750000000001" y1="225.845513206756" x2="63.9749999999997" y2="229.020513206756"/>
    <line x1="63.9749999999997" y1="229.020513206756" x2="67.1499999999999" y2="229.020513206756"/>
    <line x1="67.1499999999999" y1="229.020513206756" x2="67.1499999999997" y2="225.845513206756"/>
    <line x1="67.1499999999997" y1="225.845513206756" x2="70.3249999999999" y2="225.845513206756"/>
    <line x1="70.3249999999999" y1="225.845513206756" x2="70.3249999999999" y2="229.020513206756"/>
    <line x1="70.3249999999999" y1="229.020513206756" x2="73.5000000000001" y2="229.020513206756"/>
    <line x1="73.5000000000001" y1="229.020513206756" x2="73.5000000000001" y2="225.845513206756"/>
    <line x1="73.5000000000001" y1="225.845513206756" x2="76.6749999999998" y2="225.845513206756"/>
    <line x1="76.6749999999998" y1="225.845513206756" x2="76.6749999999998" y2="229.020513206756"/>
    <line x1="76.6749999999998" y1="229.020513206756" x2="79.85" y2="229.020513206756"/>
    <line x1="79.85" y1="229.020513206756" x2="79.8500000000003" y2="225.845513206756"/>
    <line x1="79.8500000000003" y1="225.845513206756" x2="83.0249999999998" y2="225.845513206756"/>
    <line x1="83.0249999999998" y1="225.845513206756" x2="83.0250000000005" y2="229.020513206756"/>
    <line x1="83.0250000000005" y1="229.020513206756" x2="86.2000000000004" y2="229.020513206756"/>
    <line x1="86.2000000000004" y1="229.020513206756" x2="86.2000000000002" y2="225.845513206756"/>
    <line x1="86.2000000000002" y1="225.845513206756" x2="89.3750000000001" y2="225.845513206756"/>
    <line x1="89.3750000000001" y1="225.845513206756" x2="89.3750000000001" y2="229.020513206755"/>
    <line x1="89.3750000000001" y1="229.020513206755" x2="92.5500000000004" y2="229.020513206756"/>
    <line x1="92.5500000000004" y1="229.020513206756" x2="92.55" y2="225.845513206756"/>
    <line x1="92.55" y1="225.845513206756" x2="95.7250000000002" y2="225.845513206756"/>
    <line x1="95.7250000000002" y1="225.845513206756" x2="95.7249999999998" y2="229.020513206756"/>
    <line x1="95.7249999999998" y1="229.020513206756" x2="98.9" y2="229.020513206756"/>
    <line x1="98.9" y1="229.020513206756" x2="98.9" y2="225.845513206756"/>
    <line x1="98.9" y1="225.845513206756" x2="102.075" y2="225.845513206756"/>
    <line x1="102.075" y1="225.845513206756" x2="102.075" y2="229.020513206756"/>
    <line x1="102.075" y1="229.020513206756" x2="105.25" y2="229.020513206756"/>
    <line x1="105.25" y1="229.020513206756" x2="105.25" y2="225.845513206756"/>
    <line x1="105.25" y1="225.845513206756" x2="108.425" y2="225.845513206756"/>
    <line x1="108.425" y1="225.845513206756" x2="108.425" y2="229.020513206756"/>
    <line x1="108.425" y1="229.020513206756" x2="111.6" y2="229.020513206756"/>
    <line x1="111.6" y1="229.020513206756" x2="111.6" y2="225.845513206756"/>
    <line x1="111.6" y1="225.845513206756" x2="114.775" y2="225.845513206756"/>
    <line x1="114.775" y1="225.845513206756" x2="114.775" y2="229.020513206756"/>
    <line x1="114.775" y1="229.020513206756" x2="117.95" y2="229.020513206756"/>
    <line x1="117.95" y1="229.020513206756" x2="117.95" y2="225.845513206756"/>
    <line x1="117.95" y1="225.845513206756" x2="121.125" y2="225.845513206756"/>
    <line x1="121.125" y1="225.845513206756" x2="121.125" y2="229.020513206756"/>
    <line x1="121.125" y1="229.020513206756" x2="124.3" y2="229.020513206756"/>
    <line x1="124.3" y1="229.020513206756" x2="124.3" y2="225.845513206756"/>
    <line x1="124.3" y1="225.845513206756" x2="127.475" y2="225.845513206756"/>
    <line x1="127.475" y1="225.845513206756" x2="127.475" y2="229.020513206756"/>
    <line x1="127.475" y1="229.020513206756" x2="130.650000000001" y2="229.020513206756"/>
    <line x1="130.650000000001" y1="229.020513206756" x2="130.65" y2="225.845513206756"/>
    <line x1="130.65" y1="225.845513206756" x2="133.825" y2="225.845513206756"/>
    <line x1="133.825" y1="225.845513206756" x2="133.825" y2="229.020513206756"/>
    <line x1="133.825" y1="229.020513206756" x2="137.0" y2="229.020513206756"/>
    <line x1="137.0" y1="229.020513206756" x2="137.0" y2="225.845513206756"/>
    <line x1="137.0" y1="225.845513206756" x2="140.175" y2="225.845513206756"/>
    <line x1="140.175" y1="225.845513206756" x2="140.175" y2="229.020513206756"/>
    <line x1="140.175" y1="229.020513206756" x2="143.35" y2="229.020513206756"/>
    <line x1="143.35" y1="229.020513206756" x2="143.35" y2="225.845513206756"/>
    <line x1="143.35" y1="225.845513206756" x2="146.525" y2="225.845513206756"/>
    <line x1="146.525" y1="225.845513206756" x2="146.525" y2="229.020513206756"/>
    <line x1="146.525" y1="229.020513206756" x2="149.7" y2="229.020513206756"/>
    <line x1="149.7" y1="229.020513206756" x2="149.7" y2="225.845513206756"/>
    <line x1="149.7" y1="225.845513206756" x2="152.875" y2="225.845513206756"/>
    <line x1="152.875" y1="225.845513206756" x2="152.875" y2="229.020513206756"/>
    <line x1="152.875" y1="229.020513206756" x2="156.05" y2="229.020513206756"/>
    <line x1="156.05" y1="229.020513206756" x2="156.05" y2="225.845513206756"/>
    <line x1="156.05" y1="225.845513206756" x2="159.224999999999" y2="225.845513206756"/>
    <line x1="159.224999999999" y1="225.845513206756" x2="159.225" y2="229.020513206756"/>
    <line x1="159.225" y1="229.020513206756" x2="162.4" y2="229.020513206756"/>
    <line x1="162.4" y1="229.020513206756" x2="162.4" y2="225.845513206756"/>
    <line x1="162.4" y1="225.845513206756" x2="165.575" y2="225.845513206756"/>
    <line x1="165.575" y1="225.845513206756" x2="165.575" y2="229.020513206756"/>
    <line x1="165.575" y1="229.020513206756" x2="168.75" y2="229.020513206756"/>
    <line x1="168.75" y1="229.020513206756" x2="168.75" y2="225.845513206756"/>
    <line x1="168.75" y1="225.845513206756" x2="171.925" y2="225.845513206756"/>
    <line x1="171.925" y1="225.845513206756" x2="171.925" y2="229.020513206756"/>
    <line x1="171.925" y1="229.020513206756" x2="175.1" y2="229.020513206756"/>
    <line x1="175.1" y1="229.020513206756" x2="175.1" y2="225.845513206756"/>
    <line x1="175.1" y1="225.845513206756" x2="178.275" y2="225.845513206756"/>
    <line x1="178.275" y1="225.845513206756" x2="178.275" y2="229.020513206756"/>
    <line x1="178.275" y1="229.020513206756" x2="181.45" y2="229.020513206756"/>
    <line x1="181.45" y1="229.020513206756" x2="181.45" y2="225.845513206756"/>
    <line x1="181.45" y1="225.845513206756" x2="184.625" y2="225.845513206756"/>
    <line x1="184.625" y1="225.845513206756" x2="184.625" y2="229.020513206756"/>
    <line x1="184.625" y1="229.020513206756" x2="187.8" y2="229.020513206756"/>
    <line x1="187.8" y1="229.020513206756" x2="187.8" y2="225.845513206756"/>
    <line x1="187.8" y1="225.845513206756" x2="190.974999999999" y2="225.845513206756"/>
    <line x1="190.974999999999" y1="225.845513206756" x2="190.975" y2="229.020513206756"/>
    <line x1="190.975" y1="229.020513206756" x2="194.15" y2="229.020513206756"/>
    <line x1="194.15" y1="229.020513206756" x2="194.15" y2="225.845513206756"/>
    <line x1="194.15" y1="225.845513206756" x2="197.325" y2="225.845513206756"/>
    <line x1="197.325" y1="225.845513206756" x2="197.325" y2="229.020513206756"/>
    <line x1="197.325" y1="229.020513206756" x2="200.5" y2="229.020513206756"/>
    <line x1="200.5" y1="229.020513206756" x2="200.5" y2="225.845513206756"/>
    <line x1="200.5" y1="225.845513206756" x2="203.675" y2="225.845513206756"/>
    <line x1="203.675" y1="225.845513206756" x2="203.675" y2="229.020513206756"/>
    <line x1="203.675" y1="229.020513206756" x2="206.849999999999" y2="229.020513206756"/>
    <line x1="206.849999999999" y1="229.020513206756" x2="206.85" y2="225.845513206756"/>
    <line x1="206.85" y1="225.845513206756" x2="210.025" y2="225.845513206756"/>
    <line x1="210.025" y1="225.845513206756" x2="210.025" y2="222.670513206756"/>
    <line x1="210.025" y1="222.670513206756" x2="213.2" y2="222.670513206756"/>
    <line x1="213.2" y1="222.670513206756" x2="213.2" y2="219.495513206756"/>
    <line x1="213.2" y1="219.495513206756" x2="210.025" y2="219.495513206756"/>
    <line x1="210.025" y1="219.495513206756" x2="210.025" y2="216.320513206756"/>
    <line x1="210.025" y1="216.320513206756" x2="213.2" y2="216.320513206756"/>
    <line x1="213.2" y1="216.320513206756" x2="213.2" y2="213.145513206756"/>
    <line x1="213.2" y1="213.145513206756" x2="210.025" y2="213.145513206756"/>
    <line x1="210.025" y1="213.145513206756" x2="210.025" y2="209.970513206756"/>
    <line x1="210.025" y1="209.970513206756" x2="213.2" y2="209.970513206756"/>
    <line x1="213.2" y1="209.970513206756" x2="213.2" y2="206.795513206756"/>
    <line x1="213.2" y1="206.795513206756" x2="210.025" y2="206.795513206756"/>
    <line x1="210.025" y1="206.795513206756" x2="210.025" y2="203.620513206756"/>
    <line x1="210.025" y1="203.620513206756" x2="213.2" y2="203.620513206756"/>
    <line x1="213.2" y1="203.620513206756" x2="213.2" y2="200.445513206756"/>
    <line x1="21.7957104616871" y1="85.2625000000029" x2="21.7957104616858" y2="83.2375000000032"/>
    <line x1="21.7957104616858" y1="83.2375000000032" x2="23.8207104616853" y2="83.2375"/>
    <line x1="23.8207104616853" y1="83.2375" x2="23.8207104616868" y2="85.2625000000002"/>
    <line x1="23.8207104616868" y1="85.2625000000002" x2="21.7957104616871" y2="85.2625000000029"/>
    <line x1="35.2957104616871" y1="85.2624999999949" x2="35.2957104616856" y2="83.2374999999946"/>
    <line x1="35.2957104616856" y1="83.2374999999946" x2="37.3207104616862" y2="83.2374999999936"/>
    <line x1="37.3207104616862" y1="83.2374999999936" x2="37.3207104616876" y2="85.2624999999938"/>
    <line x1="37.3207104616876" y1="85.2624999999938" x2="35.2957104616871" y2="85.2624999999949"/>
    <line x1="50.8207104616874" y1="85.262499999986" x2="48.7957104616878" y2="85.2624999999867"/>
    <line x1="48.7957104616878" y1="85.2624999999867" x2="48.7957104616867" y2="83.2374999999863"/>
    <line x1="48.7957104616867" y1="83.2374999999863" x2="50.820710461686" y2="83.2374999999859"/>
    <line x1="50.820710461686" y1="83.2374999999859" x2="50.8207104616874" y2="85.262499999986"/>
    <line x1="171.538118539109" y1="85.8580132067598" x2="171.538118539108" y2="83.83301320676"/>
    <line x1="171.538118539108" y1="83.83301320676" x2="173.563118539107" y2="83.8330132067568"/>
    <line x1="173.563118539107" y1="83.8330132067568" x2="173.563118539109" y2="85.858013206757"/>
    <line x1="173.563118539109" y1="85.858013206757" x2="171.538118539109" y2="85.8580132067598"/>
    <line x1="200.563118539114" y1="94.8580132067428" x2="198.538118539115" y2="94.8580132067434"/>
    <line x1="198.538118539115" y1="94.8580132067434" x2="198.538118539114" y2="92.8330132067431"/>
    <line x1="198.538118539114" y1="92.8330132067431" x2="200.563118539113" y2="92.8330132067425"/>
    <line x1="200.563118539113" y1="92.8330132067425" x2="200.563118539114" y2="94.8580132067428"/>
    <line x1="173.563118539113" y1="92.8330132067568" x2="173.563118539114" y2="94.858013206757"/>
    <line x1="173.563118539114" y1="94.858013206757" x2="171.538118539114" y2="94.85801320676"/>
    <line x1="171.538118539114" y1="94.85801320676" x2="171.538118539113" y2="92.8330132067593"/>
    <line x1="171.538118539113" y1="92.8330132067593" x2="173.563118539113" y2="92.8330132067568"/>
    <line x1="187.063118539115" y1="94.8580132067505" x2="185.038118539114" y2="94.8580132067517"/>
    <line x1="185.038118539114" y1="94.8580132067517" x2="185.038118539113" y2="92.8330132067515"/>
    <line x1="185.038118539113" y1="92.8330132067515" x2="187.063118539114" y2="92.8330132067504"/>
    <line x1="187.063118539114" y1="92.8330132067504" x2="187.063118539115" y2="94.8580132067505"/>
    <line x1="185.038118539109" y1="85.8580132067518" x2="185.038118539108" y2="83.8330132067515"/>
    <line x1="185.038118539108" y1="83.8330132067515" x2="187.063118539108" y2="83.8330132067505"/>
    <line x1="187.063118539108" y1="83.8330132067505" x2="187.06311853911" y2="85.8580132067506"/>
    <line x1="187.06311853911" y1="85.8580132067506" x2="185.038118539109" y2="85.8580132067518"/>
    <line x1="198.53811853911" y1="85.8580132067436" x2="198.538118539109" y2="83.8330132067431"/>
    <line x1="198.538118539109" y1="83.8330132067431" x2="200.563118539108" y2="83.8330132067427"/>
    <line x1="200.563118539108" y1="83.8330132067427" x2="200.56311853911" y2="85.8580132067429"/>
    <line x1="200.56311853911" y1="85.8580132067429" x2="198.53811853911" y2="85.8580132067436"/>
    <line x1="23.8207104616906" y1="92.2375" x2="23.8207104616918" y2="94.2625000000001"/>
    <line x1="23.8207104616918" y1="94.2625000000001" x2="21.7957104616922" y2="94.2625000000032"/>
    <line x1="21.7957104616922" y1="94.2625000000032" x2="21.7957104616912" y2="92.2375000000026"/>
    <line x1="21.7957104616912" y1="92.2375000000026" x2="23.8207104616906" y2="92.2375"/>
    <line x1="50.8207104616922" y1="94.262499999986" x2="48.7957104616926" y2="94.2624999999865"/>
    <line x1="48.7957104616926" y1="94.2624999999865" x2="48.7957104616916" y2="92.2374999999863"/>
    <line x1="48.7957104616916" y1="92.2374999999863" x2="50.8207104616913" y2="92.2374999999857"/>
    <line x1="50.8207104616913" y1="92.2374999999857" x2="50.8207104616922" y2="94.262499999986"/>
    <line x1="37.3207104616925" y1="94.2624999999936" x2="35.2957104616919" y2="94.2624999999948"/>
    <line x1="35.2957104616919" y1="94.2624999999948" x2="35.2957104616906" y2="92.2374999999946"/>
    <line x1="35.2957104616906" y1="92.2374999999946" x2="37.3207104616917" y2="92.2374999999935"/>
    <line x1="37.3207104616917" y1="92.2374999999935" x2="37.3207104616925" y2="94.2624999999936"/>
    <line x1="206.85" y1="146.470513206756" x2="206.85" y2="149.645513206756"/>
    <line x1="206.85" y1="149.645513206756" x2="181.45" y2="149.645513206756"/>
    <line x1="181.45" y1="149.645513206756" x2="181.45" y2="146.470513206756"/>
    <line x1="181.45" y1="146.470513206756" x2="206.85" y2="146.470513206756"/>
    <line x1="206.85" y1="95.6705132067558" x2="206.85" y2="98.8455132067558"/>
    <line x1="206.85" y1="98.8455132067558" x2="181.45" y2="98.8455132067558"/>
    <line x1="181.45" y1="98.8455132067558" x2="181.45" y2="95.6705132067558"/>
    <line x1="181.45" y1="95.6705132067558" x2="206.85" y2="95.6705132067558"/>
    <line x1="16.35" y1="200.445513206756" x2="16.3500000000001" y2="197.270513206754"/>
    <line x1="16.3500000000001" y1="197.270513206754" x2="41.75" y2="197.270513206755"/>
    <line x1="41.75" y1="197.270513206755" x2="41.75" y2="200.445513206756"/>
    <line x1="41.75" y1="200.445513206756" x2="16.35" y2="200.445513206756"/>
    <line x1="16.35" y1="149.645513206756" x2="16.35" y2="146.470513206756"/>
    <line x1="16.35" y1="146.470513206756" x2="41.75" y2="146.470513206756"/>
    <line x1="41.75" y1="146.470513206756" x2="41.75" y2="149.645513206756"/>
    <line x1="41.75" y1="149.645513206756" x2="16.35" y2="149.645513206756"/>
    <line x1="16.3500000000001" y1="98.8455132067556" x2="16.35" y2="95.6705132067557"/>
    <line x1="16.35" y1="95.6705132067557" x2="41.75" y2="95.6705132067556"/>
    <line x1="41.75" y1="95.6705132067556" x2="41.75" y2="98.8455132067557"/>
    <line x1="41.75" y1="98.8455132067557" x2="16.3500000000001" y2="98.8455132067556"/>
    <line x1="51.2750000000001" y1="222.670513206756" x2="48.1000000000003" y2="222.670513206756"/>
    <line x1="48.1000000000003" y1="222.670513206756" x2="48.1000000000001" y2="197.270513206757"/>
    <line x1="48.1000000000001" y1="197.270513206757" x2="51.2750000000003" y2="197.270513206756"/>
    <line x1="51.2750000000003" y1="197.270513206756" x2="51.2750000000001" y2="222.670513206756"/>
    <line x1="175.1" y1="222.670513206756" x2="171.925" y2="222.670513206756"/>
    <line x1="171.925" y1="222.670513206756" x2="171.925" y2="197.270513206756"/>
    <line x1="171.925" y1="197.270513206756" x2="175.1" y2="197.270513206756"/>
    <line x1="175.1" y1="197.270513206756" x2="175.1" y2="222.670513206756"/>
    <line x1="206.85" y1="197.270513206756" x2="206.85" y2="200.445513206756"/>
    <line x1="206.85" y1="200.445513206756" x2="181.45" y2="200.445513206756"/>
    <line x1="181.45" y1="200.445513206756" x2="181.45" y2="197.270513206756"/>
    <line x1="181.45" y1="197.270513206756" x2="206.85" y2="197.270513206756"/>
  </g>
</svg>
