<?xml version="1.0" standalone="no"?>
<!DOCTYPE svg PUBLIC "-//W3C//DTD SVG 1.1//EN" "http://www.w3.org/Graphics/SVG/1.1/DTD/svg11.dtd">
<svg width="210.5mm" height="105.771091492702mm"
 viewBox="0 0 210.5 105.771091492702"
 xmlns="http://www.w3.org/2000/svg" version="1.1"
 xmlns:xlink="http://www.w3.org/1999/xlink">
<desc>Output from Flights of Ideas SVG Sketchup Plugin</desc>

  <g id="face0" fill="none" stroke="rgb(0,0,255)" stroke-width="1" stroke-miterlimit="4" stroke-dasharray="none" stroke-linejoin="round" stroke-linecap="round">
    <line x1="187.8" y1="81.3755343855349" x2="187.8" y2="60.8000000000001"/>
    <line x1="187.8" y1="60.8000000000001" x2="194.15" y2="60.8000000000002"/>
    <line x1="194.15" y1="60.8000000000002" x2="194.15" y2="57.6250000000002"/>
    <line x1="194.15" y1="57.6250000000002" x2="200.5" y2="57.6250000000004"/>
    <line x1="200.5" y1="57.6250000000004" x2="200.5" y2="54.4500000000005"/>
    <line x1="200.5" y1="54.4500000000005" x2="197.325" y2="54.4500000000001"/>
    <line x1="197.325" y1="54.4500000000001" x2="197.325" y2="51.2750000000001"/>
    <line x1="197.325" y1="51.2750000000001" x2="200.5" y2="51.2750000000002"/>
    <line x1="200.5" y1="51.2750000000002" x2="200.5" y2="48.1000000000002"/>
    <line x1="200.5" y1="48.1000000000002" x2="197.325" y2="48.1000000000001"/>
    <line x1="197.325" y1="48.1000000000001" x2="197.325" y2="44.9250000000001"/>
    <line x1="197.325" y1="44.9250000000001" x2="200.5" y2="44.9250000000001"/>
    <line x1="200.5" y1="44.9250000000001" x2="200.5" y2="41.75"/>
    <line x1="200.5" y1="41.75" x2="197.325" y2="41.7500000000001"/>
    <line x1="197.325" y1="41.7500000000001" x2="197.325" y2="38.575"/>
    <line x1="197.325" y1="38.575" x2="200.5" y2="38.575"/>
    <line x1="200.5" y1="38.575" x2="200.5" y2="35.4"/>
    <line x1="200.5" y1="35.4" x2="197.325" y2="35.4000000000001"/>
    <line x1="197.325" y1="35.4000000000001" x2="197.325" y2="32.2250000000001"/>
    <line x1="197.325" y1="32.2250000000001" x2="200.5" y2="32.2250000000002"/>
    <line x1="200.5" y1="32.2250000000002" x2="200.5" y2="29.0500000000002"/>
    <line x1="200.5" y1="29.0500000000002" x2="197.325" y2="29.0500000000001"/>
    <line x1="197.325" y1="29.0500000000001" x2="197.325" y2="25.8750000000001"/>
    <line x1="197.325" y1="25.8750000000001" x2="200.5" y2="25.875"/>
    <line x1="200.5" y1="25.875" x2="200.5" y2="22.7"/>
    <line x1="200.5" y1="22.7" x2="197.325" y2="22.7"/>
    <line x1="197.325" y1="22.7" x2="197.325" y2="19.525"/>
    <line x1="197.325" y1="19.525" x2="200.5" y2="19.525"/>
    <line x1="200.5" y1="19.525" x2="200.5" y2="16.3500000000001"/>
    <line x1="200.5" y1="16.3500000000001" x2="197.325" y2="16.3500000000001"/>
    <line x1="197.325" y1="16.3500000000001" x2="197.325" y2="10.0"/>
    <line x1="197.325" y1="10.0" x2="194.15" y2="10.0"/>
    <line x1="194.15" y1="10.0" x2="194.15" y2="13.175"/>
    <line x1="194.15" y1="13.175" x2="190.975" y2="13.175"/>
    <line x1="190.975" y1="13.175" x2="190.975" y2="10.0"/>
    <line x1="190.975" y1="10.0" x2="187.8" y2="10.0"/>
    <line x1="187.8" y1="10.0" x2="187.8" y2="13.175"/>
    <line x1="187.8" y1="13.175" x2="184.625" y2="13.175"/>
    <line x1="184.625" y1="13.175" x2="184.625" y2="10.0"/>
    <line x1="184.625" y1="10.0" x2="181.45" y2="10.0"/>
    <line x1="181.45" y1="10.0" x2="181.45" y2="13.175"/>
    <line x1="181.45" y1="13.175" x2="178.275" y2="13.175"/>
    <line x1="178.275" y1="13.175" x2="178.275" y2="10.0"/>
    <line x1="178.275" y1="10.0" x2="175.1" y2="10.0"/>
    <line x1="175.1" y1="10.0" x2="175.1" y2="13.175"/>
    <line x1="175.1" y1="13.175" x2="171.925" y2="13.175"/>
    <line x1="171.925" y1="13.175" x2="171.925" y2="10.0"/>
    <line x1="171.925" y1="10.0" x2="168.75" y2="10.0"/>
    <line x1="168.75" y1="10.0" x2="168.75" y2="13.175"/>
    <line x1="168.75" y1="13.175" x2="165.575" y2="13.175"/>
    <line x1="165.575" y1="13.175" x2="165.575" y2="10.0"/>
    <line x1="165.575" y1="10.0" x2="162.4" y2="10.0"/>
    <line x1="162.4" y1="10.0" x2="162.4" y2="13.175"/>
    <line x1="162.4" y1="13.175" x2="159.225" y2="13.175"/>
    <line x1="159.225" y1="13.175" x2="159.225" y2="10.0"/>
    <line x1="159.225" y1="10.0" x2="156.05" y2="10.0"/>
    <line x1="156.05" y1="10.0" x2="156.05" y2="13.175"/>
    <line x1="156.05" y1="13.175" x2="152.875" y2="13.175"/>
    <line x1="152.875" y1="13.175" x2="152.875" y2="10.0"/>
    <line x1="152.875" y1="10.0" x2="149.7" y2="10.0"/>
    <line x1="149.7" y1="10.0" x2="149.7" y2="13.175"/>
    <line x1="149.7" y1="13.175" x2="146.525" y2="13.175"/>
    <line x1="146.525" y1="13.175" x2="146.525" y2="10.0"/>
    <line x1="146.525" y1="10.0" x2="143.35" y2="10.0"/>
    <line x1="143.35" y1="10.0" x2="143.35" y2="13.175"/>
    <line x1="143.35" y1="13.175" x2="140.175" y2="13.175"/>
    <line x1="140.175" y1="13.175" x2="140.175" y2="10.0"/>
    <line x1="140.175" y1="10.0" x2="137.0" y2="10.0"/>
    <line x1="137.0" y1="10.0" x2="137.0" y2="13.175"/>
    <line x1="137.0" y1="13.175" x2="133.825" y2="13.175"/>
    <line x1="133.825" y1="13.175" x2="133.825" y2="10.0"/>
    <line x1="133.825" y1="10.0" x2="130.65" y2="10.0"/>
    <line x1="130.65" y1="10.0" x2="130.65" y2="13.175"/>
    <line x1="130.65" y1="13.175" x2="127.475" y2="13.175"/>
    <line x1="127.475" y1="13.175" x2="127.475" y2="10.0000000000004"/>
    <line x1="127.475" y1="10.0000000000004" x2="124.3" y2="10.0000000000004"/>
    <line x1="124.3" y1="10.0000000000004" x2="124.3" y2="13.175"/>
    <line x1="124.3" y1="13.175" x2="121.125" y2="13.175"/>
    <line x1="121.125" y1="13.175" x2="121.125" y2="10.0"/>
    <line x1="121.125" y1="10.0" x2="117.95" y2="10.0"/>
    <line x1="117.95" y1="10.0" x2="117.95" y2="13.175"/>
    <line x1="117.95" y1="13.175" x2="114.775" y2="13.175"/>
    <line x1="114.775" y1="13.175" x2="114.775" y2="10.0000000000001"/>
    <line x1="114.775" y1="10.0000000000001" x2="111.6" y2="10.0000000000001"/>
    <line x1="111.6" y1="10.0000000000001" x2="111.6" y2="13.175"/>
    <line x1="111.6" y1="13.175" x2="108.425" y2="13.175"/>
    <line x1="108.425" y1="13.175" x2="108.425" y2="10.0"/>
    <line x1="108.425" y1="10.0" x2="105.25" y2="10.0"/>
    <line x1="105.25" y1="10.0" x2="105.25" y2="13.175"/>
    <line x1="105.25" y1="13.175" x2="102.075" y2="13.175"/>
    <line x1="102.075" y1="13.175" x2="102.075" y2="10.0000000000001"/>
    <line x1="102.075" y1="10.0000000000001" x2="98.8999999999999" y2="10.0"/>
    <line x1="98.8999999999999" y1="10.0" x2="98.8999999999999" y2="13.175"/>
    <line x1="98.8999999999999" y1="13.175" x2="95.7249999999999" y2="13.175"/>
    <line x1="95.7249999999999" y1="13.175" x2="95.7249999999999" y2="10.0"/>
    <line x1="95.7249999999999" y1="10.0" x2="92.5499999999999" y2="10.0000000000001"/>
    <line x1="92.5499999999999" y1="10.0000000000001" x2="92.5499999999999" y2="13.175"/>
    <line x1="92.5499999999999" y1="13.175" x2="89.3749999999999" y2="13.1750000000001"/>
    <line x1="89.3749999999999" y1="13.1750000000001" x2="89.3749999999999" y2="10.0"/>
    <line x1="89.3749999999999" y1="10.0" x2="86.1999999999999" y2="10.0"/>
    <line x1="86.1999999999999" y1="10.0" x2="86.1999999999999" y2="13.175"/>
    <line x1="86.1999999999999" y1="13.175" x2="83.0249999999999" y2="13.1750000000001"/>
    <line x1="83.0249999999999" y1="13.1750000000001" x2="83.0249999999999" y2="10.0000000000001"/>
    <line x1="83.0249999999999" y1="10.0000000000001" x2="79.8499999999999" y2="10.0"/>
    <line x1="79.8499999999999" y1="10.0" x2="79.8499999999999" y2="13.1750000000001"/>
    <line x1="79.8499999999999" y1="13.1750000000001" x2="76.6749999999999" y2="13.175"/>
    <line x1="76.6749999999999" y1="13.175" x2="76.6749999999999" y2="10.0000000000002"/>
    <line x1="76.6749999999999" y1="10.0000000000002" x2="73.4999999999999" y2="10.0000000000002"/>
    <line x1="73.4999999999999" y1="10.0000000000002" x2="73.4999999999999" y2="13.1750000000001"/>
    <line x1="73.4999999999999" y1="13.1750000000001" x2="70.3249999999999" y2="13.175"/>
    <line x1="70.3249999999999" y1="13.175" x2="70.3249999999999" y2="10.0000000000001"/>
    <line x1="70.3249999999999" y1="10.0000000000001" x2="67.1499999999999" y2="10.0"/>
    <line x1="67.1499999999999" y1="10.0" x2="67.1499999999998" y2="13.175"/>
    <line x1="67.1499999999998" y1="13.175" x2="63.9749999999999" y2="13.175"/>
    <line x1="63.9749999999999" y1="13.175" x2="63.9749999999998" y2="10.0000000000001"/>
    <line x1="63.9749999999998" y1="10.0000000000001" x2="60.7999999999999" y2="10.0"/>
    <line x1="60.7999999999999" y1="10.0" x2="60.7999999999999" y2="13.175"/>
    <line x1="60.7999999999999" y1="13.175" x2="57.6249999999999" y2="13.175"/>
    <line x1="57.6249999999999" y1="13.175" x2="57.6249999999999" y2="10.0000000000001"/>
    <line x1="57.6249999999999" y1="10.0000000000001" x2="54.4499999999999" y2="10.0000000000001"/>
    <line x1="54.4499999999999" y1="10.0000000000001" x2="54.4499999999999" y2="13.175"/>
    <line x1="54.4499999999999" y1="13.175" x2="51.2749999999998" y2="13.1750000000001"/>
    <line x1="51.2749999999998" y1="13.1750000000001" x2="51.2749999999999" y2="10.0"/>
    <line x1="51.2749999999999" y1="10.0" x2="48.0999999999999" y2="10.0"/>
    <line x1="48.0999999999999" y1="10.0" x2="48.0999999999999" y2="13.1750000000001"/>
    <line x1="48.0999999999999" y1="13.1750000000001" x2="44.9249999999999" y2="13.175"/>
    <line x1="44.9249999999999" y1="13.175" x2="44.9249999999998" y2="10.0"/>
    <line x1="44.9249999999998" y1="10.0" x2="41.7499999999999" y2="10.0"/>
    <line x1="41.7499999999999" y1="10.0" x2="41.7499999999998" y2="13.1750000000001"/>
    <line x1="41.7499999999998" y1="13.1750000000001" x2="38.5749999999999" y2="13.175"/>
    <line x1="38.5749999999999" y1="13.175" x2="38.5749999999999" y2="10.0"/>
    <line x1="38.5749999999999" y1="10.0" x2="35.3999999999998" y2="10.0000000000001"/>
    <line x1="35.3999999999998" y1="10.0000000000001" x2="35.3999999999999" y2="13.1750000000001"/>
    <line x1="35.3999999999999" y1="13.1750000000001" x2="32.2249999999998" y2="13.1750000000001"/>
    <line x1="32.2249999999998" y1="13.1750000000001" x2="32.2249999999999" y2="10.0"/>
    <line x1="32.2249999999999" y1="10.0" x2="29.0499999999999" y2="10.0000000000001"/>
    <line x1="29.0499999999999" y1="10.0000000000001" x2="29.0499999999999" y2="13.175"/>
    <line x1="29.0499999999999" y1="13.175" x2="25.8749999999999" y2="13.175"/>
    <line x1="25.8749999999999" y1="13.175" x2="25.8749999999999" y2="10.0"/>
    <line x1="25.8749999999999" y1="10.0" x2="22.7" y2="10.0000000000001"/>
    <line x1="22.7" y1="10.0000000000001" x2="22.7" y2="13.175"/>
    <line x1="22.7" y1="13.175" x2="19.525" y2="13.1750000000001"/>
    <line x1="19.525" y1="13.1750000000001" x2="19.5250000000001" y2="10.0"/>
    <line x1="19.5250000000001" y1="10.0" x2="16.35" y2="10.0"/>
    <line x1="16.35" y1="10.0" x2="16.35" y2="13.175"/>
    <line x1="16.35" y1="13.175" x2="13.1750000000001" y2="13.175"/>
    <line x1="13.1750000000001" y1="13.175" x2="13.175" y2="16.3500000000001"/>
    <line x1="13.175" y1="16.3500000000001" x2="10.0" y2="16.3500000000002"/>
    <line x1="10.0" y1="16.3500000000002" x2="10.0" y2="19.5249999999999"/>
    <line x1="10.0" y1="19.5249999999999" x2="13.175" y2="19.5250000000001"/>
    <line x1="13.175" y1="19.5250000000001" x2="13.1750000000002" y2="22.7"/>
    <line x1="13.1750000000002" y1="22.7" x2="10.0000000000002" y2="22.7"/>
    <line x1="10.0000000000002" y1="22.7" x2="10.0000000000002" y2="25.8750000000002"/>
    <line x1="10.0000000000002" y1="25.8750000000002" x2="13.1750000000002" y2="25.8750000000001"/>
    <line x1="13.1750000000002" y1="25.8750000000001" x2="13.1750000000002" y2="29.0500000000001"/>
    <line x1="13.1750000000002" y1="29.0500000000001" x2="10.0000000000002" y2="29.05"/>
    <line x1="10.0000000000002" y1="29.05" x2="10.0000000000002" y2="32.225"/>
    <line x1="10.0000000000002" y1="32.225" x2="13.1750000000002" y2="32.2250000000001"/>
    <line x1="13.1750000000002" y1="32.2250000000001" x2="13.1750000000002" y2="35.4000000000002"/>
    <line x1="13.1750000000002" y1="35.4000000000002" x2="10.0000000000002" y2="35.4"/>
    <line x1="10.0000000000002" y1="35.4" x2="10.0000000000002" y2="38.575"/>
    <line x1="10.0000000000002" y1="38.575" x2="13.1750000000002" y2="38.5749999999999"/>
    <line x1="13.1750000000002" y1="38.5749999999999" x2="13.1750000000004" y2="41.75"/>
    <line x1="13.1750000000004" y1="41.75" x2="10.0000000000004" y2="41.7500000000001"/>
    <line x1="10.0000000000004" y1="41.7500000000001" x2="10.0000000000004" y2="44.9250000000001"/>
    <line x1="10.0000000000004" y1="44.9250000000001" x2="13.1750000000004" y2="44.9250000000002"/>
    <line x1="13.1750000000004" y1="44.9250000000002" x2="13.1750000000004" y2="48.1000000000001"/>
    <line x1="13.1750000000004" y1="48.1000000000001" x2="10.0000000000004" y2="48.1000000000002"/>
    <line x1="10.0000000000004" y1="48.1000000000002" x2="10.0000000000004" y2="51.275"/>
    <line x1="10.0000000000004" y1="51.275" x2="13.1750000000004" y2="51.2750000000001"/>
    <line x1="13.1750000000004" y1="51.2750000000001" x2="13.1750000000004" y2="54.4500000000002"/>
    <line x1="13.1750000000004" y1="54.4500000000002" x2="10.0000000000004" y2="54.4499999999998"/>
    <line x1="10.0000000000004" y1="54.4499999999998" x2="10.0" y2="57.6249999999998"/>
    <line x1="10.0" y1="57.6249999999998" x2="13.1750000000005" y2="57.6250000000001"/>
    <line x1="13.1750000000005" y1="57.6250000000001" x2="13.1750000000007" y2="60.8"/>
    <line x1="13.1750000000007" y1="60.8" x2="16.3500000000002" y2="60.8"/>
    <line x1="16.3500000000002" y1="60.8" x2="16.35" y2="57.6249999999997"/>
    <line x1="16.35" y1="57.6249999999997" x2="19.525" y2="57.625"/>
    <line x1="19.525" y1="57.625" x2="19.5249999999999" y2="60.7999999999998"/>
    <line x1="19.5249999999999" y1="60.7999999999998" x2="22.6999999999999" y2="60.8000000000001"/>
    <line x1="22.6999999999999" y1="60.8000000000001" x2="22.7" y2="83.3750996452512"/>
    <line x1="22.7" y1="83.3750996452512" x2="23.0882210429563" y2="86.3239312289305"/>
    <line x1="23.0882210429563" y1="86.3239312289305" x2="24.3615609683598" y2="89.3980457463511"/>
    <line x1="24.3615609683598" y1="89.3980457463511" x2="26.3871522718866" y2="92.0378477281137"/>
    <line x1="26.3871522718866" y1="92.0378477281137" x2="29.0269542536493" y2="94.0634390316402"/>
    <line x1="29.0269542536493" y1="94.0634390316402" x2="32.1010687710697" y2="95.336778957044"/>
    <line x1="32.1010687710697" y1="95.336778957044" x2="35.4" y2="95.7710914927015"/>
    <line x1="35.4" y1="95.7710914927015" x2="38.6989312289304" y2="95.3367789570435"/>
    <line x1="38.6989312289304" y1="95.3367789570435" x2="41.7730457463508" y2="94.0634390316404"/>
    <line x1="41.7730457463508" y1="94.0634390316404" x2="44.4128477281135" y2="92.0378477281136"/>
    <line x1="44.4128477281135" y1="92.0378477281136" x2="46.4384390316403" y2="89.398045746351"/>
    <line x1="46.4384390316403" y1="89.398045746351" x2="47.7117789570438" y2="86.32393122893"/>
    <line x1="47.7117789570438" y1="86.32393122893" x2="48.1460914927017" y2="83.0249999999989"/>
    <line x1="48.1460914927017" y1="83.0249999999989" x2="48.1" y2="81.3755343855349"/>
    <line x1="48.1" y1="81.3755343855349" x2="48.1" y2="60.7999999999999"/>
    <line x1="48.1" y1="60.7999999999999" x2="48.1" y2="57.625"/>
    <line x1="48.1" y1="57.625" x2="51.275" y2="57.6250000000001"/>
    <line x1="51.275" y1="57.6250000000001" x2="51.275" y2="60.8000000000001"/>
    <line x1="51.275" y1="60.8000000000001" x2="54.45" y2="60.7999999999999"/>
    <line x1="54.45" y1="60.7999999999999" x2="54.45" y2="57.625"/>
    <line x1="54.45" y1="57.625" x2="57.625" y2="57.6250000000001"/>
    <line x1="57.625" y1="57.6250000000001" x2="57.625" y2="60.8000000000002"/>
    <line x1="57.625" y1="60.8000000000002" x2="60.8000000000001" y2="60.8"/>
    <line x1="60.8000000000001" y1="60.8" x2="60.8" y2="57.625"/>
    <line x1="60.8" y1="57.625" x2="63.975" y2="57.6250000000001"/>
    <line x1="63.975" y1="57.6250000000001" x2="63.975" y2="60.8"/>
    <line x1="63.975" y1="60.8" x2="67.15" y2="60.8000000000001"/>
    <line x1="67.15" y1="60.8000000000001" x2="67.15" y2="57.6250000000001"/>
    <line x1="67.15" y1="57.6250000000001" x2="70.325" y2="57.625"/>
    <line x1="70.325" y1="57.625" x2="70.325" y2="60.8000000000001"/>
    <line x1="70.325" y1="60.8000000000001" x2="73.5" y2="60.8000000000001"/>
    <line x1="73.5" y1="60.8000000000001" x2="73.5" y2="57.625"/>
    <line x1="73.5" y1="57.625" x2="76.675" y2="57.625"/>
    <line x1="76.675" y1="57.625" x2="76.675" y2="60.7999999999999"/>
    <line x1="76.675" y1="60.7999999999999" x2="79.85" y2="60.8000000000001"/>
    <line x1="79.85" y1="60.8000000000001" x2="79.85" y2="57.625"/>
    <line x1="79.85" y1="57.625" x2="83.025" y2="57.6250000000001"/>
    <line x1="83.025" y1="57.6250000000001" x2="83.025" y2="60.8000000000001"/>
    <line x1="83.025" y1="60.8000000000001" x2="86.2" y2="60.8000000000001"/>
    <line x1="86.2" y1="60.8000000000001" x2="86.2" y2="57.6250000000001"/>
    <line x1="86.2" y1="57.6250000000001" x2="89.375" y2="57.6250000000001"/>
    <line x1="89.375" y1="57.6250000000001" x2="89.375" y2="60.8000000000001"/>
    <line x1="89.375" y1="60.8000000000001" x2="92.55" y2="60.8"/>
    <line x1="92.55" y1="60.8" x2="92.55" y2="57.6250000000001"/>
    <line x1="92.55" y1="57.6250000000001" x2="95.725" y2="57.6250000000001"/>
    <line x1="95.725" y1="57.6250000000001" x2="95.725" y2="60.8000000000001"/>
    <line x1="95.725" y1="60.8000000000001" x2="98.9" y2="60.8000000000001"/>
    <line x1="98.9" y1="60.8000000000001" x2="98.9" y2="57.625"/>
    <line x1="98.9" y1="57.625" x2="102.075" y2="57.625"/>
    <line x1="102.075" y1="57.625" x2="102.075" y2="60.8000000000001"/>
    <line x1="102.075" y1="60.8000000000001" x2="105.25" y2="60.8000000000001"/>
    <line x1="105.25" y1="60.8000000000001" x2="105.25" y2="57.625"/>
    <line x1="105.25" y1="57.625" x2="108.425" y2="57.6250000000001"/>
    <line x1="108.425" y1="57.6250000000001" x2="108.425" y2="60.8000000000001"/>
    <line x1="108.425" y1="60.8000000000001" x2="111.6" y2="60.8000000000001"/>
    <line x1="111.6" y1="60.8000000000001" x2="111.6" y2="57.625"/>
    <line x1="111.6" y1="57.625" x2="114.775" y2="57.625"/>
    <line x1="114.775" y1="57.625" x2="114.775" y2="60.8000000000001"/>
    <line x1="114.775" y1="60.8000000000001" x2="117.95" y2="60.8"/>
    <line x1="117.95" y1="60.8" x2="117.95" y2="57.625"/>
    <line x1="117.95" y1="57.625" x2="121.125" y2="57.625"/>
    <line x1="121.125" y1="57.625" x2="121.125" y2="60.8000000000001"/>
    <line x1="121.125" y1="60.8000000000001" x2="124.3" y2="60.8000000000001"/>
    <line x1="124.3" y1="60.8000000000001" x2="124.3" y2="57.6250000000001"/>
    <line x1="124.3" y1="57.6250000000001" x2="127.475" y2="57.625"/>
    <line x1="127.475" y1="57.625" x2="127.475" y2="60.8000000000001"/>
    <line x1="127.475" y1="60.8000000000001" x2="130.65" y2="60.8000000000001"/>
    <line x1="130.65" y1="60.8000000000001" x2="130.65" y2="57.625"/>
    <line x1="130.65" y1="57.625" x2="133.825" y2="57.625"/>
    <line x1="133.825" y1="57.625" x2="133.825" y2="60.8000000000001"/>
    <line x1="133.825" y1="60.8000000000001" x2="137.0" y2="60.8000000000001"/>
    <line x1="137.0" y1="60.8000000000001" x2="137.0" y2="57.625"/>
    <line x1="137.0" y1="57.625" x2="140.175" y2="57.625"/>
    <line x1="140.175" y1="57.625" x2="140.175" y2="60.8"/>
    <line x1="140.175" y1="60.8" x2="143.35" y2="60.8000000000001"/>
    <line x1="143.35" y1="60.8000000000001" x2="143.35" y2="57.625"/>
    <line x1="143.35" y1="57.625" x2="146.525" y2="57.625"/>
    <line x1="146.525" y1="57.625" x2="146.525" y2="60.8000000000001"/>
    <line x1="146.525" y1="60.8000000000001" x2="149.7" y2="60.8000000000001"/>
    <line x1="149.7" y1="60.8000000000001" x2="149.7" y2="57.625"/>
    <line x1="149.7" y1="57.625" x2="152.875" y2="57.625"/>
    <line x1="152.875" y1="57.625" x2="152.875" y2="60.7999999999999"/>
    <line x1="152.875" y1="60.7999999999999" x2="156.05" y2="60.7999999999999"/>
    <line x1="156.05" y1="60.7999999999999" x2="156.05" y2="57.625"/>
    <line x1="156.05" y1="57.625" x2="159.225" y2="57.625"/>
    <line x1="159.225" y1="57.625" x2="159.225" y2="60.7999999999999"/>
    <line x1="159.225" y1="60.7999999999999" x2="162.4" y2="60.8000000000001"/>
    <line x1="162.4" y1="60.8000000000001" x2="162.4" y2="82.6749003547502"/>
    <line x1="162.4" y1="82.6749003547502" x2="162.4" y2="83.3750996452498"/>
    <line x1="162.4" y1="83.3750996452498" x2="162.788221042956" y2="86.3239312289304"/>
    <line x1="162.788221042956" y1="86.3239312289304" x2="164.06156096836" y2="89.3980457463508"/>
    <line x1="164.06156096836" y1="89.3980457463508" x2="166.087152271887" y2="92.0378477281134"/>
    <line x1="166.087152271887" y1="92.0378477281134" x2="168.726954253649" y2="94.0634390316403"/>
    <line x1="168.726954253649" y1="94.0634390316403" x2="171.80106877107" y2="95.3367789570438"/>
    <line x1="171.80106877107" y1="95.3367789570438" x2="175.1" y2="95.7710914927017"/>
    <line x1="175.1" y1="95.7710914927017" x2="178.39893122893" y2="95.3367789570438"/>
    <line x1="178.39893122893" y1="95.3367789570438" x2="181.473045746351" y2="94.0634390316403"/>
    <line x1="181.473045746351" y1="94.0634390316403" x2="184.112847728113" y2="92.0378477281134"/>
    <line x1="184.112847728113" y1="92.0378477281134" x2="186.13843903164" y2="89.3980457463508"/>
    <line x1="186.13843903164" y1="89.3980457463508" x2="187.411778957044" y2="86.3239312289304"/>
    <line x1="187.411778957044" y1="86.3239312289304" x2="187.846091492702" y2="83.025"/>
    <line x1="187.846091492702" y1="83.025" x2="187.8" y2="81.3755343855349"/>
    <line x1="105.25" y1="32.225" x2="106.071750468201" y2="32.3331855015322"/>
    <line x1="106.071750468201" y1="32.3331855015322" x2="106.8375" y2="32.6503693429845"/>
    <line x1="106.8375" y1="32.6503693429845" x2="107.495064030267" y2="33.1549359697328"/>
    <line x1="107.495064030267" y1="33.1549359697328" x2="107.999630657016" y2="33.8125"/>
    <line x1="107.999630657016" y1="33.8125" x2="108.316814498468" y2="34.5782495317995"/>
    <line x1="108.316814498468" y1="34.5782495317995" x2="108.425" y2="35.4"/>
    <line x1="108.425" y1="35.4" x2="108.316814498468" y2="36.2217504682006"/>
    <line x1="108.316814498468" y1="36.2217504682006" x2="107.999630657016" y2="36.9875000000001"/>
    <line x1="107.999630657016" y1="36.9875000000001" x2="107.495064030267" y2="37.6450640302674"/>
    <line x1="107.495064030267" y1="37.6450640302674" x2="106.8375" y2="38.1496306570155"/>
    <line x1="106.8375" y1="38.1496306570155" x2="106.071750468201" y2="38.4668144984679"/>
    <line x1="106.071750468201" y1="38.4668144984679" x2="105.25" y2="38.575"/>
    <line x1="105.25" y1="38.575" x2="104.428249531799" y2="38.4668144984679"/>
    <line x1="104.428249531799" y1="38.4668144984679" x2="103.6625" y2="38.1496306570156"/>
    <line x1="103.6625" y1="38.1496306570156" x2="103.004935969733" y2="37.6450640302674"/>
    <line x1="103.004935969733" y1="37.6450640302674" x2="102.500369342984" y2="36.9875"/>
    <line x1="102.500369342984" y1="36.9875" x2="102.183185501532" y2="36.2217504682006"/>
    <line x1="102.183185501532" y1="36.2217504682006" x2="102.075" y2="35.4"/>
    <line x1="102.075" y1="35.4" x2="102.183185501532" y2="34.5782495317995"/>
    <line x1="102.183185501532" y1="34.5782495317995" x2="102.500369342984" y2="33.8125000000001"/>
    <line x1="102.500369342984" y1="33.8125000000001" x2="103.004935969733" y2="33.1549359697327"/>
    <line x1="103.004935969733" y1="33.1549359697327" x2="103.6625" y2="32.6503693429845"/>
    <line x1="103.6625" y1="32.6503693429845" x2="104.428249531799" y2="32.3331855015322"/>
    <line x1="104.428249531799" y1="32.3331855015322" x2="105.25" y2="32.225"/>
    <line x1="35.4" y1="79.8499999999991" x2="36.2217504682006" y2="79.9581855015322"/>
    <line x1="36.2217504682006" y1="79.9581855015322" x2="36.9875" y2="80.2753693429853"/>
    <line x1="36.9875" y1="80.2753693429853" x2="37.6450640302673" y2="80.7799359697294"/>
    <line x1="37.6450640302673" y1="80.7799359697294" x2="38.1496178279887" y2="81.3755343855349"/>
    <line x1="38.1496178279887" y1="81.3755343855349" x2="38.4668144984679" y2="82.2032495318022"/>
    <line x1="38.4668144984679" y1="82.2032495318022" x2="38.575" y2="83.0249999999996"/>
    <line x1="38.575" y1="83.0249999999996" x2="38.4668144984679" y2="83.846750468201"/>
    <line x1="38.4668144984679" y1="83.846750468201" x2="38.1496306570156" y2="84.6125000000006"/>
    <line x1="38.1496306570156" y1="84.6125000000006" x2="37.6450640302674" y2="85.2700640302676"/>
    <line x1="37.6450640302674" y1="85.2700640302676" x2="36.9875" y2="85.7746306570155"/>
    <line x1="36.9875" y1="85.7746306570155" x2="36.2217504682006" y2="86.0918144984676"/>
    <line x1="36.2217504682006" y1="86.0918144984676" x2="35.4" y2="86.2"/>
    <line x1="35.4" y1="86.2" x2="34.5782495317995" y2="86.0918144984682"/>
    <line x1="34.5782495317995" y1="86.0918144984682" x2="33.8125" y2="85.7746306570161"/>
    <line x1="33.8125" y1="85.7746306570161" x2="33.1549359697327" y2="85.2700640302665"/>
    <line x1="33.1549359697327" y1="85.2700640302665" x2="32.6503693429845" y2="84.6124999999998"/>
    <line x1="32.6503693429845" y1="84.6124999999998" x2="32.3331855015322" y2="83.8467504681999"/>
    <line x1="32.3331855015322" y1="83.8467504681999" x2="32.225" y2="83.0250000000015"/>
    <line x1="32.225" y1="83.0250000000015" x2="32.3331855015322" y2="82.2032495318033"/>
    <line x1="32.3331855015322" y1="82.2032495318033" x2="32.6503569686811" y2="81.3755343855349"/>
    <line x1="32.6503569686811" y1="81.3755343855349" x2="33.1549359697327" y2="80.7799359697337"/>
    <line x1="33.1549359697327" y1="80.7799359697337" x2="33.8125" y2="80.2753693429826"/>
    <line x1="33.8125" y1="80.2753693429826" x2="34.5782495317995" y2="79.9581855015325"/>
    <line x1="34.5782495317995" y1="79.9581855015325" x2="35.4" y2="79.8499999999991"/>
    <line x1="175.1" y1="79.85" x2="175.921750468201" y2="79.9581855015322"/>
    <line x1="175.921750468201" y1="79.9581855015322" x2="176.6875" y2="80.2753693429845"/>
    <line x1="176.6875" y1="80.2753693429845" x2="177.345064030267" y2="80.7799359697328"/>
    <line x1="177.345064030267" y1="80.7799359697328" x2="177.849630657016" y2="81.4375000000001"/>
    <line x1="177.849630657016" y1="81.4375000000001" x2="178.166814498468" y2="82.2032495317995"/>
    <line x1="178.166814498468" y1="82.2032495317995" x2="178.275" y2="83.025"/>
    <line x1="178.275" y1="83.025" x2="178.166814498468" y2="83.8467504682006"/>
    <line x1="178.166814498468" y1="83.8467504682006" x2="177.849630657016" y2="84.6125000000001"/>
    <line x1="177.849630657016" y1="84.6125000000001" x2="177.345064030267" y2="85.2700640302673"/>
    <line x1="177.345064030267" y1="85.2700640302673" x2="176.6875" y2="85.7746306570156"/>
    <line x1="176.6875" y1="85.7746306570156" x2="175.921750468201" y2="86.0918144984679"/>
    <line x1="175.921750468201" y1="86.0918144984679" x2="175.1" y2="86.2"/>
    <line x1="175.1" y1="86.2" x2="174.278249531799" y2="86.0918144984679"/>
    <line x1="174.278249531799" y1="86.0918144984679" x2="173.5125" y2="85.7746306570156"/>
    <line x1="173.5125" y1="85.7746306570156" x2="172.854935969733" y2="85.2700640302673"/>
    <line x1="172.854935969733" y1="85.2700640302673" x2="172.350369342984" y2="84.6125000000001"/>
    <line x1="172.350369342984" y1="84.6125000000001" x2="172.033185501532" y2="83.8467504682006"/>
    <line x1="172.033185501532" y1="83.8467504682006" x2="171.925" y2="83.025"/>
    <line x1="171.925" y1="83.025" x2="172.033185501532" y2="82.2032495317995"/>
    <line x1="172.033185501532" y1="82.2032495317995" x2="172.350369342984" y2="81.4374999999998"/>
    <line x1="172.350369342984" y1="81.4374999999998" x2="172.854935969733" y2="80.7799359697327"/>
    <line x1="172.854935969733" y1="80.7799359697327" x2="173.5125" y2="80.2753693429845"/>
    <line x1="173.5125" y1="80.2753693429845" x2="174.278249531799" y2="79.9581855015322"/>
    <line x1="174.278249531799" y1="79.9581855015322" x2="175.1" y2="79.85"/>
  </g>
</svg>
