<?xml version="1.0" standalone="no"?>
<!DOCTYPE svg PUBLIC "-//W3C//DTD SVG 1.1//EN" "http://www.w3.org/Graphics/SVG/1.1/DTD/svg11.dtd">
<svg width="207.325mm" height="210.5mm"
 viewBox="0 0 207.325 210.5"
 xmlns="http://www.w3.org/2000/svg" version="1.1"
 xmlns:xlink="http://www.w3.org/1999/xlink">
<desc>Output from Flights of Ideas SVG Sketchup Plugin</desc>

  <g id="face0" fill="none" stroke="rgb(0,0,255)" stroke-width="1" stroke-miterlimit="4" stroke-dasharray="none" stroke-linejoin="round" stroke-linecap="round">
    <line x1="54.45" y1="60.8" x2="57.625" y2="60.8"/>
    <line x1="57.625" y1="60.8" x2="60.8" y2="60.8"/>
    <line x1="60.8" y1="60.8" x2="60.8" y2="57.625"/>
    <line x1="60.8" y1="57.625" x2="63.975" y2="57.625"/>
    <line x1="63.975" y1="57.625" x2="63.975" y2="60.8"/>
    <line x1="63.975" y1="60.8" x2="67.15" y2="60.8"/>
    <line x1="67.15" y1="60.8" x2="67.15" y2="57.625"/>
    <line x1="67.15" y1="57.625" x2="70.325" y2="57.625"/>
    <line x1="70.325" y1="57.625" x2="70.325" y2="60.8"/>
    <line x1="70.325" y1="60.8" x2="73.5" y2="60.8"/>
    <line x1="73.5" y1="60.8" x2="73.5" y2="57.625"/>
    <line x1="73.5" y1="57.625" x2="76.675" y2="57.625"/>
    <line x1="76.675" y1="57.625" x2="76.675" y2="60.8"/>
    <line x1="76.675" y1="60.8" x2="79.85" y2="60.8"/>
    <line x1="79.85" y1="60.8" x2="79.85" y2="57.6250000000001"/>
    <line x1="79.85" y1="57.6250000000001" x2="83.025" y2="57.625"/>
    <line x1="83.025" y1="57.625" x2="83.025" y2="60.8"/>
    <line x1="83.025" y1="60.8" x2="86.2" y2="60.8"/>
    <line x1="86.2" y1="60.8" x2="86.2" y2="57.625"/>
    <line x1="86.2" y1="57.625" x2="89.375" y2="57.625"/>
    <line x1="89.375" y1="57.625" x2="89.375" y2="60.8"/>
    <line x1="89.375" y1="60.8" x2="92.55" y2="60.8"/>
    <line x1="92.55" y1="60.8" x2="92.55" y2="57.6250000000001"/>
    <line x1="92.55" y1="57.6250000000001" x2="95.725" y2="57.625"/>
    <line x1="95.725" y1="57.625" x2="95.725" y2="60.8"/>
    <line x1="95.725" y1="60.8" x2="98.9" y2="60.8"/>
    <line x1="98.9" y1="60.8" x2="98.9" y2="57.625"/>
    <line x1="98.9" y1="57.625" x2="102.075" y2="57.625"/>
    <line x1="102.075" y1="57.625" x2="102.075" y2="60.8"/>
    <line x1="102.075" y1="60.8" x2="105.25" y2="60.8"/>
    <line x1="105.25" y1="60.8" x2="105.25" y2="57.625"/>
    <line x1="105.25" y1="57.625" x2="108.425" y2="57.6249999999999"/>
    <line x1="108.425" y1="57.6249999999999" x2="108.425" y2="60.8"/>
    <line x1="108.425" y1="60.8" x2="111.6" y2="60.8"/>
    <line x1="111.6" y1="60.8" x2="111.6" y2="57.6250000000001"/>
    <line x1="111.6" y1="57.6250000000001" x2="114.775" y2="57.6250000000002"/>
    <line x1="114.775" y1="57.6250000000002" x2="114.775" y2="60.8"/>
    <line x1="114.775" y1="60.8" x2="117.95" y2="60.8"/>
    <line x1="117.95" y1="60.8" x2="117.95" y2="57.6249999999999"/>
    <line x1="117.95" y1="57.6249999999999" x2="121.125" y2="57.625"/>
    <line x1="121.125" y1="57.625" x2="121.125" y2="60.8"/>
    <line x1="121.125" y1="60.8" x2="124.3" y2="60.8"/>
    <line x1="124.3" y1="60.8" x2="124.3" y2="57.6250000000002"/>
    <line x1="124.3" y1="57.6250000000002" x2="127.475" y2="57.6250000000003"/>
    <line x1="127.475" y1="57.6250000000003" x2="127.475" y2="60.8"/>
    <line x1="127.475" y1="60.8" x2="130.65" y2="60.8"/>
    <line x1="130.65" y1="60.8" x2="130.65" y2="57.6250000000002"/>
    <line x1="130.65" y1="57.6250000000002" x2="133.825" y2="57.625"/>
    <line x1="133.825" y1="57.625" x2="133.825" y2="60.8"/>
    <line x1="133.825" y1="60.8" x2="137.0" y2="60.8"/>
    <line x1="137.0" y1="60.8" x2="137.0" y2="57.6249999999998"/>
    <line x1="137.0" y1="57.6249999999998" x2="140.175" y2="57.6250000000003"/>
    <line x1="140.175" y1="57.6250000000003" x2="140.175" y2="60.8"/>
    <line x1="140.175" y1="60.8" x2="143.35" y2="60.8"/>
    <line x1="143.35" y1="60.8" x2="143.35" y2="57.6250000000001"/>
    <line x1="143.35" y1="57.6250000000001" x2="146.525" y2="57.6250000000001"/>
    <line x1="146.525" y1="57.6250000000001" x2="146.525" y2="60.8"/>
    <line x1="146.525" y1="60.8" x2="149.7" y2="60.8"/>
    <line x1="149.7" y1="60.8" x2="149.7" y2="57.625"/>
    <line x1="149.7" y1="57.625" x2="152.875" y2="57.6249999999998"/>
    <line x1="152.875" y1="57.6249999999998" x2="152.875" y2="60.8"/>
    <line x1="152.875" y1="60.8" x2="156.05" y2="60.8"/>
    <line x1="156.05" y1="60.8" x2="156.05" y2="57.625"/>
    <line x1="156.05" y1="57.625" x2="159.225" y2="57.6250000000001"/>
    <line x1="159.225" y1="57.6250000000001" x2="159.225" y2="60.8"/>
    <line x1="159.225" y1="60.8" x2="162.4" y2="60.8"/>
    <line x1="162.4" y1="60.8" x2="162.4" y2="57.6249999999997"/>
    <line x1="162.4" y1="57.6249999999997" x2="165.575" y2="57.6250000000005"/>
    <line x1="165.575" y1="57.6250000000005" x2="165.575" y2="60.8"/>
    <line x1="165.575" y1="60.8" x2="168.75" y2="60.8"/>
    <line x1="168.75" y1="60.8" x2="168.75" y2="57.6250000000001"/>
    <line x1="168.75" y1="57.6250000000001" x2="171.925" y2="57.625"/>
    <line x1="171.925" y1="57.625" x2="171.925" y2="60.8"/>
    <line x1="171.925" y1="60.8" x2="175.1" y2="60.8"/>
    <line x1="175.1" y1="60.8" x2="175.1" y2="57.6249999999997"/>
    <line x1="175.1" y1="57.6249999999997" x2="178.275" y2="57.6249999999998"/>
    <line x1="178.275" y1="57.6249999999998" x2="178.275" y2="60.8"/>
    <line x1="178.275" y1="60.8" x2="181.45" y2="60.8"/>
    <line x1="181.45" y1="60.8" x2="181.45" y2="57.6249999999991"/>
    <line x1="181.45" y1="57.6249999999991" x2="184.625" y2="57.6249999999995"/>
    <line x1="184.625" y1="57.6249999999995" x2="184.625" y2="60.8"/>
    <line x1="184.625" y1="60.8" x2="187.8" y2="60.8"/>
    <line x1="187.8" y1="60.8" x2="187.8" y2="57.625"/>
    <line x1="187.8" y1="57.625" x2="190.975" y2="57.6249999999993"/>
    <line x1="190.975" y1="57.6249999999993" x2="190.975" y2="60.8"/>
    <line x1="190.975" y1="60.8" x2="197.325" y2="60.8"/>
    <line x1="197.325" y1="60.8" x2="197.325" y2="57.6249999999994"/>
    <line x1="197.325" y1="57.6249999999994" x2="194.15" y2="57.6250000000004"/>
    <line x1="194.15" y1="57.6250000000004" x2="194.15" y2="54.45"/>
    <line x1="194.15" y1="54.45" x2="197.325" y2="54.4499999999998"/>
    <line x1="197.325" y1="54.4499999999998" x2="197.325" y2="51.275"/>
    <line x1="197.325" y1="51.275" x2="194.15" y2="51.2749999999998"/>
    <line x1="194.15" y1="51.2749999999998" x2="194.15" y2="48.1000000000001"/>
    <line x1="194.15" y1="48.1000000000001" x2="197.325" y2="48.1000000000001"/>
    <line x1="197.325" y1="48.1000000000001" x2="197.325" y2="44.9250000000002"/>
    <line x1="197.325" y1="44.9250000000002" x2="194.15" y2="44.9249999999998"/>
    <line x1="194.15" y1="44.9249999999998" x2="194.15" y2="41.7500000000001"/>
    <line x1="194.15" y1="41.7500000000001" x2="197.325" y2="41.75"/>
    <line x1="197.325" y1="41.75" x2="197.325" y2="38.575"/>
    <line x1="197.325" y1="38.575" x2="194.15" y2="38.5750000000002"/>
    <line x1="194.15" y1="38.5750000000002" x2="194.15" y2="35.4"/>
    <line x1="194.15" y1="35.4" x2="197.325" y2="35.4000000000001"/>
    <line x1="197.325" y1="35.4000000000001" x2="197.325" y2="32.2250000000001"/>
    <line x1="197.325" y1="32.2250000000001" x2="194.15" y2="32.2250000000001"/>
    <line x1="194.15" y1="32.2250000000001" x2="194.15" y2="29.0500000000001"/>
    <line x1="194.15" y1="29.0500000000001" x2="197.325" y2="29.0499999999999"/>
    <line x1="197.325" y1="29.0499999999999" x2="197.325" y2="25.8750000000001"/>
    <line x1="197.325" y1="25.8750000000001" x2="194.15" y2="25.875"/>
    <line x1="194.15" y1="25.875" x2="194.15" y2="22.7000000000002"/>
    <line x1="194.15" y1="22.7000000000002" x2="197.325" y2="22.7000000000001"/>
    <line x1="197.325" y1="22.7000000000001" x2="197.325" y2="19.5250000000001"/>
    <line x1="197.325" y1="19.5250000000001" x2="194.15" y2="19.525"/>
    <line x1="194.15" y1="19.525" x2="194.15" y2="16.3500000000001"/>
    <line x1="194.15" y1="16.3500000000001" x2="197.325" y2="16.3500000000001"/>
    <line x1="197.325" y1="16.3500000000001" x2="197.325" y2="10.0"/>
    <line x1="197.325" y1="10.0" x2="194.15" y2="10.0"/>
    <line x1="194.15" y1="10.0" x2="194.15" y2="13.175"/>
    <line x1="194.15" y1="13.175" x2="190.975" y2="13.1750000000001"/>
    <line x1="190.975" y1="13.1750000000001" x2="190.975" y2="10.0"/>
    <line x1="190.975" y1="10.0" x2="187.8" y2="10.0000000000001"/>
    <line x1="187.8" y1="10.0000000000001" x2="187.8" y2="13.175"/>
    <line x1="187.8" y1="13.175" x2="184.625" y2="13.175"/>
    <line x1="184.625" y1="13.175" x2="184.625" y2="10.0"/>
    <line x1="184.625" y1="10.0" x2="181.45" y2="10.0"/>
    <line x1="181.45" y1="10.0" x2="181.45" y2="13.175"/>
    <line x1="181.45" y1="13.175" x2="178.275" y2="13.175"/>
    <line x1="178.275" y1="13.175" x2="178.275" y2="10.0000000000001"/>
    <line x1="178.275" y1="10.0000000000001" x2="175.1" y2="10.0"/>
    <line x1="175.1" y1="10.0" x2="175.1" y2="13.1750000000001"/>
    <line x1="175.1" y1="13.1750000000001" x2="171.925" y2="13.1750000000001"/>
    <line x1="171.925" y1="13.1750000000001" x2="171.925" y2="10.0"/>
    <line x1="171.925" y1="10.0" x2="168.75" y2="10.0"/>
    <line x1="168.75" y1="10.0" x2="168.75" y2="13.1750000000001"/>
    <line x1="168.75" y1="13.1750000000001" x2="165.575" y2="13.1750000000001"/>
    <line x1="165.575" y1="13.1750000000001" x2="165.575" y2="10.0"/>
    <line x1="165.575" y1="10.0" x2="162.4" y2="10.0"/>
    <line x1="162.4" y1="10.0" x2="162.4" y2="13.175"/>
    <line x1="162.4" y1="13.175" x2="159.225" y2="13.175"/>
    <line x1="159.225" y1="13.175" x2="159.225" y2="10.0"/>
    <line x1="159.225" y1="10.0" x2="156.05" y2="10.0000000000001"/>
    <line x1="156.05" y1="10.0000000000001" x2="156.05" y2="13.175"/>
    <line x1="156.05" y1="13.175" x2="152.875" y2="13.175"/>
    <line x1="152.875" y1="13.175" x2="152.875" y2="10.0000000000001"/>
    <line x1="152.875" y1="10.0000000000001" x2="149.7" y2="10.0"/>
    <line x1="149.7" y1="10.0" x2="149.7" y2="13.175"/>
    <line x1="149.7" y1="13.175" x2="146.525" y2="13.1750000000001"/>
    <line x1="146.525" y1="13.1750000000001" x2="146.525" y2="10.0"/>
    <line x1="146.525" y1="10.0" x2="143.35" y2="10.0"/>
    <line x1="143.35" y1="10.0" x2="143.35" y2="13.1750000000001"/>
    <line x1="143.35" y1="13.1750000000001" x2="140.175" y2="13.175"/>
    <line x1="140.175" y1="13.175" x2="140.175" y2="10.0"/>
    <line x1="140.175" y1="10.0" x2="137.0" y2="10.0"/>
    <line x1="137.0" y1="10.0" x2="137.0" y2="13.1750000000001"/>
    <line x1="137.0" y1="13.1750000000001" x2="133.825" y2="13.175"/>
    <line x1="133.825" y1="13.175" x2="133.825" y2="10.0"/>
    <line x1="133.825" y1="10.0" x2="130.65" y2="10.0"/>
    <line x1="130.65" y1="10.0" x2="130.65" y2="13.175"/>
    <line x1="130.65" y1="13.175" x2="127.475" y2="13.175"/>
    <line x1="127.475" y1="13.175" x2="127.475" y2="10.0"/>
    <line x1="127.475" y1="10.0" x2="124.3" y2="10.0000000000001"/>
    <line x1="124.3" y1="10.0000000000001" x2="124.3" y2="13.1750000000001"/>
    <line x1="124.3" y1="13.1750000000001" x2="121.125" y2="13.175"/>
    <line x1="121.125" y1="13.175" x2="121.125" y2="10.0"/>
    <line x1="121.125" y1="10.0" x2="117.95" y2="10.0"/>
    <line x1="117.95" y1="10.0" x2="117.95" y2="13.1750000000001"/>
    <line x1="117.95" y1="13.1750000000001" x2="114.775" y2="13.175"/>
    <line x1="114.775" y1="13.175" x2="114.775" y2="10.0"/>
    <line x1="114.775" y1="10.0" x2="111.6" y2="10.0"/>
    <line x1="111.6" y1="10.0" x2="111.6" y2="13.1750000000001"/>
    <line x1="111.6" y1="13.1750000000001" x2="108.425" y2="13.1750000000001"/>
    <line x1="108.425" y1="13.1750000000001" x2="108.425" y2="10.0000000000001"/>
    <line x1="108.425" y1="10.0000000000001" x2="105.25" y2="10.0000000000001"/>
    <line x1="105.25" y1="10.0000000000001" x2="105.25" y2="13.175"/>
    <line x1="105.25" y1="13.175" x2="102.075" y2="13.1750000000001"/>
    <line x1="102.075" y1="13.1750000000001" x2="102.075" y2="10.0"/>
    <line x1="102.075" y1="10.0" x2="98.8999999999999" y2="10.0000000000001"/>
    <line x1="98.8999999999999" y1="10.0000000000001" x2="98.8999999999999" y2="13.175"/>
    <line x1="98.8999999999999" y1="13.175" x2="95.725" y2="13.175"/>
    <line x1="95.725" y1="13.175" x2="95.725" y2="10.0"/>
    <line x1="95.725" y1="10.0" x2="92.55" y2="10.0"/>
    <line x1="92.55" y1="10.0" x2="92.55" y2="13.175"/>
    <line x1="92.55" y1="13.175" x2="89.375" y2="13.1750000000001"/>
    <line x1="89.375" y1="13.1750000000001" x2="89.375" y2="10.0000000000001"/>
    <line x1="89.375" y1="10.0000000000001" x2="86.1999999999999" y2="10.0"/>
    <line x1="86.1999999999999" y1="10.0" x2="86.1999999999999" y2="13.175"/>
    <line x1="86.1999999999999" y1="13.175" x2="83.025" y2="13.175"/>
    <line x1="83.025" y1="13.175" x2="83.025" y2="10.0"/>
    <line x1="83.025" y1="10.0" x2="79.85" y2="10.0"/>
    <line x1="79.85" y1="10.0" x2="79.85" y2="13.1750000000001"/>
    <line x1="79.85" y1="13.1750000000001" x2="76.675" y2="13.175"/>
    <line x1="76.675" y1="13.175" x2="76.675" y2="10.0"/>
    <line x1="76.675" y1="10.0" x2="73.4999999999999" y2="10.0"/>
    <line x1="73.4999999999999" y1="10.0" x2="73.4999999999999" y2="13.175"/>
    <line x1="73.4999999999999" y1="13.175" x2="70.325" y2="13.175"/>
    <line x1="70.325" y1="13.175" x2="70.325" y2="10.0"/>
    <line x1="70.325" y1="10.0" x2="67.15" y2="10.0"/>
    <line x1="67.15" y1="10.0" x2="67.15" y2="13.175"/>
    <line x1="67.15" y1="13.175" x2="63.975" y2="13.175"/>
    <line x1="63.975" y1="13.175" x2="63.975" y2="10.0"/>
    <line x1="63.975" y1="10.0" x2="60.8" y2="10.0"/>
    <line x1="60.8" y1="10.0" x2="60.8" y2="13.175"/>
    <line x1="60.8" y1="13.175" x2="57.625" y2="13.175"/>
    <line x1="57.625" y1="13.175" x2="57.625" y2="10.0"/>
    <line x1="57.625" y1="10.0" x2="54.45" y2="10.0"/>
    <line x1="54.45" y1="10.0" x2="54.45" y2="13.175"/>
    <line x1="54.45" y1="13.175" x2="51.275" y2="13.175"/>
    <line x1="51.275" y1="13.175" x2="51.275" y2="10.0"/>
    <line x1="51.275" y1="10.0" x2="48.1" y2="10.0"/>
    <line x1="48.1" y1="10.0" x2="48.1" y2="13.175"/>
    <line x1="48.1" y1="13.175" x2="44.925" y2="13.175"/>
    <line x1="44.925" y1="13.175" x2="44.925" y2="10.0"/>
    <line x1="44.925" y1="10.0" x2="41.75" y2="10.0"/>
    <line x1="41.75" y1="10.0" x2="41.75" y2="13.175"/>
    <line x1="41.75" y1="13.175" x2="38.575" y2="13.175"/>
    <line x1="38.575" y1="13.175" x2="38.575" y2="10.0"/>
    <line x1="38.575" y1="10.0" x2="35.4" y2="10.0"/>
    <line x1="35.4" y1="10.0" x2="35.4" y2="13.175"/>
    <line x1="35.4" y1="13.175" x2="32.225" y2="13.175"/>
    <line x1="32.225" y1="13.175" x2="32.225" y2="10.0"/>
    <line x1="32.225" y1="10.0" x2="29.05" y2="10.0"/>
    <line x1="29.05" y1="10.0" x2="29.05" y2="13.175"/>
    <line x1="29.05" y1="13.175" x2="25.875" y2="13.175"/>
    <line x1="25.875" y1="13.175" x2="25.875" y2="10.0"/>
    <line x1="25.875" y1="10.0" x2="22.7" y2="10.0"/>
    <line x1="22.7" y1="10.0" x2="22.7" y2="13.175"/>
    <line x1="22.7" y1="13.175" x2="19.525" y2="13.175"/>
    <line x1="19.525" y1="13.175" x2="19.525" y2="10.0"/>
    <line x1="19.525" y1="10.0" x2="16.35" y2="10.0"/>
    <line x1="16.35" y1="10.0" x2="16.35" y2="13.175"/>
    <line x1="16.35" y1="13.175" x2="13.175" y2="13.1750000000001"/>
    <line x1="13.175" y1="13.1750000000001" x2="13.175" y2="10.0"/>
    <line x1="13.175" y1="10.0" x2="10.0" y2="10.0"/>
    <line x1="10.0" y1="10.0" x2="10.0" y2="16.3500000000001"/>
    <line x1="10.0" y1="16.3500000000001" x2="13.175" y2="16.3500000000001"/>
    <line x1="13.175" y1="16.3500000000001" x2="13.175" y2="19.5250000000001"/>
    <line x1="13.175" y1="19.5250000000001" x2="10.0" y2="19.5250000000001"/>
    <line x1="10.0" y1="19.5250000000001" x2="10.0" y2="22.7000000000001"/>
    <line x1="10.0" y1="22.7000000000001" x2="13.175" y2="22.7000000000001"/>
    <line x1="13.175" y1="22.7000000000001" x2="13.175" y2="25.875"/>
    <line x1="13.175" y1="25.875" x2="10.0" y2="25.875"/>
    <line x1="10.0" y1="25.875" x2="10.0" y2="29.0500000000001"/>
    <line x1="10.0" y1="29.0500000000001" x2="13.175" y2="29.0500000000001"/>
    <line x1="13.175" y1="29.0500000000001" x2="13.175" y2="32.2250000000001"/>
    <line x1="13.175" y1="32.2250000000001" x2="10.0" y2="32.2250000000001"/>
    <line x1="10.0" y1="32.2250000000001" x2="10.0" y2="35.4000000000001"/>
    <line x1="10.0" y1="35.4000000000001" x2="13.175" y2="35.4000000000001"/>
    <line x1="13.175" y1="35.4000000000001" x2="13.175" y2="38.575"/>
    <line x1="13.175" y1="38.575" x2="10.0" y2="38.575"/>
    <line x1="10.0" y1="38.575" x2="10.0" y2="41.7500000000001"/>
    <line x1="10.0" y1="41.7500000000001" x2="13.175" y2="41.7500000000001"/>
    <line x1="13.175" y1="41.7500000000001" x2="13.175" y2="44.9250000000001"/>
    <line x1="13.175" y1="44.9250000000001" x2="10.0" y2="44.9250000000001"/>
    <line x1="10.0" y1="44.9250000000001" x2="10.0" y2="48.1000000000001"/>
    <line x1="10.0" y1="48.1000000000001" x2="13.175" y2="48.1000000000001"/>
    <line x1="13.175" y1="48.1000000000001" x2="13.175" y2="51.275"/>
    <line x1="13.175" y1="51.275" x2="10.0" y2="51.275"/>
    <line x1="10.0" y1="51.275" x2="10.0" y2="54.45"/>
    <line x1="10.0" y1="54.45" x2="13.175" y2="54.45"/>
    <line x1="13.175" y1="54.45" x2="13.175" y2="57.625"/>
    <line x1="13.175" y1="57.625" x2="10.0" y2="57.625"/>
    <line x1="10.0" y1="57.625" x2="10.0" y2="60.8"/>
    <line x1="10.0" y1="60.8" x2="13.175" y2="60.8"/>
    <line x1="13.175" y1="60.8" x2="13.175" y2="63.9750000000001"/>
    <line x1="13.175" y1="63.9750000000001" x2="10.0" y2="63.975"/>
    <line x1="10.0" y1="63.975" x2="10.0" y2="67.15"/>
    <line x1="10.0" y1="67.15" x2="13.175" y2="67.15"/>
    <line x1="13.175" y1="67.15" x2="13.175" y2="70.325"/>
    <line x1="13.175" y1="70.325" x2="10.0" y2="70.3250000000001"/>
    <line x1="10.0" y1="70.3250000000001" x2="10.0" y2="73.5000000000001"/>
    <line x1="10.0" y1="73.5000000000001" x2="13.175" y2="73.5000000000001"/>
    <line x1="13.175" y1="73.5000000000001" x2="13.175" y2="76.675"/>
    <line x1="13.175" y1="76.675" x2="10.0" y2="76.675"/>
    <line x1="10.0" y1="76.675" x2="10.0" y2="79.85"/>
    <line x1="10.0" y1="79.85" x2="13.175" y2="79.85"/>
    <line x1="13.175" y1="79.85" x2="13.175" y2="83.025"/>
    <line x1="13.175" y1="83.025" x2="10.0" y2="83.025"/>
    <line x1="10.0" y1="83.025" x2="10.0" y2="86.2"/>
    <line x1="10.0" y1="86.2" x2="13.175" y2="86.2"/>
    <line x1="13.175" y1="86.2" x2="13.175" y2="89.3749999999999"/>
    <line x1="13.175" y1="89.3749999999999" x2="10.0" y2="89.3749999999999"/>
    <line x1="10.0" y1="89.3749999999999" x2="10.0" y2="92.55"/>
    <line x1="10.0" y1="92.55" x2="13.175" y2="92.55"/>
    <line x1="13.175" y1="92.55" x2="13.175" y2="95.725"/>
    <line x1="13.175" y1="95.725" x2="10.0" y2="95.725"/>
    <line x1="10.0" y1="95.725" x2="10.0" y2="98.9"/>
    <line x1="10.0" y1="98.9" x2="13.175" y2="98.9"/>
    <line x1="13.175" y1="98.9" x2="13.175" y2="102.075"/>
    <line x1="13.175" y1="102.075" x2="10.0" y2="102.075"/>
    <line x1="10.0" y1="102.075" x2="10.0" y2="105.25"/>
    <line x1="10.0" y1="105.25" x2="13.175" y2="105.25"/>
    <line x1="13.175" y1="105.25" x2="13.175" y2="108.425"/>
    <line x1="13.175" y1="108.425" x2="10.0000000000001" y2="108.425"/>
    <line x1="10.0000000000001" y1="108.425" x2="10.0" y2="111.6"/>
    <line x1="10.0" y1="111.6" x2="13.175" y2="111.6"/>
    <line x1="13.175" y1="111.6" x2="13.175" y2="114.775"/>
    <line x1="13.175" y1="114.775" x2="10.0" y2="114.775"/>
    <line x1="10.0" y1="114.775" x2="10.0" y2="117.95"/>
    <line x1="10.0" y1="117.95" x2="13.175" y2="117.95"/>
    <line x1="13.175" y1="117.95" x2="13.175" y2="121.125"/>
    <line x1="13.175" y1="121.125" x2="10.0" y2="121.125"/>
    <line x1="10.0" y1="121.125" x2="10.0" y2="124.3"/>
    <line x1="10.0" y1="124.3" x2="13.175" y2="124.3"/>
    <line x1="13.175" y1="124.3" x2="13.175" y2="127.475"/>
    <line x1="13.175" y1="127.475" x2="10.0" y2="127.475"/>
    <line x1="10.0" y1="127.475" x2="10.0000000000001" y2="130.65"/>
    <line x1="10.0000000000001" y1="130.65" x2="13.175" y2="130.65"/>
    <line x1="13.175" y1="130.65" x2="13.175" y2="133.825"/>
    <line x1="13.175" y1="133.825" x2="10.0" y2="133.825"/>
    <line x1="10.0" y1="133.825" x2="10.0" y2="137.0"/>
    <line x1="10.0" y1="137.0" x2="13.175" y2="137.0"/>
    <line x1="13.175" y1="137.0" x2="13.175" y2="140.175"/>
    <line x1="13.175" y1="140.175" x2="10.0" y2="140.175"/>
    <line x1="10.0" y1="140.175" x2="10.0" y2="143.35"/>
    <line x1="10.0" y1="143.35" x2="13.175" y2="143.35"/>
    <line x1="13.175" y1="143.35" x2="13.175" y2="146.525"/>
    <line x1="13.175" y1="146.525" x2="10.0" y2="146.525"/>
    <line x1="10.0" y1="146.525" x2="10.0" y2="149.7"/>
    <line x1="10.0" y1="149.7" x2="13.175" y2="149.7"/>
    <line x1="13.175" y1="149.7" x2="13.175" y2="152.875"/>
    <line x1="13.175" y1="152.875" x2="10.0" y2="152.875"/>
    <line x1="10.0" y1="152.875" x2="10.0" y2="156.05"/>
    <line x1="10.0" y1="156.05" x2="13.175" y2="156.05"/>
    <line x1="13.175" y1="156.05" x2="13.1750000000001" y2="159.225"/>
    <line x1="13.1750000000001" y1="159.225" x2="10.0" y2="159.225"/>
    <line x1="10.0" y1="159.225" x2="10.0" y2="162.4"/>
    <line x1="10.0" y1="162.4" x2="13.1750000000001" y2="162.4"/>
    <line x1="13.1750000000001" y1="162.4" x2="13.175" y2="165.575"/>
    <line x1="13.175" y1="165.575" x2="10.0" y2="165.575"/>
    <line x1="10.0" y1="165.575" x2="10.0" y2="168.75"/>
    <line x1="10.0" y1="168.75" x2="13.175" y2="168.75"/>
    <line x1="13.175" y1="168.75" x2="13.175" y2="171.925"/>
    <line x1="13.175" y1="171.925" x2="10.0" y2="171.925"/>
    <line x1="10.0" y1="171.925" x2="10.0" y2="175.1"/>
    <line x1="10.0" y1="175.1" x2="13.175" y2="175.1"/>
    <line x1="13.175" y1="175.1" x2="13.175" y2="178.275"/>
    <line x1="13.175" y1="178.275" x2="10.0" y2="178.275"/>
    <line x1="10.0" y1="178.275" x2="10.0" y2="181.45"/>
    <line x1="10.0" y1="181.45" x2="13.175" y2="181.45"/>
    <line x1="13.175" y1="181.45" x2="13.175" y2="184.625"/>
    <line x1="13.175" y1="184.625" x2="10.0" y2="184.625"/>
    <line x1="10.0" y1="184.625" x2="10.0" y2="187.8"/>
    <line x1="10.0" y1="187.8" x2="13.175" y2="187.8"/>
    <line x1="13.175" y1="187.8" x2="13.175" y2="190.975"/>
    <line x1="13.175" y1="190.975" x2="10.0" y2="190.975"/>
    <line x1="10.0" y1="190.975" x2="10.0" y2="194.15"/>
    <line x1="10.0" y1="194.15" x2="10.0" y2="197.325"/>
    <line x1="10.0" y1="197.325" x2="13.1750000000001" y2="197.325"/>
    <line x1="13.1750000000001" y1="197.325" x2="13.175" y2="200.5"/>
    <line x1="13.175" y1="200.5" x2="16.35" y2="200.5"/>
    <line x1="16.35" y1="200.5" x2="16.3500000000001" y2="197.325"/>
    <line x1="16.3500000000001" y1="197.325" x2="19.525" y2="197.325"/>
    <line x1="19.525" y1="197.325" x2="19.5250000000001" y2="200.5"/>
    <line x1="19.5250000000001" y1="200.5" x2="22.7" y2="200.5"/>
    <line x1="22.7" y1="200.5" x2="22.7" y2="197.325"/>
    <line x1="22.7" y1="197.325" x2="25.875" y2="197.325"/>
    <line x1="25.875" y1="197.325" x2="25.875" y2="200.5"/>
    <line x1="25.875" y1="200.5" x2="29.05" y2="200.5"/>
    <line x1="29.05" y1="200.5" x2="29.05" y2="197.325"/>
    <line x1="29.05" y1="197.325" x2="32.225" y2="197.325"/>
    <line x1="32.225" y1="197.325" x2="32.225" y2="200.5"/>
    <line x1="32.225" y1="200.5" x2="35.4" y2="200.5"/>
    <line x1="35.4" y1="200.5" x2="35.4" y2="197.325"/>
    <line x1="35.4" y1="197.325" x2="38.575" y2="197.325"/>
    <line x1="38.575" y1="197.325" x2="38.5750000000001" y2="200.5"/>
    <line x1="38.5750000000001" y1="200.5" x2="41.75" y2="200.5"/>
    <line x1="41.75" y1="200.5" x2="41.75" y2="197.325"/>
    <line x1="41.75" y1="197.325" x2="44.925" y2="197.325"/>
    <line x1="44.925" y1="197.325" x2="44.925" y2="200.5"/>
    <line x1="44.925" y1="200.5" x2="48.1" y2="200.5"/>
    <line x1="48.1" y1="200.5" x2="48.1" y2="197.325"/>
    <line x1="48.1" y1="197.325" x2="51.275" y2="197.325"/>
    <line x1="51.275" y1="197.325" x2="51.275" y2="200.5"/>
    <line x1="51.275" y1="200.5" x2="54.45" y2="200.5"/>
    <line x1="54.45" y1="200.5" x2="54.45" y2="194.15"/>
    <line x1="54.45" y1="194.15" x2="57.625" y2="194.15"/>
    <line x1="57.625" y1="194.15" x2="57.625" y2="190.975"/>
    <line x1="57.625" y1="190.975" x2="54.45" y2="190.975"/>
    <line x1="54.45" y1="190.975" x2="54.45" y2="187.8"/>
    <line x1="54.45" y1="187.8" x2="57.625" y2="187.8"/>
    <line x1="57.625" y1="187.8" x2="57.625" y2="184.625"/>
    <line x1="57.625" y1="184.625" x2="54.45" y2="184.625"/>
    <line x1="54.45" y1="184.625" x2="54.45" y2="181.45"/>
    <line x1="54.45" y1="181.45" x2="57.625" y2="181.45"/>
    <line x1="57.625" y1="181.45" x2="57.625" y2="178.275"/>
    <line x1="57.625" y1="178.275" x2="54.45" y2="178.275"/>
    <line x1="54.45" y1="178.275" x2="54.45" y2="175.1"/>
    <line x1="54.45" y1="175.1" x2="57.6250000000001" y2="175.1"/>
    <line x1="57.6250000000001" y1="175.1" x2="57.625" y2="171.925"/>
    <line x1="57.625" y1="171.925" x2="54.45" y2="171.925"/>
    <line x1="54.45" y1="171.925" x2="54.45" y2="168.75"/>
    <line x1="54.45" y1="168.75" x2="57.625" y2="168.75"/>
    <line x1="57.625" y1="168.75" x2="57.625" y2="165.575"/>
    <line x1="57.625" y1="165.575" x2="54.45" y2="165.575"/>
    <line x1="54.45" y1="165.575" x2="54.45" y2="162.4"/>
    <line x1="54.45" y1="162.4" x2="57.625" y2="162.4"/>
    <line x1="57.625" y1="162.4" x2="57.625" y2="159.225"/>
    <line x1="57.625" y1="159.225" x2="54.45" y2="159.225"/>
    <line x1="54.45" y1="159.225" x2="54.45" y2="156.05"/>
    <line x1="54.45" y1="156.05" x2="57.625" y2="156.05"/>
    <line x1="57.625" y1="156.05" x2="57.625" y2="152.875"/>
    <line x1="57.625" y1="152.875" x2="54.45" y2="152.875"/>
    <line x1="54.45" y1="152.875" x2="54.45" y2="149.7"/>
    <line x1="54.45" y1="149.7" x2="57.625" y2="149.7"/>
    <line x1="57.625" y1="149.7" x2="57.625" y2="146.525"/>
    <line x1="57.625" y1="146.525" x2="54.45" y2="146.525"/>
    <line x1="54.45" y1="146.525" x2="54.45" y2="143.35"/>
    <line x1="54.45" y1="143.35" x2="57.625" y2="143.35"/>
    <line x1="57.625" y1="143.35" x2="57.625" y2="140.175"/>
    <line x1="57.625" y1="140.175" x2="54.45" y2="140.175"/>
    <line x1="54.45" y1="140.175" x2="54.45" y2="137.0"/>
    <line x1="54.45" y1="137.0" x2="57.625" y2="137.0"/>
    <line x1="57.625" y1="137.0" x2="57.625" y2="133.825"/>
    <line x1="57.625" y1="133.825" x2="54.45" y2="133.825"/>
    <line x1="54.45" y1="133.825" x2="54.45" y2="130.65"/>
    <line x1="54.45" y1="130.65" x2="57.625" y2="130.65"/>
    <line x1="57.625" y1="130.65" x2="57.625" y2="127.475"/>
    <line x1="57.625" y1="127.475" x2="54.45" y2="127.475"/>
    <line x1="54.45" y1="127.475" x2="54.45" y2="124.3"/>
    <line x1="54.45" y1="124.3" x2="57.625" y2="124.3"/>
    <line x1="57.625" y1="124.3" x2="57.625" y2="121.125"/>
    <line x1="57.625" y1="121.125" x2="54.45" y2="121.125"/>
    <line x1="54.45" y1="121.125" x2="54.45" y2="117.95"/>
    <line x1="54.45" y1="117.95" x2="57.625" y2="117.95"/>
    <line x1="57.625" y1="117.95" x2="57.625" y2="114.775"/>
    <line x1="57.625" y1="114.775" x2="54.45" y2="114.775"/>
    <line x1="54.45" y1="114.775" x2="54.45" y2="111.6"/>
    <line x1="54.45" y1="111.6" x2="57.625" y2="111.6"/>
    <line x1="57.625" y1="111.6" x2="57.625" y2="108.425"/>
    <line x1="57.625" y1="108.425" x2="54.45" y2="108.425"/>
    <line x1="54.45" y1="108.425" x2="54.45" y2="105.25"/>
    <line x1="54.45" y1="105.25" x2="57.625" y2="105.25"/>
    <line x1="57.625" y1="105.25" x2="57.625" y2="102.075"/>
    <line x1="57.625" y1="102.075" x2="54.45" y2="102.075"/>
    <line x1="54.45" y1="102.075" x2="54.45" y2="98.9"/>
    <line x1="54.45" y1="98.9" x2="57.625" y2="98.9"/>
    <line x1="57.625" y1="98.9" x2="57.625" y2="95.725"/>
    <line x1="57.625" y1="95.725" x2="54.45" y2="95.725"/>
    <line x1="54.45" y1="95.725" x2="54.45" y2="92.5500000000001"/>
    <line x1="54.45" y1="92.5500000000001" x2="57.625" y2="92.5500000000001"/>
    <line x1="57.625" y1="92.5500000000001" x2="57.625" y2="89.375"/>
    <line x1="57.625" y1="89.375" x2="54.45" y2="89.375"/>
    <line x1="54.45" y1="89.375" x2="54.45" y2="86.2"/>
    <line x1="54.45" y1="86.2" x2="57.625" y2="86.2"/>
    <line x1="57.625" y1="86.2" x2="57.625" y2="83.025"/>
    <line x1="57.625" y1="83.025" x2="54.45" y2="83.025"/>
    <line x1="54.45" y1="83.025" x2="54.45" y2="79.8500000000001"/>
    <line x1="54.45" y1="79.8500000000001" x2="57.625" y2="79.8500000000001"/>
    <line x1="57.625" y1="79.8500000000001" x2="57.625" y2="76.675"/>
    <line x1="57.625" y1="76.675" x2="54.45" y2="76.675"/>
    <line x1="54.45" y1="76.675" x2="54.45" y2="73.5"/>
    <line x1="54.45" y1="73.5" x2="57.625" y2="73.5"/>
    <line x1="57.625" y1="73.5" x2="57.625" y2="70.325"/>
    <line x1="57.625" y1="70.325" x2="54.45" y2="70.325"/>
    <line x1="54.45" y1="70.325" x2="54.45" y2="67.1500000000001"/>
    <line x1="54.45" y1="67.1500000000001" x2="57.625" y2="67.1500000000001"/>
    <line x1="57.625" y1="67.1500000000001" x2="57.625" y2="63.9750000000001"/>
    <line x1="57.625" y1="63.9750000000001" x2="54.45" y2="63.9750000000001"/>
    <line x1="54.45" y1="63.9750000000001" x2="54.45" y2="60.8"/>
    <line x1="47.7743325604874" y1="149.676282204444" x2="47.7743325604874" y2="190.951282204444"/>
    <line x1="47.7743325604874" y1="190.951282204444" x2="19.1993325604874" y2="190.951282204444"/>
    <line x1="19.1993325604874" y1="190.951282204444" x2="19.1993325604874" y2="149.676282204444"/>
    <line x1="19.1993325604874" y1="149.676282204444" x2="47.7743325604874" y2="149.676282204444"/>
  </g>
</svg>
