<?xml version="1.0" standalone="no"?>
<!DOCTYPE svg PUBLIC "-//W3C//DTD SVG 1.1//EN" "http://www.w3.org/Graphics/SVG/1.1/DTD/svg11.dtd">
<svg width="73.9750000000109mm" height="228.987666923427mm"
 viewBox="0 0 73.9750000000109 228.987666923427"
 xmlns="http://www.w3.org/2000/svg" version="1.1"
 xmlns:xlink="http://www.w3.org/1999/xlink">
<desc>Output from Flights of Ideas SVG Sketchup Plugin</desc>

  <g id="face0" fill="none" stroke="rgb(0,0,255)" stroke-width="1" stroke-miterlimit="4" stroke-dasharray="none" stroke-linejoin="round" stroke-linecap="round">
    <line x1="13.1750000000037" y1="140.175000000006" x2="13.1750000000038" y2="143.350000000006"/>
    <line x1="13.1750000000038" y1="143.350000000006" x2="10.0000000000038" y2="143.350000000007"/>
    <line x1="10.0000000000038" y1="143.350000000007" x2="10.0000000000039" y2="146.525000000007"/>
    <line x1="10.0000000000039" y1="146.525000000007" x2="13.1750000000039" y2="146.525000000006"/>
    <line x1="13.1750000000039" y1="146.525000000006" x2="13.175000000004" y2="149.700000000006"/>
    <line x1="13.175000000004" y1="149.700000000006" x2="10.0000000000039" y2="149.700000000007"/>
    <line x1="10.0000000000039" y1="149.700000000007" x2="10.0000000000041" y2="152.875000000007"/>
    <line x1="10.0000000000041" y1="152.875000000007" x2="13.1750000000041" y2="152.875000000006"/>
    <line x1="13.1750000000041" y1="152.875000000006" x2="13.1750000000042" y2="156.050000000006"/>
    <line x1="13.1750000000042" y1="156.050000000006" x2="10.0000000000041" y2="156.050000000007"/>
    <line x1="10.0000000000041" y1="156.050000000007" x2="10.0000000000043" y2="159.225000000007"/>
    <line x1="10.0000000000043" y1="159.225000000007" x2="13.1750000000042" y2="159.225000000006"/>
    <line x1="13.1750000000042" y1="159.225000000006" x2="13.1750000000043" y2="162.400000000006"/>
    <line x1="13.1750000000043" y1="162.400000000006" x2="10.0000000000044" y2="162.400000000007"/>
    <line x1="10.0000000000044" y1="162.400000000007" x2="10.0000000000044" y2="165.575000000007"/>
    <line x1="10.0000000000044" y1="165.575000000007" x2="13.1750000000044" y2="165.575000000006"/>
    <line x1="13.1750000000044" y1="165.575000000006" x2="13.1750000000045" y2="168.750000000007"/>
    <line x1="13.1750000000045" y1="168.750000000007" x2="10.0000000000045" y2="168.750000000007"/>
    <line x1="10.0000000000045" y1="168.750000000007" x2="10.0000000000046" y2="171.925000000007"/>
    <line x1="10.0000000000046" y1="171.925000000007" x2="13.1750000000046" y2="171.925000000007"/>
    <line x1="13.1750000000046" y1="171.925000000007" x2="13.1750000000047" y2="175.100000000007"/>
    <line x1="13.1750000000047" y1="175.100000000007" x2="10.0000000000047" y2="175.100000000007"/>
    <line x1="10.0000000000047" y1="175.100000000007" x2="10.0000000000048" y2="178.275000000007"/>
    <line x1="10.0000000000048" y1="178.275000000007" x2="13.1750000000048" y2="178.275000000007"/>
    <line x1="13.1750000000048" y1="178.275000000007" x2="13.1750000000048" y2="181.450000000006"/>
    <line x1="13.1750000000048" y1="181.450000000006" x2="10.0000000000048" y2="181.450000000006"/>
    <line x1="10.0000000000048" y1="181.450000000006" x2="10.0000000000049" y2="184.625000000006"/>
    <line x1="10.0000000000049" y1="184.625000000006" x2="13.175000000005" y2="184.625000000006"/>
    <line x1="13.175000000005" y1="184.625000000006" x2="13.175000000005" y2="187.800000000006"/>
    <line x1="13.175000000005" y1="187.800000000006" x2="10.0000000000051" y2="187.800000000006"/>
    <line x1="10.0000000000051" y1="187.800000000006" x2="10.0000000000051" y2="190.975000000006"/>
    <line x1="10.0000000000051" y1="190.975000000006" x2="13.1750000000052" y2="190.975000000006"/>
    <line x1="13.1750000000052" y1="190.975000000006" x2="13.1750000000052" y2="194.150000000006"/>
    <line x1="13.1750000000052" y1="194.150000000006" x2="10.0000000000052" y2="194.150000000006"/>
    <line x1="10.0000000000052" y1="194.150000000006" x2="10.0000000000053" y2="197.325000000006"/>
    <line x1="10.0000000000053" y1="197.325000000006" x2="13.1750000000054" y2="197.325000000006"/>
    <line x1="13.1750000000054" y1="197.325000000006" x2="13.1750000000054" y2="200.500000000006"/>
    <line x1="13.1750000000054" y1="200.500000000006" x2="10.0000000000055" y2="200.500000000006"/>
    <line x1="10.0000000000055" y1="200.500000000006" x2="10.0000000000055" y2="203.675000000006"/>
    <line x1="10.0000000000055" y1="203.675000000006" x2="13.1750000000055" y2="203.675000000006"/>
    <line x1="13.1750000000055" y1="203.675000000006" x2="13.1750000000056" y2="206.850000000006"/>
    <line x1="13.1750000000056" y1="206.850000000006" x2="10.0000000000056" y2="206.850000000006"/>
    <line x1="10.0000000000056" y1="206.850000000006" x2="10.0000000000057" y2="210.025000000006"/>
    <line x1="10.0000000000057" y1="210.025000000006" x2="13.1750000000056" y2="210.025000000006"/>
    <line x1="13.1750000000056" y1="210.025000000006" x2="13.1750000000058" y2="213.200000000006"/>
    <line x1="13.1750000000058" y1="213.200000000006" x2="14.657615590681" y2="214.427666923431"/>
    <line x1="14.657615590681" y1="214.427666923431" x2="40.8776155906833" y2="218.622866923426"/>
    <line x1="40.8776155906833" y1="218.622866923426" x2="43.1576155906826" y2="218.987666923427"/>
    <line x1="43.1576155906826" y1="218.987666923427" x2="43.15761559068" y2="196.187666923426"/>
    <line x1="43.15761559068" y1="196.187666923426" x2="43.1576155906784" y2="193.907666923427"/>
    <line x1="43.1576155906784" y1="193.907666923427" x2="40.0796155906559" y2="193.907666923427"/>
    <line x1="40.0796155906559" y1="193.907666923427" x2="40.079615590657" y2="203.027666923428"/>
    <line x1="40.079615590657" y1="203.027666923428" x2="35.9756155906568" y2="203.027666923429"/>
    <line x1="35.9756155906568" y1="203.027666923429" x2="35.9756155906558" y2="193.907666923428"/>
    <line x1="35.9756155906558" y1="193.907666923428" x2="34.8356155907023" y2="193.907666923428"/>
    <line x1="34.8356155907023" y1="193.907666923428" x2="31.7576155906798" y2="193.907666923428"/>
    <line x1="31.7576155906798" y1="193.907666923428" x2="30.6176155906786" y2="193.907666923428"/>
    <line x1="30.6176155906786" y1="193.907666923428" x2="30.6176155906785" y2="191.627666923428"/>
    <line x1="30.6176155906785" y1="191.627666923428" x2="31.7576155906782" y2="191.627666923429"/>
    <line x1="31.7576155906782" y1="191.627666923429" x2="31.7576155906755" y2="168.827666923429"/>
    <line x1="31.7576155906755" y1="168.827666923429" x2="31.7576155906755" y2="168.052466923429"/>
    <line x1="31.7576155906755" y1="168.052466923429" x2="34.037615590675" y2="168.052466923429"/>
    <line x1="34.037615590675" y1="168.052466923429" x2="34.0376155906749" y2="169.192466923429"/>
    <line x1="34.0376155906749" y1="169.192466923429" x2="60.2576155906775" y2="173.387666923425"/>
    <line x1="60.2576155906775" y1="173.387666923425" x2="60.8000000000063" y2="173.836783608358"/>
    <line x1="60.8000000000063" y1="173.836783608358" x2="60.8000000000063" y2="171.925000000005"/>
    <line x1="60.8000000000063" y1="171.925000000005" x2="63.9750000000063" y2="171.925000000005"/>
    <line x1="63.9750000000063" y1="171.925000000005" x2="63.9750000000063" y2="168.750000000005"/>
    <line x1="63.9750000000063" y1="168.750000000005" x2="60.8000000000063" y2="168.750000000005"/>
    <line x1="60.8000000000063" y1="168.750000000005" x2="60.8000000000064" y2="165.575000000005"/>
    <line x1="60.8000000000064" y1="165.575000000005" x2="63.9750000000064" y2="165.575000000005"/>
    <line x1="63.9750000000064" y1="165.575000000005" x2="63.9750000000065" y2="162.400000000005"/>
    <line x1="63.9750000000065" y1="162.400000000005" x2="60.8000000000065" y2="162.400000000005"/>
    <line x1="60.8000000000065" y1="162.400000000005" x2="60.8000000000066" y2="159.225000000005"/>
    <line x1="60.8000000000066" y1="159.225000000005" x2="63.9750000000066" y2="159.225000000005"/>
    <line x1="63.9750000000066" y1="159.225000000005" x2="63.9750000000067" y2="156.050000000005"/>
    <line x1="63.9750000000067" y1="156.050000000005" x2="60.8000000000067" y2="156.050000000005"/>
    <line x1="60.8000000000067" y1="156.050000000005" x2="60.8000000000068" y2="152.875000000005"/>
    <line x1="60.8000000000068" y1="152.875000000005" x2="63.9750000000068" y2="152.875000000005"/>
    <line x1="63.9750000000068" y1="152.875000000005" x2="63.9750000000069" y2="149.700000000005"/>
    <line x1="63.9750000000069" y1="149.700000000005" x2="60.8000000000069" y2="149.700000000005"/>
    <line x1="60.8000000000069" y1="149.700000000005" x2="60.800000000007" y2="146.525000000005"/>
    <line x1="60.800000000007" y1="146.525000000005" x2="63.975000000007" y2="146.525000000005"/>
    <line x1="63.975000000007" y1="146.525000000005" x2="63.9750000000071" y2="143.350000000005"/>
    <line x1="63.9750000000071" y1="143.350000000005" x2="60.8000000000071" y2="143.350000000005"/>
    <line x1="60.8000000000071" y1="143.350000000005" x2="60.8000000000072" y2="140.175000000006"/>
    <line x1="60.8000000000072" y1="140.175000000006" x2="63.9750000000072" y2="140.175000000006"/>
    <line x1="63.9750000000072" y1="140.175000000006" x2="63.9750000000073" y2="137.000000000005"/>
    <line x1="63.9750000000073" y1="137.000000000005" x2="60.8000000000073" y2="137.000000000005"/>
    <line x1="60.8000000000073" y1="137.000000000005" x2="60.8000000000074" y2="133.825000000005"/>
    <line x1="60.8000000000074" y1="133.825000000005" x2="63.9750000000074" y2="133.825000000005"/>
    <line x1="63.9750000000074" y1="133.825000000005" x2="63.9750000000074" y2="130.650000000005"/>
    <line x1="63.9750000000074" y1="130.650000000005" x2="60.8000000000075" y2="130.650000000005"/>
    <line x1="60.8000000000075" y1="130.650000000005" x2="60.8000000000076" y2="127.475000000005"/>
    <line x1="60.8000000000076" y1="127.475000000005" x2="63.9750000000075" y2="127.475000000005"/>
    <line x1="63.9750000000075" y1="127.475000000005" x2="63.9750000000076" y2="124.300000000005"/>
    <line x1="63.9750000000076" y1="124.300000000005" x2="60.8000000000077" y2="124.300000000005"/>
    <line x1="60.8000000000077" y1="124.300000000005" x2="60.8000000000077" y2="121.125000000005"/>
    <line x1="60.8000000000077" y1="121.125000000005" x2="63.9750000000077" y2="121.125000000005"/>
    <line x1="63.9750000000077" y1="121.125000000005" x2="63.9750000000078" y2="117.950000000005"/>
    <line x1="63.9750000000078" y1="117.950000000005" x2="60.8000000000078" y2="117.950000000005"/>
    <line x1="60.8000000000078" y1="117.950000000005" x2="60.8000000000079" y2="114.775000000005"/>
    <line x1="60.8000000000079" y1="114.775000000005" x2="63.9750000000079" y2="114.775000000005"/>
    <line x1="63.9750000000079" y1="114.775000000005" x2="63.975000000008" y2="111.600000000005"/>
    <line x1="63.975000000008" y1="111.600000000005" x2="60.800000000008" y2="111.600000000005"/>
    <line x1="60.800000000008" y1="111.600000000005" x2="60.800000000008" y2="108.425000000005"/>
    <line x1="60.800000000008" y1="108.425000000005" x2="63.975000000008" y2="108.425000000005"/>
    <line x1="63.975000000008" y1="108.425000000005" x2="63.9750000000082" y2="105.250000000005"/>
    <line x1="63.9750000000082" y1="105.250000000005" x2="60.8000000000081" y2="105.250000000005"/>
    <line x1="60.8000000000081" y1="105.250000000005" x2="60.8000000000083" y2="102.075000000005"/>
    <line x1="60.8000000000083" y1="102.075000000005" x2="63.9750000000083" y2="102.075000000005"/>
    <line x1="63.9750000000083" y1="102.075000000005" x2="63.9750000000083" y2="98.9000000000053"/>
    <line x1="63.9750000000083" y1="98.9000000000053" x2="60.8000000000083" y2="98.9000000000051"/>
    <line x1="60.8000000000083" y1="98.9000000000051" x2="60.8000000000084" y2="95.7250000000051"/>
    <line x1="60.8000000000084" y1="95.7250000000051" x2="63.9750000000084" y2="95.7250000000053"/>
    <line x1="63.9750000000084" y1="95.7250000000053" x2="63.9750000000085" y2="92.5500000000053"/>
    <line x1="63.9750000000085" y1="92.5500000000053" x2="60.8000000000085" y2="92.5500000000051"/>
    <line x1="60.8000000000085" y1="92.5500000000051" x2="60.8000000000086" y2="89.3750000000051"/>
    <line x1="60.8000000000086" y1="89.3750000000051" x2="63.9750000000087" y2="89.3750000000053"/>
    <line x1="63.9750000000087" y1="89.3750000000053" x2="63.9750000000087" y2="86.2000000000053"/>
    <line x1="63.9750000000087" y1="86.2000000000053" x2="60.8000000000087" y2="86.2000000000051"/>
    <line x1="60.8000000000087" y1="86.2000000000051" x2="60.8000000000088" y2="83.0250000000051"/>
    <line x1="60.8000000000088" y1="83.0250000000051" x2="63.9750000000088" y2="83.0250000000053"/>
    <line x1="63.9750000000088" y1="83.0250000000053" x2="63.9750000000089" y2="79.8500000000053"/>
    <line x1="63.9750000000089" y1="79.8500000000053" x2="60.8000000000089" y2="79.8500000000051"/>
    <line x1="60.8000000000089" y1="79.8500000000051" x2="60.800000000009" y2="76.675000000005"/>
    <line x1="60.800000000009" y1="76.675000000005" x2="63.975000000009" y2="76.6750000000051"/>
    <line x1="63.975000000009" y1="76.6750000000051" x2="63.9750000000091" y2="73.5000000000056"/>
    <line x1="63.9750000000091" y1="73.5000000000056" x2="60.8000000000091" y2="73.5000000000054"/>
    <line x1="60.8000000000091" y1="73.5000000000054" x2="60.8000000000092" y2="70.3250000000054"/>
    <line x1="60.8000000000092" y1="70.3250000000054" x2="63.9750000000092" y2="70.3250000000056"/>
    <line x1="63.9750000000092" y1="70.3250000000056" x2="63.9750000000093" y2="67.1500000000056"/>
    <line x1="63.9750000000093" y1="67.1500000000056" x2="60.8000000000093" y2="67.1500000000055"/>
    <line x1="60.8000000000093" y1="67.1500000000055" x2="60.8000000000093" y2="63.9750000000055"/>
    <line x1="60.8000000000093" y1="63.9750000000055" x2="63.9750000000093" y2="63.9750000000056"/>
    <line x1="63.9750000000093" y1="63.9750000000056" x2="63.9750000000093" y2="60.8000000000056"/>
    <line x1="63.9750000000093" y1="60.8000000000056" x2="60.8000000000094" y2="60.8000000000055"/>
    <line x1="60.8000000000094" y1="60.8000000000055" x2="60.8000000000096" y2="57.6250000000054"/>
    <line x1="60.8000000000096" y1="57.6250000000054" x2="63.9750000000095" y2="57.6250000000056"/>
    <line x1="63.9750000000095" y1="57.6250000000056" x2="63.9750000000096" y2="54.4500000000055"/>
    <line x1="63.9750000000096" y1="54.4500000000055" x2="60.8000000000097" y2="54.4500000000054"/>
    <line x1="60.8000000000097" y1="54.4500000000054" x2="60.8000000000097" y2="51.2750000000054"/>
    <line x1="60.8000000000097" y1="51.2750000000054" x2="63.9750000000097" y2="51.2750000000056"/>
    <line x1="63.9750000000097" y1="51.2750000000056" x2="63.9750000000097" y2="48.1000000000056"/>
    <line x1="63.9750000000097" y1="48.1000000000056" x2="60.8000000000098" y2="48.1000000000054"/>
    <line x1="60.8000000000098" y1="48.1000000000054" x2="60.80000000001" y2="44.9250000000055"/>
    <line x1="60.80000000001" y1="44.9250000000055" x2="63.9750000000099" y2="44.9250000000056"/>
    <line x1="63.9750000000099" y1="44.9250000000056" x2="63.97500000001" y2="41.7500000000057"/>
    <line x1="63.97500000001" y1="41.7500000000057" x2="60.80000000001" y2="41.7500000000055"/>
    <line x1="60.80000000001" y1="41.7500000000055" x2="60.8000000000101" y2="38.5750000000056"/>
    <line x1="60.8000000000101" y1="38.5750000000056" x2="63.97500000001" y2="38.5750000000057"/>
    <line x1="63.97500000001" y1="38.5750000000057" x2="63.9750000000101" y2="35.4000000000056"/>
    <line x1="63.9750000000101" y1="35.4000000000056" x2="60.8000000000102" y2="35.4000000000056"/>
    <line x1="60.8000000000102" y1="35.4000000000056" x2="60.8000000000102" y2="32.2250000000056"/>
    <line x1="60.8000000000102" y1="32.2250000000056" x2="63.9750000000103" y2="32.2250000000056"/>
    <line x1="63.9750000000103" y1="32.2250000000056" x2="63.9750000000103" y2="29.0500000000056"/>
    <line x1="63.9750000000103" y1="29.0500000000056" x2="60.8000000000104" y2="29.0500000000056"/>
    <line x1="60.8000000000104" y1="29.0500000000056" x2="60.8000000000105" y2="25.8750000000056"/>
    <line x1="60.8000000000105" y1="25.8750000000056" x2="63.9750000000104" y2="25.8750000000056"/>
    <line x1="63.9750000000104" y1="25.8750000000056" x2="63.9750000000105" y2="22.7000000000056"/>
    <line x1="63.9750000000105" y1="22.7000000000056" x2="60.8000000000105" y2="22.7000000000056"/>
    <line x1="60.8000000000105" y1="22.7000000000056" x2="60.8000000000106" y2="19.5250000000056"/>
    <line x1="60.8000000000106" y1="19.5250000000056" x2="63.9750000000106" y2="19.5250000000057"/>
    <line x1="63.9750000000106" y1="19.5250000000057" x2="63.9750000000107" y2="16.3500000000057"/>
    <line x1="63.9750000000107" y1="16.3500000000057" x2="60.8000000000107" y2="16.3500000000057"/>
    <line x1="60.8000000000107" y1="16.3500000000057" x2="60.8000000000108" y2="13.1750000000056"/>
    <line x1="60.8000000000108" y1="13.1750000000056" x2="63.9750000000108" y2="13.1750000000057"/>
    <line x1="63.9750000000108" y1="13.1750000000057" x2="63.9750000000109" y2="10.000000000005"/>
    <line x1="63.9750000000109" y1="10.000000000005" x2="57.6250000000002" y2="10.0000000000048"/>
    <line x1="57.6250000000002" y1="10.0000000000048" x2="57.6249999999997" y2="13.1749999999996"/>
    <line x1="57.6249999999997" y1="13.1749999999996" x2="54.4499999999997" y2="13.1749999999997"/>
    <line x1="54.4499999999997" y1="13.1749999999997" x2="54.4499999999998" y2="10.0"/>
    <line x1="54.4499999999998" y1="10.0" x2="51.2749999999997" y2="10.0000000000001"/>
    <line x1="51.2749999999997" y1="10.0000000000001" x2="51.2749999999997" y2="13.1749999999998"/>
    <line x1="51.2749999999997" y1="13.1749999999998" x2="48.0999999999997" y2="13.1749999999999"/>
    <line x1="48.0999999999997" y1="13.1749999999999" x2="48.0999999999997" y2="10.0000000000002"/>
    <line x1="48.0999999999997" y1="10.0000000000002" x2="44.9249999999997" y2="10.0000000000003"/>
    <line x1="44.9249999999997" y1="10.0000000000003" x2="44.9249999999997" y2="13.175"/>
    <line x1="44.9249999999997" y1="13.175" x2="41.7499999999997" y2="13.1750000000001"/>
    <line x1="41.7499999999997" y1="13.1750000000001" x2="41.7499999999997" y2="10.0000000000003"/>
    <line x1="41.7499999999997" y1="10.0000000000003" x2="38.5749999999997" y2="10.0000000000005"/>
    <line x1="38.5749999999997" y1="10.0000000000005" x2="38.5749999999998" y2="13.1750000000001"/>
    <line x1="38.5749999999998" y1="13.1750000000001" x2="35.3999999999997" y2="13.1750000000003"/>
    <line x1="35.3999999999997" y1="13.1750000000003" x2="35.3999999999997" y2="10.0000000000005"/>
    <line x1="35.3999999999997" y1="10.0000000000005" x2="32.2249999999997" y2="10.0000000000006"/>
    <line x1="32.2249999999997" y1="10.0000000000006" x2="32.2249999999997" y2="13.1750000000003"/>
    <line x1="32.2249999999997" y1="13.1750000000003" x2="29.0499999999997" y2="13.1750000000005"/>
    <line x1="29.0499999999997" y1="13.1750000000005" x2="29.0499999999997" y2="10.0000000000007"/>
    <line x1="29.0499999999997" y1="10.0000000000007" x2="25.8749999999997" y2="10.0000000000008"/>
    <line x1="25.8749999999997" y1="10.0000000000008" x2="25.8749999999997" y2="13.1750000000005"/>
    <line x1="25.8749999999997" y1="13.1750000000005" x2="22.6999999999997" y2="13.1750000000006"/>
    <line x1="22.6999999999997" y1="13.1750000000006" x2="22.6999999999998" y2="10.0000000000009"/>
    <line x1="22.6999999999998" y1="10.0000000000009" x2="19.5250000000032" y2="10.0000000000053"/>
    <line x1="19.5250000000032" y1="10.0000000000053" x2="19.5250000000032" y2="13.1750000000053"/>
    <line x1="19.5250000000032" y1="13.1750000000053" x2="16.3500000000087" y2="13.1750000000053"/>
    <line x1="16.3500000000087" y1="13.1750000000053" x2="16.3500000000087" y2="10.0000000000055"/>
    <line x1="16.3500000000087" y1="10.0000000000055" x2="10.0" y2="10.0000000000064"/>
    <line x1="10.0" y1="10.0000000000064" x2="10.0000000000002" y2="13.1750000000071"/>
    <line x1="10.0000000000002" y1="13.1750000000071" x2="13.1750000000002" y2="13.175000000007"/>
    <line x1="13.1750000000002" y1="13.175000000007" x2="13.1750000000002" y2="16.350000000007"/>
    <line x1="13.1750000000002" y1="16.350000000007" x2="10.0000000000002" y2="16.3500000000071"/>
    <line x1="10.0000000000002" y1="16.3500000000071" x2="10.0000000000003" y2="19.525000000007"/>
    <line x1="10.0000000000003" y1="19.525000000007" x2="13.1750000000002" y2="19.5250000000069"/>
    <line x1="13.1750000000002" y1="19.5250000000069" x2="13.1750000000004" y2="22.7000000000069"/>
    <line x1="13.1750000000004" y1="22.7000000000069" x2="10.0000000000004" y2="22.700000000007"/>
    <line x1="10.0000000000004" y1="22.700000000007" x2="10.0000000000005" y2="25.875000000007"/>
    <line x1="10.0000000000005" y1="25.875000000007" x2="13.1750000000005" y2="25.8750000000069"/>
    <line x1="13.1750000000005" y1="25.8750000000069" x2="13.1750000000006" y2="29.0500000000069"/>
    <line x1="13.1750000000006" y1="29.0500000000069" x2="10.0000000000006" y2="29.050000000007"/>
    <line x1="10.0000000000006" y1="29.050000000007" x2="10.0000000000007" y2="32.225000000007"/>
    <line x1="10.0000000000007" y1="32.225000000007" x2="13.1750000000006" y2="32.2250000000069"/>
    <line x1="13.1750000000006" y1="32.2250000000069" x2="13.1750000000007" y2="35.4000000000069"/>
    <line x1="13.1750000000007" y1="35.4000000000069" x2="10.0000000000007" y2="35.400000000007"/>
    <line x1="10.0000000000007" y1="35.400000000007" x2="10.0000000000009" y2="38.575000000007"/>
    <line x1="10.0000000000009" y1="38.575000000007" x2="13.1750000000008" y2="38.5750000000069"/>
    <line x1="13.1750000000008" y1="38.5750000000069" x2="13.1750000000009" y2="41.750000000007"/>
    <line x1="13.1750000000009" y1="41.750000000007" x2="10.0000000000009" y2="41.750000000007"/>
    <line x1="10.0000000000009" y1="41.750000000007" x2="10.000000000001" y2="44.9250000000069"/>
    <line x1="10.000000000001" y1="44.9250000000069" x2="13.175000000001" y2="44.9250000000069"/>
    <line x1="13.175000000001" y1="44.9250000000069" x2="13.1750000000011" y2="48.1000000000069"/>
    <line x1="13.1750000000011" y1="48.1000000000069" x2="10.0000000000011" y2="48.1000000000069"/>
    <line x1="10.0000000000011" y1="48.1000000000069" x2="10.0000000000012" y2="51.2750000000069"/>
    <line x1="10.0000000000012" y1="51.2750000000069" x2="13.1750000000012" y2="51.2750000000069"/>
    <line x1="13.1750000000012" y1="51.2750000000069" x2="13.1750000000013" y2="54.4500000000068"/>
    <line x1="13.1750000000013" y1="54.4500000000068" x2="10.0000000000013" y2="54.4500000000069"/>
    <line x1="10.0000000000013" y1="54.4500000000069" x2="10.0000000000014" y2="57.6250000000069"/>
    <line x1="10.0000000000014" y1="57.6250000000069" x2="13.1750000000014" y2="57.6250000000068"/>
    <line x1="13.1750000000014" y1="57.6250000000068" x2="13.1750000000015" y2="60.8000000000069"/>
    <line x1="13.1750000000015" y1="60.8000000000069" x2="10.0000000000015" y2="60.8000000000069"/>
    <line x1="10.0000000000015" y1="60.8000000000069" x2="10.0000000000016" y2="63.9750000000069"/>
    <line x1="10.0000000000016" y1="63.9750000000069" x2="13.1750000000015" y2="63.9750000000068"/>
    <line x1="13.1750000000015" y1="63.9750000000068" x2="13.1750000000016" y2="67.1500000000069"/>
    <line x1="13.1750000000016" y1="67.1500000000069" x2="10.0000000000016" y2="67.150000000007"/>
    <line x1="10.0000000000016" y1="67.150000000007" x2="10.0000000000017" y2="70.3250000000069"/>
    <line x1="10.0000000000017" y1="70.3250000000069" x2="13.1750000000017" y2="70.3250000000069"/>
    <line x1="13.1750000000017" y1="70.3250000000069" x2="13.1750000000018" y2="73.5000000000069"/>
    <line x1="13.1750000000018" y1="73.5000000000069" x2="10.0000000000018" y2="73.5000000000069"/>
    <line x1="10.0000000000018" y1="73.5000000000069" x2="10.0000000000019" y2="76.6750000000064"/>
    <line x1="10.0000000000019" y1="76.6750000000064" x2="13.1750000000019" y2="76.6750000000064"/>
    <line x1="13.1750000000019" y1="76.6750000000064" x2="13.1750000000019" y2="79.8500000000065"/>
    <line x1="13.1750000000019" y1="79.8500000000065" x2="10.000000000002" y2="79.8500000000066"/>
    <line x1="10.000000000002" y1="79.8500000000066" x2="10.0000000000021" y2="83.0250000000065"/>
    <line x1="10.0000000000021" y1="83.0250000000065" x2="13.1750000000021" y2="83.0250000000065"/>
    <line x1="13.1750000000021" y1="83.0250000000065" x2="13.1750000000022" y2="86.2000000000065"/>
    <line x1="13.1750000000022" y1="86.2000000000065" x2="10.0000000000022" y2="86.2000000000065"/>
    <line x1="10.0000000000022" y1="86.2000000000065" x2="10.0000000000023" y2="89.3750000000065"/>
    <line x1="10.0000000000023" y1="89.3750000000065" x2="13.1750000000023" y2="89.3750000000065"/>
    <line x1="13.1750000000023" y1="89.3750000000065" x2="13.1750000000002" y2="92.2720791340105"/>
    <line x1="13.1750000000002" y1="92.2720791340105" x2="13.1750000000024" y2="92.5500000000064"/>
    <line x1="13.1750000000024" y1="92.5500000000064" x2="10.0000000000024" y2="92.5500000000064"/>
    <line x1="10.0000000000024" y1="92.5500000000064" x2="10.0000000000025" y2="95.7250000000064"/>
    <line x1="10.0000000000025" y1="95.7250000000064" x2="13.1750000000025" y2="95.7250000000064"/>
    <line x1="13.1750000000025" y1="95.7250000000064" x2="13.1750000000026" y2="98.9000000000064"/>
    <line x1="13.1750000000026" y1="98.9000000000064" x2="10.0000000000026" y2="98.9000000000064"/>
    <line x1="10.0000000000026" y1="98.9000000000064" x2="10.0000000000026" y2="102.075000000006"/>
    <line x1="10.0000000000026" y1="102.075000000006" x2="13.1750000000026" y2="102.075000000006"/>
    <line x1="13.1750000000026" y1="102.075000000006" x2="13.1750000000027" y2="105.250000000006"/>
    <line x1="13.1750000000027" y1="105.250000000006" x2="10.0000000000027" y2="105.250000000006"/>
    <line x1="10.0000000000027" y1="105.250000000006" x2="10.0000000000028" y2="108.425000000006"/>
    <line x1="10.0000000000028" y1="108.425000000006" x2="13.1750000000028" y2="108.425000000006"/>
    <line x1="13.1750000000028" y1="108.425000000006" x2="13.1750000000029" y2="111.600000000007"/>
    <line x1="13.1750000000029" y1="111.600000000007" x2="10.0000000000029" y2="111.600000000007"/>
    <line x1="10.0000000000029" y1="111.600000000007" x2="10.000000000003" y2="114.775000000007"/>
    <line x1="10.000000000003" y1="114.775000000007" x2="13.175000000003" y2="114.775000000006"/>
    <line x1="13.175000000003" y1="114.775000000006" x2="13.1750000000031" y2="117.950000000006"/>
    <line x1="13.1750000000031" y1="117.950000000006" x2="10.0000000000031" y2="117.950000000007"/>
    <line x1="10.0000000000031" y1="117.950000000007" x2="10.0000000000032" y2="121.125000000007"/>
    <line x1="10.0000000000032" y1="121.125000000007" x2="13.1750000000032" y2="121.125000000006"/>
    <line x1="13.1750000000032" y1="121.125000000006" x2="13.1750000000033" y2="124.300000000006"/>
    <line x1="13.1750000000033" y1="124.300000000006" x2="10.0000000000033" y2="124.300000000007"/>
    <line x1="10.0000000000033" y1="124.300000000007" x2="10.0000000000033" y2="127.475000000007"/>
    <line x1="10.0000000000033" y1="127.475000000007" x2="13.1750000000033" y2="127.475000000006"/>
    <line x1="13.1750000000033" y1="127.475000000006" x2="13.1750000000035" y2="130.650000000006"/>
    <line x1="13.1750000000035" y1="130.650000000006" x2="10.0000000000035" y2="130.650000000007"/>
    <line x1="10.0000000000035" y1="130.650000000007" x2="10.0000000000035" y2="133.825000000007"/>
    <line x1="10.0000000000035" y1="133.825000000007" x2="13.1750000000035" y2="133.825000000006"/>
    <line x1="13.1750000000035" y1="133.825000000006" x2="13.1750000000036" y2="137.000000000006"/>
    <line x1="13.1750000000036" y1="137.000000000006" x2="10.0000000000036" y2="137.000000000007"/>
    <line x1="10.0000000000036" y1="137.000000000007" x2="10.0000000000037" y2="140.175000000006"/>
    <line x1="10.0000000000037" y1="140.175000000006" x2="13.1750000000037" y2="140.175000000006"/>
    <line x1="48.9681592946319" y1="43.1447487531996" x2="23.5681592946319" y2="43.1447487531996"/>
    <line x1="23.5681592946319" y1="43.1447487531996" x2="23.5681592946319" y2="22.4426365887284"/>
    <line x1="23.5681592946319" y1="22.4426365887284" x2="48.9681592946318" y2="22.4426365887276"/>
    <line x1="48.9681592946318" y1="22.4426365887276" x2="48.9681592946319" y2="43.1447487531996"/>
    <line x1="41.7500000000027" y1="92.2720791340525" x2="16.3500000000028" y2="92.2720791340525"/>
    <line x1="16.3500000000028" y1="92.2720791340525" x2="16.3500000000028" y2="89.0970791340525"/>
    <line x1="16.3500000000028" y1="89.0970791340525" x2="41.7500000000027" y2="89.0970791340525"/>
    <line x1="41.7500000000027" y1="89.0970791340525" x2="41.7500000000027" y2="92.2720791340525"/>
    <line x1="41.7500000000027" y1="143.349999999921" x2="16.3500000000028" y2="143.349999999921"/>
    <line x1="16.3500000000028" y1="143.349999999921" x2="16.3500000000028" y2="140.175000000006"/>
    <line x1="16.3500000000028" y1="140.175000000006" x2="41.7500000000027" y2="140.175000000006"/>
    <line x1="41.7500000000027" y1="140.175000000006" x2="41.7500000000027" y2="143.349999999921"/>
  </g>
</svg>
