<?xml version="1.0" standalone="no"?>
<!DOCTYPE svg PUBLIC "-//W3C//DTD SVG 1.1//EN" "http://www.w3.org/Graphics/SVG/1.1/DTD/svg11.dtd">
<svg width="73.9750000000004mm" height="248.522333076578mm"
 viewBox="0 0 73.9750000000004 248.522333076578"
 xmlns="http://www.w3.org/2000/svg" version="1.1"
 xmlns:xlink="http://www.w3.org/1999/xlink">
<desc>Output from Flights of Ideas SVG Sketchup Plugin</desc>

  <g id="face0" fill="none" stroke="rgb(0,0,255)" stroke-width="1" stroke-miterlimit="4" stroke-dasharray="none" stroke-linejoin="round" stroke-linecap="round">
    <line x1="10.0000000000038" y1="60.8" x2="13.1750000000037" y2="60.8"/>
    <line x1="13.1750000000037" y1="60.8" x2="13.1750000000037" y2="63.9750000000002"/>
    <line x1="13.1750000000037" y1="63.9750000000002" x2="10.0000000000037" y2="63.975"/>
    <line x1="10.0000000000037" y1="63.975" x2="10.0000000000036" y2="67.15"/>
    <line x1="10.0000000000036" y1="67.15" x2="13.1750000000035" y2="67.1500000000002"/>
    <line x1="13.1750000000035" y1="67.1500000000002" x2="13.1750000000035" y2="70.3250000000002"/>
    <line x1="13.1750000000035" y1="70.3250000000002" x2="10.0000000000035" y2="70.325"/>
    <line x1="10.0000000000035" y1="70.325" x2="10.0000000000034" y2="73.5"/>
    <line x1="10.0000000000034" y1="73.5" x2="13.1750000000034" y2="73.5000000000002"/>
    <line x1="13.1750000000034" y1="73.5000000000002" x2="13.1750000000033" y2="76.6750000000002"/>
    <line x1="13.1750000000033" y1="76.6750000000002" x2="10.0000000000033" y2="76.675"/>
    <line x1="10.0000000000033" y1="76.675" x2="10.0000000000032" y2="79.85"/>
    <line x1="10.0000000000032" y1="79.85" x2="13.1750000000032" y2="79.8500000000002"/>
    <line x1="13.1750000000032" y1="79.8500000000002" x2="13.1750000000031" y2="83.0250000000002"/>
    <line x1="13.1750000000031" y1="83.0250000000002" x2="10.0000000000031" y2="83.025"/>
    <line x1="10.0000000000031" y1="83.025" x2="10.0000000000031" y2="86.2"/>
    <line x1="10.0000000000031" y1="86.2" x2="13.175000000003" y2="86.2000000000002"/>
    <line x1="13.175000000003" y1="86.2000000000002" x2="13.1750000000029" y2="89.3750000000002"/>
    <line x1="13.1750000000029" y1="89.3750000000002" x2="10.000000000003" y2="89.375"/>
    <line x1="10.000000000003" y1="89.375" x2="10.0000000000029" y2="92.55"/>
    <line x1="10.0000000000029" y1="92.55" x2="13.1750000000028" y2="92.5500000000002"/>
    <line x1="13.1750000000028" y1="92.5500000000002" x2="13.1750000000028" y2="95.7250000000002"/>
    <line x1="13.1750000000028" y1="95.7250000000002" x2="10.0000000000028" y2="95.725"/>
    <line x1="10.0000000000028" y1="95.725" x2="10.0000000000027" y2="98.9"/>
    <line x1="10.0000000000027" y1="98.9" x2="13.1750000000027" y2="98.9000000000002"/>
    <line x1="13.1750000000027" y1="98.9000000000002" x2="13.1750000000026" y2="102.075"/>
    <line x1="13.1750000000026" y1="102.075" x2="10.0000000000026" y2="102.075"/>
    <line x1="10.0000000000026" y1="102.075" x2="10.0000000000025" y2="105.25"/>
    <line x1="10.0000000000025" y1="105.25" x2="13.1750000000025" y2="105.25"/>
    <line x1="13.1750000000025" y1="105.25" x2="13.1750000000024" y2="108.425"/>
    <line x1="13.1750000000024" y1="108.425" x2="10.0000000000024" y2="108.425"/>
    <line x1="10.0000000000024" y1="108.425" x2="10.0000000000023" y2="111.6"/>
    <line x1="10.0000000000023" y1="111.6" x2="13.1750000000023" y2="111.6"/>
    <line x1="13.1750000000023" y1="111.6" x2="13.1750000000022" y2="114.775"/>
    <line x1="13.1750000000022" y1="114.775" x2="10.0000000000022" y2="114.775"/>
    <line x1="10.0000000000022" y1="114.775" x2="10.0000000000022" y2="117.95"/>
    <line x1="10.0000000000022" y1="117.95" x2="13.1750000000021" y2="117.95"/>
    <line x1="13.1750000000021" y1="117.95" x2="13.1750000000021" y2="121.125"/>
    <line x1="13.1750000000021" y1="121.125" x2="10.0000000000021" y2="121.125"/>
    <line x1="10.0000000000021" y1="121.125" x2="10.000000000002" y2="124.3"/>
    <line x1="10.000000000002" y1="124.3" x2="13.1750000000019" y2="124.3"/>
    <line x1="13.1750000000019" y1="124.3" x2="13.1750000000019" y2="127.475"/>
    <line x1="13.1750000000019" y1="127.475" x2="10.0000000000019" y2="127.475"/>
    <line x1="10.0000000000019" y1="127.475" x2="10.0000000000018" y2="130.65"/>
    <line x1="10.0000000000018" y1="130.65" x2="13.1750000000018" y2="130.65"/>
    <line x1="13.1750000000018" y1="130.65" x2="13.1750000000017" y2="133.825"/>
    <line x1="13.1750000000017" y1="133.825" x2="10.0000000000017" y2="133.825"/>
    <line x1="10.0000000000017" y1="133.825" x2="10.0000000000016" y2="137.0"/>
    <line x1="10.0000000000016" y1="137.0" x2="13.1750000000015" y2="137.0"/>
    <line x1="13.1750000000015" y1="137.0" x2="13.1750000000015" y2="140.175"/>
    <line x1="13.1750000000015" y1="140.175" x2="10.0000000000015" y2="140.175"/>
    <line x1="10.0000000000015" y1="140.175" x2="10.0000000000014" y2="143.35"/>
    <line x1="10.0000000000014" y1="143.35" x2="13.1750000000014" y2="143.35"/>
    <line x1="13.1750000000014" y1="143.35" x2="13.1750000000013" y2="146.525"/>
    <line x1="13.1750000000013" y1="146.525" x2="10.0000000000013" y2="146.525"/>
    <line x1="10.0000000000013" y1="146.525" x2="10.0000000000013" y2="149.7"/>
    <line x1="10.0000000000013" y1="149.7" x2="13.1750000000013" y2="149.7"/>
    <line x1="13.1750000000013" y1="149.7" x2="13.1750000000011" y2="152.875"/>
    <line x1="13.1750000000011" y1="152.875" x2="10.0000000000011" y2="152.875"/>
    <line x1="10.0000000000011" y1="152.875" x2="10.000000000001" y2="156.05"/>
    <line x1="10.000000000001" y1="156.05" x2="13.175000000001" y2="156.05"/>
    <line x1="13.175000000001" y1="156.05" x2="13.175000000001" y2="159.225"/>
    <line x1="13.175000000001" y1="159.225" x2="10.000000000001" y2="159.225"/>
    <line x1="10.000000000001" y1="159.225" x2="10.0000000000009" y2="162.4"/>
    <line x1="10.0000000000009" y1="162.4" x2="13.1750000000008" y2="162.4"/>
    <line x1="13.1750000000008" y1="162.4" x2="13.1750000000008" y2="165.575"/>
    <line x1="13.1750000000008" y1="165.575" x2="10.0000000000008" y2="165.575"/>
    <line x1="10.0000000000008" y1="165.575" x2="10.0000000000007" y2="168.75"/>
    <line x1="10.0000000000007" y1="168.75" x2="13.1750000000007" y2="168.75"/>
    <line x1="13.1750000000007" y1="168.75" x2="13.1750000000006" y2="171.925"/>
    <line x1="13.1750000000006" y1="171.925" x2="10.0000000000006" y2="171.925"/>
    <line x1="10.0000000000006" y1="171.925" x2="10.0000000000005" y2="175.1"/>
    <line x1="10.0000000000005" y1="175.1" x2="13.1750000000005" y2="175.1"/>
    <line x1="13.1750000000005" y1="175.1" x2="13.1750000000003" y2="178.275"/>
    <line x1="13.1750000000003" y1="178.275" x2="10.0000000000004" y2="178.275"/>
    <line x1="10.0000000000004" y1="178.275" x2="10.0000000000003" y2="181.45"/>
    <line x1="10.0000000000003" y1="181.45" x2="13.1750000000003" y2="181.45"/>
    <line x1="13.1750000000003" y1="181.45" x2="13.1750000000002" y2="184.625"/>
    <line x1="13.1750000000002" y1="184.625" x2="10.0000000000002" y2="184.625"/>
    <line x1="10.0000000000002" y1="184.625" x2="10.0000000000001" y2="187.8"/>
    <line x1="10.0000000000001" y1="187.8" x2="13.1750000000001" y2="187.8"/>
    <line x1="13.1750000000001" y1="187.8" x2="13.175" y2="190.975"/>
    <line x1="13.175" y1="190.975" x2="10.0" y2="190.975"/>
    <line x1="10.0" y1="190.975" x2="10.0" y2="194.15"/>
    <line x1="10.0" y1="194.15" x2="13.175" y2="194.15"/>
    <line x1="13.175" y1="194.15" x2="14.6576155906751" y2="192.922333076576"/>
    <line x1="14.6576155906751" y1="192.922333076576" x2="40.8776155906775" y2="188.72713307658"/>
    <line x1="40.8776155906775" y1="188.72713307658" x2="40.8776155906773" y2="187.587133076581"/>
    <line x1="40.8776155906773" y1="187.587133076581" x2="43.1576155906768" y2="187.58713307658"/>
    <line x1="43.1576155906768" y1="187.58713307658" x2="43.1576155906768" y2="188.36233307658"/>
    <line x1="43.1576155906768" y1="188.36233307658" x2="43.1576155906742" y2="211.16233307658"/>
    <line x1="43.1576155906742" y1="211.16233307658" x2="44.2976155906739" y2="211.162333076579"/>
    <line x1="44.2976155906739" y1="211.162333076579" x2="44.2976155906738" y2="213.442333076579"/>
    <line x1="44.2976155906738" y1="213.442333076579" x2="43.1576155906726" y2="213.442333076579"/>
    <line x1="43.1576155906726" y1="213.442333076579" x2="40.07961559065" y2="213.44233307658"/>
    <line x1="40.07961559065" y1="213.44233307658" x2="38.9396155906966" y2="213.442333076579"/>
    <line x1="38.9396155906966" y1="213.442333076579" x2="38.9396155906955" y2="222.56233307658"/>
    <line x1="38.9396155906955" y1="222.56233307658" x2="34.8356155906954" y2="222.562333076579"/>
    <line x1="34.8356155906954" y1="222.562333076579" x2="34.8356155906965" y2="213.442333076578"/>
    <line x1="34.8356155906965" y1="213.442333076578" x2="31.757615590674" y2="213.442333076579"/>
    <line x1="31.757615590674" y1="213.442333076579" x2="31.7576155906724" y2="215.722333076578"/>
    <line x1="31.7576155906724" y1="215.722333076578" x2="31.7576155906697" y2="238.522333076578"/>
    <line x1="31.7576155906697" y1="238.522333076578" x2="34.037615590669" y2="238.157533076578"/>
    <line x1="34.037615590669" y1="238.157533076578" x2="60.2576155906717" y2="233.962333076582"/>
    <line x1="60.2576155906717" y1="233.962333076582" x2="60.8000000000004" y2="233.513216391648"/>
    <line x1="60.8000000000004" y1="233.513216391648" x2="60.8000000000004" y2="232.250000000002"/>
    <line x1="60.8000000000004" y1="232.250000000002" x2="63.9750000000004" y2="232.250000000001"/>
    <line x1="63.9750000000004" y1="232.250000000001" x2="63.9750000000003" y2="229.075000000001"/>
    <line x1="63.9750000000003" y1="229.075000000001" x2="60.8000000000003" y2="229.075000000002"/>
    <line x1="60.8000000000003" y1="229.075000000002" x2="60.8000000000002" y2="225.900000000002"/>
    <line x1="60.8000000000002" y1="225.900000000002" x2="63.9750000000003" y2="225.900000000001"/>
    <line x1="63.9750000000003" y1="225.900000000001" x2="63.9750000000002" y2="222.725000000001"/>
    <line x1="63.9750000000002" y1="222.725000000001" x2="60.8000000000001" y2="222.725000000002"/>
    <line x1="60.8000000000001" y1="222.725000000002" x2="60.8" y2="219.550000000002"/>
    <line x1="60.8" y1="219.550000000002" x2="63.9750000000001" y2="219.550000000001"/>
    <line x1="63.9750000000001" y1="219.550000000001" x2="63.9749999999999" y2="216.375000000001"/>
    <line x1="63.9749999999999" y1="216.375000000001" x2="60.8" y2="216.375000000002"/>
    <line x1="60.8" y1="216.375000000002" x2="60.7999999999999" y2="213.200000000002"/>
    <line x1="60.7999999999999" y1="213.200000000002" x2="63.9749999999999" y2="213.200000000001"/>
    <line x1="63.9749999999999" y1="213.200000000001" x2="63.9749999999998" y2="210.025000000001"/>
    <line x1="63.9749999999998" y1="210.025000000001" x2="60.7999999999998" y2="210.025000000002"/>
    <line x1="60.7999999999998" y1="210.025000000002" x2="60.7999999999997" y2="206.850000000002"/>
    <line x1="60.7999999999997" y1="206.850000000002" x2="63.9749999999997" y2="206.850000000001"/>
    <line x1="63.9749999999997" y1="206.850000000001" x2="63.9749999999996" y2="203.675000000001"/>
    <line x1="63.9749999999996" y1="203.675000000001" x2="60.7999999999996" y2="203.675000000002"/>
    <line x1="60.7999999999996" y1="203.675000000002" x2="60.7999999999995" y2="200.500000000002"/>
    <line x1="60.7999999999995" y1="200.500000000002" x2="63.9749999999995" y2="200.500000000001"/>
    <line x1="63.9749999999995" y1="200.500000000001" x2="63.9749999999994" y2="197.325000000001"/>
    <line x1="63.9749999999994" y1="197.325000000001" x2="60.7999999999994" y2="197.325000000002"/>
    <line x1="60.7999999999994" y1="197.325000000002" x2="60.7999999999993" y2="194.150000000002"/>
    <line x1="60.7999999999993" y1="194.150000000002" x2="63.9749999999993" y2="194.150000000002"/>
    <line x1="63.9749999999993" y1="194.150000000002" x2="63.9749999999993" y2="190.975000000002"/>
    <line x1="63.9749999999993" y1="190.975000000002" x2="60.7999999999993" y2="190.975000000002"/>
    <line x1="60.7999999999993" y1="190.975000000002" x2="60.7999999999992" y2="187.800000000002"/>
    <line x1="60.7999999999992" y1="187.800000000002" x2="63.9749999999991" y2="187.800000000002"/>
    <line x1="63.9749999999991" y1="187.800000000002" x2="63.974999999999" y2="184.625000000001"/>
    <line x1="63.974999999999" y1="184.625000000001" x2="60.7999999999991" y2="184.625000000002"/>
    <line x1="60.7999999999991" y1="184.625000000002" x2="60.7999999999989" y2="181.450000000002"/>
    <line x1="60.7999999999989" y1="181.450000000002" x2="63.9749999999989" y2="181.450000000001"/>
    <line x1="63.9749999999989" y1="181.450000000001" x2="63.9749999999989" y2="178.275000000001"/>
    <line x1="63.9749999999989" y1="178.275000000001" x2="60.7999999999989" y2="178.275000000002"/>
    <line x1="60.7999999999989" y1="178.275000000002" x2="60.7999999999988" y2="175.100000000002"/>
    <line x1="60.7999999999988" y1="175.100000000002" x2="63.9749999999988" y2="175.100000000001"/>
    <line x1="63.9749999999988" y1="175.100000000001" x2="63.9749999999987" y2="171.925000000001"/>
    <line x1="63.9749999999987" y1="171.925000000001" x2="60.7999999999987" y2="171.925000000002"/>
    <line x1="60.7999999999987" y1="171.925000000002" x2="60.7999999999986" y2="168.750000000002"/>
    <line x1="60.7999999999986" y1="168.750000000002" x2="63.9749999999986" y2="168.750000000001"/>
    <line x1="63.9749999999986" y1="168.750000000001" x2="63.9749999999985" y2="165.575000000001"/>
    <line x1="63.9749999999985" y1="165.575000000001" x2="60.7999999999985" y2="165.575000000002"/>
    <line x1="60.7999999999985" y1="165.575000000002" x2="60.7999999999984" y2="162.400000000002"/>
    <line x1="60.7999999999984" y1="162.400000000002" x2="63.9749999999984" y2="162.400000000001"/>
    <line x1="63.9749999999984" y1="162.400000000001" x2="63.9749999999983" y2="159.225000000001"/>
    <line x1="63.9749999999983" y1="159.225000000001" x2="60.7999999999983" y2="159.225000000002"/>
    <line x1="60.7999999999983" y1="159.225000000002" x2="60.7999999999982" y2="156.050000000002"/>
    <line x1="60.7999999999982" y1="156.050000000002" x2="63.9749999999983" y2="156.050000000001"/>
    <line x1="63.9749999999983" y1="156.050000000001" x2="63.9749999999982" y2="152.875000000001"/>
    <line x1="63.9749999999982" y1="152.875000000001" x2="60.7999999999981" y2="152.875000000002"/>
    <line x1="60.7999999999981" y1="152.875000000002" x2="60.799999999998" y2="149.700000000002"/>
    <line x1="60.799999999998" y1="149.700000000002" x2="63.974999999998" y2="149.700000000001"/>
    <line x1="63.974999999998" y1="149.700000000001" x2="63.974999999998" y2="146.525000000001"/>
    <line x1="63.974999999998" y1="146.525000000001" x2="60.7999999999979" y2="146.525000000002"/>
    <line x1="60.7999999999979" y1="146.525000000002" x2="60.7999999999979" y2="143.350000000002"/>
    <line x1="60.7999999999979" y1="143.350000000002" x2="63.9749999999978" y2="143.350000000001"/>
    <line x1="63.9749999999978" y1="143.350000000001" x2="63.9749999999978" y2="140.175000000001"/>
    <line x1="63.9749999999978" y1="140.175000000001" x2="60.7999999999977" y2="140.175000000002"/>
    <line x1="60.7999999999977" y1="140.175000000002" x2="60.7999999999977" y2="137.000000000002"/>
    <line x1="60.7999999999977" y1="137.000000000002" x2="63.9749999999977" y2="137.000000000001"/>
    <line x1="63.9749999999977" y1="137.000000000001" x2="63.9749999999976" y2="133.825000000001"/>
    <line x1="63.9749999999976" y1="133.825000000001" x2="60.7999999999976" y2="133.825000000002"/>
    <line x1="60.7999999999976" y1="133.825000000002" x2="60.7999999999975" y2="130.650000000002"/>
    <line x1="60.7999999999975" y1="130.650000000002" x2="63.9749999999975" y2="130.650000000001"/>
    <line x1="63.9749999999975" y1="130.650000000001" x2="63.9749999999974" y2="127.475000000001"/>
    <line x1="63.9749999999974" y1="127.475000000001" x2="60.7999999999974" y2="127.475000000002"/>
    <line x1="60.7999999999974" y1="127.475000000002" x2="60.7999999999973" y2="124.300000000002"/>
    <line x1="60.7999999999973" y1="124.300000000002" x2="63.9749999999973" y2="124.300000000001"/>
    <line x1="63.9749999999973" y1="124.300000000001" x2="63.9749999999973" y2="121.125000000001"/>
    <line x1="63.9749999999973" y1="121.125000000001" x2="60.7999999999973" y2="121.125000000002"/>
    <line x1="60.7999999999973" y1="121.125000000002" x2="60.7999999999972" y2="117.950000000001"/>
    <line x1="60.7999999999972" y1="117.950000000001" x2="63.9749999999971" y2="117.950000000001"/>
    <line x1="63.9749999999971" y1="117.950000000001" x2="63.974999999997" y2="114.775000000001"/>
    <line x1="63.974999999997" y1="114.775000000001" x2="60.799999999997" y2="114.775000000002"/>
    <line x1="60.799999999997" y1="114.775000000002" x2="60.799999999997" y2="111.600000000002"/>
    <line x1="60.799999999997" y1="111.600000000002" x2="63.9749999999969" y2="111.600000000001"/>
    <line x1="63.9749999999969" y1="111.600000000001" x2="63.9749999999968" y2="108.425000000001"/>
    <line x1="63.9749999999968" y1="108.425000000001" x2="60.7999999999969" y2="108.425000000002"/>
    <line x1="60.7999999999969" y1="108.425000000002" x2="60.7999999999968" y2="105.250000000002"/>
    <line x1="60.7999999999968" y1="105.250000000002" x2="63.9749999999968" y2="105.250000000001"/>
    <line x1="63.9749999999968" y1="105.250000000001" x2="63.9749999999967" y2="102.075000000001"/>
    <line x1="63.9749999999967" y1="102.075000000001" x2="60.7999999999967" y2="102.075000000002"/>
    <line x1="60.7999999999967" y1="102.075000000002" x2="60.7999999999966" y2="98.9000000000016"/>
    <line x1="60.7999999999966" y1="98.9000000000016" x2="63.9749999999965" y2="98.9000000000013"/>
    <line x1="63.9749999999965" y1="98.9000000000013" x2="63.9749999999965" y2="95.7250000000013"/>
    <line x1="63.9749999999965" y1="95.7250000000013" x2="60.7999999999965" y2="95.7250000000016"/>
    <line x1="60.7999999999965" y1="95.7250000000016" x2="60.7999999999964" y2="92.5500000000016"/>
    <line x1="60.7999999999964" y1="92.5500000000016" x2="63.9749999999964" y2="92.5500000000013"/>
    <line x1="63.9749999999964" y1="92.5500000000013" x2="63.9749999999963" y2="89.3750000000013"/>
    <line x1="63.9749999999963" y1="89.3750000000013" x2="60.7999999999963" y2="89.3750000000016"/>
    <line x1="60.7999999999963" y1="89.3750000000016" x2="60.7999999999963" y2="86.2000000000016"/>
    <line x1="60.7999999999963" y1="86.2000000000016" x2="63.9749999999962" y2="86.2000000000013"/>
    <line x1="63.9749999999962" y1="86.2000000000013" x2="63.9749999999961" y2="83.0250000000013"/>
    <line x1="63.9749999999961" y1="83.0250000000013" x2="60.7999999999962" y2="83.0250000000016"/>
    <line x1="60.7999999999962" y1="83.0250000000016" x2="60.7999999999961" y2="79.8500000000016"/>
    <line x1="60.7999999999961" y1="79.8500000000016" x2="63.9749999999961" y2="79.8500000000013"/>
    <line x1="63.9749999999961" y1="79.8500000000013" x2="63.974999999996" y2="76.6750000000013"/>
    <line x1="63.974999999996" y1="76.6750000000013" x2="60.799999999996" y2="76.6750000000016"/>
    <line x1="60.799999999996" y1="76.6750000000016" x2="60.7999999999959" y2="73.5000000000016"/>
    <line x1="60.7999999999959" y1="73.5000000000016" x2="63.9749999999959" y2="73.5000000000013"/>
    <line x1="63.9749999999959" y1="73.5000000000013" x2="63.9749999999958" y2="70.3250000000013"/>
    <line x1="63.9749999999958" y1="70.3250000000013" x2="60.7999999999958" y2="70.3250000000016"/>
    <line x1="60.7999999999958" y1="70.3250000000016" x2="60.7999999999957" y2="67.1500000000016"/>
    <line x1="60.7999999999957" y1="67.1500000000016" x2="63.9749999999957" y2="67.1500000000014"/>
    <line x1="63.9749999999957" y1="67.1500000000014" x2="63.9749999999956" y2="63.9750000000014"/>
    <line x1="63.9749999999956" y1="63.9750000000014" x2="60.7999999999956" y2="63.9750000000016"/>
    <line x1="60.7999999999956" y1="63.9750000000016" x2="60.7999999999956" y2="60.8"/>
    <line x1="60.7999999999956" y1="60.8" x2="63.9749999999955" y2="60.8"/>
    <line x1="63.9749999999955" y1="60.8" x2="63.9749999999954" y2="57.6250000000013"/>
    <line x1="63.9749999999954" y1="57.6250000000013" x2="60.7999999999954" y2="57.6250000000017"/>
    <line x1="60.7999999999954" y1="57.6250000000017" x2="60.7999999999953" y2="54.4500000000016"/>
    <line x1="60.7999999999953" y1="54.4500000000016" x2="63.9749999999953" y2="54.4500000000013"/>
    <line x1="63.9749999999953" y1="54.4500000000013" x2="63.9749999999952" y2="51.2750000000013"/>
    <line x1="63.9749999999952" y1="51.2750000000013" x2="60.7999999999953" y2="51.2750000000016"/>
    <line x1="60.7999999999953" y1="51.2750000000016" x2="60.7999999999952" y2="48.1000000000015"/>
    <line x1="60.7999999999952" y1="48.1000000000015" x2="63.9749999999951" y2="48.1000000000014"/>
    <line x1="63.9749999999951" y1="48.1000000000014" x2="63.974999999995" y2="44.9250000000013"/>
    <line x1="63.974999999995" y1="44.9250000000013" x2="60.799999999995" y2="44.9250000000015"/>
    <line x1="60.799999999995" y1="44.9250000000015" x2="60.7999999999949" y2="41.7500000000017"/>
    <line x1="60.7999999999949" y1="41.7500000000017" x2="63.9749999999949" y2="41.7500000000013"/>
    <line x1="63.9749999999949" y1="41.7500000000013" x2="63.9749999999948" y2="38.5750000000014"/>
    <line x1="63.9749999999948" y1="38.5750000000014" x2="60.7999999999949" y2="38.5750000000017"/>
    <line x1="60.7999999999949" y1="38.5750000000017" x2="60.7999999999947" y2="35.4000000000017"/>
    <line x1="60.7999999999947" y1="35.4000000000017" x2="63.9749999999947" y2="35.4000000000014"/>
    <line x1="63.9749999999947" y1="35.4000000000014" x2="63.9749999999946" y2="32.2250000000014"/>
    <line x1="63.9749999999946" y1="32.2250000000014" x2="60.7999999999947" y2="32.2250000000017"/>
    <line x1="60.7999999999947" y1="32.2250000000017" x2="60.7999999999946" y2="29.0500000000017"/>
    <line x1="60.7999999999946" y1="29.0500000000017" x2="63.9749999999945" y2="29.0500000000014"/>
    <line x1="63.9749999999945" y1="29.0500000000014" x2="63.9749999999945" y2="25.8750000000014"/>
    <line x1="63.9749999999945" y1="25.8750000000014" x2="60.7999999999945" y2="25.8750000000017"/>
    <line x1="60.7999999999945" y1="25.8750000000017" x2="60.7999999999944" y2="22.7000000000017"/>
    <line x1="60.7999999999944" y1="22.7000000000017" x2="63.9749999999944" y2="22.7000000000014"/>
    <line x1="63.9749999999944" y1="22.7000000000014" x2="63.9749999999943" y2="19.5250000000013"/>
    <line x1="63.9749999999943" y1="19.5250000000013" x2="60.7999999999943" y2="19.5250000000017"/>
    <line x1="60.7999999999943" y1="19.5250000000017" x2="60.7999999999943" y2="16.3500000000017"/>
    <line x1="60.7999999999943" y1="16.3500000000017" x2="63.9749999999943" y2="16.3500000000017"/>
    <line x1="63.9749999999943" y1="16.3500000000017" x2="63.9749999999943" y2="13.1750000000014"/>
    <line x1="63.9749999999943" y1="13.1750000000014" x2="60.7999999999943" y2="13.1750000000014"/>
    <line x1="60.7999999999943" y1="13.1750000000014" x2="60.7999999999943" y2="10.0000000000014"/>
    <line x1="60.7999999999943" y1="10.0000000000014" x2="57.6249999999943" y2="10.0000000000014"/>
    <line x1="57.6249999999943" y1="10.0000000000014" x2="57.6250000000049" y2="13.1750000000011"/>
    <line x1="57.6250000000049" y1="13.1750000000011" x2="54.4500000000049" y2="13.1750000000059"/>
    <line x1="54.4500000000049" y1="13.1750000000059" x2="54.4500000000049" y2="10.0000000000062"/>
    <line x1="54.4500000000049" y1="10.0000000000062" x2="51.2750000000049" y2="10.000000000006"/>
    <line x1="51.2750000000049" y1="10.000000000006" x2="51.2750000000049" y2="13.1750000000058"/>
    <line x1="51.2750000000049" y1="13.1750000000058" x2="48.1000000000049" y2="13.1750000000057"/>
    <line x1="48.1000000000049" y1="13.1750000000057" x2="48.1000000000049" y2="10.000000000006"/>
    <line x1="48.1000000000049" y1="10.000000000006" x2="44.9250000000049" y2="10.0000000000059"/>
    <line x1="44.9250000000049" y1="10.0000000000059" x2="44.9250000000049" y2="13.1750000000056"/>
    <line x1="44.9250000000049" y1="13.1750000000056" x2="41.7500000000049" y2="13.1750000000055"/>
    <line x1="41.7500000000049" y1="13.1750000000055" x2="41.7500000000049" y2="10.0000000000059"/>
    <line x1="41.7500000000049" y1="10.0000000000059" x2="38.5750000000049" y2="10.0000000000057"/>
    <line x1="38.5750000000049" y1="10.0000000000057" x2="38.5750000000049" y2="13.1750000000054"/>
    <line x1="38.5750000000049" y1="13.1750000000054" x2="35.4000000000049" y2="13.1750000000053"/>
    <line x1="35.4000000000049" y1="13.1750000000053" x2="35.4000000000049" y2="10.0000000000057"/>
    <line x1="35.4000000000049" y1="10.0000000000057" x2="32.2250000000049" y2="10.0000000000055"/>
    <line x1="32.2250000000049" y1="10.0000000000055" x2="32.2250000000049" y2="13.1750000000052"/>
    <line x1="32.2250000000049" y1="13.1750000000052" x2="29.0500000000049" y2="13.1750000000051"/>
    <line x1="29.0500000000049" y1="13.1750000000051" x2="29.0500000000049" y2="10.0000000000055"/>
    <line x1="29.0500000000049" y1="10.0000000000055" x2="25.8750000000049" y2="10.0000000000053"/>
    <line x1="25.8750000000049" y1="10.0000000000053" x2="25.8750000000049" y2="13.175000000005"/>
    <line x1="25.8750000000049" y1="13.175000000005" x2="22.700000000005" y2="13.175000000005"/>
    <line x1="22.700000000005" y1="13.175000000005" x2="22.700000000005" y2="10.0000000000053"/>
    <line x1="22.700000000005" y1="10.0000000000053" x2="19.5250000000049" y2="10.0000000000051"/>
    <line x1="19.5250000000049" y1="10.0000000000051" x2="19.5250000000049" y2="13.1750000000049"/>
    <line x1="19.5250000000049" y1="13.1750000000049" x2="16.3500000000049" y2="13.175"/>
    <line x1="16.3500000000049" y1="13.175" x2="16.3500000000049" y2="10.0"/>
    <line x1="16.3500000000049" y1="10.0" x2="13.1750000000049" y2="10.0"/>
    <line x1="13.1750000000049" y1="10.0" x2="13.1750000000049" y2="13.175"/>
    <line x1="13.1750000000049" y1="13.175" x2="10.0000000000049" y2="13.175"/>
    <line x1="10.0000000000049" y1="13.175" x2="10.0000000000049" y2="16.3500000000004"/>
    <line x1="10.0000000000049" y1="16.3500000000004" x2="13.175000000005" y2="16.3500000000002"/>
    <line x1="13.175000000005" y1="16.3500000000002" x2="13.175000000005" y2="19.5250000000002"/>
    <line x1="13.175000000005" y1="19.5250000000002" x2="10.000000000005" y2="19.5250000000002"/>
    <line x1="10.000000000005" y1="19.5250000000002" x2="10.0000000000048" y2="22.7000000000002"/>
    <line x1="10.0000000000048" y1="22.7000000000002" x2="13.1750000000048" y2="22.7000000000002"/>
    <line x1="13.1750000000048" y1="22.7000000000002" x2="13.1750000000047" y2="25.8750000000002"/>
    <line x1="13.1750000000047" y1="25.8750000000002" x2="10.0000000000047" y2="25.8750000000002"/>
    <line x1="10.0000000000047" y1="25.8750000000002" x2="10.0000000000047" y2="29.0500000000002"/>
    <line x1="10.0000000000047" y1="29.0500000000002" x2="13.1750000000047" y2="29.0500000000002"/>
    <line x1="13.1750000000047" y1="29.0500000000002" x2="13.1750000000046" y2="32.2250000000002"/>
    <line x1="13.1750000000046" y1="32.2250000000002" x2="10.0000000000046" y2="32.2250000000002"/>
    <line x1="10.0000000000046" y1="32.2250000000002" x2="10.0000000000045" y2="35.4000000000002"/>
    <line x1="10.0000000000045" y1="35.4000000000002" x2="13.1750000000045" y2="35.4000000000004"/>
    <line x1="13.1750000000045" y1="35.4000000000004" x2="13.1750000000044" y2="38.5750000000004"/>
    <line x1="13.1750000000044" y1="38.5750000000004" x2="10.0000000000044" y2="38.5750000000002"/>
    <line x1="10.0000000000044" y1="38.5750000000002" x2="10.0000000000043" y2="41.7500000000002"/>
    <line x1="10.0000000000043" y1="41.7500000000002" x2="13.1750000000043" y2="41.7500000000004"/>
    <line x1="13.1750000000043" y1="41.7500000000004" x2="13.1750000000042" y2="44.9250000000002"/>
    <line x1="13.1750000000042" y1="44.9250000000002" x2="10.0000000000042" y2="44.925"/>
    <line x1="10.0000000000042" y1="44.925" x2="10.0000000000041" y2="48.1"/>
    <line x1="10.0000000000041" y1="48.1" x2="13.1750000000041" y2="48.1000000000002"/>
    <line x1="13.1750000000041" y1="48.1000000000002" x2="13.175000000004" y2="51.2750000000003"/>
    <line x1="13.175000000004" y1="51.2750000000003" x2="10.000000000004" y2="51.2750000000001"/>
    <line x1="10.000000000004" y1="51.2750000000001" x2="10.000000000004" y2="54.4500000000001"/>
    <line x1="10.000000000004" y1="54.4500000000001" x2="13.1750000000039" y2="54.4500000000003"/>
    <line x1="13.1750000000039" y1="54.4500000000003" x2="13.1750000000039" y2="57.6250000000003"/>
    <line x1="13.1750000000039" y1="57.6250000000003" x2="10.0000000000038" y2="57.6250000000001"/>
    <line x1="10.0000000000038" y1="57.6250000000001" x2="10.0000000000038" y2="60.8"/>
    <line x1="49.2048186557356" y1="43.3375000000013" x2="23.8048186557356" y2="43.3375000000006"/>
    <line x1="23.8048186557356" y1="43.3375000000006" x2="23.8048186557356" y2="22.6353878355294"/>
    <line x1="23.8048186557356" y1="22.6353878355294" x2="49.2048186557356" y2="22.6353878355294"/>
    <line x1="49.2048186557356" y1="22.6353878355294" x2="49.2048186557356" y2="43.3375000000013"/>
    <line x1="32.2249999999967" y1="102.075000000002" x2="57.6249999999967" y2="102.075000000002"/>
    <line x1="57.6249999999967" y1="102.075000000002" x2="57.6249999999966" y2="105.250000000002"/>
    <line x1="57.6249999999966" y1="105.250000000002" x2="32.2249999999967" y2="105.250000000002"/>
    <line x1="32.2249999999967" y1="105.250000000002" x2="32.2249999999967" y2="102.075000000002"/>
    <line x1="32.2249999999953" y1="51.2750000000016" x2="57.6249999999953" y2="51.2750000000016"/>
    <line x1="57.6249999999953" y1="51.2750000000016" x2="57.6249999999953" y2="54.4500000000017"/>
    <line x1="57.6249999999953" y1="54.4500000000017" x2="32.2249999999953" y2="54.4500000000016"/>
    <line x1="32.2249999999953" y1="54.4500000000016" x2="32.2249999999953" y2="51.2750000000016"/>
    <line x1="32.2249999999981" y1="152.875000000002" x2="57.6249999999981" y2="152.875000000002"/>
    <line x1="57.6249999999981" y1="152.875000000002" x2="57.6249999999981" y2="156.050000000002"/>
    <line x1="57.6249999999981" y1="156.050000000002" x2="32.2249999999982" y2="156.050000000002"/>
    <line x1="32.2249999999982" y1="156.050000000002" x2="32.2249999999981" y2="152.875000000002"/>
    <line x1="16.3500000000035" y1="165.575" x2="16.3500000000035" y2="162.4"/>
    <line x1="16.3500000000035" y1="162.4" x2="41.7500000000034" y2="162.4"/>
    <line x1="41.7500000000034" y1="162.4" x2="41.7500000000034" y2="165.575"/>
    <line x1="41.7500000000034" y1="165.575" x2="16.3500000000035" y2="165.575"/>
    <line x1="16.3500000000049" y1="114.774999999958" x2="16.3500000000049" y2="111.599999999958"/>
    <line x1="16.3500000000049" y1="111.599999999958" x2="41.7500000000049" y2="111.599999999958"/>
    <line x1="41.7500000000049" y1="111.599999999958" x2="41.7500000000049" y2="114.774999999958"/>
    <line x1="41.7500000000049" y1="114.774999999958" x2="16.3500000000049" y2="114.774999999958"/>
    <line x1="16.3500000000063" y1="63.9750000000002" x2="16.3500000000063" y2="60.8"/>
    <line x1="16.3500000000063" y1="60.8" x2="41.7500000000063" y2="60.8"/>
    <line x1="41.7500000000063" y1="60.8" x2="41.7500000000063" y2="63.9750000000001"/>
    <line x1="41.7500000000063" y1="63.9750000000001" x2="16.3500000000063" y2="63.9750000000002"/>
  </g>
</svg>
