<?xml version="1.0" standalone="no"?>
<!DOCTYPE svg PUBLIC "-//W3C//DTD SVG 1.1//EN" "http://www.w3.org/Graphics/SVG/1.1/DTD/svg11.dtd">
<svg width="210.500000000001mm" height="162.875000000001mm"
 viewBox="0 0 210.500000000001 162.875000000001"
 xmlns="http://www.w3.org/2000/svg" version="1.1"
 xmlns:xlink="http://www.w3.org/1999/xlink">
<desc>Output from Flights of Ideas SVG Sketchup Plugin</desc>

  <g id="face0" fill="none" stroke="rgb(0,0,255)" stroke-width="1" stroke-miterlimit="4" stroke-dasharray="none" stroke-linejoin="round" stroke-linecap="round">
    <line x1="200.5" y1="13.1750000000012" x2="197.325" y2="13.1750000000012"/>
    <line x1="197.325" y1="13.1750000000012" x2="197.325" y2="10.0000000000012"/>
    <line x1="197.325" y1="10.0000000000012" x2="194.15" y2="10.0000000000012"/>
    <line x1="194.15" y1="10.0000000000012" x2="194.15" y2="13.1750000000012"/>
    <line x1="194.15" y1="13.1750000000012" x2="190.975" y2="13.1750000000012"/>
    <line x1="190.975" y1="13.1750000000012" x2="190.975" y2="10.0000000000012"/>
    <line x1="190.975" y1="10.0000000000012" x2="187.8" y2="10.0000000000012"/>
    <line x1="187.8" y1="10.0000000000012" x2="187.8" y2="13.1750000000012"/>
    <line x1="187.8" y1="13.1750000000012" x2="184.625" y2="13.1750000000012"/>
    <line x1="184.625" y1="13.1750000000012" x2="184.625" y2="10.0000000000012"/>
    <line x1="184.625" y1="10.0000000000012" x2="181.45" y2="10.0000000000011"/>
    <line x1="181.45" y1="10.0000000000011" x2="181.45" y2="13.1750000000012"/>
    <line x1="181.45" y1="13.1750000000012" x2="178.275" y2="13.1750000000012"/>
    <line x1="178.275" y1="13.1750000000012" x2="178.275" y2="10.0000000000012"/>
    <line x1="178.275" y1="10.0000000000012" x2="175.1" y2="10.0000000000011"/>
    <line x1="175.1" y1="10.0000000000011" x2="175.1" y2="13.1750000000012"/>
    <line x1="175.1" y1="13.1750000000012" x2="171.925" y2="13.1750000000012"/>
    <line x1="171.925" y1="13.1750000000012" x2="171.925" y2="10.0000000000012"/>
    <line x1="171.925" y1="10.0000000000012" x2="168.75" y2="10.0000000000011"/>
    <line x1="168.75" y1="10.0000000000011" x2="168.75" y2="13.1750000000012"/>
    <line x1="168.75" y1="13.1750000000012" x2="165.575" y2="13.1750000000012"/>
    <line x1="165.575" y1="13.1750000000012" x2="165.575" y2="10.0000000000011"/>
    <line x1="165.575" y1="10.0000000000011" x2="162.4" y2="10.0000000000011"/>
    <line x1="162.4" y1="10.0000000000011" x2="162.4" y2="13.1750000000012"/>
    <line x1="162.4" y1="13.1750000000012" x2="159.225" y2="13.1750000000012"/>
    <line x1="159.225" y1="13.1750000000012" x2="159.225" y2="10.0000000000012"/>
    <line x1="159.225" y1="10.0000000000012" x2="156.05" y2="10.0000000000011"/>
    <line x1="156.05" y1="10.0000000000011" x2="156.05" y2="13.1750000000012"/>
    <line x1="156.05" y1="13.1750000000012" x2="152.875" y2="13.1750000000012"/>
    <line x1="152.875" y1="13.1750000000012" x2="152.875" y2="16.3500000000012"/>
    <line x1="152.875" y1="16.3500000000012" x2="156.05" y2="16.3500000000012"/>
    <line x1="156.05" y1="16.3500000000012" x2="156.05" y2="19.5250000000012"/>
    <line x1="156.05" y1="19.5250000000012" x2="152.875" y2="19.5250000000012"/>
    <line x1="152.875" y1="19.5250000000012" x2="152.875" y2="22.7000000000013"/>
    <line x1="152.875" y1="22.7000000000013" x2="156.05" y2="22.7000000000013"/>
    <line x1="156.05" y1="22.7000000000013" x2="156.05" y2="25.8750000000014"/>
    <line x1="156.05" y1="25.8750000000014" x2="152.875" y2="25.8750000000014"/>
    <line x1="152.875" y1="25.8750000000014" x2="152.875" y2="29.0500000000013"/>
    <line x1="152.875" y1="29.0500000000013" x2="156.05" y2="29.0500000000012"/>
    <line x1="156.05" y1="29.0500000000012" x2="156.05" y2="32.2250000000012"/>
    <line x1="156.05" y1="32.2250000000012" x2="152.875" y2="32.2250000000014"/>
    <line x1="152.875" y1="32.2250000000014" x2="152.875" y2="35.4000000000013"/>
    <line x1="152.875" y1="35.4000000000013" x2="156.05" y2="35.400000000001"/>
    <line x1="156.05" y1="35.400000000001" x2="156.05" y2="38.575000000001"/>
    <line x1="156.05" y1="38.575000000001" x2="152.875" y2="38.5750000000013"/>
    <line x1="152.875" y1="38.5750000000013" x2="152.875" y2="41.7500000000014"/>
    <line x1="152.875" y1="41.7500000000014" x2="156.05" y2="41.7500000000014"/>
    <line x1="156.05" y1="41.7500000000014" x2="156.05" y2="44.9250000000013"/>
    <line x1="156.05" y1="44.9250000000013" x2="152.875" y2="44.9250000000013"/>
    <line x1="152.875" y1="44.9250000000013" x2="152.875" y2="48.1000000000014"/>
    <line x1="152.875" y1="48.1000000000014" x2="156.05" y2="48.1000000000012"/>
    <line x1="156.05" y1="48.1000000000012" x2="156.05" y2="51.2750000000012"/>
    <line x1="156.05" y1="51.2750000000012" x2="152.875" y2="51.2750000000013"/>
    <line x1="152.875" y1="51.2750000000013" x2="152.875" y2="54.4500000000014"/>
    <line x1="152.875" y1="54.4500000000014" x2="156.05" y2="54.4500000000014"/>
    <line x1="156.05" y1="54.4500000000014" x2="156.05" y2="57.6250000000014"/>
    <line x1="156.05" y1="57.6250000000014" x2="152.875" y2="57.6250000000014"/>
    <line x1="152.875" y1="57.6250000000014" x2="152.875" y2="60.8000000000013"/>
    <line x1="152.875" y1="60.8000000000013" x2="156.05" y2="60.8000000000013"/>
    <line x1="156.05" y1="60.8000000000013" x2="156.05" y2="63.9750000000013"/>
    <line x1="156.05" y1="63.9750000000013" x2="152.875" y2="63.9750000000013"/>
    <line x1="152.875" y1="63.9750000000013" x2="152.875" y2="67.1500000000013"/>
    <line x1="152.875" y1="67.1500000000013" x2="156.05" y2="67.1500000000013"/>
    <line x1="156.05" y1="67.1500000000013" x2="156.05" y2="70.3250000000014"/>
    <line x1="156.05" y1="70.3250000000014" x2="152.875" y2="70.3250000000014"/>
    <line x1="152.875" y1="70.3250000000014" x2="152.875" y2="73.5000000000014"/>
    <line x1="152.875" y1="73.5000000000014" x2="156.05" y2="73.5000000000013"/>
    <line x1="156.05" y1="73.5000000000013" x2="156.05" y2="76.6750000000013"/>
    <line x1="156.05" y1="76.6750000000013" x2="152.875" y2="76.6750000000014"/>
    <line x1="152.875" y1="76.6750000000014" x2="152.875" y2="79.8500000000014"/>
    <line x1="152.875" y1="79.8500000000014" x2="156.05" y2="79.8500000000016"/>
    <line x1="156.05" y1="79.8500000000016" x2="156.05" y2="83.0250000000015"/>
    <line x1="156.05" y1="83.0250000000015" x2="152.875" y2="83.0250000000015"/>
    <line x1="152.875" y1="83.0250000000015" x2="152.875" y2="86.2000000000015"/>
    <line x1="152.875" y1="86.2000000000015" x2="156.05" y2="86.2000000000015"/>
    <line x1="156.05" y1="86.2000000000015" x2="156.05" y2="89.3750000000014"/>
    <line x1="156.05" y1="89.3750000000014" x2="152.875" y2="89.3750000000014"/>
    <line x1="152.875" y1="89.3750000000014" x2="152.875" y2="92.5500000000014"/>
    <line x1="152.875" y1="92.5500000000014" x2="156.05" y2="92.5500000000014"/>
    <line x1="156.05" y1="92.5500000000014" x2="156.05" y2="95.7250000000014"/>
    <line x1="156.05" y1="95.7250000000014" x2="152.875" y2="95.7250000000014"/>
    <line x1="152.875" y1="95.7250000000014" x2="152.875" y2="98.9000000000015"/>
    <line x1="152.875" y1="98.9000000000015" x2="156.05" y2="98.9000000000013"/>
    <line x1="156.05" y1="98.9000000000013" x2="156.05" y2="102.075000000001"/>
    <line x1="156.05" y1="102.075000000001" x2="152.875" y2="102.075000000001"/>
    <line x1="152.875" y1="102.075000000001" x2="152.875" y2="105.250000000001"/>
    <line x1="152.875" y1="105.250000000001" x2="149.7" y2="105.250000000001"/>
    <line x1="149.7" y1="105.250000000001" x2="149.7" y2="108.425000000001"/>
    <line x1="149.7" y1="108.425000000001" x2="146.525" y2="108.425000000001"/>
    <line x1="146.525" y1="108.425000000001" x2="146.525" y2="105.250000000001"/>
    <line x1="146.525" y1="105.250000000001" x2="143.35" y2="105.250000000001"/>
    <line x1="143.35" y1="105.250000000001" x2="143.35" y2="108.425000000001"/>
    <line x1="143.35" y1="108.425000000001" x2="140.175" y2="108.425000000001"/>
    <line x1="140.175" y1="108.425000000001" x2="140.175" y2="105.250000000001"/>
    <line x1="140.175" y1="105.250000000001" x2="137.0" y2="105.250000000002"/>
    <line x1="137.0" y1="105.250000000002" x2="137.0" y2="108.425000000002"/>
    <line x1="137.0" y1="108.425000000002" x2="133.825" y2="108.425000000002"/>
    <line x1="133.825" y1="108.425000000002" x2="133.825" y2="105.250000000002"/>
    <line x1="133.825" y1="105.250000000002" x2="130.65" y2="105.250000000002"/>
    <line x1="130.65" y1="105.250000000002" x2="130.65" y2="108.425000000002"/>
    <line x1="130.65" y1="108.425000000002" x2="127.475" y2="108.425000000002"/>
    <line x1="127.475" y1="108.425000000002" x2="127.475" y2="105.250000000002"/>
    <line x1="127.475" y1="105.250000000002" x2="124.3" y2="105.250000000002"/>
    <line x1="124.3" y1="105.250000000002" x2="124.3" y2="108.425000000001"/>
    <line x1="124.3" y1="108.425000000001" x2="121.125" y2="108.425000000001"/>
    <line x1="121.125" y1="108.425000000001" x2="121.125" y2="105.250000000002"/>
    <line x1="121.125" y1="105.250000000002" x2="117.95" y2="105.250000000002"/>
    <line x1="117.95" y1="105.250000000002" x2="117.95" y2="108.425000000002"/>
    <line x1="117.95" y1="108.425000000002" x2="114.775" y2="108.425000000002"/>
    <line x1="114.775" y1="108.425000000002" x2="114.775" y2="105.250000000002"/>
    <line x1="114.775" y1="105.250000000002" x2="111.6" y2="105.250000000001"/>
    <line x1="111.6" y1="105.250000000001" x2="111.6" y2="108.425000000001"/>
    <line x1="111.6" y1="108.425000000001" x2="108.425" y2="108.425000000001"/>
    <line x1="108.425" y1="108.425000000001" x2="108.425" y2="105.250000000001"/>
    <line x1="108.425" y1="105.250000000001" x2="105.25" y2="105.250000000001"/>
    <line x1="105.25" y1="105.250000000001" x2="105.25" y2="108.425000000001"/>
    <line x1="105.25" y1="108.425000000001" x2="102.075" y2="108.425000000001"/>
    <line x1="102.075" y1="108.425000000001" x2="102.075" y2="105.250000000001"/>
    <line x1="102.075" y1="105.250000000001" x2="98.9000000000002" y2="105.250000000001"/>
    <line x1="98.9000000000002" y1="105.250000000001" x2="98.9000000000002" y2="108.425000000001"/>
    <line x1="98.9000000000002" y1="108.425000000001" x2="95.7250000000003" y2="108.425000000001"/>
    <line x1="95.7250000000003" y1="108.425000000001" x2="95.7250000000003" y2="105.250000000001"/>
    <line x1="95.7250000000003" y1="105.250000000001" x2="92.5500000000003" y2="105.250000000001"/>
    <line x1="92.5500000000003" y1="105.250000000001" x2="92.5500000000002" y2="108.425000000001"/>
    <line x1="92.5500000000002" y1="108.425000000001" x2="89.3750000000003" y2="108.425000000001"/>
    <line x1="89.3750000000003" y1="108.425000000001" x2="89.3750000000003" y2="105.250000000001"/>
    <line x1="89.3750000000003" y1="105.250000000001" x2="86.2000000000002" y2="105.250000000001"/>
    <line x1="86.2000000000002" y1="105.250000000001" x2="86.2000000000002" y2="108.425000000001"/>
    <line x1="86.2000000000002" y1="108.425000000001" x2="83.0250000000002" y2="108.425000000001"/>
    <line x1="83.0250000000002" y1="108.425000000001" x2="83.0250000000002" y2="105.250000000001"/>
    <line x1="83.0250000000002" y1="105.250000000001" x2="79.8500000000002" y2="105.250000000001"/>
    <line x1="79.8500000000002" y1="105.250000000001" x2="79.8500000000002" y2="108.425000000001"/>
    <line x1="79.8500000000002" y1="108.425000000001" x2="76.6750000000003" y2="108.425000000001"/>
    <line x1="76.6750000000003" y1="108.425000000001" x2="76.6750000000002" y2="105.250000000001"/>
    <line x1="76.6750000000002" y1="105.250000000001" x2="73.5000000000002" y2="105.250000000001"/>
    <line x1="73.5000000000002" y1="105.250000000001" x2="73.5000000000002" y2="108.425000000001"/>
    <line x1="73.5000000000002" y1="108.425000000001" x2="70.3250000000002" y2="108.425000000001"/>
    <line x1="70.3250000000002" y1="108.425000000001" x2="70.3250000000002" y2="105.250000000001"/>
    <line x1="70.3250000000002" y1="105.250000000001" x2="67.1500000000002" y2="105.250000000001"/>
    <line x1="67.1500000000002" y1="105.250000000001" x2="67.1500000000002" y2="108.425000000001"/>
    <line x1="67.1500000000002" y1="108.425000000001" x2="63.9750000000002" y2="108.425000000001"/>
    <line x1="63.9750000000002" y1="108.425000000001" x2="63.9750000000003" y2="105.250000000001"/>
    <line x1="63.9750000000003" y1="105.250000000001" x2="60.8000000000001" y2="105.250000000001"/>
    <line x1="60.8000000000001" y1="105.250000000001" x2="60.8000000000001" y2="108.425000000001"/>
    <line x1="60.8000000000001" y1="108.425000000001" x2="54.45" y2="108.425000000001"/>
    <line x1="54.45" y1="108.425000000001" x2="54.4500000000007" y2="105.250000000002"/>
    <line x1="54.4500000000007" y1="105.250000000002" x2="57.6250000000007" y2="105.250000000001"/>
    <line x1="57.6250000000007" y1="105.250000000001" x2="57.6250000000001" y2="102.075000000001"/>
    <line x1="57.6250000000001" y1="102.075000000001" x2="54.4500000000001" y2="102.075000000002"/>
    <line x1="54.4500000000001" y1="102.075000000002" x2="54.4499999999999" y2="98.9000000000015"/>
    <line x1="54.4499999999999" y1="98.9000000000015" x2="57.625" y2="98.9000000000017"/>
    <line x1="57.625" y1="98.9000000000017" x2="57.625" y2="95.7250000000014"/>
    <line x1="57.625" y1="95.7250000000014" x2="54.45" y2="95.7250000000014"/>
    <line x1="54.45" y1="95.7250000000014" x2="54.45" y2="92.5500000000014"/>
    <line x1="54.45" y1="92.5500000000014" x2="57.625" y2="92.5500000000014"/>
    <line x1="57.625" y1="92.5500000000014" x2="57.6250000000001" y2="89.3750000000014"/>
    <line x1="57.6250000000001" y1="89.3750000000014" x2="54.4500000000001" y2="89.3750000000014"/>
    <line x1="54.4500000000001" y1="89.3750000000014" x2="54.4500000000001" y2="86.2000000000015"/>
    <line x1="54.4500000000001" y1="86.2000000000015" x2="57.6250000000001" y2="86.2000000000013"/>
    <line x1="57.6250000000001" y1="86.2000000000013" x2="57.625" y2="83.0250000000015"/>
    <line x1="57.625" y1="83.0250000000015" x2="54.45" y2="83.0250000000013"/>
    <line x1="54.45" y1="83.0250000000013" x2="54.4500000000001" y2="79.8500000000013"/>
    <line x1="54.4500000000001" y1="79.8500000000013" x2="57.6250000000001" y2="79.8500000000014"/>
    <line x1="57.6250000000001" y1="79.8500000000014" x2="57.6250000000001" y2="76.6750000000015"/>
    <line x1="57.6250000000001" y1="76.6750000000015" x2="54.4500000000002" y2="76.6750000000015"/>
    <line x1="54.4500000000002" y1="76.6750000000015" x2="54.4500000000001" y2="73.5000000000016"/>
    <line x1="54.4500000000001" y1="73.5000000000016" x2="57.6250000000001" y2="73.5000000000018"/>
    <line x1="57.6250000000001" y1="73.5000000000018" x2="57.6250000000001" y2="70.3250000000015"/>
    <line x1="57.6250000000001" y1="70.3250000000015" x2="54.4500000000001" y2="70.3250000000015"/>
    <line x1="54.4500000000001" y1="70.3250000000015" x2="54.4500000000001" y2="67.1500000000013"/>
    <line x1="54.4500000000001" y1="67.1500000000013" x2="57.6250000000001" y2="67.1500000000013"/>
    <line x1="57.6250000000001" y1="67.1500000000013" x2="57.6250000000002" y2="63.9750000000013"/>
    <line x1="57.6250000000002" y1="63.9750000000013" x2="54.4500000000002" y2="63.9750000000012"/>
    <line x1="54.4500000000002" y1="63.9750000000012" x2="54.4500000000002" y2="60.8000000000013"/>
    <line x1="54.4500000000002" y1="60.8000000000013" x2="57.6250000000002" y2="60.8000000000013"/>
    <line x1="57.6250000000002" y1="60.8000000000013" x2="57.6250000000001" y2="57.6250000000013"/>
    <line x1="57.6250000000001" y1="57.6250000000013" x2="54.4500000000001" y2="57.6250000000013"/>
    <line x1="54.4500000000001" y1="57.6250000000013" x2="54.4500000000002" y2="54.4500000000013"/>
    <line x1="54.4500000000002" y1="54.4500000000013" x2="57.6250000000002" y2="54.4500000000013"/>
    <line x1="57.6250000000002" y1="54.4500000000013" x2="57.6250000000002" y2="51.2750000000013"/>
    <line x1="57.6250000000002" y1="51.2750000000013" x2="54.4500000000003" y2="51.2750000000015"/>
    <line x1="54.4500000000003" y1="51.2750000000015" x2="54.4500000000001" y2="48.1000000000015"/>
    <line x1="54.4500000000001" y1="48.1000000000015" x2="57.6250000000001" y2="48.1000000000016"/>
    <line x1="57.6250000000001" y1="48.1000000000016" x2="57.6250000000002" y2="44.9250000000013"/>
    <line x1="57.6250000000002" y1="44.9250000000013" x2="54.4500000000002" y2="44.9250000000013"/>
    <line x1="54.4500000000002" y1="44.9250000000013" x2="54.4500000000002" y2="41.7500000000014"/>
    <line x1="54.4500000000002" y1="41.7500000000014" x2="57.6250000000002" y2="41.7500000000013"/>
    <line x1="57.6250000000002" y1="41.7500000000013" x2="57.6250000000003" y2="38.5750000000014"/>
    <line x1="57.6250000000003" y1="38.5750000000014" x2="54.4500000000003" y2="38.5750000000014"/>
    <line x1="54.4500000000003" y1="38.5750000000014" x2="54.4500000000003" y2="35.4000000000015"/>
    <line x1="54.4500000000003" y1="35.4000000000015" x2="57.6250000000003" y2="35.4000000000012"/>
    <line x1="57.6250000000003" y1="35.4000000000012" x2="57.6250000000002" y2="32.2250000000013"/>
    <line x1="57.6250000000002" y1="32.2250000000013" x2="54.4500000000002" y2="32.2250000000014"/>
    <line x1="54.4500000000002" y1="32.2250000000014" x2="54.4500000000003" y2="29.0500000000015"/>
    <line x1="54.4500000000003" y1="29.0500000000015" x2="57.6250000000003" y2="29.0500000000013"/>
    <line x1="57.6250000000003" y1="29.0500000000013" x2="57.6250000000003" y2="25.8750000000014"/>
    <line x1="57.6250000000003" y1="25.8750000000014" x2="54.4500000000003" y2="25.8750000000015"/>
    <line x1="54.4500000000003" y1="25.8750000000015" x2="54.4500000000003" y2="22.7000000000016"/>
    <line x1="54.4500000000003" y1="22.7000000000016" x2="57.6250000000003" y2="22.7000000000015"/>
    <line x1="57.6250000000003" y1="22.7000000000015" x2="57.6250000000004" y2="19.5250000000014"/>
    <line x1="57.6250000000004" y1="19.5250000000014" x2="54.4500000000004" y2="19.5250000000011"/>
    <line x1="54.4500000000004" y1="19.5250000000011" x2="54.4500000000004" y2="16.3500000000011"/>
    <line x1="54.4500000000004" y1="16.3500000000011" x2="57.6250000000004" y2="16.3500000000018"/>
    <line x1="57.6250000000004" y1="16.3500000000018" x2="57.6250000000003" y2="13.1750000000012"/>
    <line x1="57.6250000000003" y1="13.1750000000012" x2="54.4500000000005" y2="13.1750000000012"/>
    <line x1="54.4500000000005" y1="13.1750000000012" x2="54.4500000000005" y2="10.0000000000012"/>
    <line x1="54.4500000000005" y1="10.0000000000012" x2="51.2750000000005" y2="10.0000000000026"/>
    <line x1="51.2750000000005" y1="10.0000000000026" x2="51.2750000000005" y2="13.1750000000012"/>
    <line x1="51.2750000000005" y1="13.1750000000012" x2="48.1000000000005" y2="13.1750000000012"/>
    <line x1="48.1000000000005" y1="13.1750000000012" x2="48.1000000000005" y2="10.0000000000011"/>
    <line x1="48.1000000000005" y1="10.0000000000011" x2="44.9250000000006" y2="10.0000000000003"/>
    <line x1="44.9250000000006" y1="10.0000000000003" x2="44.9250000000006" y2="13.1750000000012"/>
    <line x1="44.9250000000006" y1="13.1750000000012" x2="41.7500000000005" y2="13.1750000000012"/>
    <line x1="41.7500000000005" y1="13.1750000000012" x2="41.7500000000005" y2="10.0000000000002"/>
    <line x1="41.7500000000005" y1="10.0000000000002" x2="38.5750000000005" y2="10.0000000000015"/>
    <line x1="38.5750000000005" y1="10.0000000000015" x2="38.5750000000005" y2="13.1750000000012"/>
    <line x1="38.5750000000005" y1="13.1750000000012" x2="35.4000000000005" y2="13.1750000000012"/>
    <line x1="35.4000000000005" y1="13.1750000000012" x2="35.4000000000005" y2="10.0000000000011"/>
    <line x1="35.4000000000005" y1="10.0000000000011" x2="32.2250000000006" y2="10.0000000000005"/>
    <line x1="32.2250000000006" y1="10.0000000000005" x2="32.2250000000005" y2="13.1750000000012"/>
    <line x1="32.2250000000005" y1="13.1750000000012" x2="29.0500000000006" y2="13.1750000000012"/>
    <line x1="29.0500000000006" y1="13.1750000000012" x2="29.0500000000006" y2="10.0000000000004"/>
    <line x1="29.0500000000006" y1="10.0000000000004" x2="25.8750000000005" y2="10.0000000000006"/>
    <line x1="25.8750000000005" y1="10.0000000000006" x2="25.8750000000005" y2="13.1750000000012"/>
    <line x1="25.8750000000005" y1="13.1750000000012" x2="22.7000000000006" y2="13.1750000000012"/>
    <line x1="22.7000000000006" y1="13.1750000000012" x2="22.7000000000006" y2="10.0000000000008"/>
    <line x1="22.7000000000006" y1="10.0000000000008" x2="19.5250000000005" y2="10.0000000000025"/>
    <line x1="19.5250000000005" y1="10.0000000000025" x2="19.5250000000005" y2="13.1750000000012"/>
    <line x1="19.5250000000005" y1="13.1750000000012" x2="16.3500000000005" y2="13.1750000000012"/>
    <line x1="16.3500000000005" y1="13.1750000000012" x2="16.3500000000006" y2="10.0"/>
    <line x1="16.3500000000006" y1="10.0" x2="13.1750000000006" y2="10.0000000000023"/>
    <line x1="13.1750000000006" y1="10.0000000000023" x2="13.1750000000006" y2="13.1750000000012"/>
    <line x1="13.1750000000006" y1="13.1750000000012" x2="10.0000000000005" y2="13.1750000000012"/>
    <line x1="10.0000000000005" y1="13.1750000000012" x2="10.0000000000005" y2="16.3500000000018"/>
    <line x1="10.0000000000005" y1="16.3500000000018" x2="13.1750000000005" y2="16.3500000000013"/>
    <line x1="13.1750000000005" y1="16.3500000000013" x2="13.1750000000007" y2="19.5250000000017"/>
    <line x1="13.1750000000007" y1="19.5250000000017" x2="10.0000000000006" y2="19.5250000000012"/>
    <line x1="10.0000000000006" y1="19.5250000000012" x2="10.0000000000006" y2="22.7000000000017"/>
    <line x1="10.0000000000006" y1="22.7000000000017" x2="13.1750000000005" y2="22.7000000000011"/>
    <line x1="13.1750000000005" y1="22.7000000000011" x2="13.1750000000005" y2="25.8750000000013"/>
    <line x1="13.1750000000005" y1="25.8750000000013" x2="10.0000000000005" y2="25.8750000000013"/>
    <line x1="10.0000000000005" y1="25.8750000000013" x2="10.0000000000006" y2="29.0500000000015"/>
    <line x1="10.0000000000006" y1="29.0500000000015" x2="13.1750000000006" y2="29.0500000000012"/>
    <line x1="13.1750000000006" y1="29.0500000000012" x2="13.1750000000006" y2="32.2250000000012"/>
    <line x1="13.1750000000006" y1="32.2250000000012" x2="10.0000000000005" y2="32.2250000000011"/>
    <line x1="10.0000000000005" y1="32.2250000000011" x2="10.0000000000005" y2="35.4000000000013"/>
    <line x1="10.0000000000005" y1="35.4000000000013" x2="13.1750000000005" y2="35.400000000001"/>
    <line x1="13.1750000000005" y1="35.400000000001" x2="13.1750000000005" y2="38.5750000000012"/>
    <line x1="13.1750000000005" y1="38.5750000000012" x2="10.0000000000005" y2="38.5750000000011"/>
    <line x1="10.0000000000005" y1="38.5750000000011" x2="10.0000000000004" y2="41.7500000000011"/>
    <line x1="10.0000000000004" y1="41.7500000000011" x2="13.1750000000004" y2="41.7500000000012"/>
    <line x1="13.1750000000004" y1="41.7500000000012" x2="13.1750000000005" y2="44.9250000000012"/>
    <line x1="13.1750000000005" y1="44.9250000000012" x2="10.0000000000005" y2="44.9250000000013"/>
    <line x1="10.0000000000005" y1="44.9250000000013" x2="10.0000000000005" y2="48.1000000000012"/>
    <line x1="10.0000000000005" y1="48.1000000000012" x2="13.1750000000005" y2="48.1000000000013"/>
    <line x1="13.1750000000005" y1="48.1000000000013" x2="13.1750000000004" y2="51.2750000000012"/>
    <line x1="13.1750000000004" y1="51.2750000000012" x2="10.0000000000004" y2="51.2750000000015"/>
    <line x1="10.0000000000004" y1="51.2750000000015" x2="10.0000000000005" y2="54.4500000000013"/>
    <line x1="10.0000000000005" y1="54.4500000000013" x2="13.1750000000005" y2="54.4500000000013"/>
    <line x1="13.1750000000005" y1="54.4500000000013" x2="13.1750000000005" y2="57.6250000000012"/>
    <line x1="13.1750000000005" y1="57.6250000000012" x2="10.0000000000005" y2="57.6250000000012"/>
    <line x1="10.0000000000005" y1="57.6250000000012" x2="10.0000000000004" y2="60.8000000000011"/>
    <line x1="10.0000000000004" y1="60.8000000000011" x2="13.1750000000005" y2="60.8000000000012"/>
    <line x1="13.1750000000005" y1="60.8000000000012" x2="13.1750000000004" y2="63.9750000000013"/>
    <line x1="13.1750000000004" y1="63.9750000000013" x2="10.0000000000004" y2="63.9750000000012"/>
    <line x1="10.0000000000004" y1="63.9750000000012" x2="10.0000000000003" y2="67.1500000000011"/>
    <line x1="10.0000000000003" y1="67.1500000000011" x2="13.1750000000003" y2="67.1500000000013"/>
    <line x1="13.1750000000003" y1="67.1500000000013" x2="13.1750000000005" y2="70.3250000000012"/>
    <line x1="13.1750000000005" y1="70.3250000000012" x2="10.0000000000005" y2="70.3250000000012"/>
    <line x1="10.0000000000005" y1="70.3250000000012" x2="10.0000000000004" y2="73.5000000000012"/>
    <line x1="10.0000000000004" y1="73.5000000000012" x2="13.1750000000004" y2="73.5000000000012"/>
    <line x1="13.1750000000004" y1="73.5000000000012" x2="13.1750000000002" y2="76.6750000000013"/>
    <line x1="13.1750000000002" y1="76.6750000000013" x2="10.0000000000003" y2="76.6750000000014"/>
    <line x1="10.0000000000003" y1="76.6750000000014" x2="10.0000000000004" y2="79.8500000000014"/>
    <line x1="10.0000000000004" y1="79.8500000000014" x2="13.1750000000004" y2="79.8500000000013"/>
    <line x1="13.1750000000004" y1="79.8500000000013" x2="13.1750000000004" y2="83.0250000000013"/>
    <line x1="13.1750000000004" y1="83.0250000000013" x2="10.0000000000004" y2="83.0250000000013"/>
    <line x1="10.0000000000004" y1="83.0250000000013" x2="10.0000000000003" y2="86.2000000000013"/>
    <line x1="10.0000000000003" y1="86.2000000000013" x2="13.1750000000002" y2="86.2000000000012"/>
    <line x1="13.1750000000002" y1="86.2000000000012" x2="13.1750000000003" y2="89.3750000000014"/>
    <line x1="13.1750000000003" y1="89.3750000000014" x2="10.0000000000003" y2="89.3750000000013"/>
    <line x1="10.0000000000003" y1="89.3750000000013" x2="10.0000000000002" y2="92.5500000000012"/>
    <line x1="10.0000000000002" y1="92.5500000000012" x2="13.1750000000002" y2="92.5500000000013"/>
    <line x1="13.1750000000002" y1="92.5500000000013" x2="13.1750000000003" y2="95.7250000000014"/>
    <line x1="13.1750000000003" y1="95.7250000000014" x2="10.0000000000003" y2="95.7250000000013"/>
    <line x1="10.0000000000003" y1="95.7250000000013" x2="10.0000000000003" y2="98.9000000000013"/>
    <line x1="10.0000000000003" y1="98.9000000000013" x2="13.1750000000003" y2="98.9000000000014"/>
    <line x1="13.1750000000003" y1="98.9000000000014" x2="13.1750000000002" y2="102.075000000001"/>
    <line x1="13.1750000000002" y1="102.075000000001" x2="10.0000000000002" y2="102.075000000001"/>
    <line x1="10.0000000000002" y1="102.075000000001" x2="10.0000000000003" y2="105.250000000001"/>
    <line x1="10.0000000000003" y1="105.250000000001" x2="13.1750000000003" y2="105.250000000001"/>
    <line x1="13.1750000000003" y1="105.250000000001" x2="13.1750000000003" y2="108.425000000001"/>
    <line x1="13.1750000000003" y1="108.425000000001" x2="10.0000000000003" y2="108.425000000001"/>
    <line x1="10.0000000000003" y1="108.425000000001" x2="10.0000000000003" y2="111.600000000001"/>
    <line x1="10.0000000000003" y1="111.600000000001" x2="13.1750000000002" y2="111.600000000001"/>
    <line x1="13.1750000000002" y1="111.600000000001" x2="13.1750000000002" y2="114.775000000001"/>
    <line x1="13.1750000000002" y1="114.775000000001" x2="10.0000000000002" y2="114.775000000001"/>
    <line x1="10.0000000000002" y1="114.775000000001" x2="10.0000000000001" y2="117.950000000001"/>
    <line x1="10.0000000000001" y1="117.950000000001" x2="13.1750000000001" y2="117.950000000001"/>
    <line x1="13.1750000000001" y1="117.950000000001" x2="13.1750000000003" y2="121.125000000001"/>
    <line x1="13.1750000000003" y1="121.125000000001" x2="10.0000000000003" y2="121.125000000001"/>
    <line x1="10.0000000000003" y1="121.125000000001" x2="10.0000000000002" y2="124.300000000001"/>
    <line x1="10.0000000000002" y1="124.300000000001" x2="13.1750000000002" y2="124.300000000001"/>
    <line x1="13.1750000000002" y1="124.300000000001" x2="13.1750000000001" y2="127.475000000002"/>
    <line x1="13.1750000000001" y1="127.475000000002" x2="10.0000000000001" y2="127.475000000002"/>
    <line x1="10.0000000000001" y1="127.475000000002" x2="10.0000000000002" y2="130.650000000001"/>
    <line x1="10.0000000000002" y1="130.650000000001" x2="13.1750000000002" y2="130.650000000001"/>
    <line x1="13.1750000000002" y1="130.650000000001" x2="13.1750000000002" y2="133.825000000001"/>
    <line x1="13.1750000000002" y1="133.825000000001" x2="10.0000000000001" y2="133.825000000001"/>
    <line x1="10.0000000000001" y1="133.825000000001" x2="10.0000000000001" y2="137.000000000001"/>
    <line x1="10.0000000000001" y1="137.000000000001" x2="13.1750000000001" y2="137.000000000001"/>
    <line x1="13.1750000000001" y1="137.000000000001" x2="13.1750000000001" y2="140.175000000001"/>
    <line x1="13.1750000000001" y1="140.175000000001" x2="10.0000000000001" y2="140.175000000001"/>
    <line x1="10.0000000000001" y1="140.175000000001" x2="10.0" y2="143.350000000001"/>
    <line x1="10.0" y1="143.350000000001" x2="13.175" y2="143.350000000001"/>
    <line x1="13.175" y1="143.350000000001" x2="13.175" y2="146.525000000001"/>
    <line x1="13.175" y1="146.525000000001" x2="10.0000000000001" y2="146.525000000001"/>
    <line x1="10.0000000000001" y1="146.525000000001" x2="10.0000000000001" y2="149.700000000001"/>
    <line x1="10.0000000000001" y1="149.700000000001" x2="16.35" y2="149.700000000001"/>
    <line x1="16.35" y1="149.700000000001" x2="16.35" y2="152.875000000001"/>
    <line x1="16.35" y1="152.875000000001" x2="19.5249999999999" y2="152.875000000001"/>
    <line x1="19.5249999999999" y1="152.875000000001" x2="19.525" y2="149.700000000001"/>
    <line x1="19.525" y1="149.700000000001" x2="22.7" y2="149.700000000001"/>
    <line x1="22.7" y1="149.700000000001" x2="22.7" y2="152.875000000001"/>
    <line x1="22.7" y1="152.875000000001" x2="25.875" y2="152.875000000001"/>
    <line x1="25.875" y1="152.875000000001" x2="25.875" y2="149.700000000001"/>
    <line x1="25.875" y1="149.700000000001" x2="29.05" y2="149.700000000001"/>
    <line x1="29.05" y1="149.700000000001" x2="29.05" y2="152.875000000001"/>
    <line x1="29.05" y1="152.875000000001" x2="32.2250000000001" y2="152.875000000001"/>
    <line x1="32.2250000000001" y1="152.875000000001" x2="32.225" y2="149.700000000001"/>
    <line x1="32.225" y1="149.700000000001" x2="35.4" y2="149.700000000001"/>
    <line x1="35.4" y1="149.700000000001" x2="35.4" y2="152.875000000001"/>
    <line x1="35.4" y1="152.875000000001" x2="38.575" y2="152.875000000001"/>
    <line x1="38.575" y1="152.875000000001" x2="38.575" y2="149.700000000001"/>
    <line x1="38.575" y1="149.700000000001" x2="41.7499999999999" y2="149.700000000001"/>
    <line x1="41.7499999999999" y1="149.700000000001" x2="41.75" y2="152.875000000001"/>
    <line x1="41.75" y1="152.875000000001" x2="44.925" y2="152.875000000001"/>
    <line x1="44.925" y1="152.875000000001" x2="44.925" y2="149.700000000001"/>
    <line x1="44.925" y1="149.700000000001" x2="48.1" y2="149.700000000001"/>
    <line x1="48.1" y1="149.700000000001" x2="48.1" y2="152.875000000001"/>
    <line x1="48.1" y1="152.875000000001" x2="51.275" y2="152.875000000001"/>
    <line x1="51.275" y1="152.875000000001" x2="51.2749999999999" y2="149.700000000001"/>
    <line x1="51.2749999999999" y1="149.700000000001" x2="54.45" y2="149.700000000001"/>
    <line x1="54.45" y1="149.700000000001" x2="54.45" y2="152.875000000001"/>
    <line x1="54.45" y1="152.875000000001" x2="57.625" y2="152.875000000001"/>
    <line x1="57.625" y1="152.875000000001" x2="57.625" y2="149.700000000001"/>
    <line x1="57.625" y1="149.700000000001" x2="60.8" y2="149.700000000001"/>
    <line x1="60.8" y1="149.700000000001" x2="60.8" y2="152.875000000001"/>
    <line x1="60.8" y1="152.875000000001" x2="63.975" y2="152.875000000001"/>
    <line x1="63.975" y1="152.875000000001" x2="63.975" y2="149.700000000001"/>
    <line x1="63.975" y1="149.700000000001" x2="67.15" y2="149.700000000001"/>
    <line x1="67.15" y1="149.700000000001" x2="67.15" y2="152.875000000001"/>
    <line x1="67.15" y1="152.875000000001" x2="70.325" y2="152.875000000001"/>
    <line x1="70.325" y1="152.875000000001" x2="70.325" y2="149.700000000001"/>
    <line x1="70.325" y1="149.700000000001" x2="73.5" y2="149.700000000001"/>
    <line x1="73.5" y1="149.700000000001" x2="73.5" y2="152.875000000001"/>
    <line x1="73.5" y1="152.875000000001" x2="76.675" y2="152.875000000001"/>
    <line x1="76.675" y1="152.875000000001" x2="76.675" y2="149.700000000001"/>
    <line x1="76.675" y1="149.700000000001" x2="79.85" y2="149.700000000001"/>
    <line x1="79.85" y1="149.700000000001" x2="79.85" y2="152.875000000001"/>
    <line x1="79.85" y1="152.875000000001" x2="83.025" y2="152.875000000001"/>
    <line x1="83.025" y1="152.875000000001" x2="83.025" y2="149.700000000001"/>
    <line x1="83.025" y1="149.700000000001" x2="86.2" y2="149.700000000001"/>
    <line x1="86.2" y1="149.700000000001" x2="86.2" y2="152.875000000001"/>
    <line x1="86.2" y1="152.875000000001" x2="89.375" y2="152.875000000001"/>
    <line x1="89.375" y1="152.875000000001" x2="89.375" y2="149.700000000001"/>
    <line x1="89.375" y1="149.700000000001" x2="92.55" y2="149.700000000001"/>
    <line x1="92.55" y1="149.700000000001" x2="92.55" y2="152.875000000001"/>
    <line x1="92.55" y1="152.875000000001" x2="95.725" y2="152.875000000001"/>
    <line x1="95.725" y1="152.875000000001" x2="95.725" y2="149.700000000001"/>
    <line x1="95.725" y1="149.700000000001" x2="98.9" y2="149.700000000001"/>
    <line x1="98.9" y1="149.700000000001" x2="98.9" y2="152.875000000001"/>
    <line x1="98.9" y1="152.875000000001" x2="102.075" y2="152.875000000001"/>
    <line x1="102.075" y1="152.875000000001" x2="102.075" y2="149.700000000001"/>
    <line x1="102.075" y1="149.700000000001" x2="105.25" y2="149.700000000001"/>
    <line x1="105.25" y1="149.700000000001" x2="105.25" y2="152.875000000001"/>
    <line x1="105.25" y1="152.875000000001" x2="108.425" y2="152.875000000001"/>
    <line x1="108.425" y1="152.875000000001" x2="108.425" y2="149.700000000001"/>
    <line x1="108.425" y1="149.700000000001" x2="111.6" y2="149.700000000001"/>
    <line x1="111.6" y1="149.700000000001" x2="111.6" y2="152.875000000001"/>
    <line x1="111.6" y1="152.875000000001" x2="114.775" y2="152.875000000001"/>
    <line x1="114.775" y1="152.875000000001" x2="114.775" y2="149.700000000001"/>
    <line x1="114.775" y1="149.700000000001" x2="117.95" y2="149.700000000001"/>
    <line x1="117.95" y1="149.700000000001" x2="117.95" y2="152.875000000001"/>
    <line x1="117.95" y1="152.875000000001" x2="121.125" y2="152.875000000001"/>
    <line x1="121.125" y1="152.875000000001" x2="121.125" y2="149.700000000001"/>
    <line x1="121.125" y1="149.700000000001" x2="124.3" y2="149.700000000001"/>
    <line x1="124.3" y1="149.700000000001" x2="124.3" y2="152.875000000001"/>
    <line x1="124.3" y1="152.875000000001" x2="127.475" y2="152.875000000001"/>
    <line x1="127.475" y1="152.875000000001" x2="127.475" y2="149.700000000001"/>
    <line x1="127.475" y1="149.700000000001" x2="130.65" y2="149.700000000001"/>
    <line x1="130.65" y1="149.700000000001" x2="130.65" y2="152.875000000001"/>
    <line x1="130.65" y1="152.875000000001" x2="133.825" y2="152.875000000001"/>
    <line x1="133.825" y1="152.875000000001" x2="133.825" y2="149.700000000001"/>
    <line x1="133.825" y1="149.700000000001" x2="137.0" y2="149.700000000001"/>
    <line x1="137.0" y1="149.700000000001" x2="137.0" y2="152.875000000001"/>
    <line x1="137.0" y1="152.875000000001" x2="140.175" y2="152.875000000001"/>
    <line x1="140.175" y1="152.875000000001" x2="140.175" y2="149.700000000001"/>
    <line x1="140.175" y1="149.700000000001" x2="143.35" y2="149.700000000001"/>
    <line x1="143.35" y1="149.700000000001" x2="143.35" y2="152.875000000001"/>
    <line x1="143.35" y1="152.875000000001" x2="146.525" y2="152.875000000001"/>
    <line x1="146.525" y1="152.875000000001" x2="146.525" y2="149.700000000001"/>
    <line x1="146.525" y1="149.700000000001" x2="149.7" y2="149.700000000001"/>
    <line x1="149.7" y1="149.700000000001" x2="149.7" y2="152.875000000001"/>
    <line x1="149.7" y1="152.875000000001" x2="152.875" y2="152.875000000001"/>
    <line x1="152.875" y1="152.875000000001" x2="152.875" y2="149.700000000001"/>
    <line x1="152.875" y1="149.700000000001" x2="156.05" y2="149.700000000001"/>
    <line x1="156.05" y1="149.700000000001" x2="156.05" y2="152.875000000001"/>
    <line x1="156.05" y1="152.875000000001" x2="159.225" y2="152.875000000001"/>
    <line x1="159.225" y1="152.875000000001" x2="159.225" y2="149.700000000001"/>
    <line x1="159.225" y1="149.700000000001" x2="162.4" y2="149.700000000001"/>
    <line x1="162.4" y1="149.700000000001" x2="162.4" y2="152.875000000001"/>
    <line x1="162.4" y1="152.875000000001" x2="165.575" y2="152.875000000001"/>
    <line x1="165.575" y1="152.875000000001" x2="165.575" y2="149.700000000001"/>
    <line x1="165.575" y1="149.700000000001" x2="168.75" y2="149.700000000001"/>
    <line x1="168.75" y1="149.700000000001" x2="168.75" y2="152.875000000001"/>
    <line x1="168.75" y1="152.875000000001" x2="171.925" y2="152.875000000001"/>
    <line x1="171.925" y1="152.875000000001" x2="171.925" y2="149.700000000001"/>
    <line x1="171.925" y1="149.700000000001" x2="175.1" y2="149.700000000001"/>
    <line x1="175.1" y1="149.700000000001" x2="175.1" y2="152.875000000001"/>
    <line x1="175.1" y1="152.875000000001" x2="178.275" y2="152.875000000001"/>
    <line x1="178.275" y1="152.875000000001" x2="178.275" y2="149.700000000001"/>
    <line x1="178.275" y1="149.700000000001" x2="181.45" y2="149.700000000001"/>
    <line x1="181.45" y1="149.700000000001" x2="181.45" y2="152.875000000001"/>
    <line x1="181.45" y1="152.875000000001" x2="184.625" y2="152.875000000001"/>
    <line x1="184.625" y1="152.875000000001" x2="184.625" y2="149.700000000001"/>
    <line x1="184.625" y1="149.700000000001" x2="187.8" y2="149.700000000001"/>
    <line x1="187.8" y1="149.700000000001" x2="187.8" y2="152.875000000001"/>
    <line x1="187.8" y1="152.875000000001" x2="190.975" y2="152.875000000001"/>
    <line x1="190.975" y1="152.875000000001" x2="190.975" y2="149.700000000001"/>
    <line x1="190.975" y1="149.700000000001" x2="194.15" y2="149.700000000001"/>
    <line x1="194.15" y1="149.700000000001" x2="194.15" y2="152.875000000001"/>
    <line x1="194.15" y1="152.875000000001" x2="200.5" y2="152.875000000001"/>
    <line x1="200.5" y1="152.875000000001" x2="200.5" y2="149.700000000001"/>
    <line x1="200.5" y1="149.700000000001" x2="200.5" y2="146.525000000001"/>
    <line x1="200.5" y1="146.525000000001" x2="197.325" y2="146.525000000001"/>
    <line x1="197.325" y1="146.525000000001" x2="197.325" y2="143.350000000001"/>
    <line x1="197.325" y1="143.350000000001" x2="200.5" y2="143.350000000002"/>
    <line x1="200.5" y1="143.350000000002" x2="200.5" y2="140.175000000002"/>
    <line x1="200.5" y1="140.175000000002" x2="197.325" y2="140.175000000001"/>
    <line x1="197.325" y1="140.175000000001" x2="197.325" y2="137.000000000001"/>
    <line x1="197.325" y1="137.000000000001" x2="200.5" y2="137.000000000001"/>
    <line x1="200.5" y1="137.000000000001" x2="200.5" y2="133.825000000001"/>
    <line x1="200.5" y1="133.825000000001" x2="197.325" y2="133.825000000001"/>
    <line x1="197.325" y1="133.825000000001" x2="197.325" y2="130.650000000001"/>
    <line x1="197.325" y1="130.650000000001" x2="200.5" y2="130.650000000001"/>
    <line x1="200.5" y1="130.650000000001" x2="200.5" y2="127.475000000001"/>
    <line x1="200.5" y1="127.475000000001" x2="197.325" y2="127.475000000001"/>
    <line x1="197.325" y1="127.475000000001" x2="197.325" y2="124.300000000001"/>
    <line x1="197.325" y1="124.300000000001" x2="200.499999999998" y2="124.300000000002"/>
    <line x1="200.499999999998" y1="124.300000000002" x2="200.499999999998" y2="121.125000000002"/>
    <line x1="200.499999999998" y1="121.125000000002" x2="197.325" y2="121.125000000001"/>
    <line x1="197.325" y1="121.125000000001" x2="197.325" y2="117.950000000001"/>
    <line x1="197.325" y1="117.950000000001" x2="200.499999999999" y2="117.950000000001"/>
    <line x1="200.499999999999" y1="117.950000000001" x2="200.499999999999" y2="114.775000000001"/>
    <line x1="200.499999999999" y1="114.775000000001" x2="197.325" y2="114.775000000001"/>
    <line x1="197.325" y1="114.775000000001" x2="197.325" y2="111.600000000001"/>
    <line x1="197.325" y1="111.600000000001" x2="200.499999999998" y2="111.600000000002"/>
    <line x1="200.499999999998" y1="111.600000000002" x2="200.499999999998" y2="108.425000000001"/>
    <line x1="200.499999999998" y1="108.425000000001" x2="197.325" y2="108.425000000001"/>
    <line x1="197.325" y1="108.425000000001" x2="197.325" y2="105.250000000001"/>
    <line x1="197.325" y1="105.250000000001" x2="200.499999999998" y2="105.250000000001"/>
    <line x1="200.499999999998" y1="105.250000000001" x2="200.499999999998" y2="102.075000000001"/>
    <line x1="200.499999999998" y1="102.075000000001" x2="197.325" y2="102.075000000001"/>
    <line x1="197.325" y1="102.075000000001" x2="197.325" y2="98.9000000000013"/>
    <line x1="197.325" y1="98.9000000000013" x2="200.5" y2="98.9000000000013"/>
    <line x1="200.5" y1="98.9000000000013" x2="200.5" y2="95.7250000000013"/>
    <line x1="200.5" y1="95.7250000000013" x2="197.325" y2="95.7250000000013"/>
    <line x1="197.325" y1="95.7250000000013" x2="197.325" y2="92.5500000000014"/>
    <line x1="197.325" y1="92.5500000000014" x2="200.499999999998" y2="92.5500000000015"/>
    <line x1="200.499999999998" y1="92.5500000000015" x2="200.499999999998" y2="89.3750000000015"/>
    <line x1="200.499999999998" y1="89.3750000000015" x2="197.325" y2="89.3750000000014"/>
    <line x1="197.325" y1="89.3750000000014" x2="197.325" y2="86.2000000000012"/>
    <line x1="197.325" y1="86.2000000000012" x2="200.5" y2="86.2000000000012"/>
    <line x1="200.5" y1="86.2000000000012" x2="200.5" y2="83.0250000000013"/>
    <line x1="200.5" y1="83.0250000000013" x2="197.325" y2="83.0250000000013"/>
    <line x1="197.325" y1="83.0250000000013" x2="197.325" y2="79.8500000000013"/>
    <line x1="197.325" y1="79.8500000000013" x2="200.5" y2="79.8500000000013"/>
    <line x1="200.5" y1="79.8500000000013" x2="200.5" y2="76.6750000000013"/>
    <line x1="200.5" y1="76.6750000000013" x2="197.325" y2="76.6750000000013"/>
    <line x1="197.325" y1="76.6750000000013" x2="197.325" y2="73.5000000000013"/>
    <line x1="197.325" y1="73.5000000000013" x2="200.5" y2="73.5000000000014"/>
    <line x1="200.5" y1="73.5000000000014" x2="200.5" y2="70.3250000000014"/>
    <line x1="200.5" y1="70.3250000000014" x2="197.325" y2="70.3250000000013"/>
    <line x1="197.325" y1="70.3250000000013" x2="197.325" y2="67.1500000000013"/>
    <line x1="197.325" y1="67.1500000000013" x2="200.5" y2="67.1500000000013"/>
    <line x1="200.5" y1="67.1500000000013" x2="200.5" y2="63.9750000000013"/>
    <line x1="200.5" y1="63.9750000000013" x2="197.325" y2="63.9750000000013"/>
    <line x1="197.325" y1="63.9750000000013" x2="197.325" y2="60.8000000000013"/>
    <line x1="197.325" y1="60.8000000000013" x2="200.5" y2="60.8000000000014"/>
    <line x1="200.5" y1="60.8000000000014" x2="200.5" y2="57.6250000000014"/>
    <line x1="200.5" y1="57.6250000000014" x2="197.325" y2="57.6250000000013"/>
    <line x1="197.325" y1="57.6250000000013" x2="197.325" y2="54.4500000000013"/>
    <line x1="197.325" y1="54.4500000000013" x2="200.5" y2="54.4500000000011"/>
    <line x1="200.5" y1="54.4500000000011" x2="200.5" y2="51.2750000000011"/>
    <line x1="200.5" y1="51.2750000000011" x2="197.325" y2="51.2750000000013"/>
    <line x1="197.325" y1="51.2750000000013" x2="197.325" y2="48.1000000000013"/>
    <line x1="197.325" y1="48.1000000000013" x2="200.5" y2="48.1000000000013"/>
    <line x1="200.5" y1="48.1000000000013" x2="200.5" y2="44.9250000000013"/>
    <line x1="200.5" y1="44.9250000000013" x2="197.325" y2="44.9250000000013"/>
    <line x1="197.325" y1="44.9250000000013" x2="197.325" y2="41.7500000000013"/>
    <line x1="197.325" y1="41.7500000000013" x2="200.5" y2="41.7500000000014"/>
    <line x1="200.5" y1="41.7500000000014" x2="200.5" y2="38.5750000000014"/>
    <line x1="200.5" y1="38.5750000000014" x2="197.325" y2="38.5750000000013"/>
    <line x1="197.325" y1="38.5750000000013" x2="197.325" y2="35.4000000000012"/>
    <line x1="197.325" y1="35.4000000000012" x2="200.5" y2="35.4000000000012"/>
    <line x1="200.5" y1="35.4000000000012" x2="200.5" y2="32.2250000000012"/>
    <line x1="200.5" y1="32.2250000000012" x2="197.325" y2="32.2250000000012"/>
    <line x1="197.325" y1="32.2250000000012" x2="197.325" y2="29.0500000000012"/>
    <line x1="197.325" y1="29.0500000000012" x2="200.5" y2="29.0500000000012"/>
    <line x1="200.5" y1="29.0500000000012" x2="200.5" y2="25.8750000000012"/>
    <line x1="200.5" y1="25.8750000000012" x2="197.325" y2="25.8750000000012"/>
    <line x1="197.325" y1="25.8750000000012" x2="197.325" y2="22.7000000000012"/>
    <line x1="197.325" y1="22.7000000000012" x2="200.5" y2="22.7000000000014"/>
    <line x1="200.5" y1="22.7000000000014" x2="200.500000000001" y2="19.5250000000013"/>
    <line x1="200.500000000001" y1="19.5250000000013" x2="197.325000000001" y2="19.5250000000012"/>
    <line x1="197.325000000001" y1="19.5250000000012" x2="197.325" y2="16.3500000000012"/>
    <line x1="197.325" y1="16.3500000000012" x2="200.5" y2="16.3500000000012"/>
    <line x1="200.5" y1="16.3500000000012" x2="200.5" y2="13.1750000000012"/>
    <line x1="32.4376846714926" y1="36.1937500000015" x2="32.2250000000004" y2="35.4000000000013"/>
    <line x1="32.2250000000004" y1="35.4000000000013" x2="32.2250000000004" y2="34.5782495318009"/>
    <line x1="32.2250000000004" y1="34.5782495318009" x2="32.4376846714926" y2="33.7844995318007"/>
    <line x1="32.4376846714926" y1="33.7844995318007" x2="32.8485599055928" y2="33.0728427507676"/>
    <line x1="32.8485599055928" y1="33.0728427507676" x2="33.4296252341007" y2="32.4917774222597"/>
    <line x1="33.4296252341007" y1="32.4917774222597" x2="34.141282015134" y2="32.0809021881593"/>
    <line x1="34.141282015134" y1="32.0809021881593" x2="34.935032015134" y2="31.8682175166671"/>
    <line x1="34.935032015134" y1="31.8682175166671" x2="35.7567824833345" y2="31.8682175166672"/>
    <line x1="35.7567824833345" y1="31.8682175166672" x2="36.5505324833346" y2="32.0809021881592"/>
    <line x1="36.5505324833346" y1="32.0809021881592" x2="37.2621892643679" y2="32.4917774222594"/>
    <line x1="37.2621892643679" y1="32.4917774222594" x2="37.8432545928757" y2="33.0728427507674"/>
    <line x1="37.8432545928757" y1="33.0728427507674" x2="38.254129826976" y2="33.784499531801"/>
    <line x1="38.254129826976" y1="33.784499531801" x2="38.4668144984682" y2="34.5782495318009"/>
    <line x1="38.4668144984682" y1="34.5782495318009" x2="38.4668144984682" y2="35.4000000000013"/>
    <line x1="38.4668144984682" y1="35.4000000000013" x2="38.254129826976" y2="36.1937500000014"/>
    <line x1="38.254129826976" y1="36.1937500000014" x2="37.8432545928758" y2="36.9054067810346"/>
    <line x1="37.8432545928758" y1="36.9054067810346" x2="37.2621892643679" y2="37.4864721095425"/>
    <line x1="37.2621892643679" y1="37.4864721095425" x2="36.5505324833346" y2="37.8973473436428"/>
    <line x1="36.5505324833346" y1="37.8973473436428" x2="35.7567824833346" y2="38.1100320151351"/>
    <line x1="35.7567824833346" y1="38.1100320151351" x2="34.9350320151341" y2="38.1100320151351"/>
    <line x1="34.9350320151341" y1="38.1100320151351" x2="34.141282015134" y2="37.8973473436427"/>
    <line x1="34.141282015134" y1="37.8973473436427" x2="33.4296252341007" y2="37.4864721095427"/>
    <line x1="33.4296252341007" y1="37.4864721095427" x2="32.8485599055929" y2="36.9054067810346"/>
    <line x1="32.8485599055929" y1="36.9054067810346" x2="32.4376846714926" y2="36.1937500000015"/>
    <line x1="178.166814498468" y1="34.5782495318008" x2="178.275" y2="35.4000000000013"/>
    <line x1="178.275" y1="35.4000000000013" x2="178.166814498468" y2="36.2217504682018"/>
    <line x1="178.166814498468" y1="36.2217504682018" x2="177.849630657016" y2="36.9875000000013"/>
    <line x1="177.849630657016" y1="36.9875000000013" x2="177.345064030268" y2="37.6450640302687"/>
    <line x1="177.345064030268" y1="37.6450640302687" x2="176.6875" y2="38.1496306570169"/>
    <line x1="176.6875" y1="38.1496306570169" x2="175.921750468201" y2="38.4668144984691"/>
    <line x1="175.921750468201" y1="38.4668144984691" x2="175.1" y2="38.5750000000014"/>
    <line x1="175.1" y1="38.5750000000014" x2="174.2782495318" y2="38.4668144984691"/>
    <line x1="174.2782495318" y1="38.4668144984691" x2="173.5125" y2="38.149630657017"/>
    <line x1="173.5125" y1="38.149630657017" x2="172.854935969733" y2="37.6450640302687"/>
    <line x1="172.854935969733" y1="37.6450640302687" x2="172.350369342985" y2="36.9875000000013"/>
    <line x1="172.350369342985" y1="36.9875000000013" x2="172.033185501533" y2="36.2217504682018"/>
    <line x1="172.033185501533" y1="36.2217504682018" x2="171.925" y2="35.4000000000013"/>
    <line x1="171.925" y1="35.4000000000013" x2="172.033185501533" y2="34.5782495318008"/>
    <line x1="172.033185501533" y1="34.5782495318008" x2="172.350369342985" y2="33.8125000000014"/>
    <line x1="172.350369342985" y1="33.8125000000014" x2="172.854935969733" y2="33.1549359697341"/>
    <line x1="172.854935969733" y1="33.1549359697341" x2="173.5125" y2="32.6503693429858"/>
    <line x1="173.5125" y1="32.6503693429858" x2="174.2782495318" y2="32.3331855015336"/>
    <line x1="174.2782495318" y1="32.3331855015336" x2="175.1" y2="32.2250000000014"/>
    <line x1="175.1" y1="32.2250000000014" x2="175.921750468201" y2="32.3331855015336"/>
    <line x1="175.921750468201" y1="32.3331855015336" x2="176.6875" y2="32.6503693429858"/>
    <line x1="176.6875" y1="32.6503693429858" x2="177.345064030268" y2="33.1549359697341"/>
    <line x1="177.345064030268" y1="33.1549359697341" x2="177.849630657016" y2="33.8125000000014"/>
    <line x1="177.849630657016" y1="33.8125000000014" x2="178.166814498468" y2="34.5782495318008"/>
  </g>
</svg>
