<?xml version="1.0" standalone="no"?>
<!DOCTYPE svg PUBLIC "-//W3C//DTD SVG 1.1//EN" "http://www.w3.org/Graphics/SVG/1.1/DTD/svg11.dtd">
<svg width="73.9750000000029mm" height="343.850000000001mm"
 viewBox="0 0 73.9750000000029 343.850000000001"
 xmlns="http://www.w3.org/2000/svg" version="1.1"
 xmlns:xlink="http://www.w3.org/1999/xlink">
<desc>Output from Flights of Ideas SVG Sketchup Plugin</desc>

  <g id="face0" fill="none" stroke="rgb(0,0,255)" stroke-width="1" stroke-miterlimit="4" stroke-dasharray="none" stroke-linejoin="round" stroke-linecap="round">
    <line x1="60.8000000000029" y1="330.675000000001" x2="63.9749999999939" y2="330.675000000001"/>
    <line x1="63.9749999999939" y1="330.675000000001" x2="63.974999999994" y2="327.5"/>
    <line x1="63.974999999994" y1="327.5" x2="60.799999999994" y2="327.5"/>
    <line x1="60.799999999994" y1="327.5" x2="60.7999999999939" y2="324.325"/>
    <line x1="60.7999999999939" y1="324.325" x2="63.974999999994" y2="324.325"/>
    <line x1="63.974999999994" y1="324.325" x2="63.9749999999941" y2="321.15"/>
    <line x1="63.9749999999941" y1="321.15" x2="60.7999999999942" y2="321.15"/>
    <line x1="60.7999999999942" y1="321.15" x2="60.7999999999942" y2="317.975"/>
    <line x1="60.7999999999942" y1="317.975" x2="63.9749999999942" y2="317.975"/>
    <line x1="63.9749999999942" y1="317.975" x2="63.9749999999943" y2="314.8"/>
    <line x1="63.9749999999943" y1="314.8" x2="60.7999999999942" y2="314.8"/>
    <line x1="60.7999999999942" y1="314.8" x2="60.7999999999943" y2="311.625"/>
    <line x1="60.7999999999943" y1="311.625" x2="63.9749999999944" y2="311.625"/>
    <line x1="63.9749999999944" y1="311.625" x2="63.9749999999944" y2="308.45"/>
    <line x1="63.9749999999944" y1="308.45" x2="60.7999999999944" y2="308.45"/>
    <line x1="60.7999999999944" y1="308.45" x2="60.7999999999944" y2="305.275"/>
    <line x1="60.7999999999944" y1="305.275" x2="63.9749999999946" y2="305.275"/>
    <line x1="63.9749999999946" y1="305.275" x2="63.9749999999946" y2="302.1"/>
    <line x1="63.9749999999946" y1="302.1" x2="60.7999999999947" y2="302.1"/>
    <line x1="60.7999999999947" y1="302.1" x2="60.7999999999947" y2="298.925"/>
    <line x1="60.7999999999947" y1="298.925" x2="63.9749999999948" y2="298.925"/>
    <line x1="63.9749999999948" y1="298.925" x2="63.9749999999951" y2="295.75"/>
    <line x1="63.9749999999951" y1="295.75" x2="60.7999999999949" y2="295.75"/>
    <line x1="60.7999999999949" y1="295.75" x2="60.7999999999952" y2="292.575"/>
    <line x1="60.7999999999952" y1="292.575" x2="63.9749999999951" y2="292.575"/>
    <line x1="63.9749999999951" y1="292.575" x2="63.9749999999952" y2="289.4"/>
    <line x1="63.9749999999952" y1="289.4" x2="60.7999999999952" y2="289.4"/>
    <line x1="60.7999999999952" y1="289.4" x2="60.7999999999952" y2="286.225"/>
    <line x1="60.7999999999952" y1="286.225" x2="63.9749999999954" y2="286.225"/>
    <line x1="63.9749999999954" y1="286.225" x2="63.9749999999954" y2="283.05"/>
    <line x1="63.9749999999954" y1="283.05" x2="60.7999999999954" y2="283.05"/>
    <line x1="60.7999999999954" y1="283.05" x2="60.7999999999954" y2="279.875"/>
    <line x1="60.7999999999954" y1="279.875" x2="63.9749999999954" y2="279.875"/>
    <line x1="63.9749999999954" y1="279.875" x2="63.9749999999955" y2="276.7"/>
    <line x1="63.9749999999955" y1="276.7" x2="60.7999999999954" y2="276.7"/>
    <line x1="60.7999999999954" y1="276.7" x2="60.7999999999956" y2="273.525"/>
    <line x1="60.7999999999956" y1="273.525" x2="63.9749999999957" y2="273.525"/>
    <line x1="63.9749999999957" y1="273.525" x2="63.9749999999958" y2="270.35"/>
    <line x1="63.9749999999958" y1="270.35" x2="60.7999999999958" y2="270.35"/>
    <line x1="60.7999999999958" y1="270.35" x2="60.7999999999956" y2="267.175"/>
    <line x1="60.7999999999956" y1="267.175" x2="63.9749999999959" y2="267.175"/>
    <line x1="63.9749999999959" y1="267.175" x2="63.9749999999959" y2="264.0"/>
    <line x1="63.9749999999959" y1="264.0" x2="60.7999999999958" y2="264.0"/>
    <line x1="60.7999999999958" y1="264.0" x2="60.799999999996" y2="260.825"/>
    <line x1="60.799999999996" y1="260.825" x2="63.9749999999959" y2="260.825"/>
    <line x1="63.9749999999959" y1="260.825" x2="63.9749999999961" y2="257.65"/>
    <line x1="63.9749999999961" y1="257.65" x2="60.799999999996" y2="257.65"/>
    <line x1="60.799999999996" y1="257.65" x2="60.7999999999962" y2="254.475"/>
    <line x1="60.7999999999962" y1="254.475" x2="63.9749999999962" y2="254.475"/>
    <line x1="63.9749999999962" y1="254.475" x2="63.9749999999963" y2="251.3"/>
    <line x1="63.9749999999963" y1="251.3" x2="60.7999999999963" y2="251.3"/>
    <line x1="60.7999999999963" y1="251.3" x2="60.7999999999962" y2="248.125"/>
    <line x1="60.7999999999962" y1="248.125" x2="63.9749999999964" y2="248.125"/>
    <line x1="63.9749999999964" y1="248.125" x2="63.9749999999964" y2="244.95"/>
    <line x1="63.9749999999964" y1="244.95" x2="60.7999999999964" y2="244.95"/>
    <line x1="60.7999999999964" y1="244.95" x2="60.7999999999964" y2="241.775"/>
    <line x1="60.7999999999964" y1="241.775" x2="63.9749999999966" y2="241.775"/>
    <line x1="63.9749999999966" y1="241.775" x2="63.9749999999966" y2="238.6"/>
    <line x1="63.9749999999966" y1="238.6" x2="60.7999999999964" y2="238.6"/>
    <line x1="60.7999999999964" y1="238.6" x2="60.7999999999967" y2="235.425"/>
    <line x1="60.7999999999967" y1="235.425" x2="63.9749999999967" y2="235.425"/>
    <line x1="63.9749999999967" y1="235.425" x2="63.9749999999967" y2="232.25"/>
    <line x1="63.9749999999967" y1="232.25" x2="60.7999999999968" y2="232.25"/>
    <line x1="60.7999999999968" y1="232.25" x2="60.7999999999968" y2="229.075"/>
    <line x1="60.7999999999968" y1="229.075" x2="63.9749999999968" y2="229.075"/>
    <line x1="63.9749999999968" y1="229.075" x2="63.974999999997" y2="225.9"/>
    <line x1="63.974999999997" y1="225.9" x2="60.799999999997" y2="225.9"/>
    <line x1="60.799999999997" y1="225.9" x2="60.7999999999971" y2="222.725"/>
    <line x1="60.7999999999971" y1="222.725" x2="63.9749999999971" y2="222.725"/>
    <line x1="63.9749999999971" y1="222.725" x2="63.9749999999972" y2="219.55"/>
    <line x1="63.9749999999972" y1="219.55" x2="60.7999999999969" y2="219.55"/>
    <line x1="60.7999999999969" y1="219.55" x2="60.7999999999972" y2="216.375"/>
    <line x1="60.7999999999972" y1="216.375" x2="63.9749999999972" y2="216.375"/>
    <line x1="63.9749999999972" y1="216.375" x2="63.9749999999972" y2="213.2"/>
    <line x1="63.9749999999972" y1="213.2" x2="60.7999999999972" y2="213.2"/>
    <line x1="60.7999999999972" y1="213.2" x2="60.7999999999972" y2="210.025"/>
    <line x1="60.7999999999972" y1="210.025" x2="63.9749999999974" y2="210.025"/>
    <line x1="63.9749999999974" y1="210.025" x2="63.9749999999974" y2="206.85"/>
    <line x1="63.9749999999974" y1="206.85" x2="60.7999999999975" y2="206.85"/>
    <line x1="60.7999999999975" y1="206.85" x2="60.7999999999976" y2="203.675"/>
    <line x1="60.7999999999976" y1="203.675" x2="63.9749999999975" y2="203.675"/>
    <line x1="63.9749999999975" y1="203.675" x2="63.9749999999976" y2="200.5"/>
    <line x1="63.9749999999976" y1="200.5" x2="60.7999999999975" y2="200.5"/>
    <line x1="60.7999999999975" y1="200.5" x2="60.7999999999977" y2="197.325"/>
    <line x1="60.7999999999977" y1="197.325" x2="63.9749999999976" y2="197.325"/>
    <line x1="63.9749999999976" y1="197.325" x2="63.9749999999977" y2="194.15"/>
    <line x1="63.9749999999977" y1="194.15" x2="60.7999999999978" y2="194.15"/>
    <line x1="60.7999999999978" y1="194.15" x2="60.7999999999977" y2="190.975"/>
    <line x1="60.7999999999977" y1="190.975" x2="63.9749999999979" y2="190.975"/>
    <line x1="63.9749999999979" y1="190.975" x2="63.9749999999979" y2="187.8"/>
    <line x1="63.9749999999979" y1="187.8" x2="60.799999999998" y2="187.8"/>
    <line x1="60.799999999998" y1="187.8" x2="60.799999999998" y2="184.625"/>
    <line x1="60.799999999998" y1="184.625" x2="63.9749999999981" y2="184.625"/>
    <line x1="63.9749999999981" y1="184.625" x2="63.9749999999981" y2="181.45"/>
    <line x1="63.9749999999981" y1="181.45" x2="60.799999999998" y2="181.45"/>
    <line x1="60.799999999998" y1="181.45" x2="60.7999999999982" y2="178.275000000001"/>
    <line x1="60.7999999999982" y1="178.275000000001" x2="63.9749999999982" y2="178.275"/>
    <line x1="63.9749999999982" y1="178.275" x2="63.9749999999984" y2="175.1"/>
    <line x1="63.9749999999984" y1="175.1" x2="60.7999999999982" y2="175.100000000001"/>
    <line x1="60.7999999999982" y1="175.100000000001" x2="60.7999999999982" y2="171.925000000001"/>
    <line x1="60.7999999999982" y1="171.925000000001" x2="63.9749999999984" y2="171.925"/>
    <line x1="63.9749999999984" y1="171.925" x2="63.9749999999984" y2="168.75"/>
    <line x1="63.9749999999984" y1="168.75" x2="60.7999999999984" y2="168.750000000001"/>
    <line x1="60.7999999999984" y1="168.750000000001" x2="60.7999999999985" y2="165.575000000001"/>
    <line x1="60.7999999999985" y1="165.575000000001" x2="63.9749999999985" y2="165.575"/>
    <line x1="63.9749999999985" y1="165.575" x2="63.9749999999986" y2="162.4"/>
    <line x1="63.9749999999986" y1="162.4" x2="60.7999999999985" y2="162.400000000001"/>
    <line x1="60.7999999999985" y1="162.400000000001" x2="60.7999999999987" y2="159.225000000001"/>
    <line x1="60.7999999999987" y1="159.225000000001" x2="63.9749999999987" y2="159.225"/>
    <line x1="63.9749999999987" y1="159.225" x2="63.9749999999988" y2="156.05"/>
    <line x1="63.9749999999988" y1="156.05" x2="60.7999999999988" y2="156.050000000001"/>
    <line x1="60.7999999999988" y1="156.050000000001" x2="60.7999999999988" y2="152.875000000001"/>
    <line x1="60.7999999999988" y1="152.875000000001" x2="63.974999999999" y2="152.875"/>
    <line x1="63.974999999999" y1="152.875" x2="63.974999999999" y2="149.7"/>
    <line x1="63.974999999999" y1="149.7" x2="60.799999999999" y2="149.700000000001"/>
    <line x1="60.799999999999" y1="149.700000000001" x2="60.7999999999991" y2="146.525000000001"/>
    <line x1="60.7999999999991" y1="146.525000000001" x2="63.9749999999991" y2="146.525"/>
    <line x1="63.9749999999991" y1="146.525" x2="63.9749999999992" y2="143.35"/>
    <line x1="63.9749999999992" y1="143.35" x2="60.799999999999" y2="143.350000000001"/>
    <line x1="60.799999999999" y1="143.350000000001" x2="60.7999999999993" y2="140.175000000001"/>
    <line x1="60.7999999999993" y1="140.175000000001" x2="63.9749999999992" y2="140.175"/>
    <line x1="63.9749999999992" y1="140.175" x2="63.9749999999993" y2="137.0"/>
    <line x1="63.9749999999993" y1="137.0" x2="60.7999999999993" y2="137.0"/>
    <line x1="60.7999999999993" y1="137.0" x2="60.7999999999993" y2="133.825"/>
    <line x1="60.7999999999993" y1="133.825" x2="63.9749999999995" y2="133.825"/>
    <line x1="63.9749999999995" y1="133.825" x2="63.9749999999995" y2="130.65"/>
    <line x1="63.9749999999995" y1="130.65" x2="60.7999999999996" y2="130.65"/>
    <line x1="60.7999999999996" y1="130.65" x2="60.7999999999996" y2="127.475"/>
    <line x1="60.7999999999996" y1="127.475" x2="63.9749999999997" y2="127.475"/>
    <line x1="63.9749999999997" y1="127.475" x2="63.9749999999997" y2="124.3"/>
    <line x1="63.9749999999997" y1="124.3" x2="60.7999999999996" y2="124.3"/>
    <line x1="60.7999999999996" y1="124.3" x2="60.7999999999997" y2="121.125"/>
    <line x1="60.7999999999997" y1="121.125" x2="63.9749999999999" y2="121.125"/>
    <line x1="63.9749999999999" y1="121.125" x2="63.9749999999999" y2="117.95"/>
    <line x1="63.9749999999999" y1="117.95" x2="60.7999999999998" y2="117.95"/>
    <line x1="60.7999999999998" y1="117.95" x2="60.7999999999998" y2="114.775"/>
    <line x1="60.7999999999998" y1="114.775" x2="63.975" y2="114.775"/>
    <line x1="63.975" y1="114.775" x2="63.9750000000001" y2="111.6"/>
    <line x1="63.9750000000001" y1="111.6" x2="60.8" y2="111.6"/>
    <line x1="60.8" y1="111.6" x2="60.8000000000003" y2="108.425"/>
    <line x1="60.8000000000003" y1="108.425" x2="63.9750000000004" y2="108.425"/>
    <line x1="63.9750000000004" y1="108.425" x2="63.9750000000005" y2="105.25"/>
    <line x1="63.9750000000005" y1="105.25" x2="60.8000000000003" y2="105.25"/>
    <line x1="60.8000000000003" y1="105.25" x2="60.8000000000005" y2="102.075"/>
    <line x1="60.8000000000005" y1="102.075" x2="63.9750000000005" y2="102.075"/>
    <line x1="63.9750000000005" y1="102.075" x2="63.9750000000006" y2="98.9000000000002"/>
    <line x1="63.9750000000006" y1="98.9000000000002" x2="60.8000000000005" y2="98.9000000000002"/>
    <line x1="60.8000000000005" y1="98.9000000000002" x2="60.8000000000004" y2="95.7250000000002"/>
    <line x1="60.8000000000004" y1="95.7250000000002" x2="63.9750000000008" y2="95.7250000000002"/>
    <line x1="63.9750000000008" y1="95.7250000000002" x2="63.9750000000008" y2="92.5500000000002"/>
    <line x1="63.9750000000008" y1="92.5500000000002" x2="60.8000000000007" y2="92.5500000000002"/>
    <line x1="60.8000000000007" y1="92.5500000000002" x2="60.8000000000008" y2="89.3750000000002"/>
    <line x1="60.8000000000008" y1="89.3750000000002" x2="63.975000000001" y2="89.3750000000002"/>
    <line x1="63.975000000001" y1="89.3750000000002" x2="63.975000000001" y2="86.2000000000002"/>
    <line x1="63.975000000001" y1="86.2000000000002" x2="60.8000000000009" y2="86.2000000000004"/>
    <line x1="60.8000000000009" y1="86.2000000000004" x2="60.800000000001" y2="83.0250000000004"/>
    <line x1="60.800000000001" y1="83.0250000000004" x2="63.9750000000011" y2="83.0250000000002"/>
    <line x1="63.9750000000011" y1="83.0250000000002" x2="63.9750000000013" y2="79.8500000000003"/>
    <line x1="63.9750000000013" y1="79.8500000000003" x2="60.8000000000011" y2="79.8500000000001"/>
    <line x1="60.8000000000011" y1="79.8500000000001" x2="60.8000000000011" y2="76.6750000000002"/>
    <line x1="60.8000000000011" y1="76.6750000000002" x2="63.9750000000014" y2="76.6750000000002"/>
    <line x1="63.9750000000014" y1="76.6750000000002" x2="63.9750000000014" y2="73.5000000000002"/>
    <line x1="63.9750000000014" y1="73.5000000000002" x2="60.8000000000013" y2="73.5000000000002"/>
    <line x1="60.8000000000013" y1="73.5000000000002" x2="60.8000000000014" y2="70.3250000000002"/>
    <line x1="60.8000000000014" y1="70.3250000000002" x2="63.9750000000014" y2="70.3250000000002"/>
    <line x1="63.9750000000014" y1="70.3250000000002" x2="63.9750000000016" y2="67.1500000000003"/>
    <line x1="63.9750000000016" y1="67.1500000000003" x2="60.8000000000014" y2="67.1500000000003"/>
    <line x1="60.8000000000014" y1="67.1500000000003" x2="60.8000000000015" y2="63.9750000000003"/>
    <line x1="60.8000000000015" y1="63.9750000000003" x2="63.9750000000016" y2="63.9750000000003"/>
    <line x1="63.9750000000016" y1="63.9750000000003" x2="63.9750000000017" y2="60.8000000000003"/>
    <line x1="63.9750000000017" y1="60.8000000000003" x2="60.8000000000016" y2="60.8000000000001"/>
    <line x1="60.8000000000016" y1="60.8000000000001" x2="60.8000000000016" y2="57.6250000000002"/>
    <line x1="60.8000000000016" y1="57.6250000000002" x2="63.9750000000018" y2="57.6250000000002"/>
    <line x1="63.9750000000018" y1="57.6250000000002" x2="63.9750000000018" y2="54.4500000000002"/>
    <line x1="63.9750000000018" y1="54.4500000000002" x2="60.8000000000018" y2="54.4500000000002"/>
    <line x1="60.8000000000018" y1="54.4500000000002" x2="60.8000000000019" y2="51.2750000000001"/>
    <line x1="60.8000000000019" y1="51.2750000000001" x2="63.9750000000021" y2="51.2750000000002"/>
    <line x1="63.9750000000021" y1="51.2750000000002" x2="63.975000000002" y2="48.1000000000003"/>
    <line x1="63.975000000002" y1="48.1000000000003" x2="60.8000000000019" y2="48.1000000000003"/>
    <line x1="60.8000000000019" y1="48.1000000000003" x2="60.8000000000021" y2="44.9250000000002"/>
    <line x1="60.8000000000021" y1="44.9250000000002" x2="63.9750000000021" y2="44.9250000000002"/>
    <line x1="63.9750000000021" y1="44.9250000000002" x2="63.9750000000022" y2="41.7500000000002"/>
    <line x1="63.9750000000022" y1="41.7500000000002" x2="60.8000000000022" y2="41.7500000000002"/>
    <line x1="60.8000000000022" y1="41.7500000000002" x2="60.8000000000022" y2="38.5750000000002"/>
    <line x1="60.8000000000022" y1="38.5750000000002" x2="63.9750000000024" y2="38.5750000000002"/>
    <line x1="63.9750000000024" y1="38.5750000000002" x2="63.9750000000024" y2="35.4000000000003"/>
    <line x1="63.9750000000024" y1="35.4000000000003" x2="60.8000000000023" y2="35.4000000000001"/>
    <line x1="60.8000000000023" y1="35.4000000000001" x2="60.8000000000024" y2="32.2250000000001"/>
    <line x1="60.8000000000024" y1="32.2250000000001" x2="63.9750000000025" y2="32.2250000000003"/>
    <line x1="63.9750000000025" y1="32.2250000000003" x2="63.9750000000026" y2="29.0500000000002"/>
    <line x1="63.9750000000026" y1="29.0500000000002" x2="60.8000000000023" y2="29.0500000000002"/>
    <line x1="60.8000000000023" y1="29.0500000000002" x2="60.8000000000026" y2="25.8750000000003"/>
    <line x1="60.8000000000026" y1="25.8750000000003" x2="63.9750000000026" y2="25.8750000000002"/>
    <line x1="63.9750000000026" y1="25.8750000000002" x2="63.9750000000028" y2="22.7000000000006"/>
    <line x1="63.9750000000028" y1="22.7000000000006" x2="60.8000000000026" y2="22.7000000000008"/>
    <line x1="60.8000000000026" y1="22.7000000000008" x2="60.8000000000027" y2="19.5250000000008"/>
    <line x1="60.8000000000027" y1="19.5250000000008" x2="63.9750000000029" y2="19.5250000000006"/>
    <line x1="63.9750000000029" y1="19.5250000000006" x2="63.9750000000028" y2="16.3500000000006"/>
    <line x1="63.9750000000028" y1="16.3500000000006" x2="60.8000000000029" y2="16.3500000000008"/>
    <line x1="60.8000000000029" y1="16.3500000000008" x2="60.8000000000019" y2="10.0000000000009"/>
    <line x1="60.8000000000019" y1="10.0000000000009" x2="57.6250000000109" y2="10.0000000000016"/>
    <line x1="57.6250000000109" y1="10.0000000000016" x2="57.6250000000119" y2="13.1750000000017"/>
    <line x1="57.6250000000119" y1="13.1750000000017" x2="54.4500000000119" y2="13.1750000000016"/>
    <line x1="54.4500000000119" y1="13.1750000000016" x2="54.450000000012" y2="10.0000000000016"/>
    <line x1="54.450000000012" y1="10.0000000000016" x2="51.275000000012" y2="10.0000000000015"/>
    <line x1="51.275000000012" y1="10.0000000000015" x2="51.2750000000119" y2="13.1750000000015"/>
    <line x1="51.2750000000119" y1="13.1750000000015" x2="48.1000000000119" y2="13.1750000000014"/>
    <line x1="48.1000000000119" y1="13.1750000000014" x2="48.100000000012" y2="10.0000000000014"/>
    <line x1="48.100000000012" y1="10.0000000000014" x2="44.925000000012" y2="10.0000000000013"/>
    <line x1="44.925000000012" y1="10.0000000000013" x2="44.9250000000119" y2="13.1750000000012"/>
    <line x1="44.9250000000119" y1="13.1750000000012" x2="41.7500000000119" y2="13.1750000000013"/>
    <line x1="41.7500000000119" y1="13.1750000000013" x2="41.750000000012" y2="10.0000000000013"/>
    <line x1="41.750000000012" y1="10.0000000000013" x2="38.575000000012" y2="10.0000000000011"/>
    <line x1="38.575000000012" y1="10.0000000000011" x2="38.5750000000119" y2="13.1750000000011"/>
    <line x1="38.5750000000119" y1="13.1750000000011" x2="35.4000000000119" y2="13.175000000001"/>
    <line x1="35.4000000000119" y1="13.175000000001" x2="35.400000000012" y2="10.0000000000011"/>
    <line x1="35.400000000012" y1="10.0000000000011" x2="32.225000000012" y2="10.000000000001"/>
    <line x1="32.225000000012" y1="10.000000000001" x2="32.2250000000119" y2="13.175000000001"/>
    <line x1="32.2250000000119" y1="13.175000000001" x2="29.0500000000119" y2="13.1750000000008"/>
    <line x1="29.0500000000119" y1="13.1750000000008" x2="29.0500000000119" y2="10.0000000000009"/>
    <line x1="29.0500000000119" y1="10.0000000000009" x2="25.875000000012" y2="10.0000000000008"/>
    <line x1="25.875000000012" y1="10.0000000000008" x2="25.8750000000119" y2="13.1750000000008"/>
    <line x1="25.8750000000119" y1="13.1750000000008" x2="22.7000000000119" y2="13.1750000000008"/>
    <line x1="22.7000000000119" y1="13.1750000000008" x2="22.700000000012" y2="10.0000000000007"/>
    <line x1="22.700000000012" y1="10.0000000000007" x2="19.525000000012" y2="10.0000000000006"/>
    <line x1="19.525000000012" y1="10.0000000000006" x2="19.5250000000119" y2="13.1750000000006"/>
    <line x1="19.5250000000119" y1="13.1750000000006" x2="16.3500000000119" y2="13.1750000000005"/>
    <line x1="16.3500000000119" y1="13.1750000000005" x2="16.3500000000125" y2="10.0000000000005"/>
    <line x1="16.3500000000125" y1="10.0000000000005" x2="13.1750000000036" y2="10.0"/>
    <line x1="13.1750000000036" y1="10.0" x2="13.175000000003" y2="13.1750000000001"/>
    <line x1="13.175000000003" y1="13.1750000000001" x2="13.175000000003" y2="16.3500000000001"/>
    <line x1="13.175000000003" y1="16.3500000000001" x2="10.000000000003" y2="16.35"/>
    <line x1="10.000000000003" y1="16.35" x2="10.000000000003" y2="19.525"/>
    <line x1="10.000000000003" y1="19.525" x2="13.175000000003" y2="19.525"/>
    <line x1="13.175000000003" y1="19.525" x2="13.1750000000029" y2="22.7"/>
    <line x1="13.1750000000029" y1="22.7" x2="10.0000000000028" y2="22.7"/>
    <line x1="10.0000000000028" y1="22.7" x2="10.0000000000028" y2="25.8749999999995"/>
    <line x1="10.0000000000028" y1="25.8749999999995" x2="13.1750000000029" y2="25.8749999999995"/>
    <line x1="13.1750000000029" y1="25.8749999999995" x2="13.1750000000029" y2="29.0499999999996"/>
    <line x1="13.1750000000029" y1="29.0499999999996" x2="10.0000000000028" y2="29.0499999999995"/>
    <line x1="10.0000000000028" y1="29.0499999999995" x2="10.0000000000028" y2="32.2249999999996"/>
    <line x1="10.0000000000028" y1="32.2249999999996" x2="13.1750000000028" y2="32.2249999999994"/>
    <line x1="13.1750000000028" y1="32.2249999999994" x2="13.1750000000027" y2="35.3999999999994"/>
    <line x1="13.1750000000027" y1="35.3999999999994" x2="10.0000000000027" y2="35.3999999999996"/>
    <line x1="10.0000000000027" y1="35.3999999999996" x2="10.0000000000028" y2="38.5749999999995"/>
    <line x1="10.0000000000028" y1="38.5749999999995" x2="13.1750000000028" y2="38.5749999999994"/>
    <line x1="13.1750000000028" y1="38.5749999999994" x2="13.1750000000027" y2="41.7499999999994"/>
    <line x1="13.1750000000027" y1="41.7499999999994" x2="10.0000000000027" y2="41.7499999999995"/>
    <line x1="10.0000000000027" y1="41.7499999999995" x2="10.0000000000027" y2="44.9249999999996"/>
    <line x1="10.0000000000027" y1="44.9249999999996" x2="13.1750000000027" y2="44.9249999999995"/>
    <line x1="13.1750000000027" y1="44.9249999999995" x2="13.1750000000026" y2="48.0999999999995"/>
    <line x1="13.1750000000026" y1="48.0999999999995" x2="10.0000000000027" y2="48.0999999999995"/>
    <line x1="10.0000000000027" y1="48.0999999999995" x2="10.0000000000026" y2="51.2749999999996"/>
    <line x1="10.0000000000026" y1="51.2749999999996" x2="13.1750000000026" y2="51.2749999999994"/>
    <line x1="13.1750000000026" y1="51.2749999999994" x2="13.1750000000026" y2="54.4499999999994"/>
    <line x1="13.1750000000026" y1="54.4499999999994" x2="10.0000000000026" y2="54.4499999999995"/>
    <line x1="10.0000000000026" y1="54.4499999999995" x2="10.0000000000026" y2="57.6249999999995"/>
    <line x1="10.0000000000026" y1="57.6249999999995" x2="13.1750000000026" y2="57.6249999999993"/>
    <line x1="13.1750000000026" y1="57.6249999999993" x2="13.1750000000025" y2="60.7999999999993"/>
    <line x1="13.1750000000025" y1="60.7999999999993" x2="10.0000000000025" y2="60.7999999999996"/>
    <line x1="10.0000000000025" y1="60.7999999999996" x2="10.0000000000026" y2="63.9749999999996"/>
    <line x1="10.0000000000026" y1="63.9749999999996" x2="13.1750000000026" y2="63.9749999999995"/>
    <line x1="13.1750000000026" y1="63.9749999999995" x2="13.1750000000025" y2="67.1499999999994"/>
    <line x1="13.1750000000025" y1="67.1499999999994" x2="10.0000000000025" y2="67.1499999999996"/>
    <line x1="10.0000000000025" y1="67.1499999999996" x2="10.0000000000024" y2="70.3249999999995"/>
    <line x1="10.0000000000024" y1="70.3249999999995" x2="13.1750000000025" y2="70.3249999999994"/>
    <line x1="13.1750000000025" y1="70.3249999999994" x2="13.1750000000024" y2="73.4999999999994"/>
    <line x1="13.1750000000024" y1="73.4999999999994" x2="10.0000000000024" y2="73.4999999999995"/>
    <line x1="10.0000000000024" y1="73.4999999999995" x2="10.0000000000024" y2="76.6749999999995"/>
    <line x1="10.0000000000024" y1="76.6749999999995" x2="13.1750000000023" y2="76.6749999999995"/>
    <line x1="13.1750000000023" y1="76.6749999999995" x2="13.1750000000023" y2="79.8499999999994"/>
    <line x1="13.1750000000023" y1="79.8499999999994" x2="10.0000000000024" y2="79.8499999999995"/>
    <line x1="10.0000000000024" y1="79.8499999999995" x2="10.0000000000023" y2="83.0249999999995"/>
    <line x1="10.0000000000023" y1="83.0249999999995" x2="13.1750000000023" y2="83.0249999999996"/>
    <line x1="13.1750000000023" y1="83.0249999999996" x2="13.1750000000023" y2="86.1999999999996"/>
    <line x1="13.1750000000023" y1="86.1999999999996" x2="10.0000000000023" y2="86.1999999999995"/>
    <line x1="10.0000000000023" y1="86.1999999999995" x2="10.0000000000023" y2="89.3749999999995"/>
    <line x1="10.0000000000023" y1="89.3749999999995" x2="13.1750000000022" y2="89.3749999999995"/>
    <line x1="13.1750000000022" y1="89.3749999999995" x2="13.1750000000022" y2="92.5499999999995"/>
    <line x1="13.1750000000022" y1="92.5499999999995" x2="10.0000000000022" y2="92.5499999999995"/>
    <line x1="10.0000000000022" y1="92.5499999999995" x2="10.0000000000022" y2="95.7249999999995"/>
    <line x1="10.0000000000022" y1="95.7249999999995" x2="13.1750000000022" y2="95.7249999999996"/>
    <line x1="13.1750000000022" y1="95.7249999999996" x2="13.1750000000021" y2="98.8999999999995"/>
    <line x1="13.1750000000021" y1="98.8999999999995" x2="10.0000000000022" y2="98.8999999999995"/>
    <line x1="10.0000000000022" y1="98.8999999999995" x2="10.0000000000022" y2="102.075"/>
    <line x1="10.0000000000022" y1="102.075" x2="13.1750000000021" y2="102.075"/>
    <line x1="13.1750000000021" y1="102.075" x2="13.1750000000021" y2="105.25"/>
    <line x1="13.1750000000021" y1="105.25" x2="10.0000000000021" y2="105.25"/>
    <line x1="10.0000000000021" y1="105.25" x2="10.000000000002" y2="108.424999999999"/>
    <line x1="10.000000000002" y1="108.424999999999" x2="13.1750000000021" y2="108.424999999999"/>
    <line x1="13.1750000000021" y1="108.424999999999" x2="13.1750000000021" y2="111.6"/>
    <line x1="13.1750000000021" y1="111.6" x2="10.000000000002" y2="111.6"/>
    <line x1="10.000000000002" y1="111.6" x2="10.0000000000019" y2="114.775"/>
    <line x1="10.0000000000019" y1="114.775" x2="13.175000000002" y2="114.775"/>
    <line x1="13.175000000002" y1="114.775" x2="13.175000000002" y2="117.949999999999"/>
    <line x1="13.175000000002" y1="117.949999999999" x2="10.0000000000019" y2="117.95"/>
    <line x1="10.0000000000019" y1="117.95" x2="10.0000000000019" y2="121.125"/>
    <line x1="10.0000000000019" y1="121.125" x2="13.1750000000019" y2="121.125"/>
    <line x1="13.1750000000019" y1="121.125" x2="13.1750000000019" y2="124.299999999999"/>
    <line x1="13.1750000000019" y1="124.299999999999" x2="10.0000000000019" y2="124.299999999999"/>
    <line x1="10.0000000000019" y1="124.299999999999" x2="10.0000000000019" y2="127.475"/>
    <line x1="10.0000000000019" y1="127.475" x2="13.1750000000019" y2="127.475"/>
    <line x1="13.1750000000019" y1="127.475" x2="13.1750000000019" y2="130.65"/>
    <line x1="13.1750000000019" y1="130.65" x2="10.0000000000019" y2="130.649999999999"/>
    <line x1="10.0000000000019" y1="130.649999999999" x2="10.0000000000018" y2="133.824999999999"/>
    <line x1="10.0000000000018" y1="133.824999999999" x2="13.1750000000018" y2="133.825"/>
    <line x1="13.1750000000018" y1="133.825" x2="13.1750000000018" y2="137.0"/>
    <line x1="13.1750000000018" y1="137.0" x2="10.0000000000018" y2="136.999999999999"/>
    <line x1="10.0000000000018" y1="136.999999999999" x2="10.0000000000018" y2="140.174999999999"/>
    <line x1="10.0000000000018" y1="140.174999999999" x2="13.1750000000018" y2="140.175"/>
    <line x1="13.1750000000018" y1="140.175" x2="13.1750000000017" y2="143.35"/>
    <line x1="13.1750000000017" y1="143.35" x2="10.0000000000018" y2="143.349999999999"/>
    <line x1="10.0000000000018" y1="143.349999999999" x2="10.0000000000018" y2="146.524999999999"/>
    <line x1="10.0000000000018" y1="146.524999999999" x2="13.1750000000017" y2="146.525"/>
    <line x1="13.1750000000017" y1="146.525" x2="13.1750000000017" y2="149.7"/>
    <line x1="13.1750000000017" y1="149.7" x2="10.0000000000017" y2="149.699999999999"/>
    <line x1="10.0000000000017" y1="149.699999999999" x2="10.0000000000016" y2="152.875"/>
    <line x1="10.0000000000016" y1="152.875" x2="13.1750000000017" y2="152.875"/>
    <line x1="13.1750000000017" y1="152.875" x2="13.1750000000017" y2="156.05"/>
    <line x1="13.1750000000017" y1="156.05" x2="10.0000000000016" y2="156.049999999999"/>
    <line x1="10.0000000000016" y1="156.049999999999" x2="10.0000000000016" y2="159.225"/>
    <line x1="10.0000000000016" y1="159.225" x2="13.1750000000016" y2="159.225"/>
    <line x1="13.1750000000016" y1="159.225" x2="13.1750000000015" y2="162.4"/>
    <line x1="13.1750000000015" y1="162.4" x2="10.0000000000015" y2="162.4"/>
    <line x1="10.0000000000015" y1="162.4" x2="10.0000000000015" y2="165.575"/>
    <line x1="10.0000000000015" y1="165.575" x2="13.1750000000015" y2="165.575"/>
    <line x1="13.1750000000015" y1="165.575" x2="13.1750000000015" y2="168.75"/>
    <line x1="13.1750000000015" y1="168.75" x2="10.0000000000015" y2="168.75"/>
    <line x1="10.0000000000015" y1="168.75" x2="10.0000000000015" y2="171.925"/>
    <line x1="10.0000000000015" y1="171.925" x2="13.1750000000015" y2="171.925"/>
    <line x1="13.1750000000015" y1="171.925" x2="13.1750000000015" y2="175.1"/>
    <line x1="13.1750000000015" y1="175.1" x2="10.0000000000014" y2="175.1"/>
    <line x1="10.0000000000014" y1="175.1" x2="10.0000000000014" y2="178.275"/>
    <line x1="10.0000000000014" y1="178.275" x2="13.1750000000014" y2="178.275"/>
    <line x1="13.1750000000014" y1="178.275" x2="13.1750000000014" y2="181.45"/>
    <line x1="13.1750000000014" y1="181.45" x2="10.0000000000014" y2="181.449999999999"/>
    <line x1="10.0000000000014" y1="181.449999999999" x2="10.0000000000013" y2="184.625"/>
    <line x1="10.0000000000013" y1="184.625" x2="13.1750000000014" y2="184.625"/>
    <line x1="13.1750000000014" y1="184.625" x2="13.1750000000013" y2="187.8"/>
    <line x1="13.1750000000013" y1="187.8" x2="10.0000000000013" y2="187.8"/>
    <line x1="10.0000000000013" y1="187.8" x2="10.0000000000013" y2="190.975"/>
    <line x1="10.0000000000013" y1="190.975" x2="13.1750000000013" y2="190.975"/>
    <line x1="13.1750000000013" y1="190.975" x2="13.1750000000013" y2="194.15"/>
    <line x1="13.1750000000013" y1="194.15" x2="10.0000000000013" y2="194.15"/>
    <line x1="10.0000000000013" y1="194.15" x2="10.0000000000013" y2="197.325"/>
    <line x1="10.0000000000013" y1="197.325" x2="13.1750000000013" y2="197.325"/>
    <line x1="13.1750000000013" y1="197.325" x2="13.1750000000012" y2="200.5"/>
    <line x1="13.1750000000012" y1="200.5" x2="10.0000000000012" y2="200.5"/>
    <line x1="10.0000000000012" y1="200.5" x2="10.0000000000011" y2="203.675"/>
    <line x1="10.0000000000011" y1="203.675" x2="13.1750000000011" y2="203.675"/>
    <line x1="13.1750000000011" y1="203.675" x2="13.1750000000011" y2="206.85"/>
    <line x1="13.1750000000011" y1="206.85" x2="10.0000000000011" y2="206.85"/>
    <line x1="10.0000000000011" y1="206.85" x2="10.0000000000011" y2="210.025"/>
    <line x1="10.0000000000011" y1="210.025" x2="13.1750000000011" y2="210.025"/>
    <line x1="13.1750000000011" y1="210.025" x2="13.175000000001" y2="213.2"/>
    <line x1="13.175000000001" y1="213.2" x2="10.0000000000011" y2="213.2"/>
    <line x1="10.0000000000011" y1="213.2" x2="10.0000000000011" y2="216.375"/>
    <line x1="10.0000000000011" y1="216.375" x2="13.175000000001" y2="216.375"/>
    <line x1="13.175000000001" y1="216.375" x2="13.175000000001" y2="219.55"/>
    <line x1="13.175000000001" y1="219.55" x2="10.000000000001" y2="219.55"/>
    <line x1="10.000000000001" y1="219.55" x2="10.000000000001" y2="222.725"/>
    <line x1="10.000000000001" y1="222.725" x2="13.175000000001" y2="222.725"/>
    <line x1="13.175000000001" y1="222.725" x2="13.175000000001" y2="225.9"/>
    <line x1="13.175000000001" y1="225.9" x2="10.000000000001" y2="225.9"/>
    <line x1="10.000000000001" y1="225.9" x2="10.0000000000009" y2="229.075"/>
    <line x1="10.0000000000009" y1="229.075" x2="13.1750000000009" y2="229.075"/>
    <line x1="13.1750000000009" y1="229.075" x2="13.1750000000009" y2="232.25"/>
    <line x1="13.1750000000009" y1="232.25" x2="10.0000000000009" y2="232.25"/>
    <line x1="10.0000000000009" y1="232.25" x2="10.0000000000009" y2="235.425"/>
    <line x1="10.0000000000009" y1="235.425" x2="13.1750000000008" y2="235.425"/>
    <line x1="13.1750000000008" y1="235.425" x2="13.1750000000009" y2="238.6"/>
    <line x1="13.1750000000009" y1="238.6" x2="10.0000000000009" y2="238.6"/>
    <line x1="10.0000000000009" y1="238.6" x2="10.0000000000008" y2="241.775"/>
    <line x1="10.0000000000008" y1="241.775" x2="13.1750000000008" y2="241.774999999999"/>
    <line x1="13.1750000000008" y1="241.774999999999" x2="13.1750000000008" y2="244.949999999999"/>
    <line x1="13.1750000000008" y1="244.949999999999" x2="10.0000000000008" y2="244.95"/>
    <line x1="10.0000000000008" y1="244.95" x2="10.0000000000007" y2="248.125"/>
    <line x1="10.0000000000007" y1="248.125" x2="13.1750000000008" y2="248.124999999999"/>
    <line x1="13.1750000000008" y1="248.124999999999" x2="13.1750000000007" y2="251.299999999999"/>
    <line x1="13.1750000000007" y1="251.299999999999" x2="10.0000000000007" y2="251.3"/>
    <line x1="10.0000000000007" y1="251.3" x2="10.0000000000007" y2="254.475"/>
    <line x1="10.0000000000007" y1="254.475" x2="13.1750000000007" y2="254.474999999999"/>
    <line x1="13.1750000000007" y1="254.474999999999" x2="13.1750000000006" y2="257.649999999999"/>
    <line x1="13.1750000000006" y1="257.649999999999" x2="10.0000000000006" y2="257.65"/>
    <line x1="10.0000000000006" y1="257.65" x2="10.0000000000006" y2="260.825"/>
    <line x1="10.0000000000006" y1="260.825" x2="13.1750000000006" y2="260.824999999999"/>
    <line x1="13.1750000000006" y1="260.824999999999" x2="13.1750000000006" y2="263.999999999999"/>
    <line x1="13.1750000000006" y1="263.999999999999" x2="10.0000000000006" y2="264.0"/>
    <line x1="10.0000000000006" y1="264.0" x2="10.0000000000006" y2="267.175"/>
    <line x1="10.0000000000006" y1="267.175" x2="13.1750000000006" y2="267.174999999999"/>
    <line x1="13.1750000000006" y1="267.174999999999" x2="13.1750000000005" y2="270.349999999999"/>
    <line x1="13.1750000000005" y1="270.349999999999" x2="10.0000000000005" y2="270.35"/>
    <line x1="10.0000000000005" y1="270.35" x2="10.0000000000005" y2="273.525"/>
    <line x1="10.0000000000005" y1="273.525" x2="13.1750000000005" y2="273.524999999999"/>
    <line x1="13.1750000000005" y1="273.524999999999" x2="13.1750000000005" y2="276.699999999999"/>
    <line x1="13.1750000000005" y1="276.699999999999" x2="10.0000000000005" y2="276.7"/>
    <line x1="10.0000000000005" y1="276.7" x2="10.0000000000005" y2="279.875"/>
    <line x1="10.0000000000005" y1="279.875" x2="13.1750000000004" y2="279.874999999999"/>
    <line x1="13.1750000000004" y1="279.874999999999" x2="13.1750000000004" y2="283.049999999999"/>
    <line x1="13.1750000000004" y1="283.049999999999" x2="10.0000000000005" y2="283.05"/>
    <line x1="10.0000000000005" y1="283.05" x2="10.0000000000003" y2="286.225"/>
    <line x1="10.0000000000003" y1="286.225" x2="13.1750000000004" y2="286.224999999999"/>
    <line x1="13.1750000000004" y1="286.224999999999" x2="13.1750000000004" y2="289.399999999999"/>
    <line x1="13.1750000000004" y1="289.399999999999" x2="10.0000000000003" y2="289.4"/>
    <line x1="10.0000000000003" y1="289.4" x2="10.0000000000003" y2="292.575"/>
    <line x1="10.0000000000003" y1="292.575" x2="13.1750000000004" y2="292.574999999999"/>
    <line x1="13.1750000000004" y1="292.574999999999" x2="13.1750000000003" y2="295.749999999999"/>
    <line x1="13.1750000000003" y1="295.749999999999" x2="10.0000000000003" y2="295.75"/>
    <line x1="10.0000000000003" y1="295.75" x2="10.0000000000002" y2="298.925"/>
    <line x1="10.0000000000002" y1="298.925" x2="13.1750000000002" y2="298.924999999999"/>
    <line x1="13.1750000000002" y1="298.924999999999" x2="13.1750000000002" y2="302.099999999999"/>
    <line x1="13.1750000000002" y1="302.099999999999" x2="10.0000000000002" y2="302.1"/>
    <line x1="10.0000000000002" y1="302.1" x2="10.0000000000002" y2="305.275"/>
    <line x1="10.0000000000002" y1="305.275" x2="13.1750000000002" y2="305.274999999999"/>
    <line x1="13.1750000000002" y1="305.274999999999" x2="13.1750000000002" y2="308.449999999999"/>
    <line x1="13.1750000000002" y1="308.449999999999" x2="10.0000000000002" y2="308.45"/>
    <line x1="10.0000000000002" y1="308.45" x2="10.0000000000002" y2="311.625"/>
    <line x1="10.0000000000002" y1="311.625" x2="13.1750000000002" y2="311.624999999999"/>
    <line x1="13.1750000000002" y1="311.624999999999" x2="13.1750000000001" y2="314.799999999999"/>
    <line x1="13.1750000000001" y1="314.799999999999" x2="10.0000000000001" y2="314.8"/>
    <line x1="10.0000000000001" y1="314.8" x2="10.0000000000001" y2="317.975"/>
    <line x1="10.0000000000001" y1="317.975" x2="13.1750000000001" y2="317.974999999999"/>
    <line x1="13.1750000000001" y1="317.974999999999" x2="13.1750000000001" y2="321.149999999999"/>
    <line x1="13.1750000000001" y1="321.149999999999" x2="10.0000000000001" y2="321.15"/>
    <line x1="10.0000000000001" y1="321.15" x2="10.0" y2="324.325"/>
    <line x1="10.0" y1="324.325" x2="13.175" y2="324.324999999999"/>
    <line x1="13.175" y1="324.324999999999" x2="13.175" y2="327.499999999999"/>
    <line x1="13.175" y1="327.499999999999" x2="10.0" y2="327.5"/>
    <line x1="10.0" y1="327.5" x2="10.0" y2="330.675000000001"/>
    <line x1="10.0" y1="330.675000000001" x2="13.1750000000029" y2="330.675000000001"/>
    <line x1="13.1750000000029" y1="330.675000000001" x2="13.1750000000028" y2="333.85"/>
    <line x1="13.1750000000028" y1="333.85" x2="16.3500000000028" y2="333.85"/>
    <line x1="16.3500000000028" y1="333.85" x2="16.3500000000029" y2="330.675000000001"/>
    <line x1="16.3500000000029" y1="330.675000000001" x2="19.5250000000029" y2="330.675000000001"/>
    <line x1="19.5250000000029" y1="330.675000000001" x2="19.5250000000028" y2="333.85"/>
    <line x1="19.5250000000028" y1="333.85" x2="22.7000000000028" y2="333.85"/>
    <line x1="22.7000000000028" y1="333.85" x2="22.7000000000029" y2="330.675000000001"/>
    <line x1="22.7000000000029" y1="330.675000000001" x2="25.8750000000028" y2="330.675000000001"/>
    <line x1="25.8750000000028" y1="330.675000000001" x2="25.8750000000028" y2="333.85"/>
    <line x1="25.8750000000028" y1="333.85" x2="29.0500000000028" y2="333.85"/>
    <line x1="29.0500000000028" y1="333.85" x2="29.0500000000029" y2="330.675000000001"/>
    <line x1="29.0500000000029" y1="330.675000000001" x2="32.2250000000029" y2="330.675000000001"/>
    <line x1="32.2250000000029" y1="330.675000000001" x2="32.2250000000028" y2="333.85"/>
    <line x1="32.2250000000028" y1="333.85" x2="35.4000000000028" y2="333.850000000001"/>
    <line x1="35.4000000000028" y1="333.850000000001" x2="35.4000000000029" y2="330.675000000001"/>
    <line x1="35.4000000000029" y1="330.675000000001" x2="38.5750000000029" y2="330.675000000001"/>
    <line x1="38.5750000000029" y1="330.675000000001" x2="38.5750000000028" y2="333.850000000001"/>
    <line x1="38.5750000000028" y1="333.850000000001" x2="41.7500000000028" y2="333.850000000001"/>
    <line x1="41.7500000000028" y1="333.850000000001" x2="41.7500000000028" y2="330.675000000001"/>
    <line x1="41.7500000000028" y1="330.675000000001" x2="44.9250000000029" y2="330.675000000001"/>
    <line x1="44.9250000000029" y1="330.675000000001" x2="44.9250000000028" y2="333.850000000001"/>
    <line x1="44.9250000000028" y1="333.850000000001" x2="48.1000000000028" y2="333.850000000001"/>
    <line x1="48.1000000000028" y1="333.850000000001" x2="48.1000000000029" y2="330.675000000001"/>
    <line x1="48.1000000000029" y1="330.675000000001" x2="51.2750000000029" y2="330.675000000001"/>
    <line x1="51.2750000000029" y1="330.675000000001" x2="51.2750000000028" y2="333.850000000001"/>
    <line x1="51.2750000000028" y1="333.850000000001" x2="54.4500000000028" y2="333.850000000001"/>
    <line x1="54.4500000000028" y1="333.850000000001" x2="54.4500000000029" y2="330.675000000001"/>
    <line x1="54.4500000000029" y1="330.675000000001" x2="57.6250000000028" y2="330.675000000001"/>
    <line x1="57.6250000000028" y1="330.675000000001" x2="57.6250000000028" y2="333.850000000001"/>
    <line x1="57.6250000000028" y1="333.850000000001" x2="60.8000000000028" y2="333.850000000001"/>
    <line x1="60.8000000000028" y1="333.850000000001" x2="60.8000000000029" y2="330.675000000001"/>
  </g>
</svg>
