<?xml version="1.0" standalone="no"?>
<!DOCTYPE svg PUBLIC "-//W3C//DTD SVG 1.1//EN" "http://www.w3.org/Graphics/SVG/1.1/DTD/svg11.dtd">
<svg width="73.975mm" height="343.850000000001mm"
 viewBox="0 0 73.975 343.850000000001"
 xmlns="http://www.w3.org/2000/svg" version="1.1"
 xmlns:xlink="http://www.w3.org/1999/xlink">
<desc>Output from Flights of Ideas SVG Sketchup Plugin</desc>

  <g id="face0" fill="none" stroke="rgb(0,0,255)" stroke-width="1" stroke-miterlimit="4" stroke-dasharray="none" stroke-linejoin="round" stroke-linecap="round">
    <line x1="63.9749999999969" y1="13.1750000000009" x2="60.8000000000058" y2="13.1750000000009"/>
    <line x1="60.8000000000058" y1="13.1750000000009" x2="60.8000000000059" y2="10.0000000000001"/>
    <line x1="60.8000000000059" y1="10.0000000000001" x2="57.6250000000058" y2="10.0000000000002"/>
    <line x1="57.6250000000058" y1="10.0000000000002" x2="57.6250000000058" y2="13.1750000000009"/>
    <line x1="57.6250000000058" y1="13.1750000000009" x2="54.4500000000058" y2="13.1750000000009"/>
    <line x1="54.4500000000058" y1="13.1750000000009" x2="54.4500000000058" y2="10.0"/>
    <line x1="54.4500000000058" y1="10.0" x2="51.2750000000058" y2="10.0000000000002"/>
    <line x1="51.2750000000058" y1="10.0000000000002" x2="51.2750000000058" y2="13.1750000000009"/>
    <line x1="51.2750000000058" y1="13.1750000000009" x2="48.1000000000058" y2="13.1750000000009"/>
    <line x1="48.1000000000058" y1="13.1750000000009" x2="48.1000000000058" y2="10.0000000000004"/>
    <line x1="48.1000000000058" y1="10.0000000000004" x2="44.9250000000058" y2="10.0000000000001"/>
    <line x1="44.9250000000058" y1="10.0000000000001" x2="44.9250000000058" y2="13.1750000000009"/>
    <line x1="44.9250000000058" y1="13.1750000000009" x2="41.7500000000058" y2="13.1750000000009"/>
    <line x1="41.7500000000058" y1="13.1750000000009" x2="41.7500000000058" y2="10.0000000000003"/>
    <line x1="41.7500000000058" y1="10.0000000000003" x2="38.5750000000058" y2="10.0000000000004"/>
    <line x1="38.5750000000058" y1="10.0000000000004" x2="38.5750000000058" y2="13.1750000000009"/>
    <line x1="38.5750000000058" y1="13.1750000000009" x2="35.4000000000058" y2="13.1750000000009"/>
    <line x1="35.4000000000058" y1="13.1750000000009" x2="35.4000000000058" y2="10.0000000000002"/>
    <line x1="35.4000000000058" y1="10.0000000000002" x2="32.2250000000058" y2="10.0000000000004"/>
    <line x1="32.2250000000058" y1="10.0000000000004" x2="32.2250000000058" y2="13.1750000000009"/>
    <line x1="32.2250000000058" y1="13.1750000000009" x2="29.0500000000058" y2="13.1750000000009"/>
    <line x1="29.0500000000058" y1="13.1750000000009" x2="29.0500000000058" y2="10.0000000000005"/>
    <line x1="29.0500000000058" y1="10.0000000000005" x2="25.8750000000058" y2="10.0000000000003"/>
    <line x1="25.8750000000058" y1="10.0000000000003" x2="25.8750000000059" y2="13.1750000000009"/>
    <line x1="25.8750000000059" y1="13.1750000000009" x2="22.7000000000059" y2="13.1750000000009"/>
    <line x1="22.7000000000059" y1="13.1750000000009" x2="22.7000000000058" y2="10.0000000000005"/>
    <line x1="22.7000000000058" y1="10.0000000000005" x2="19.5250000000058" y2="10.0000000000006"/>
    <line x1="19.5250000000058" y1="10.0000000000006" x2="19.5250000000059" y2="13.1750000000009"/>
    <line x1="19.5250000000059" y1="13.1750000000009" x2="16.3500000000058" y2="13.1750000000009"/>
    <line x1="16.3500000000058" y1="13.1750000000009" x2="16.3500000000059" y2="10.0000000000003"/>
    <line x1="16.3500000000059" y1="10.0000000000003" x2="13.1750000000059" y2="10.0000000000005"/>
    <line x1="13.1750000000059" y1="10.0000000000005" x2="13.1750000000059" y2="13.1750000000009"/>
    <line x1="13.1750000000059" y1="13.1750000000009" x2="10.0000000000029" y2="13.1750000000009"/>
    <line x1="10.0000000000029" y1="13.1750000000009" x2="10.0000000000029" y2="16.350000000001"/>
    <line x1="10.0000000000029" y1="16.350000000001" x2="13.1750000000029" y2="16.3500000000013"/>
    <line x1="13.1750000000029" y1="16.3500000000013" x2="13.1750000000029" y2="19.5250000000013"/>
    <line x1="13.1750000000029" y1="19.5250000000013" x2="10.0000000000029" y2="19.525000000001"/>
    <line x1="10.0000000000029" y1="19.525000000001" x2="10.0000000000029" y2="22.700000000001"/>
    <line x1="10.0000000000029" y1="22.700000000001" x2="13.1750000000029" y2="22.7000000000013"/>
    <line x1="13.1750000000029" y1="22.7000000000013" x2="13.1750000000028" y2="25.8750000000013"/>
    <line x1="13.1750000000028" y1="25.8750000000013" x2="10.0000000000028" y2="25.875000000001"/>
    <line x1="10.0000000000028" y1="25.875000000001" x2="10.0000000000028" y2="29.050000000001"/>
    <line x1="10.0000000000028" y1="29.050000000001" x2="13.1750000000028" y2="29.0500000000013"/>
    <line x1="13.1750000000028" y1="29.0500000000013" x2="13.1750000000028" y2="32.2250000000012"/>
    <line x1="13.1750000000028" y1="32.2250000000012" x2="10.0000000000028" y2="32.225000000001"/>
    <line x1="10.0000000000028" y1="32.225000000001" x2="10.0000000000027" y2="35.400000000001"/>
    <line x1="10.0000000000027" y1="35.400000000001" x2="13.1750000000027" y2="35.4000000000012"/>
    <line x1="13.1750000000027" y1="35.4000000000012" x2="13.1750000000027" y2="38.5750000000013"/>
    <line x1="13.1750000000027" y1="38.5750000000013" x2="10.0000000000027" y2="38.575000000001"/>
    <line x1="10.0000000000027" y1="38.575000000001" x2="10.0000000000027" y2="41.7500000000011"/>
    <line x1="10.0000000000027" y1="41.7500000000011" x2="13.1750000000027" y2="41.7500000000013"/>
    <line x1="13.1750000000027" y1="41.7500000000013" x2="13.1750000000026" y2="44.9250000000013"/>
    <line x1="13.1750000000026" y1="44.9250000000013" x2="10.0000000000026" y2="44.925000000001"/>
    <line x1="10.0000000000026" y1="44.925000000001" x2="10.0000000000026" y2="48.100000000001"/>
    <line x1="10.0000000000026" y1="48.100000000001" x2="13.1750000000026" y2="48.1000000000012"/>
    <line x1="13.1750000000026" y1="48.1000000000012" x2="13.1750000000026" y2="51.2750000000012"/>
    <line x1="13.1750000000026" y1="51.2750000000012" x2="10.0000000000026" y2="51.2750000000009"/>
    <line x1="10.0000000000026" y1="51.2750000000009" x2="10.0000000000026" y2="54.450000000001"/>
    <line x1="10.0000000000026" y1="54.450000000001" x2="13.1750000000025" y2="54.4500000000012"/>
    <line x1="13.1750000000025" y1="54.4500000000012" x2="13.1750000000025" y2="57.6250000000012"/>
    <line x1="13.1750000000025" y1="57.6250000000012" x2="10.0000000000025" y2="57.6250000000009"/>
    <line x1="10.0000000000025" y1="57.6250000000009" x2="10.0000000000025" y2="60.800000000001"/>
    <line x1="10.0000000000025" y1="60.800000000001" x2="13.1750000000025" y2="60.8000000000013"/>
    <line x1="13.1750000000025" y1="60.8000000000013" x2="13.1750000000025" y2="63.9750000000013"/>
    <line x1="13.1750000000025" y1="63.9750000000013" x2="10.0000000000025" y2="63.975000000001"/>
    <line x1="10.0000000000025" y1="63.975000000001" x2="10.0000000000024" y2="67.150000000001"/>
    <line x1="10.0000000000024" y1="67.150000000001" x2="13.1750000000024" y2="67.1500000000013"/>
    <line x1="13.1750000000024" y1="67.1500000000013" x2="13.1750000000024" y2="70.3250000000013"/>
    <line x1="13.1750000000024" y1="70.3250000000013" x2="10.0000000000024" y2="70.325000000001"/>
    <line x1="10.0000000000024" y1="70.325000000001" x2="10.0000000000024" y2="73.5000000000009"/>
    <line x1="10.0000000000024" y1="73.5000000000009" x2="13.1750000000024" y2="73.5000000000012"/>
    <line x1="13.1750000000024" y1="73.5000000000012" x2="13.1750000000024" y2="76.6750000000012"/>
    <line x1="13.1750000000024" y1="76.6750000000012" x2="10.0000000000023" y2="76.6750000000009"/>
    <line x1="10.0000000000023" y1="76.6750000000009" x2="10.0000000000023" y2="79.850000000001"/>
    <line x1="10.0000000000023" y1="79.850000000001" x2="13.1750000000023" y2="79.8500000000012"/>
    <line x1="13.1750000000023" y1="79.8500000000012" x2="13.1750000000023" y2="83.0250000000012"/>
    <line x1="13.1750000000023" y1="83.0250000000012" x2="10.0000000000023" y2="83.025000000001"/>
    <line x1="10.0000000000023" y1="83.025000000001" x2="10.0000000000022" y2="86.200000000001"/>
    <line x1="10.0000000000022" y1="86.200000000001" x2="13.1750000000023" y2="86.2000000000012"/>
    <line x1="13.1750000000023" y1="86.2000000000012" x2="13.1750000000022" y2="89.3750000000012"/>
    <line x1="13.1750000000022" y1="89.3750000000012" x2="10.0000000000022" y2="89.3750000000009"/>
    <line x1="10.0000000000022" y1="89.3750000000009" x2="10.0000000000022" y2="92.5500000000009"/>
    <line x1="10.0000000000022" y1="92.5500000000009" x2="13.1750000000022" y2="92.5500000000012"/>
    <line x1="13.1750000000022" y1="92.5500000000012" x2="13.1750000000022" y2="95.7250000000012"/>
    <line x1="13.1750000000022" y1="95.7250000000012" x2="10.0000000000021" y2="95.725000000001"/>
    <line x1="10.0000000000021" y1="95.725000000001" x2="10.0000000000022" y2="98.900000000001"/>
    <line x1="10.0000000000022" y1="98.900000000001" x2="13.1750000000021" y2="98.9000000000012"/>
    <line x1="13.1750000000021" y1="98.9000000000012" x2="13.1750000000021" y2="102.075000000001"/>
    <line x1="13.1750000000021" y1="102.075000000001" x2="10.0000000000021" y2="102.075000000001"/>
    <line x1="10.0000000000021" y1="102.075000000001" x2="10.000000000002" y2="105.250000000001"/>
    <line x1="10.000000000002" y1="105.250000000001" x2="13.1750000000021" y2="105.250000000001"/>
    <line x1="13.1750000000021" y1="105.250000000001" x2="13.1750000000021" y2="108.425000000001"/>
    <line x1="13.1750000000021" y1="108.425000000001" x2="10.000000000002" y2="108.425000000001"/>
    <line x1="10.000000000002" y1="108.425000000001" x2="10.000000000002" y2="111.600000000001"/>
    <line x1="10.000000000002" y1="111.600000000001" x2="13.175000000002" y2="111.600000000001"/>
    <line x1="13.175000000002" y1="111.600000000001" x2="13.175000000002" y2="114.775000000001"/>
    <line x1="13.175000000002" y1="114.775000000001" x2="10.000000000002" y2="114.775000000001"/>
    <line x1="10.000000000002" y1="114.775000000001" x2="10.000000000002" y2="117.950000000001"/>
    <line x1="10.000000000002" y1="117.950000000001" x2="13.1750000000019" y2="117.950000000001"/>
    <line x1="13.1750000000019" y1="117.950000000001" x2="13.1750000000019" y2="121.125000000001"/>
    <line x1="13.1750000000019" y1="121.125000000001" x2="10.0000000000019" y2="121.125000000001"/>
    <line x1="10.0000000000019" y1="121.125000000001" x2="10.0000000000019" y2="124.300000000001"/>
    <line x1="10.0000000000019" y1="124.300000000001" x2="13.1750000000019" y2="124.300000000001"/>
    <line x1="13.1750000000019" y1="124.300000000001" x2="13.1750000000018" y2="127.475000000001"/>
    <line x1="13.1750000000018" y1="127.475000000001" x2="10.0000000000019" y2="127.475000000001"/>
    <line x1="10.0000000000019" y1="127.475000000001" x2="10.0000000000018" y2="130.650000000001"/>
    <line x1="10.0000000000018" y1="130.650000000001" x2="13.1750000000018" y2="130.650000000001"/>
    <line x1="13.1750000000018" y1="130.650000000001" x2="13.1750000000018" y2="133.825000000001"/>
    <line x1="13.1750000000018" y1="133.825000000001" x2="10.0000000000018" y2="133.825000000001"/>
    <line x1="10.0000000000018" y1="133.825000000001" x2="10.0000000000018" y2="137.000000000001"/>
    <line x1="10.0000000000018" y1="137.000000000001" x2="13.1750000000018" y2="137.000000000001"/>
    <line x1="13.1750000000018" y1="137.000000000001" x2="13.1750000000017" y2="140.175000000001"/>
    <line x1="13.1750000000017" y1="140.175000000001" x2="10.0000000000018" y2="140.175000000001"/>
    <line x1="10.0000000000018" y1="140.175000000001" x2="10.0000000000017" y2="143.350000000001"/>
    <line x1="10.0000000000017" y1="143.350000000001" x2="13.1750000000017" y2="143.350000000001"/>
    <line x1="13.1750000000017" y1="143.350000000001" x2="13.1750000000017" y2="146.525000000001"/>
    <line x1="13.1750000000017" y1="146.525000000001" x2="10.0000000000017" y2="146.525000000001"/>
    <line x1="10.0000000000017" y1="146.525000000001" x2="10.0000000000017" y2="149.700000000001"/>
    <line x1="10.0000000000017" y1="149.700000000001" x2="13.1750000000017" y2="149.700000000001"/>
    <line x1="13.1750000000017" y1="149.700000000001" x2="13.1750000000016" y2="152.875000000001"/>
    <line x1="13.1750000000016" y1="152.875000000001" x2="10.0000000000016" y2="152.875000000001"/>
    <line x1="10.0000000000016" y1="152.875000000001" x2="10.0000000000016" y2="156.050000000001"/>
    <line x1="10.0000000000016" y1="156.050000000001" x2="13.1750000000016" y2="156.050000000001"/>
    <line x1="13.1750000000016" y1="156.050000000001" x2="13.1750000000016" y2="159.225000000001"/>
    <line x1="13.1750000000016" y1="159.225000000001" x2="10.0000000000016" y2="159.225000000001"/>
    <line x1="10.0000000000016" y1="159.225000000001" x2="10.0000000000015" y2="162.400000000001"/>
    <line x1="10.0000000000015" y1="162.400000000001" x2="13.1750000000015" y2="162.400000000001"/>
    <line x1="13.1750000000015" y1="162.400000000001" x2="13.1750000000015" y2="165.575000000001"/>
    <line x1="13.1750000000015" y1="165.575000000001" x2="10.0000000000015" y2="165.575000000001"/>
    <line x1="10.0000000000015" y1="165.575000000001" x2="10.0000000000015" y2="168.750000000001"/>
    <line x1="10.0000000000015" y1="168.750000000001" x2="13.1750000000014" y2="168.750000000001"/>
    <line x1="13.1750000000014" y1="168.750000000001" x2="13.1750000000015" y2="171.925000000001"/>
    <line x1="13.1750000000015" y1="171.925000000001" x2="10.0000000000014" y2="171.925000000001"/>
    <line x1="10.0000000000014" y1="171.925000000001" x2="10.0000000000014" y2="175.100000000001"/>
    <line x1="10.0000000000014" y1="175.100000000001" x2="13.1750000000014" y2="175.100000000001"/>
    <line x1="13.1750000000014" y1="175.100000000001" x2="13.1750000000014" y2="178.275000000001"/>
    <line x1="13.1750000000014" y1="178.275000000001" x2="10.0000000000014" y2="178.275000000001"/>
    <line x1="10.0000000000014" y1="178.275000000001" x2="10.0000000000014" y2="181.450000000001"/>
    <line x1="10.0000000000014" y1="181.450000000001" x2="13.1750000000014" y2="181.450000000001"/>
    <line x1="13.1750000000014" y1="181.450000000001" x2="13.1750000000013" y2="184.625000000001"/>
    <line x1="13.1750000000013" y1="184.625000000001" x2="10.0000000000013" y2="184.625000000001"/>
    <line x1="10.0000000000013" y1="184.625000000001" x2="10.0000000000013" y2="187.800000000001"/>
    <line x1="10.0000000000013" y1="187.800000000001" x2="13.1750000000013" y2="187.800000000001"/>
    <line x1="13.1750000000013" y1="187.800000000001" x2="13.1750000000013" y2="190.975000000001"/>
    <line x1="13.1750000000013" y1="190.975000000001" x2="10.0000000000013" y2="190.975000000001"/>
    <line x1="10.0000000000013" y1="190.975000000001" x2="10.0000000000013" y2="194.150000000001"/>
    <line x1="10.0000000000013" y1="194.150000000001" x2="13.1750000000012" y2="194.150000000001"/>
    <line x1="13.1750000000012" y1="194.150000000001" x2="13.1750000000012" y2="197.325000000001"/>
    <line x1="13.1750000000012" y1="197.325000000001" x2="10.0000000000012" y2="197.325000000001"/>
    <line x1="10.0000000000012" y1="197.325000000001" x2="10.0000000000012" y2="200.500000000001"/>
    <line x1="10.0000000000012" y1="200.500000000001" x2="13.1750000000012" y2="200.500000000001"/>
    <line x1="13.1750000000012" y1="200.500000000001" x2="13.1750000000012" y2="203.675000000001"/>
    <line x1="13.1750000000012" y1="203.675000000001" x2="10.0000000000011" y2="203.675000000001"/>
    <line x1="10.0000000000011" y1="203.675000000001" x2="10.0000000000011" y2="206.850000000001"/>
    <line x1="10.0000000000011" y1="206.850000000001" x2="13.1750000000011" y2="206.850000000001"/>
    <line x1="13.1750000000011" y1="206.850000000001" x2="13.1750000000011" y2="210.025000000001"/>
    <line x1="13.1750000000011" y1="210.025000000001" x2="10.0000000000011" y2="210.025000000001"/>
    <line x1="10.0000000000011" y1="210.025000000001" x2="10.0000000000011" y2="213.200000000001"/>
    <line x1="10.0000000000011" y1="213.200000000001" x2="13.1750000000011" y2="213.200000000001"/>
    <line x1="13.1750000000011" y1="213.200000000001" x2="13.175000000001" y2="216.375000000001"/>
    <line x1="13.175000000001" y1="216.375000000001" x2="10.000000000001" y2="216.375000000001"/>
    <line x1="10.000000000001" y1="216.375000000001" x2="10.000000000001" y2="219.550000000001"/>
    <line x1="10.000000000001" y1="219.550000000001" x2="13.175000000001" y2="219.550000000001"/>
    <line x1="13.175000000001" y1="219.550000000001" x2="13.175000000001" y2="222.725000000001"/>
    <line x1="13.175000000001" y1="222.725000000001" x2="10.000000000001" y2="222.725000000001"/>
    <line x1="10.000000000001" y1="222.725000000001" x2="10.000000000001" y2="225.900000000001"/>
    <line x1="10.000000000001" y1="225.900000000001" x2="13.1750000000009" y2="225.900000000001"/>
    <line x1="13.1750000000009" y1="225.900000000001" x2="13.1750000000009" y2="229.075000000001"/>
    <line x1="13.1750000000009" y1="229.075000000001" x2="10.0000000000009" y2="229.075000000001"/>
    <line x1="10.0000000000009" y1="229.075000000001" x2="10.0000000000009" y2="232.250000000001"/>
    <line x1="10.0000000000009" y1="232.250000000001" x2="13.1750000000009" y2="232.250000000001"/>
    <line x1="13.1750000000009" y1="232.250000000001" x2="13.1750000000008" y2="235.425000000001"/>
    <line x1="13.1750000000008" y1="235.425000000001" x2="10.0000000000008" y2="235.425000000001"/>
    <line x1="10.0000000000008" y1="235.425000000001" x2="10.0000000000008" y2="238.600000000001"/>
    <line x1="10.0000000000008" y1="238.600000000001" x2="13.1750000000008" y2="238.600000000001"/>
    <line x1="13.1750000000008" y1="238.600000000001" x2="13.1750000000008" y2="241.775000000001"/>
    <line x1="13.1750000000008" y1="241.775000000001" x2="10.0000000000008" y2="241.775000000001"/>
    <line x1="10.0000000000008" y1="241.775000000001" x2="10.0000000000008" y2="244.950000000001"/>
    <line x1="10.0000000000008" y1="244.950000000001" x2="13.1750000000008" y2="244.950000000001"/>
    <line x1="13.1750000000008" y1="244.950000000001" x2="13.1750000000007" y2="248.125000000001"/>
    <line x1="13.1750000000007" y1="248.125000000001" x2="10.0000000000007" y2="248.125000000001"/>
    <line x1="10.0000000000007" y1="248.125000000001" x2="10.0000000000007" y2="251.300000000001"/>
    <line x1="10.0000000000007" y1="251.300000000001" x2="13.1750000000007" y2="251.300000000001"/>
    <line x1="13.1750000000007" y1="251.300000000001" x2="13.1750000000007" y2="254.475000000001"/>
    <line x1="13.1750000000007" y1="254.475000000001" x2="10.0000000000006" y2="254.475000000001"/>
    <line x1="10.0000000000006" y1="254.475000000001" x2="10.0000000000006" y2="257.650000000001"/>
    <line x1="10.0000000000006" y1="257.650000000001" x2="13.1750000000006" y2="257.650000000001"/>
    <line x1="13.1750000000006" y1="257.650000000001" x2="13.1750000000006" y2="260.825000000001"/>
    <line x1="13.1750000000006" y1="260.825000000001" x2="10.0000000000006" y2="260.825000000001"/>
    <line x1="10.0000000000006" y1="260.825000000001" x2="10.0000000000006" y2="264.000000000001"/>
    <line x1="10.0000000000006" y1="264.000000000001" x2="13.1750000000006" y2="264.000000000001"/>
    <line x1="13.1750000000006" y1="264.000000000001" x2="13.1750000000005" y2="267.175000000001"/>
    <line x1="13.1750000000005" y1="267.175000000001" x2="10.0000000000006" y2="267.175000000001"/>
    <line x1="10.0000000000006" y1="267.175000000001" x2="10.0000000000005" y2="270.350000000001"/>
    <line x1="10.0000000000005" y1="270.350000000001" x2="13.1750000000005" y2="270.350000000001"/>
    <line x1="13.1750000000005" y1="270.350000000001" x2="13.1750000000005" y2="273.525000000001"/>
    <line x1="13.1750000000005" y1="273.525000000001" x2="10.0000000000005" y2="273.525000000001"/>
    <line x1="10.0000000000005" y1="273.525000000001" x2="10.0000000000004" y2="276.700000000001"/>
    <line x1="10.0000000000004" y1="276.700000000001" x2="13.1750000000004" y2="276.700000000001"/>
    <line x1="13.1750000000004" y1="276.700000000001" x2="13.1750000000005" y2="279.875000000001"/>
    <line x1="13.1750000000005" y1="279.875000000001" x2="10.0000000000004" y2="279.875000000001"/>
    <line x1="10.0000000000004" y1="279.875000000001" x2="10.0000000000004" y2="283.050000000001"/>
    <line x1="10.0000000000004" y1="283.050000000001" x2="13.1750000000004" y2="283.050000000001"/>
    <line x1="13.1750000000004" y1="283.050000000001" x2="13.1750000000004" y2="286.225000000001"/>
    <line x1="13.1750000000004" y1="286.225000000001" x2="10.0000000000003" y2="286.225000000001"/>
    <line x1="10.0000000000003" y1="286.225000000001" x2="10.0000000000003" y2="289.400000000001"/>
    <line x1="10.0000000000003" y1="289.400000000001" x2="13.1750000000004" y2="289.400000000001"/>
    <line x1="13.1750000000004" y1="289.400000000001" x2="13.1750000000003" y2="292.575000000001"/>
    <line x1="13.1750000000003" y1="292.575000000001" x2="10.0000000000003" y2="292.575000000001"/>
    <line x1="10.0000000000003" y1="292.575000000001" x2="10.0000000000003" y2="295.750000000001"/>
    <line x1="10.0000000000003" y1="295.750000000001" x2="13.1750000000003" y2="295.750000000001"/>
    <line x1="13.1750000000003" y1="295.750000000001" x2="13.1750000000003" y2="298.925000000001"/>
    <line x1="13.1750000000003" y1="298.925000000001" x2="10.0000000000002" y2="298.925000000001"/>
    <line x1="10.0000000000002" y1="298.925000000001" x2="10.0000000000002" y2="302.100000000001"/>
    <line x1="10.0000000000002" y1="302.100000000001" x2="13.1750000000002" y2="302.100000000001"/>
    <line x1="13.1750000000002" y1="302.100000000001" x2="13.1750000000002" y2="305.275000000001"/>
    <line x1="13.1750000000002" y1="305.275000000001" x2="10.0000000000002" y2="305.275000000001"/>
    <line x1="10.0000000000002" y1="305.275000000001" x2="10.0000000000001" y2="308.450000000001"/>
    <line x1="10.0000000000001" y1="308.450000000001" x2="13.1750000000002" y2="308.450000000001"/>
    <line x1="13.1750000000002" y1="308.450000000001" x2="13.1750000000002" y2="311.625000000001"/>
    <line x1="13.1750000000002" y1="311.625000000001" x2="10.0000000000001" y2="311.625000000001"/>
    <line x1="10.0000000000001" y1="311.625000000001" x2="10.0000000000001" y2="314.800000000001"/>
    <line x1="10.0000000000001" y1="314.800000000001" x2="13.1750000000001" y2="314.800000000001"/>
    <line x1="13.1750000000001" y1="314.800000000001" x2="13.1750000000001" y2="317.975000000001"/>
    <line x1="13.1750000000001" y1="317.975000000001" x2="10.0" y2="317.975000000001"/>
    <line x1="10.0" y1="317.975000000001" x2="10.0" y2="321.150000000001"/>
    <line x1="10.0" y1="321.150000000001" x2="13.1750000000001" y2="321.150000000001"/>
    <line x1="13.1750000000001" y1="321.150000000001" x2="13.175" y2="324.325000000001"/>
    <line x1="13.175" y1="324.325000000001" x2="10.0" y2="324.325000000001"/>
    <line x1="10.0" y1="324.325000000001" x2="10.0" y2="327.500000000001"/>
    <line x1="10.0" y1="327.500000000001" x2="13.175" y2="327.500000000001"/>
    <line x1="13.175" y1="327.500000000001" x2="13.1749999999999" y2="330.675000000001"/>
    <line x1="13.1749999999999" y1="330.675000000001" x2="13.1750000000004" y2="333.850000000001"/>
    <line x1="13.1750000000004" y1="333.850000000001" x2="16.3500000000094" y2="333.85"/>
    <line x1="16.3500000000094" y1="333.85" x2="16.3500000000088" y2="330.675"/>
    <line x1="16.3500000000088" y1="330.675" x2="19.5250000000089" y2="330.675"/>
    <line x1="19.5250000000089" y1="330.675" x2="19.525000000009" y2="333.85"/>
    <line x1="19.525000000009" y1="333.85" x2="22.7000000000089" y2="333.85"/>
    <line x1="22.7000000000089" y1="333.85" x2="22.7000000000089" y2="330.675"/>
    <line x1="22.7000000000089" y1="330.675" x2="25.8750000000089" y2="330.675"/>
    <line x1="25.8750000000089" y1="330.675" x2="25.8750000000089" y2="333.85"/>
    <line x1="25.8750000000089" y1="333.85" x2="29.0500000000089" y2="333.85"/>
    <line x1="29.0500000000089" y1="333.85" x2="29.0500000000088" y2="330.675"/>
    <line x1="29.0500000000088" y1="330.675" x2="32.2250000000088" y2="330.675"/>
    <line x1="32.2250000000088" y1="330.675" x2="32.2250000000089" y2="333.85"/>
    <line x1="32.2250000000089" y1="333.85" x2="35.4000000000089" y2="333.85"/>
    <line x1="35.4000000000089" y1="333.85" x2="35.4000000000089" y2="330.675"/>
    <line x1="35.4000000000089" y1="330.675" x2="38.5750000000089" y2="330.675"/>
    <line x1="38.5750000000089" y1="330.675" x2="38.5750000000089" y2="333.85"/>
    <line x1="38.5750000000089" y1="333.85" x2="41.7500000000089" y2="333.85"/>
    <line x1="41.7500000000089" y1="333.85" x2="41.7500000000089" y2="330.675"/>
    <line x1="41.7500000000089" y1="330.675" x2="44.9250000000089" y2="330.675"/>
    <line x1="44.9250000000089" y1="330.675" x2="44.9250000000089" y2="333.85"/>
    <line x1="44.9250000000089" y1="333.85" x2="48.1000000000089" y2="333.85"/>
    <line x1="48.1000000000089" y1="333.85" x2="48.1000000000089" y2="330.675"/>
    <line x1="48.1000000000089" y1="330.675" x2="51.2750000000089" y2="330.675"/>
    <line x1="51.2750000000089" y1="330.675" x2="51.2750000000089" y2="333.85"/>
    <line x1="51.2750000000089" y1="333.85" x2="54.4500000000089" y2="333.85"/>
    <line x1="54.4500000000089" y1="333.85" x2="54.4500000000088" y2="330.675"/>
    <line x1="54.4500000000088" y1="330.675" x2="57.6250000000088" y2="330.675"/>
    <line x1="57.6250000000088" y1="330.675" x2="57.6250000000078" y2="333.85"/>
    <line x1="57.6250000000078" y1="333.85" x2="60.7999999999989" y2="333.850000000001"/>
    <line x1="60.7999999999989" y1="333.850000000001" x2="60.7999999999999" y2="327.500000000001"/>
    <line x1="60.7999999999999" y1="327.500000000001" x2="63.9749999999999" y2="327.500000000001"/>
    <line x1="63.9749999999999" y1="327.500000000001" x2="63.975" y2="324.325000000001"/>
    <line x1="63.975" y1="324.325000000001" x2="60.7999999999998" y2="324.325000000001"/>
    <line x1="60.7999999999998" y1="324.325000000001" x2="60.7999999999998" y2="321.150000000001"/>
    <line x1="60.7999999999998" y1="321.150000000001" x2="63.9749999999999" y2="321.150000000001"/>
    <line x1="63.9749999999999" y1="321.150000000001" x2="63.9749999999998" y2="317.975000000001"/>
    <line x1="63.9749999999998" y1="317.975000000001" x2="60.7999999999998" y2="317.975000000001"/>
    <line x1="60.7999999999998" y1="317.975000000001" x2="60.7999999999996" y2="314.800000000001"/>
    <line x1="60.7999999999996" y1="314.800000000001" x2="63.9749999999999" y2="314.800000000001"/>
    <line x1="63.9749999999999" y1="314.800000000001" x2="63.9749999999998" y2="311.625000000001"/>
    <line x1="63.9749999999998" y1="311.625000000001" x2="60.7999999999997" y2="311.625000000001"/>
    <line x1="60.7999999999997" y1="311.625000000001" x2="60.7999999999998" y2="308.450000000001"/>
    <line x1="60.7999999999998" y1="308.450000000001" x2="63.9749999999998" y2="308.450000000001"/>
    <line x1="63.9749999999998" y1="308.450000000001" x2="63.9749999999999" y2="305.275000000001"/>
    <line x1="63.9749999999999" y1="305.275000000001" x2="60.7999999999996" y2="305.275000000002"/>
    <line x1="60.7999999999996" y1="305.275000000002" x2="60.7999999999996" y2="302.100000000002"/>
    <line x1="60.7999999999996" y1="302.100000000002" x2="63.9749999999998" y2="302.100000000001"/>
    <line x1="63.9749999999998" y1="302.100000000001" x2="63.9749999999997" y2="298.925000000001"/>
    <line x1="63.9749999999997" y1="298.925000000001" x2="60.7999999999997" y2="298.925000000001"/>
    <line x1="60.7999999999997" y1="298.925000000001" x2="60.7999999999996" y2="295.750000000001"/>
    <line x1="60.7999999999996" y1="295.750000000001" x2="63.9749999999997" y2="295.750000000001"/>
    <line x1="63.9749999999997" y1="295.750000000001" x2="63.9749999999997" y2="292.575000000001"/>
    <line x1="63.9749999999997" y1="292.575000000001" x2="60.7999999999996" y2="292.575000000001"/>
    <line x1="60.7999999999996" y1="292.575000000001" x2="60.7999999999996" y2="289.400000000002"/>
    <line x1="60.7999999999996" y1="289.400000000002" x2="63.9749999999996" y2="289.400000000001"/>
    <line x1="63.9749999999996" y1="289.400000000001" x2="63.9749999999996" y2="286.225000000001"/>
    <line x1="63.9749999999996" y1="286.225000000001" x2="60.7999999999994" y2="286.225000000002"/>
    <line x1="60.7999999999994" y1="286.225000000002" x2="60.7999999999995" y2="283.050000000001"/>
    <line x1="60.7999999999995" y1="283.050000000001" x2="63.9749999999996" y2="283.050000000001"/>
    <line x1="63.9749999999996" y1="283.050000000001" x2="63.9749999999995" y2="279.875000000001"/>
    <line x1="63.9749999999995" y1="279.875000000001" x2="60.7999999999994" y2="279.875000000001"/>
    <line x1="60.7999999999994" y1="279.875000000001" x2="60.7999999999993" y2="276.700000000001"/>
    <line x1="60.7999999999993" y1="276.700000000001" x2="63.9749999999996" y2="276.700000000001"/>
    <line x1="63.9749999999996" y1="276.700000000001" x2="63.9749999999995" y2="273.525000000001"/>
    <line x1="63.9749999999995" y1="273.525000000001" x2="60.7999999999994" y2="273.525000000001"/>
    <line x1="60.7999999999994" y1="273.525000000001" x2="60.7999999999994" y2="270.350000000001"/>
    <line x1="60.7999999999994" y1="270.350000000001" x2="63.9749999999995" y2="270.350000000001"/>
    <line x1="63.9749999999995" y1="270.350000000001" x2="63.9749999999996" y2="267.175000000001"/>
    <line x1="63.9749999999996" y1="267.175000000001" x2="60.7999999999993" y2="267.175000000001"/>
    <line x1="60.7999999999993" y1="267.175000000001" x2="60.7999999999993" y2="264.000000000001"/>
    <line x1="60.7999999999993" y1="264.000000000001" x2="63.9749999999995" y2="264.000000000001"/>
    <line x1="63.9749999999995" y1="264.000000000001" x2="63.9749999999994" y2="260.825000000001"/>
    <line x1="63.9749999999994" y1="260.825000000001" x2="60.7999999999994" y2="260.825000000001"/>
    <line x1="60.7999999999994" y1="260.825000000001" x2="60.7999999999993" y2="257.650000000001"/>
    <line x1="60.7999999999993" y1="257.650000000001" x2="63.9749999999994" y2="257.650000000001"/>
    <line x1="63.9749999999994" y1="257.650000000001" x2="63.9749999999993" y2="254.475000000001"/>
    <line x1="63.9749999999993" y1="254.475000000001" x2="60.7999999999993" y2="254.475000000001"/>
    <line x1="60.7999999999993" y1="254.475000000001" x2="60.7999999999992" y2="251.300000000001"/>
    <line x1="60.7999999999992" y1="251.300000000001" x2="63.9749999999993" y2="251.300000000001"/>
    <line x1="63.9749999999993" y1="251.300000000001" x2="63.9749999999993" y2="248.125000000001"/>
    <line x1="63.9749999999993" y1="248.125000000001" x2="60.799999999999" y2="248.125000000001"/>
    <line x1="60.799999999999" y1="248.125000000001" x2="60.7999999999991" y2="244.950000000001"/>
    <line x1="60.7999999999991" y1="244.950000000001" x2="63.9749999999992" y2="244.950000000001"/>
    <line x1="63.9749999999992" y1="244.950000000001" x2="63.9749999999992" y2="241.775000000001"/>
    <line x1="63.9749999999992" y1="241.775000000001" x2="60.7999999999991" y2="241.775000000001"/>
    <line x1="60.7999999999991" y1="241.775000000001" x2="60.799999999999" y2="238.600000000001"/>
    <line x1="60.799999999999" y1="238.600000000001" x2="63.9749999999993" y2="238.600000000001"/>
    <line x1="63.9749999999993" y1="238.600000000001" x2="63.9749999999992" y2="235.425000000001"/>
    <line x1="63.9749999999992" y1="235.425000000001" x2="60.799999999999" y2="235.425000000001"/>
    <line x1="60.799999999999" y1="235.425000000001" x2="60.7999999999988" y2="232.250000000001"/>
    <line x1="60.7999999999988" y1="232.250000000001" x2="63.974999999999" y2="232.250000000002"/>
    <line x1="63.974999999999" y1="232.250000000002" x2="63.9749999999989" y2="229.075000000001"/>
    <line x1="63.9749999999989" y1="229.075000000001" x2="60.7999999999987" y2="229.075000000001"/>
    <line x1="60.7999999999987" y1="229.075000000001" x2="60.7999999999987" y2="225.900000000001"/>
    <line x1="60.7999999999987" y1="225.900000000001" x2="63.9749999999989" y2="225.900000000001"/>
    <line x1="63.9749999999989" y1="225.900000000001" x2="63.9749999999989" y2="222.725000000001"/>
    <line x1="63.9749999999989" y1="222.725000000001" x2="60.7999999999988" y2="222.725000000001"/>
    <line x1="60.7999999999988" y1="222.725000000001" x2="60.7999999999987" y2="219.550000000001"/>
    <line x1="60.7999999999987" y1="219.550000000001" x2="63.9749999999988" y2="219.550000000001"/>
    <line x1="63.9749999999988" y1="219.550000000001" x2="63.9749999999988" y2="216.375000000001"/>
    <line x1="63.9749999999988" y1="216.375000000001" x2="60.7999999999987" y2="216.375000000001"/>
    <line x1="60.7999999999987" y1="216.375000000001" x2="60.7999999999987" y2="213.200000000001"/>
    <line x1="60.7999999999987" y1="213.200000000001" x2="63.9749999999986" y2="213.200000000002"/>
    <line x1="63.9749999999986" y1="213.200000000002" x2="63.9749999999988" y2="210.025000000002"/>
    <line x1="63.9749999999988" y1="210.025000000002" x2="60.7999999999985" y2="210.025000000001"/>
    <line x1="60.7999999999985" y1="210.025000000001" x2="60.7999999999986" y2="206.850000000001"/>
    <line x1="60.7999999999986" y1="206.850000000001" x2="63.9749999999986" y2="206.850000000002"/>
    <line x1="63.9749999999986" y1="206.850000000002" x2="63.9749999999986" y2="203.675000000002"/>
    <line x1="63.9749999999986" y1="203.675000000002" x2="60.7999999999986" y2="203.675000000001"/>
    <line x1="60.7999999999986" y1="203.675000000001" x2="60.7999999999985" y2="200.500000000001"/>
    <line x1="60.7999999999985" y1="200.500000000001" x2="63.9749999999987" y2="200.500000000002"/>
    <line x1="63.9749999999987" y1="200.500000000002" x2="63.9749999999986" y2="197.325000000002"/>
    <line x1="63.9749999999986" y1="197.325000000002" x2="60.7999999999986" y2="197.325000000001"/>
    <line x1="60.7999999999986" y1="197.325000000001" x2="60.7999999999986" y2="194.150000000001"/>
    <line x1="60.7999999999986" y1="194.150000000001" x2="63.9749999999986" y2="194.150000000002"/>
    <line x1="63.9749999999986" y1="194.150000000002" x2="63.9749999999986" y2="190.975000000002"/>
    <line x1="63.9749999999986" y1="190.975000000002" x2="60.7999999999984" y2="190.975000000001"/>
    <line x1="60.7999999999984" y1="190.975000000001" x2="60.7999999999985" y2="187.800000000001"/>
    <line x1="60.7999999999985" y1="187.800000000001" x2="63.9749999999985" y2="187.800000000001"/>
    <line x1="63.9749999999985" y1="187.800000000001" x2="63.9749999999984" y2="184.625000000001"/>
    <line x1="63.9749999999984" y1="184.625000000001" x2="60.7999999999985" y2="184.625000000001"/>
    <line x1="60.7999999999985" y1="184.625000000001" x2="60.7999999999983" y2="181.450000000001"/>
    <line x1="60.7999999999983" y1="181.450000000001" x2="63.9749999999984" y2="181.450000000001"/>
    <line x1="63.9749999999984" y1="181.450000000001" x2="63.9749999999984" y2="178.275000000001"/>
    <line x1="63.9749999999984" y1="178.275000000001" x2="60.7999999999984" y2="178.275000000001"/>
    <line x1="60.7999999999984" y1="178.275000000001" x2="60.7999999999983" y2="175.100000000001"/>
    <line x1="60.7999999999983" y1="175.100000000001" x2="63.9749999999983" y2="175.100000000001"/>
    <line x1="63.9749999999983" y1="175.100000000001" x2="63.9749999999984" y2="171.925000000001"/>
    <line x1="63.9749999999984" y1="171.925000000001" x2="60.7999999999982" y2="171.925000000001"/>
    <line x1="60.7999999999982" y1="171.925000000001" x2="60.7999999999983" y2="168.750000000001"/>
    <line x1="60.7999999999983" y1="168.750000000001" x2="63.9749999999984" y2="168.750000000001"/>
    <line x1="63.9749999999984" y1="168.750000000001" x2="63.9749999999983" y2="165.575000000001"/>
    <line x1="63.9749999999983" y1="165.575000000001" x2="60.7999999999982" y2="165.575000000001"/>
    <line x1="60.7999999999982" y1="165.575000000001" x2="60.7999999999981" y2="162.400000000001"/>
    <line x1="60.7999999999981" y1="162.400000000001" x2="63.9749999999984" y2="162.400000000001"/>
    <line x1="63.9749999999984" y1="162.400000000001" x2="63.9749999999983" y2="159.225000000001"/>
    <line x1="63.9749999999983" y1="159.225000000001" x2="60.7999999999982" y2="159.225000000001"/>
    <line x1="60.7999999999982" y1="159.225000000001" x2="60.7999999999983" y2="156.050000000001"/>
    <line x1="60.7999999999983" y1="156.050000000001" x2="63.9749999999982" y2="156.050000000001"/>
    <line x1="63.9749999999982" y1="156.050000000001" x2="63.9749999999983" y2="152.875000000001"/>
    <line x1="63.9749999999983" y1="152.875000000001" x2="60.7999999999981" y2="152.875000000001"/>
    <line x1="60.7999999999981" y1="152.875000000001" x2="60.7999999999982" y2="149.700000000001"/>
    <line x1="60.7999999999982" y1="149.700000000001" x2="63.9749999999981" y2="149.700000000001"/>
    <line x1="63.9749999999981" y1="149.700000000001" x2="63.9749999999981" y2="146.525000000001"/>
    <line x1="63.9749999999981" y1="146.525000000001" x2="60.7999999999981" y2="146.525000000001"/>
    <line x1="60.7999999999981" y1="146.525000000001" x2="60.799999999998" y2="143.350000000001"/>
    <line x1="60.799999999998" y1="143.350000000001" x2="63.9749999999982" y2="143.350000000001"/>
    <line x1="63.9749999999982" y1="143.350000000001" x2="63.974999999998" y2="140.175000000001"/>
    <line x1="63.974999999998" y1="140.175000000001" x2="60.7999999999981" y2="140.175000000001"/>
    <line x1="60.7999999999981" y1="140.175000000001" x2="60.7999999999981" y2="137.000000000001"/>
    <line x1="60.7999999999981" y1="137.000000000001" x2="63.9749999999981" y2="137.000000000001"/>
    <line x1="63.9749999999981" y1="137.000000000001" x2="63.9749999999981" y2="133.825000000001"/>
    <line x1="63.9749999999981" y1="133.825000000001" x2="60.7999999999979" y2="133.825000000001"/>
    <line x1="60.7999999999979" y1="133.825000000001" x2="60.799999999998" y2="130.650000000001"/>
    <line x1="60.799999999998" y1="130.650000000001" x2="63.974999999998" y2="130.650000000001"/>
    <line x1="63.974999999998" y1="130.650000000001" x2="63.974999999998" y2="127.475000000001"/>
    <line x1="63.974999999998" y1="127.475000000001" x2="60.799999999998" y2="127.475000000001"/>
    <line x1="60.799999999998" y1="127.475000000001" x2="60.7999999999978" y2="124.300000000001"/>
    <line x1="60.7999999999978" y1="124.300000000001" x2="63.9749999999981" y2="124.300000000001"/>
    <line x1="63.9749999999981" y1="124.300000000001" x2="63.9749999999979" y2="121.125000000001"/>
    <line x1="63.9749999999979" y1="121.125000000001" x2="60.799999999998" y2="121.125000000001"/>
    <line x1="60.799999999998" y1="121.125000000001" x2="60.799999999998" y2="117.950000000001"/>
    <line x1="60.799999999998" y1="117.950000000001" x2="63.9749999999979" y2="117.950000000001"/>
    <line x1="63.9749999999979" y1="117.950000000001" x2="63.9749999999979" y2="114.775000000001"/>
    <line x1="63.9749999999979" y1="114.775000000001" x2="60.7999999999978" y2="114.775000000001"/>
    <line x1="60.7999999999978" y1="114.775000000001" x2="60.7999999999979" y2="111.600000000001"/>
    <line x1="60.7999999999979" y1="111.600000000001" x2="63.9749999999978" y2="111.600000000001"/>
    <line x1="63.9749999999978" y1="111.600000000001" x2="63.9749999999979" y2="108.425000000001"/>
    <line x1="63.9749999999979" y1="108.425000000001" x2="60.7999999999979" y2="108.425000000001"/>
    <line x1="60.7999999999979" y1="108.425000000001" x2="60.7999999999977" y2="105.250000000001"/>
    <line x1="60.7999999999977" y1="105.250000000001" x2="63.9749999999979" y2="105.250000000001"/>
    <line x1="63.9749999999979" y1="105.250000000001" x2="63.9749999999978" y2="102.075000000001"/>
    <line x1="63.9749999999978" y1="102.075000000001" x2="60.7999999999978" y2="102.075000000002"/>
    <line x1="60.7999999999978" y1="102.075000000002" x2="60.7999999999978" y2="98.9000000000015"/>
    <line x1="60.7999999999978" y1="98.9000000000015" x2="63.9749999999978" y2="98.9000000000011"/>
    <line x1="63.9749999999978" y1="98.9000000000011" x2="63.9749999999979" y2="95.7250000000011"/>
    <line x1="63.9749999999979" y1="95.7250000000011" x2="60.7999999999977" y2="95.7250000000015"/>
    <line x1="60.7999999999977" y1="95.7250000000015" x2="60.7999999999978" y2="92.5500000000015"/>
    <line x1="60.7999999999978" y1="92.5500000000015" x2="63.9749999999977" y2="92.5500000000011"/>
    <line x1="63.9749999999977" y1="92.5500000000011" x2="63.9749999999977" y2="89.3750000000011"/>
    <line x1="63.9749999999977" y1="89.3750000000011" x2="60.7999999999977" y2="89.3750000000015"/>
    <line x1="60.7999999999977" y1="89.3750000000015" x2="60.7999999999975" y2="86.2000000000015"/>
    <line x1="60.7999999999975" y1="86.2000000000015" x2="63.9749999999977" y2="86.2000000000011"/>
    <line x1="63.9749999999977" y1="86.2000000000011" x2="63.9749999999976" y2="83.0250000000011"/>
    <line x1="63.9749999999976" y1="83.0250000000011" x2="60.7999999999976" y2="83.0250000000016"/>
    <line x1="60.7999999999976" y1="83.0250000000016" x2="60.7999999999975" y2="79.8500000000016"/>
    <line x1="60.7999999999975" y1="79.8500000000016" x2="63.9749999999976" y2="79.8500000000013"/>
    <line x1="63.9749999999976" y1="79.8500000000013" x2="63.9749999999977" y2="76.6750000000013"/>
    <line x1="63.9749999999977" y1="76.6750000000013" x2="60.7999999999974" y2="76.6750000000015"/>
    <line x1="60.7999999999974" y1="76.6750000000015" x2="60.7999999999976" y2="73.5000000000016"/>
    <line x1="60.7999999999976" y1="73.5000000000016" x2="63.9749999999976" y2="73.5000000000013"/>
    <line x1="63.9749999999976" y1="73.5000000000013" x2="63.9749999999976" y2="70.3250000000014"/>
    <line x1="63.9749999999976" y1="70.3250000000014" x2="60.7999999999975" y2="70.3250000000017"/>
    <line x1="60.7999999999975" y1="70.3250000000017" x2="60.7999999999973" y2="67.1500000000016"/>
    <line x1="60.7999999999973" y1="67.1500000000016" x2="63.9749999999976" y2="67.1500000000014"/>
    <line x1="63.9749999999976" y1="67.1500000000014" x2="63.9749999999974" y2="63.9750000000014"/>
    <line x1="63.9749999999974" y1="63.9750000000014" x2="60.7999999999974" y2="63.9750000000016"/>
    <line x1="60.7999999999974" y1="63.9750000000016" x2="60.7999999999974" y2="60.8000000000016"/>
    <line x1="60.7999999999974" y1="60.8000000000016" x2="63.9749999999975" y2="60.8000000000014"/>
    <line x1="63.9749999999975" y1="60.8000000000014" x2="63.9749999999976" y2="57.6250000000014"/>
    <line x1="63.9749999999976" y1="57.6250000000014" x2="60.7999999999974" y2="57.6250000000015"/>
    <line x1="60.7999999999974" y1="57.6250000000015" x2="60.7999999999974" y2="54.4500000000015"/>
    <line x1="60.7999999999974" y1="54.4500000000015" x2="63.9749999999974" y2="54.4500000000014"/>
    <line x1="63.9749999999974" y1="54.4500000000014" x2="63.9749999999974" y2="51.2750000000014"/>
    <line x1="63.9749999999974" y1="51.2750000000014" x2="60.7999999999974" y2="51.2750000000016"/>
    <line x1="60.7999999999974" y1="51.2750000000016" x2="60.7999999999972" y2="48.1000000000016"/>
    <line x1="60.7999999999972" y1="48.1000000000016" x2="63.9749999999975" y2="48.1000000000014"/>
    <line x1="63.9749999999975" y1="48.1000000000014" x2="63.9749999999971" y2="44.9250000000014"/>
    <line x1="63.9749999999971" y1="44.9250000000014" x2="60.7999999999971" y2="44.9250000000016"/>
    <line x1="60.7999999999971" y1="44.9250000000016" x2="60.7999999999971" y2="41.7500000000016"/>
    <line x1="60.7999999999971" y1="41.7500000000016" x2="63.9749999999971" y2="41.7500000000014"/>
    <line x1="63.9749999999971" y1="41.7500000000014" x2="63.9749999999971" y2="38.5750000000014"/>
    <line x1="63.9749999999971" y1="38.5750000000014" x2="60.799999999997" y2="38.5750000000016"/>
    <line x1="60.799999999997" y1="38.5750000000016" x2="60.799999999997" y2="35.4000000000017"/>
    <line x1="60.799999999997" y1="35.4000000000017" x2="63.974999999997" y2="35.4000000000014"/>
    <line x1="63.974999999997" y1="35.4000000000014" x2="63.974999999997" y2="32.2250000000014"/>
    <line x1="63.974999999997" y1="32.2250000000014" x2="60.7999999999969" y2="32.2250000000017"/>
    <line x1="60.7999999999969" y1="32.2250000000017" x2="60.7999999999968" y2="29.0500000000016"/>
    <line x1="60.7999999999968" y1="29.0500000000016" x2="63.974999999997" y2="29.0500000000012"/>
    <line x1="63.974999999997" y1="29.0500000000012" x2="63.9749999999969" y2="25.8750000000012"/>
    <line x1="63.9749999999969" y1="25.8750000000012" x2="60.7999999999969" y2="25.8750000000016"/>
    <line x1="60.7999999999969" y1="25.8750000000016" x2="60.7999999999969" y2="22.7000000000016"/>
    <line x1="60.7999999999969" y1="22.7000000000016" x2="63.9749999999969" y2="22.7000000000012"/>
    <line x1="63.9749999999969" y1="22.7000000000012" x2="63.9749999999969" y2="19.5250000000012"/>
    <line x1="63.9749999999969" y1="19.5250000000012" x2="60.7999999999967" y2="19.5250000000016"/>
    <line x1="60.7999999999967" y1="19.5250000000016" x2="60.7999999999969" y2="16.3500000000016"/>
    <line x1="60.7999999999969" y1="16.3500000000016" x2="63.9749999999969" y2="16.3500000000012"/>
    <line x1="63.9749999999969" y1="16.3500000000012" x2="63.9749999999969" y2="13.1750000000009"/>
  </g>
</svg>
