<?xml version="1.0" standalone="no"?>
<!DOCTYPE svg PUBLIC "-//W3C//DTD SVG 1.1//EN" "http://www.w3.org/Graphics/SVG/1.1/DTD/svg11.dtd">
<svg width="121.6mm" height="73.9749999999949mm"
 viewBox="0 0 121.6 73.9749999999949"
 xmlns="http://www.w3.org/2000/svg" version="1.1"
 xmlns:xlink="http://www.w3.org/1999/xlink">
<desc>Output from Flights of Ideas SVG Sketchup Plugin</desc>

  <g id="face0" fill="none" stroke="rgb(0,0,255)" stroke-width="1" stroke-miterlimit="4" stroke-dasharray="none" stroke-linejoin="round" stroke-linecap="round">
    <line x1="16.3500000000035" y1="13.175" x2="13.175" y2="13.175"/>
    <line x1="13.175" y1="13.175" x2="13.175" y2="16.3499999999947"/>
    <line x1="13.175" y1="16.3499999999947" x2="10.0" y2="16.3499999999947"/>
    <line x1="10.0" y1="16.3499999999947" x2="10.0" y2="19.5249999999947"/>
    <line x1="10.0" y1="19.5249999999947" x2="13.175" y2="19.5249999999947"/>
    <line x1="13.175" y1="19.5249999999947" x2="13.175" y2="22.6999999999947"/>
    <line x1="13.175" y1="22.6999999999947" x2="10.0" y2="22.6999999999947"/>
    <line x1="10.0" y1="22.6999999999947" x2="10.0" y2="25.8749999999947"/>
    <line x1="10.0" y1="25.8749999999947" x2="13.175" y2="25.8749999999947"/>
    <line x1="13.175" y1="25.8749999999947" x2="13.175" y2="29.0499999999947"/>
    <line x1="13.175" y1="29.0499999999947" x2="10.0" y2="29.0499999999947"/>
    <line x1="10.0" y1="29.0499999999947" x2="10.0" y2="32.2249999999947"/>
    <line x1="10.0" y1="32.2249999999947" x2="13.175" y2="32.2249999999947"/>
    <line x1="13.175" y1="32.2249999999947" x2="13.175" y2="35.3999999999947"/>
    <line x1="13.175" y1="35.3999999999947" x2="10.0" y2="35.3999999999947"/>
    <line x1="10.0" y1="35.3999999999947" x2="10.0" y2="38.5749999999947"/>
    <line x1="10.0" y1="38.5749999999947" x2="13.175" y2="38.5749999999947"/>
    <line x1="13.175" y1="38.5749999999947" x2="13.175" y2="41.7499999999947"/>
    <line x1="13.175" y1="41.7499999999947" x2="10.0" y2="41.7499999999947"/>
    <line x1="10.0" y1="41.7499999999947" x2="10.0" y2="44.9249999999947"/>
    <line x1="10.0" y1="44.9249999999947" x2="13.175" y2="44.9249999999947"/>
    <line x1="13.175" y1="44.9249999999947" x2="13.175" y2="48.0999999999947"/>
    <line x1="13.175" y1="48.0999999999947" x2="10.0" y2="48.0999999999947"/>
    <line x1="10.0" y1="48.0999999999947" x2="10.0" y2="51.2749999999947"/>
    <line x1="10.0" y1="51.2749999999947" x2="13.175" y2="51.2749999999947"/>
    <line x1="13.175" y1="51.2749999999947" x2="13.175" y2="54.4499999999947"/>
    <line x1="13.175" y1="54.4499999999947" x2="10.0" y2="54.4499999999947"/>
    <line x1="10.0" y1="54.4499999999947" x2="10.0" y2="57.6249999999947"/>
    <line x1="10.0" y1="57.6249999999947" x2="13.175" y2="57.6249999999947"/>
    <line x1="13.175" y1="57.6249999999947" x2="13.175" y2="60.7999999999947"/>
    <line x1="13.175" y1="60.7999999999947" x2="16.35" y2="60.7999999999945"/>
    <line x1="16.35" y1="60.7999999999945" x2="16.3499999999998" y2="63.9749999999946"/>
    <line x1="16.3499999999998" y1="63.9749999999946" x2="19.5249999999995" y2="63.9749999999947"/>
    <line x1="19.5249999999995" y1="63.9749999999947" x2="19.5249999999991" y2="60.7999999999949"/>
    <line x1="19.5249999999991" y1="60.7999999999949" x2="22.6999999999995" y2="60.7999999999947"/>
    <line x1="22.6999999999995" y1="60.7999999999947" x2="22.6999999999998" y2="63.9749999999945"/>
    <line x1="22.6999999999998" y1="63.9749999999945" x2="25.8749999999997" y2="63.9749999999943"/>
    <line x1="25.8749999999997" y1="63.9749999999943" x2="25.8749999999997" y2="60.7999999999943"/>
    <line x1="25.8749999999997" y1="60.7999999999943" x2="29.0499999999998" y2="60.7999999999947"/>
    <line x1="29.0499999999998" y1="60.7999999999947" x2="29.0499999999995" y2="63.9749999999947"/>
    <line x1="29.0499999999995" y1="63.9749999999947" x2="32.2249999999996" y2="63.9749999999945"/>
    <line x1="32.2249999999996" y1="63.9749999999945" x2="32.2249999999995" y2="60.7999999999947"/>
    <line x1="32.2249999999995" y1="60.7999999999947" x2="35.3999999999996" y2="60.7999999999945"/>
    <line x1="35.3999999999996" y1="60.7999999999945" x2="35.3999999999996" y2="63.9749999999945"/>
    <line x1="35.3999999999996" y1="63.9749999999945" x2="38.5749999999998" y2="63.9749999999943"/>
    <line x1="38.5749999999998" y1="63.9749999999943" x2="38.5749999999998" y2="60.7999999999947"/>
    <line x1="38.5749999999998" y1="60.7999999999947" x2="41.7499999999995" y2="60.7999999999947"/>
    <line x1="41.7499999999995" y1="60.7999999999947" x2="41.7499999999995" y2="63.9749999999946"/>
    <line x1="41.7499999999995" y1="63.9749999999946" x2="44.9249999999997" y2="63.9749999999945"/>
    <line x1="44.9249999999997" y1="63.9749999999945" x2="44.9249999999999" y2="60.7999999999945"/>
    <line x1="44.9249999999999" y1="60.7999999999945" x2="48.0999999999995" y2="60.7999999999949"/>
    <line x1="48.0999999999995" y1="60.7999999999949" x2="48.1000000000003" y2="63.9749999999943"/>
    <line x1="48.1000000000003" y1="63.9749999999943" x2="51.2750000000001" y2="63.9749999999944"/>
    <line x1="51.2750000000001" y1="63.9749999999944" x2="51.2749999999999" y2="60.7999999999947"/>
    <line x1="51.2749999999999" y1="60.7999999999947" x2="54.4499999999997" y2="60.7999999999945"/>
    <line x1="54.4499999999997" y1="60.7999999999945" x2="54.4499999999999" y2="63.9749999999942"/>
    <line x1="54.4499999999999" y1="63.9749999999942" x2="57.6250000000001" y2="63.9749999999942"/>
    <line x1="57.6250000000001" y1="63.9749999999942" x2="57.6249999999997" y2="60.7999999999945"/>
    <line x1="57.6249999999997" y1="60.7999999999945" x2="60.7999999999999" y2="60.7999999999945"/>
    <line x1="60.7999999999999" y1="60.7999999999945" x2="60.7999999999995" y2="63.9749999999947"/>
    <line x1="60.7999999999995" y1="63.9749999999947" x2="63.9749999999997" y2="63.9749999999943"/>
    <line x1="63.9749999999997" y1="63.9749999999943" x2="63.9749999999997" y2="60.7999999999945"/>
    <line x1="63.9749999999997" y1="60.7999999999945" x2="67.1500000000001" y2="60.7999999999947"/>
    <line x1="67.1500000000001" y1="60.7999999999947" x2="67.1499999999997" y2="63.9749999999943"/>
    <line x1="67.1499999999997" y1="63.9749999999943" x2="70.3249999999997" y2="63.9749999999945"/>
    <line x1="70.3249999999997" y1="63.9749999999945" x2="70.3249999999997" y2="60.7999999999945"/>
    <line x1="70.3249999999997" y1="60.7999999999945" x2="73.4999999999995" y2="60.7999999999945"/>
    <line x1="73.4999999999995" y1="60.7999999999945" x2="73.4999999999997" y2="63.9749999999945"/>
    <line x1="73.4999999999997" y1="63.9749999999945" x2="76.6749999999995" y2="63.9749999999947"/>
    <line x1="76.6749999999995" y1="63.9749999999947" x2="76.6749999999995" y2="60.7999999999945"/>
    <line x1="76.6749999999995" y1="60.7999999999945" x2="79.8500000000001" y2="60.7999999999945"/>
    <line x1="79.8500000000001" y1="60.7999999999945" x2="79.8499999999997" y2="63.9749999999943"/>
    <line x1="79.8499999999997" y1="63.9749999999943" x2="83.0249999999996" y2="63.9749999999949"/>
    <line x1="83.0249999999996" y1="63.9749999999949" x2="83.0249999999997" y2="60.7999999999945"/>
    <line x1="83.0249999999997" y1="60.7999999999945" x2="86.1999999999997" y2="60.7999999999947"/>
    <line x1="86.1999999999997" y1="60.7999999999947" x2="86.2000000000001" y2="63.9749999999945"/>
    <line x1="86.2000000000001" y1="63.9749999999945" x2="89.3749999999995" y2="63.9749999999945"/>
    <line x1="89.3749999999995" y1="63.9749999999945" x2="89.3749999999997" y2="60.7999999999945"/>
    <line x1="89.3749999999997" y1="60.7999999999945" x2="92.5499999999997" y2="60.7999999999945"/>
    <line x1="92.5499999999997" y1="60.7999999999945" x2="92.5499999999997" y2="63.9749999999946"/>
    <line x1="92.5499999999997" y1="63.9749999999946" x2="95.7250000000003" y2="63.9749999999943"/>
    <line x1="95.7250000000003" y1="63.9749999999943" x2="95.7249999999996" y2="60.7999999999943"/>
    <line x1="95.7249999999996" y1="60.7999999999943" x2="98.8999999999994" y2="60.7999999999945"/>
    <line x1="98.8999999999994" y1="60.7999999999945" x2="98.8999999999999" y2="63.9749999999945"/>
    <line x1="98.8999999999999" y1="63.9749999999945" x2="102.075" y2="63.9749999999947"/>
    <line x1="102.075" y1="63.9749999999947" x2="102.075" y2="60.7999999999945"/>
    <line x1="102.075" y1="60.7999999999945" x2="105.25" y2="60.7999999999945"/>
    <line x1="105.25" y1="60.7999999999945" x2="105.249999999999" y2="63.9749999999944"/>
    <line x1="105.249999999999" y1="63.9749999999944" x2="108.424999999999" y2="63.9749999999944"/>
    <line x1="108.424999999999" y1="63.9749999999944" x2="108.425" y2="60.7999999999945"/>
    <line x1="108.425" y1="60.7999999999945" x2="108.425" y2="57.6249999999946"/>
    <line x1="108.425" y1="57.6249999999946" x2="111.6" y2="57.6249999999945"/>
    <line x1="111.6" y1="57.6249999999945" x2="111.6" y2="54.4499999999945"/>
    <line x1="111.6" y1="54.4499999999945" x2="108.425" y2="54.4499999999946"/>
    <line x1="108.425" y1="54.4499999999946" x2="108.425" y2="51.2749999999945"/>
    <line x1="108.425" y1="51.2749999999945" x2="111.6" y2="51.2749999999945"/>
    <line x1="111.6" y1="51.2749999999945" x2="111.6" y2="48.0999999999946"/>
    <line x1="111.6" y1="48.0999999999946" x2="108.425" y2="48.0999999999946"/>
    <line x1="108.425" y1="48.0999999999946" x2="108.425" y2="44.9249999999946"/>
    <line x1="108.425" y1="44.9249999999946" x2="111.6" y2="44.9249999999945"/>
    <line x1="111.6" y1="44.9249999999945" x2="111.6" y2="41.7499999999945"/>
    <line x1="111.6" y1="41.7499999999945" x2="108.425" y2="41.7499999999945"/>
    <line x1="108.425" y1="41.7499999999945" x2="108.425" y2="38.5749999999945"/>
    <line x1="108.425" y1="38.5749999999945" x2="111.6" y2="38.5749999999946"/>
    <line x1="111.6" y1="38.5749999999946" x2="111.6" y2="35.3999999999945"/>
    <line x1="111.6" y1="35.3999999999945" x2="108.425" y2="35.3999999999946"/>
    <line x1="108.425" y1="35.3999999999946" x2="108.425" y2="32.2249999999946"/>
    <line x1="108.425" y1="32.2249999999946" x2="111.6" y2="32.2249999999945"/>
    <line x1="111.6" y1="32.2249999999945" x2="111.6" y2="29.0499999999945"/>
    <line x1="111.6" y1="29.0499999999945" x2="108.425" y2="29.0499999999945"/>
    <line x1="108.425" y1="29.0499999999945" x2="108.425" y2="25.8749999999945"/>
    <line x1="108.425" y1="25.8749999999945" x2="111.6" y2="25.8749999999945"/>
    <line x1="111.6" y1="25.8749999999945" x2="111.6" y2="22.6999999999945"/>
    <line x1="111.6" y1="22.6999999999945" x2="108.425" y2="22.6999999999946"/>
    <line x1="108.425" y1="22.6999999999946" x2="108.425" y2="19.5249999999946"/>
    <line x1="108.425" y1="19.5249999999946" x2="111.6" y2="19.5249999999947"/>
    <line x1="111.6" y1="19.5249999999947" x2="111.6" y2="16.3499999999945"/>
    <line x1="111.6" y1="16.3499999999945" x2="108.425" y2="16.3499999999945"/>
    <line x1="108.425" y1="16.3499999999945" x2="108.425" y2="10.0000000000014"/>
    <line x1="108.425" y1="10.0000000000014" x2="105.25" y2="10.000000000001"/>
    <line x1="105.25" y1="10.000000000001" x2="105.25" y2="13.175"/>
    <line x1="105.25" y1="13.175" x2="102.075" y2="13.175"/>
    <line x1="102.075" y1="13.175" x2="102.075" y2="10.0000000000012"/>
    <line x1="102.075" y1="10.0000000000012" x2="98.9" y2="10.0000000000009"/>
    <line x1="98.9" y1="10.0000000000009" x2="98.8999999999999" y2="13.175"/>
    <line x1="98.8999999999999" y1="13.175" x2="95.7250000000001" y2="13.175"/>
    <line x1="95.7250000000001" y1="13.175" x2="95.7250000000001" y2="10.0000000000009"/>
    <line x1="95.7250000000001" y1="10.0000000000009" x2="92.5500000000002" y2="10.0000000000011"/>
    <line x1="92.5500000000002" y1="10.0000000000011" x2="92.5500000000002" y2="13.175"/>
    <line x1="92.5500000000002" y1="13.175" x2="89.3750000000003" y2="13.175"/>
    <line x1="89.3750000000003" y1="13.175" x2="89.3750000000004" y2="10.0000000000013"/>
    <line x1="89.3750000000004" y1="10.0000000000013" x2="86.2000000000005" y2="10.0000000000008"/>
    <line x1="86.2000000000005" y1="10.0000000000008" x2="86.2000000000005" y2="13.175"/>
    <line x1="86.2000000000005" y1="13.175" x2="83.0250000000006" y2="13.175"/>
    <line x1="83.0250000000006" y1="13.175" x2="83.0250000000007" y2="10.000000000001"/>
    <line x1="83.0250000000007" y1="10.000000000001" x2="79.8500000000008" y2="10.0000000000008"/>
    <line x1="79.8500000000008" y1="10.0000000000008" x2="79.8500000000008" y2="13.175"/>
    <line x1="79.8500000000008" y1="13.175" x2="76.6750000000009" y2="13.175"/>
    <line x1="76.6750000000009" y1="13.175" x2="76.6750000000009" y2="10.0000000000008"/>
    <line x1="76.6750000000009" y1="10.0000000000008" x2="73.5000000000011" y2="10.0000000000009"/>
    <line x1="73.5000000000011" y1="10.0000000000009" x2="73.500000000001" y2="13.175"/>
    <line x1="73.500000000001" y1="13.175" x2="70.3250000000012" y2="13.175"/>
    <line x1="70.3250000000012" y1="13.175" x2="70.3250000000012" y2="10.0000000000008"/>
    <line x1="70.3250000000012" y1="10.0000000000008" x2="67.1500000000013" y2="10.0000000000007"/>
    <line x1="67.1500000000013" y1="10.0000000000007" x2="67.1500000000013" y2="13.175"/>
    <line x1="67.1500000000013" y1="13.175" x2="63.9750000000014" y2="13.175"/>
    <line x1="63.9750000000014" y1="13.175" x2="63.9750000000015" y2="10.0000000000006"/>
    <line x1="63.9750000000015" y1="10.0000000000006" x2="60.8000000000016" y2="10.0000000000006"/>
    <line x1="60.8000000000016" y1="10.0000000000006" x2="60.8000000000016" y2="13.175"/>
    <line x1="60.8000000000016" y1="13.175" x2="57.6250000000017" y2="13.175"/>
    <line x1="57.6250000000017" y1="13.175" x2="57.6250000000017" y2="10.0000000000006"/>
    <line x1="57.6250000000017" y1="10.0000000000006" x2="54.4500000000019" y2="10.0000000000005"/>
    <line x1="54.4500000000019" y1="10.0000000000005" x2="54.4500000000018" y2="13.175"/>
    <line x1="54.4500000000018" y1="13.175" x2="51.275000000002" y2="13.175"/>
    <line x1="51.275000000002" y1="13.175" x2="51.275000000002" y2="10.0000000000005"/>
    <line x1="51.275000000002" y1="10.0000000000005" x2="48.1000000000021" y2="10.0000000000005"/>
    <line x1="48.1000000000021" y1="10.0000000000005" x2="48.1000000000021" y2="13.175"/>
    <line x1="48.1000000000021" y1="13.175" x2="44.9250000000022" y2="13.175"/>
    <line x1="44.9250000000022" y1="13.175" x2="44.9250000000023" y2="10.0000000000004"/>
    <line x1="44.9250000000023" y1="10.0000000000004" x2="41.7500000000024" y2="10.0000000000004"/>
    <line x1="41.7500000000024" y1="10.0000000000004" x2="41.7500000000024" y2="13.175"/>
    <line x1="41.7500000000024" y1="13.175" x2="38.5750000000025" y2="13.175"/>
    <line x1="38.5750000000025" y1="13.175" x2="38.5750000000026" y2="10.0000000000003"/>
    <line x1="38.5750000000026" y1="10.0000000000003" x2="35.4000000000027" y2="10.0000000000003"/>
    <line x1="35.4000000000027" y1="10.0000000000003" x2="35.4000000000027" y2="13.175"/>
    <line x1="35.4000000000027" y1="13.175" x2="32.2250000000028" y2="13.175"/>
    <line x1="32.2250000000028" y1="13.175" x2="32.2250000000028" y2="10.0000000000002"/>
    <line x1="32.2250000000028" y1="10.0000000000002" x2="29.050000000003" y2="10.0000000000002"/>
    <line x1="29.050000000003" y1="10.0000000000002" x2="29.0500000000029" y2="13.175"/>
    <line x1="29.0500000000029" y1="13.175" x2="25.8750000000031" y2="13.175"/>
    <line x1="25.8750000000031" y1="13.175" x2="25.8750000000031" y2="10.0000000000001"/>
    <line x1="25.8750000000031" y1="10.0000000000001" x2="22.7000000000032" y2="10.0000000000001"/>
    <line x1="22.7000000000032" y1="10.0000000000001" x2="22.7000000000032" y2="13.175"/>
    <line x1="22.7000000000032" y1="13.175" x2="19.5250000000033" y2="13.175"/>
    <line x1="19.5250000000033" y1="13.175" x2="19.5250000000034" y2="10.0"/>
    <line x1="19.5250000000034" y1="10.0" x2="16.3500000000035" y2="10.0"/>
    <line x1="16.3500000000035" y1="10.0" x2="16.3500000000035" y2="13.175"/>
  </g>
</svg>
