<?xml version="1.0" standalone="no"?>
<!DOCTYPE svg PUBLIC "-//W3C//DTD SVG 1.1//EN" "http://www.w3.org/Graphics/SVG/1.1/DTD/svg11.dtd">
<svg width="121.6mm" height="67.625mm"
 viewBox="0 0 121.6 67.625"
 xmlns="http://www.w3.org/2000/svg" version="1.1"
 xmlns:xlink="http://www.w3.org/1999/xlink">
<desc>Output from Flights of Ideas SVG Sketchup Plugin</desc>

  <g id="face0" fill="none" stroke="rgb(0,0,255)" stroke-width="1" stroke-miterlimit="4" stroke-dasharray="none" stroke-linejoin="round" stroke-linecap="round">
    <line x1="108.425" y1="19.525" x2="108.425" y2="16.35"/>
    <line x1="108.425" y1="16.35" x2="111.6" y2="16.35"/>
    <line x1="111.6" y1="16.35" x2="111.6" y2="13.175"/>
    <line x1="111.6" y1="13.175" x2="111.6" y2="10.0"/>
    <line x1="111.6" y1="10.0" x2="105.25" y2="10.0"/>
    <line x1="105.25" y1="10.0" x2="105.25" y2="13.175"/>
    <line x1="105.25" y1="13.175" x2="102.075" y2="13.175"/>
    <line x1="102.075" y1="13.175" x2="102.075" y2="10.0"/>
    <line x1="102.075" y1="10.0" x2="98.9" y2="10.0"/>
    <line x1="98.9" y1="10.0" x2="98.9" y2="13.175"/>
    <line x1="98.9" y1="13.175" x2="95.725" y2="13.175"/>
    <line x1="95.725" y1="13.175" x2="95.725" y2="10.0"/>
    <line x1="95.725" y1="10.0" x2="92.55" y2="10.0"/>
    <line x1="92.55" y1="10.0" x2="92.55" y2="13.175"/>
    <line x1="92.55" y1="13.175" x2="89.375" y2="13.175"/>
    <line x1="89.375" y1="13.175" x2="89.375" y2="10.0"/>
    <line x1="89.375" y1="10.0" x2="86.1999999999999" y2="10.0"/>
    <line x1="86.1999999999999" y1="10.0" x2="86.1999999999999" y2="13.175"/>
    <line x1="86.1999999999999" y1="13.175" x2="83.0249999999999" y2="13.175"/>
    <line x1="83.0249999999999" y1="13.175" x2="83.0249999999999" y2="10.0"/>
    <line x1="83.0249999999999" y1="10.0" x2="79.8499999999999" y2="10.0"/>
    <line x1="79.8499999999999" y1="10.0" x2="79.8499999999999" y2="13.175"/>
    <line x1="79.8499999999999" y1="13.175" x2="76.6749999999999" y2="13.175"/>
    <line x1="76.6749999999999" y1="13.175" x2="76.6749999999999" y2="10.0"/>
    <line x1="76.6749999999999" y1="10.0" x2="73.4999999999999" y2="10.0"/>
    <line x1="73.4999999999999" y1="10.0" x2="73.4999999999999" y2="13.175"/>
    <line x1="73.4999999999999" y1="13.175" x2="70.3249999999999" y2="13.175"/>
    <line x1="70.3249999999999" y1="13.175" x2="70.3249999999999" y2="10.0"/>
    <line x1="70.3249999999999" y1="10.0" x2="67.1499999999999" y2="10.0"/>
    <line x1="67.1499999999999" y1="10.0" x2="67.1499999999999" y2="13.175"/>
    <line x1="67.1499999999999" y1="13.175" x2="63.9749999999999" y2="13.175"/>
    <line x1="63.9749999999999" y1="13.175" x2="63.9749999999999" y2="10.0"/>
    <line x1="63.9749999999999" y1="10.0" x2="60.7999999999999" y2="10.0"/>
    <line x1="60.7999999999999" y1="10.0" x2="60.7999999999999" y2="13.175"/>
    <line x1="60.7999999999999" y1="13.175" x2="57.6249999999999" y2="13.175"/>
    <line x1="57.6249999999999" y1="13.175" x2="57.6249999999999" y2="10.0"/>
    <line x1="57.6249999999999" y1="10.0" x2="54.4499999999999" y2="10.0"/>
    <line x1="54.4499999999999" y1="10.0" x2="54.4499999999999" y2="13.175"/>
    <line x1="54.4499999999999" y1="13.175" x2="51.2749999999999" y2="13.175"/>
    <line x1="51.2749999999999" y1="13.175" x2="51.2749999999999" y2="10.0"/>
    <line x1="51.2749999999999" y1="10.0" x2="48.0999999999998" y2="10.0"/>
    <line x1="48.0999999999998" y1="10.0" x2="48.0999999999998" y2="13.175"/>
    <line x1="48.0999999999998" y1="13.175" x2="44.9249999999998" y2="13.175"/>
    <line x1="44.9249999999998" y1="13.175" x2="44.9249999999998" y2="10.0"/>
    <line x1="44.9249999999998" y1="10.0" x2="41.7499999999998" y2="10.0"/>
    <line x1="41.7499999999998" y1="10.0" x2="41.7499999999998" y2="13.175"/>
    <line x1="41.7499999999998" y1="13.175" x2="38.5749999999998" y2="13.175"/>
    <line x1="38.5749999999998" y1="13.175" x2="38.5749999999998" y2="10.0"/>
    <line x1="38.5749999999998" y1="10.0" x2="35.3999999999998" y2="10.0"/>
    <line x1="35.3999999999998" y1="10.0" x2="35.3999999999998" y2="13.175"/>
    <line x1="35.3999999999998" y1="13.175" x2="32.2249999999998" y2="13.175"/>
    <line x1="32.2249999999998" y1="13.175" x2="32.2249999999998" y2="10.0000000000001"/>
    <line x1="32.2249999999998" y1="10.0000000000001" x2="29.0499999999998" y2="10.0"/>
    <line x1="29.0499999999998" y1="10.0" x2="29.0499999999998" y2="13.1750000000001"/>
    <line x1="29.0499999999998" y1="13.1750000000001" x2="25.8749999999998" y2="13.1750000000002"/>
    <line x1="25.8749999999998" y1="13.1750000000002" x2="25.8749999999998" y2="10.0000000000001"/>
    <line x1="25.8749999999998" y1="10.0000000000001" x2="22.6999999999998" y2="10.0"/>
    <line x1="22.6999999999998" y1="10.0" x2="22.6999999999998" y2="13.175"/>
    <line x1="22.6999999999998" y1="13.175" x2="19.5249999999998" y2="13.175"/>
    <line x1="19.5249999999998" y1="13.175" x2="19.5249999999998" y2="10.0000000000001"/>
    <line x1="19.5249999999998" y1="10.0000000000001" x2="16.3499999999998" y2="10.0"/>
    <line x1="16.3499999999998" y1="10.0" x2="16.3499999999998" y2="13.1749999999999"/>
    <line x1="16.3499999999998" y1="13.1749999999999" x2="13.175" y2="13.175"/>
    <line x1="13.175" y1="13.175" x2="13.175" y2="16.3500000000003"/>
    <line x1="13.175" y1="16.3500000000003" x2="10.0" y2="16.3499999999998"/>
    <line x1="10.0" y1="16.3499999999998" x2="10.0" y2="19.525"/>
    <line x1="10.0" y1="19.525" x2="13.175" y2="19.525"/>
    <line x1="13.175" y1="19.525" x2="13.175" y2="22.6999999999997"/>
    <line x1="13.175" y1="22.6999999999997" x2="10.0" y2="22.7000000000002"/>
    <line x1="10.0" y1="22.7000000000002" x2="10.0" y2="25.875"/>
    <line x1="10.0" y1="25.875" x2="13.175" y2="25.8750000000001"/>
    <line x1="13.175" y1="25.8750000000001" x2="13.175" y2="29.0499999999999"/>
    <line x1="13.175" y1="29.0499999999999" x2="10.0" y2="29.0500000000001"/>
    <line x1="10.0" y1="29.0500000000001" x2="10.0" y2="32.2250000000002"/>
    <line x1="10.0" y1="32.2250000000002" x2="13.175" y2="32.225"/>
    <line x1="13.175" y1="32.225" x2="13.175" y2="35.4000000000001"/>
    <line x1="13.175" y1="35.4000000000001" x2="10.0" y2="35.3999999999999"/>
    <line x1="10.0" y1="35.3999999999999" x2="10.0" y2="38.5750000000001"/>
    <line x1="10.0" y1="38.5750000000001" x2="13.175" y2="38.5750000000001"/>
    <line x1="13.175" y1="38.5750000000001" x2="13.175" y2="41.75"/>
    <line x1="13.175" y1="41.75" x2="10.0" y2="41.75"/>
    <line x1="10.0" y1="41.75" x2="10.0" y2="44.925"/>
    <line x1="10.0" y1="44.925" x2="13.175" y2="44.9250000000001"/>
    <line x1="13.175" y1="44.9250000000001" x2="13.175" y2="48.1000000000001"/>
    <line x1="13.175" y1="48.1000000000001" x2="10.0" y2="48.1"/>
    <line x1="10.0" y1="48.1" x2="10.0" y2="51.275"/>
    <line x1="10.0" y1="51.275" x2="13.175" y2="51.275"/>
    <line x1="13.175" y1="51.275" x2="13.175" y2="54.45"/>
    <line x1="13.175" y1="54.45" x2="10.0" y2="54.45"/>
    <line x1="10.0" y1="54.45" x2="10.0" y2="57.625"/>
    <line x1="10.0" y1="57.625" x2="13.175" y2="57.625"/>
    <line x1="13.175" y1="57.625" x2="16.35" y2="57.625"/>
    <line x1="16.35" y1="57.625" x2="16.35" y2="54.4500000000001"/>
    <line x1="16.35" y1="54.4500000000001" x2="19.525" y2="54.4500000000001"/>
    <line x1="19.525" y1="54.4500000000001" x2="19.525" y2="57.625"/>
    <line x1="19.525" y1="57.625" x2="22.7" y2="57.625"/>
    <line x1="22.7" y1="57.625" x2="22.7" y2="54.45"/>
    <line x1="22.7" y1="54.45" x2="25.875" y2="54.45"/>
    <line x1="25.875" y1="54.45" x2="25.875" y2="57.625"/>
    <line x1="25.875" y1="57.625" x2="29.05" y2="57.625"/>
    <line x1="29.05" y1="57.625" x2="29.05" y2="54.45"/>
    <line x1="29.05" y1="54.45" x2="32.2250000000001" y2="54.45"/>
    <line x1="32.2250000000001" y1="54.45" x2="32.225" y2="57.625"/>
    <line x1="32.225" y1="57.625" x2="35.4000000000001" y2="57.625"/>
    <line x1="35.4000000000001" y1="57.625" x2="35.4000000000001" y2="54.45"/>
    <line x1="35.4000000000001" y1="54.45" x2="38.575" y2="54.45"/>
    <line x1="38.575" y1="54.45" x2="38.5750000000001" y2="57.625"/>
    <line x1="38.5750000000001" y1="57.625" x2="41.7500000000001" y2="57.625"/>
    <line x1="41.7500000000001" y1="57.625" x2="41.7500000000001" y2="54.4500000000001"/>
    <line x1="41.7500000000001" y1="54.4500000000001" x2="44.9250000000001" y2="54.45"/>
    <line x1="44.9250000000001" y1="54.45" x2="44.9250000000001" y2="57.625"/>
    <line x1="44.9250000000001" y1="57.625" x2="48.1000000000001" y2="57.625"/>
    <line x1="48.1000000000001" y1="57.625" x2="48.1000000000001" y2="54.45"/>
    <line x1="48.1000000000001" y1="54.45" x2="51.2750000000001" y2="54.45"/>
    <line x1="51.2750000000001" y1="54.45" x2="51.2750000000001" y2="57.625"/>
    <line x1="51.2750000000001" y1="57.625" x2="54.4500000000001" y2="57.625"/>
    <line x1="54.4500000000001" y1="57.625" x2="54.4500000000001" y2="54.45"/>
    <line x1="54.4500000000001" y1="54.45" x2="57.6250000000001" y2="54.45"/>
    <line x1="57.6250000000001" y1="54.45" x2="57.6250000000001" y2="57.625"/>
    <line x1="57.6250000000001" y1="57.625" x2="60.8000000000001" y2="57.625"/>
    <line x1="60.8000000000001" y1="57.625" x2="60.8000000000001" y2="54.45"/>
    <line x1="60.8000000000001" y1="54.45" x2="63.9750000000001" y2="54.45"/>
    <line x1="63.9750000000001" y1="54.45" x2="63.9750000000001" y2="57.625"/>
    <line x1="63.9750000000001" y1="57.625" x2="67.1500000000001" y2="57.625"/>
    <line x1="67.1500000000001" y1="57.625" x2="67.1500000000001" y2="54.45"/>
    <line x1="67.1500000000001" y1="54.45" x2="70.3250000000001" y2="54.45"/>
    <line x1="70.3250000000001" y1="54.45" x2="70.3250000000001" y2="57.625"/>
    <line x1="70.3250000000001" y1="57.625" x2="73.5000000000001" y2="57.625"/>
    <line x1="73.5000000000001" y1="57.625" x2="73.5000000000001" y2="54.45"/>
    <line x1="73.5000000000001" y1="54.45" x2="76.6750000000001" y2="54.45"/>
    <line x1="76.6750000000001" y1="54.45" x2="76.6750000000001" y2="57.625"/>
    <line x1="76.6750000000001" y1="57.625" x2="79.8500000000002" y2="57.625"/>
    <line x1="79.8500000000002" y1="57.625" x2="79.8500000000001" y2="54.45"/>
    <line x1="79.8500000000001" y1="54.45" x2="83.0250000000001" y2="54.45"/>
    <line x1="83.0250000000001" y1="54.45" x2="83.0250000000001" y2="57.625"/>
    <line x1="83.0250000000001" y1="57.625" x2="86.2000000000001" y2="57.625"/>
    <line x1="86.2000000000001" y1="57.625" x2="86.2000000000001" y2="54.45"/>
    <line x1="86.2000000000001" y1="54.45" x2="89.3750000000001" y2="54.45"/>
    <line x1="89.3750000000001" y1="54.45" x2="89.3750000000001" y2="57.625"/>
    <line x1="89.3750000000001" y1="57.625" x2="92.5500000000002" y2="57.625"/>
    <line x1="92.5500000000002" y1="57.625" x2="92.5500000000002" y2="54.45"/>
    <line x1="92.5500000000002" y1="54.45" x2="95.7250000000002" y2="54.45"/>
    <line x1="95.7250000000002" y1="54.45" x2="95.7250000000002" y2="57.625"/>
    <line x1="95.7250000000002" y1="57.625" x2="98.9000000000002" y2="57.625"/>
    <line x1="98.9000000000002" y1="57.625" x2="98.9000000000002" y2="54.45"/>
    <line x1="98.9000000000002" y1="54.45" x2="102.075" y2="54.45"/>
    <line x1="102.075" y1="54.45" x2="102.075" y2="57.625"/>
    <line x1="102.075" y1="57.625" x2="105.25" y2="57.625"/>
    <line x1="105.25" y1="57.625" x2="108.425" y2="57.625"/>
    <line x1="108.425" y1="57.625" x2="108.425" y2="54.45"/>
    <line x1="108.425" y1="54.45" x2="111.6" y2="54.45"/>
    <line x1="111.6" y1="54.45" x2="111.6" y2="51.275"/>
    <line x1="111.6" y1="51.275" x2="108.425" y2="51.275"/>
    <line x1="108.425" y1="51.275" x2="108.425" y2="48.1"/>
    <line x1="108.425" y1="48.1" x2="111.6" y2="48.1"/>
    <line x1="111.6" y1="48.1" x2="111.6" y2="44.925"/>
    <line x1="111.6" y1="44.925" x2="108.425" y2="44.925"/>
    <line x1="108.425" y1="44.925" x2="108.425" y2="41.75"/>
    <line x1="108.425" y1="41.75" x2="111.6" y2="41.75"/>
    <line x1="111.6" y1="41.75" x2="111.6" y2="38.575"/>
    <line x1="111.6" y1="38.575" x2="108.425" y2="38.575"/>
    <line x1="108.425" y1="38.575" x2="108.425" y2="35.4"/>
    <line x1="108.425" y1="35.4" x2="111.6" y2="35.4"/>
    <line x1="111.6" y1="35.4" x2="111.6" y2="32.225"/>
    <line x1="111.6" y1="32.225" x2="108.425" y2="32.225"/>
    <line x1="108.425" y1="32.225" x2="108.425" y2="29.05"/>
    <line x1="108.425" y1="29.05" x2="111.6" y2="29.05"/>
    <line x1="111.6" y1="29.05" x2="111.6" y2="25.875"/>
    <line x1="111.6" y1="25.875" x2="108.425" y2="25.875"/>
    <line x1="108.425" y1="25.875" x2="108.425" y2="22.7"/>
    <line x1="108.425" y1="22.7" x2="111.6" y2="22.7"/>
    <line x1="111.6" y1="22.7" x2="111.6" y2="19.525"/>
    <line x1="111.6" y1="19.525" x2="108.425" y2="19.525"/>
  </g>
</svg>
