<?xml version="1.0" standalone="no"?>
<!DOCTYPE svg PUBLIC "-//W3C//DTD SVG 1.1//EN" "http://www.w3.org/Graphics/SVG/1.1/DTD/svg11.dtd">
<svg width="73.9750000000013mm" height="223.199999999999mm"
 viewBox="0 0 73.9750000000013 223.199999999999"
 xmlns="http://www.w3.org/2000/svg" version="1.1"
 xmlns:xlink="http://www.w3.org/1999/xlink">
<desc>Output from Flights of Ideas SVG Sketchup Plugin</desc>

  <g id="face0" fill="none" stroke="rgb(0,0,255)" stroke-width="1" stroke-miterlimit="4" stroke-dasharray="none" stroke-linejoin="round" stroke-linecap="round">
    <line x1="10.0000000000002" y1="206.85" x2="10.0000000000004" y2="210.025"/>
    <line x1="10.0000000000004" y1="210.025" x2="13.1750000000004" y2="210.025"/>
    <line x1="13.1750000000004" y1="210.025" x2="16.3499999999999" y2="210.024999999998"/>
    <line x1="16.3499999999999" y1="210.024999999998" x2="16.3499999999999" y2="213.199999999998"/>
    <line x1="16.3499999999999" y1="213.199999999998" x2="19.5249999999999" y2="213.199999999998"/>
    <line x1="19.5249999999999" y1="213.199999999998" x2="19.5249999999999" y2="210.024999999998"/>
    <line x1="19.5249999999999" y1="210.024999999998" x2="22.6999999999999" y2="210.024999999998"/>
    <line x1="22.6999999999999" y1="210.024999999998" x2="22.6999999999999" y2="213.199999999998"/>
    <line x1="22.6999999999999" y1="213.199999999998" x2="25.8749999999999" y2="213.199999999998"/>
    <line x1="25.8749999999999" y1="213.199999999998" x2="25.8749999999999" y2="210.024999999998"/>
    <line x1="25.8749999999999" y1="210.024999999998" x2="29.0499999999999" y2="210.024999999998"/>
    <line x1="29.0499999999999" y1="210.024999999998" x2="29.0499999999999" y2="213.199999999998"/>
    <line x1="29.0499999999999" y1="213.199999999998" x2="32.2249999999999" y2="213.199999999998"/>
    <line x1="32.2249999999999" y1="213.199999999998" x2="32.2249999999999" y2="210.024999999998"/>
    <line x1="32.2249999999999" y1="210.024999999998" x2="35.3999999999999" y2="210.024999999998"/>
    <line x1="35.3999999999999" y1="210.024999999998" x2="35.3999999999999" y2="213.199999999998"/>
    <line x1="35.3999999999999" y1="213.199999999998" x2="38.5749999999999" y2="213.199999999998"/>
    <line x1="38.5749999999999" y1="213.199999999998" x2="38.5749999999999" y2="210.024999999998"/>
    <line x1="38.5749999999999" y1="210.024999999998" x2="41.7499999999999" y2="210.024999999998"/>
    <line x1="41.7499999999999" y1="210.024999999998" x2="41.75" y2="213.199999999998"/>
    <line x1="41.75" y1="213.199999999998" x2="44.925" y2="213.199999999998"/>
    <line x1="44.925" y1="213.199999999998" x2="44.9249999999999" y2="210.024999999998"/>
    <line x1="44.9249999999999" y1="210.024999999998" x2="48.0999999999999" y2="210.024999999998"/>
    <line x1="48.0999999999999" y1="210.024999999998" x2="48.1" y2="213.199999999998"/>
    <line x1="48.1" y1="213.199999999998" x2="51.275" y2="213.199999999998"/>
    <line x1="51.275" y1="213.199999999998" x2="51.2749999999999" y2="210.024999999998"/>
    <line x1="51.2749999999999" y1="210.024999999998" x2="54.4499999999999" y2="210.024999999999"/>
    <line x1="54.4499999999999" y1="210.024999999999" x2="54.4500000000006" y2="213.199999999999"/>
    <line x1="54.4500000000006" y1="213.199999999999" x2="57.6250000000006" y2="213.199999999998"/>
    <line x1="57.6250000000006" y1="213.199999999998" x2="57.6249999999999" y2="210.024999999998"/>
    <line x1="57.6249999999999" y1="210.024999999998" x2="63.9750000000006" y2="210.025"/>
    <line x1="63.9750000000006" y1="210.025" x2="63.9750000000013" y2="206.85"/>
    <line x1="63.9750000000013" y1="206.85" x2="60.8000000000013" y2="206.85"/>
    <line x1="60.8000000000013" y1="206.85" x2="60.8000000000013" y2="203.675"/>
    <line x1="60.8000000000013" y1="203.675" x2="63.9750000000013" y2="203.675"/>
    <line x1="63.9750000000013" y1="203.675" x2="63.9750000000013" y2="200.5"/>
    <line x1="63.9750000000013" y1="200.5" x2="60.8000000000013" y2="200.5"/>
    <line x1="60.8000000000013" y1="200.5" x2="60.8000000000013" y2="197.325"/>
    <line x1="60.8000000000013" y1="197.325" x2="63.9750000000013" y2="197.325"/>
    <line x1="63.9750000000013" y1="197.325" x2="63.9750000000013" y2="194.15"/>
    <line x1="63.9750000000013" y1="194.15" x2="60.8000000000013" y2="194.15"/>
    <line x1="60.8000000000013" y1="194.15" x2="60.8000000000013" y2="190.975"/>
    <line x1="60.8000000000013" y1="190.975" x2="63.9750000000013" y2="190.975"/>
    <line x1="63.9750000000013" y1="190.975" x2="63.9750000000013" y2="187.8"/>
    <line x1="63.9750000000013" y1="187.8" x2="60.8000000000013" y2="187.8"/>
    <line x1="60.8000000000013" y1="187.8" x2="60.8000000000013" y2="184.625"/>
    <line x1="60.8000000000013" y1="184.625" x2="63.9750000000013" y2="184.625"/>
    <line x1="63.9750000000013" y1="184.625" x2="63.9750000000013" y2="181.45"/>
    <line x1="63.9750000000013" y1="181.45" x2="60.8000000000013" y2="181.45"/>
    <line x1="60.8000000000013" y1="181.45" x2="60.8000000000013" y2="178.275"/>
    <line x1="60.8000000000013" y1="178.275" x2="63.9750000000013" y2="178.275"/>
    <line x1="63.9750000000013" y1="178.275" x2="63.9750000000013" y2="175.1"/>
    <line x1="63.9750000000013" y1="175.1" x2="60.8000000000013" y2="175.1"/>
    <line x1="60.8000000000013" y1="175.1" x2="60.8000000000013" y2="171.925"/>
    <line x1="60.8000000000013" y1="171.925" x2="63.9750000000013" y2="171.925"/>
    <line x1="63.9750000000013" y1="171.925" x2="63.9750000000013" y2="168.75"/>
    <line x1="63.9750000000013" y1="168.75" x2="60.8000000000013" y2="168.75"/>
    <line x1="60.8000000000013" y1="168.75" x2="60.8000000000013" y2="165.575"/>
    <line x1="60.8000000000013" y1="165.575" x2="63.9750000000013" y2="165.575"/>
    <line x1="63.9750000000013" y1="165.575" x2="63.9750000000013" y2="162.4"/>
    <line x1="63.9750000000013" y1="162.4" x2="60.8000000000013" y2="162.4"/>
    <line x1="60.8000000000013" y1="162.4" x2="60.8000000000013" y2="159.225"/>
    <line x1="60.8000000000013" y1="159.225" x2="63.9750000000013" y2="159.225"/>
    <line x1="63.9750000000013" y1="159.225" x2="63.9750000000013" y2="156.05"/>
    <line x1="63.9750000000013" y1="156.05" x2="60.8000000000013" y2="156.05"/>
    <line x1="60.8000000000013" y1="156.05" x2="60.8000000000013" y2="152.875"/>
    <line x1="60.8000000000013" y1="152.875" x2="63.9750000000013" y2="152.875"/>
    <line x1="63.9750000000013" y1="152.875" x2="63.9750000000013" y2="149.7"/>
    <line x1="63.9750000000013" y1="149.7" x2="60.8000000000013" y2="149.7"/>
    <line x1="60.8000000000013" y1="149.7" x2="60.8000000000013" y2="146.525"/>
    <line x1="60.8000000000013" y1="146.525" x2="63.9750000000013" y2="146.525"/>
    <line x1="63.9750000000013" y1="146.525" x2="63.9750000000013" y2="143.35"/>
    <line x1="63.9750000000013" y1="143.35" x2="60.8000000000013" y2="143.35"/>
    <line x1="60.8000000000013" y1="143.35" x2="60.8000000000013" y2="140.175"/>
    <line x1="60.8000000000013" y1="140.175" x2="63.9750000000013" y2="140.175"/>
    <line x1="63.9750000000013" y1="140.175" x2="63.9750000000013" y2="137.0"/>
    <line x1="63.9750000000013" y1="137.0" x2="60.8000000000013" y2="137.0"/>
    <line x1="60.8000000000013" y1="137.0" x2="60.8000000000013" y2="133.825"/>
    <line x1="60.8000000000013" y1="133.825" x2="63.9750000000013" y2="133.825"/>
    <line x1="63.9750000000013" y1="133.825" x2="63.9750000000013" y2="130.65"/>
    <line x1="63.9750000000013" y1="130.65" x2="60.8000000000013" y2="130.65"/>
    <line x1="60.8000000000013" y1="130.65" x2="60.8000000000013" y2="127.475"/>
    <line x1="60.8000000000013" y1="127.475" x2="63.9750000000013" y2="127.475"/>
    <line x1="63.9750000000013" y1="127.475" x2="63.9750000000013" y2="124.3"/>
    <line x1="63.9750000000013" y1="124.3" x2="60.8000000000013" y2="124.3"/>
    <line x1="60.8000000000013" y1="124.3" x2="60.8000000000013" y2="121.125"/>
    <line x1="60.8000000000013" y1="121.125" x2="63.9750000000013" y2="121.125"/>
    <line x1="63.9750000000013" y1="121.125" x2="63.9750000000013" y2="117.95"/>
    <line x1="63.9750000000013" y1="117.95" x2="60.8000000000013" y2="117.95"/>
    <line x1="60.8000000000013" y1="117.95" x2="60.8000000000013" y2="114.775"/>
    <line x1="60.8000000000013" y1="114.775" x2="63.9750000000013" y2="114.775"/>
    <line x1="63.9750000000013" y1="114.775" x2="63.9750000000013" y2="111.6"/>
    <line x1="63.9750000000013" y1="111.6" x2="60.8000000000013" y2="111.6"/>
    <line x1="60.8000000000013" y1="111.6" x2="60.8000000000013" y2="108.425"/>
    <line x1="60.8000000000013" y1="108.425" x2="63.9750000000013" y2="108.425"/>
    <line x1="63.9750000000013" y1="108.425" x2="63.9750000000013" y2="105.25"/>
    <line x1="63.9750000000013" y1="105.25" x2="60.8000000000013" y2="105.25"/>
    <line x1="60.8000000000013" y1="105.25" x2="60.8000000000013" y2="102.075"/>
    <line x1="60.8000000000013" y1="102.075" x2="63.9750000000013" y2="102.075"/>
    <line x1="63.9750000000013" y1="102.075" x2="63.9750000000013" y2="98.8999999999999"/>
    <line x1="63.9750000000013" y1="98.8999999999999" x2="60.8000000000013" y2="98.8999999999999"/>
    <line x1="60.8000000000013" y1="98.8999999999999" x2="60.8000000000013" y2="95.7249999999999"/>
    <line x1="60.8000000000013" y1="95.7249999999999" x2="63.9750000000013" y2="95.7249999999999"/>
    <line x1="63.9750000000013" y1="95.7249999999999" x2="63.9750000000013" y2="92.5499999999999"/>
    <line x1="63.9750000000013" y1="92.5499999999999" x2="60.8000000000013" y2="92.5499999999999"/>
    <line x1="60.8000000000013" y1="92.5499999999999" x2="60.8000000000013" y2="89.3749999999999"/>
    <line x1="60.8000000000013" y1="89.3749999999999" x2="63.9750000000013" y2="89.3749999999999"/>
    <line x1="63.9750000000013" y1="89.3749999999999" x2="63.9750000000013" y2="86.1999999999999"/>
    <line x1="63.9750000000013" y1="86.1999999999999" x2="60.8000000000013" y2="86.1999999999999"/>
    <line x1="60.8000000000013" y1="86.1999999999999" x2="60.8000000000013" y2="83.0249999999999"/>
    <line x1="60.8000000000013" y1="83.0249999999999" x2="63.9750000000013" y2="83.0249999999999"/>
    <line x1="63.9750000000013" y1="83.0249999999999" x2="63.9750000000013" y2="79.8499999999999"/>
    <line x1="63.9750000000013" y1="79.8499999999999" x2="60.8000000000013" y2="79.8499999999999"/>
    <line x1="60.8000000000013" y1="79.8499999999999" x2="60.8000000000013" y2="76.6749999999999"/>
    <line x1="60.8000000000013" y1="76.6749999999999" x2="63.9750000000013" y2="76.6749999999999"/>
    <line x1="63.9750000000013" y1="76.6749999999999" x2="63.9750000000013" y2="73.4999999999999"/>
    <line x1="63.9750000000013" y1="73.4999999999999" x2="60.8000000000013" y2="73.4999999999999"/>
    <line x1="60.8000000000013" y1="73.4999999999999" x2="60.8000000000013" y2="70.3249999999999"/>
    <line x1="60.8000000000013" y1="70.3249999999999" x2="63.9750000000013" y2="70.3249999999999"/>
    <line x1="63.9750000000013" y1="70.3249999999999" x2="63.9750000000013" y2="67.1499999999999"/>
    <line x1="63.9750000000013" y1="67.1499999999999" x2="60.8000000000013" y2="67.1499999999999"/>
    <line x1="60.8000000000013" y1="67.1499999999999" x2="60.8000000000013" y2="63.9749999999999"/>
    <line x1="60.8000000000013" y1="63.9749999999999" x2="63.9750000000013" y2="63.9749999999999"/>
    <line x1="63.9750000000013" y1="63.9749999999999" x2="63.9750000000013" y2="60.7999999999999"/>
    <line x1="63.9750000000013" y1="60.7999999999999" x2="60.8000000000013" y2="60.7999999999999"/>
    <line x1="60.8000000000013" y1="60.7999999999999" x2="60.8000000000013" y2="57.6249999999999"/>
    <line x1="60.8000000000013" y1="57.6249999999999" x2="63.9750000000013" y2="57.6249999999999"/>
    <line x1="63.9750000000013" y1="57.6249999999999" x2="63.9750000000013" y2="54.4499999999999"/>
    <line x1="63.9750000000013" y1="54.4499999999999" x2="60.8000000000013" y2="54.4499999999999"/>
    <line x1="60.8000000000013" y1="54.4499999999999" x2="60.8000000000013" y2="51.2749999999999"/>
    <line x1="60.8000000000013" y1="51.2749999999999" x2="63.9750000000013" y2="51.2749999999999"/>
    <line x1="63.9750000000013" y1="51.2749999999999" x2="63.9750000000013" y2="48.0999999999999"/>
    <line x1="63.9750000000013" y1="48.0999999999999" x2="60.8000000000013" y2="48.0999999999999"/>
    <line x1="60.8000000000013" y1="48.0999999999999" x2="60.8000000000013" y2="44.9249999999999"/>
    <line x1="60.8000000000013" y1="44.9249999999999" x2="63.9750000000013" y2="44.9249999999999"/>
    <line x1="63.9750000000013" y1="44.9249999999999" x2="63.9750000000013" y2="41.7499999999999"/>
    <line x1="63.9750000000013" y1="41.7499999999999" x2="60.8000000000013" y2="41.7499999999999"/>
    <line x1="60.8000000000013" y1="41.7499999999999" x2="60.8000000000013" y2="38.5749999999999"/>
    <line x1="60.8000000000013" y1="38.5749999999999" x2="63.9750000000013" y2="38.5749999999999"/>
    <line x1="63.9750000000013" y1="38.5749999999999" x2="63.9750000000013" y2="35.3999999999999"/>
    <line x1="63.9750000000013" y1="35.3999999999999" x2="60.8000000000013" y2="35.3999999999999"/>
    <line x1="60.8000000000013" y1="35.3999999999999" x2="60.8000000000013" y2="32.2249999999999"/>
    <line x1="60.8000000000013" y1="32.2249999999999" x2="63.9750000000013" y2="32.2249999999999"/>
    <line x1="63.9750000000013" y1="32.2249999999999" x2="63.9750000000013" y2="29.0499999999999"/>
    <line x1="63.9750000000013" y1="29.0499999999999" x2="60.8000000000013" y2="29.0499999999999"/>
    <line x1="60.8000000000013" y1="29.0499999999999" x2="60.8000000000013" y2="25.8749999999999"/>
    <line x1="60.8000000000013" y1="25.8749999999999" x2="63.9750000000013" y2="25.8749999999999"/>
    <line x1="63.9750000000013" y1="25.8749999999999" x2="63.9750000000013" y2="22.6999999999999"/>
    <line x1="63.9750000000013" y1="22.6999999999999" x2="60.8000000000013" y2="22.6999999999999"/>
    <line x1="60.8000000000013" y1="22.6999999999999" x2="60.8000000000014" y2="19.5249999999999"/>
    <line x1="60.8000000000014" y1="19.5249999999999" x2="63.9750000000013" y2="19.5249999999999"/>
    <line x1="63.9750000000013" y1="19.5249999999999" x2="63.9750000000013" y2="16.3499999999999"/>
    <line x1="63.9750000000013" y1="16.3499999999999" x2="60.8000000000013" y2="16.3499999999999"/>
    <line x1="60.8000000000013" y1="16.3499999999999" x2="60.8000000000013" y2="13.1749999999999"/>
    <line x1="60.8000000000013" y1="13.1749999999999" x2="57.6250000000013" y2="13.175"/>
    <line x1="57.6250000000013" y1="13.175" x2="57.6250000000012" y2="10.0"/>
    <line x1="57.6250000000012" y1="10.0" x2="54.4500000000012" y2="10.0000000000001"/>
    <line x1="54.4500000000012" y1="10.0000000000001" x2="54.4500000000013" y2="13.1750000000001"/>
    <line x1="54.4500000000013" y1="13.1750000000001" x2="51.2750000000013" y2="13.1750000000002"/>
    <line x1="51.2750000000013" y1="13.1750000000002" x2="51.2750000000012" y2="10.0000000000002"/>
    <line x1="51.2750000000012" y1="10.0000000000002" x2="48.1000000000012" y2="10.0000000000003"/>
    <line x1="48.1000000000012" y1="10.0000000000003" x2="48.1000000000013" y2="13.1750000000003"/>
    <line x1="48.1000000000013" y1="13.1750000000003" x2="44.9250000000013" y2="13.1750000000004"/>
    <line x1="44.9250000000013" y1="13.1750000000004" x2="44.9250000000012" y2="10.0000000000004"/>
    <line x1="44.9250000000012" y1="10.0000000000004" x2="41.7500000000012" y2="10.0000000000005"/>
    <line x1="41.7500000000012" y1="10.0000000000005" x2="41.7500000000013" y2="13.1750000000005"/>
    <line x1="41.7500000000013" y1="13.1750000000005" x2="38.5750000000013" y2="13.1750000000006"/>
    <line x1="38.5750000000013" y1="13.1750000000006" x2="38.5750000000012" y2="10.0000000000006"/>
    <line x1="38.5750000000012" y1="10.0000000000006" x2="35.4000000000012" y2="10.0000000000007"/>
    <line x1="35.4000000000012" y1="10.0000000000007" x2="35.4000000000013" y2="13.1750000000007"/>
    <line x1="35.4000000000013" y1="13.1750000000007" x2="32.2250000000013" y2="13.1750000000008"/>
    <line x1="32.2250000000013" y1="13.1750000000008" x2="32.2250000000012" y2="10.0000000000008"/>
    <line x1="32.2250000000012" y1="10.0000000000008" x2="29.0500000000012" y2="10.0000000000009"/>
    <line x1="29.0500000000012" y1="10.0000000000009" x2="29.0500000000013" y2="13.1750000000009"/>
    <line x1="29.0500000000013" y1="13.1750000000009" x2="25.8750000000013" y2="13.175000000001"/>
    <line x1="25.8750000000013" y1="13.175000000001" x2="25.8750000000012" y2="10.000000000001"/>
    <line x1="25.8750000000012" y1="10.000000000001" x2="22.7000000000012" y2="10.0000000000011"/>
    <line x1="22.7000000000012" y1="10.0000000000011" x2="22.7000000000013" y2="13.1750000000011"/>
    <line x1="22.7000000000013" y1="13.1750000000011" x2="19.5250000000013" y2="13.1750000000012"/>
    <line x1="19.5250000000013" y1="13.1750000000012" x2="19.5250000000012" y2="10.0000000000012"/>
    <line x1="19.5250000000012" y1="10.0000000000012" x2="16.3500000000012" y2="10.0000000000013"/>
    <line x1="16.3500000000012" y1="10.0000000000013" x2="16.3500000000013" y2="13.1750000000013"/>
    <line x1="16.3500000000013" y1="13.1750000000013" x2="13.1750000000004" y2="13.1749999999999"/>
    <line x1="13.1750000000004" y1="13.1749999999999" x2="13.1750000000002" y2="16.35"/>
    <line x1="13.1750000000002" y1="16.35" x2="10.0000000000004" y2="16.3500000000003"/>
    <line x1="10.0000000000004" y1="16.3500000000003" x2="10.0000000000004" y2="19.5249999999996"/>
    <line x1="10.0000000000004" y1="19.5249999999996" x2="13.1750000000004" y2="19.5249999999999"/>
    <line x1="13.1750000000004" y1="19.5249999999999" x2="13.1750000000002" y2="22.7000000000001"/>
    <line x1="13.1750000000002" y1="22.7000000000001" x2="10.0000000000004" y2="22.6999999999999"/>
    <line x1="10.0000000000004" y1="22.6999999999999" x2="10.0000000000001" y2="25.8750000000001"/>
    <line x1="10.0000000000001" y1="25.8750000000001" x2="13.1750000000003" y2="25.8749999999999"/>
    <line x1="13.1750000000003" y1="25.8749999999999" x2="13.1750000000003" y2="29.0499999999998"/>
    <line x1="13.1750000000003" y1="29.0499999999998" x2="10.0000000000002" y2="29.0500000000001"/>
    <line x1="10.0000000000002" y1="29.0500000000001" x2="10.0000000000004" y2="32.2249999999998"/>
    <line x1="10.0000000000004" y1="32.2249999999998" x2="13.1750000000003" y2="32.2250000000003"/>
    <line x1="13.1750000000003" y1="32.2250000000003" x2="13.1750000000005" y2="35.4000000000001"/>
    <line x1="13.1750000000005" y1="35.4000000000001" x2="10.0000000000005" y2="35.3999999999994"/>
    <line x1="10.0000000000005" y1="35.3999999999994" x2="10.0000000000002" y2="38.5749999999999"/>
    <line x1="10.0000000000002" y1="38.5749999999999" x2="13.1750000000003" y2="38.5749999999999"/>
    <line x1="13.1750000000003" y1="38.5749999999999" x2="13.1750000000004" y2="41.7499999999999"/>
    <line x1="13.1750000000004" y1="41.7499999999999" x2="10.0000000000004" y2="41.7500000000001"/>
    <line x1="10.0000000000004" y1="41.7500000000001" x2="10.0000000000004" y2="44.9249999999996"/>
    <line x1="10.0000000000004" y1="44.9249999999996" x2="13.1750000000002" y2="44.9249999999999"/>
    <line x1="13.1750000000002" y1="44.9249999999999" x2="13.1750000000004" y2="48.0999999999999"/>
    <line x1="13.1750000000004" y1="48.0999999999999" x2="10.0" y2="48.1000000000001"/>
    <line x1="10.0" y1="48.1000000000001" x2="10.0000000000005" y2="51.2749999999999"/>
    <line x1="10.0000000000005" y1="51.2749999999999" x2="13.1750000000003" y2="51.2749999999996"/>
    <line x1="13.1750000000003" y1="51.2749999999996" x2="13.1750000000003" y2="54.4500000000001"/>
    <line x1="13.1750000000003" y1="54.4500000000001" x2="10.0000000000001" y2="54.4500000000001"/>
    <line x1="10.0000000000001" y1="54.4500000000001" x2="10.0000000000004" y2="57.6249999999999"/>
    <line x1="10.0000000000004" y1="57.6249999999999" x2="13.1750000000003" y2="57.6250000000001"/>
    <line x1="13.1750000000003" y1="57.6250000000001" x2="13.1750000000003" y2="60.7999999999999"/>
    <line x1="13.1750000000003" y1="60.7999999999999" x2="10.0000000000004" y2="60.7999999999999"/>
    <line x1="10.0000000000004" y1="60.7999999999999" x2="10.0000000000004" y2="63.9749999999999"/>
    <line x1="10.0000000000004" y1="63.9749999999999" x2="13.1750000000005" y2="63.9750000000003"/>
    <line x1="13.1750000000005" y1="63.9750000000003" x2="13.1750000000005" y2="67.1499999999999"/>
    <line x1="13.1750000000005" y1="67.1499999999999" x2="10.0000000000007" y2="67.1499999999999"/>
    <line x1="10.0000000000007" y1="67.1499999999999" x2="10.0000000000004" y2="70.3249999999997"/>
    <line x1="10.0000000000004" y1="70.3249999999997" x2="13.1750000000002" y2="70.3249999999995"/>
    <line x1="13.1750000000002" y1="70.3249999999995" x2="13.1750000000003" y2="73.4999999999997"/>
    <line x1="13.1750000000003" y1="73.4999999999997" x2="10.0000000000005" y2="73.5000000000001"/>
    <line x1="10.0000000000005" y1="73.5000000000001" x2="10.0000000000006" y2="76.6749999999994"/>
    <line x1="10.0000000000006" y1="76.6749999999994" x2="13.1750000000005" y2="76.6749999999997"/>
    <line x1="13.1750000000005" y1="76.6749999999997" x2="13.1750000000003" y2="79.8499999999999"/>
    <line x1="13.1750000000003" y1="79.8499999999999" x2="10.0000000000005" y2="79.8499999999997"/>
    <line x1="10.0000000000005" y1="79.8499999999997" x2="10.0000000000002" y2="83.0249999999999"/>
    <line x1="10.0000000000002" y1="83.0249999999999" x2="13.1750000000005" y2="83.0249999999997"/>
    <line x1="13.1750000000005" y1="83.0249999999997" x2="13.1750000000005" y2="86.1999999999995"/>
    <line x1="13.1750000000005" y1="86.1999999999995" x2="10.0000000000004" y2="86.1999999999999"/>
    <line x1="10.0000000000004" y1="86.1999999999999" x2="10.0000000000005" y2="89.3749999999995"/>
    <line x1="10.0000000000005" y1="89.3749999999995" x2="13.1750000000005" y2="89.3750000000001"/>
    <line x1="13.1750000000005" y1="89.3750000000001" x2="13.1750000000007" y2="92.5499999999999"/>
    <line x1="13.1750000000007" y1="92.5499999999999" x2="10.0000000000007" y2="92.5499999999992"/>
    <line x1="10.0000000000007" y1="92.5499999999992" x2="10.0000000000004" y2="95.7249999999997"/>
    <line x1="10.0000000000004" y1="95.7249999999997" x2="13.1750000000005" y2="95.7249999999997"/>
    <line x1="13.1750000000005" y1="95.7249999999997" x2="13.1750000000006" y2="98.8999999999997"/>
    <line x1="13.1750000000006" y1="98.8999999999997" x2="10.0000000000005" y2="98.8999999999999"/>
    <line x1="10.0000000000005" y1="98.8999999999999" x2="10.0000000000005" y2="102.074999999999"/>
    <line x1="10.0000000000005" y1="102.074999999999" x2="13.1750000000004" y2="102.075"/>
    <line x1="13.1750000000004" y1="102.075" x2="13.1750000000005" y2="105.25"/>
    <line x1="13.1750000000005" y1="105.25" x2="10.0000000000002" y2="105.25"/>
    <line x1="10.0000000000002" y1="105.25" x2="10.0000000000007" y2="108.425"/>
    <line x1="10.0000000000007" y1="108.425" x2="13.1750000000005" y2="108.424999999999"/>
    <line x1="13.1750000000005" y1="108.424999999999" x2="13.1750000000005" y2="111.6"/>
    <line x1="13.1750000000005" y1="111.6" x2="10.0000000000004" y2="111.6"/>
    <line x1="10.0000000000004" y1="111.6" x2="10.0000000000005" y2="114.775"/>
    <line x1="10.0000000000005" y1="114.775" x2="13.1750000000005" y2="114.775"/>
    <line x1="13.1750000000005" y1="114.775" x2="13.1750000000005" y2="117.95"/>
    <line x1="13.1750000000005" y1="117.95" x2="10.0000000000005" y2="117.95"/>
    <line x1="10.0000000000005" y1="117.95" x2="10.0000000000007" y2="121.125"/>
    <line x1="10.0000000000007" y1="121.125" x2="13.1750000000003" y2="121.124999999999"/>
    <line x1="13.1750000000003" y1="121.124999999999" x2="13.1750000000005" y2="124.3"/>
    <line x1="13.1750000000005" y1="124.3" x2="10.0000000000007" y2="124.3"/>
    <line x1="10.0000000000007" y1="124.3" x2="10.0000000000004" y2="127.475"/>
    <line x1="10.0000000000004" y1="127.475" x2="13.1750000000006" y2="127.475"/>
    <line x1="13.1750000000006" y1="127.475" x2="13.1750000000006" y2="130.65"/>
    <line x1="13.1750000000006" y1="130.65" x2="10.0000000000008" y2="130.649999999999"/>
    <line x1="10.0000000000008" y1="130.649999999999" x2="10.0000000000009" y2="133.825"/>
    <line x1="10.0000000000009" y1="133.825" x2="13.1750000000005" y2="133.825"/>
    <line x1="13.1750000000005" y1="133.825" x2="13.1750000000003" y2="137.0"/>
    <line x1="13.1750000000003" y1="137.0" x2="10.0000000000006" y2="136.999999999999"/>
    <line x1="10.0000000000006" y1="136.999999999999" x2="10.0000000000007" y2="140.174999999999"/>
    <line x1="10.0000000000007" y1="140.174999999999" x2="13.1750000000002" y2="140.175"/>
    <line x1="13.1750000000002" y1="140.175" x2="13.1750000000005" y2="143.35"/>
    <line x1="13.1750000000005" y1="143.35" x2="10.0000000000005" y2="143.35"/>
    <line x1="10.0000000000005" y1="143.35" x2="10.0000000000004" y2="146.525"/>
    <line x1="10.0000000000004" y1="146.525" x2="13.1750000000004" y2="146.525"/>
    <line x1="13.1750000000004" y1="146.525" x2="13.1750000000004" y2="149.7"/>
    <line x1="13.1750000000004" y1="149.7" x2="10.0000000000007" y2="149.7"/>
    <line x1="10.0000000000007" y1="149.7" x2="10.0000000000005" y2="152.875"/>
    <line x1="10.0000000000005" y1="152.875" x2="13.1750000000005" y2="152.875"/>
    <line x1="13.1750000000005" y1="152.875" x2="13.1750000000003" y2="156.05"/>
    <line x1="13.1750000000003" y1="156.05" x2="10.0000000000005" y2="156.05"/>
    <line x1="10.0000000000005" y1="156.05" x2="10.0000000000004" y2="159.225"/>
    <line x1="10.0000000000004" y1="159.225" x2="13.1750000000003" y2="159.225"/>
    <line x1="13.1750000000003" y1="159.225" x2="13.1750000000007" y2="162.4"/>
    <line x1="13.1750000000007" y1="162.4" x2="10.0000000000007" y2="162.4"/>
    <line x1="10.0000000000007" y1="162.4" x2="10.0000000000005" y2="165.575"/>
    <line x1="10.0000000000005" y1="165.575" x2="13.1750000000003" y2="165.575"/>
    <line x1="13.1750000000003" y1="165.575" x2="13.1750000000002" y2="168.75"/>
    <line x1="13.1750000000002" y1="168.75" x2="10.0000000000004" y2="168.75"/>
    <line x1="10.0000000000004" y1="168.75" x2="10.0000000000004" y2="171.925"/>
    <line x1="10.0000000000004" y1="171.925" x2="13.1750000000005" y2="171.924999999999"/>
    <line x1="13.1750000000005" y1="171.924999999999" x2="13.1750000000004" y2="175.099999999999"/>
    <line x1="13.1750000000004" y1="175.099999999999" x2="10.0000000000005" y2="175.1"/>
    <line x1="10.0000000000005" y1="175.1" x2="10.0000000000004" y2="178.275"/>
    <line x1="10.0000000000004" y1="178.275" x2="13.1750000000007" y2="178.275"/>
    <line x1="13.1750000000007" y1="178.275" x2="13.1750000000002" y2="181.45"/>
    <line x1="13.1750000000002" y1="181.45" x2="10.0000000000005" y2="181.449999999999"/>
    <line x1="10.0000000000005" y1="181.449999999999" x2="10.0000000000001" y2="184.625"/>
    <line x1="10.0000000000001" y1="184.625" x2="13.1750000000002" y2="184.625"/>
    <line x1="13.1750000000002" y1="184.625" x2="13.1750000000005" y2="187.8"/>
    <line x1="13.1750000000005" y1="187.8" x2="10.0000000000006" y2="187.8"/>
    <line x1="10.0000000000006" y1="187.8" x2="10.0000000000006" y2="190.975"/>
    <line x1="10.0000000000006" y1="190.975" x2="13.1750000000005" y2="190.975"/>
    <line x1="13.1750000000005" y1="190.975" x2="13.1750000000007" y2="194.149999999999"/>
    <line x1="13.1750000000007" y1="194.149999999999" x2="10.0000000000006" y2="194.15"/>
    <line x1="10.0000000000006" y1="194.15" x2="10.0000000000009" y2="197.325"/>
    <line x1="10.0000000000009" y1="197.325" x2="13.1750000000005" y2="197.325"/>
    <line x1="13.1750000000005" y1="197.325" x2="13.1750000000002" y2="200.5"/>
    <line x1="13.1750000000002" y1="200.5" x2="10.0000000000005" y2="200.5"/>
    <line x1="10.0000000000005" y1="200.5" x2="10.0000000000005" y2="203.675"/>
    <line x1="10.0000000000005" y1="203.675" x2="13.1750000000005" y2="203.675"/>
    <line x1="13.1750000000005" y1="203.675" x2="13.1750000000002" y2="206.85"/>
    <line x1="13.1750000000002" y1="206.85" x2="10.0000000000002" y2="206.85"/>
    <line x1="16.3500000000028" y1="51.2750000000493" x2="16.3500000000028" y2="48.1000000000493"/>
    <line x1="16.3500000000028" y1="48.1000000000493" x2="41.7500000000028" y2="48.1000000000493"/>
    <line x1="41.7500000000028" y1="48.1000000000493" x2="41.7500000000028" y2="51.2750000000493"/>
    <line x1="41.7500000000028" y1="51.2750000000493" x2="16.3500000000028" y2="51.2750000000493"/>
    <line x1="16.3500000000028" y1="174.936123378331" x2="16.3500000000028" y2="171.761123378331"/>
    <line x1="16.3500000000028" y1="171.761123378331" x2="41.7500000000028" y2="171.761123378331"/>
    <line x1="41.7500000000028" y1="171.761123378331" x2="41.7500000000028" y2="174.936123378331"/>
    <line x1="41.7500000000028" y1="174.936123378331" x2="16.3500000000028" y2="174.936123378331"/>
    <line x1="32.2250000000011" y1="38.575" x2="57.6250000000011" y2="38.575"/>
    <line x1="57.6250000000011" y1="38.575" x2="57.6250000000011" y2="41.75"/>
    <line x1="57.6250000000011" y1="41.75" x2="32.2250000000011" y2="41.75"/>
    <line x1="32.2250000000011" y1="41.75" x2="32.2250000000011" y2="38.575"/>
    <line x1="57.6250000000011" y1="165.575" x2="32.2250000000011" y2="165.575"/>
    <line x1="32.2250000000011" y1="165.575" x2="32.2250000000011" y2="162.4"/>
    <line x1="32.2250000000011" y1="162.4" x2="57.6250000000011" y2="162.4"/>
    <line x1="57.6250000000011" y1="162.4" x2="57.6250000000011" y2="165.575"/>
  </g>
</svg>
