<?xml version="1.0" standalone="no"?>
<!DOCTYPE svg PUBLIC "-//W3C//DTD SVG 1.1//EN" "http://www.w3.org/Graphics/SVG/1.1/DTD/svg11.dtd">
<svg width="89.85mm" height="154.14488712383mm"
 viewBox="0 0 89.85 154.14488712383"
 xmlns="http://www.w3.org/2000/svg" version="1.1"
 xmlns:xlink="http://www.w3.org/1999/xlink">
<desc>Output from Flights of Ideas SVG Sketchup Plugin</desc>

  <g id="face0" fill="none" stroke="rgb(0,0,255)" stroke-width="1" stroke-miterlimit="4" stroke-dasharray="none" stroke-linejoin="round" stroke-linecap="round">
    <line x1="29.05" y1="38.5244203249676" x2="29.05" y2="76.9948871238295"/>
    <line x1="29.05" y1="76.9948871238295" x2="10.0" y2="76.9948871238295"/>
    <line x1="10.0" y1="76.9948871238295" x2="10.0" y2="89.6948871238295"/>
    <line x1="10.0" y1="89.6948871238295" x2="19.525" y2="89.6948871238295"/>
    <line x1="19.525" y1="89.6948871238295" x2="19.525" y2="92.8698871238295"/>
    <line x1="19.525" y1="92.8698871238295" x2="10.0" y2="92.8698871238295"/>
    <line x1="10.0" y1="92.8698871238295" x2="10.0" y2="105.56988712383"/>
    <line x1="10.0" y1="105.56988712383" x2="79.85" y2="105.569887123829"/>
    <line x1="79.85" y1="105.569887123829" x2="79.85" y2="10.0"/>
    <line x1="79.85" y1="10.0" x2="67.15" y2="10.0"/>
    <line x1="67.15" y1="10.0" x2="67.15" y2="19.525"/>
    <line x1="67.15" y1="19.525" x2="73.5" y2="19.525"/>
    <line x1="73.5" y1="19.525" x2="73.5" y2="38.5750000000009"/>
    <line x1="73.5" y1="38.5750000000009" x2="60.8" y2="38.5750000000022"/>
    <line x1="60.8" y1="38.5750000000022" x2="60.8" y2="10.0"/>
    <line x1="60.8" y1="10.0" x2="35.4" y2="10.0"/>
    <line x1="35.4" y1="10.0" x2="35.4" y2="19.4744203249676"/>
    <line x1="35.4" y1="19.4744203249676" x2="38.5750000000001" y2="19.4997101624838"/>
    <line x1="38.5750000000001" y1="19.4997101624838" x2="41.75" y2="19.4744203249676"/>
    <line x1="41.75" y1="19.4744203249676" x2="41.75" y2="19.525"/>
    <line x1="41.75" y1="19.525" x2="41.75" y2="38.5244203249676"/>
    <line x1="41.75" y1="38.5244203249676" x2="29.05" y2="38.5244203249676"/>
  </g>
  <g id="face1" fill="none" stroke="rgb(0,0,255)" stroke-width="1" stroke-miterlimit="4" stroke-dasharray="none" stroke-linejoin="round" stroke-linecap="round">
    <line x1="29.05" y1="115.56988712383" x2="10.0" y2="115.56988712383"/>
    <line x1="10.0" y1="115.56988712383" x2="10.0" y2="128.26988712383"/>
    <line x1="10.0" y1="128.26988712383" x2="19.525" y2="128.26988712383"/>
    <line x1="19.525" y1="128.26988712383" x2="19.525" y2="131.44488712383"/>
    <line x1="19.525" y1="131.44488712383" x2="10.0" y2="131.44488712383"/>
    <line x1="10.0" y1="131.44488712383" x2="10.0" y2="144.14488712383"/>
    <line x1="10.0" y1="144.14488712383" x2="29.05" y2="144.14488712383"/>
    <line x1="29.05" y1="144.14488712383" x2="29.05" y2="115.56988712383"/>
  </g>
</svg>
