<?xml version="1.0" encoding="UTF-8" standalone="no"?>
<svg
   xmlns:dc="http://purl.org/dc/elements/1.1/"
   xmlns:cc="http://creativecommons.org/ns#"
   xmlns:rdf="http://www.w3.org/1999/02/22-rdf-syntax-ns#"
   xmlns:svg="http://www.w3.org/2000/svg"
   xmlns="http://www.w3.org/2000/svg"
   xmlns:sodipodi="http://sodipodi.sourceforge.net/DTD/sodipodi-0.dtd"
   xmlns:inkscape="http://www.inkscape.org/namespaces/inkscape"
   width="1260"
   height="855"
   viewBox="0 0 355.6 241.3"
   version="1.1"
   id="svg2"
   inkscape:version="0.48.2 r9819"
   sodipodi:docname="lock.svg">
  <metadata
     id="metadata49">
    <rdf:RDF>
      <cc:Work
         rdf:about="">
        <dc:format>image/svg+xml</dc:format>
        <dc:type
           rdf:resource="http://purl.org/dc/dcmitype/StillImage" />
        <dc:title></dc:title>
      </cc:Work>
    </rdf:RDF>
  </metadata>
  <defs
     id="defs47" />
  <sodipodi:namedview
     pagecolor="#ffffff"
     bordercolor="#666666"
     borderopacity="1"
     objecttolerance="10"
     gridtolerance="10"
     guidetolerance="10"
     inkscape:pageopacity="0"
     inkscape:pageshadow="2"
     inkscape:window-width="1333"
     inkscape:window-height="927"
     id="namedview45"
     showgrid="false"
     units="in"
     inkscape:zoom="1.1672645"
     inkscape:cx="779.96243"
     inkscape:cy="576.73324"
     inkscape:window-x="122"
     inkscape:window-y="12"
     inkscape:window-maximized="0"
     inkscape:current-layer="svg2" />
  <desc
     id="desc4">Output from Flights of Ideas SVG Sketchup Plugin</desc>
  <g
     id="face0"
     stroke-miterlimit="4">
    <line
       x1="66.12661"
       y1="14.490132"
       x2="21.225317"
       y2="14.490132"
       id="line7" />
    <line
       x1="21.225317"
       y1="14.490132"
       x2="14.490128"
       y2="21.225323"
       id="line9" />
    <line
       x1="14.490128"
       y1="21.225323"
       x2="12.245064"
       y2="18.980261"
       id="line11" />
    <line
       x1="12.245064"
       y1="18.980261"
       x2="10"
       y2="21.225325"
       id="line13" />
    <line
       x1="10"
       y1="21.225325"
       x2="30.205572"
       y2="41.430901"
       id="line15" />
    <line
       x1="30.205572"
       y1="41.430901"
       x2="32.450634"
       y2="43.675964"
       id="line17" />
    <line
       x1="32.450634"
       y1="43.675964"
       x2="34.695698"
       y2="41.430901"
       id="line19" />
    <line
       x1="34.695698"
       y1="41.430901"
       x2="32.450634"
       y2="39.185837"
       id="line21" />
    <line
       x1="32.450634"
       y1="39.185837"
       x2="39.185825"
       y2="32.450649"
       id="line23" />
    <line
       x1="39.185825"
       y1="32.450649"
       x2="48.1661"
       y2="32.450649"
       id="line25" />
    <line
       x1="48.1661"
       y1="32.450649"
       x2="52.656227"
       y2="36.940773"
       id="line27" />
    <line
       x1="52.656227"
       y1="36.940773"
       x2="50.411163"
       y2="39.185837"
       id="line29" />
    <line
       x1="50.411163"
       y1="39.185837"
       x2="52.656227"
       y2="41.430901"
       id="line31" />
    <line
       x1="52.656227"
       y1="41.430901"
       x2="54.901291"
       y2="39.185841"
       id="line33" />
    <line
       x1="54.901291"
       y1="39.185841"
       x2="72.861801"
       y2="21.225327"
       id="line35" />
    <line
       x1="72.861801"
       y1="21.225327"
       x2="75.106865"
       y2="10"
       id="line37" />
    <line
       x1="75.106865"
       y1="10"
       x2="72.861801"
       y2="12.245064"
       id="line39" />
    <line
       x1="72.861801"
       y1="12.245064"
       x2="70.616737"
       y2="18.980261"
       id="line41" />
    <line
       x1="70.616737"
       y1="18.980261"
       x2="66.12661"
       y2="14.490132"
       id="line43" />
  </g>
  <g
     transform="translate(-1.692466,151.84007)"
     style="fill:none;stroke:#0000ff;stroke-width:1;stroke-linecap:round;stroke-linejoin:round;stroke-miterlimit:4;stroke-dasharray:none"
     stroke-miterlimit="4"
     id="g3026">
    <line
       id="line3028"
       y2="14.490132"
       x2="21.225317"
       y1="14.490132"
       x1="66.12661" />
    <line
       id="line3030"
       y2="21.225323"
       x2="14.490128"
       y1="14.490132"
       x1="21.225317" />
    <line
       id="line3032"
       y2="18.980261"
       x2="12.245064"
       y1="21.225323"
       x1="14.490128" />
    <line
       id="line3034"
       y2="21.225325"
       x2="10"
       y1="18.980261"
       x1="12.245064" />
    <line
       id="line3036"
       y2="41.430901"
       x2="30.205572"
       y1="21.225325"
       x1="10" />
    <line
       id="line3038"
       y2="43.675964"
       x2="32.450634"
       y1="41.430901"
       x1="30.205572" />
    <line
       id="line3040"
       y2="41.430901"
       x2="34.695698"
       y1="43.675964"
       x1="32.450634" />
    <line
       id="line3042"
       y2="39.185837"
       x2="32.450634"
       y1="41.430901"
       x1="34.695698" />
    <line
       id="line3044"
       y2="32.450649"
       x2="39.185825"
       y1="39.185837"
       x1="32.450634" />
    <line
       id="line3046"
       y2="32.450649"
       x2="48.1661"
       y1="32.450649"
       x1="39.185825" />
    <line
       id="line3048"
       y2="36.940773"
       x2="52.656227"
       y1="32.450649"
       x1="48.1661" />
    <line
       id="line3050"
       y2="39.185837"
       x2="50.411163"
       y1="36.940773"
       x1="52.656227" />
    <line
       id="line3052"
       y2="41.430901"
       x2="52.656227"
       y1="39.185837"
       x1="50.411163" />
    <line
       id="line3054"
       y2="39.185841"
       x2="54.901291"
       y1="41.430901"
       x1="52.656227" />
    <line
       id="line3056"
       y2="21.225327"
       x2="72.861801"
       y1="39.185841"
       x1="54.901291" />
    <line
       id="line3058"
       y2="10"
       x2="75.106865"
       y1="21.225327"
       x1="72.861801" />
    <line
       id="line3060"
       y2="12.245064"
       x2="72.861801"
       y1="10"
       x1="75.106865" />
    <line
       id="line3062"
       y2="18.980261"
       x2="70.616737"
       y1="12.245064"
       x1="72.861801" />
    <line
       id="line3064"
       y2="14.490132"
       x2="66.12661"
       y1="18.980261"
       x1="70.616737" />
  </g>
  <g
     id="g3066"
     stroke-miterlimit="4"
     style="fill:none;stroke:#0000ff;stroke-width:1;stroke-linecap:round;stroke-linejoin:round;stroke-miterlimit:4;stroke-dasharray:none"
     transform="translate(67.456861,151.84007)">
    <line
       x1="66.12661"
       y1="14.490132"
       x2="21.225317"
       y2="14.490132"
       id="line3068" />
    <line
       x1="21.225317"
       y1="14.490132"
       x2="14.490128"
       y2="21.225323"
       id="line3070" />
    <line
       x1="14.490128"
       y1="21.225323"
       x2="12.245064"
       y2="18.980261"
       id="line3072" />
    <line
       x1="12.245064"
       y1="18.980261"
       x2="10"
       y2="21.225325"
       id="line3074" />
    <line
       x1="10"
       y1="21.225325"
       x2="30.205572"
       y2="41.430901"
       id="line3076" />
    <line
       x1="30.205572"
       y1="41.430901"
       x2="32.450634"
       y2="43.675964"
       id="line3078" />
    <line
       x1="32.450634"
       y1="43.675964"
       x2="34.695698"
       y2="41.430901"
       id="line3080" />
    <line
       x1="34.695698"
       y1="41.430901"
       x2="32.450634"
       y2="39.185837"
       id="line3082" />
    <line
       x1="32.450634"
       y1="39.185837"
       x2="39.185825"
       y2="32.450649"
       id="line3084" />
    <line
       x1="39.185825"
       y1="32.450649"
       x2="48.1661"
       y2="32.450649"
       id="line3086" />
    <line
       x1="48.1661"
       y1="32.450649"
       x2="52.656227"
       y2="36.940773"
       id="line3088" />
    <line
       x1="52.656227"
       y1="36.940773"
       x2="50.411163"
       y2="39.185837"
       id="line3090" />
    <line
       x1="50.411163"
       y1="39.185837"
       x2="52.656227"
       y2="41.430901"
       id="line3092" />
    <line
       x1="52.656227"
       y1="41.430901"
       x2="54.901291"
       y2="39.185841"
       id="line3094" />
    <line
       x1="54.901291"
       y1="39.185841"
       x2="72.861801"
       y2="21.225327"
       id="line3096" />
    <line
       x1="72.861801"
       y1="21.225327"
       x2="75.106865"
       y2="10"
       id="line3098" />
    <line
       x1="75.106865"
       y1="10"
       x2="72.861801"
       y2="12.245064"
       id="line3100" />
    <line
       x1="72.861801"
       y1="12.245064"
       x2="70.616737"
       y2="18.980261"
       id="line3102" />
    <line
       x1="70.616737"
       y1="18.980261"
       x2="66.12661"
       y2="14.490132"
       id="line3104" />
  </g>
  <g
     transform="translate(67.456861,184.72227)"
     style="fill:none;stroke:#0000ff;stroke-width:1;stroke-linecap:round;stroke-linejoin:round;stroke-miterlimit:4;stroke-dasharray:none"
     stroke-miterlimit="4"
     id="g3106">
    <line
       id="line3108"
       y2="14.490132"
       x2="21.225317"
       y1="14.490132"
       x1="66.12661" />
    <line
       id="line3110"
       y2="21.225323"
       x2="14.490128"
       y1="14.490132"
       x1="21.225317" />
    <line
       id="line3112"
       y2="18.980261"
       x2="12.245064"
       y1="21.225323"
       x1="14.490128" />
    <line
       id="line3114"
       y2="21.225325"
       x2="10"
       y1="18.980261"
       x1="12.245064" />
    <line
       id="line3116"
       y2="41.430901"
       x2="30.205572"
       y1="21.225325"
       x1="10" />
    <line
       id="line3118"
       y2="43.675964"
       x2="32.450634"
       y1="41.430901"
       x1="30.205572" />
    <line
       id="line3120"
       y2="41.430901"
       x2="34.695698"
       y1="43.675964"
       x1="32.450634" />
    <line
       id="line3122"
       y2="39.185837"
       x2="32.450634"
       y1="41.430901"
       x1="34.695698" />
    <line
       id="line3124"
       y2="32.450649"
       x2="39.185825"
       y1="39.185837"
       x1="32.450634" />
    <line
       id="line3126"
       y2="32.450649"
       x2="48.1661"
       y1="32.450649"
       x1="39.185825" />
    <line
       id="line3128"
       y2="36.940773"
       x2="52.656227"
       y1="32.450649"
       x1="48.1661" />
    <line
       id="line3130"
       y2="39.185837"
       x2="50.411163"
       y1="36.940773"
       x1="52.656227" />
    <line
       id="line3132"
       y2="41.430901"
       x2="52.656227"
       y1="39.185837"
       x1="50.411163" />
    <line
       id="line3134"
       y2="39.185841"
       x2="54.901291"
       y1="41.430901"
       x1="52.656227" />
    <line
       id="line3136"
       y2="21.225327"
       x2="72.861801"
       y1="39.185841"
       x1="54.901291" />
    <line
       id="line3138"
       y2="10"
       x2="75.106865"
       y1="21.225327"
       x1="72.861801" />
    <line
       id="line3140"
       y2="12.245064"
       x2="72.861801"
       y1="10"
       x1="75.106865" />
    <line
       id="line3142"
       y2="18.980261"
       x2="70.616737"
       y1="12.245064"
       x1="72.861801" />
    <line
       id="line3144"
       y2="14.490132"
       x2="66.12661"
       y1="18.980261"
       x1="70.616737" />
  </g>
  <g
     id="g3146"
     stroke-miterlimit="4"
     style="fill:none;stroke:#0000ff;stroke-width:1;stroke-linecap:round;stroke-linejoin:round;stroke-miterlimit:4;stroke-dasharray:none"
     transform="translate(67.456861,117.50719)">
    <line
       x1="66.12661"
       y1="14.490132"
       x2="21.225317"
       y2="14.490132"
       id="line3148" />
    <line
       x1="21.225317"
       y1="14.490132"
       x2="14.490128"
       y2="21.225323"
       id="line3150" />
    <line
       x1="14.490128"
       y1="21.225323"
       x2="12.245064"
       y2="18.980261"
       id="line3152" />
    <line
       x1="12.245064"
       y1="18.980261"
       x2="10"
       y2="21.225325"
       id="line3154" />
    <line
       x1="10"
       y1="21.225325"
       x2="30.205572"
       y2="41.430901"
       id="line3156" />
    <line
       x1="30.205572"
       y1="41.430901"
       x2="32.450634"
       y2="43.675964"
       id="line3158" />
    <line
       x1="32.450634"
       y1="43.675964"
       x2="34.695698"
       y2="41.430901"
       id="line3160" />
    <line
       x1="34.695698"
       y1="41.430901"
       x2="32.450634"
       y2="39.185837"
       id="line3162" />
    <line
       x1="32.450634"
       y1="39.185837"
       x2="39.185825"
       y2="32.450649"
       id="line3164" />
    <line
       x1="39.185825"
       y1="32.450649"
       x2="48.1661"
       y2="32.450649"
       id="line3166" />
    <line
       x1="48.1661"
       y1="32.450649"
       x2="52.656227"
       y2="36.940773"
       id="line3168" />
    <line
       x1="52.656227"
       y1="36.940773"
       x2="50.411163"
       y2="39.185837"
       id="line3170" />
    <line
       x1="50.411163"
       y1="39.185837"
       x2="52.656227"
       y2="41.430901"
       id="line3172" />
    <line
       x1="52.656227"
       y1="41.430901"
       x2="54.901291"
       y2="39.185841"
       id="line3174" />
    <line
       x1="54.901291"
       y1="39.185841"
       x2="72.861801"
       y2="21.225327"
       id="line3176" />
    <line
       x1="72.861801"
       y1="21.225327"
       x2="75.106865"
       y2="10"
       id="line3178" />
    <line
       x1="75.106865"
       y1="10"
       x2="72.861801"
       y2="12.245064"
       id="line3180" />
    <line
       x1="72.861801"
       y1="12.245064"
       x2="70.616737"
       y2="18.980261"
       id="line3182" />
    <line
       x1="70.616737"
       y1="18.980261"
       x2="66.12661"
       y2="14.490132"
       id="line3184" />
  </g>
  <g
     transform="translate(-0.48356148,117.50719)"
     style="fill:none;stroke:#0000ff;stroke-width:1;stroke-linecap:round;stroke-linejoin:round;stroke-miterlimit:4;stroke-dasharray:none"
     stroke-miterlimit="4"
     id="g3186">
    <line
       id="line3188"
       y2="14.490132"
       x2="21.225317"
       y1="14.490132"
       x1="66.12661" />
    <line
       id="line3190"
       y2="21.225323"
       x2="14.490128"
       y1="14.490132"
       x1="21.225317" />
    <line
       id="line3192"
       y2="18.980261"
       x2="12.245064"
       y1="21.225323"
       x1="14.490128" />
    <line
       id="line3194"
       y2="21.225325"
       x2="10"
       y1="18.980261"
       x1="12.245064" />
    <line
       id="line3196"
       y2="41.430901"
       x2="30.205572"
       y1="21.225325"
       x1="10" />
    <line
       id="line3198"
       y2="43.675964"
       x2="32.450634"
       y1="41.430901"
       x1="30.205572" />
    <line
       id="line3200"
       y2="41.430901"
       x2="34.695698"
       y1="43.675964"
       x1="32.450634" />
    <line
       id="line3202"
       y2="39.185837"
       x2="32.450634"
       y1="41.430901"
       x1="34.695698" />
    <line
       id="line3204"
       y2="32.450649"
       x2="39.185825"
       y1="39.185837"
       x1="32.450634" />
    <line
       id="line3206"
       y2="32.450649"
       x2="48.1661"
       y1="32.450649"
       x1="39.185825" />
    <line
       id="line3208"
       y2="36.940773"
       x2="52.656227"
       y1="32.450649"
       x1="48.1661" />
    <line
       id="line3210"
       y2="39.185837"
       x2="50.411163"
       y1="36.940773"
       x1="52.656227" />
    <line
       id="line3212"
       y2="41.430901"
       x2="52.656227"
       y1="39.185837"
       x1="50.411163" />
    <line
       id="line3214"
       y2="39.185841"
       x2="54.901291"
       y1="41.430901"
       x1="52.656227" />
    <line
       id="line3216"
       y2="21.225327"
       x2="72.861801"
       y1="39.185841"
       x1="54.901291" />
    <line
       id="line3218"
       y2="10"
       x2="75.106865"
       y1="21.225327"
       x1="72.861801" />
    <line
       id="line3220"
       y2="12.245064"
       x2="72.861801"
       y1="10"
       x1="75.106865" />
    <line
       id="line3222"
       y2="18.980261"
       x2="70.616737"
       y1="12.245064"
       x1="72.861801" />
    <line
       id="line3224"
       y2="14.490132"
       x2="66.12661"
       y1="18.980261"
       x1="70.616737" />
  </g>
  <g
     id="g3226"
     stroke-miterlimit="4"
     style="fill:none;stroke:#0000ff;stroke-width:1;stroke-linecap:round;stroke-linejoin:round;stroke-miterlimit:4;stroke-dasharray:none"
     transform="translate(-0.48356148,81.481841)">
    <line
       x1="66.12661"
       y1="14.490132"
       x2="21.225317"
       y2="14.490132"
       id="line3228" />
    <line
       x1="21.225317"
       y1="14.490132"
       x2="14.490128"
       y2="21.225323"
       id="line3230" />
    <line
       x1="14.490128"
       y1="21.225323"
       x2="12.245064"
       y2="18.980261"
       id="line3232" />
    <line
       x1="12.245064"
       y1="18.980261"
       x2="10"
       y2="21.225325"
       id="line3234" />
    <line
       x1="10"
       y1="21.225325"
       x2="30.205572"
       y2="41.430901"
       id="line3236" />
    <line
       x1="30.205572"
       y1="41.430901"
       x2="32.450634"
       y2="43.675964"
       id="line3238" />
    <line
       x1="32.450634"
       y1="43.675964"
       x2="34.695698"
       y2="41.430901"
       id="line3240" />
    <line
       x1="34.695698"
       y1="41.430901"
       x2="32.450634"
       y2="39.185837"
       id="line3242" />
    <line
       x1="32.450634"
       y1="39.185837"
       x2="39.185825"
       y2="32.450649"
       id="line3244" />
    <line
       x1="39.185825"
       y1="32.450649"
       x2="48.1661"
       y2="32.450649"
       id="line3246" />
    <line
       x1="48.1661"
       y1="32.450649"
       x2="52.656227"
       y2="36.940773"
       id="line3248" />
    <line
       x1="52.656227"
       y1="36.940773"
       x2="50.411163"
       y2="39.185837"
       id="line3250" />
    <line
       x1="50.411163"
       y1="39.185837"
       x2="52.656227"
       y2="41.430901"
       id="line3252" />
    <line
       x1="52.656227"
       y1="41.430901"
       x2="54.901291"
       y2="39.185841"
       id="line3254" />
    <line
       x1="54.901291"
       y1="39.185841"
       x2="72.861801"
       y2="21.225327"
       id="line3256" />
    <line
       x1="72.861801"
       y1="21.225327"
       x2="75.106865"
       y2="10"
       id="line3258" />
    <line
       x1="75.106865"
       y1="10"
       x2="72.861801"
       y2="12.245064"
       id="line3260" />
    <line
       x1="72.861801"
       y1="12.245064"
       x2="70.616737"
       y2="18.980261"
       id="line3262" />
    <line
       x1="70.616737"
       y1="18.980261"
       x2="66.12661"
       y2="14.490132"
       id="line3264" />
  </g>
  <g
     transform="translate(68.665765,81.481841)"
     style="fill:none;stroke:#0000ff;stroke-width:1;stroke-linecap:round;stroke-linejoin:round;stroke-miterlimit:4;stroke-dasharray:none"
     stroke-miterlimit="4"
     id="g3266">
    <line
       id="line3268"
       y2="14.490132"
       x2="21.225317"
       y1="14.490132"
       x1="66.12661" />
    <line
       id="line3270"
       y2="21.225323"
       x2="14.490128"
       y1="14.490132"
       x1="21.225317" />
    <line
       id="line3272"
       y2="18.980261"
       x2="12.245064"
       y1="21.225323"
       x1="14.490128" />
    <line
       id="line3274"
       y2="21.225325"
       x2="10"
       y1="18.980261"
       x1="12.245064" />
    <line
       id="line3276"
       y2="41.430901"
       x2="30.205572"
       y1="21.225325"
       x1="10" />
    <line
       id="line3278"
       y2="43.675964"
       x2="32.450634"
       y1="41.430901"
       x1="30.205572" />
    <line
       id="line3280"
       y2="41.430901"
       x2="34.695698"
       y1="43.675964"
       x1="32.450634" />
    <line
       id="line3282"
       y2="39.185837"
       x2="32.450634"
       y1="41.430901"
       x1="34.695698" />
    <line
       id="line3284"
       y2="32.450649"
       x2="39.185825"
       y1="39.185837"
       x1="32.450634" />
    <line
       id="line3286"
       y2="32.450649"
       x2="48.1661"
       y1="32.450649"
       x1="39.185825" />
    <line
       id="line3288"
       y2="36.940773"
       x2="52.656227"
       y1="32.450649"
       x1="48.1661" />
    <line
       id="line3290"
       y2="39.185837"
       x2="50.411163"
       y1="36.940773"
       x1="52.656227" />
    <line
       id="line3292"
       y2="41.430901"
       x2="52.656227"
       y1="39.185837"
       x1="50.411163" />
    <line
       id="line3294"
       y2="39.185841"
       x2="54.901291"
       y1="41.430901"
       x1="52.656227" />
    <line
       id="line3296"
       y2="21.225327"
       x2="72.861801"
       y1="39.185841"
       x1="54.901291" />
    <line
       id="line3298"
       y2="10"
       x2="75.106865"
       y1="21.225327"
       x1="72.861801" />
    <line
       id="line3300"
       y2="12.245064"
       x2="72.861801"
       y1="10"
       x1="75.106865" />
    <line
       id="line3302"
       y2="18.980261"
       x2="70.616737"
       y1="12.245064"
       x1="72.861801" />
    <line
       id="line3304"
       y2="14.490132"
       x2="66.12661"
       y1="18.980261"
       x1="70.616737" />
  </g>
  <g
     id="g3306"
     stroke-miterlimit="4"
     style="fill:none;stroke:#0000ff;stroke-width:1;stroke-linecap:round;stroke-linejoin:round;stroke-miterlimit:4;stroke-dasharray:none"
     transform="translate(140.2329,80.031156)">
    <line
       x1="66.12661"
       y1="14.490132"
       x2="21.225317"
       y2="14.490132"
       id="line3308" />
    <line
       x1="21.225317"
       y1="14.490132"
       x2="14.490128"
       y2="21.225323"
       id="line3310" />
    <line
       x1="14.490128"
       y1="21.225323"
       x2="12.245064"
       y2="18.980261"
       id="line3312" />
    <line
       x1="12.245064"
       y1="18.980261"
       x2="10"
       y2="21.225325"
       id="line3314" />
    <line
       x1="10"
       y1="21.225325"
       x2="30.205572"
       y2="41.430901"
       id="line3316" />
    <line
       x1="30.205572"
       y1="41.430901"
       x2="32.450634"
       y2="43.675964"
       id="line3318" />
    <line
       x1="32.450634"
       y1="43.675964"
       x2="34.695698"
       y2="41.430901"
       id="line3320" />
    <line
       x1="34.695698"
       y1="41.430901"
       x2="32.450634"
       y2="39.185837"
       id="line3322" />
    <line
       x1="32.450634"
       y1="39.185837"
       x2="39.185825"
       y2="32.450649"
       id="line3324" />
    <line
       x1="39.185825"
       y1="32.450649"
       x2="48.1661"
       y2="32.450649"
       id="line3326" />
    <line
       x1="48.1661"
       y1="32.450649"
       x2="52.656227"
       y2="36.940773"
       id="line3328" />
    <line
       x1="52.656227"
       y1="36.940773"
       x2="50.411163"
       y2="39.185837"
       id="line3330" />
    <line
       x1="50.411163"
       y1="39.185837"
       x2="52.656227"
       y2="41.430901"
       id="line3332" />
    <line
       x1="52.656227"
       y1="41.430901"
       x2="54.901291"
       y2="39.185841"
       id="line3334" />
    <line
       x1="54.901291"
       y1="39.185841"
       x2="72.861801"
       y2="21.225327"
       id="line3336" />
    <line
       x1="72.861801"
       y1="21.225327"
       x2="75.106865"
       y2="10"
       id="line3338" />
    <line
       x1="75.106865"
       y1="10"
       x2="72.861801"
       y2="12.245064"
       id="line3340" />
    <line
       x1="72.861801"
       y1="12.245064"
       x2="70.616737"
       y2="18.980261"
       id="line3342" />
    <line
       x1="70.616737"
       y1="18.980261"
       x2="66.12661"
       y2="14.490132"
       id="line3344" />
  </g>
  <g
     transform="translate(139.26578,113.6387)"
     style="fill:none;stroke:#0000ff;stroke-width:1;stroke-linecap:round;stroke-linejoin:round;stroke-miterlimit:4;stroke-dasharray:none"
     stroke-miterlimit="4"
     id="g3346">
    <line
       id="line3348"
       y2="14.490132"
       x2="21.225317"
       y1="14.490132"
       x1="66.12661" />
    <line
       id="line3350"
       y2="21.225323"
       x2="14.490128"
       y1="14.490132"
       x1="21.225317" />
    <line
       id="line3352"
       y2="18.980261"
       x2="12.245064"
       y1="21.225323"
       x1="14.490128" />
    <line
       id="line3354"
       y2="21.225325"
       x2="10"
       y1="18.980261"
       x1="12.245064" />
    <line
       id="line3356"
       y2="41.430901"
       x2="30.205572"
       y1="21.225325"
       x1="10" />
    <line
       id="line3358"
       y2="43.675964"
       x2="32.450634"
       y1="41.430901"
       x1="30.205572" />
    <line
       id="line3360"
       y2="41.430901"
       x2="34.695698"
       y1="43.675964"
       x1="32.450634" />
    <line
       id="line3362"
       y2="39.185837"
       x2="32.450634"
       y1="41.430901"
       x1="34.695698" />
    <line
       id="line3364"
       y2="32.450649"
       x2="39.185825"
       y1="39.185837"
       x1="32.450634" />
    <line
       id="line3366"
       y2="32.450649"
       x2="48.1661"
       y1="32.450649"
       x1="39.185825" />
    <line
       id="line3368"
       y2="36.940773"
       x2="52.656227"
       y1="32.450649"
       x1="48.1661" />
    <line
       id="line3370"
       y2="39.185837"
       x2="50.411163"
       y1="36.940773"
       x1="52.656227" />
    <line
       id="line3372"
       y2="41.430901"
       x2="52.656227"
       y1="39.185837"
       x1="50.411163" />
    <line
       id="line3374"
       y2="39.185841"
       x2="54.901291"
       y1="41.430901"
       x1="52.656227" />
    <line
       id="line3376"
       y2="21.225327"
       x2="72.861801"
       y1="39.185841"
       x1="54.901291" />
    <line
       id="line3378"
       y2="10"
       x2="75.106865"
       y1="21.225327"
       x1="72.861801" />
    <line
       id="line3380"
       y2="12.245064"
       x2="72.861801"
       y1="10"
       x1="75.106865" />
    <line
       id="line3382"
       y2="18.980261"
       x2="70.616737"
       y1="12.245064"
       x1="72.861801" />
    <line
       id="line3384"
       y2="14.490132"
       x2="66.12661"
       y1="18.980261"
       x1="70.616737" />
  </g>
  <g
     id="g3386"
     stroke-miterlimit="4"
     style="fill:none;stroke:#0000ff;stroke-width:1;stroke-linecap:round;stroke-linejoin:round;stroke-miterlimit:4;stroke-dasharray:none"
     transform="translate(139.50756,149.66405)">
    <line
       x1="66.12661"
       y1="14.490132"
       x2="21.225317"
       y2="14.490132"
       id="line3388" />
    <line
       x1="21.225317"
       y1="14.490132"
       x2="14.490128"
       y2="21.225323"
       id="line3390" />
    <line
       x1="14.490128"
       y1="21.225323"
       x2="12.245064"
       y2="18.980261"
       id="line3392" />
    <line
       x1="12.245064"
       y1="18.980261"
       x2="10"
       y2="21.225325"
       id="line3394" />
    <line
       x1="10"
       y1="21.225325"
       x2="30.205572"
       y2="41.430901"
       id="line3396" />
    <line
       x1="30.205572"
       y1="41.430901"
       x2="32.450634"
       y2="43.675964"
       id="line3398" />
    <line
       x1="32.450634"
       y1="43.675964"
       x2="34.695698"
       y2="41.430901"
       id="line3400" />
    <line
       x1="34.695698"
       y1="41.430901"
       x2="32.450634"
       y2="39.185837"
       id="line3402" />
    <line
       x1="32.450634"
       y1="39.185837"
       x2="39.185825"
       y2="32.450649"
       id="line3404" />
    <line
       x1="39.185825"
       y1="32.450649"
       x2="48.1661"
       y2="32.450649"
       id="line3406" />
    <line
       x1="48.1661"
       y1="32.450649"
       x2="52.656227"
       y2="36.940773"
       id="line3408" />
    <line
       x1="52.656227"
       y1="36.940773"
       x2="50.411163"
       y2="39.185837"
       id="line3410" />
    <line
       x1="50.411163"
       y1="39.185837"
       x2="52.656227"
       y2="41.430901"
       id="line3412" />
    <line
       x1="52.656227"
       y1="41.430901"
       x2="54.901291"
       y2="39.185841"
       id="line3414" />
    <line
       x1="54.901291"
       y1="39.185841"
       x2="72.861801"
       y2="21.225327"
       id="line3416" />
    <line
       x1="72.861801"
       y1="21.225327"
       x2="75.106865"
       y2="10"
       id="line3418" />
    <line
       x1="75.106865"
       y1="10"
       x2="72.861801"
       y2="12.245064"
       id="line3420" />
    <line
       x1="72.861801"
       y1="12.245064"
       x2="70.616737"
       y2="18.980261"
       id="line3422" />
    <line
       x1="70.616737"
       y1="18.980261"
       x2="66.12661"
       y2="14.490132"
       id="line3424" />
  </g>
  <g
     transform="translate(138.54044,185.20584)"
     style="fill:none;stroke:#0000ff;stroke-width:1;stroke-linecap:round;stroke-linejoin:round;stroke-miterlimit:4;stroke-dasharray:none"
     stroke-miterlimit="4"
     id="g3426">
    <line
       id="line3428"
       y2="14.490132"
       x2="21.225317"
       y1="14.490132"
       x1="66.12661" />
    <line
       id="line3430"
       y2="21.225323"
       x2="14.490128"
       y1="14.490132"
       x1="21.225317" />
    <line
       id="line3432"
       y2="18.980261"
       x2="12.245064"
       y1="21.225323"
       x1="14.490128" />
    <line
       id="line3434"
       y2="21.225325"
       x2="10"
       y1="18.980261"
       x1="12.245064" />
    <line
       id="line3436"
       y2="41.430901"
       x2="30.205572"
       y1="21.225325"
       x1="10" />
    <line
       id="line3438"
       y2="43.675964"
       x2="32.450634"
       y1="41.430901"
       x1="30.205572" />
    <line
       id="line3440"
       y2="41.430901"
       x2="34.695698"
       y1="43.675964"
       x1="32.450634" />
    <line
       id="line3442"
       y2="39.185837"
       x2="32.450634"
       y1="41.430901"
       x1="34.695698" />
    <line
       id="line3444"
       y2="32.450649"
       x2="39.185825"
       y1="39.185837"
       x1="32.450634" />
    <line
       id="line3446"
       y2="32.450649"
       x2="48.1661"
       y1="32.450649"
       x1="39.185825" />
    <line
       id="line3448"
       y2="36.940773"
       x2="52.656227"
       y1="32.450649"
       x1="48.1661" />
    <line
       id="line3450"
       y2="39.185837"
       x2="50.411163"
       y1="36.940773"
       x1="52.656227" />
    <line
       id="line3452"
       y2="41.430901"
       x2="52.656227"
       y1="39.185837"
       x1="50.411163" />
    <line
       id="line3454"
       y2="39.185841"
       x2="54.901291"
       y1="41.430901"
       x1="52.656227" />
    <line
       id="line3456"
       y2="21.225327"
       x2="72.861801"
       y1="39.185841"
       x1="54.901291" />
    <line
       id="line3458"
       y2="10"
       x2="75.106865"
       y1="21.225327"
       x1="72.861801" />
    <line
       id="line3460"
       y2="12.245064"
       x2="72.861801"
       y1="10"
       x1="75.106865" />
    <line
       id="line3462"
       y2="18.980261"
       x2="70.616737"
       y1="12.245064"
       x1="72.861801" />
    <line
       id="line3464"
       y2="14.490132"
       x2="66.12661"
       y1="18.980261"
       x1="70.616737" />
  </g>
  <g
     id="g3466"
     stroke-miterlimit="4"
     style="fill:none;stroke:#0000ff;stroke-width:1;stroke-linecap:round;stroke-linejoin:round;stroke-miterlimit:4;stroke-dasharray:none"
     transform="translate(209.86579,184.72228)">
    <line
       x1="66.12661"
       y1="14.490132"
       x2="21.225317"
       y2="14.490132"
       id="line3468" />
    <line
       x1="21.225317"
       y1="14.490132"
       x2="14.490128"
       y2="21.225323"
       id="line3470" />
    <line
       x1="14.490128"
       y1="21.225323"
       x2="12.245064"
       y2="18.980261"
       id="line3472" />
    <line
       x1="12.245064"
       y1="18.980261"
       x2="10"
       y2="21.225325"
       id="line3474" />
    <line
       x1="10"
       y1="21.225325"
       x2="30.205572"
       y2="41.430901"
       id="line3476" />
    <line
       x1="30.205572"
       y1="41.430901"
       x2="32.450634"
       y2="43.675964"
       id="line3478" />
    <line
       x1="32.450634"
       y1="43.675964"
       x2="34.695698"
       y2="41.430901"
       id="line3480" />
    <line
       x1="34.695698"
       y1="41.430901"
       x2="32.450634"
       y2="39.185837"
       id="line3482" />
    <line
       x1="32.450634"
       y1="39.185837"
       x2="39.185825"
       y2="32.450649"
       id="line3484" />
    <line
       x1="39.185825"
       y1="32.450649"
       x2="48.1661"
       y2="32.450649"
       id="line3486" />
    <line
       x1="48.1661"
       y1="32.450649"
       x2="52.656227"
       y2="36.940773"
       id="line3488" />
    <line
       x1="52.656227"
       y1="36.940773"
       x2="50.411163"
       y2="39.185837"
       id="line3490" />
    <line
       x1="50.411163"
       y1="39.185837"
       x2="52.656227"
       y2="41.430901"
       id="line3492" />
    <line
       x1="52.656227"
       y1="41.430901"
       x2="54.901291"
       y2="39.185841"
       id="line3494" />
    <line
       x1="54.901291"
       y1="39.185841"
       x2="72.861801"
       y2="21.225327"
       id="line3496" />
    <line
       x1="72.861801"
       y1="21.225327"
       x2="75.106865"
       y2="10"
       id="line3498" />
    <line
       x1="75.106865"
       y1="10"
       x2="72.861801"
       y2="12.245064"
       id="line3500" />
    <line
       x1="72.861801"
       y1="12.245064"
       x2="70.616737"
       y2="18.980261"
       id="line3502" />
    <line
       x1="70.616737"
       y1="18.980261"
       x2="66.12661"
       y2="14.490132"
       id="line3504" />
  </g>
  <g
     transform="translate(209.86579,152.80721)"
     style="fill:none;stroke:#0000ff;stroke-width:1;stroke-linecap:round;stroke-linejoin:round;stroke-miterlimit:4;stroke-dasharray:none"
     stroke-miterlimit="4"
     id="g3506">
    <line
       id="line3508"
       y2="14.490132"
       x2="21.225317"
       y1="14.490132"
       x1="66.12661" />
    <line
       id="line3510"
       y2="21.225323"
       x2="14.490128"
       y1="14.490132"
       x1="21.225317" />
    <line
       id="line3512"
       y2="18.980261"
       x2="12.245064"
       y1="21.225323"
       x1="14.490128" />
    <line
       id="line3514"
       y2="21.225325"
       x2="10"
       y1="18.980261"
       x1="12.245064" />
    <line
       id="line3516"
       y2="41.430901"
       x2="30.205572"
       y1="21.225325"
       x1="10" />
    <line
       id="line3518"
       y2="43.675964"
       x2="32.450634"
       y1="41.430901"
       x1="30.205572" />
    <line
       id="line3520"
       y2="41.430901"
       x2="34.695698"
       y1="43.675964"
       x1="32.450634" />
    <line
       id="line3522"
       y2="39.185837"
       x2="32.450634"
       y1="41.430901"
       x1="34.695698" />
    <line
       id="line3524"
       y2="32.450649"
       x2="39.185825"
       y1="39.185837"
       x1="32.450634" />
    <line
       id="line3526"
       y2="32.450649"
       x2="48.1661"
       y1="32.450649"
       x1="39.185825" />
    <line
       id="line3528"
       y2="36.940773"
       x2="52.656227"
       y1="32.450649"
       x1="48.1661" />
    <line
       id="line3530"
       y2="39.185837"
       x2="50.411163"
       y1="36.940773"
       x1="52.656227" />
    <line
       id="line3532"
       y2="41.430901"
       x2="52.656227"
       y1="39.185837"
       x1="50.411163" />
    <line
       id="line3534"
       y2="39.185841"
       x2="54.901291"
       y1="41.430901"
       x1="52.656227" />
    <line
       id="line3536"
       y2="21.225327"
       x2="72.861801"
       y1="39.185841"
       x1="54.901291" />
    <line
       id="line3538"
       y2="10"
       x2="75.106865"
       y1="21.225327"
       x1="72.861801" />
    <line
       id="line3540"
       y2="12.245064"
       x2="72.861801"
       y1="10"
       x1="75.106865" />
    <line
       id="line3542"
       y2="18.980261"
       x2="70.616737"
       y1="12.245064"
       x1="72.861801" />
    <line
       id="line3544"
       y2="14.490132"
       x2="66.12661"
       y1="18.980261"
       x1="70.616737" />
  </g>
  <g
     id="g3546"
     stroke-miterlimit="4"
     style="fill:none;stroke:#0000ff;stroke-width:1;stroke-linecap:round;stroke-linejoin:round;stroke-miterlimit:4;stroke-dasharray:none"
     transform="translate(209.38223,114.12227)">
    <line
       x1="66.12661"
       y1="14.490132"
       x2="21.225317"
       y2="14.490132"
       id="line3548" />
    <line
       x1="21.225317"
       y1="14.490132"
       x2="14.490128"
       y2="21.225323"
       id="line3550" />
    <line
       x1="14.490128"
       y1="21.225323"
       x2="12.245064"
       y2="18.980261"
       id="line3552" />
    <line
       x1="12.245064"
       y1="18.980261"
       x2="10"
       y2="21.225325"
       id="line3554" />
    <line
       x1="10"
       y1="21.225325"
       x2="30.205572"
       y2="41.430901"
       id="line3556" />
    <line
       x1="30.205572"
       y1="41.430901"
       x2="32.450634"
       y2="43.675964"
       id="line3558" />
    <line
       x1="32.450634"
       y1="43.675964"
       x2="34.695698"
       y2="41.430901"
       id="line3560" />
    <line
       x1="34.695698"
       y1="41.430901"
       x2="32.450634"
       y2="39.185837"
       id="line3562" />
    <line
       x1="32.450634"
       y1="39.185837"
       x2="39.185825"
       y2="32.450649"
       id="line3564" />
    <line
       x1="39.185825"
       y1="32.450649"
       x2="48.1661"
       y2="32.450649"
       id="line3566" />
    <line
       x1="48.1661"
       y1="32.450649"
       x2="52.656227"
       y2="36.940773"
       id="line3568" />
    <line
       x1="52.656227"
       y1="36.940773"
       x2="50.411163"
       y2="39.185837"
       id="line3570" />
    <line
       x1="50.411163"
       y1="39.185837"
       x2="52.656227"
       y2="41.430901"
       id="line3572" />
    <line
       x1="52.656227"
       y1="41.430901"
       x2="54.901291"
       y2="39.185841"
       id="line3574" />
    <line
       x1="54.901291"
       y1="39.185841"
       x2="72.861801"
       y2="21.225327"
       id="line3576" />
    <line
       x1="72.861801"
       y1="21.225327"
       x2="75.106865"
       y2="10"
       id="line3578" />
    <line
       x1="75.106865"
       y1="10"
       x2="72.861801"
       y2="12.245064"
       id="line3580" />
    <line
       x1="72.861801"
       y1="12.245064"
       x2="70.616737"
       y2="18.980261"
       id="line3582" />
    <line
       x1="70.616737"
       y1="18.980261"
       x2="66.12661"
       y2="14.490132"
       id="line3584" />
  </g>
  <g
     transform="translate(209.14045,80.998292)"
     style="fill:none;stroke:#0000ff;stroke-width:1;stroke-linecap:round;stroke-linejoin:round;stroke-miterlimit:4;stroke-dasharray:none"
     stroke-miterlimit="4"
     id="g3586">
    <line
       id="line3588"
       y2="14.490132"
       x2="21.225317"
       y1="14.490132"
       x1="66.12661" />
    <line
       id="line3590"
       y2="21.225323"
       x2="14.490128"
       y1="14.490132"
       x1="21.225317" />
    <line
       id="line3592"
       y2="18.980261"
       x2="12.245064"
       y1="21.225323"
       x1="14.490128" />
    <line
       id="line3594"
       y2="21.225325"
       x2="10"
       y1="18.980261"
       x1="12.245064" />
    <line
       id="line3596"
       y2="41.430901"
       x2="30.205572"
       y1="21.225325"
       x1="10" />
    <line
       id="line3598"
       y2="43.675964"
       x2="32.450634"
       y1="41.430901"
       x1="30.205572" />
    <line
       id="line3600"
       y2="41.430901"
       x2="34.695698"
       y1="43.675964"
       x1="32.450634" />
    <line
       id="line3602"
       y2="39.185837"
       x2="32.450634"
       y1="41.430901"
       x1="34.695698" />
    <line
       id="line3604"
       y2="32.450649"
       x2="39.185825"
       y1="39.185837"
       x1="32.450634" />
    <line
       id="line3606"
       y2="32.450649"
       x2="48.1661"
       y1="32.450649"
       x1="39.185825" />
    <line
       id="line3608"
       y2="36.940773"
       x2="52.656227"
       y1="32.450649"
       x1="48.1661" />
    <line
       id="line3610"
       y2="39.185837"
       x2="50.411163"
       y1="36.940773"
       x1="52.656227" />
    <line
       id="line3612"
       y2="41.430901"
       x2="52.656227"
       y1="39.185837"
       x1="50.411163" />
    <line
       id="line3614"
       y2="39.185841"
       x2="54.901291"
       y1="41.430901"
       x1="52.656227" />
    <line
       id="line3616"
       y2="21.225327"
       x2="72.861801"
       y1="39.185841"
       x1="54.901291" />
    <line
       id="line3618"
       y2="10"
       x2="75.106865"
       y1="21.225327"
       x1="72.861801" />
    <line
       id="line3620"
       y2="12.245064"
       x2="72.861801"
       y1="10"
       x1="75.106865" />
    <line
       id="line3622"
       y2="18.980261"
       x2="70.616737"
       y1="12.245064"
       x1="72.861801" />
    <line
       id="line3624"
       y2="14.490132"
       x2="66.12661"
       y1="18.980261"
       x1="70.616737" />
  </g>
</svg>
