<?xml version="1.0" standalone="no"?>
<!DOCTYPE svg PUBLIC "-//W3C//DTD SVG 1.1//EN" "http://www.w3.org/Graphics/SVG/1.1/DTD/svg11.dtd">
<svg width="121.6mm" height="67.6250000000003mm"
 viewBox="0 0 121.6 67.6250000000003"
 xmlns="http://www.w3.org/2000/svg" version="1.1"
 xmlns:xlink="http://www.w3.org/1999/xlink">
<desc>Output from Flights of Ideas SVG Sketchup Plugin</desc>

  <g id="face0" fill="none" stroke="rgb(0,0,255)" stroke-width="1" stroke-miterlimit="4" stroke-dasharray="none" stroke-linejoin="round" stroke-linecap="round">
    <line x1="16.3500000000002" y1="13.1750000000002" x2="13.1750000000004" y2="13.1750000000002"/>
    <line x1="13.1750000000004" y1="13.1750000000002" x2="13.1750000000004" y2="16.3500000000002"/>
    <line x1="13.1750000000004" y1="16.3500000000002" x2="13.1750000000004" y2="19.5250000000002"/>
    <line x1="13.1750000000004" y1="19.5250000000002" x2="10.0000000000004" y2="19.5250000000002"/>
    <line x1="10.0000000000004" y1="19.5250000000002" x2="10.0000000000004" y2="22.7000000000002"/>
    <line x1="10.0000000000004" y1="22.7000000000002" x2="13.1750000000004" y2="22.7000000000002"/>
    <line x1="13.1750000000004" y1="22.7000000000002" x2="13.175" y2="25.8750000000002"/>
    <line x1="13.175" y1="25.8750000000002" x2="10.0" y2="25.8750000000002"/>
    <line x1="10.0" y1="25.8750000000002" x2="10.0" y2="29.0500000000002"/>
    <line x1="10.0" y1="29.0500000000002" x2="13.175" y2="29.0500000000002"/>
    <line x1="13.175" y1="29.0500000000002" x2="13.1750000000004" y2="32.2250000000002"/>
    <line x1="13.1750000000004" y1="32.2250000000002" x2="10.0000000000004" y2="32.2250000000002"/>
    <line x1="10.0000000000004" y1="32.2250000000002" x2="10.0000000000004" y2="35.4000000000002"/>
    <line x1="10.0000000000004" y1="35.4000000000002" x2="13.1750000000004" y2="35.4000000000002"/>
    <line x1="13.1750000000004" y1="35.4000000000002" x2="13.1750000000004" y2="38.5750000000002"/>
    <line x1="13.1750000000004" y1="38.5750000000002" x2="10.0000000000004" y2="38.5750000000002"/>
    <line x1="10.0000000000004" y1="38.5750000000002" x2="10.0000000000004" y2="41.7500000000002"/>
    <line x1="10.0000000000004" y1="41.7500000000002" x2="13.1750000000004" y2="41.7500000000002"/>
    <line x1="13.1750000000004" y1="41.7500000000002" x2="13.1750000000004" y2="44.9250000000002"/>
    <line x1="13.1750000000004" y1="44.9250000000002" x2="10.0000000000004" y2="44.9250000000002"/>
    <line x1="10.0000000000004" y1="44.9250000000002" x2="10.0000000000004" y2="48.1000000000002"/>
    <line x1="10.0000000000004" y1="48.1000000000002" x2="13.1750000000004" y2="48.1000000000003"/>
    <line x1="13.1750000000004" y1="48.1000000000003" x2="13.1750000000004" y2="51.2750000000002"/>
    <line x1="13.1750000000004" y1="51.2750000000002" x2="10.0000000000004" y2="51.2750000000002"/>
    <line x1="10.0000000000004" y1="51.2750000000002" x2="10.0000000000004" y2="54.4500000000002"/>
    <line x1="10.0000000000004" y1="54.4500000000002" x2="10.0" y2="57.6250000000002"/>
    <line x1="10.0" y1="57.6250000000002" x2="16.35" y2="57.6250000000002"/>
    <line x1="16.35" y1="57.6250000000002" x2="16.3500000000004" y2="54.4500000000002"/>
    <line x1="16.3500000000004" y1="54.4500000000002" x2="19.5250000000004" y2="54.4500000000002"/>
    <line x1="19.5250000000004" y1="54.4500000000002" x2="19.525" y2="57.6250000000002"/>
    <line x1="19.525" y1="57.6250000000002" x2="22.7" y2="57.6250000000002"/>
    <line x1="22.7" y1="57.6250000000002" x2="22.7000000000004" y2="54.4500000000002"/>
    <line x1="22.7000000000004" y1="54.4500000000002" x2="25.8750000000004" y2="54.4500000000002"/>
    <line x1="25.8750000000004" y1="54.4500000000002" x2="25.875" y2="57.6250000000002"/>
    <line x1="25.875" y1="57.6250000000002" x2="29.0500000000001" y2="57.6250000000002"/>
    <line x1="29.0500000000001" y1="57.6250000000002" x2="29.0500000000005" y2="54.4500000000002"/>
    <line x1="29.0500000000005" y1="54.4500000000002" x2="32.2250000000005" y2="54.4500000000002"/>
    <line x1="32.2250000000005" y1="54.4500000000002" x2="32.2250000000001" y2="57.6250000000002"/>
    <line x1="32.2250000000001" y1="57.6250000000002" x2="35.4" y2="57.6250000000002"/>
    <line x1="35.4" y1="57.6250000000002" x2="35.4000000000004" y2="54.4500000000002"/>
    <line x1="35.4000000000004" y1="54.4500000000002" x2="38.5750000000005" y2="54.4500000000002"/>
    <line x1="38.5750000000005" y1="54.4500000000002" x2="38.5750000000005" y2="57.6250000000002"/>
    <line x1="38.5750000000005" y1="57.6250000000002" x2="41.7500000000004" y2="57.6250000000002"/>
    <line x1="41.7500000000004" y1="57.6250000000002" x2="41.7500000000005" y2="54.4500000000002"/>
    <line x1="41.7500000000005" y1="54.4500000000002" x2="44.9250000000005" y2="54.4500000000002"/>
    <line x1="44.9250000000005" y1="54.4500000000002" x2="44.9250000000005" y2="57.6250000000002"/>
    <line x1="44.9250000000005" y1="57.6250000000002" x2="48.1000000000005" y2="57.6250000000002"/>
    <line x1="48.1000000000005" y1="57.6250000000002" x2="48.1000000000004" y2="54.4500000000003"/>
    <line x1="48.1000000000004" y1="54.4500000000003" x2="51.2750000000005" y2="54.4500000000003"/>
    <line x1="51.2750000000005" y1="54.4500000000003" x2="51.2750000000005" y2="57.6250000000002"/>
    <line x1="51.2750000000005" y1="57.6250000000002" x2="54.4500000000005" y2="57.6250000000002"/>
    <line x1="54.4500000000005" y1="57.6250000000002" x2="54.4500000000005" y2="54.4500000000003"/>
    <line x1="54.4500000000005" y1="54.4500000000003" x2="57.6250000000005" y2="54.4500000000002"/>
    <line x1="57.6250000000005" y1="54.4500000000002" x2="57.6250000000005" y2="57.6250000000001"/>
    <line x1="57.6250000000005" y1="57.6250000000001" x2="60.8000000000005" y2="57.6250000000002"/>
    <line x1="60.8000000000005" y1="57.6250000000002" x2="60.8000000000005" y2="54.4500000000002"/>
    <line x1="60.8000000000005" y1="54.4500000000002" x2="63.9750000000005" y2="54.4500000000002"/>
    <line x1="63.9750000000005" y1="54.4500000000002" x2="63.9750000000001" y2="57.6250000000002"/>
    <line x1="63.9750000000001" y1="57.6250000000002" x2="67.1500000000001" y2="57.6250000000001"/>
    <line x1="67.1500000000001" y1="57.6250000000001" x2="67.1500000000005" y2="54.4500000000002"/>
    <line x1="67.1500000000005" y1="54.4500000000002" x2="70.3250000000005" y2="54.4500000000002"/>
    <line x1="70.3250000000005" y1="54.4500000000002" x2="70.3250000000001" y2="57.6250000000002"/>
    <line x1="70.3250000000001" y1="57.6250000000002" x2="73.5000000000001" y2="57.6250000000001"/>
    <line x1="73.5000000000001" y1="57.6250000000001" x2="73.5000000000005" y2="54.4500000000002"/>
    <line x1="73.5000000000005" y1="54.4500000000002" x2="76.6750000000005" y2="54.4500000000002"/>
    <line x1="76.6750000000005" y1="54.4500000000002" x2="76.6750000000001" y2="57.6250000000002"/>
    <line x1="76.6750000000001" y1="57.6250000000002" x2="79.8500000000001" y2="57.6250000000002"/>
    <line x1="79.8500000000001" y1="57.6250000000002" x2="79.8500000000006" y2="54.4500000000003"/>
    <line x1="79.8500000000006" y1="54.4500000000003" x2="83.0250000000006" y2="54.4500000000003"/>
    <line x1="83.0250000000006" y1="54.4500000000003" x2="83.0250000000001" y2="57.6250000000001"/>
    <line x1="83.0250000000001" y1="57.6250000000001" x2="86.2000000000001" y2="57.6250000000002"/>
    <line x1="86.2000000000001" y1="57.6250000000002" x2="86.2000000000006" y2="54.4500000000003"/>
    <line x1="86.2000000000006" y1="54.4500000000003" x2="89.3750000000006" y2="54.4500000000003"/>
    <line x1="89.3750000000006" y1="54.4500000000003" x2="89.3750000000001" y2="57.6250000000001"/>
    <line x1="89.3750000000001" y1="57.6250000000001" x2="92.5500000000002" y2="57.6250000000003"/>
    <line x1="92.5500000000002" y1="57.6250000000003" x2="92.5500000000006" y2="54.4500000000002"/>
    <line x1="92.5500000000006" y1="54.4500000000002" x2="95.7250000000006" y2="54.4500000000002"/>
    <line x1="95.7250000000006" y1="54.4500000000002" x2="95.7250000000002" y2="57.6250000000001"/>
    <line x1="95.7250000000002" y1="57.6250000000001" x2="98.9000000000002" y2="57.6250000000002"/>
    <line x1="98.9000000000002" y1="57.6250000000002" x2="98.9000000000006" y2="54.4500000000002"/>
    <line x1="98.9000000000006" y1="54.4500000000002" x2="102.075000000001" y2="54.4500000000002"/>
    <line x1="102.075000000001" y1="54.4500000000002" x2="102.075" y2="57.6250000000003"/>
    <line x1="102.075" y1="57.6250000000003" x2="105.25" y2="57.6250000000001"/>
    <line x1="105.25" y1="57.6250000000001" x2="105.250000000001" y2="54.4500000000002"/>
    <line x1="105.250000000001" y1="54.4500000000002" x2="108.425" y2="54.4500000000003"/>
    <line x1="108.425" y1="54.4500000000003" x2="108.425" y2="51.2750000000002"/>
    <line x1="108.425" y1="51.2750000000002" x2="111.6" y2="51.2750000000002"/>
    <line x1="111.6" y1="51.2750000000002" x2="111.6" y2="48.1000000000003"/>
    <line x1="111.6" y1="48.1000000000003" x2="108.425" y2="48.1000000000003"/>
    <line x1="108.425" y1="48.1000000000003" x2="108.425" y2="44.9250000000002"/>
    <line x1="108.425" y1="44.9250000000002" x2="111.6" y2="44.9250000000002"/>
    <line x1="111.6" y1="44.9250000000002" x2="111.6" y2="41.7500000000002"/>
    <line x1="111.6" y1="41.7500000000002" x2="108.425" y2="41.7500000000003"/>
    <line x1="108.425" y1="41.7500000000003" x2="108.425" y2="38.5750000000002"/>
    <line x1="108.425" y1="38.5750000000002" x2="111.6" y2="38.5750000000002"/>
    <line x1="111.6" y1="38.5750000000002" x2="111.6" y2="35.4000000000003"/>
    <line x1="111.6" y1="35.4000000000003" x2="108.425" y2="35.4000000000003"/>
    <line x1="108.425" y1="35.4000000000003" x2="108.425" y2="32.2250000000002"/>
    <line x1="108.425" y1="32.2250000000002" x2="111.6" y2="32.2250000000002"/>
    <line x1="111.6" y1="32.2250000000002" x2="111.6" y2="29.0500000000003"/>
    <line x1="111.6" y1="29.0500000000003" x2="108.425" y2="29.0500000000003"/>
    <line x1="108.425" y1="29.0500000000003" x2="108.425" y2="25.8750000000002"/>
    <line x1="108.425" y1="25.8750000000002" x2="111.6" y2="25.8750000000003"/>
    <line x1="111.6" y1="25.8750000000003" x2="111.6" y2="22.7000000000002"/>
    <line x1="111.6" y1="22.7000000000002" x2="108.425" y2="22.7000000000003"/>
    <line x1="108.425" y1="22.7000000000003" x2="108.425" y2="19.5250000000005"/>
    <line x1="108.425" y1="19.5250000000005" x2="111.6" y2="19.5250000000003"/>
    <line x1="111.6" y1="19.5250000000003" x2="111.6" y2="16.3500000000006"/>
    <line x1="111.6" y1="16.3500000000006" x2="108.425" y2="16.3499999999999"/>
    <line x1="108.425" y1="16.3499999999999" x2="108.425" y2="13.1750000000002"/>
    <line x1="108.425" y1="13.1750000000002" x2="105.25" y2="13.1750000000002"/>
    <line x1="105.25" y1="13.1750000000002" x2="102.075" y2="13.1750000000002"/>
    <line x1="102.075" y1="13.1750000000002" x2="102.075" y2="10.0000000000002"/>
    <line x1="102.075" y1="10.0000000000002" x2="98.9000000000004" y2="10.0"/>
    <line x1="98.9000000000004" y1="10.0" x2="98.9000000000004" y2="13.1750000000002"/>
    <line x1="98.9000000000004" y1="13.1750000000002" x2="95.7250000000004" y2="13.1750000000002"/>
    <line x1="95.7250000000004" y1="13.1750000000002" x2="95.7250000000004" y2="10.0000000000001"/>
    <line x1="95.7250000000004" y1="10.0000000000001" x2="92.5500000000004" y2="10.0000000000001"/>
    <line x1="92.5500000000004" y1="10.0000000000001" x2="92.5500000000004" y2="13.1750000000002"/>
    <line x1="92.5500000000004" y1="13.1750000000002" x2="89.3750000000004" y2="13.1750000000002"/>
    <line x1="89.3750000000004" y1="13.1750000000002" x2="89.3750000000004" y2="10.0000000000005"/>
    <line x1="89.3750000000004" y1="10.0000000000005" x2="86.2000000000003" y2="10.0000000000004"/>
    <line x1="86.2000000000003" y1="10.0000000000004" x2="86.2000083274847" y2="13.1750000000002"/>
    <line x1="86.2000083274847" y1="13.1750000000002" x2="83.0250087240316" y2="13.1750000000002"/>
    <line x1="83.0250087240316" y1="13.1750000000002" x2="83.0250000000003" y2="10.0341079117079"/>
    <line x1="83.0250000000003" y1="10.0341079117079" x2="79.8500000000003" y2="10.0341079117079"/>
    <line x1="79.8500000000003" y1="10.0341079117079" x2="79.8500091602331" y2="13.1750000000002"/>
    <line x1="79.8500091602331" y1="13.1750000000002" x2="76.6750096423505" y2="13.1750000000002"/>
    <line x1="76.6750096423505" y1="13.1750000000002" x2="76.6750000000003" y2="10.0"/>
    <line x1="76.6750000000003" y1="10.0" x2="73.5000000000003" y2="10.0000000000003"/>
    <line x1="73.5000000000003" y1="10.0000000000003" x2="73.5000000000003" y2="13.1750000000002"/>
    <line x1="73.5000000000003" y1="13.1750000000002" x2="70.3250000000003" y2="13.1750000000002"/>
    <line x1="70.3250000000003" y1="13.1750000000002" x2="70.3250000000003" y2="10.0341079117079"/>
    <line x1="70.3250000000003" y1="10.0341079117079" x2="67.1500000000003" y2="10.0341079117079"/>
    <line x1="67.1500000000003" y1="10.0341079117079" x2="67.1500000000003" y2="13.1750000000002"/>
    <line x1="67.1500000000003" y1="13.1750000000002" x2="63.9750000000003" y2="13.1750000000002"/>
    <line x1="63.9750000000003" y1="13.1750000000002" x2="63.9750000000003" y2="10.0341079117079"/>
    <line x1="63.9750000000003" y1="10.0341079117079" x2="60.8000000000003" y2="10.0341079117079"/>
    <line x1="60.8000000000003" y1="10.0341079117079" x2="60.8000130860461" y2="13.1750000000002"/>
    <line x1="60.8000130860461" y1="13.1750000000002" x2="57.6250140926646" y2="13.1750000000002"/>
    <line x1="57.6250140926646" y1="13.1750000000002" x2="57.6250000000003" y2="10.034107911708"/>
    <line x1="57.6250000000003" y1="10.034107911708" x2="54.4500000000003" y2="10.034107911708"/>
    <line x1="54.4500000000003" y1="10.034107911708" x2="54.4500000000003" y2="13.1750000000002"/>
    <line x1="54.4500000000003" y1="13.1750000000002" x2="51.2750000000003" y2="13.1750000000002"/>
    <line x1="51.2750000000003" y1="13.1750000000002" x2="51.2750000000003" y2="10.0000000000002"/>
    <line x1="51.2750000000003" y1="10.0000000000002" x2="48.1000000000002" y2="10.0000000000002"/>
    <line x1="48.1000000000002" y1="10.0000000000002" x2="48.1000000000002" y2="13.1750000000002"/>
    <line x1="48.1000000000002" y1="13.1750000000002" x2="44.9250000000002" y2="13.1750000000002"/>
    <line x1="44.9250000000002" y1="13.1750000000002" x2="44.9250000000002" y2="10.0000000000002"/>
    <line x1="44.9250000000002" y1="10.0000000000002" x2="41.7500000000003" y2="10.0000000000002"/>
    <line x1="41.7500000000003" y1="10.0000000000002" x2="41.7500000000002" y2="13.2091079117067"/>
    <line x1="41.7500000000002" y1="13.2091079117067" x2="38.5750000000002" y2="13.2091079117068"/>
    <line x1="38.5750000000002" y1="13.2091079117068" x2="38.5750000000003" y2="10.0000000000003"/>
    <line x1="38.5750000000003" y1="10.0000000000003" x2="35.4000000000002" y2="10.0000000000002"/>
    <line x1="35.4000000000002" y1="10.0000000000002" x2="35.4000000000002" y2="13.2091079117082"/>
    <line x1="35.4000000000002" y1="13.2091079117082" x2="32.2250000000002" y2="13.209107911708"/>
    <line x1="32.2250000000002" y1="13.209107911708" x2="32.2250000000002" y2="10.034107911708"/>
    <line x1="32.2250000000002" y1="10.034107911708" x2="29.0500000000002" y2="10.034107911708"/>
    <line x1="29.0500000000002" y1="10.034107911708" x2="29.0500000000002" y2="13.2091079117086"/>
    <line x1="29.0500000000002" y1="13.2091079117086" x2="25.8750000000002" y2="13.2091079117082"/>
    <line x1="25.8750000000002" y1="13.2091079117082" x2="25.8750000000002" y2="10.034107911708"/>
    <line x1="25.8750000000002" y1="10.034107911708" x2="22.7000000000002" y2="10.034107911708"/>
    <line x1="22.7000000000002" y1="10.034107911708" x2="22.7000000000002" y2="13.209107911708"/>
    <line x1="22.7000000000002" y1="13.209107911708" x2="19.5250000000002" y2="13.209107911708"/>
    <line x1="19.5250000000002" y1="13.209107911708" x2="19.5250000000002" y2="10.034107911708"/>
    <line x1="19.5250000000002" y1="10.034107911708" x2="16.3500000000002" y2="10.034107911708"/>
    <line x1="16.3500000000002" y1="10.034107911708" x2="16.3500000000002" y2="13.1750000000002"/>
  </g>
</svg>
