<?xml version="1.0" standalone="no"?>
<!DOCTYPE svg PUBLIC "-//W3C//DTD SVG 1.1//EN" "http://www.w3.org/Graphics/SVG/1.1/DTD/svg11.dtd">
<svg width="96.2mm" height="45.4mm"
 viewBox="0 0 96.2 45.4"
 xmlns="http://www.w3.org/2000/svg" version="1.1"
 xmlns:xlink="http://www.w3.org/1999/xlink">
<desc>Output from Flights of Ideas SVG Sketchup Plugin</desc>

  <g id="face0" fill="none" stroke="rgb(0,0,255)" stroke-width="1" stroke-miterlimit="4" stroke-dasharray="none" stroke-linejoin="round" stroke-linecap="round">
    <line x1="25.875" y1="22.7" x2="25.875" y2="35.4"/>
    <line x1="25.875" y1="35.4" x2="49.6875" y2="35.4"/>
    <line x1="49.6875" y1="35.4" x2="49.6875" y2="22.7"/>
    <line x1="49.6875" y1="22.7" x2="52.8625" y2="22.7"/>
    <line x1="52.8625" y1="22.7" x2="52.8625" y2="35.4"/>
    <line x1="52.8625" y1="35.4" x2="73.5" y2="35.4"/>
    <line x1="73.5" y1="35.4" x2="73.5" y2="22.7"/>
    <line x1="73.5" y1="22.7" x2="76.675" y2="22.7"/>
    <line x1="76.675" y1="22.7" x2="76.675" y2="35.4"/>
    <line x1="76.675" y1="35.4" x2="86.2" y2="35.4"/>
    <line x1="86.2" y1="35.4" x2="86.2" y2="10.0"/>
    <line x1="86.2" y1="10.0" x2="10.0" y2="10.0"/>
    <line x1="10.0" y1="10.0" x2="10.0" y2="35.4"/>
    <line x1="10.0" y1="35.4" x2="22.7" y2="35.4"/>
    <line x1="22.7" y1="35.4" x2="22.7" y2="22.7"/>
    <line x1="22.7" y1="22.7" x2="25.875" y2="22.7"/>
  </g>
</svg>
