<?xml version="1.0" standalone="no"?>
<!DOCTYPE svg PUBLIC "-//W3C//DTD SVG 1.1//EN" "http://www.w3.org/Graphics/SVG/1.1/DTD/svg11.dtd">
<svg width="73.9750000000109mm" height="228.987666923427mm"
 viewBox="0 0 73.9750000000109 228.987666923427"
 xmlns="http://www.w3.org/2000/svg" version="1.1"
 xmlns:xlink="http://www.w3.org/1999/xlink">
<desc>Output from Flights of Ideas SVG Sketchup Plugin</desc>

  <g id="face0" fill="none" stroke="rgb(0,0,255)" stroke-width="1" stroke-miterlimit="4" stroke-dasharray="none" stroke-linejoin="round" stroke-linecap="round">
    <line x1="60.2576155906775" y1="55.6000000000016" x2="34.0376155906748" y2="59.7951999999978"/>
    <line x1="34.0376155906748" y1="59.7951999999978" x2="34.037615590675" y2="60.9351999999974"/>
    <line x1="34.037615590675" y1="60.9351999999974" x2="31.7576155906755" y2="60.935199999998"/>
    <line x1="31.7576155906755" y1="60.935199999998" x2="31.7576155906755" y2="60.159999999998"/>
    <line x1="31.7576155906755" y1="60.159999999998" x2="31.7576155906781" y2="37.3599999999979"/>
    <line x1="31.7576155906781" y1="37.3599999999979" x2="30.6176155906784" y2="37.3599999999985"/>
    <line x1="30.6176155906784" y1="37.3599999999985" x2="30.6176155906786" y2="35.0799999999991"/>
    <line x1="30.6176155906786" y1="35.0799999999991" x2="31.7576155906797" y2="35.0799999999989"/>
    <line x1="31.7576155906797" y1="35.0799999999989" x2="34.8356155907022" y2="35.0799999999985"/>
    <line x1="34.8356155907022" y1="35.0799999999985" x2="35.9756155906557" y2="35.079999999999"/>
    <line x1="35.9756155906557" y1="35.079999999999" x2="35.9756155906568" y2="25.9599999999981"/>
    <line x1="35.9756155906568" y1="25.9599999999981" x2="40.0796155906569" y2="25.9599999999986"/>
    <line x1="40.0796155906569" y1="25.9599999999986" x2="40.0796155906558" y2="35.0799999999996"/>
    <line x1="40.0796155906558" y1="35.0799999999996" x2="43.1576155906783" y2="35.0799999999992"/>
    <line x1="43.1576155906783" y1="35.0799999999992" x2="43.1576155906799" y2="32.8000000000002"/>
    <line x1="43.1576155906799" y1="32.8000000000002" x2="43.1576155906826" y2="10.0"/>
    <line x1="43.1576155906826" y1="10.0" x2="40.8776155906833" y2="10.3648000000002"/>
    <line x1="40.8776155906833" y1="10.3648000000002" x2="14.6576155906808" y2="14.5599999999958"/>
    <line x1="14.6576155906808" y1="14.5599999999958" x2="13.1750000000058" y2="15.7876669234205"/>
    <line x1="13.1750000000058" y1="15.7876669234205" x2="13.1750000000056" y2="18.9626669234204"/>
    <line x1="13.1750000000056" y1="18.9626669234204" x2="10.0000000000056" y2="18.9626669234203"/>
    <line x1="10.0000000000056" y1="18.9626669234203" x2="10.0000000000055" y2="22.1376669234203"/>
    <line x1="10.0000000000055" y1="22.1376669234203" x2="13.1750000000055" y2="22.1376669234204"/>
    <line x1="13.1750000000055" y1="22.1376669234204" x2="13.1750000000054" y2="25.3126669234204"/>
    <line x1="13.1750000000054" y1="25.3126669234204" x2="10.0000000000055" y2="25.3126669234203"/>
    <line x1="10.0000000000055" y1="25.3126669234203" x2="10.0000000000054" y2="28.4876669234202"/>
    <line x1="10.0000000000054" y1="28.4876669234202" x2="13.1750000000053" y2="28.4876669234204"/>
    <line x1="13.1750000000053" y1="28.4876669234204" x2="13.1750000000053" y2="31.6626669234204"/>
    <line x1="13.1750000000053" y1="31.6626669234204" x2="10.0000000000053" y2="31.6626669234203"/>
    <line x1="10.0000000000053" y1="31.6626669234203" x2="10.0000000000051" y2="34.8376669234202"/>
    <line x1="10.0000000000051" y1="34.8376669234202" x2="13.1750000000052" y2="34.8376669234204"/>
    <line x1="13.1750000000052" y1="34.8376669234204" x2="13.1750000000051" y2="38.0126669234203"/>
    <line x1="13.1750000000051" y1="38.0126669234203" x2="10.000000000005" y2="38.0126669234203"/>
    <line x1="10.000000000005" y1="38.0126669234203" x2="10.000000000005" y2="41.1876669234203"/>
    <line x1="10.000000000005" y1="41.1876669234203" x2="13.175000000005" y2="41.1876669234204"/>
    <line x1="13.175000000005" y1="41.1876669234204" x2="13.1750000000049" y2="44.3626669234203"/>
    <line x1="13.1750000000049" y1="44.3626669234203" x2="10.0000000000049" y2="44.3626669234202"/>
    <line x1="10.0000000000049" y1="44.3626669234202" x2="10.0000000000048" y2="47.5376669234203"/>
    <line x1="10.0000000000048" y1="47.5376669234203" x2="13.1750000000048" y2="47.5376669234203"/>
    <line x1="13.1750000000048" y1="47.5376669234203" x2="13.1750000000047" y2="50.7126669234202"/>
    <line x1="13.1750000000047" y1="50.7126669234202" x2="10.0000000000048" y2="50.7126669234202"/>
    <line x1="10.0000000000048" y1="50.7126669234202" x2="10.0000000000047" y2="53.8876669234205"/>
    <line x1="10.0000000000047" y1="53.8876669234205" x2="13.1750000000046" y2="53.8876669234202"/>
    <line x1="13.1750000000046" y1="53.8876669234202" x2="13.1750000000045" y2="57.0626669234202"/>
    <line x1="13.1750000000045" y1="57.0626669234202" x2="10.0000000000045" y2="57.0626669234204"/>
    <line x1="10.0000000000045" y1="57.0626669234204" x2="10.0000000000045" y2="60.2376669234202"/>
    <line x1="10.0000000000045" y1="60.2376669234202" x2="13.1750000000044" y2="60.2376669234202"/>
    <line x1="13.1750000000044" y1="60.2376669234202" x2="13.1750000000044" y2="63.4126669234203"/>
    <line x1="13.1750000000044" y1="63.4126669234203" x2="10.0000000000044" y2="63.4126669234203"/>
    <line x1="10.0000000000044" y1="63.4126669234203" x2="10.0000000000043" y2="66.5876669234203"/>
    <line x1="10.0000000000043" y1="66.5876669234203" x2="13.1750000000043" y2="66.5876669234203"/>
    <line x1="13.1750000000043" y1="66.5876669234203" x2="13.1750000000041" y2="69.7626669234203"/>
    <line x1="13.1750000000041" y1="69.7626669234203" x2="10.0000000000042" y2="69.7626669234203"/>
    <line x1="10.0000000000042" y1="69.7626669234203" x2="10.0000000000041" y2="72.9376669234202"/>
    <line x1="10.0000000000041" y1="72.9376669234202" x2="13.1750000000041" y2="72.9376669234203"/>
    <line x1="13.1750000000041" y1="72.9376669234203" x2="13.175000000004" y2="76.1126669234203"/>
    <line x1="13.175000000004" y1="76.1126669234203" x2="10.000000000004" y2="76.1126669234203"/>
    <line x1="10.000000000004" y1="76.1126669234203" x2="10.0000000000039" y2="79.2876669234202"/>
    <line x1="10.0000000000039" y1="79.2876669234202" x2="13.1750000000039" y2="79.2876669234203"/>
    <line x1="13.1750000000039" y1="79.2876669234203" x2="13.1750000000038" y2="82.4626669234203"/>
    <line x1="13.1750000000038" y1="82.4626669234203" x2="10.0000000000038" y2="82.4626669234202"/>
    <line x1="10.0000000000038" y1="82.4626669234202" x2="10.0000000000037" y2="85.6376669234203"/>
    <line x1="10.0000000000037" y1="85.6376669234203" x2="13.1750000000038" y2="85.6376669234203"/>
    <line x1="13.1750000000038" y1="85.6376669234203" x2="16.3500000000027" y2="85.6376669235058"/>
    <line x1="16.3500000000027" y1="85.6376669235058" x2="41.7500000000027" y2="85.6376669235058"/>
    <line x1="41.7500000000027" y1="85.6376669235058" x2="41.7500000000027" y2="88.8126669235058"/>
    <line x1="41.7500000000027" y1="88.8126669235058" x2="16.3500000000027" y2="88.8126669235058"/>
    <line x1="16.3500000000027" y1="88.8126669235058" x2="16.3500000000027" y2="85.6376669235058"/>
    <line x1="16.3500000000027" y1="85.6376669235058" x2="13.1750000000038" y2="85.6376669234203"/>
    <line x1="13.1750000000038" y1="85.6376669234203" x2="13.1750000000036" y2="88.8126669234203"/>
    <line x1="13.1750000000036" y1="88.8126669234203" x2="10.0000000000036" y2="88.8126669234203"/>
    <line x1="10.0000000000036" y1="88.8126669234203" x2="10.0000000000035" y2="91.9876669234202"/>
    <line x1="10.0000000000035" y1="91.9876669234202" x2="13.1750000000035" y2="91.9876669234203"/>
    <line x1="13.1750000000035" y1="91.9876669234203" x2="13.1750000000035" y2="95.1626669234203"/>
    <line x1="13.1750000000035" y1="95.1626669234203" x2="10.0000000000035" y2="95.1626669234202"/>
    <line x1="10.0000000000035" y1="95.1626669234202" x2="10.0000000000034" y2="98.3376669234202"/>
    <line x1="10.0000000000034" y1="98.3376669234202" x2="13.1750000000034" y2="98.3376669234203"/>
    <line x1="13.1750000000034" y1="98.3376669234203" x2="13.1750000000032" y2="101.51266692342"/>
    <line x1="13.1750000000032" y1="101.51266692342" x2="10.0000000000033" y2="101.51266692342"/>
    <line x1="10.0000000000033" y1="101.51266692342" x2="10.0000000000032" y2="104.68766692342"/>
    <line x1="10.0000000000032" y1="104.68766692342" x2="13.1750000000032" y2="104.68766692342"/>
    <line x1="13.1750000000032" y1="104.68766692342" x2="13.1750000000031" y2="107.86266692342"/>
    <line x1="13.1750000000031" y1="107.86266692342" x2="10.0000000000032" y2="107.86266692342"/>
    <line x1="10.0000000000032" y1="107.86266692342" x2="10.0000000000031" y2="111.03766692342"/>
    <line x1="10.0000000000031" y1="111.03766692342" x2="13.175000000003" y2="111.03766692342"/>
    <line x1="13.175000000003" y1="111.03766692342" x2="13.1750000000029" y2="114.21266692342"/>
    <line x1="13.1750000000029" y1="114.21266692342" x2="10.0000000000029" y2="114.21266692342"/>
    <line x1="10.0000000000029" y1="114.21266692342" x2="10.0000000000029" y2="117.38766692342"/>
    <line x1="10.0000000000029" y1="117.38766692342" x2="13.1750000000028" y2="117.38766692342"/>
    <line x1="13.1750000000028" y1="117.38766692342" x2="13.1750000000028" y2="120.56266692342"/>
    <line x1="13.1750000000028" y1="120.56266692342" x2="10.0000000000028" y2="120.56266692342"/>
    <line x1="10.0000000000028" y1="120.56266692342" x2="10.0000000000027" y2="123.73766692342"/>
    <line x1="10.0000000000027" y1="123.73766692342" x2="13.1750000000027" y2="123.73766692342"/>
    <line x1="13.1750000000027" y1="123.73766692342" x2="13.1750000000026" y2="126.91266692342"/>
    <line x1="13.1750000000026" y1="126.91266692342" x2="10.0000000000026" y2="126.91266692342"/>
    <line x1="10.0000000000026" y1="126.91266692342" x2="10.0000000000025" y2="130.08766692342"/>
    <line x1="10.0000000000025" y1="130.08766692342" x2="13.1750000000025" y2="130.08766692342"/>
    <line x1="13.1750000000025" y1="130.08766692342" x2="13.1750000000024" y2="133.26266692342"/>
    <line x1="13.1750000000024" y1="133.26266692342" x2="10.0000000000024" y2="133.26266692342"/>
    <line x1="10.0000000000024" y1="133.26266692342" x2="10.0000000000023" y2="136.43766692342"/>
    <line x1="10.0000000000023" y1="136.43766692342" x2="13.1750000000023" y2="136.43766692342"/>
    <line x1="13.1750000000023" y1="136.43766692342" x2="13.1750000000001" y2="136.715587789416"/>
    <line x1="13.1750000000001" y1="136.715587789416" x2="16.3500000000027" y2="136.715587789374"/>
    <line x1="16.3500000000027" y1="136.715587789374" x2="41.7500000000027" y2="136.715587789374"/>
    <line x1="41.7500000000027" y1="136.715587789374" x2="41.7500000000027" y2="139.890587789374"/>
    <line x1="41.7500000000027" y1="139.890587789374" x2="16.3500000000027" y2="139.890587789374"/>
    <line x1="16.3500000000027" y1="139.890587789374" x2="16.3500000000027" y2="136.715587789374"/>
    <line x1="16.3500000000027" y1="136.715587789374" x2="13.1750000000001" y2="136.715587789416"/>
    <line x1="13.1750000000001" y1="136.715587789416" x2="13.1750000000022" y2="139.61266692342"/>
    <line x1="13.1750000000022" y1="139.61266692342" x2="10.0000000000022" y2="139.61266692342"/>
    <line x1="10.0000000000022" y1="139.61266692342" x2="10.0000000000021" y2="142.78766692342"/>
    <line x1="10.0000000000021" y1="142.78766692342" x2="13.1750000000021" y2="142.78766692342"/>
    <line x1="13.1750000000021" y1="142.78766692342" x2="13.175000000002" y2="145.96266692342"/>
    <line x1="13.175000000002" y1="145.96266692342" x2="10.000000000002" y2="145.96266692342"/>
    <line x1="10.000000000002" y1="145.96266692342" x2="10.0000000000019" y2="149.13766692342"/>
    <line x1="10.0000000000019" y1="149.13766692342" x2="13.1750000000019" y2="149.13766692342"/>
    <line x1="13.1750000000019" y1="149.13766692342" x2="13.1750000000018" y2="152.31266692342"/>
    <line x1="13.1750000000018" y1="152.31266692342" x2="10.0000000000018" y2="152.31266692342"/>
    <line x1="10.0000000000018" y1="152.31266692342" x2="10.0000000000017" y2="155.48766692342"/>
    <line x1="10.0000000000017" y1="155.48766692342" x2="13.1750000000018" y2="155.48766692342"/>
    <line x1="13.1750000000018" y1="155.48766692342" x2="13.1750000000016" y2="158.66266692342"/>
    <line x1="13.1750000000016" y1="158.66266692342" x2="10.0000000000016" y2="158.66266692342"/>
    <line x1="10.0000000000016" y1="158.66266692342" x2="10.0000000000015" y2="161.83766692342"/>
    <line x1="10.0000000000015" y1="161.83766692342" x2="13.1750000000015" y2="161.83766692342"/>
    <line x1="13.1750000000015" y1="161.83766692342" x2="13.1750000000015" y2="165.01266692342"/>
    <line x1="13.1750000000015" y1="165.01266692342" x2="10.0000000000015" y2="165.01266692342"/>
    <line x1="10.0000000000015" y1="165.01266692342" x2="10.0000000000015" y2="168.18766692342"/>
    <line x1="10.0000000000015" y1="168.18766692342" x2="13.1750000000015" y2="168.18766692342"/>
    <line x1="13.1750000000015" y1="168.18766692342" x2="13.1750000000013" y2="171.36266692342"/>
    <line x1="13.1750000000013" y1="171.36266692342" x2="10.0000000000013" y2="171.36266692342"/>
    <line x1="10.0000000000013" y1="171.36266692342" x2="10.0000000000012" y2="174.53766692342"/>
    <line x1="10.0000000000012" y1="174.53766692342" x2="13.1750000000012" y2="174.53766692342"/>
    <line x1="13.1750000000012" y1="174.53766692342" x2="13.1750000000011" y2="177.71266692342"/>
    <line x1="13.1750000000011" y1="177.71266692342" x2="10.0000000000012" y2="177.71266692342"/>
    <line x1="10.0000000000012" y1="177.71266692342" x2="10.000000000001" y2="180.88766692342"/>
    <line x1="10.000000000001" y1="180.88766692342" x2="13.175000000001" y2="180.88766692342"/>
    <line x1="13.175000000001" y1="180.88766692342" x2="13.1750000000009" y2="184.06266692342"/>
    <line x1="13.1750000000009" y1="184.06266692342" x2="10.0000000000009" y2="184.06266692342"/>
    <line x1="10.0000000000009" y1="184.06266692342" x2="10.0000000000009" y2="187.23766692342"/>
    <line x1="10.0000000000009" y1="187.23766692342" x2="13.1750000000008" y2="187.23766692342"/>
    <line x1="13.1750000000008" y1="187.23766692342" x2="13.1750000000007" y2="190.41266692342"/>
    <line x1="13.1750000000007" y1="190.41266692342" x2="10.0000000000008" y2="190.41266692342"/>
    <line x1="10.0000000000008" y1="190.41266692342" x2="10.0000000000007" y2="193.58766692342"/>
    <line x1="10.0000000000007" y1="193.58766692342" x2="13.1750000000007" y2="193.58766692342"/>
    <line x1="13.1750000000007" y1="193.58766692342" x2="13.1750000000006" y2="196.76266692342"/>
    <line x1="13.1750000000006" y1="196.76266692342" x2="10.0000000000006" y2="196.76266692342"/>
    <line x1="10.0000000000006" y1="196.76266692342" x2="10.0000000000005" y2="199.93766692342"/>
    <line x1="10.0000000000005" y1="199.93766692342" x2="13.1750000000005" y2="199.93766692342"/>
    <line x1="13.1750000000005" y1="199.93766692342" x2="13.1750000000004" y2="203.11266692342"/>
    <line x1="13.1750000000004" y1="203.11266692342" x2="10.0000000000004" y2="203.11266692342"/>
    <line x1="10.0000000000004" y1="203.11266692342" x2="10.0000000000003" y2="206.28766692342"/>
    <line x1="10.0000000000003" y1="206.28766692342" x2="13.1750000000003" y2="206.28766692342"/>
    <line x1="13.1750000000003" y1="206.28766692342" x2="13.1750000000002" y2="209.46266692342"/>
    <line x1="13.1750000000002" y1="209.46266692342" x2="10.0000000000002" y2="209.46266692342"/>
    <line x1="10.0000000000002" y1="209.46266692342" x2="10.0000000000002" y2="212.63766692342"/>
    <line x1="10.0000000000002" y1="212.63766692342" x2="13.1750000000002" y2="212.63766692342"/>
    <line x1="13.1750000000002" y1="212.63766692342" x2="13.1750000000001" y2="215.81266692342"/>
    <line x1="13.1750000000001" y1="215.81266692342" x2="10.0000000000001" y2="215.812666923419"/>
    <line x1="10.0000000000001" y1="215.812666923419" x2="10.0" y2="218.98766692342"/>
    <line x1="10.0" y1="218.98766692342" x2="16.3500000000086" y2="218.987666923421"/>
    <line x1="16.3500000000086" y1="218.987666923421" x2="16.3500000000086" y2="215.812666923421"/>
    <line x1="16.3500000000086" y1="215.812666923421" x2="19.5250000000031" y2="215.812666923421"/>
    <line x1="19.5250000000031" y1="215.812666923421" x2="19.5250000000031" y2="218.987666923421"/>
    <line x1="19.5250000000031" y1="218.987666923421" x2="22.6999999999997" y2="218.987666923426"/>
    <line x1="22.6999999999997" y1="218.987666923426" x2="22.6999999999997" y2="215.812666923426"/>
    <line x1="22.6999999999997" y1="215.812666923426" x2="25.8749999999997" y2="215.812666923426"/>
    <line x1="25.8749999999997" y1="215.812666923426" x2="25.8749999999997" y2="218.987666923426"/>
    <line x1="25.8749999999997" y1="218.987666923426" x2="29.0499999999997" y2="218.987666923426"/>
    <line x1="29.0499999999997" y1="218.987666923426" x2="29.0499999999997" y2="215.812666923426"/>
    <line x1="29.0499999999997" y1="215.812666923426" x2="32.2249999999997" y2="215.812666923426"/>
    <line x1="32.2249999999997" y1="215.812666923426" x2="32.2249999999997" y2="218.987666923426"/>
    <line x1="32.2249999999997" y1="218.987666923426" x2="35.3999999999997" y2="218.987666923426"/>
    <line x1="35.3999999999997" y1="218.987666923426" x2="35.3999999999997" y2="215.812666923426"/>
    <line x1="35.3999999999997" y1="215.812666923426" x2="38.5749999999996" y2="215.812666923427"/>
    <line x1="38.5749999999996" y1="215.812666923427" x2="38.5749999999997" y2="218.987666923426"/>
    <line x1="38.5749999999997" y1="218.987666923426" x2="41.7499999999997" y2="218.987666923426"/>
    <line x1="41.7499999999997" y1="218.987666923426" x2="41.7499999999997" y2="215.812666923427"/>
    <line x1="41.7499999999997" y1="215.812666923427" x2="44.9249999999997" y2="215.812666923427"/>
    <line x1="44.9249999999997" y1="215.812666923427" x2="44.9249999999997" y2="218.987666923426"/>
    <line x1="44.9249999999997" y1="218.987666923426" x2="48.0999999999997" y2="218.987666923426"/>
    <line x1="48.0999999999997" y1="218.987666923426" x2="48.0999999999997" y2="215.812666923427"/>
    <line x1="48.0999999999997" y1="215.812666923427" x2="51.2749999999997" y2="215.812666923427"/>
    <line x1="51.2749999999997" y1="215.812666923427" x2="51.2749999999997" y2="218.987666923427"/>
    <line x1="51.2749999999997" y1="218.987666923427" x2="54.4499999999997" y2="218.987666923427"/>
    <line x1="54.4499999999997" y1="218.987666923427" x2="54.4499999999997" y2="215.812666923427"/>
    <line x1="54.4499999999997" y1="215.812666923427" x2="57.6249999999997" y2="215.812666923427"/>
    <line x1="57.6249999999997" y1="215.812666923427" x2="57.6250000000001" y2="218.987666923422"/>
    <line x1="57.6250000000001" y1="218.987666923422" x2="63.9750000000109" y2="218.987666923422"/>
    <line x1="63.9750000000109" y1="218.987666923422" x2="63.9750000000107" y2="215.812666923421"/>
    <line x1="63.9750000000107" y1="215.812666923421" x2="60.8000000000107" y2="215.812666923421"/>
    <line x1="60.8000000000107" y1="215.812666923421" x2="60.8000000000106" y2="212.637666923421"/>
    <line x1="60.8000000000106" y1="212.637666923421" x2="63.9750000000106" y2="212.637666923421"/>
    <line x1="63.9750000000106" y1="212.637666923421" x2="63.9750000000105" y2="209.462666923421"/>
    <line x1="63.9750000000105" y1="209.462666923421" x2="60.8000000000106" y2="209.462666923421"/>
    <line x1="60.8000000000106" y1="209.462666923421" x2="60.8000000000105" y2="206.287666923421"/>
    <line x1="60.8000000000105" y1="206.287666923421" x2="63.9750000000105" y2="206.287666923421"/>
    <line x1="63.9750000000105" y1="206.287666923421" x2="63.9750000000104" y2="203.112666923421"/>
    <line x1="63.9750000000104" y1="203.112666923421" x2="60.8000000000104" y2="203.112666923421"/>
    <line x1="60.8000000000104" y1="203.112666923421" x2="60.8000000000103" y2="199.937666923421"/>
    <line x1="60.8000000000103" y1="199.937666923421" x2="63.9750000000103" y2="199.937666923421"/>
    <line x1="63.9750000000103" y1="199.937666923421" x2="63.9750000000102" y2="196.762666923421"/>
    <line x1="63.9750000000102" y1="196.762666923421" x2="60.8000000000102" y2="196.762666923421"/>
    <line x1="60.8000000000102" y1="196.762666923421" x2="60.8000000000101" y2="193.587666923421"/>
    <line x1="60.8000000000101" y1="193.587666923421" x2="63.9750000000101" y2="193.587666923421"/>
    <line x1="63.9750000000101" y1="193.587666923421" x2="63.97500000001" y2="190.412666923421"/>
    <line x1="63.97500000001" y1="190.412666923421" x2="60.80000000001" y2="190.412666923421"/>
    <line x1="60.80000000001" y1="190.412666923421" x2="60.80000000001" y2="187.237666923421"/>
    <line x1="60.80000000001" y1="187.237666923421" x2="63.97500000001" y2="187.237666923421"/>
    <line x1="63.97500000001" y1="187.237666923421" x2="63.9750000000098" y2="184.062666923421"/>
    <line x1="63.9750000000098" y1="184.062666923421" x2="60.8000000000098" y2="184.062666923421"/>
    <line x1="60.8000000000098" y1="184.062666923421" x2="60.8000000000098" y2="180.887666923421"/>
    <line x1="60.8000000000098" y1="180.887666923421" x2="63.9750000000097" y2="180.887666923421"/>
    <line x1="63.9750000000097" y1="180.887666923421" x2="63.9750000000096" y2="177.712666923421"/>
    <line x1="63.9750000000096" y1="177.712666923421" x2="60.8000000000096" y2="177.712666923421"/>
    <line x1="60.8000000000096" y1="177.712666923421" x2="60.8000000000096" y2="174.537666923421"/>
    <line x1="60.8000000000096" y1="174.537666923421" x2="63.9750000000096" y2="174.537666923421"/>
    <line x1="63.9750000000096" y1="174.537666923421" x2="63.9750000000095" y2="171.362666923421"/>
    <line x1="63.9750000000095" y1="171.362666923421" x2="60.8000000000095" y2="171.362666923421"/>
    <line x1="60.8000000000095" y1="171.362666923421" x2="60.8000000000094" y2="168.187666923421"/>
    <line x1="60.8000000000094" y1="168.187666923421" x2="63.9750000000093" y2="168.187666923421"/>
    <line x1="63.9750000000093" y1="168.187666923421" x2="63.9750000000092" y2="165.012666923421"/>
    <line x1="63.9750000000092" y1="165.012666923421" x2="60.8000000000093" y2="165.012666923421"/>
    <line x1="60.8000000000093" y1="165.012666923421" x2="60.8000000000092" y2="161.837666923421"/>
    <line x1="60.8000000000092" y1="161.837666923421" x2="63.9750000000092" y2="161.837666923421"/>
    <line x1="63.9750000000092" y1="161.837666923421" x2="63.9750000000091" y2="158.662666923421"/>
    <line x1="63.9750000000091" y1="158.662666923421" x2="60.8000000000091" y2="158.662666923421"/>
    <line x1="60.8000000000091" y1="158.662666923421" x2="60.800000000009" y2="155.487666923421"/>
    <line x1="60.800000000009" y1="155.487666923421" x2="63.975000000009" y2="155.487666923421"/>
    <line x1="63.975000000009" y1="155.487666923421" x2="63.975000000009" y2="152.312666923422"/>
    <line x1="63.975000000009" y1="152.312666923422" x2="60.800000000009" y2="152.312666923422"/>
    <line x1="60.800000000009" y1="152.312666923422" x2="60.8000000000089" y2="149.137666923422"/>
    <line x1="60.8000000000089" y1="149.137666923422" x2="63.9750000000088" y2="149.137666923422"/>
    <line x1="63.9750000000088" y1="149.137666923422" x2="63.9750000000087" y2="145.962666923421"/>
    <line x1="63.9750000000087" y1="145.962666923421" x2="60.8000000000087" y2="145.962666923422"/>
    <line x1="60.8000000000087" y1="145.962666923422" x2="60.8000000000087" y2="142.787666923422"/>
    <line x1="60.8000000000087" y1="142.787666923422" x2="63.9750000000086" y2="142.787666923422"/>
    <line x1="63.9750000000086" y1="142.787666923422" x2="63.9750000000086" y2="139.612666923422"/>
    <line x1="63.9750000000086" y1="139.612666923422" x2="60.8000000000085" y2="139.612666923422"/>
    <line x1="60.8000000000085" y1="139.612666923422" x2="60.8000000000085" y2="136.437666923422"/>
    <line x1="60.8000000000085" y1="136.437666923422" x2="63.9750000000085" y2="136.437666923421"/>
    <line x1="63.9750000000085" y1="136.437666923421" x2="63.9750000000083" y2="133.262666923421"/>
    <line x1="63.9750000000083" y1="133.262666923421" x2="60.8000000000083" y2="133.262666923422"/>
    <line x1="60.8000000000083" y1="133.262666923422" x2="60.8000000000082" y2="130.087666923422"/>
    <line x1="60.8000000000082" y1="130.087666923422" x2="63.9750000000082" y2="130.087666923421"/>
    <line x1="63.9750000000082" y1="130.087666923421" x2="63.9750000000083" y2="126.912666923421"/>
    <line x1="63.9750000000083" y1="126.912666923421" x2="60.8000000000082" y2="126.912666923422"/>
    <line x1="60.8000000000082" y1="126.912666923422" x2="60.8000000000081" y2="123.737666923422"/>
    <line x1="60.8000000000081" y1="123.737666923422" x2="63.9750000000081" y2="123.737666923422"/>
    <line x1="63.9750000000081" y1="123.737666923422" x2="63.975000000008" y2="120.562666923421"/>
    <line x1="63.975000000008" y1="120.562666923421" x2="60.800000000008" y2="120.562666923422"/>
    <line x1="60.800000000008" y1="120.562666923422" x2="60.800000000008" y2="117.387666923422"/>
    <line x1="60.800000000008" y1="117.387666923422" x2="63.975000000008" y2="117.387666923421"/>
    <line x1="63.975000000008" y1="117.387666923421" x2="63.9750000000078" y2="114.212666923421"/>
    <line x1="63.9750000000078" y1="114.212666923421" x2="60.8000000000079" y2="114.212666923422"/>
    <line x1="60.8000000000079" y1="114.212666923422" x2="60.8000000000077" y2="111.037666923422"/>
    <line x1="60.8000000000077" y1="111.037666923422" x2="63.9750000000077" y2="111.037666923421"/>
    <line x1="63.9750000000077" y1="111.037666923421" x2="63.9750000000076" y2="107.862666923421"/>
    <line x1="63.9750000000076" y1="107.862666923421" x2="60.8000000000077" y2="107.862666923422"/>
    <line x1="60.8000000000077" y1="107.862666923422" x2="60.8000000000076" y2="104.687666923422"/>
    <line x1="60.8000000000076" y1="104.687666923422" x2="63.9750000000076" y2="104.687666923421"/>
    <line x1="63.9750000000076" y1="104.687666923421" x2="63.9750000000074" y2="101.512666923421"/>
    <line x1="63.9750000000074" y1="101.512666923421" x2="60.8000000000075" y2="101.512666923422"/>
    <line x1="60.8000000000075" y1="101.512666923422" x2="60.8000000000074" y2="98.3376669234216"/>
    <line x1="60.8000000000074" y1="98.3376669234216" x2="63.9750000000074" y2="98.3376669234214"/>
    <line x1="63.9750000000074" y1="98.3376669234214" x2="63.9750000000073" y2="95.1626669234214"/>
    <line x1="63.9750000000073" y1="95.1626669234214" x2="60.8000000000073" y2="95.1626669234216"/>
    <line x1="60.8000000000073" y1="95.1626669234216" x2="60.8000000000073" y2="91.9876669234216"/>
    <line x1="60.8000000000073" y1="91.9876669234216" x2="63.9750000000072" y2="91.9876669234214"/>
    <line x1="63.9750000000072" y1="91.9876669234214" x2="63.9750000000072" y2="88.8126669234214"/>
    <line x1="63.9750000000072" y1="88.8126669234214" x2="60.8000000000071" y2="88.8126669234216"/>
    <line x1="60.8000000000071" y1="88.8126669234216" x2="60.800000000007" y2="85.6376669234216"/>
    <line x1="60.800000000007" y1="85.6376669234216" x2="63.975000000007" y2="85.6376669234214"/>
    <line x1="63.975000000007" y1="85.6376669234214" x2="63.9750000000069" y2="82.4626669234214"/>
    <line x1="63.9750000000069" y1="82.4626669234214" x2="60.800000000007" y2="82.4626669234216"/>
    <line x1="60.800000000007" y1="82.4626669234216" x2="60.8000000000069" y2="79.2876669234216"/>
    <line x1="60.8000000000069" y1="79.2876669234216" x2="63.9750000000068" y2="79.2876669234214"/>
    <line x1="63.9750000000068" y1="79.2876669234214" x2="63.9750000000067" y2="76.1126669234214"/>
    <line x1="63.9750000000067" y1="76.1126669234214" x2="60.8000000000067" y2="76.1126669234216"/>
    <line x1="60.8000000000067" y1="76.1126669234216" x2="60.8000000000067" y2="72.9376669234216"/>
    <line x1="60.8000000000067" y1="72.9376669234216" x2="63.9750000000066" y2="72.9376669234214"/>
    <line x1="63.9750000000066" y1="72.9376669234214" x2="63.9750000000065" y2="69.7626669234214"/>
    <line x1="63.9750000000065" y1="69.7626669234214" x2="60.8000000000065" y2="69.7626669234216"/>
    <line x1="60.8000000000065" y1="69.7626669234216" x2="60.8000000000065" y2="66.5876669234216"/>
    <line x1="60.8000000000065" y1="66.5876669234216" x2="63.9750000000064" y2="66.5876669234214"/>
    <line x1="63.9750000000064" y1="66.5876669234214" x2="63.9750000000063" y2="63.4126669234214"/>
    <line x1="63.9750000000063" y1="63.4126669234214" x2="60.8000000000063" y2="63.4126669234216"/>
    <line x1="60.8000000000063" y1="63.4126669234216" x2="60.8000000000063" y2="60.2376669234216"/>
    <line x1="60.8000000000063" y1="60.2376669234216" x2="63.9750000000062" y2="60.2376669234214"/>
    <line x1="63.9750000000062" y1="60.2376669234214" x2="63.9750000000063" y2="57.0626669234214"/>
    <line x1="63.9750000000063" y1="57.0626669234214" x2="60.8000000000062" y2="57.0626669234216"/>
    <line x1="60.8000000000062" y1="57.0626669234216" x2="60.8000000000062" y2="55.1508833150685"/>
    <line x1="60.8000000000062" y1="55.1508833150685" x2="60.2576155906775" y2="55.6000000000016"/>
    <line x1="23.5681592946318" y1="185.842918170227" x2="48.9681592946318" y2="185.842918170227"/>
    <line x1="48.9681592946318" y1="185.842918170227" x2="48.9681592946318" y2="206.545030334699"/>
    <line x1="48.9681592946318" y1="206.545030334699" x2="23.5681592946318" y2="206.545030334698"/>
    <line x1="23.5681592946318" y1="206.545030334698" x2="23.5681592946318" y2="185.842918170227"/>
  </g>
</svg>
