<?xml version="1.0" standalone="no"?>
<!DOCTYPE svg PUBLIC "-//W3C//DTD SVG 1.1//EN" "http://www.w3.org/Graphics/SVG/1.1/DTD/svg11.dtd">
<svg width="73.9750000000109mm" height="407.350000000007mm"
 viewBox="0 0 73.9750000000109 407.350000000007"
 xmlns="http://www.w3.org/2000/svg" version="1.1"
 xmlns:xlink="http://www.w3.org/1999/xlink">
<desc>Output from Flights of Ideas SVG Sketchup Plugin</desc>

  <g id="face0" fill="none" stroke="rgb(0,0,255)" stroke-width="1" stroke-miterlimit="4" stroke-dasharray="none" stroke-linejoin="round" stroke-linecap="round">
    <line x1="13.1750000000107" y1="394.175000000007" x2="13.1750000000107" y2="397.350000000007"/>
    <line x1="13.1750000000107" y1="397.350000000007" x2="16.3500000000107" y2="397.350000000007"/>
    <line x1="16.3500000000107" y1="397.350000000007" x2="16.3500000000107" y2="394.175000000007"/>
    <line x1="16.3500000000107" y1="394.175000000007" x2="19.5250000000108" y2="394.175000000007"/>
    <line x1="19.5250000000108" y1="394.175000000007" x2="19.5250000000108" y2="397.350000000001"/>
    <line x1="19.5250000000108" y1="397.350000000001" x2="22.7000000000107" y2="397.350000000001"/>
    <line x1="22.7000000000107" y1="397.350000000001" x2="22.7000000000107" y2="394.175000000007"/>
    <line x1="22.7000000000107" y1="394.175000000007" x2="25.8750000000107" y2="394.175000000007"/>
    <line x1="25.8750000000107" y1="394.175000000007" x2="25.8750000000107" y2="397.350000000001"/>
    <line x1="25.8750000000107" y1="397.350000000001" x2="29.0500000000108" y2="397.350000000001"/>
    <line x1="29.0500000000108" y1="397.350000000001" x2="29.0500000000108" y2="394.175000000007"/>
    <line x1="29.0500000000108" y1="394.175000000007" x2="32.2250000000108" y2="394.175000000007"/>
    <line x1="32.2250000000108" y1="394.175000000007" x2="32.2250000000108" y2="397.350000000001"/>
    <line x1="32.2250000000108" y1="397.350000000001" x2="35.4000000000107" y2="397.350000000001"/>
    <line x1="35.4000000000107" y1="397.350000000001" x2="35.4000000000107" y2="394.175000000007"/>
    <line x1="35.4000000000107" y1="394.175000000007" x2="38.5750000000108" y2="394.175000000007"/>
    <line x1="38.5750000000108" y1="394.175000000007" x2="38.5750000000108" y2="397.350000000001"/>
    <line x1="38.5750000000108" y1="397.350000000001" x2="41.7500000000108" y2="397.350000000001"/>
    <line x1="41.7500000000108" y1="397.350000000001" x2="41.7500000000108" y2="394.175000000007"/>
    <line x1="41.7500000000108" y1="394.175000000007" x2="44.9250000000108" y2="394.175000000007"/>
    <line x1="44.9250000000108" y1="394.175000000007" x2="44.9250000000108" y2="397.350000000001"/>
    <line x1="44.9250000000108" y1="397.350000000001" x2="48.1000000000108" y2="397.350000000001"/>
    <line x1="48.1000000000108" y1="397.350000000001" x2="48.1000000000108" y2="394.175000000007"/>
    <line x1="48.1000000000108" y1="394.175000000007" x2="51.2750000000108" y2="394.175000000007"/>
    <line x1="51.2750000000108" y1="394.175000000007" x2="51.2750000000108" y2="397.350000000001"/>
    <line x1="51.2750000000108" y1="397.350000000001" x2="54.4500000000108" y2="397.35"/>
    <line x1="54.4500000000108" y1="397.35" x2="54.4500000000108" y2="394.175000000007"/>
    <line x1="54.4500000000108" y1="394.175000000007" x2="57.6250000000107" y2="394.175000000007"/>
    <line x1="57.6250000000107" y1="394.175000000007" x2="57.6250000000002" y2="397.350000000005"/>
    <line x1="57.6250000000002" y1="397.350000000005" x2="60.8000000000002" y2="397.350000000005"/>
    <line x1="60.8000000000002" y1="397.350000000005" x2="60.8000000000002" y2="394.175000000007"/>
    <line x1="60.8000000000002" y1="394.175000000007" x2="63.9750000000001" y2="394.175000000007"/>
    <line x1="63.9750000000001" y1="394.175000000007" x2="63.9750000000001" y2="391.000000000005"/>
    <line x1="63.9750000000001" y1="391.000000000005" x2="60.8000000000002" y2="391.000000000005"/>
    <line x1="60.8000000000002" y1="391.000000000005" x2="60.8000000000002" y2="387.825000000005"/>
    <line x1="60.8000000000002" y1="387.825000000005" x2="63.9750000000001" y2="387.825000000005"/>
    <line x1="63.9750000000001" y1="387.825000000005" x2="63.9750000000003" y2="384.650000000005"/>
    <line x1="63.9750000000003" y1="384.650000000005" x2="60.8000000000002" y2="384.650000000005"/>
    <line x1="60.8000000000002" y1="384.650000000005" x2="60.8000000000004" y2="381.475000000005"/>
    <line x1="60.8000000000004" y1="381.475000000005" x2="63.9750000000003" y2="381.475000000005"/>
    <line x1="63.9750000000003" y1="381.475000000005" x2="63.9750000000003" y2="378.300000000005"/>
    <line x1="63.9750000000003" y1="378.300000000005" x2="60.8000000000004" y2="378.300000000005"/>
    <line x1="60.8000000000004" y1="378.300000000005" x2="60.8000000000005" y2="375.125000000005"/>
    <line x1="60.8000000000005" y1="375.125000000005" x2="63.9750000000005" y2="375.125000000005"/>
    <line x1="63.9750000000005" y1="375.125000000005" x2="63.9750000000005" y2="371.950000000005"/>
    <line x1="63.9750000000005" y1="371.950000000005" x2="60.8000000000006" y2="371.950000000005"/>
    <line x1="60.8000000000006" y1="371.950000000005" x2="60.8000000000007" y2="368.775000000005"/>
    <line x1="60.8000000000007" y1="368.775000000005" x2="63.9750000000007" y2="368.775000000005"/>
    <line x1="63.9750000000007" y1="368.775000000005" x2="63.9750000000007" y2="365.600000000005"/>
    <line x1="63.9750000000007" y1="365.600000000005" x2="60.8000000000007" y2="365.600000000005"/>
    <line x1="60.8000000000007" y1="365.600000000005" x2="60.8000000000009" y2="362.425000000005"/>
    <line x1="60.8000000000009" y1="362.425000000005" x2="63.9750000000009" y2="362.425000000005"/>
    <line x1="63.9750000000009" y1="362.425000000005" x2="63.975000000001" y2="359.250000000005"/>
    <line x1="63.975000000001" y1="359.250000000005" x2="60.800000000001" y2="359.250000000005"/>
    <line x1="60.800000000001" y1="359.250000000005" x2="60.800000000001" y2="356.075000000005"/>
    <line x1="60.800000000001" y1="356.075000000005" x2="63.975000000001" y2="356.075000000005"/>
    <line x1="63.975000000001" y1="356.075000000005" x2="63.975000000001" y2="352.900000000005"/>
    <line x1="63.975000000001" y1="352.900000000005" x2="60.8000000000011" y2="352.900000000005"/>
    <line x1="60.8000000000011" y1="352.900000000005" x2="60.8000000000013" y2="349.725000000005"/>
    <line x1="60.8000000000013" y1="349.725000000005" x2="63.9750000000012" y2="349.725000000005"/>
    <line x1="63.9750000000012" y1="349.725000000005" x2="63.9750000000013" y2="346.550000000005"/>
    <line x1="63.9750000000013" y1="346.550000000005" x2="60.8000000000014" y2="346.550000000005"/>
    <line x1="60.8000000000014" y1="346.550000000005" x2="60.8000000000014" y2="343.375000000005"/>
    <line x1="60.8000000000014" y1="343.375000000005" x2="63.9750000000014" y2="343.375000000005"/>
    <line x1="63.9750000000014" y1="343.375000000005" x2="63.9750000000015" y2="340.200000000005"/>
    <line x1="63.9750000000015" y1="340.200000000005" x2="60.8000000000015" y2="340.200000000005"/>
    <line x1="60.8000000000015" y1="340.200000000005" x2="60.8000000000016" y2="337.025000000005"/>
    <line x1="60.8000000000016" y1="337.025000000005" x2="63.9750000000016" y2="337.025000000005"/>
    <line x1="63.9750000000016" y1="337.025000000005" x2="63.9750000000017" y2="333.850000000005"/>
    <line x1="63.9750000000017" y1="333.850000000005" x2="60.8000000000018" y2="333.850000000005"/>
    <line x1="60.8000000000018" y1="333.850000000005" x2="60.8000000000018" y2="330.675000000005"/>
    <line x1="60.8000000000018" y1="330.675000000005" x2="63.9750000000018" y2="330.675000000005"/>
    <line x1="63.9750000000018" y1="330.675000000005" x2="63.9750000000018" y2="327.500000000005"/>
    <line x1="63.9750000000018" y1="327.500000000005" x2="60.8000000000019" y2="327.500000000005"/>
    <line x1="60.8000000000019" y1="327.500000000005" x2="60.8000000000019" y2="324.325000000005"/>
    <line x1="60.8000000000019" y1="324.325000000005" x2="63.9750000000018" y2="324.325000000005"/>
    <line x1="63.9750000000018" y1="324.325000000005" x2="63.975000000002" y2="321.150000000005"/>
    <line x1="63.975000000002" y1="321.150000000005" x2="60.8000000000021" y2="321.150000000005"/>
    <line x1="60.8000000000021" y1="321.150000000005" x2="60.8000000000021" y2="317.975000000005"/>
    <line x1="60.8000000000021" y1="317.975000000005" x2="63.9750000000021" y2="317.975000000005"/>
    <line x1="63.9750000000021" y1="317.975000000005" x2="63.9750000000022" y2="314.800000000005"/>
    <line x1="63.9750000000022" y1="314.800000000005" x2="60.8000000000022" y2="314.800000000005"/>
    <line x1="60.8000000000022" y1="314.800000000005" x2="60.8000000000024" y2="311.625000000005"/>
    <line x1="60.8000000000024" y1="311.625000000005" x2="63.9750000000023" y2="311.625000000005"/>
    <line x1="63.9750000000023" y1="311.625000000005" x2="63.9750000000024" y2="308.450000000005"/>
    <line x1="63.9750000000024" y1="308.450000000005" x2="60.8000000000024" y2="308.450000000005"/>
    <line x1="60.8000000000024" y1="308.450000000005" x2="60.8000000000025" y2="305.275000000005"/>
    <line x1="60.8000000000025" y1="305.275000000005" x2="63.9750000000025" y2="305.275000000005"/>
    <line x1="63.9750000000025" y1="305.275000000005" x2="63.9750000000027" y2="302.100000000005"/>
    <line x1="63.9750000000027" y1="302.100000000005" x2="60.8000000000026" y2="302.100000000005"/>
    <line x1="60.8000000000026" y1="302.100000000005" x2="60.8000000000028" y2="298.925000000005"/>
    <line x1="60.8000000000028" y1="298.925000000005" x2="63.9750000000027" y2="298.925000000005"/>
    <line x1="63.9750000000027" y1="298.925000000005" x2="63.9750000000028" y2="295.750000000005"/>
    <line x1="63.9750000000028" y1="295.750000000005" x2="60.8000000000028" y2="295.750000000005"/>
    <line x1="60.8000000000028" y1="295.750000000005" x2="60.8000000000029" y2="292.575000000005"/>
    <line x1="60.8000000000029" y1="292.575000000005" x2="63.9750000000029" y2="292.575000000005"/>
    <line x1="63.9750000000029" y1="292.575000000005" x2="63.975000000003" y2="289.400000000005"/>
    <line x1="63.975000000003" y1="289.400000000005" x2="60.800000000003" y2="289.400000000005"/>
    <line x1="60.800000000003" y1="289.400000000005" x2="60.800000000003" y2="286.225000000005"/>
    <line x1="60.800000000003" y1="286.225000000005" x2="63.975000000003" y2="286.225000000005"/>
    <line x1="63.975000000003" y1="286.225000000005" x2="63.9750000000031" y2="283.050000000005"/>
    <line x1="63.9750000000031" y1="283.050000000005" x2="60.8000000000031" y2="283.050000000005"/>
    <line x1="60.8000000000031" y1="283.050000000005" x2="60.8000000000033" y2="279.875000000005"/>
    <line x1="60.8000000000033" y1="279.875000000005" x2="63.9750000000032" y2="279.875000000005"/>
    <line x1="63.9750000000032" y1="279.875000000005" x2="63.9750000000033" y2="276.700000000005"/>
    <line x1="63.9750000000033" y1="276.700000000005" x2="60.8000000000033" y2="276.700000000005"/>
    <line x1="60.8000000000033" y1="276.700000000005" x2="60.8000000000034" y2="273.525000000005"/>
    <line x1="60.8000000000034" y1="273.525000000005" x2="63.9750000000034" y2="273.525000000005"/>
    <line x1="63.9750000000034" y1="273.525000000005" x2="63.9750000000035" y2="270.350000000005"/>
    <line x1="63.9750000000035" y1="270.350000000005" x2="60.8000000000035" y2="270.350000000005"/>
    <line x1="60.8000000000035" y1="270.350000000005" x2="60.8000000000036" y2="267.175000000005"/>
    <line x1="60.8000000000036" y1="267.175000000005" x2="63.9750000000036" y2="267.175000000005"/>
    <line x1="63.9750000000036" y1="267.175000000005" x2="63.9750000000037" y2="264.000000000005"/>
    <line x1="63.9750000000037" y1="264.000000000005" x2="60.8000000000036" y2="264.000000000005"/>
    <line x1="60.8000000000036" y1="264.000000000005" x2="60.8000000000038" y2="260.825000000005"/>
    <line x1="60.8000000000038" y1="260.825000000005" x2="63.9750000000038" y2="260.825000000005"/>
    <line x1="63.9750000000038" y1="260.825000000005" x2="63.9750000000038" y2="257.650000000005"/>
    <line x1="63.9750000000038" y1="257.650000000005" x2="60.8000000000039" y2="257.650000000005"/>
    <line x1="60.8000000000039" y1="257.650000000005" x2="60.8000000000039" y2="254.475000000005"/>
    <line x1="60.8000000000039" y1="254.475000000005" x2="63.9750000000039" y2="254.475000000005"/>
    <line x1="63.9750000000039" y1="254.475000000005" x2="63.9750000000041" y2="251.300000000005"/>
    <line x1="63.9750000000041" y1="251.300000000005" x2="60.8000000000041" y2="251.300000000005"/>
    <line x1="60.8000000000041" y1="251.300000000005" x2="60.8000000000041" y2="248.125000000005"/>
    <line x1="60.8000000000041" y1="248.125000000005" x2="63.9750000000041" y2="248.125000000005"/>
    <line x1="63.9750000000041" y1="248.125000000005" x2="63.9750000000043" y2="244.950000000005"/>
    <line x1="63.9750000000043" y1="244.950000000005" x2="60.8000000000042" y2="244.950000000005"/>
    <line x1="60.8000000000042" y1="244.950000000005" x2="60.8000000000044" y2="241.775000000005"/>
    <line x1="60.8000000000044" y1="241.775000000005" x2="63.9750000000043" y2="241.775000000005"/>
    <line x1="63.9750000000043" y1="241.775000000005" x2="63.9750000000044" y2="238.600000000005"/>
    <line x1="63.9750000000044" y1="238.600000000005" x2="60.8000000000044" y2="238.600000000005"/>
    <line x1="60.8000000000044" y1="238.600000000005" x2="60.8000000000046" y2="235.425000000005"/>
    <line x1="60.8000000000046" y1="235.425000000005" x2="63.9750000000045" y2="235.425000000005"/>
    <line x1="63.9750000000045" y1="235.425000000005" x2="63.9750000000046" y2="232.250000000005"/>
    <line x1="63.9750000000046" y1="232.250000000005" x2="60.8000000000047" y2="232.250000000005"/>
    <line x1="60.8000000000047" y1="232.250000000005" x2="60.8000000000047" y2="229.075000000005"/>
    <line x1="60.8000000000047" y1="229.075000000005" x2="63.9750000000047" y2="229.075000000005"/>
    <line x1="63.9750000000047" y1="229.075000000005" x2="63.9750000000047" y2="225.900000000005"/>
    <line x1="63.9750000000047" y1="225.900000000005" x2="60.8000000000047" y2="225.900000000005"/>
    <line x1="60.8000000000047" y1="225.900000000005" x2="60.8000000000048" y2="222.725000000005"/>
    <line x1="60.8000000000048" y1="222.725000000005" x2="63.9750000000049" y2="222.725000000005"/>
    <line x1="63.9750000000049" y1="222.725000000005" x2="63.9750000000049" y2="219.550000000005"/>
    <line x1="63.9750000000049" y1="219.550000000005" x2="60.800000000005" y2="219.550000000005"/>
    <line x1="60.800000000005" y1="219.550000000005" x2="60.8000000000051" y2="216.375000000005"/>
    <line x1="60.8000000000051" y1="216.375000000005" x2="63.9750000000051" y2="216.375000000005"/>
    <line x1="63.9750000000051" y1="216.375000000005" x2="63.9750000000051" y2="213.200000000005"/>
    <line x1="63.9750000000051" y1="213.200000000005" x2="60.8000000000051" y2="213.200000000005"/>
    <line x1="60.8000000000051" y1="213.200000000005" x2="60.8000000000053" y2="210.025000000005"/>
    <line x1="60.8000000000053" y1="210.025000000005" x2="63.9750000000052" y2="210.025000000005"/>
    <line x1="63.9750000000052" y1="210.025000000005" x2="63.9750000000053" y2="206.850000000005"/>
    <line x1="63.9750000000053" y1="206.850000000005" x2="60.8000000000054" y2="206.850000000005"/>
    <line x1="60.8000000000054" y1="206.850000000005" x2="60.8000000000054" y2="203.675000000005"/>
    <line x1="60.8000000000054" y1="203.675000000005" x2="63.9750000000054" y2="203.675000000005"/>
    <line x1="63.9750000000054" y1="203.675000000005" x2="63.9750000000055" y2="200.500000000005"/>
    <line x1="63.9750000000055" y1="200.500000000005" x2="60.8000000000056" y2="200.500000000005"/>
    <line x1="60.8000000000056" y1="200.500000000005" x2="60.8000000000056" y2="197.325000000005"/>
    <line x1="60.8000000000056" y1="197.325000000005" x2="63.9750000000056" y2="197.325000000005"/>
    <line x1="63.9750000000056" y1="197.325000000005" x2="63.9750000000057" y2="194.150000000005"/>
    <line x1="63.9750000000057" y1="194.150000000005" x2="60.8000000000058" y2="194.150000000005"/>
    <line x1="60.8000000000058" y1="194.150000000005" x2="60.8000000000058" y2="190.975000000005"/>
    <line x1="60.8000000000058" y1="190.975000000005" x2="63.9750000000058" y2="190.975000000005"/>
    <line x1="63.9750000000058" y1="190.975000000005" x2="63.9750000000058" y2="187.800000000005"/>
    <line x1="63.9750000000058" y1="187.800000000005" x2="60.8000000000059" y2="187.800000000005"/>
    <line x1="60.8000000000059" y1="187.800000000005" x2="60.8000000000059" y2="184.625000000005"/>
    <line x1="60.8000000000059" y1="184.625000000005" x2="63.9750000000059" y2="184.625000000005"/>
    <line x1="63.9750000000059" y1="184.625000000005" x2="63.975000000006" y2="181.450000000005"/>
    <line x1="63.975000000006" y1="181.450000000005" x2="60.800000000006" y2="181.450000000005"/>
    <line x1="60.800000000006" y1="181.450000000005" x2="60.8000000000061" y2="178.275000000005"/>
    <line x1="60.8000000000061" y1="178.275000000005" x2="63.9750000000062" y2="178.275000000005"/>
    <line x1="63.9750000000062" y1="178.275000000005" x2="63.9750000000062" y2="175.100000000005"/>
    <line x1="63.9750000000062" y1="175.100000000005" x2="60.8000000000062" y2="175.100000000005"/>
    <line x1="60.8000000000062" y1="175.100000000005" x2="60.8000000000063" y2="171.925000000005"/>
    <line x1="60.8000000000063" y1="171.925000000005" x2="63.9750000000063" y2="171.925000000005"/>
    <line x1="63.9750000000063" y1="171.925000000005" x2="63.9750000000063" y2="168.750000000005"/>
    <line x1="63.9750000000063" y1="168.750000000005" x2="60.8000000000064" y2="168.750000000005"/>
    <line x1="60.8000000000064" y1="168.750000000005" x2="60.8000000000065" y2="165.575000000005"/>
    <line x1="60.8000000000065" y1="165.575000000005" x2="63.9750000000064" y2="165.575000000005"/>
    <line x1="63.9750000000064" y1="165.575000000005" x2="63.9750000000066" y2="162.400000000005"/>
    <line x1="63.9750000000066" y1="162.400000000005" x2="60.8000000000065" y2="162.400000000005"/>
    <line x1="60.8000000000065" y1="162.400000000005" x2="60.8000000000067" y2="159.225000000005"/>
    <line x1="60.8000000000067" y1="159.225000000005" x2="63.9750000000067" y2="159.225000000005"/>
    <line x1="63.9750000000067" y1="159.225000000005" x2="63.9750000000067" y2="156.050000000005"/>
    <line x1="63.9750000000067" y1="156.050000000005" x2="60.8000000000067" y2="156.050000000005"/>
    <line x1="60.8000000000067" y1="156.050000000005" x2="60.8000000000068" y2="152.875000000005"/>
    <line x1="60.8000000000068" y1="152.875000000005" x2="63.9750000000068" y2="152.875000000005"/>
    <line x1="63.9750000000068" y1="152.875000000005" x2="63.9750000000069" y2="149.700000000005"/>
    <line x1="63.9750000000069" y1="149.700000000005" x2="60.800000000007" y2="149.700000000005"/>
    <line x1="60.800000000007" y1="149.700000000005" x2="60.800000000007" y2="146.525000000005"/>
    <line x1="60.800000000007" y1="146.525000000005" x2="63.975000000007" y2="146.525000000005"/>
    <line x1="63.975000000007" y1="146.525000000005" x2="63.9750000000071" y2="143.350000000005"/>
    <line x1="63.9750000000071" y1="143.350000000005" x2="60.8000000000071" y2="143.350000000005"/>
    <line x1="60.8000000000071" y1="143.350000000005" x2="60.8000000000072" y2="140.175000000005"/>
    <line x1="60.8000000000072" y1="140.175000000005" x2="63.9750000000072" y2="140.175000000005"/>
    <line x1="63.9750000000072" y1="140.175000000005" x2="63.9750000000074" y2="137.000000000005"/>
    <line x1="63.9750000000074" y1="137.000000000005" x2="60.8000000000073" y2="137.000000000005"/>
    <line x1="60.8000000000073" y1="137.000000000005" x2="60.8000000000074" y2="133.825000000005"/>
    <line x1="60.8000000000074" y1="133.825000000005" x2="63.9750000000074" y2="133.825000000005"/>
    <line x1="63.9750000000074" y1="133.825000000005" x2="63.9750000000075" y2="130.650000000005"/>
    <line x1="63.9750000000075" y1="130.650000000005" x2="60.8000000000076" y2="130.650000000005"/>
    <line x1="60.8000000000076" y1="130.650000000005" x2="60.8000000000076" y2="127.475000000005"/>
    <line x1="60.8000000000076" y1="127.475000000005" x2="63.9750000000075" y2="127.475000000005"/>
    <line x1="63.9750000000075" y1="127.475000000005" x2="63.9750000000076" y2="124.300000000005"/>
    <line x1="63.9750000000076" y1="124.300000000005" x2="60.8000000000077" y2="124.300000000005"/>
    <line x1="60.8000000000077" y1="124.300000000005" x2="60.8000000000077" y2="121.125000000005"/>
    <line x1="60.8000000000077" y1="121.125000000005" x2="63.9750000000078" y2="121.125000000005"/>
    <line x1="63.9750000000078" y1="121.125000000005" x2="63.9750000000078" y2="117.950000000005"/>
    <line x1="63.9750000000078" y1="117.950000000005" x2="60.8000000000078" y2="117.950000000005"/>
    <line x1="60.8000000000078" y1="117.950000000005" x2="60.8000000000079" y2="114.775000000005"/>
    <line x1="60.8000000000079" y1="114.775000000005" x2="63.9750000000078" y2="114.775000000005"/>
    <line x1="63.9750000000078" y1="114.775000000005" x2="63.975000000008" y2="111.600000000005"/>
    <line x1="63.975000000008" y1="111.600000000005" x2="60.800000000008" y2="111.600000000005"/>
    <line x1="60.800000000008" y1="111.600000000005" x2="60.8000000000081" y2="108.425000000005"/>
    <line x1="60.8000000000081" y1="108.425000000005" x2="63.975000000008" y2="108.425000000005"/>
    <line x1="63.975000000008" y1="108.425000000005" x2="63.9750000000082" y2="105.250000000005"/>
    <line x1="63.9750000000082" y1="105.250000000005" x2="60.8000000000082" y2="105.250000000005"/>
    <line x1="60.8000000000082" y1="105.250000000005" x2="60.8000000000083" y2="102.075000000005"/>
    <line x1="60.8000000000083" y1="102.075000000005" x2="63.9750000000083" y2="102.075000000005"/>
    <line x1="63.9750000000083" y1="102.075000000005" x2="63.9750000000083" y2="98.9000000000051"/>
    <line x1="63.9750000000083" y1="98.9000000000051" x2="60.8000000000083" y2="98.900000000005"/>
    <line x1="60.8000000000083" y1="98.900000000005" x2="60.8000000000084" y2="95.725000000005"/>
    <line x1="60.8000000000084" y1="95.725000000005" x2="63.9750000000084" y2="95.7250000000051"/>
    <line x1="63.9750000000084" y1="95.7250000000051" x2="63.9750000000085" y2="92.5500000000052"/>
    <line x1="63.9750000000085" y1="92.5500000000052" x2="60.8000000000085" y2="92.550000000005"/>
    <line x1="60.8000000000085" y1="92.550000000005" x2="60.8000000000085" y2="89.375000000005"/>
    <line x1="60.8000000000085" y1="89.375000000005" x2="63.9750000000087" y2="89.3750000000051"/>
    <line x1="63.9750000000087" y1="89.3750000000051" x2="63.9750000000087" y2="86.2000000000051"/>
    <line x1="63.9750000000087" y1="86.2000000000051" x2="60.8000000000087" y2="86.2000000000049"/>
    <line x1="60.8000000000087" y1="86.2000000000049" x2="60.8000000000088" y2="83.025000000005"/>
    <line x1="60.8000000000088" y1="83.025000000005" x2="63.9750000000088" y2="83.0250000000052"/>
    <line x1="63.9750000000088" y1="83.0250000000052" x2="63.975000000009" y2="79.8500000000051"/>
    <line x1="63.975000000009" y1="79.8500000000051" x2="60.8000000000089" y2="79.850000000005"/>
    <line x1="60.8000000000089" y1="79.850000000005" x2="60.8000000000091" y2="76.675000000005"/>
    <line x1="60.8000000000091" y1="76.675000000005" x2="63.975000000009" y2="76.6750000000051"/>
    <line x1="63.975000000009" y1="76.6750000000051" x2="63.9750000000092" y2="73.5000000000056"/>
    <line x1="63.9750000000092" y1="73.5000000000056" x2="60.8000000000092" y2="73.5000000000054"/>
    <line x1="60.8000000000092" y1="73.5000000000054" x2="60.8000000000093" y2="70.3250000000054"/>
    <line x1="60.8000000000093" y1="70.3250000000054" x2="63.9750000000092" y2="70.3250000000056"/>
    <line x1="63.9750000000092" y1="70.3250000000056" x2="63.9750000000093" y2="67.1500000000055"/>
    <line x1="63.9750000000093" y1="67.1500000000055" x2="60.8000000000093" y2="67.1500000000054"/>
    <line x1="60.8000000000093" y1="67.1500000000054" x2="60.8000000000093" y2="63.9750000000054"/>
    <line x1="60.8000000000093" y1="63.9750000000054" x2="63.9750000000093" y2="63.9750000000055"/>
    <line x1="63.9750000000093" y1="63.9750000000055" x2="63.9750000000093" y2="60.8000000000056"/>
    <line x1="63.9750000000093" y1="60.8000000000056" x2="60.8000000000093" y2="60.8000000000055"/>
    <line x1="60.8000000000093" y1="60.8000000000055" x2="60.8000000000096" y2="57.6250000000055"/>
    <line x1="60.8000000000096" y1="57.6250000000055" x2="63.9750000000095" y2="57.6250000000056"/>
    <line x1="63.9750000000095" y1="57.6250000000056" x2="63.9750000000096" y2="54.4500000000056"/>
    <line x1="63.9750000000096" y1="54.4500000000056" x2="60.8000000000096" y2="54.4500000000055"/>
    <line x1="60.8000000000096" y1="54.4500000000055" x2="60.8000000000097" y2="51.2750000000054"/>
    <line x1="60.8000000000097" y1="51.2750000000054" x2="63.9750000000097" y2="51.2750000000057"/>
    <line x1="63.9750000000097" y1="51.2750000000057" x2="63.9750000000097" y2="48.1000000000056"/>
    <line x1="63.9750000000097" y1="48.1000000000056" x2="60.8000000000098" y2="48.1000000000054"/>
    <line x1="60.8000000000098" y1="48.1000000000054" x2="60.8000000000099" y2="44.9250000000054"/>
    <line x1="60.8000000000099" y1="44.9250000000054" x2="63.9750000000099" y2="44.9250000000056"/>
    <line x1="63.9750000000099" y1="44.9250000000056" x2="63.97500000001" y2="41.7500000000056"/>
    <line x1="63.97500000001" y1="41.7500000000056" x2="60.80000000001" y2="41.7500000000055"/>
    <line x1="60.80000000001" y1="41.7500000000055" x2="60.8000000000101" y2="38.5750000000056"/>
    <line x1="60.8000000000101" y1="38.5750000000056" x2="63.9750000000101" y2="38.5750000000057"/>
    <line x1="63.9750000000101" y1="38.5750000000057" x2="63.9750000000102" y2="35.4000000000056"/>
    <line x1="63.9750000000102" y1="35.4000000000056" x2="60.8000000000102" y2="35.4000000000055"/>
    <line x1="60.8000000000102" y1="35.4000000000055" x2="60.8000000000102" y2="32.2250000000056"/>
    <line x1="60.8000000000102" y1="32.2250000000056" x2="63.9750000000103" y2="32.2250000000056"/>
    <line x1="63.9750000000103" y1="32.2250000000056" x2="63.9750000000104" y2="29.0500000000056"/>
    <line x1="63.9750000000104" y1="29.0500000000056" x2="60.8000000000104" y2="29.0500000000056"/>
    <line x1="60.8000000000104" y1="29.0500000000056" x2="60.8000000000105" y2="25.8750000000056"/>
    <line x1="60.8000000000105" y1="25.8750000000056" x2="63.9750000000104" y2="25.8750000000057"/>
    <line x1="63.9750000000104" y1="25.8750000000057" x2="63.9750000000105" y2="22.7000000000056"/>
    <line x1="63.9750000000105" y1="22.7000000000056" x2="60.8000000000105" y2="22.7000000000056"/>
    <line x1="60.8000000000105" y1="22.7000000000056" x2="60.8000000000106" y2="19.5250000000055"/>
    <line x1="60.8000000000106" y1="19.5250000000055" x2="63.9750000000106" y2="19.5250000000056"/>
    <line x1="63.9750000000106" y1="19.5250000000056" x2="63.9750000000107" y2="16.3500000000057"/>
    <line x1="63.9750000000107" y1="16.3500000000057" x2="60.8000000000107" y2="16.3500000000057"/>
    <line x1="60.8000000000107" y1="16.3500000000057" x2="60.8000000000108" y2="13.1750000000056"/>
    <line x1="60.8000000000108" y1="13.1750000000056" x2="63.9750000000108" y2="13.1750000000057"/>
    <line x1="63.9750000000108" y1="13.1750000000057" x2="63.9750000000109" y2="10.000000000005"/>
    <line x1="63.9750000000109" y1="10.000000000005" x2="57.6250000000002" y2="10.0000000000048"/>
    <line x1="57.6250000000002" y1="10.0000000000048" x2="57.6249999999998" y2="13.1749999999996"/>
    <line x1="57.6249999999998" y1="13.1749999999996" x2="54.4499999999997" y2="13.1749999999997"/>
    <line x1="54.4499999999997" y1="13.1749999999997" x2="54.4499999999998" y2="10.0"/>
    <line x1="54.4499999999998" y1="10.0" x2="51.2749999999997" y2="10.0000000000001"/>
    <line x1="51.2749999999997" y1="10.0000000000001" x2="51.2749999999997" y2="13.1749999999997"/>
    <line x1="51.2749999999997" y1="13.1749999999997" x2="48.0999999999997" y2="13.1749999999998"/>
    <line x1="48.0999999999997" y1="13.1749999999998" x2="48.0999999999997" y2="10.0000000000002"/>
    <line x1="48.0999999999997" y1="10.0000000000002" x2="44.9249999999997" y2="10.0000000000002"/>
    <line x1="44.9249999999997" y1="10.0000000000002" x2="44.9249999999997" y2="13.175"/>
    <line x1="44.9249999999997" y1="13.175" x2="41.7499999999998" y2="13.1750000000001"/>
    <line x1="41.7499999999998" y1="13.1750000000001" x2="41.7499999999998" y2="10.0000000000003"/>
    <line x1="41.7499999999998" y1="10.0000000000003" x2="38.5749999999997" y2="10.0000000000004"/>
    <line x1="38.5749999999997" y1="10.0000000000004" x2="38.5749999999998" y2="13.1750000000001"/>
    <line x1="38.5749999999998" y1="13.1750000000001" x2="35.3999999999997" y2="13.1750000000002"/>
    <line x1="35.3999999999997" y1="13.1750000000002" x2="35.3999999999997" y2="10.0000000000006"/>
    <line x1="35.3999999999997" y1="10.0000000000006" x2="32.2249999999997" y2="10.0000000000006"/>
    <line x1="32.2249999999997" y1="10.0000000000006" x2="32.2249999999997" y2="13.1750000000002"/>
    <line x1="32.2249999999997" y1="13.1750000000002" x2="29.0499999999997" y2="13.1750000000004"/>
    <line x1="29.0499999999997" y1="13.1750000000004" x2="29.0499999999997" y2="10.0000000000007"/>
    <line x1="29.0499999999997" y1="10.0000000000007" x2="25.8749999999997" y2="10.0000000000008"/>
    <line x1="25.8749999999997" y1="10.0000000000008" x2="25.8749999999998" y2="13.1750000000005"/>
    <line x1="25.8749999999998" y1="13.1750000000005" x2="22.6999999999998" y2="13.1750000000006"/>
    <line x1="22.6999999999998" y1="13.1750000000006" x2="22.6999999999997" y2="10.0000000000009"/>
    <line x1="22.6999999999997" y1="10.0000000000009" x2="19.5250000000032" y2="10.0000000000053"/>
    <line x1="19.5250000000032" y1="10.0000000000053" x2="19.5250000000032" y2="13.1750000000053"/>
    <line x1="19.5250000000032" y1="13.1750000000053" x2="16.3500000000087" y2="13.1750000000053"/>
    <line x1="16.3500000000087" y1="13.1750000000053" x2="16.3500000000087" y2="10.0000000000055"/>
    <line x1="16.3500000000087" y1="10.0000000000055" x2="10.0" y2="10.0000000000064"/>
    <line x1="10.0" y1="10.0000000000064" x2="10.0000000000002" y2="13.1750000000071"/>
    <line x1="10.0000000000002" y1="13.1750000000071" x2="13.1750000000002" y2="13.175000000007"/>
    <line x1="13.1750000000002" y1="13.175000000007" x2="13.1750000000002" y2="16.350000000007"/>
    <line x1="13.1750000000002" y1="16.350000000007" x2="10.0000000000003" y2="16.3500000000071"/>
    <line x1="10.0000000000003" y1="16.3500000000071" x2="10.0000000000003" y2="19.525000000007"/>
    <line x1="10.0000000000003" y1="19.525000000007" x2="13.1750000000002" y2="19.5250000000069"/>
    <line x1="13.1750000000002" y1="19.5250000000069" x2="13.1750000000004" y2="22.7000000000069"/>
    <line x1="13.1750000000004" y1="22.7000000000069" x2="10.0000000000003" y2="22.700000000007"/>
    <line x1="10.0000000000003" y1="22.700000000007" x2="10.0000000000005" y2="25.875000000007"/>
    <line x1="10.0000000000005" y1="25.875000000007" x2="13.1750000000005" y2="25.8750000000069"/>
    <line x1="13.1750000000005" y1="25.8750000000069" x2="13.1750000000006" y2="29.0500000000069"/>
    <line x1="13.1750000000006" y1="29.0500000000069" x2="10.0000000000005" y2="29.050000000007"/>
    <line x1="10.0000000000005" y1="29.050000000007" x2="10.0000000000007" y2="32.2250000000071"/>
    <line x1="10.0000000000007" y1="32.2250000000071" x2="13.1750000000007" y2="32.2250000000069"/>
    <line x1="13.1750000000007" y1="32.2250000000069" x2="13.1750000000007" y2="35.4000000000069"/>
    <line x1="13.1750000000007" y1="35.4000000000069" x2="10.0000000000007" y2="35.4000000000071"/>
    <line x1="10.0000000000007" y1="35.4000000000071" x2="10.0000000000009" y2="38.575000000007"/>
    <line x1="10.0000000000009" y1="38.575000000007" x2="13.1750000000008" y2="38.5750000000069"/>
    <line x1="13.1750000000008" y1="38.5750000000069" x2="13.1750000000009" y2="41.750000000007"/>
    <line x1="13.1750000000009" y1="41.750000000007" x2="10.000000000001" y2="41.750000000007"/>
    <line x1="10.000000000001" y1="41.750000000007" x2="10.000000000001" y2="44.9250000000069"/>
    <line x1="10.000000000001" y1="44.9250000000069" x2="13.175000000001" y2="44.9250000000069"/>
    <line x1="13.175000000001" y1="44.9250000000069" x2="13.1750000000011" y2="48.1000000000069"/>
    <line x1="13.1750000000011" y1="48.1000000000069" x2="10.0000000000011" y2="48.1000000000069"/>
    <line x1="10.0000000000011" y1="48.1000000000069" x2="10.0000000000012" y2="51.2750000000069"/>
    <line x1="10.0000000000012" y1="51.2750000000069" x2="13.1750000000013" y2="51.2750000000069"/>
    <line x1="13.1750000000013" y1="51.2750000000069" x2="13.1750000000013" y2="54.4500000000068"/>
    <line x1="13.1750000000013" y1="54.4500000000068" x2="10.0000000000013" y2="54.4500000000069"/>
    <line x1="10.0000000000013" y1="54.4500000000069" x2="10.0000000000014" y2="57.6250000000069"/>
    <line x1="10.0000000000014" y1="57.6250000000069" x2="13.1750000000014" y2="57.6250000000068"/>
    <line x1="13.1750000000014" y1="57.6250000000068" x2="13.1750000000015" y2="60.8000000000069"/>
    <line x1="13.1750000000015" y1="60.8000000000069" x2="10.0000000000015" y2="60.8000000000068"/>
    <line x1="10.0000000000015" y1="60.8000000000068" x2="10.0000000000016" y2="63.9750000000069"/>
    <line x1="10.0000000000016" y1="63.9750000000069" x2="13.1750000000015" y2="63.9750000000068"/>
    <line x1="13.1750000000015" y1="63.9750000000068" x2="13.1750000000016" y2="67.1500000000069"/>
    <line x1="13.1750000000016" y1="67.1500000000069" x2="10.0000000000016" y2="67.150000000007"/>
    <line x1="10.0000000000016" y1="67.150000000007" x2="10.0000000000018" y2="70.3250000000069"/>
    <line x1="10.0000000000018" y1="70.3250000000069" x2="13.1750000000017" y2="70.3250000000069"/>
    <line x1="13.1750000000017" y1="70.3250000000069" x2="13.1750000000018" y2="73.5000000000069"/>
    <line x1="13.1750000000018" y1="73.5000000000069" x2="10.0000000000018" y2="73.5000000000069"/>
    <line x1="10.0000000000018" y1="73.5000000000069" x2="10.0000000000019" y2="76.6750000000064"/>
    <line x1="10.0000000000019" y1="76.6750000000064" x2="13.1750000000019" y2="76.6750000000064"/>
    <line x1="13.1750000000019" y1="76.6750000000064" x2="13.1750000000019" y2="79.8500000000064"/>
    <line x1="13.1750000000019" y1="79.8500000000064" x2="10.000000000002" y2="79.8500000000064"/>
    <line x1="10.000000000002" y1="79.8500000000064" x2="10.0000000000022" y2="83.0250000000064"/>
    <line x1="10.0000000000022" y1="83.0250000000064" x2="13.1750000000021" y2="83.0250000000064"/>
    <line x1="13.1750000000021" y1="83.0250000000064" x2="13.1750000000022" y2="86.2000000000064"/>
    <line x1="13.1750000000022" y1="86.2000000000064" x2="10.0000000000022" y2="86.2000000000064"/>
    <line x1="10.0000000000022" y1="86.2000000000064" x2="10.0000000000023" y2="89.3750000000064"/>
    <line x1="10.0000000000023" y1="89.3750000000064" x2="13.1750000000023" y2="89.3750000000064"/>
    <line x1="13.1750000000023" y1="89.3750000000064" x2="13.1750000000023" y2="92.5500000000063"/>
    <line x1="13.1750000000023" y1="92.5500000000063" x2="10.0000000000024" y2="92.5500000000063"/>
    <line x1="10.0000000000024" y1="92.5500000000063" x2="10.0000000000026" y2="95.7250000000063"/>
    <line x1="10.0000000000026" y1="95.7250000000063" x2="13.1750000000025" y2="95.7250000000063"/>
    <line x1="13.1750000000025" y1="95.7250000000063" x2="13.1750000000026" y2="98.9000000000063"/>
    <line x1="13.1750000000026" y1="98.9000000000063" x2="10.0000000000026" y2="98.9000000000063"/>
    <line x1="10.0000000000026" y1="98.9000000000063" x2="10.0000000000026" y2="102.075000000006"/>
    <line x1="10.0000000000026" y1="102.075000000006" x2="13.1750000000026" y2="102.075000000006"/>
    <line x1="13.1750000000026" y1="102.075000000006" x2="13.1750000000027" y2="105.250000000006"/>
    <line x1="13.1750000000027" y1="105.250000000006" x2="10.0000000000027" y2="105.250000000006"/>
    <line x1="10.0000000000027" y1="105.250000000006" x2="10.0000000000028" y2="108.425000000006"/>
    <line x1="10.0000000000028" y1="108.425000000006" x2="13.1750000000029" y2="108.425000000006"/>
    <line x1="13.1750000000029" y1="108.425000000006" x2="13.1750000000029" y2="111.600000000006"/>
    <line x1="13.1750000000029" y1="111.600000000006" x2="10.000000000003" y2="111.600000000006"/>
    <line x1="10.000000000003" y1="111.600000000006" x2="10.0000000000031" y2="114.775000000006"/>
    <line x1="10.0000000000031" y1="114.775000000006" x2="13.175000000003" y2="114.775000000006"/>
    <line x1="13.175000000003" y1="114.775000000006" x2="13.1750000000031" y2="117.950000000006"/>
    <line x1="13.1750000000031" y1="117.950000000006" x2="10.0000000000031" y2="117.950000000006"/>
    <line x1="10.0000000000031" y1="117.950000000006" x2="10.0000000000032" y2="121.125000000006"/>
    <line x1="10.0000000000032" y1="121.125000000006" x2="13.1750000000033" y2="121.125000000006"/>
    <line x1="13.1750000000033" y1="121.125000000006" x2="13.1750000000033" y2="124.300000000006"/>
    <line x1="13.1750000000033" y1="124.300000000006" x2="10.0000000000033" y2="124.300000000006"/>
    <line x1="10.0000000000033" y1="124.300000000006" x2="10.0000000000033" y2="127.475000000006"/>
    <line x1="10.0000000000033" y1="127.475000000006" x2="13.1750000000033" y2="127.475000000006"/>
    <line x1="13.1750000000033" y1="127.475000000006" x2="13.1750000000034" y2="130.650000000006"/>
    <line x1="13.1750000000034" y1="130.650000000006" x2="10.0000000000034" y2="130.650000000006"/>
    <line x1="10.0000000000034" y1="130.650000000006" x2="10.0000000000035" y2="133.825000000006"/>
    <line x1="10.0000000000035" y1="133.825000000006" x2="13.1750000000035" y2="133.825000000006"/>
    <line x1="13.1750000000035" y1="133.825000000006" x2="13.1750000000036" y2="137.000000000006"/>
    <line x1="13.1750000000036" y1="137.000000000006" x2="10.0000000000036" y2="137.000000000006"/>
    <line x1="10.0000000000036" y1="137.000000000006" x2="10.0000000000037" y2="140.175000000006"/>
    <line x1="10.0000000000037" y1="140.175000000006" x2="13.1750000000037" y2="140.175000000006"/>
    <line x1="13.1750000000037" y1="140.175000000006" x2="13.1750000000038" y2="143.350000000006"/>
    <line x1="13.1750000000038" y1="143.350000000006" x2="10.0000000000038" y2="143.350000000006"/>
    <line x1="10.0000000000038" y1="143.350000000006" x2="10.0000000000039" y2="146.525000000006"/>
    <line x1="10.0000000000039" y1="146.525000000006" x2="13.1750000000039" y2="146.525000000006"/>
    <line x1="13.1750000000039" y1="146.525000000006" x2="13.175000000004" y2="149.700000000006"/>
    <line x1="13.175000000004" y1="149.700000000006" x2="10.000000000004" y2="149.700000000006"/>
    <line x1="10.000000000004" y1="149.700000000006" x2="10.0000000000041" y2="152.875000000006"/>
    <line x1="10.0000000000041" y1="152.875000000006" x2="13.1750000000041" y2="152.875000000006"/>
    <line x1="13.1750000000041" y1="152.875000000006" x2="13.1750000000042" y2="156.050000000006"/>
    <line x1="13.1750000000042" y1="156.050000000006" x2="10.0000000000042" y2="156.050000000006"/>
    <line x1="10.0000000000042" y1="156.050000000006" x2="10.0000000000043" y2="159.225000000006"/>
    <line x1="10.0000000000043" y1="159.225000000006" x2="13.1750000000042" y2="159.225000000006"/>
    <line x1="13.1750000000042" y1="159.225000000006" x2="13.1750000000043" y2="162.400000000006"/>
    <line x1="13.1750000000043" y1="162.400000000006" x2="10.0000000000044" y2="162.400000000006"/>
    <line x1="10.0000000000044" y1="162.400000000006" x2="10.0000000000045" y2="165.575000000006"/>
    <line x1="10.0000000000045" y1="165.575000000006" x2="13.1750000000045" y2="165.575000000006"/>
    <line x1="13.1750000000045" y1="165.575000000006" x2="13.1750000000046" y2="168.750000000006"/>
    <line x1="13.1750000000046" y1="168.750000000006" x2="10.0000000000045" y2="168.750000000006"/>
    <line x1="10.0000000000045" y1="168.750000000006" x2="10.0000000000046" y2="171.925000000006"/>
    <line x1="10.0000000000046" y1="171.925000000006" x2="13.1750000000046" y2="171.925000000006"/>
    <line x1="13.1750000000046" y1="171.925000000006" x2="13.1750000000047" y2="175.100000000006"/>
    <line x1="13.1750000000047" y1="175.100000000006" x2="10.0000000000048" y2="175.100000000006"/>
    <line x1="10.0000000000048" y1="175.100000000006" x2="10.0000000000048" y2="178.275000000006"/>
    <line x1="10.0000000000048" y1="178.275000000006" x2="13.1750000000048" y2="178.275000000006"/>
    <line x1="13.1750000000048" y1="178.275000000006" x2="13.1750000000048" y2="181.450000000006"/>
    <line x1="13.1750000000048" y1="181.450000000006" x2="10.0000000000049" y2="181.450000000006"/>
    <line x1="10.0000000000049" y1="181.450000000006" x2="10.0000000000049" y2="184.625000000006"/>
    <line x1="10.0000000000049" y1="184.625000000006" x2="13.175000000005" y2="184.625000000006"/>
    <line x1="13.175000000005" y1="184.625000000006" x2="13.175000000005" y2="187.800000000006"/>
    <line x1="13.175000000005" y1="187.800000000006" x2="10.000000000005" y2="187.800000000006"/>
    <line x1="10.000000000005" y1="187.800000000006" x2="10.0000000000051" y2="190.975000000006"/>
    <line x1="10.0000000000051" y1="190.975000000006" x2="13.1750000000052" y2="190.975000000006"/>
    <line x1="13.1750000000052" y1="190.975000000006" x2="13.1750000000052" y2="194.150000000006"/>
    <line x1="13.1750000000052" y1="194.150000000006" x2="10.0000000000052" y2="194.150000000006"/>
    <line x1="10.0000000000052" y1="194.150000000006" x2="10.0000000000053" y2="197.325000000006"/>
    <line x1="10.0000000000053" y1="197.325000000006" x2="13.1750000000054" y2="197.325000000006"/>
    <line x1="13.1750000000054" y1="197.325000000006" x2="13.1750000000054" y2="200.500000000006"/>
    <line x1="13.1750000000054" y1="200.500000000006" x2="10.0000000000055" y2="200.500000000006"/>
    <line x1="10.0000000000055" y1="200.500000000006" x2="10.0000000000055" y2="203.675000000006"/>
    <line x1="10.0000000000055" y1="203.675000000006" x2="13.1750000000055" y2="203.675000000006"/>
    <line x1="13.1750000000055" y1="203.675000000006" x2="13.1750000000056" y2="206.850000000006"/>
    <line x1="13.1750000000056" y1="206.850000000006" x2="10.0000000000055" y2="206.850000000006"/>
    <line x1="10.0000000000055" y1="206.850000000006" x2="10.0000000000057" y2="210.025000000006"/>
    <line x1="10.0000000000057" y1="210.025000000006" x2="13.1750000000057" y2="210.025000000006"/>
    <line x1="13.1750000000057" y1="210.025000000006" x2="13.1750000000059" y2="213.200000000006"/>
    <line x1="13.1750000000059" y1="213.200000000006" x2="10.0000000000058" y2="213.200000000006"/>
    <line x1="10.0000000000058" y1="213.200000000006" x2="10.0000000000058" y2="216.375000000006"/>
    <line x1="10.0000000000058" y1="216.375000000006" x2="13.1750000000058" y2="216.375000000006"/>
    <line x1="13.1750000000058" y1="216.375000000006" x2="13.1750000000059" y2="219.550000000006"/>
    <line x1="13.1750000000059" y1="219.550000000006" x2="10.000000000006" y2="219.550000000006"/>
    <line x1="10.000000000006" y1="219.550000000006" x2="10.000000000006" y2="222.725000000006"/>
    <line x1="10.000000000006" y1="222.725000000006" x2="13.175000000006" y2="222.725000000006"/>
    <line x1="13.175000000006" y1="222.725000000006" x2="13.1750000000061" y2="225.900000000006"/>
    <line x1="13.1750000000061" y1="225.900000000006" x2="10.0000000000061" y2="225.900000000006"/>
    <line x1="10.0000000000061" y1="225.900000000006" x2="10.0000000000063" y2="229.075000000006"/>
    <line x1="10.0000000000063" y1="229.075000000006" x2="13.1750000000062" y2="229.075000000006"/>
    <line x1="13.1750000000062" y1="229.075000000006" x2="13.1750000000063" y2="232.250000000006"/>
    <line x1="13.1750000000063" y1="232.250000000006" x2="10.0000000000063" y2="232.250000000006"/>
    <line x1="10.0000000000063" y1="232.250000000006" x2="10.0000000000064" y2="235.425000000006"/>
    <line x1="10.0000000000064" y1="235.425000000006" x2="13.1750000000064" y2="235.425000000006"/>
    <line x1="13.1750000000064" y1="235.425000000006" x2="13.1750000000065" y2="238.600000000006"/>
    <line x1="13.1750000000065" y1="238.600000000006" x2="10.0000000000065" y2="238.600000000006"/>
    <line x1="10.0000000000065" y1="238.600000000006" x2="10.0000000000067" y2="241.775000000006"/>
    <line x1="10.0000000000067" y1="241.775000000006" x2="13.1750000000066" y2="241.775000000006"/>
    <line x1="13.1750000000066" y1="241.775000000006" x2="13.1750000000067" y2="244.950000000006"/>
    <line x1="13.1750000000067" y1="244.950000000006" x2="10.0000000000067" y2="244.950000000006"/>
    <line x1="10.0000000000067" y1="244.950000000006" x2="10.0000000000068" y2="248.125000000006"/>
    <line x1="10.0000000000068" y1="248.125000000006" x2="13.1750000000068" y2="248.125000000006"/>
    <line x1="13.1750000000068" y1="248.125000000006" x2="13.1750000000068" y2="251.300000000006"/>
    <line x1="13.1750000000068" y1="251.300000000006" x2="10.0000000000068" y2="251.300000000007"/>
    <line x1="10.0000000000068" y1="251.300000000007" x2="10.000000000007" y2="254.475000000007"/>
    <line x1="10.000000000007" y1="254.475000000007" x2="13.1750000000069" y2="254.475000000006"/>
    <line x1="13.1750000000069" y1="254.475000000006" x2="13.1750000000071" y2="257.650000000006"/>
    <line x1="13.1750000000071" y1="257.650000000006" x2="10.000000000007" y2="257.650000000007"/>
    <line x1="10.000000000007" y1="257.650000000007" x2="10.0000000000072" y2="260.825000000007"/>
    <line x1="10.0000000000072" y1="260.825000000007" x2="13.1750000000071" y2="260.825000000006"/>
    <line x1="13.1750000000071" y1="260.825000000006" x2="13.1750000000072" y2="264.000000000006"/>
    <line x1="13.1750000000072" y1="264.000000000006" x2="10.0000000000072" y2="264.000000000007"/>
    <line x1="10.0000000000072" y1="264.000000000007" x2="10.0000000000073" y2="267.175000000007"/>
    <line x1="10.0000000000073" y1="267.175000000007" x2="13.1750000000073" y2="267.175000000006"/>
    <line x1="13.1750000000073" y1="267.175000000006" x2="13.1750000000074" y2="270.350000000006"/>
    <line x1="13.1750000000074" y1="270.350000000006" x2="10.0000000000074" y2="270.350000000007"/>
    <line x1="10.0000000000074" y1="270.350000000007" x2="10.0000000000075" y2="273.525000000007"/>
    <line x1="10.0000000000075" y1="273.525000000007" x2="13.1750000000075" y2="273.525000000006"/>
    <line x1="13.1750000000075" y1="273.525000000006" x2="13.1750000000076" y2="276.700000000006"/>
    <line x1="13.1750000000076" y1="276.700000000006" x2="10.0000000000076" y2="276.700000000007"/>
    <line x1="10.0000000000076" y1="276.700000000007" x2="10.0000000000077" y2="279.875000000007"/>
    <line x1="10.0000000000077" y1="279.875000000007" x2="13.1750000000077" y2="279.875000000006"/>
    <line x1="13.1750000000077" y1="279.875000000006" x2="13.1750000000078" y2="283.050000000006"/>
    <line x1="13.1750000000078" y1="283.050000000006" x2="10.0000000000078" y2="283.050000000007"/>
    <line x1="10.0000000000078" y1="283.050000000007" x2="10.0000000000079" y2="286.225000000007"/>
    <line x1="10.0000000000079" y1="286.225000000007" x2="13.1750000000079" y2="286.225000000006"/>
    <line x1="13.1750000000079" y1="286.225000000006" x2="13.175000000008" y2="289.400000000006"/>
    <line x1="13.175000000008" y1="289.400000000006" x2="10.000000000008" y2="289.400000000007"/>
    <line x1="10.000000000008" y1="289.400000000007" x2="10.0000000000081" y2="292.575000000007"/>
    <line x1="10.0000000000081" y1="292.575000000007" x2="13.175000000008" y2="292.575000000006"/>
    <line x1="13.175000000008" y1="292.575000000006" x2="13.1750000000081" y2="295.750000000006"/>
    <line x1="13.1750000000081" y1="295.750000000006" x2="10.0000000000081" y2="295.750000000007"/>
    <line x1="10.0000000000081" y1="295.750000000007" x2="10.0000000000082" y2="298.925000000007"/>
    <line x1="10.0000000000082" y1="298.925000000007" x2="13.1750000000083" y2="298.925000000006"/>
    <line x1="13.1750000000083" y1="298.925000000006" x2="13.1750000000083" y2="302.100000000006"/>
    <line x1="13.1750000000083" y1="302.100000000006" x2="10.0000000000083" y2="302.100000000007"/>
    <line x1="10.0000000000083" y1="302.100000000007" x2="10.0000000000084" y2="305.275000000007"/>
    <line x1="10.0000000000084" y1="305.275000000007" x2="13.1750000000084" y2="305.275000000006"/>
    <line x1="13.1750000000084" y1="305.275000000006" x2="13.1750000000085" y2="308.450000000006"/>
    <line x1="13.1750000000085" y1="308.450000000006" x2="10.0000000000085" y2="308.450000000007"/>
    <line x1="10.0000000000085" y1="308.450000000007" x2="10.0000000000085" y2="311.625000000007"/>
    <line x1="10.0000000000085" y1="311.625000000007" x2="13.1750000000086" y2="311.625000000006"/>
    <line x1="13.1750000000086" y1="311.625000000006" x2="13.1750000000087" y2="314.800000000006"/>
    <line x1="13.1750000000087" y1="314.800000000006" x2="10.0000000000087" y2="314.800000000007"/>
    <line x1="10.0000000000087" y1="314.800000000007" x2="10.0000000000088" y2="317.975000000007"/>
    <line x1="10.0000000000088" y1="317.975000000007" x2="13.1750000000088" y2="317.975000000006"/>
    <line x1="13.1750000000088" y1="317.975000000006" x2="13.1750000000088" y2="321.150000000006"/>
    <line x1="13.1750000000088" y1="321.150000000006" x2="10.0000000000089" y2="321.150000000007"/>
    <line x1="10.0000000000089" y1="321.150000000007" x2="10.000000000009" y2="324.325000000007"/>
    <line x1="10.000000000009" y1="324.325000000007" x2="13.1750000000089" y2="324.325000000006"/>
    <line x1="13.1750000000089" y1="324.325000000006" x2="13.175000000009" y2="327.500000000006"/>
    <line x1="13.175000000009" y1="327.500000000006" x2="10.000000000009" y2="327.500000000007"/>
    <line x1="10.000000000009" y1="327.500000000007" x2="10.0000000000092" y2="330.675000000007"/>
    <line x1="10.0000000000092" y1="330.675000000007" x2="13.1750000000091" y2="330.675000000006"/>
    <line x1="13.1750000000091" y1="330.675000000006" x2="13.1750000000092" y2="333.850000000006"/>
    <line x1="13.1750000000092" y1="333.850000000006" x2="10.0000000000092" y2="333.850000000007"/>
    <line x1="10.0000000000092" y1="333.850000000007" x2="10.0000000000093" y2="337.025000000007"/>
    <line x1="10.0000000000093" y1="337.025000000007" x2="13.1750000000093" y2="337.025000000006"/>
    <line x1="13.1750000000093" y1="337.025000000006" x2="13.1750000000093" y2="340.200000000006"/>
    <line x1="13.1750000000093" y1="340.200000000006" x2="10.0000000000094" y2="340.200000000007"/>
    <line x1="10.0000000000094" y1="340.200000000007" x2="10.0000000000095" y2="343.375000000007"/>
    <line x1="10.0000000000095" y1="343.375000000007" x2="13.1750000000095" y2="343.375000000006"/>
    <line x1="13.1750000000095" y1="343.375000000006" x2="13.1750000000095" y2="346.550000000006"/>
    <line x1="13.1750000000095" y1="346.550000000006" x2="10.0000000000096" y2="346.550000000007"/>
    <line x1="10.0000000000096" y1="346.550000000007" x2="10.0000000000097" y2="349.725000000006"/>
    <line x1="10.0000000000097" y1="349.725000000006" x2="13.1750000000097" y2="349.725000000006"/>
    <line x1="13.1750000000097" y1="349.725000000006" x2="13.1750000000098" y2="352.900000000006"/>
    <line x1="13.1750000000098" y1="352.900000000006" x2="10.0000000000098" y2="352.900000000006"/>
    <line x1="10.0000000000098" y1="352.900000000006" x2="10.0000000000098" y2="356.075000000006"/>
    <line x1="10.0000000000098" y1="356.075000000006" x2="13.1750000000098" y2="356.075000000006"/>
    <line x1="13.1750000000098" y1="356.075000000006" x2="13.17500000001" y2="359.250000000006"/>
    <line x1="13.17500000001" y1="359.250000000006" x2="10.0000000000099" y2="359.250000000007"/>
    <line x1="10.0000000000099" y1="359.250000000007" x2="10.0000000000101" y2="362.425000000007"/>
    <line x1="10.0000000000101" y1="362.425000000007" x2="13.17500000001" y2="362.425000000006"/>
    <line x1="13.17500000001" y1="362.425000000006" x2="13.1750000000101" y2="365.600000000006"/>
    <line x1="13.1750000000101" y1="365.600000000006" x2="10.0000000000101" y2="365.600000000006"/>
    <line x1="10.0000000000101" y1="365.600000000006" x2="10.0000000000102" y2="368.775000000006"/>
    <line x1="10.0000000000102" y1="368.775000000006" x2="13.1750000000102" y2="368.775000000006"/>
    <line x1="13.1750000000102" y1="368.775000000006" x2="13.1750000000102" y2="371.950000000006"/>
    <line x1="13.1750000000102" y1="371.950000000006" x2="10.0000000000103" y2="371.950000000006"/>
    <line x1="10.0000000000103" y1="371.950000000006" x2="10.0000000000104" y2="375.125000000006"/>
    <line x1="10.0000000000104" y1="375.125000000006" x2="13.1750000000104" y2="375.125000000006"/>
    <line x1="13.1750000000104" y1="375.125000000006" x2="13.1750000000105" y2="378.300000000006"/>
    <line x1="13.1750000000105" y1="378.300000000006" x2="10.0000000000105" y2="378.300000000006"/>
    <line x1="10.0000000000105" y1="378.300000000006" x2="10.0000000000105" y2="381.475000000006"/>
    <line x1="10.0000000000105" y1="381.475000000006" x2="13.1750000000105" y2="381.475000000006"/>
    <line x1="13.1750000000105" y1="381.475000000006" x2="13.1750000000106" y2="384.650000000006"/>
    <line x1="13.1750000000106" y1="384.650000000006" x2="10.0000000000106" y2="384.650000000006"/>
    <line x1="10.0000000000106" y1="384.650000000006" x2="10.0000000000107" y2="387.825000000006"/>
    <line x1="10.0000000000107" y1="387.825000000006" x2="13.1750000000108" y2="387.825000000006"/>
    <line x1="13.1750000000108" y1="387.825000000006" x2="13.1750000000108" y2="391.000000000006"/>
    <line x1="13.1750000000108" y1="391.000000000006" x2="10.0000000000107" y2="391.000000000006"/>
    <line x1="10.0000000000107" y1="391.000000000006" x2="10.0000000000107" y2="394.175000000007"/>
    <line x1="10.0000000000107" y1="394.175000000007" x2="13.1750000000107" y2="394.175000000007"/>
    <line x1="23.8048186557414" y1="368.775000000006" x2="49.2048186557415" y2="368.775000000005"/>
    <line x1="49.2048186557415" y1="368.775000000005" x2="49.2048186557415" y2="389.477112164477"/>
    <line x1="49.2048186557415" y1="389.477112164477" x2="23.8048186557414" y2="389.477112164477"/>
    <line x1="23.8048186557414" y1="389.477112164477" x2="23.8048186557414" y2="368.775000000006"/>
    <line x1="48.968159294632" y1="38.3822487531995" x2="23.5681592946319" y2="38.3822487531995"/>
    <line x1="23.5681592946319" y1="38.3822487531995" x2="23.5681592946319" y2="17.6801365887284"/>
    <line x1="23.5681592946319" y1="17.6801365887284" x2="48.9681592946318" y2="17.6801365887276"/>
    <line x1="48.9681592946318" y1="17.6801365887276" x2="48.968159294632" y2="38.3822487531995"/>
  </g>
</svg>
