<?xml version="1.0" encoding="UTF-8" standalone="no"?>
<svg
   xmlns:dc="http://purl.org/dc/elements/1.1/"
   xmlns:cc="http://creativecommons.org/ns#"
   xmlns:rdf="http://www.w3.org/1999/02/22-rdf-syntax-ns#"
   xmlns:svg="http://www.w3.org/2000/svg"
   xmlns="http://www.w3.org/2000/svg"
   xmlns:sodipodi="http://sodipodi.sourceforge.net/DTD/sodipodi-0.dtd"
   xmlns:inkscape="http://www.inkscape.org/namespaces/inkscape"
   width="1260"
   height="855"
   viewBox="0 0 355.59999 241.30002"
   version="1.1"
   id="svg12654"
   inkscape:version="0.48.2 r9819"
   sodipodi:docname="4.svg">
  <metadata
     id="metadata12925">
    <rdf:RDF>
      <cc:Work
         rdf:about="">
        <dc:format>image/svg+xml</dc:format>
        <dc:type
           rdf:resource="http://purl.org/dc/dcmitype/StillImage" />
        <dc:title></dc:title>
      </cc:Work>
    </rdf:RDF>
  </metadata>
  <defs
     id="defs12923" />
  <sodipodi:namedview
     pagecolor="#ffffff"
     bordercolor="#666666"
     borderopacity="1"
     objecttolerance="10"
     gridtolerance="10"
     guidetolerance="10"
     inkscape:pageopacity="0"
     inkscape:pageshadow="2"
     inkscape:window-width="1392"
     inkscape:window-height="798"
     id="namedview12921"
     showgrid="false"
     units="in"
     inkscape:zoom="0.72734065"
     inkscape:cx="502.10315"
     inkscape:cy="390.93396"
     inkscape:window-x="0"
     inkscape:window-y="0"
     inkscape:window-maximized="0"
     inkscape:current-layer="svg12654" />
  <desc
     id="desc12656">Output from Flights of Ideas SVG Sketchup Plugin</desc>
  <g
     id="face0"
     stroke-miterlimit="4"
     style="fill:none;stroke:#0000ff;stroke-width:1;stroke-linecap:round;stroke-linejoin:round;stroke-miterlimit:4;stroke-dasharray:none"
     transform="translate(-8.3252827,-9.2478843)">
    <line
       x1="40.026974"
       y1="245.75665"
       x2="41.649097"
       y2="248.44994"
       id="line12659" />
    <line
       x1="41.649097"
       y1="248.44994"
       x2="362.58463"
       y2="55.154774"
       id="line12661" />
    <line
       x1="362.58463"
       y1="55.154774"
       x2="360.9465"
       y2="52.434982"
       id="line12663" />
    <line
       x1="360.9465"
       y1="52.434982"
       x2="363.66632"
       y2="50.796886"
       id="line12665" />
    <line
       x1="363.66632"
       y1="50.796886"
       x2="362.02823"
       y2="48.077095"
       id="line12667" />
    <line
       x1="362.02823"
       y1="48.077095"
       x2="359.30841"
       y2="49.715191"
       id="line12669" />
    <line
       x1="359.30841"
       y1="49.715191"
       x2="357.67032"
       y2="46.995396"
       id="line12671" />
    <line
       x1="357.67032"
       y1="46.995396"
       x2="360.39011"
       y2="45.357304"
       id="line12673" />
    <line
       x1="360.39011"
       y1="45.357304"
       x2="358.75201"
       y2="42.637508"
       id="line12675" />
    <line
       x1="358.75201"
       y1="42.637508"
       x2="356.03223"
       y2="44.275604"
       id="line12677" />
    <line
       x1="356.03223"
       y1="44.275604"
       x2="354.39413"
       y2="41.555813"
       id="line12679" />
    <line
       x1="354.39413"
       y1="41.555813"
       x2="357.11392"
       y2="39.917717"
       id="line12681" />
    <line
       x1="357.11392"
       y1="39.917717"
       x2="355.47583"
       y2="37.197926"
       id="line12683" />
    <line
       x1="355.47583"
       y1="37.197926"
       x2="352.75604"
       y2="38.836018"
       id="line12685" />
    <line
       x1="352.75604"
       y1="38.836018"
       x2="351.11795"
       y2="36.116226"
       id="line12687" />
    <line
       x1="351.11795"
       y1="36.116226"
       x2="353.83774"
       y2="34.478134"
       id="line12689" />
    <line
       x1="353.83774"
       y1="34.478134"
       x2="352.19965"
       y2="31.758339"
       id="line12691" />
    <line
       x1="352.19965"
       y1="31.758339"
       x2="349.47986"
       y2="33.396435"
       id="line12693" />
    <line
       x1="349.47986"
       y1="33.396435"
       x2="347.84177"
       y2="30.676641"
       id="line12695" />
    <line
       x1="347.84177"
       y1="30.676641"
       x2="350.56155"
       y2="29.038548"
       id="line12697" />
    <line
       x1="350.56155"
       y1="29.038548"
       x2="348.92346"
       y2="26.318754"
       id="line12699" />
    <line
       x1="348.92346"
       y1="26.318754"
       x2="346.20367"
       y2="27.95685"
       id="line12701" />
    <line
       x1="346.20367"
       y1="27.95685"
       x2="346.17172"
       y2="27.903816"
       id="line12703" />
    <line
       x1="346.17172"
       y1="27.903816"
       x2="344.56558"
       y2="25.237057"
       id="line12705" />
    <line
       x1="344.56558"
       y1="25.237057"
       x2="344.53363"
       y2="25.184025"
       id="line12707" />
    <line
       x1="344.53363"
       y1="25.184025"
       x2="347.25342"
       y2="23.545931"
       id="line12709" />
    <line
       x1="347.25342"
       y1="23.545931"
       x2="345.64728"
       y2="20.879169"
       id="line12711" />
    <line
       x1="345.64728"
       y1="20.879169"
       x2="342.92749"
       y2="22.517265"
       id="line12713" />
    <line
       x1="342.92749"
       y1="22.517265"
       x2="342.89554"
       y2="22.464231"
       id="line12715" />
    <line
       x1="342.89554"
       y1="22.464231"
       x2="341.28937"
       y2="19.797472"
       id="line12717" />
    <line
       x1="341.28937"
       y1="19.797472"
       x2="341.25745"
       y2="19.74444"
       id="line12719" />
    <line
       x1="341.25745"
       y1="19.74444"
       x2="343.97723"
       y2="18.106344"
       id="line12721" />
    <line
       x1="343.97723"
       y1="18.106344"
       x2="342.37109"
       y2="15.439585"
       id="line12723" />
    <line
       x1="342.37109"
       y1="15.439585"
       x2="339.65128"
       y2="17.077679"
       id="line12725" />
    <line
       x1="339.65128"
       y1="17.077679"
       x2="339.61935"
       y2="17.024647"
       id="line12727" />
    <line
       x1="339.61935"
       y1="17.024647"
       x2="338.01318"
       y2="14.357887"
       id="line12729" />
    <line
       x1="338.01318"
       y1="14.357887"
       x2="337.99722"
       y2="14.331371"
       id="line12731" />
    <line
       x1="337.99722"
       y1="14.331371"
       x2="340.71701"
       y2="12.693276"
       id="line12733" />
    <line
       x1="340.71701"
       y1="12.693276"
       x2="339.09488"
       y2="10"
       id="line12735" />
    <line
       x1="339.09488"
       y1="10"
       x2="10"
       y2="208.20944"
       id="line12737" />
    <line
       x1="10"
       y1="208.20944"
       x2="11.622125"
       y2="210.90273"
       id="line12739" />
    <line
       x1="11.622125"
       y1="210.90273"
       x2="14.341917"
       y2="209.26463"
       id="line12741" />
    <line
       x1="14.341917"
       y1="209.26463"
       x2="17.061708"
       y2="207.62653"
       id="line12743" />
    <line
       x1="17.061708"
       y1="207.62653"
       x2="17.077679"
       y2="207.65305"
       id="line12745" />
    <line
       x1="17.077679"
       y1="207.65305"
       x2="18.683834"
       y2="210.31981"
       id="line12747" />
    <line
       x1="18.683834"
       y1="210.31981"
       x2="18.715775"
       y2="210.37283"
       id="line12749" />
    <line
       x1="18.715775"
       y1="210.37283"
       x2="13.276189"
       y2="213.64903"
       id="line12751" />
    <line
       x1="13.276189"
       y1="213.64903"
       x2="14.882343"
       y2="216.3158"
       id="line12753" />
    <line
       x1="14.882343"
       y1="216.3158"
       x2="17.602135"
       y2="214.67769"
       id="line12755" />
    <line
       x1="17.602135"
       y1="214.67769"
       x2="20.321928"
       y2="213.0396"
       id="line12757" />
    <line
       x1="20.321928"
       y1="213.0396"
       x2="20.353868"
       y2="213.09264"
       id="line12759" />
    <line
       x1="20.353868"
       y1="213.09264"
       x2="21.960022"
       y2="215.7594"
       id="line12761" />
    <line
       x1="21.960022"
       y1="215.7594"
       x2="21.991962"
       y2="215.81242"
       id="line12763" />
    <line
       x1="21.991962"
       y1="215.81242"
       x2="16.552378"
       y2="219.08861"
       id="line12765" />
    <line
       x1="16.552378"
       y1="219.08861"
       x2="18.158533"
       y2="221.75537"
       id="line12767" />
    <line
       x1="18.158533"
       y1="221.75537"
       x2="20.878325"
       y2="220.11728"
       id="line12769" />
    <line
       x1="20.878325"
       y1="220.11728"
       x2="23.598118"
       y2="218.47919"
       id="line12771" />
    <line
       x1="23.598118"
       y1="218.47919"
       x2="23.630058"
       y2="218.53221"
       id="line12773" />
    <line
       x1="23.630058"
       y1="218.53221"
       x2="25.236212"
       y2="221.19897"
       id="line12775" />
    <line
       x1="25.236212"
       y1="221.19897"
       x2="25.268152"
       y2="221.25201"
       id="line12777" />
    <line
       x1="25.268152"
       y1="221.25201"
       x2="19.828568"
       y2="224.5282"
       id="line12779" />
    <line
       x1="19.828568"
       y1="224.5282"
       x2="21.466661"
       y2="227.24799"
       id="line12781" />
    <line
       x1="21.466661"
       y1="227.24799"
       x2="24.186455"
       y2="225.60989"
       id="line12783" />
    <line
       x1="24.186455"
       y1="225.60989"
       x2="26.906246"
       y2="223.9718"
       id="line12785" />
    <line
       x1="26.906246"
       y1="223.9718"
       x2="28.544342"
       y2="226.69159"
       id="line12787" />
    <line
       x1="28.544342"
       y1="226.69159"
       x2="25.824549"
       y2="228.3297"
       id="line12789" />
    <line
       x1="25.824549"
       y1="228.3297"
       x2="23.104757"
       y2="229.96779"
       id="line12791" />
    <line
       x1="23.104757"
       y1="229.96779"
       x2="24.742851"
       y2="232.68758"
       id="line12793" />
    <line
       x1="24.742851"
       y1="232.68758"
       x2="27.462645"
       y2="231.04948"
       id="line12795" />
    <line
       x1="27.462645"
       y1="231.04948"
       x2="30.182436"
       y2="229.41139"
       id="line12797" />
    <line
       x1="30.182436"
       y1="229.41139"
       x2="31.82053"
       y2="232.13118"
       id="line12799" />
    <line
       x1="31.82053"
       y1="232.13118"
       x2="31.852472"
       y2="232.18422"
       id="line12801" />
    <line
       x1="31.852472"
       y1="232.18422"
       x2="26.412886"
       y2="235.4604"
       id="line12803" />
    <line
       x1="26.412886"
       y1="235.4604"
       x2="28.019041"
       y2="238.12717"
       id="line12805" />
    <line
       x1="28.019041"
       y1="238.12717"
       x2="30.738832"
       y2="236.48906"
       id="line12807" />
    <line
       x1="30.738832"
       y1="236.48906"
       x2="33.458626"
       y2="234.85097"
       id="line12809" />
    <line
       x1="33.458626"
       y1="234.85097"
       x2="33.490566"
       y2="234.90401"
       id="line12811" />
    <line
       x1="33.490566"
       y1="234.90401"
       x2="35.096722"
       y2="237.57077"
       id="line12813" />
    <line
       x1="35.096722"
       y1="237.57077"
       x2="35.128662"
       y2="237.62379"
       id="line12815" />
    <line
       x1="35.128662"
       y1="237.62379"
       x2="29.689075"
       y2="240.89998"
       id="line12817" />
    <line
       x1="29.689075"
       y1="240.89998"
       x2="31.295229"
       y2="243.56674"
       id="line12819" />
    <line
       x1="31.295229"
       y1="243.56674"
       x2="34.015022"
       y2="241.92865"
       id="line12821" />
    <line
       x1="34.015022"
       y1="241.92865"
       x2="36.734814"
       y2="240.29056"
       id="line12823" />
    <line
       x1="36.734814"
       y1="240.29056"
       x2="36.766754"
       y2="240.34358"
       id="line12825" />
    <line
       x1="36.766754"
       y1="240.34358"
       x2="38.37291"
       y2="243.01035"
       id="line12827" />
    <line
       x1="38.37291"
       y1="243.01035"
       x2="38.40485"
       y2="243.06339"
       id="line12829" />
    <line
       x1="38.40485"
       y1="243.06339"
       x2="32.965263"
       y2="246.33957"
       id="line12831" />
    <line
       x1="32.965263"
       y1="246.33957"
       x2="34.571419"
       y2="249.00633"
       id="line12833" />
    <line
       x1="34.571419"
       y1="249.00633"
       x2="37.29121"
       y2="247.36824"
       id="line12835" />
    <line
       x1="37.29121"
       y1="247.36824"
       x2="40.011005"
       y2="245.73015"
       id="line12837" />
    <line
       x1="40.011005"
       y1="245.73015"
       x2="40.026974"
       y2="245.75665"
       id="line12839" />
    <line
       x1="40.474144"
       y1="197.26807"
       x2="45.9137"
       y2="193.9919"
       id="line12841" />
    <line
       x1="45.9137"
       y1="193.9919"
       x2="47.53146"
       y2="196.666"
       id="line12843" />
    <line
       x1="47.53146"
       y1="196.666"
       x2="49.189888"
       y2="199.43147"
       id="line12845" />
    <line
       x1="49.189888"
       y1="199.43147"
       x2="27.431549"
       y2="212.53624"
       id="line12847" />
    <line
       x1="27.431549"
       y1="212.53624"
       x2="25.798761"
       y2="209.81323"
       id="line12849" />
    <line
       x1="25.798761"
       y1="209.81323"
       x2="24.155359"
       y2="207.09665"
       id="line12851" />
    <line
       x1="24.155359"
       y1="207.09665"
       x2="29.588533"
       y2="203.80984"
       id="line12853" />
    <line
       x1="29.588533"
       y1="203.80984"
       x2="40.474144"
       y2="197.26807"
       id="line12855" />
    <line
       x1="43.844433"
       y1="239.78719"
       x2="42.123089"
       y2="236.92958"
       id="line12857" />
    <line
       x1="42.123089"
       y1="236.92958"
       x2="40.568245"
       y2="234.34761"
       id="line12859" />
    <line
       x1="40.568245"
       y1="234.34761"
       x2="46.002621"
       y2="231.07457"
       id="line12861" />
    <line
       x1="46.002621"
       y1="231.07457"
       x2="56.881809"
       y2="224.52217"
       id="line12863" />
    <line
       x1="56.881809"
       y1="224.52217"
       x2="62.326584"
       y2="221.24284"
       id="line12865" />
    <line
       x1="62.326584"
       y1="221.24284"
       x2="63.855789"
       y2="223.78235"
       id="line12867" />
    <line
       x1="63.855789"
       y1="223.78235"
       x2="65.602776"
       y2="226.68243"
       id="line12869" />
    <line
       x1="65.602776"
       y1="226.68243"
       x2="43.844433"
       y2="239.78719"
       id="line12871" />
    <line
       x1="157.86351"
       y1="134.05109"
       x2="154.58733"
       y2="128.6115"
       id="line12873" />
    <line
       x1="154.58733"
       y1="128.6115"
       x2="176.34566"
       y2="115.50674"
       id="line12875" />
    <line
       x1="176.34566"
       y1="115.50674"
       x2="179.62186"
       y2="120.94632"
       id="line12877" />
    <line
       x1="179.62186"
       y1="120.94632"
       x2="157.86351"
       y2="134.05109"
       id="line12879" />
    <line
       x1="174.24446"
       y1="161.24901"
       x2="170.96828"
       y2="155.80942"
       id="line12881" />
    <line
       x1="170.96828"
       y1="155.80942"
       x2="192.72661"
       y2="142.70467"
       id="line12883" />
    <line
       x1="192.72661"
       y1="142.70467"
       x2="196.00279"
       y2="148.14424"
       id="line12885" />
    <line
       x1="196.00279"
       y1="148.14424"
       x2="174.24446"
       y2="161.24901"
       id="line12887" />
    <line
       x1="328.77213"
       y1="23.630058"
       x2="334.2117"
       y2="20.353868"
       id="line12889" />
    <line
       x1="334.2117"
       y1="20.353868"
       x2="335.84979"
       y2="23.073662"
       id="line12891" />
    <line
       x1="335.84979"
       y1="23.073662"
       x2="337.48788"
       y2="25.793453"
       id="line12893" />
    <line
       x1="337.48788"
       y1="25.793453"
       x2="315.72955"
       y2="38.898209"
       id="line12895" />
    <line
       x1="315.72955"
       y1="38.898209"
       x2="314.09146"
       y2="36.178417"
       id="line12897" />
    <line
       x1="314.09146"
       y1="36.178417"
       x2="312.45337"
       y2="33.458626"
       id="line12899" />
    <line
       x1="312.45337"
       y1="33.458626"
       x2="317.89294"
       y2="30.182436"
       id="line12901" />
    <line
       x1="317.89294"
       y1="30.182436"
       x2="328.77213"
       y2="23.630058"
       id="line12903" />
    <line
       x1="345.15308"
       y1="50.827984"
       x2="350.59265"
       y2="47.551792"
       id="line12905" />
    <line
       x1="350.59265"
       y1="47.551792"
       x2="352.23074"
       y2="50.271587"
       id="line12907" />
    <line
       x1="352.23074"
       y1="50.271587"
       x2="353.86884"
       y2="52.991379"
       id="line12909" />
    <line
       x1="353.86884"
       y1="52.991379"
       x2="332.1105"
       y2="66.096138"
       id="line12911" />
    <line
       x1="332.1105"
       y1="66.096138"
       x2="330.47241"
       y2="63.376343"
       id="line12913" />
    <line
       x1="330.47241"
       y1="63.376343"
       x2="328.83432"
       y2="60.656551"
       id="line12915" />
    <line
       x1="328.83432"
       y1="60.656551"
       x2="334.2739"
       y2="57.38036"
       id="line12917" />
    <line
       x1="334.2739"
       y1="57.38036"
       x2="345.15308"
       y2="50.827984"
       id="line12919" />
  </g>
</svg>
