<?xml version="1.0" standalone="no"?>
<!DOCTYPE svg PUBLIC "-//W3C//DTD SVG 1.1//EN" "http://www.w3.org/Graphics/SVG/1.1/DTD/svg11.dtd">
<svg width="185.140092516666mm" height="45.7586256491203mm"
 viewBox="0 0 185.140092516666 45.7586256491203"
 xmlns="http://www.w3.org/2000/svg" version="1.1"
 xmlns:xlink="http://www.w3.org/1999/xlink">
<desc>Output from Flights of Ideas SVG Sketchup Plugin</desc>

  <g id="face0" fill="none" stroke="rgb(0,0,255)" stroke-width="1" stroke-miterlimit="4" stroke-dasharray="none" stroke-linejoin="round" stroke-linecap="round">
    <line x1="25.987001872802" y1="35.7586256491203" x2="162.440092516666" y2="35.7586256491203"/>
    <line x1="162.440092516666" y1="35.7586256491203" x2="165.727094389468" y2="35.3258836429876"/>
    <line x1="165.727094389468" y1="35.3258836429876" x2="168.790092516666" y2="34.0571482771828"/>
    <line x1="168.790092516666" y1="34.0571482771828" x2="171.420348637735" y2="32.0388817701895"/>
    <line x1="171.420348637735" y1="32.0388817701895" x2="173.438615144728" y2="29.4086256491206"/>
    <line x1="173.438615144728" y1="29.4086256491206" x2="174.707350510537" y2="26.3456275219221"/>
    <line x1="174.707350510537" y1="26.3456275219221" x2="175.140092516666" y2="23.0586256491206"/>
    <line x1="175.140092516666" y1="23.0586256491206" x2="174.707350510537" y2="19.7716237763185"/>
    <line x1="174.707350510537" y1="19.7716237763185" x2="173.438615144728" y2="16.7086256491205"/>
    <line x1="173.438615144728" y1="16.7086256491205" x2="171.420348637735" y2="14.0783695280512"/>
    <line x1="171.420348637735" y1="14.0783695280512" x2="168.790092516666" y2="12.060103021058"/>
    <line x1="168.790092516666" y1="12.060103021058" x2="165.727094389468" y2="10.7913676552491"/>
    <line x1="165.727094389468" y1="10.7913676552491" x2="162.4" y2="10.0"/>
    <line x1="162.4" y1="10.0" x2="122.788547194734" y2="10.0000000000001"/>
    <line x1="122.788547194734" y1="10.0000000000001" x2="122.788547194734" y2="22.7000000000001"/>
    <line x1="122.788547194734" y1="22.7000000000001" x2="119.613547194734" y2="22.7"/>
    <line x1="119.613547194734" y1="22.7" x2="119.613547194734" y2="10.0000000000001"/>
    <line x1="119.613547194734" y1="10.0000000000001" x2="68.8135471947339" y2="10.0"/>
    <line x1="68.8135471947339" y1="10.0" x2="68.8135471947339" y2="22.7"/>
    <line x1="68.8135471947339" y1="22.7" x2="65.6385471947339" y2="22.7"/>
    <line x1="65.6385471947339" y1="22.7" x2="65.6385471947339" y2="10.0"/>
    <line x1="65.6385471947339" y1="10.0" x2="22.6999999999999" y2="10.0"/>
    <line x1="22.6999999999999" y1="10.0" x2="19.412998127198" y2="10.4327420061289"/>
    <line x1="19.412998127198" y1="10.4327420061289" x2="18.5948350892515" y2="10.7716362326787"/>
    <line x1="18.5948350892515" y1="10.7716362326787" x2="16.3500000000001" y2="11.7014773719377"/>
    <line x1="16.3500000000001" y1="11.7014773719377" x2="13.7197438789308" y2="13.7197438789309"/>
    <line x1="13.7197438789308" y1="13.7197438789309" x2="11.7014773719375" y2="16.35"/>
    <line x1="11.7014773719375" y1="16.35" x2="10.4327420061289" y2="19.412998127198"/>
    <line x1="10.4327420061289" y1="19.412998127198" x2="10.0" y2="22.7"/>
    <line x1="10.0" y1="22.7" x2="10.4327420061289" y2="25.9870018728021"/>
    <line x1="10.4327420061289" y1="25.9870018728021" x2="11.7014773719375" y2="29.0500000000001"/>
    <line x1="11.7014773719375" y1="29.0500000000001" x2="13.7197438789308" y2="31.6802561210692"/>
    <line x1="13.7197438789308" y1="31.6802561210692" x2="16.3500000000001" y2="33.6985226280624"/>
    <line x1="16.3500000000001" y1="33.6985226280624" x2="19.412998127198" y2="34.9672579938713"/>
    <line x1="19.412998127198" y1="34.9672579938713" x2="22.6999999999999" y2="35.4000000000001"/>
    <line x1="22.6999999999999" y1="35.4000000000001" x2="25.987001872802" y2="35.7586256491203"/>
    <line x1="164.027592516666" y1="25.8082563061359" x2="163.261842984866" y2="26.1254401475878"/>
    <line x1="163.261842984866" y1="26.1254401475878" x2="162.440092516666" y2="26.2336256491202"/>
    <line x1="162.440092516666" y1="26.2336256491202" x2="161.618342048465" y2="26.1254401475879"/>
    <line x1="161.618342048465" y1="26.1254401475879" x2="160.852592516666" y2="25.8082563061359"/>
    <line x1="160.852592516666" y1="25.8082563061359" x2="160.195028486399" y2="25.3036896793876"/>
    <line x1="160.195028486399" y1="25.3036896793876" x2="159.69046185965" y2="24.6461256491203"/>
    <line x1="159.69046185965" y1="24.6461256491203" x2="159.373278018198" y2="23.8803761173206"/>
    <line x1="159.373278018198" y1="23.8803761173206" x2="159.265092516666" y2="23.0586256491206"/>
    <line x1="159.265092516666" y1="23.0586256491206" x2="159.373278018198" y2="22.23687518092"/>
    <line x1="159.373278018198" y1="22.23687518092" x2="159.69046185965" y2="21.4711256491204"/>
    <line x1="159.69046185965" y1="21.4711256491204" x2="160.195028486399" y2="20.8135616188531"/>
    <line x1="160.195028486399" y1="20.8135616188531" x2="160.852592516666" y2="20.3089949921048"/>
    <line x1="160.852592516666" y1="20.3089949921048" x2="161.618342048465" y2="19.9918111506527"/>
    <line x1="161.618342048465" y1="19.9918111506527" x2="162.440092516666" y2="19.8836256491203"/>
    <line x1="162.440092516666" y1="19.8836256491203" x2="163.261842984866" y2="19.9918111506525"/>
    <line x1="163.261842984866" y1="19.9918111506525" x2="164.027592516666" y2="20.3089949921047"/>
    <line x1="164.027592516666" y1="20.3089949921047" x2="164.685156546933" y2="20.8135616188531"/>
    <line x1="164.685156546933" y1="20.8135616188531" x2="165.189723173682" y2="21.4711256491204"/>
    <line x1="165.189723173682" y1="21.4711256491204" x2="165.506907015134" y2="22.2368751809198"/>
    <line x1="165.506907015134" y1="22.2368751809198" x2="165.615092516666" y2="23.0586256491204"/>
    <line x1="165.615092516666" y1="23.0586256491204" x2="165.506907015134" y2="23.8803761173209"/>
    <line x1="165.506907015134" y1="23.8803761173209" x2="165.189723173682" y2="24.6461256491205"/>
    <line x1="165.189723173682" y1="24.6461256491205" x2="164.685156546933" y2="25.3036896793875"/>
    <line x1="164.685156546933" y1="25.3036896793875" x2="164.027592516666" y2="25.8082563061359"/>
    <line x1="24.581283962822" y1="25.2242022937068" x2="24.2874999999999" y2="25.4496306570156"/>
    <line x1="24.2874999999999" y1="25.4496306570156" x2="23.5217504682004" y2="25.7668144984678"/>
    <line x1="23.5217504682004" y1="25.7668144984678" x2="22.6999999999999" y2="25.875"/>
    <line x1="22.6999999999999" y1="25.875" x2="21.8782495317994" y2="25.7668144984678"/>
    <line x1="21.8782495317994" y1="25.7668144984678" x2="21.1124999999999" y2="25.4496306570156"/>
    <line x1="21.1124999999999" y1="25.4496306570156" x2="20.4549359697326" y2="24.9450640302673"/>
    <line x1="20.4549359697326" y1="24.9450640302673" x2="19.9503693429843" y2="24.2875"/>
    <line x1="19.9503693429843" y1="24.2875" x2="19.6331855015321" y2="23.5217504682005"/>
    <line x1="19.6331855015321" y1="23.5217504682005" x2="19.5249999999999" y2="22.7"/>
    <line x1="19.5249999999999" y1="22.7" x2="19.6331855015321" y2="21.8782495317995"/>
    <line x1="19.6331855015321" y1="21.8782495317995" x2="19.9503693429843" y2="21.1125"/>
    <line x1="19.9503693429843" y1="21.1125" x2="20.4549359697326" y2="20.4549359697328"/>
    <line x1="20.4549359697326" y1="20.4549359697328" x2="21.1124999999999" y2="19.9503693429845"/>
    <line x1="21.1124999999999" y1="19.9503693429845" x2="21.8782495317994" y2="19.6331855015322"/>
    <line x1="21.8782495317994" y1="19.6331855015322" x2="22.2453880884824" y2="19.5848507935843"/>
    <line x1="22.2453880884824" y1="19.5848507935843" x2="22.6999999999999" y2="19.525"/>
    <line x1="22.6999999999999" y1="19.525" x2="23.5217504682004" y2="19.6331855015322"/>
    <line x1="23.5217504682004" y1="19.6331855015322" x2="24.2874999999999" y2="19.9503693429845"/>
    <line x1="24.2874999999999" y1="19.9503693429845" x2="24.9450640302672" y2="20.4549359697328"/>
    <line x1="24.9450640302672" y1="20.4549359697328" x2="25.4496306570155" y2="21.1125"/>
    <line x1="25.4496306570155" y1="21.1125" x2="25.7668144984677" y2="21.8782495317995"/>
    <line x1="25.7668144984677" y1="21.8782495317995" x2="25.8749999999999" y2="22.7"/>
    <line x1="25.8749999999999" y1="22.7" x2="25.7668144984677" y2="23.5217504682005"/>
    <line x1="25.7668144984677" y1="23.5217504682005" x2="25.4496306570155" y2="24.2875"/>
    <line x1="25.4496306570155" y1="24.2875" x2="24.9450640302672" y2="24.9450640302673"/>
    <line x1="24.9450640302672" y1="24.9450640302673" x2="24.581283962822" y2="25.2242022937068"/>
  </g>
</svg>
