<?xml version="1.0" encoding="UTF-8" standalone="no"?>
<svg
   xmlns:dc="http://purl.org/dc/elements/1.1/"
   xmlns:cc="http://creativecommons.org/ns#"
   xmlns:rdf="http://www.w3.org/1999/02/22-rdf-syntax-ns#"
   xmlns:svg="http://www.w3.org/2000/svg"
   xmlns="http://www.w3.org/2000/svg"
   xmlns:sodipodi="http://sodipodi.sourceforge.net/DTD/sodipodi-0.dtd"
   xmlns:inkscape="http://www.inkscape.org/namespaces/inkscape"
   width="1260"
   height="855"
   viewBox="0 0 355.60002 241.29999"
   version="1.1"
   id="svg14608"
   inkscape:version="0.48.2 r9819"
   sodipodi:docname="b.svg">
  <metadata
     id="metadata14807">
    <rdf:RDF>
      <cc:Work
         rdf:about="">
        <dc:format>image/svg+xml</dc:format>
        <dc:type
           rdf:resource="http://purl.org/dc/dcmitype/StillImage" />
        <dc:title></dc:title>
      </cc:Work>
    </rdf:RDF>
  </metadata>
  <defs
     id="defs14805" />
  <sodipodi:namedview
     pagecolor="#ffffff"
     bordercolor="#666666"
     borderopacity="1"
     objecttolerance="10"
     gridtolerance="10"
     guidetolerance="10"
     inkscape:pageopacity="0"
     inkscape:pageshadow="2"
     inkscape:window-width="1550"
     inkscape:window-height="944"
     id="namedview14803"
     showgrid="false"
     units="in"
     inkscape:zoom="0.75023361"
     inkscape:cx="664.13733"
     inkscape:cy="429.44253"
     inkscape:window-x="0"
     inkscape:window-y="0"
     inkscape:window-maximized="0"
     inkscape:current-layer="svg14608" />
  <desc
     id="desc14610">Output from Flights of Ideas SVG Sketchup Plugin</desc>
  <g
     id="face0"
     stroke-miterlimit="4"
     style="fill:none;stroke:#0000ff;stroke-width:1;stroke-linecap:round;stroke-linejoin:round;stroke-miterlimit:4;stroke-dasharray:none"
     transform="translate(-9.5759576,3.473486)">
    <line
       x1="350.75687"
       y1="34.732883"
       x2="349.18378"
       y2="31.974979"
       id="line14613" />
    <line
       x1="349.18378"
       y1="31.974979"
       x2="351.94168"
       y2="30.401897"
       id="line14615" />
    <line
       x1="351.94168"
       y1="30.401897"
       x2="350.36859"
       y2="27.643993"
       id="line14617" />
    <line
       x1="350.36859"
       y1="27.643993"
       x2="347.61069"
       y2="29.217075"
       id="line14619" />
    <line
       x1="347.61069"
       y1="29.217075"
       x2="346.03763"
       y2="26.459169"
       id="line14621" />
    <line
       x1="346.03763"
       y1="26.459169"
       x2="348.79553"
       y2="24.886087"
       id="line14623" />
    <line
       x1="348.79553"
       y1="24.886087"
       x2="347.22244"
       y2="22.128183"
       id="line14625" />
    <line
       x1="347.22244"
       y1="22.128183"
       x2="344.46454"
       y2="23.701263"
       id="line14627" />
    <line
       x1="344.46454"
       y1="23.701263"
       x2="344.43893"
       y2="23.716026"
       id="line14629" />
    <line
       x1="344.43893"
       y1="23.716026"
       x2="342.84024"
       y2="20.972883"
       id="line14631" />
    <line
       x1="342.84024"
       y1="20.972883"
       x2="345.41415"
       y2="19.228025"
       id="line14633" />
    <line
       x1="345.41415"
       y1="19.228025"
       x2="343.83148"
       y2="16.475628"
       id="line14635" />
    <line
       x1="343.83148"
       y1="16.475628"
       x2="341.12595"
       y2="18.031366"
       id="line14637" />
    <line
       x1="341.12595"
       y1="18.031366"
       x2="339.52725"
       y2="15.288177"
       id="line14639" />
    <line
       x1="339.52725"
       y1="15.288177"
       x2="342.24878"
       y2="13.72323"
       id="line14641" />
    <line
       x1="342.24878"
       y1="13.72323"
       x2="340.72321"
       y2="11.070199"
       id="line14643" />
    <line
       x1="340.72321"
       y1="11.070199"
       x2="337.9863"
       y2="12.644089"
       id="line14645" />
    <line
       x1="337.9863"
       y1="12.644089"
       x2="336.44534"
       y2="10"
       id="line14647" />
    <line
       x1="336.44534"
       y1="10"
       x2="10"
       y2="197.73567"
       id="line14649" />
    <line
       x1="10"
       y1="197.73567"
       x2="20.411409"
       y2="225.42052"
       id="line14651" />
    <line
       x1="20.411409"
       y1="225.42052"
       x2="21.31675"
       y2="227.8279"
       id="line14653" />
    <line
       x1="21.31675"
       y1="227.8279"
       x2="43.333176"
       y2="215.16789"
       id="line14655" />
    <line
       x1="43.333176"
       y1="215.16789"
       x2="45.534817"
       y2="213.90189"
       id="line14657" />
    <line
       x1="45.534817"
       y1="213.90189"
       x2="43.825718"
       y2="210.92967"
       id="line14659" />
    <line
       x1="43.825718"
       y1="210.92967"
       x2="35.019146"
       y2="215.99367"
       id="line14661" />
    <line
       x1="35.019146"
       y1="215.99367"
       x2="32.740345"
       y2="212.03072"
       id="line14663" />
    <line
       x1="32.740345"
       y1="212.03072"
       x2="41.546917"
       y2="206.96672"
       id="line14665" />
    <line
       x1="41.546917"
       y1="206.96672"
       x2="39.204815"
       y2="202.89368"
       id="line14667" />
    <line
       x1="39.204815"
       y1="202.89368"
       x2="38.571815"
       y2="201.79285"
       id="line14669" />
    <line
       x1="38.571815"
       y1="201.79285"
       x2="40.773457"
       y2="200.52686"
       id="line14671" />
    <line
       x1="40.773457"
       y1="200.52686"
       x2="41.406456"
       y2="201.62767"
       id="line14673" />
    <line
       x1="41.406456"
       y1="201.62767"
       x2="63.422882"
       y2="188.96767"
       id="line14675" />
    <line
       x1="63.422882"
       y1="188.96767"
       x2="64.17144"
       y2="188.53723"
       id="line14677" />
    <line
       x1="64.17144"
       y1="188.53723"
       x2="65.437439"
       y2="190.73888"
       id="line14679" />
    <line
       x1="65.437439"
       y1="190.73888"
       x2="64.394531"
       y2="191.33858"
       id="line14681" />
    <line
       x1="64.394531"
       y1="191.33858"
       x2="64.463615"
       y2="191.52226"
       id="line14683" />
    <line
       x1="64.463615"
       y1="191.52226"
       x2="71.04657"
       y2="209.02692"
       id="line14685" />
    <line
       x1="71.04657"
       y1="209.02692"
       x2="74.844604"
       y2="219.0202"
       id="line14687" />
    <line
       x1="74.844604"
       y1="219.0202"
       x2="364.52634"
       y2="52.465137"
       id="line14689" />
    <line
       x1="364.52634"
       y1="52.465137"
       x2="362.95325"
       y2="49.707233"
       id="line14691" />
    <line
       x1="362.95325"
       y1="49.707233"
       x2="360.19534"
       y2="51.280315"
       id="line14693" />
    <line
       x1="360.19534"
       y1="51.280315"
       x2="358.62228"
       y2="48.522411"
       id="line14695" />
    <line
       x1="358.62228"
       y1="48.522411"
       x2="361.38019"
       y2="46.949329"
       id="line14697" />
    <line
       x1="361.38019"
       y1="46.949329"
       x2="359.8071"
       y2="44.191425"
       id="line14699" />
    <line
       x1="359.8071"
       y1="44.191425"
       x2="359.77823"
       y2="44.207893"
       id="line14701" />
    <line
       x1="359.77823"
       y1="44.207893"
       x2="357.04919"
       y2="45.764503"
       id="line14703" />
    <line
       x1="357.04919"
       y1="45.764503"
       x2="355.4761"
       y2="43.006599"
       id="line14705" />
    <line
       x1="355.4761"
       y1="43.006599"
       x2="358.1955"
       y2="41.455479"
       id="line14707" />
    <line
       x1="358.1955"
       y1="41.455479"
       x2="358.23401"
       y2="41.433517"
       id="line14709" />
    <line
       x1="358.23401"
       y1="41.433517"
       x2="356.66092"
       y2="38.675613"
       id="line14711" />
    <line
       x1="356.66092"
       y1="38.675613"
       x2="353.90302"
       y2="40.248695"
       id="line14713" />
    <line
       x1="353.90302"
       y1="40.248695"
       x2="352.32996"
       y2="37.490791"
       id="line14715" />
    <line
       x1="352.32996"
       y1="37.490791"
       x2="355.08786"
       y2="35.917709"
       id="line14717" />
    <line
       x1="355.08786"
       y1="35.917709"
       x2="353.51477"
       y2="33.159801"
       id="line14719" />
    <line
       x1="353.51477"
       y1="33.159801"
       x2="350.75687"
       y2="34.732883"
       id="line14721" />
    <line
       x1="312.08667"
       y1="31.331646"
       x2="334.10587"
       y2="18.670057"
       id="line14723" />
    <line
       x1="334.10587"
       y1="18.670057"
       x2="337.27127"
       y2="24.17485"
       id="line14725" />
    <line
       x1="337.27127"
       y1="24.17485"
       x2="315.25208"
       y2="36.836441"
       id="line14727" />
    <line
       x1="315.25208"
       y1="36.836441"
       x2="312.08667"
       y2="31.331646"
       id="line14729" />
    <line
       x1="349.96371"
       y1="46.247696"
       x2="353.12909"
       y2="51.752491"
       id="line14731" />
    <line
       x1="353.12909"
       y1="51.752491"
       x2="331.10992"
       y2="64.414078"
       id="line14733" />
    <line
       x1="331.10992"
       y1="64.414078"
       x2="327.94452"
       y2="58.909286"
       id="line14735" />
    <line
       x1="327.94452"
       y1="58.909286"
       x2="349.96371"
       y2="46.247696"
       id="line14737" />
    <line
       x1="106.79031"
       y1="190.25697"
       x2="105.65091"
       y2="188.2755"
       id="line14739" />
    <line
       x1="105.65091"
       y1="188.2755"
       x2="107.63239"
       y2="187.13609"
       id="line14741" />
    <line
       x1="107.63239"
       y1="187.13609"
       x2="108.77179"
       y2="189.11757"
       id="line14743" />
    <line
       x1="108.77179"
       y1="189.11757"
       x2="106.79031"
       y2="190.25697"
       id="line14745" />
    <line
       x1="92.440384"
       y1="160.71638"
       x2="93.579781"
       y2="162.69786"
       id="line14747" />
    <line
       x1="93.579781"
       y1="162.69786"
       x2="91.598305"
       y2="163.83727"
       id="line14749" />
    <line
       x1="91.598305"
       y1="163.83727"
       x2="90.4589"
       y2="161.85579"
       id="line14751" />
    <line
       x1="90.4589"
       y1="161.85579"
       x2="92.440384"
       y2="160.71638"
       id="line14753" />
    <line
       x1="99.194305"
       y1="177.04712"
       x2="98.054909"
       y2="175.06564"
       id="line14755" />
    <line
       x1="98.054909"
       y1="175.06564"
       x2="100.03638"
       y2="173.92624"
       id="line14757" />
    <line
       x1="100.03638"
       y1="173.92624"
       x2="101.17579"
       y2="175.90771"
       id="line14759" />
    <line
       x1="101.17579"
       y1="175.90771"
       x2="99.194305"
       y2="177.04712"
       id="line14761" />
    <line
       x1="202.17346"
       y1="94.605957"
       x2="205.33887"
       y2="100.11076"
       id="line14763" />
    <line
       x1="205.33887"
       y1="100.11076"
       x2="183.31969"
       y2="112.77235"
       id="line14765" />
    <line
       x1="183.31969"
       y1="112.77235"
       x2="180.1543"
       y2="107.26755"
       id="line14767" />
    <line
       x1="180.1543"
       y1="107.26755"
       x2="202.17346"
       y2="94.605957"
       id="line14769" />
    <line
       x1="218.00046"
       y1="122.12993"
       x2="221.16585"
       y2="127.63473"
       id="line14771" />
    <line
       x1="221.16585"
       y1="127.63473"
       x2="199.14667"
       y2="140.29631"
       id="line14773" />
    <line
       x1="199.14667"
       y1="140.29631"
       x2="195.98128"
       y2="134.79152"
       id="line14775" />
    <line
       x1="195.98128"
       y1="134.79152"
       x2="218.00046"
       y2="122.12993"
       id="line14777" />
    <line
       x1="84.773216"
       y1="167.76187"
       x2="82.791733"
       y2="168.90126"
       id="line14779" />
    <line
       x1="82.791733"
       y1="168.90126"
       x2="81.652336"
       y2="166.91978"
       id="line14781" />
    <line
       x1="81.652336"
       y1="166.91978"
       x2="83.633812"
       y2="165.78038"
       id="line14783" />
    <line
       x1="83.633812"
       y1="165.78038"
       x2="84.773216"
       y2="167.76187"
       id="line14785" />
    <line
       x1="92.369217"
       y1="180.97173"
       x2="90.387741"
       y2="182.11111"
       id="line14787" />
    <line
       x1="90.387741"
       y1="182.11111"
       x2="89.248337"
       y2="180.12964"
       id="line14789" />
    <line
       x1="89.248337"
       y1="180.12964"
       x2="91.229813"
       y2="178.99023"
       id="line14791" />
    <line
       x1="91.229813"
       y1="178.99023"
       x2="92.369217"
       y2="180.97173"
       id="line14793" />
    <line
       x1="99.965218"
       y1="194.18158"
       x2="97.983742"
       y2="195.32097"
       id="line14795" />
    <line
       x1="97.983742"
       y1="195.32097"
       x2="96.844345"
       y2="193.33949"
       id="line14797" />
    <line
       x1="96.844345"
       y1="193.33949"
       x2="98.825821"
       y2="192.2001"
       id="line14799" />
    <line
       x1="98.825821"
       y1="192.2001"
       x2="99.965218"
       y2="194.18158"
       id="line14801" />
  </g>
</svg>
