<?xml version="1.0" encoding="UTF-8" standalone="no"?>
<svg
   xmlns:dc="http://purl.org/dc/elements/1.1/"
   xmlns:cc="http://creativecommons.org/ns#"
   xmlns:rdf="http://www.w3.org/1999/02/22-rdf-syntax-ns#"
   xmlns:svg="http://www.w3.org/2000/svg"
   xmlns="http://www.w3.org/2000/svg"
   xmlns:sodipodi="http://sodipodi.sourceforge.net/DTD/sodipodi-0.dtd"
   xmlns:inkscape="http://www.inkscape.org/namespaces/inkscape"
   width="1260"
   height="855"
   viewBox="0 0 355.59998 241.29999"
   version="1.1"
   id="svg13979"
   inkscape:version="0.48.2 r9819"
   sodipodi:docname="a.svg">
  <metadata
     id="metadata14176">
    <rdf:RDF>
      <cc:Work
         rdf:about="">
        <dc:format>image/svg+xml</dc:format>
        <dc:type
           rdf:resource="http://purl.org/dc/dcmitype/StillImage" />
        <dc:title></dc:title>
      </cc:Work>
    </rdf:RDF>
  </metadata>
  <defs
     id="defs14174" />
  <sodipodi:namedview
     pagecolor="#ffffff"
     bordercolor="#666666"
     borderopacity="1"
     objecttolerance="10"
     gridtolerance="10"
     guidetolerance="10"
     inkscape:pageopacity="0"
     inkscape:pageshadow="2"
     inkscape:window-width="1680"
     inkscape:window-height="1002"
     id="namedview14172"
     showgrid="false"
     units="in"
     inkscape:zoom="0.74153958"
     inkscape:cx="664.60193"
     inkscape:cy="419.39771"
     inkscape:window-x="0"
     inkscape:window-y="0"
     inkscape:window-maximized="1"
     inkscape:current-layer="svg13979" />
  <desc
     id="desc13981">Output from Flights of Ideas SVG Sketchup Plugin</desc>
  <g
     id="face0"
     stroke-miterlimit="4"
     style="fill:none;stroke:#0000ff;stroke-width:1;stroke-linecap:round;stroke-linejoin:round;stroke-miterlimit:4;stroke-dasharray:none"
     transform="translate(-9.8953281,12.94675)">
    <line
       x1="300.15085"
       y1="18.660479"
       x2="10"
       y2="184.1734"
       id="line13984" />
    <line
       x1="10"
       y1="184.1734"
       x2="11.557689"
       y2="186.90431"
       id="line13986" />
    <line
       x1="11.557689"
       y1="186.90431"
       x2="14.315594"
       y2="185.33124"
       id="line13988" />
    <line
       x1="14.315594"
       y1="185.33124"
       x2="15.873338"
       y2="188.06226"
       id="line13990" />
    <line
       x1="15.873338"
       y1="188.06226"
       x2="13.115433"
       y2="189.63533"
       id="line13992" />
    <line
       x1="13.115433"
       y1="189.63533"
       x2="14.688515"
       y2="192.39323"
       id="line13994" />
    <line
       x1="14.688515"
       y1="192.39323"
       x2="17.446419"
       y2="190.82016"
       id="line13996" />
    <line
       x1="17.446419"
       y1="190.82016"
       x2="19.019501"
       y2="193.57806"
       id="line13998" />
    <line
       x1="19.019501"
       y1="193.57806"
       x2="16.261595"
       y2="195.15114"
       id="line14000" />
    <line
       x1="16.261595"
       y1="195.15114"
       x2="17.834677"
       y2="197.90904"
       id="line14002" />
    <line
       x1="17.834677"
       y1="197.90904"
       x2="20.592583"
       y2="196.33597"
       id="line14004" />
    <line
       x1="20.592583"
       y1="196.33597"
       x2="22.165663"
       y2="199.09387"
       id="line14006" />
    <line
       x1="22.165663"
       y1="199.09387"
       x2="19.407759"
       y2="200.66695"
       id="line14008" />
    <line
       x1="19.407759"
       y1="200.66695"
       x2="21.011513"
       y2="203.47864"
       id="line14010" />
    <line
       x1="21.011513"
       y1="203.47864"
       x2="23.769417"
       y2="201.90555"
       id="line14012" />
    <line
       x1="23.769417"
       y1="201.90555"
       x2="25.342499"
       y2="204.66345"
       id="line14014" />
    <line
       x1="25.342499"
       y1="204.66345"
       x2="22.584593"
       y2="206.23654"
       id="line14016" />
    <line
       x1="22.584593"
       y1="206.23654"
       x2="24.157675"
       y2="208.99445"
       id="line14018" />
    <line
       x1="24.157675"
       y1="208.99445"
       x2="26.915581"
       y2="207.42136"
       id="line14020" />
    <line
       x1="26.915581"
       y1="207.42136"
       x2="28.488661"
       y2="210.17928"
       id="line14022" />
    <line
       x1="28.488661"
       y1="210.17928"
       x2="25.730757"
       y2="211.75235"
       id="line14024" />
    <line
       x1="25.730757"
       y1="211.75235"
       x2="27.303837"
       y2="214.51025"
       id="line14026" />
    <line
       x1="27.303837"
       y1="214.51025"
       x2="30.061743"
       y2="212.93718"
       id="line14028" />
    <line
       x1="30.061743"
       y1="212.93718"
       x2="31.634825"
       y2="215.69508"
       id="line14030" />
    <line
       x1="31.634825"
       y1="215.69508"
       x2="28.876919"
       y2="217.26816"
       id="line14032" />
    <line
       x1="28.876919"
       y1="217.26816"
       x2="30.450001"
       y2="220.02606"
       id="line14034" />
    <line
       x1="30.450001"
       y1="220.02606"
       x2="33.207905"
       y2="218.45299"
       id="line14036" />
    <line
       x1="33.207905"
       y1="218.45299"
       x2="34.780987"
       y2="221.21089"
       id="line14038" />
    <line
       x1="34.780987"
       y1="221.21089"
       x2="32.023083"
       y2="222.78397"
       id="line14040" />
    <line
       x1="32.023083"
       y1="222.78397"
       x2="33.596161"
       y2="225.54187"
       id="line14042" />
    <line
       x1="33.596161"
       y1="225.54187"
       x2="36.354069"
       y2="223.9688"
       id="line14044" />
    <line
       x1="36.354069"
       y1="223.9688"
       x2="37.927147"
       y2="226.7267"
       id="line14046" />
    <line
       x1="37.927147"
       y1="226.7267"
       x2="365.13086"
       y2="40.09222"
       id="line14048" />
    <line
       x1="365.13086"
       y1="40.09222"
       x2="361.3024"
       y2="29.912033"
       id="line14050" />
    <line
       x1="361.3024"
       y1="29.912033"
       x2="354.59244"
       y2="12.256989"
       id="line14052" />
    <line
       x1="354.59244"
       y1="12.256989"
       x2="354.65036"
       y2="12.223687"
       id="line14054" />
    <line
       x1="354.65036"
       y1="12.223687"
       x2="353.81409"
       y2="10"
       id="line14056" />
    <line
       x1="353.81409"
       y1="10"
       x2="331.7536"
       y2="22.583076"
       id="line14058" />
    <line
       x1="331.7536"
       y1="22.583076"
       x2="329.54758"
       y2="23.841385"
       id="line14060" />
    <line
       x1="329.54758"
       y1="23.841385"
       x2="331.24628"
       y2="26.81955"
       id="line14062" />
    <line
       x1="331.24628"
       y1="26.81955"
       x2="340.07047"
       y2="21.78632"
       id="line14064" />
    <line
       x1="340.07047"
       y1="21.78632"
       x2="342.33542"
       y2="25.757206"
       id="line14066" />
    <line
       x1="342.33542"
       y1="25.757206"
       x2="333.51123"
       y2="30.790438"
       id="line14068" />
    <line
       x1="333.51123"
       y1="30.790438"
       x2="334.08154"
       y2="31.814787"
       id="line14070" />
    <line
       x1="334.08154"
       y1="31.814787"
       x2="335.79065"
       y2="34.787006"
       id="line14072" />
    <line
       x1="335.79065"
       y1="34.787006"
       x2="335.83911"
       y2="34.871628"
       id="line14074" />
    <line
       x1="335.83911"
       y1="34.871628"
       x2="336.46826"
       y2="35.974651"
       id="line14076" />
    <line
       x1="336.46826"
       y1="35.974651"
       x2="334.26221"
       y2="37.23296"
       id="line14078" />
    <line
       x1="334.26221"
       y1="37.23296"
       x2="333.63306"
       y2="36.129932"
       id="line14080" />
    <line
       x1="333.63306"
       y1="36.129932"
       x2="311.57257"
       y2="48.713013"
       id="line14082" />
    <line
       x1="311.57257"
       y1="48.713013"
       x2="310.82251"
       y2="49.140835"
       id="line14084" />
    <line
       x1="310.82251"
       y1="49.140835"
       x2="309.56421"
       y2="46.934788"
       id="line14086" />
    <line
       x1="309.56421"
       y1="46.934788"
       x2="310.66724"
       y2="46.305634"
       id="line14088" />
    <line
       x1="310.66724"
       y1="46.305634"
       x2="300.15085"
       y2="18.660479"
       id="line14090" />
    <line
       x1="269.34238"
       y1="49.257778"
       x2="267.35693"
       y2="50.390255"
       id="line14092" />
    <line
       x1="267.35693"
       y1="50.390255"
       x2="266.22446"
       y2="48.404812"
       id="line14094" />
    <line
       x1="266.22446"
       y1="48.404812"
       x2="268.2099"
       y2="47.272335"
       id="line14096" />
    <line
       x1="268.2099"
       y1="47.272335"
       x2="269.34238"
       y2="49.257778"
       id="line14098" />
    <line
       x1="276.18112"
       y1="45.357025"
       x2="275.04865"
       y2="43.371582"
       id="line14100" />
    <line
       x1="275.04865"
       y1="43.371582"
       x2="277.03409"
       y2="42.239105"
       id="line14102" />
    <line
       x1="277.03409"
       y1="42.239105"
       x2="278.16656"
       y2="44.224548"
       id="line14104" />
    <line
       x1="278.16656"
       y1="44.224548"
       x2="276.18112"
       y2="45.357025"
       id="line14106" />
    <line
       x1="276.89224"
       y1="62.494068"
       x2="274.9068"
       y2="63.626545"
       id="line14108" />
    <line
       x1="274.9068"
       y1="63.626545"
       x2="273.77432"
       y2="61.641102"
       id="line14110" />
    <line
       x1="273.77432"
       y1="61.641102"
       x2="275.75977"
       y2="60.508625"
       id="line14112" />
    <line
       x1="275.75977"
       y1="60.508625"
       x2="276.89224"
       y2="62.494068"
       id="line14114" />
    <line
       x1="281.32416"
       y1="74.877388"
       x2="283.3096"
       y2="73.744911"
       id="line14116" />
    <line
       x1="283.3096"
       y1="73.744911"
       x2="284.44208"
       y2="75.730354"
       id="line14118" />
    <line
       x1="284.44208"
       y1="75.730354"
       x2="282.45663"
       y2="76.862831"
       id="line14120" />
    <line
       x1="282.45663"
       y1="76.862831"
       x2="281.32416"
       y2="74.877388"
       id="line14122" />
    <line
       x1="283.73099"
       y1="58.593315"
       x2="282.59851"
       y2="56.607868"
       id="line14124" />
    <line
       x1="282.59851"
       y1="56.607868"
       x2="284.58395"
       y2="55.475391"
       id="line14126" />
    <line
       x1="284.58395"
       y1="55.475391"
       x2="285.71643"
       y2="57.460838"
       id="line14128" />
    <line
       x1="285.71643"
       y1="57.460838"
       x2="283.73099"
       y2="58.593315"
       id="line14130" />
    <line
       x1="290.14835"
       y1="69.844162"
       x2="292.13379"
       y2="68.711685"
       id="line14132" />
    <line
       x1="292.13379"
       y1="68.711685"
       x2="293.26627"
       y2="70.697128"
       id="line14134" />
    <line
       x1="293.26627"
       y1="70.697128"
       x2="291.28082"
       y2="71.829605"
       id="line14136" />
    <line
       x1="291.28082"
       y1="71.829605"
       x2="290.14835"
       y2="69.844162"
       id="line14138" />
    <line
       x1="46.598553"
       y1="177.84724"
       x2="24.535311"
       y2="190.4319"
       id="line14140" />
    <line
       x1="24.535311"
       y1="190.4319"
       x2="21.389149"
       y2="184.91609"
       id="line14142" />
    <line
       x1="21.389149"
       y1="184.91609"
       x2="43.452389"
       y2="172.33144"
       id="line14144" />
    <line
       x1="43.452389"
       y1="172.33144"
       x2="46.598553"
       y2="177.84724"
       id="line14146" />
    <line
       x1="178.82588"
       y1="102.42612"
       x2="156.76263"
       y2="115.01077"
       id="line14148" />
    <line
       x1="156.76263"
       y1="115.01077"
       x2="153.61647"
       y2="109.49496"
       id="line14150" />
    <line
       x1="153.61647"
       y1="109.49496"
       x2="175.67972"
       y2="96.910301"
       id="line14152" />
    <line
       x1="175.67972"
       y1="96.910301"
       x2="178.82588"
       y2="102.42612"
       id="line14154" />
    <line
       x1="194.55669"
       y1="130.00516"
       x2="172.49345"
       y2="142.58981"
       id="line14156" />
    <line
       x1="172.49345"
       y1="142.58981"
       x2="169.34729"
       y2="137.07401"
       id="line14158" />
    <line
       x1="169.34729"
       y1="137.07401"
       x2="191.41052"
       y2="124.48936"
       id="line14160" />
    <line
       x1="191.41052"
       y1="124.48936"
       x2="194.55669"
       y2="130.00516"
       id="line14162" />
    <line
       x1="62.360039"
       y1="205.48007"
       x2="40.296795"
       y2="218.06473"
       id="line14164" />
    <line
       x1="40.296795"
       y1="218.06473"
       x2="37.150635"
       y2="212.54892"
       id="line14166" />
    <line
       x1="37.150635"
       y1="212.54892"
       x2="59.213875"
       y2="199.96426"
       id="line14168" />
    <line
       x1="59.213875"
       y1="199.96426"
       x2="62.360039"
       y2="205.48007"
       id="line14170" />
  </g>
</svg>
